%TF.GenerationSoftware,KiCad,Pcbnew,(5.1.9)-1*%
%TF.CreationDate,2021-03-13T12:52:02-07:00*%
%TF.ProjectId,Pteron56v0,50746572-6f6e-4353-9676-302e6b696361,rev?*%
%TF.SameCoordinates,Original*%
%TF.FileFunction,Copper,L2,Bot*%
%TF.FilePolarity,Positive*%
%FSLAX46Y46*%
G04 Gerber Fmt 4.6, Leading zero omitted, Abs format (unit mm)*
G04 Created by KiCad (PCBNEW (5.1.9)-1) date 2021-03-13 12:52:02*
%MOMM*%
%LPD*%
G01*
G04 APERTURE LIST*
%TA.AperFunction,ComponentPad*%
%ADD10R,1.752600X1.752600*%
%TD*%
%TA.AperFunction,ComponentPad*%
%ADD11C,1.752600*%
%TD*%
%TA.AperFunction,ComponentPad*%
%ADD12C,0.100000*%
%TD*%
%TA.AperFunction,ViaPad*%
%ADD13C,0.800000*%
%TD*%
%TA.AperFunction,Conductor*%
%ADD14C,0.250000*%
%TD*%
G04 APERTURE END LIST*
D10*
%TO.P,U1,1*%
%TO.N,/Row0*%
X137434865Y-104187501D03*
D11*
%TO.P,U1,2*%
%TO.N,/Row1*%
X137434865Y-106727501D03*
%TO.P,U1,3*%
%TO.N,Net-(U1-Pad3)*%
X137434865Y-109267501D03*
%TO.P,U1,4*%
%TO.N,Net-(U1-Pad4)*%
X137434865Y-111807501D03*
%TO.P,U1,5*%
%TO.N,/Col6*%
X137434865Y-114347501D03*
%TO.P,U1,6*%
%TO.N,/Col7*%
X137434865Y-116887501D03*
%TO.P,U1,7*%
%TO.N,/Row3*%
X137434865Y-119427501D03*
%TO.P,U1,8*%
%TO.N,/Col8*%
X137434865Y-121967501D03*
%TO.P,U1,9*%
%TO.N,/Col9*%
X137434865Y-124507501D03*
%TO.P,U1,10*%
%TO.N,/Col11*%
X137434865Y-127047501D03*
%TO.P,U1,11*%
%TO.N,/Col10*%
X137434865Y-129587501D03*
%TO.P,U1,12*%
%TO.N,/Row4*%
X137434865Y-132127501D03*
%TO.P,U1,13*%
%TO.N,/Col1*%
X152674865Y-132127501D03*
%TO.P,U1,14*%
%TO.N,/Col0*%
X152674865Y-129587501D03*
%TO.P,U1,15*%
%TO.N,/Col2*%
X152674865Y-127047501D03*
%TO.P,U1,16*%
%TO.N,/Col3*%
X152674865Y-124507501D03*
%TO.P,U1,17*%
%TO.N,/Col4*%
X152674865Y-121967501D03*
%TO.P,U1,18*%
%TO.N,/Col5*%
X152674865Y-119427501D03*
%TO.P,U1,19*%
%TO.N,Net-(U1-Pad19)*%
X152674865Y-116887501D03*
%TO.P,U1,20*%
%TO.N,/Row2*%
X152674865Y-114347501D03*
%TO.P,U1,21*%
%TO.N,Net-(U1-Pad21)*%
X152674865Y-111807501D03*
%TO.P,U1,22*%
%TO.N,Net-(U1-Pad22)*%
X152674865Y-109267501D03*
%TO.P,U1,23*%
%TO.N,Net-(U1-Pad23)*%
X152674865Y-106727501D03*
%TO.P,U1,24*%
%TO.N,Net-(U1-Pad24)*%
X152674865Y-104187501D03*
%TD*%
%TO.P,SW11,1*%
%TO.N,/Row0*%
%TA.AperFunction,ComponentPad*%
G36*
G01*
X216638927Y-40302473D02*
X217315515Y-38156609D01*
G75*
G02*
X218883543Y-37340345I1192146J-375882D01*
G01*
X218883543Y-37340345D01*
G75*
G02*
X219699807Y-38908373I-375882J-1192146D01*
G01*
X219023219Y-41054237D01*
G75*
G02*
X217455191Y-41870501I-1192146J375882D01*
G01*
X217455191Y-41870501D01*
G75*
G02*
X216638927Y-40302473I375882J1192146D01*
G01*
G37*
%TD.AperFunction*%
%TO.P,SW11,2*%
%TO.N,Net-(D11-Pad2)*%
%TA.AperFunction,ComponentPad*%
G36*
G01*
X222248104Y-37409244D02*
X222136442Y-36840094D01*
G75*
G02*
X223122406Y-35372826I1226616J240652D01*
G01*
X223122406Y-35372826D01*
G75*
G02*
X224589674Y-36358790I240652J-1226616D01*
G01*
X224701336Y-36927940D01*
G75*
G02*
X223715372Y-38395208I-1226616J-240652D01*
G01*
X223715372Y-38395208D01*
G75*
G02*
X222248104Y-37409244I-240652J1226616D01*
G01*
G37*
%TD.AperFunction*%
%TD*%
%TO.P,SW1,1*%
%TO.N,/Row0*%
%TA.AperFunction,ComponentPad*%
G36*
G01*
X255920175Y-39646221D02*
X256596763Y-37500357D01*
G75*
G02*
X258164791Y-36684093I1192146J-375882D01*
G01*
X258164791Y-36684093D01*
G75*
G02*
X258981055Y-38252121I-375882J-1192146D01*
G01*
X258304467Y-40397985D01*
G75*
G02*
X256736439Y-41214249I-1192146J375882D01*
G01*
X256736439Y-41214249D01*
G75*
G02*
X255920175Y-39646221I375882J1192146D01*
G01*
G37*
%TD.AperFunction*%
%TO.P,SW1,2*%
%TO.N,Net-(D1-Pad2)*%
%TA.AperFunction,ComponentPad*%
G36*
G01*
X261529352Y-36752992D02*
X261417690Y-36183842D01*
G75*
G02*
X262403654Y-34716574I1226616J240652D01*
G01*
X262403654Y-34716574D01*
G75*
G02*
X263870922Y-35702538I240652J-1226616D01*
G01*
X263982584Y-36271688D01*
G75*
G02*
X262996620Y-37738956I-1226616J-240652D01*
G01*
X262996620Y-37738956D01*
G75*
G02*
X261529352Y-36752992I-240652J1226616D01*
G01*
G37*
%TD.AperFunction*%
%TD*%
%TO.P,SW17,2*%
%TO.N,Net-(D17-Pad2)*%
%TA.AperFunction,ComponentPad*%
G36*
G01*
X207810605Y-57002993D02*
X207698943Y-56433843D01*
G75*
G02*
X208684907Y-54966575I1226616J240652D01*
G01*
X208684907Y-54966575D01*
G75*
G02*
X210152175Y-55952539I240652J-1226616D01*
G01*
X210263837Y-56521689D01*
G75*
G02*
X209277873Y-57988957I-1226616J-240652D01*
G01*
X209277873Y-57988957D01*
G75*
G02*
X207810605Y-57002993I-240652J1226616D01*
G01*
G37*
%TD.AperFunction*%
%TO.P,SW17,1*%
%TO.N,/Row1*%
%TA.AperFunction,ComponentPad*%
G36*
G01*
X202201428Y-59896222D02*
X202878016Y-57750358D01*
G75*
G02*
X204446044Y-56934094I1192146J-375882D01*
G01*
X204446044Y-56934094D01*
G75*
G02*
X205262308Y-58502122I-375882J-1192146D01*
G01*
X204585720Y-60647986D01*
G75*
G02*
X203017692Y-61464250I-1192146J375882D01*
G01*
X203017692Y-61464250D01*
G75*
G02*
X202201428Y-59896222I375882J1192146D01*
G01*
G37*
%TD.AperFunction*%
%TD*%
%TO.P,SW15,1*%
%TO.N,/Row4*%
%TA.AperFunction,ComponentPad*%
G36*
G01*
X167719699Y-147181098D02*
X167426015Y-144950348D01*
G75*
G02*
X168502163Y-143547884I1239306J163158D01*
G01*
X168502163Y-143547884D01*
G75*
G02*
X169904627Y-144624032I163158J-1239306D01*
G01*
X170198311Y-146854782D01*
G75*
G02*
X169122163Y-148257246I-1239306J-163158D01*
G01*
X169122163Y-148257246D01*
G75*
G02*
X167719699Y-147181098I-163158J1239306D01*
G01*
G37*
%TD.AperFunction*%
%TO.P,SW15,2*%
%TO.N,Net-(D15-Pad2)*%
%TA.AperFunction,ComponentPad*%
G36*
G01*
X171580609Y-142188402D02*
X171238875Y-141719768D01*
G75*
G02*
X171512367Y-139973286I1009987J736495D01*
G01*
X171512367Y-139973286D01*
G75*
G02*
X173258849Y-140246778I736495J-1009987D01*
G01*
X173600583Y-140715412D01*
G75*
G02*
X173327091Y-142461894I-1009987J-736495D01*
G01*
X173327091Y-142461894D01*
G75*
G02*
X171580609Y-142188402I-736495J1009987D01*
G01*
G37*
%TD.AperFunction*%
%TD*%
%TO.P,D1,2*%
%TO.N,Net-(D1-Pad2)*%
%TA.AperFunction,ComponentPad*%
G36*
G01*
X251959354Y-42325412D02*
X251959354Y-42325412D01*
G75*
G02*
X250979558Y-41759726I-207055J772741D01*
G01*
X250979558Y-41759726D01*
G75*
G02*
X251545244Y-40779930I772741J207055D01*
G01*
X251545244Y-40779930D01*
G75*
G02*
X252525040Y-41345616I207055J-772741D01*
G01*
X252525040Y-41345616D01*
G75*
G02*
X251959354Y-42325412I-772741J-207055D01*
G01*
G37*
%TD.AperFunction*%
%TA.AperFunction,ComponentPad*%
D12*
%TO.P,D1,1*%
%TO.N,/Col0*%
G36*
X254704296Y-49478711D02*
G01*
X253158815Y-49892822D01*
X252744704Y-48347341D01*
X254290185Y-47933230D01*
X254704296Y-49478711D01*
G37*
%TD.AperFunction*%
%TD*%
%TA.AperFunction,ComponentPad*%
%TO.P,D2,1*%
%TO.N,/Col0*%
G36*
X259298049Y-66822459D02*
G01*
X257752568Y-67236570D01*
X257338457Y-65691089D01*
X258883938Y-65276978D01*
X259298049Y-66822459D01*
G37*
%TD.AperFunction*%
%TO.P,D2,2*%
%TO.N,Net-(D2-Pad2)*%
%TA.AperFunction,ComponentPad*%
G36*
G01*
X256553107Y-59669160D02*
X256553107Y-59669160D01*
G75*
G02*
X255573311Y-59103474I-207055J772741D01*
G01*
X255573311Y-59103474D01*
G75*
G02*
X256138997Y-58123678I772741J207055D01*
G01*
X256138997Y-58123678D01*
G75*
G02*
X257118793Y-58689364I207055J-772741D01*
G01*
X257118793Y-58689364D01*
G75*
G02*
X256553107Y-59669160I-772741J-207055D01*
G01*
G37*
%TD.AperFunction*%
%TD*%
%TA.AperFunction,ComponentPad*%
%TO.P,D3,1*%
%TO.N,/Col0*%
G36*
X264454292Y-85853709D02*
G01*
X262908811Y-86267820D01*
X262494700Y-84722339D01*
X264040181Y-84308228D01*
X264454292Y-85853709D01*
G37*
%TD.AperFunction*%
%TO.P,D3,2*%
%TO.N,Net-(D3-Pad2)*%
%TA.AperFunction,ComponentPad*%
G36*
G01*
X261709350Y-78700410D02*
X261709350Y-78700410D01*
G75*
G02*
X260729554Y-78134724I-207055J772741D01*
G01*
X260729554Y-78134724D01*
G75*
G02*
X261295240Y-77154928I772741J207055D01*
G01*
X261295240Y-77154928D01*
G75*
G02*
X262275036Y-77720614I207055J-772741D01*
G01*
X262275036Y-77720614D01*
G75*
G02*
X261709350Y-78700410I-772741J-207055D01*
G01*
G37*
%TD.AperFunction*%
%TD*%
%TO.P,D4,2*%
%TO.N,Net-(D4-Pad2)*%
%TA.AperFunction,ComponentPad*%
G36*
G01*
X266584353Y-96794163D02*
X266584353Y-96794163D01*
G75*
G02*
X265604557Y-96228477I-207055J772741D01*
G01*
X265604557Y-96228477D01*
G75*
G02*
X266170243Y-95248681I772741J207055D01*
G01*
X266170243Y-95248681D01*
G75*
G02*
X267150039Y-95814367I207055J-772741D01*
G01*
X267150039Y-95814367D01*
G75*
G02*
X266584353Y-96794163I-772741J-207055D01*
G01*
G37*
%TD.AperFunction*%
%TA.AperFunction,ComponentPad*%
%TO.P,D4,1*%
%TO.N,/Col0*%
G36*
X269329295Y-103947462D02*
G01*
X267783814Y-104361573D01*
X267369703Y-102816092D01*
X268915184Y-102401981D01*
X269329295Y-103947462D01*
G37*
%TD.AperFunction*%
%TD*%
%TO.P,D5,2*%
%TO.N,Net-(D5-Pad2)*%
%TA.AperFunction,ComponentPad*%
G36*
G01*
X228008743Y-112871910D02*
X228008743Y-112871910D01*
G75*
G02*
X227028947Y-112306224I-207055J772741D01*
G01*
X227028947Y-112306224D01*
G75*
G02*
X227594633Y-111326428I772741J207055D01*
G01*
X227594633Y-111326428D01*
G75*
G02*
X228574429Y-111892114I207055J-772741D01*
G01*
X228574429Y-111892114D01*
G75*
G02*
X228008743Y-112871910I-772741J-207055D01*
G01*
G37*
%TD.AperFunction*%
%TA.AperFunction,ComponentPad*%
%TO.P,D5,1*%
%TO.N,/Col0*%
G36*
X230753685Y-120025209D02*
G01*
X229208204Y-120439320D01*
X228794093Y-118893839D01*
X230339574Y-118479728D01*
X230753685Y-120025209D01*
G37*
%TD.AperFunction*%
%TD*%
%TA.AperFunction,ComponentPad*%
%TO.P,D6,1*%
%TO.N,/Col1*%
G36*
X236235547Y-54447457D02*
G01*
X234690066Y-54861568D01*
X234275955Y-53316087D01*
X235821436Y-52901976D01*
X236235547Y-54447457D01*
G37*
%TD.AperFunction*%
%TO.P,D6,2*%
%TO.N,Net-(D6-Pad2)*%
%TA.AperFunction,ComponentPad*%
G36*
G01*
X233490605Y-47294158D02*
X233490605Y-47294158D01*
G75*
G02*
X232510809Y-46728472I-207055J772741D01*
G01*
X232510809Y-46728472D01*
G75*
G02*
X233076495Y-45748676I772741J207055D01*
G01*
X233076495Y-45748676D01*
G75*
G02*
X234056291Y-46314362I207055J-772741D01*
G01*
X234056291Y-46314362D01*
G75*
G02*
X233490605Y-47294158I-772741J-207055D01*
G01*
G37*
%TD.AperFunction*%
%TD*%
%TO.P,D7,2*%
%TO.N,Net-(D7-Pad2)*%
%TA.AperFunction,ComponentPad*%
G36*
G01*
X237896855Y-63325410D02*
X237896855Y-63325410D01*
G75*
G02*
X236917059Y-62759724I-207055J772741D01*
G01*
X236917059Y-62759724D01*
G75*
G02*
X237482745Y-61779928I772741J207055D01*
G01*
X237482745Y-61779928D01*
G75*
G02*
X238462541Y-62345614I207055J-772741D01*
G01*
X238462541Y-62345614D01*
G75*
G02*
X237896855Y-63325410I-772741J-207055D01*
G01*
G37*
%TD.AperFunction*%
%TA.AperFunction,ComponentPad*%
%TO.P,D7,1*%
%TO.N,/Col1*%
G36*
X240641797Y-70478709D02*
G01*
X239096316Y-70892820D01*
X238682205Y-69347339D01*
X240227686Y-68933228D01*
X240641797Y-70478709D01*
G37*
%TD.AperFunction*%
%TD*%
%TO.P,D8,2*%
%TO.N,Net-(D8-Pad2)*%
%TA.AperFunction,ComponentPad*%
G36*
G01*
X243146855Y-83012915D02*
X243146855Y-83012915D01*
G75*
G02*
X242167059Y-82447229I-207055J772741D01*
G01*
X242167059Y-82447229D01*
G75*
G02*
X242732745Y-81467433I772741J207055D01*
G01*
X242732745Y-81467433D01*
G75*
G02*
X243712541Y-82033119I207055J-772741D01*
G01*
X243712541Y-82033119D01*
G75*
G02*
X243146855Y-83012915I-772741J-207055D01*
G01*
G37*
%TD.AperFunction*%
%TA.AperFunction,ComponentPad*%
%TO.P,D8,1*%
%TO.N,/Col1*%
G36*
X245891797Y-90166214D02*
G01*
X244346316Y-90580325D01*
X243932205Y-89034844D01*
X245477686Y-88620733D01*
X245891797Y-90166214D01*
G37*
%TD.AperFunction*%
%TD*%
%TA.AperFunction,ComponentPad*%
%TO.P,D9,1*%
%TO.N,/Col1*%
G36*
X250579296Y-108916210D02*
G01*
X249033815Y-109330321D01*
X248619704Y-107784840D01*
X250165185Y-107370729D01*
X250579296Y-108916210D01*
G37*
%TD.AperFunction*%
%TO.P,D9,2*%
%TO.N,Net-(D9-Pad2)*%
%TA.AperFunction,ComponentPad*%
G36*
G01*
X247834354Y-101762911D02*
X247834354Y-101762911D01*
G75*
G02*
X246854558Y-101197225I-207055J772741D01*
G01*
X246854558Y-101197225D01*
G75*
G02*
X247420244Y-100217429I772741J207055D01*
G01*
X247420244Y-100217429D01*
G75*
G02*
X248400040Y-100783115I207055J-772741D01*
G01*
X248400040Y-100783115D01*
G75*
G02*
X247834354Y-101762911I-772741J-207055D01*
G01*
G37*
%TD.AperFunction*%
%TD*%
%TA.AperFunction,ComponentPad*%
%TO.P,D10,1*%
%TO.N,/Col1*%
G36*
X234466456Y-119030373D02*
G01*
X232920975Y-119444484D01*
X232506864Y-117899003D01*
X234052345Y-117484892D01*
X234466456Y-119030373D01*
G37*
%TD.AperFunction*%
%TO.P,D10,2*%
%TO.N,Net-(D10-Pad2)*%
%TA.AperFunction,ComponentPad*%
G36*
G01*
X231721514Y-111877074D02*
X231721514Y-111877074D01*
G75*
G02*
X230741718Y-111311388I-207055J772741D01*
G01*
X230741718Y-111311388D01*
G75*
G02*
X231307404Y-110331592I772741J207055D01*
G01*
X231307404Y-110331592D01*
G75*
G02*
X232287200Y-110897278I207055J-772741D01*
G01*
X232287200Y-110897278D01*
G75*
G02*
X231721514Y-111877074I-772741J-207055D01*
G01*
G37*
%TD.AperFunction*%
%TD*%
%TO.P,D11,2*%
%TO.N,Net-(D11-Pad2)*%
%TA.AperFunction,ComponentPad*%
G36*
G01*
X212490602Y-42606661D02*
X212490602Y-42606661D01*
G75*
G02*
X211510806Y-42040975I-207055J772741D01*
G01*
X211510806Y-42040975D01*
G75*
G02*
X212076492Y-41061179I772741J207055D01*
G01*
X212076492Y-41061179D01*
G75*
G02*
X213056288Y-41626865I207055J-772741D01*
G01*
X213056288Y-41626865D01*
G75*
G02*
X212490602Y-42606661I-772741J-207055D01*
G01*
G37*
%TD.AperFunction*%
%TA.AperFunction,ComponentPad*%
%TO.P,D11,1*%
%TO.N,/Col2*%
G36*
X215235544Y-49759960D02*
G01*
X213690063Y-50174071D01*
X213275952Y-48628590D01*
X214821433Y-48214479D01*
X215235544Y-49759960D01*
G37*
%TD.AperFunction*%
%TD*%
%TA.AperFunction,ComponentPad*%
%TO.P,D12,1*%
%TO.N,/Col2*%
G36*
X220110550Y-67478709D02*
G01*
X218565069Y-67892820D01*
X218150958Y-66347339D01*
X219696439Y-65933228D01*
X220110550Y-67478709D01*
G37*
%TD.AperFunction*%
%TO.P,D12,2*%
%TO.N,Net-(D12-Pad2)*%
%TA.AperFunction,ComponentPad*%
G36*
G01*
X217365608Y-60325410D02*
X217365608Y-60325410D01*
G75*
G02*
X216385812Y-59759724I-207055J772741D01*
G01*
X216385812Y-59759724D01*
G75*
G02*
X216951498Y-58779928I772741J207055D01*
G01*
X216951498Y-58779928D01*
G75*
G02*
X217931294Y-59345614I207055J-772741D01*
G01*
X217931294Y-59345614D01*
G75*
G02*
X217365608Y-60325410I-772741J-207055D01*
G01*
G37*
%TD.AperFunction*%
%TD*%
%TO.P,D13,2*%
%TO.N,Net-(D13-Pad2)*%
%TA.AperFunction,ComponentPad*%
G36*
G01*
X222240606Y-78606664D02*
X222240606Y-78606664D01*
G75*
G02*
X221260810Y-78040978I-207055J772741D01*
G01*
X221260810Y-78040978D01*
G75*
G02*
X221826496Y-77061182I772741J207055D01*
G01*
X221826496Y-77061182D01*
G75*
G02*
X222806292Y-77626868I207055J-772741D01*
G01*
X222806292Y-77626868D01*
G75*
G02*
X222240606Y-78606664I-772741J-207055D01*
G01*
G37*
%TD.AperFunction*%
%TA.AperFunction,ComponentPad*%
%TO.P,D13,1*%
%TO.N,/Col2*%
G36*
X224985548Y-85759963D02*
G01*
X223440067Y-86174074D01*
X223025956Y-84628593D01*
X224571437Y-84214482D01*
X224985548Y-85759963D01*
G37*
%TD.AperFunction*%
%TD*%
%TA.AperFunction,ComponentPad*%
%TO.P,D14,1*%
%TO.N,/Col2*%
G36*
X229954296Y-104416214D02*
G01*
X228408815Y-104830325D01*
X227994704Y-103284844D01*
X229540185Y-102870733D01*
X229954296Y-104416214D01*
G37*
%TD.AperFunction*%
%TO.P,D14,2*%
%TO.N,Net-(D14-Pad2)*%
%TA.AperFunction,ComponentPad*%
G36*
G01*
X227209354Y-97262915D02*
X227209354Y-97262915D01*
G75*
G02*
X226229558Y-96697229I-207055J772741D01*
G01*
X226229558Y-96697229D01*
G75*
G02*
X226795244Y-95717433I772741J207055D01*
G01*
X226795244Y-95717433D01*
G75*
G02*
X227775040Y-96283119I207055J-772741D01*
G01*
X227775040Y-96283119D01*
G75*
G02*
X227209354Y-97262915I-772741J-207055D01*
G01*
G37*
%TD.AperFunction*%
%TD*%
%TO.P,D15,2*%
%TO.N,Net-(D15-Pad2)*%
%TA.AperFunction,ComponentPad*%
G36*
G01*
X235524848Y-110857976D02*
X235524848Y-110857976D01*
G75*
G02*
X234545052Y-110292290I-207055J772741D01*
G01*
X234545052Y-110292290D01*
G75*
G02*
X235110738Y-109312494I772741J207055D01*
G01*
X235110738Y-109312494D01*
G75*
G02*
X236090534Y-109878180I207055J-772741D01*
G01*
X236090534Y-109878180D01*
G75*
G02*
X235524848Y-110857976I-772741J-207055D01*
G01*
G37*
%TD.AperFunction*%
%TA.AperFunction,ComponentPad*%
%TO.P,D15,1*%
%TO.N,/Col2*%
G36*
X238269790Y-118011275D02*
G01*
X236724309Y-118425386D01*
X236310198Y-116879905D01*
X237855679Y-116465794D01*
X238269790Y-118011275D01*
G37*
%TD.AperFunction*%
%TD*%
%TA.AperFunction,ComponentPad*%
%TO.P,D16,1*%
%TO.N,/Col3*%
G36*
X196263244Y-52882919D02*
G01*
X194717763Y-53297030D01*
X194303652Y-51751549D01*
X195849133Y-51337438D01*
X196263244Y-52882919D01*
G37*
%TD.AperFunction*%
%TO.P,D16,2*%
%TO.N,Net-(D16-Pad2)*%
%TA.AperFunction,ComponentPad*%
G36*
G01*
X193518302Y-45729620D02*
X193518302Y-45729620D01*
G75*
G02*
X192538506Y-45163934I-207055J772741D01*
G01*
X192538506Y-45163934D01*
G75*
G02*
X193104192Y-44184138I772741J207055D01*
G01*
X193104192Y-44184138D01*
G75*
G02*
X194083988Y-44749824I207055J-772741D01*
G01*
X194083988Y-44749824D01*
G75*
G02*
X193518302Y-45729620I-772741J-207055D01*
G01*
G37*
%TD.AperFunction*%
%TD*%
%TO.P,D17,2*%
%TO.N,Net-(D17-Pad2)*%
%TA.AperFunction,ComponentPad*%
G36*
G01*
X197927903Y-61824248D02*
X197927903Y-61824248D01*
G75*
G02*
X196948107Y-61258562I-207055J772741D01*
G01*
X196948107Y-61258562D01*
G75*
G02*
X197513793Y-60278766I772741J207055D01*
G01*
X197513793Y-60278766D01*
G75*
G02*
X198493589Y-60844452I207055J-772741D01*
G01*
X198493589Y-60844452D01*
G75*
G02*
X197927903Y-61824248I-772741J-207055D01*
G01*
G37*
%TD.AperFunction*%
%TA.AperFunction,ComponentPad*%
%TO.P,D17,1*%
%TO.N,/Col3*%
G36*
X200672845Y-68977547D02*
G01*
X199127364Y-69391658D01*
X198713253Y-67846177D01*
X200258734Y-67432066D01*
X200672845Y-68977547D01*
G37*
%TD.AperFunction*%
%TD*%
%TA.AperFunction,ComponentPad*%
%TO.P,D18,1*%
%TO.N,/Col3*%
G36*
X205991481Y-87740308D02*
G01*
X204446000Y-88154419D01*
X204031889Y-86608938D01*
X205577370Y-86194827D01*
X205991481Y-87740308D01*
G37*
%TD.AperFunction*%
%TO.P,D18,2*%
%TO.N,Net-(D18-Pad2)*%
%TA.AperFunction,ComponentPad*%
G36*
G01*
X203246539Y-80587009D02*
X203246539Y-80587009D01*
G75*
G02*
X202266743Y-80021323I-207055J772741D01*
G01*
X202266743Y-80021323D01*
G75*
G02*
X202832429Y-79041527I772741J207055D01*
G01*
X202832429Y-79041527D01*
G75*
G02*
X203812225Y-79607213I207055J-772741D01*
G01*
X203812225Y-79607213D01*
G75*
G02*
X203246539Y-80587009I-772741J-207055D01*
G01*
G37*
%TD.AperFunction*%
%TD*%
%TA.AperFunction,ComponentPad*%
%TO.P,D19,1*%
%TO.N,/Col3*%
G36*
X210778045Y-105966235D02*
G01*
X209232564Y-106380346D01*
X208818453Y-104834865D01*
X210363934Y-104420754D01*
X210778045Y-105966235D01*
G37*
%TD.AperFunction*%
%TO.P,D19,2*%
%TO.N,Net-(D19-Pad2)*%
%TA.AperFunction,ComponentPad*%
G36*
G01*
X208033103Y-98812936D02*
X208033103Y-98812936D01*
G75*
G02*
X207053307Y-98247250I-207055J772741D01*
G01*
X207053307Y-98247250D01*
G75*
G02*
X207618993Y-97267454I772741J207055D01*
G01*
X207618993Y-97267454D01*
G75*
G02*
X208598789Y-97833140I207055J-772741D01*
G01*
X208598789Y-97833140D01*
G75*
G02*
X208033103Y-98812936I-772741J-207055D01*
G01*
G37*
%TD.AperFunction*%
%TD*%
%TA.AperFunction,ComponentPad*%
%TO.P,D20,1*%
%TO.N,/Col3*%
G36*
X242163681Y-116967910D02*
G01*
X240618200Y-117382021D01*
X240204089Y-115836540D01*
X241749570Y-115422429D01*
X242163681Y-116967910D01*
G37*
%TD.AperFunction*%
%TO.P,D20,2*%
%TO.N,Net-(D20-Pad2)*%
%TA.AperFunction,ComponentPad*%
G36*
G01*
X239418739Y-109814611D02*
X239418739Y-109814611D01*
G75*
G02*
X238438943Y-109248925I-207055J772741D01*
G01*
X238438943Y-109248925D01*
G75*
G02*
X239004629Y-108269129I772741J207055D01*
G01*
X239004629Y-108269129D01*
G75*
G02*
X239984425Y-108834815I207055J-772741D01*
G01*
X239984425Y-108834815D01*
G75*
G02*
X239418739Y-109814611I-772741J-207055D01*
G01*
G37*
%TD.AperFunction*%
%TD*%
%TO.P,D21,2*%
%TO.N,Net-(D21-Pad2)*%
%TA.AperFunction,ComponentPad*%
G36*
G01*
X176303106Y-54325410D02*
X176303106Y-54325410D01*
G75*
G02*
X175323310Y-53759724I-207055J772741D01*
G01*
X175323310Y-53759724D01*
G75*
G02*
X175888996Y-52779928I772741J207055D01*
G01*
X175888996Y-52779928D01*
G75*
G02*
X176868792Y-53345614I207055J-772741D01*
G01*
X176868792Y-53345614D01*
G75*
G02*
X176303106Y-54325410I-772741J-207055D01*
G01*
G37*
%TD.AperFunction*%
%TA.AperFunction,ComponentPad*%
%TO.P,D21,1*%
%TO.N,/Col4*%
G36*
X179048048Y-61478709D02*
G01*
X177502567Y-61892820D01*
X177088456Y-60347339D01*
X178633937Y-59933228D01*
X179048048Y-61478709D01*
G37*
%TD.AperFunction*%
%TD*%
%TA.AperFunction,ComponentPad*%
%TO.P,D22,1*%
%TO.N,/Col4*%
G36*
X183829302Y-79478712D02*
G01*
X182283821Y-79892823D01*
X181869710Y-78347342D01*
X183415191Y-77933231D01*
X183829302Y-79478712D01*
G37*
%TD.AperFunction*%
%TO.P,D22,2*%
%TO.N,Net-(D22-Pad2)*%
%TA.AperFunction,ComponentPad*%
G36*
G01*
X181084360Y-72325413D02*
X181084360Y-72325413D01*
G75*
G02*
X180104564Y-71759727I-207055J772741D01*
G01*
X180104564Y-71759727D01*
G75*
G02*
X180670250Y-70779931I772741J207055D01*
G01*
X180670250Y-70779931D01*
G75*
G02*
X181650046Y-71345617I207055J-772741D01*
G01*
X181650046Y-71345617D01*
G75*
G02*
X181084360Y-72325413I-772741J-207055D01*
G01*
G37*
%TD.AperFunction*%
%TD*%
%TA.AperFunction,ComponentPad*%
%TO.P,D23,1*%
%TO.N,/Col4*%
G36*
X188985545Y-98134959D02*
G01*
X187440064Y-98549070D01*
X187025953Y-97003589D01*
X188571434Y-96589478D01*
X188985545Y-98134959D01*
G37*
%TD.AperFunction*%
%TO.P,D23,2*%
%TO.N,Net-(D23-Pad2)*%
%TA.AperFunction,ComponentPad*%
G36*
G01*
X186240603Y-90981660D02*
X186240603Y-90981660D01*
G75*
G02*
X185260807Y-90415974I-207055J772741D01*
G01*
X185260807Y-90415974D01*
G75*
G02*
X185826493Y-89436178I772741J207055D01*
G01*
X185826493Y-89436178D01*
G75*
G02*
X186806289Y-90001864I207055J-772741D01*
G01*
X186806289Y-90001864D01*
G75*
G02*
X186240603Y-90981660I-772741J-207055D01*
G01*
G37*
%TD.AperFunction*%
%TD*%
%TO.P,D24,2*%
%TO.N,Net-(D24-Pad2)*%
%TA.AperFunction,ComponentPad*%
G36*
G01*
X191021847Y-109450411D02*
X191021847Y-109450411D01*
G75*
G02*
X190042051Y-108884725I-207055J772741D01*
G01*
X190042051Y-108884725D01*
G75*
G02*
X190607737Y-107904929I772741J207055D01*
G01*
X190607737Y-107904929D01*
G75*
G02*
X191587533Y-108470615I207055J-772741D01*
G01*
X191587533Y-108470615D01*
G75*
G02*
X191021847Y-109450411I-772741J-207055D01*
G01*
G37*
%TD.AperFunction*%
%TA.AperFunction,ComponentPad*%
%TO.P,D24,1*%
%TO.N,/Col4*%
G36*
X193766789Y-116603710D02*
G01*
X192221308Y-117017821D01*
X191807197Y-115472340D01*
X193352678Y-115058229D01*
X193766789Y-116603710D01*
G37*
%TD.AperFunction*%
%TD*%
%TA.AperFunction,ComponentPad*%
%TO.P,D25,1*%
%TO.N,/Col5*%
G36*
X161141799Y-67947460D02*
G01*
X159596318Y-68361571D01*
X159182207Y-66816090D01*
X160727688Y-66401979D01*
X161141799Y-67947460D01*
G37*
%TD.AperFunction*%
%TO.P,D25,2*%
%TO.N,Net-(D25-Pad2)*%
%TA.AperFunction,ComponentPad*%
G36*
G01*
X158396857Y-60794161D02*
X158396857Y-60794161D01*
G75*
G02*
X157417061Y-60228475I-207055J772741D01*
G01*
X157417061Y-60228475D01*
G75*
G02*
X157982747Y-59248679I772741J207055D01*
G01*
X157982747Y-59248679D01*
G75*
G02*
X158962543Y-59814365I207055J-772741D01*
G01*
X158962543Y-59814365D01*
G75*
G02*
X158396857Y-60794161I-772741J-207055D01*
G01*
G37*
%TD.AperFunction*%
%TD*%
%TO.P,D26,2*%
%TO.N,Net-(D26-Pad2)*%
%TA.AperFunction,ComponentPad*%
G36*
G01*
X163084352Y-79169160D02*
X163084352Y-79169160D01*
G75*
G02*
X162104556Y-78603474I-207055J772741D01*
G01*
X162104556Y-78603474D01*
G75*
G02*
X162670242Y-77623678I772741J207055D01*
G01*
X162670242Y-77623678D01*
G75*
G02*
X163650038Y-78189364I207055J-772741D01*
G01*
X163650038Y-78189364D01*
G75*
G02*
X163084352Y-79169160I-772741J-207055D01*
G01*
G37*
%TD.AperFunction*%
%TA.AperFunction,ComponentPad*%
%TO.P,D26,1*%
%TO.N,/Col5*%
G36*
X165829294Y-86322459D02*
G01*
X164283813Y-86736570D01*
X163869702Y-85191089D01*
X165415183Y-84776978D01*
X165829294Y-86322459D01*
G37*
%TD.AperFunction*%
%TD*%
%TA.AperFunction,ComponentPad*%
%TO.P,D27,1*%
%TO.N,/Col5*%
G36*
X170798052Y-104697459D02*
G01*
X169252571Y-105111570D01*
X168838460Y-103566089D01*
X170383941Y-103151978D01*
X170798052Y-104697459D01*
G37*
%TD.AperFunction*%
%TO.P,D27,2*%
%TO.N,Net-(D27-Pad2)*%
%TA.AperFunction,ComponentPad*%
G36*
G01*
X168053110Y-97544160D02*
X168053110Y-97544160D01*
G75*
G02*
X167073314Y-96978474I-207055J772741D01*
G01*
X167073314Y-96978474D01*
G75*
G02*
X167639000Y-95998678I772741J207055D01*
G01*
X167639000Y-95998678D01*
G75*
G02*
X168618796Y-96564364I207055J-772741D01*
G01*
X168618796Y-96564364D01*
G75*
G02*
X168053110Y-97544160I-772741J-207055D01*
G01*
G37*
%TD.AperFunction*%
%TD*%
%TA.AperFunction,ComponentPad*%
%TO.P,D28,1*%
%TO.N,/Col5*%
G36*
X175766796Y-122884959D02*
G01*
X174221315Y-123299070D01*
X173807204Y-121753589D01*
X175352685Y-121339478D01*
X175766796Y-122884959D01*
G37*
%TD.AperFunction*%
%TO.P,D28,2*%
%TO.N,Net-(D28-Pad2)*%
%TA.AperFunction,ComponentPad*%
G36*
G01*
X173021854Y-115731660D02*
X173021854Y-115731660D01*
G75*
G02*
X172042058Y-115165974I-207055J772741D01*
G01*
X172042058Y-115165974D01*
G75*
G02*
X172607744Y-114186178I772741J207055D01*
G01*
X172607744Y-114186178D01*
G75*
G02*
X173587540Y-114751864I207055J-772741D01*
G01*
X173587540Y-114751864D01*
G75*
G02*
X173021854Y-115731660I-772741J-207055D01*
G01*
G37*
%TD.AperFunction*%
%TD*%
%TO.P,D29,2*%
%TO.N,Net-(D29-Pad2)*%
%TA.AperFunction,ComponentPad*%
G36*
G01*
X131115605Y-66469387D02*
X131115605Y-66469387D01*
G75*
G02*
X131681291Y-67449183I-207055J-772741D01*
G01*
X131681291Y-67449183D01*
G75*
G02*
X130701495Y-68014869I-772741J207055D01*
G01*
X130701495Y-68014869D01*
G75*
G02*
X130135809Y-67035073I207055J772741D01*
G01*
X130135809Y-67035073D01*
G75*
G02*
X131115605Y-66469387I772741J-207055D01*
G01*
G37*
%TD.AperFunction*%
%TA.AperFunction,ComponentPad*%
%TO.P,D29,1*%
%TO.N,/Col6*%
G36*
X132315066Y-58901977D02*
G01*
X133860547Y-59316088D01*
X133446436Y-60861569D01*
X131900955Y-60447458D01*
X132315066Y-58901977D01*
G37*
%TD.AperFunction*%
%TD*%
%TO.P,D30,2*%
%TO.N,Net-(D30-Pad2)*%
%TA.AperFunction,ComponentPad*%
G36*
G01*
X126428104Y-84656885D02*
X126428104Y-84656885D01*
G75*
G02*
X126993790Y-85636681I-207055J-772741D01*
G01*
X126993790Y-85636681D01*
G75*
G02*
X126013994Y-86202367I-772741J207055D01*
G01*
X126013994Y-86202367D01*
G75*
G02*
X125448308Y-85222571I207055J772741D01*
G01*
X125448308Y-85222571D01*
G75*
G02*
X126428104Y-84656885I772741J-207055D01*
G01*
G37*
%TD.AperFunction*%
%TA.AperFunction,ComponentPad*%
%TO.P,D30,1*%
%TO.N,/Col6*%
G36*
X127627565Y-77089475D02*
G01*
X129173046Y-77503586D01*
X128758935Y-79049067D01*
X127213454Y-78634956D01*
X127627565Y-77089475D01*
G37*
%TD.AperFunction*%
%TD*%
%TA.AperFunction,ComponentPad*%
%TO.P,D31,1*%
%TO.N,/Col6*%
G36*
X122565065Y-96026981D02*
G01*
X124110546Y-96441092D01*
X123696435Y-97986573D01*
X122150954Y-97572462D01*
X122565065Y-96026981D01*
G37*
%TD.AperFunction*%
%TO.P,D31,2*%
%TO.N,Net-(D31-Pad2)*%
%TA.AperFunction,ComponentPad*%
G36*
G01*
X121365604Y-103594391D02*
X121365604Y-103594391D01*
G75*
G02*
X121931290Y-104574187I-207055J-772741D01*
G01*
X121931290Y-104574187D01*
G75*
G02*
X120951494Y-105139873I-772741J207055D01*
G01*
X120951494Y-105139873D01*
G75*
G02*
X120385808Y-104160077I207055J772741D01*
G01*
X120385808Y-104160077D01*
G75*
G02*
X121365604Y-103594391I772741J-207055D01*
G01*
G37*
%TD.AperFunction*%
%TD*%
%TO.P,D32,2*%
%TO.N,Net-(D32-Pad2)*%
%TA.AperFunction,ComponentPad*%
G36*
G01*
X116396855Y-121500641D02*
X116396855Y-121500641D01*
G75*
G02*
X116962541Y-122480437I-207055J-772741D01*
G01*
X116962541Y-122480437D01*
G75*
G02*
X115982745Y-123046123I-772741J207055D01*
G01*
X115982745Y-123046123D01*
G75*
G02*
X115417059Y-122066327I207055J772741D01*
G01*
X115417059Y-122066327D01*
G75*
G02*
X116396855Y-121500641I772741J-207055D01*
G01*
G37*
%TD.AperFunction*%
%TA.AperFunction,ComponentPad*%
%TO.P,D32,1*%
%TO.N,/Col6*%
G36*
X117596316Y-113933231D02*
G01*
X119141797Y-114347342D01*
X118727686Y-115892823D01*
X117182205Y-115478712D01*
X117596316Y-113933231D01*
G37*
%TD.AperFunction*%
%TD*%
%TA.AperFunction,ComponentPad*%
%TO.P,D33,1*%
%TO.N,/Col7*%
G36*
X114356733Y-52867656D02*
G01*
X115902214Y-53281767D01*
X115488103Y-54827248D01*
X113942622Y-54413137D01*
X114356733Y-52867656D01*
G37*
%TD.AperFunction*%
%TO.P,D33,2*%
%TO.N,Net-(D33-Pad2)*%
%TA.AperFunction,ComponentPad*%
G36*
G01*
X113157272Y-60435066D02*
X113157272Y-60435066D01*
G75*
G02*
X113722958Y-61414862I-207055J-772741D01*
G01*
X113722958Y-61414862D01*
G75*
G02*
X112743162Y-61980548I-772741J207055D01*
G01*
X112743162Y-61980548D01*
G75*
G02*
X112177476Y-61000752I207055J772741D01*
G01*
X112177476Y-61000752D01*
G75*
G02*
X113157272Y-60435066I772741J-207055D01*
G01*
G37*
%TD.AperFunction*%
%TD*%
%TO.P,D34,2*%
%TO.N,Net-(D34-Pad2)*%
%TA.AperFunction,ComponentPad*%
G36*
G01*
X108304421Y-78546179D02*
X108304421Y-78546179D01*
G75*
G02*
X108870107Y-79525975I-207055J-772741D01*
G01*
X108870107Y-79525975D01*
G75*
G02*
X107890311Y-80091661I-772741J207055D01*
G01*
X107890311Y-80091661D01*
G75*
G02*
X107324625Y-79111865I207055J772741D01*
G01*
X107324625Y-79111865D01*
G75*
G02*
X108304421Y-78546179I772741J-207055D01*
G01*
G37*
%TD.AperFunction*%
%TA.AperFunction,ComponentPad*%
%TO.P,D34,1*%
%TO.N,/Col7*%
G36*
X109503882Y-70978769D02*
G01*
X111049363Y-71392880D01*
X110635252Y-72938361D01*
X109089771Y-72524250D01*
X109503882Y-70978769D01*
G37*
%TD.AperFunction*%
%TD*%
%TA.AperFunction,ComponentPad*%
%TO.P,D35,1*%
%TO.N,/Col7*%
G36*
X104699548Y-88908768D02*
G01*
X106245029Y-89322879D01*
X105830918Y-90868360D01*
X104285437Y-90454249D01*
X104699548Y-88908768D01*
G37*
%TD.AperFunction*%
%TO.P,D35,2*%
%TO.N,Net-(D35-Pad2)*%
%TA.AperFunction,ComponentPad*%
G36*
G01*
X103500087Y-96476178D02*
X103500087Y-96476178D01*
G75*
G02*
X104065773Y-97455974I-207055J-772741D01*
G01*
X104065773Y-97455974D01*
G75*
G02*
X103085977Y-98021660I-772741J207055D01*
G01*
X103085977Y-98021660D01*
G75*
G02*
X102520291Y-97041864I207055J772741D01*
G01*
X102520291Y-97041864D01*
G75*
G02*
X103500087Y-96476178I772741J-207055D01*
G01*
G37*
%TD.AperFunction*%
%TD*%
%TA.AperFunction,ComponentPad*%
%TO.P,D36,1*%
%TO.N,/Col7*%
G36*
X99804666Y-106814506D02*
G01*
X101350147Y-107228617D01*
X100936036Y-108774098D01*
X99390555Y-108359987D01*
X99804666Y-106814506D01*
G37*
%TD.AperFunction*%
%TO.P,D36,2*%
%TO.N,Net-(D36-Pad2)*%
%TA.AperFunction,ComponentPad*%
G36*
G01*
X98605205Y-114381916D02*
X98605205Y-114381916D01*
G75*
G02*
X99170891Y-115361712I-207055J-772741D01*
G01*
X99170891Y-115361712D01*
G75*
G02*
X98191095Y-115927398I-772741J207055D01*
G01*
X98191095Y-115927398D01*
G75*
G02*
X97625409Y-114947602I207055J772741D01*
G01*
X97625409Y-114947602D01*
G75*
G02*
X98605205Y-114381916I772741J-207055D01*
G01*
G37*
%TD.AperFunction*%
%TD*%
%TO.P,D37,2*%
%TO.N,Net-(D37-Pad2)*%
%TA.AperFunction,ComponentPad*%
G36*
G01*
X96097777Y-49846445D02*
X96097777Y-49846445D01*
G75*
G02*
X96663463Y-50826241I-207055J-772741D01*
G01*
X96663463Y-50826241D01*
G75*
G02*
X95683667Y-51391927I-772741J207055D01*
G01*
X95683667Y-51391927D01*
G75*
G02*
X95117981Y-50412131I207055J772741D01*
G01*
X95117981Y-50412131D01*
G75*
G02*
X96097777Y-49846445I772741J-207055D01*
G01*
G37*
%TD.AperFunction*%
%TA.AperFunction,ComponentPad*%
%TO.P,D37,1*%
%TO.N,/Col8*%
G36*
X97297238Y-42279035D02*
G01*
X98842719Y-42693146D01*
X98428608Y-44238627D01*
X96883127Y-43824516D01*
X97297238Y-42279035D01*
G37*
%TD.AperFunction*%
%TD*%
%TO.P,D38,2*%
%TO.N,Net-(D38-Pad2)*%
%TA.AperFunction,ComponentPad*%
G36*
G01*
X91459353Y-67594386D02*
X91459353Y-67594386D01*
G75*
G02*
X92025039Y-68574182I-207055J-772741D01*
G01*
X92025039Y-68574182D01*
G75*
G02*
X91045243Y-69139868I-772741J207055D01*
G01*
X91045243Y-69139868D01*
G75*
G02*
X90479557Y-68160072I207055J772741D01*
G01*
X90479557Y-68160072D01*
G75*
G02*
X91459353Y-67594386I772741J-207055D01*
G01*
G37*
%TD.AperFunction*%
%TA.AperFunction,ComponentPad*%
%TO.P,D38,1*%
%TO.N,/Col8*%
G36*
X92658814Y-60026976D02*
G01*
X94204295Y-60441087D01*
X93790184Y-61986568D01*
X92244703Y-61572457D01*
X92658814Y-60026976D01*
G37*
%TD.AperFunction*%
%TD*%
%TO.P,D39,2*%
%TO.N,Net-(D39-Pad2)*%
%TA.AperFunction,ComponentPad*%
G36*
G01*
X86490602Y-86531888D02*
X86490602Y-86531888D01*
G75*
G02*
X87056288Y-87511684I-207055J-772741D01*
G01*
X87056288Y-87511684D01*
G75*
G02*
X86076492Y-88077370I-772741J207055D01*
G01*
X86076492Y-88077370D01*
G75*
G02*
X85510806Y-87097574I207055J772741D01*
G01*
X85510806Y-87097574D01*
G75*
G02*
X86490602Y-86531888I772741J-207055D01*
G01*
G37*
%TD.AperFunction*%
%TA.AperFunction,ComponentPad*%
%TO.P,D39,1*%
%TO.N,/Col8*%
G36*
X87690063Y-78964478D02*
G01*
X89235544Y-79378589D01*
X88821433Y-80924070D01*
X87275952Y-80509959D01*
X87690063Y-78964478D01*
G37*
%TD.AperFunction*%
%TD*%
%TA.AperFunction,ComponentPad*%
%TO.P,D40,1*%
%TO.N,/Col8*%
G36*
X82815061Y-97151979D02*
G01*
X84360542Y-97566090D01*
X83946431Y-99111571D01*
X82400950Y-98697460D01*
X82815061Y-97151979D01*
G37*
%TD.AperFunction*%
%TO.P,D40,2*%
%TO.N,Net-(D40-Pad2)*%
%TA.AperFunction,ComponentPad*%
G36*
G01*
X81615600Y-104719389D02*
X81615600Y-104719389D01*
G75*
G02*
X82181286Y-105699185I-207055J-772741D01*
G01*
X82181286Y-105699185D01*
G75*
G02*
X81201490Y-106264871I-772741J207055D01*
G01*
X81201490Y-106264871D01*
G75*
G02*
X80635804Y-105285075I207055J772741D01*
G01*
X80635804Y-105285075D01*
G75*
G02*
X81615600Y-104719389I772741J-207055D01*
G01*
G37*
%TD.AperFunction*%
%TD*%
%TA.AperFunction,ComponentPad*%
%TO.P,D41,1*%
%TO.N,/Col8*%
G36*
X54623015Y-118978871D02*
G01*
X53077534Y-118564760D01*
X53491645Y-117019279D01*
X55037126Y-117433390D01*
X54623015Y-118978871D01*
G37*
%TD.AperFunction*%
%TO.P,D41,2*%
%TO.N,Net-(D41-Pad2)*%
%TA.AperFunction,ComponentPad*%
G36*
G01*
X55822476Y-111411461D02*
X55822476Y-111411461D01*
G75*
G02*
X55256790Y-110431665I207055J772741D01*
G01*
X55256790Y-110431665D01*
G75*
G02*
X56236586Y-109865979I772741J-207055D01*
G01*
X56236586Y-109865979D01*
G75*
G02*
X56802272Y-110845775I-207055J-772741D01*
G01*
X56802272Y-110845775D01*
G75*
G02*
X55822476Y-111411461I-772741J207055D01*
G01*
G37*
%TD.AperFunction*%
%TD*%
%TO.P,D42,2*%
%TO.N,Net-(D42-Pad2)*%
%TA.AperFunction,ComponentPad*%
G36*
G01*
X77021850Y-48094390D02*
X77021850Y-48094390D01*
G75*
G02*
X77587536Y-49074186I-207055J-772741D01*
G01*
X77587536Y-49074186D01*
G75*
G02*
X76607740Y-49639872I-772741J207055D01*
G01*
X76607740Y-49639872D01*
G75*
G02*
X76042054Y-48660076I207055J772741D01*
G01*
X76042054Y-48660076D01*
G75*
G02*
X77021850Y-48094390I772741J-207055D01*
G01*
G37*
%TD.AperFunction*%
%TA.AperFunction,ComponentPad*%
%TO.P,D42,1*%
%TO.N,/Col9*%
G36*
X78221311Y-40526980D02*
G01*
X79766792Y-40941091D01*
X79352681Y-42486572D01*
X77807200Y-42072461D01*
X78221311Y-40526980D01*
G37*
%TD.AperFunction*%
%TD*%
%TO.P,D43,2*%
%TO.N,Net-(D43-Pad2)*%
%TA.AperFunction,ComponentPad*%
G36*
G01*
X72223672Y-65302538D02*
X72223672Y-65302538D01*
G75*
G02*
X72789358Y-66282334I-207055J-772741D01*
G01*
X72789358Y-66282334D01*
G75*
G02*
X71809562Y-66848020I-772741J207055D01*
G01*
X71809562Y-66848020D01*
G75*
G02*
X71243876Y-65868224I207055J772741D01*
G01*
X71243876Y-65868224D01*
G75*
G02*
X72223672Y-65302538I772741J-207055D01*
G01*
G37*
%TD.AperFunction*%
%TA.AperFunction,ComponentPad*%
%TO.P,D43,1*%
%TO.N,/Col9*%
G36*
X73423133Y-57735128D02*
G01*
X74968614Y-58149239D01*
X74554503Y-59694720D01*
X73009022Y-59280609D01*
X73423133Y-57735128D01*
G37*
%TD.AperFunction*%
%TD*%
%TO.P,D44,2*%
%TO.N,Net-(D44-Pad2)*%
%TA.AperFunction,ComponentPad*%
G36*
G01*
X66990604Y-85781888D02*
X66990604Y-85781888D01*
G75*
G02*
X67556290Y-86761684I-207055J-772741D01*
G01*
X67556290Y-86761684D01*
G75*
G02*
X66576494Y-87327370I-772741J207055D01*
G01*
X66576494Y-87327370D01*
G75*
G02*
X66010808Y-86347574I207055J772741D01*
G01*
X66010808Y-86347574D01*
G75*
G02*
X66990604Y-85781888I772741J-207055D01*
G01*
G37*
%TD.AperFunction*%
%TA.AperFunction,ComponentPad*%
%TO.P,D44,1*%
%TO.N,/Col9*%
G36*
X68190065Y-78214478D02*
G01*
X69735546Y-78628589D01*
X69321435Y-80174070D01*
X67775954Y-79759959D01*
X68190065Y-78214478D01*
G37*
%TD.AperFunction*%
%TD*%
%TO.P,D45,2*%
%TO.N,Net-(D45-Pad2)*%
%TA.AperFunction,ComponentPad*%
G36*
G01*
X62303102Y-102844387D02*
X62303102Y-102844387D01*
G75*
G02*
X62868788Y-103824183I-207055J-772741D01*
G01*
X62868788Y-103824183D01*
G75*
G02*
X61888992Y-104389869I-772741J207055D01*
G01*
X61888992Y-104389869D01*
G75*
G02*
X61323306Y-103410073I207055J772741D01*
G01*
X61323306Y-103410073D01*
G75*
G02*
X62303102Y-102844387I772741J-207055D01*
G01*
G37*
%TD.AperFunction*%
%TA.AperFunction,ComponentPad*%
%TO.P,D45,1*%
%TO.N,/Col9*%
G36*
X63502563Y-95276977D02*
G01*
X65048044Y-95691088D01*
X64633933Y-97236569D01*
X63088452Y-96822458D01*
X63502563Y-95276977D01*
G37*
%TD.AperFunction*%
%TD*%
%TO.P,D46,2*%
%TO.N,Net-(D46-Pad2)*%
%TA.AperFunction,ComponentPad*%
G36*
G01*
X59535256Y-112406299D02*
X59535256Y-112406299D01*
G75*
G02*
X58969570Y-111426503I207055J772741D01*
G01*
X58969570Y-111426503D01*
G75*
G02*
X59949366Y-110860817I772741J-207055D01*
G01*
X59949366Y-110860817D01*
G75*
G02*
X60515052Y-111840613I-207055J-772741D01*
G01*
X60515052Y-111840613D01*
G75*
G02*
X59535256Y-112406299I-772741J207055D01*
G01*
G37*
%TD.AperFunction*%
%TA.AperFunction,ComponentPad*%
%TO.P,D46,1*%
%TO.N,/Col9*%
G36*
X58335795Y-119973709D02*
G01*
X56790314Y-119559598D01*
X57204425Y-118014117D01*
X58749906Y-118428228D01*
X58335795Y-119973709D01*
G37*
%TD.AperFunction*%
%TD*%
%TA.AperFunction,ComponentPad*%
%TO.P,D47,1*%
%TO.N,/Col10*%
G36*
X57315063Y-44651978D02*
G01*
X58860544Y-45066089D01*
X58446433Y-46611570D01*
X56900952Y-46197459D01*
X57315063Y-44651978D01*
G37*
%TD.AperFunction*%
%TO.P,D47,2*%
%TO.N,Net-(D47-Pad2)*%
%TA.AperFunction,ComponentPad*%
G36*
G01*
X56115602Y-52219388D02*
X56115602Y-52219388D01*
G75*
G02*
X56681288Y-53199184I-207055J-772741D01*
G01*
X56681288Y-53199184D01*
G75*
G02*
X55701492Y-53764870I-772741J207055D01*
G01*
X55701492Y-53764870D01*
G75*
G02*
X55135806Y-52785074I207055J772741D01*
G01*
X55135806Y-52785074D01*
G75*
G02*
X56115602Y-52219388I772741J-207055D01*
G01*
G37*
%TD.AperFunction*%
%TD*%
%TO.P,D48,2*%
%TO.N,Net-(D48-Pad2)*%
%TA.AperFunction,ComponentPad*%
G36*
G01*
X51334357Y-70219392D02*
X51334357Y-70219392D01*
G75*
G02*
X51900043Y-71199188I-207055J-772741D01*
G01*
X51900043Y-71199188D01*
G75*
G02*
X50920247Y-71764874I-772741J207055D01*
G01*
X50920247Y-71764874D01*
G75*
G02*
X50354561Y-70785078I207055J772741D01*
G01*
X50354561Y-70785078D01*
G75*
G02*
X51334357Y-70219392I772741J-207055D01*
G01*
G37*
%TD.AperFunction*%
%TA.AperFunction,ComponentPad*%
%TO.P,D48,1*%
%TO.N,/Col10*%
G36*
X52533818Y-62651982D02*
G01*
X54079299Y-63066093D01*
X53665188Y-64611574D01*
X52119707Y-64197463D01*
X52533818Y-62651982D01*
G37*
%TD.AperFunction*%
%TD*%
%TO.P,D49,2*%
%TO.N,Net-(D49-Pad2)*%
%TA.AperFunction,ComponentPad*%
G36*
G01*
X46178102Y-89438137D02*
X46178102Y-89438137D01*
G75*
G02*
X46743788Y-90417933I-207055J-772741D01*
G01*
X46743788Y-90417933D01*
G75*
G02*
X45763992Y-90983619I-772741J207055D01*
G01*
X45763992Y-90983619D01*
G75*
G02*
X45198306Y-90003823I207055J772741D01*
G01*
X45198306Y-90003823D01*
G75*
G02*
X46178102Y-89438137I772741J-207055D01*
G01*
G37*
%TD.AperFunction*%
%TA.AperFunction,ComponentPad*%
%TO.P,D49,1*%
%TO.N,/Col10*%
G36*
X47377563Y-81870727D02*
G01*
X48923044Y-82284838D01*
X48508933Y-83830319D01*
X46963452Y-83416208D01*
X47377563Y-81870727D01*
G37*
%TD.AperFunction*%
%TD*%
%TA.AperFunction,ComponentPad*%
%TO.P,D50,1*%
%TO.N,/Col10*%
G36*
X42596310Y-99964480D02*
G01*
X44141791Y-100378591D01*
X43727680Y-101924072D01*
X42182199Y-101509961D01*
X42596310Y-99964480D01*
G37*
%TD.AperFunction*%
%TO.P,D50,2*%
%TO.N,Net-(D50-Pad2)*%
%TA.AperFunction,ComponentPad*%
G36*
G01*
X41396849Y-107531890D02*
X41396849Y-107531890D01*
G75*
G02*
X41962535Y-108511686I-207055J-772741D01*
G01*
X41962535Y-108511686D01*
G75*
G02*
X40982739Y-109077372I-772741J207055D01*
G01*
X40982739Y-109077372D01*
G75*
G02*
X40417053Y-108097576I207055J772741D01*
G01*
X40417053Y-108097576D01*
G75*
G02*
X41396849Y-107531890I772741J-207055D01*
G01*
G37*
%TD.AperFunction*%
%TD*%
%TA.AperFunction,ComponentPad*%
%TO.P,D51,1*%
%TO.N,/Col10*%
G36*
X62048575Y-120968544D02*
G01*
X60503094Y-120554433D01*
X60917205Y-119008952D01*
X62462686Y-119423063D01*
X62048575Y-120968544D01*
G37*
%TD.AperFunction*%
%TO.P,D51,2*%
%TO.N,Net-(D51-Pad2)*%
%TA.AperFunction,ComponentPad*%
G36*
G01*
X63248036Y-113401134D02*
X63248036Y-113401134D01*
G75*
G02*
X62682350Y-112421338I207055J772741D01*
G01*
X62682350Y-112421338D01*
G75*
G02*
X63662146Y-111855652I772741J-207055D01*
G01*
X63662146Y-111855652D01*
G75*
G02*
X64227832Y-112835448I-207055J-772741D01*
G01*
X64227832Y-112835448D01*
G75*
G02*
X63248036Y-113401134I-772741J207055D01*
G01*
G37*
%TD.AperFunction*%
%TD*%
%TA.AperFunction,ComponentPad*%
%TO.P,D52,1*%
%TO.N,/Col11*%
G36*
X38752565Y-40058231D02*
G01*
X40298046Y-40472342D01*
X39883935Y-42017823D01*
X38338454Y-41603712D01*
X38752565Y-40058231D01*
G37*
%TD.AperFunction*%
%TO.P,D52,2*%
%TO.N,Net-(D52-Pad2)*%
%TA.AperFunction,ComponentPad*%
G36*
G01*
X37553104Y-47625641D02*
X37553104Y-47625641D01*
G75*
G02*
X38118790Y-48605437I-207055J-772741D01*
G01*
X38118790Y-48605437D01*
G75*
G02*
X37138994Y-49171123I-772741J207055D01*
G01*
X37138994Y-49171123D01*
G75*
G02*
X36573308Y-48191327I207055J772741D01*
G01*
X36573308Y-48191327D01*
G75*
G02*
X37553104Y-47625641I772741J-207055D01*
G01*
G37*
%TD.AperFunction*%
%TD*%
%TO.P,D53,2*%
%TO.N,Net-(D53-Pad2)*%
%TA.AperFunction,ComponentPad*%
G36*
G01*
X32865604Y-66000642D02*
X32865604Y-66000642D01*
G75*
G02*
X33431290Y-66980438I-207055J-772741D01*
G01*
X33431290Y-66980438D01*
G75*
G02*
X32451494Y-67546124I-772741J207055D01*
G01*
X32451494Y-67546124D01*
G75*
G02*
X31885808Y-66566328I207055J772741D01*
G01*
X31885808Y-66566328D01*
G75*
G02*
X32865604Y-66000642I772741J-207055D01*
G01*
G37*
%TD.AperFunction*%
%TA.AperFunction,ComponentPad*%
%TO.P,D53,1*%
%TO.N,/Col11*%
G36*
X34065065Y-58433232D02*
G01*
X35610546Y-58847343D01*
X35196435Y-60392824D01*
X33650954Y-59978713D01*
X34065065Y-58433232D01*
G37*
%TD.AperFunction*%
%TD*%
%TO.P,D54,2*%
%TO.N,Net-(D54-Pad2)*%
%TA.AperFunction,ComponentPad*%
G36*
G01*
X27709356Y-85219387D02*
X27709356Y-85219387D01*
G75*
G02*
X28275042Y-86199183I-207055J-772741D01*
G01*
X28275042Y-86199183D01*
G75*
G02*
X27295246Y-86764869I-772741J207055D01*
G01*
X27295246Y-86764869D01*
G75*
G02*
X26729560Y-85785073I207055J772741D01*
G01*
X26729560Y-85785073D01*
G75*
G02*
X27709356Y-85219387I772741J-207055D01*
G01*
G37*
%TD.AperFunction*%
%TA.AperFunction,ComponentPad*%
%TO.P,D54,1*%
%TO.N,/Col11*%
G36*
X28908817Y-77651977D02*
G01*
X30454298Y-78066088D01*
X30040187Y-79611569D01*
X28494706Y-79197458D01*
X28908817Y-77651977D01*
G37*
%TD.AperFunction*%
%TD*%
%TA.AperFunction,ComponentPad*%
%TO.P,D55,1*%
%TO.N,/Col11*%
G36*
X24221318Y-94901980D02*
G01*
X25766799Y-95316091D01*
X25352688Y-96861572D01*
X23807207Y-96447461D01*
X24221318Y-94901980D01*
G37*
%TD.AperFunction*%
%TO.P,D55,2*%
%TO.N,Net-(D55-Pad2)*%
%TA.AperFunction,ComponentPad*%
G36*
G01*
X23021857Y-102469390D02*
X23021857Y-102469390D01*
G75*
G02*
X23587543Y-103449186I-207055J-772741D01*
G01*
X23587543Y-103449186D01*
G75*
G02*
X22607747Y-104014872I-772741J207055D01*
G01*
X22607747Y-104014872D01*
G75*
G02*
X22042061Y-103035076I207055J772741D01*
G01*
X22042061Y-103035076D01*
G75*
G02*
X23021857Y-102469390I772741J-207055D01*
G01*
G37*
%TD.AperFunction*%
%TD*%
%TA.AperFunction,ComponentPad*%
%TO.P,D56,1*%
%TO.N,/Col11*%
G36*
X65761349Y-121963381D02*
G01*
X64215868Y-121549270D01*
X64629979Y-120003789D01*
X66175460Y-120417900D01*
X65761349Y-121963381D01*
G37*
%TD.AperFunction*%
%TO.P,D56,2*%
%TO.N,Net-(D56-Pad2)*%
%TA.AperFunction,ComponentPad*%
G36*
G01*
X66960810Y-114395971D02*
X66960810Y-114395971D01*
G75*
G02*
X66395124Y-113416175I207055J772741D01*
G01*
X66395124Y-113416175D01*
G75*
G02*
X67374920Y-112850489I772741J-207055D01*
G01*
X67374920Y-112850489D01*
G75*
G02*
X67940606Y-113830285I-207055J-772741D01*
G01*
X67940606Y-113830285D01*
G75*
G02*
X66960810Y-114395971I-772741J207055D01*
G01*
G37*
%TD.AperFunction*%
%TD*%
%TO.P,SW2,1*%
%TO.N,/Row1*%
%TA.AperFunction,ComponentPad*%
G36*
G01*
X260888932Y-58021221D02*
X261565520Y-55875357D01*
G75*
G02*
X263133548Y-55059093I1192146J-375882D01*
G01*
X263133548Y-55059093D01*
G75*
G02*
X263949812Y-56627121I-375882J-1192146D01*
G01*
X263273224Y-58772985D01*
G75*
G02*
X261705196Y-59589249I-1192146J375882D01*
G01*
X261705196Y-59589249D01*
G75*
G02*
X260888932Y-58021221I375882J1192146D01*
G01*
G37*
%TD.AperFunction*%
%TO.P,SW2,2*%
%TO.N,Net-(D2-Pad2)*%
%TA.AperFunction,ComponentPad*%
G36*
G01*
X266498109Y-55127992D02*
X266386447Y-54558842D01*
G75*
G02*
X267372411Y-53091574I1226616J240652D01*
G01*
X267372411Y-53091574D01*
G75*
G02*
X268839679Y-54077538I240652J-1226616D01*
G01*
X268951341Y-54646688D01*
G75*
G02*
X267965377Y-56113956I-1226616J-240652D01*
G01*
X267965377Y-56113956D01*
G75*
G02*
X266498109Y-55127992I-240652J1226616D01*
G01*
G37*
%TD.AperFunction*%
%TD*%
%TO.P,SW3,2*%
%TO.N,Net-(D3-Pad2)*%
%TA.AperFunction,ComponentPad*%
G36*
G01*
X271373109Y-73502991D02*
X271261447Y-72933841D01*
G75*
G02*
X272247411Y-71466573I1226616J240652D01*
G01*
X272247411Y-71466573D01*
G75*
G02*
X273714679Y-72452537I240652J-1226616D01*
G01*
X273826341Y-73021687D01*
G75*
G02*
X272840377Y-74488955I-1226616J-240652D01*
G01*
X272840377Y-74488955D01*
G75*
G02*
X271373109Y-73502991I-240652J1226616D01*
G01*
G37*
%TD.AperFunction*%
%TO.P,SW3,1*%
%TO.N,/Row2*%
%TA.AperFunction,ComponentPad*%
G36*
G01*
X265763932Y-76396220D02*
X266440520Y-74250356D01*
G75*
G02*
X268008548Y-73434092I1192146J-375882D01*
G01*
X268008548Y-73434092D01*
G75*
G02*
X268824812Y-75002120I-375882J-1192146D01*
G01*
X268148224Y-77147984D01*
G75*
G02*
X266580196Y-77964248I-1192146J375882D01*
G01*
X266580196Y-77964248D01*
G75*
G02*
X265763932Y-76396220I375882J1192146D01*
G01*
G37*
%TD.AperFunction*%
%TD*%
%TO.P,SW4,1*%
%TO.N,/Row3*%
%TA.AperFunction,ComponentPad*%
G36*
G01*
X270732677Y-94771222D02*
X271409265Y-92625358D01*
G75*
G02*
X272977293Y-91809094I1192146J-375882D01*
G01*
X272977293Y-91809094D01*
G75*
G02*
X273793557Y-93377122I-375882J-1192146D01*
G01*
X273116969Y-95522986D01*
G75*
G02*
X271548941Y-96339250I-1192146J375882D01*
G01*
X271548941Y-96339250D01*
G75*
G02*
X270732677Y-94771222I375882J1192146D01*
G01*
G37*
%TD.AperFunction*%
%TO.P,SW4,2*%
%TO.N,Net-(D4-Pad2)*%
%TA.AperFunction,ComponentPad*%
G36*
G01*
X276341854Y-91877993D02*
X276230192Y-91308843D01*
G75*
G02*
X277216156Y-89841575I1226616J240652D01*
G01*
X277216156Y-89841575D01*
G75*
G02*
X278683424Y-90827539I240652J-1226616D01*
G01*
X278795086Y-91396689D01*
G75*
G02*
X277809122Y-92863957I-1226616J-240652D01*
G01*
X277809122Y-92863957D01*
G75*
G02*
X276341854Y-91877993I-240652J1226616D01*
G01*
G37*
%TD.AperFunction*%
%TD*%
%TO.P,SW5,1*%
%TO.N,/Row4*%
%TA.AperFunction,ComponentPad*%
G36*
G01*
X203982679Y-125708720D02*
X204659267Y-123562856D01*
G75*
G02*
X206227295Y-122746592I1192146J-375882D01*
G01*
X206227295Y-122746592D01*
G75*
G02*
X207043559Y-124314620I-375882J-1192146D01*
G01*
X206366971Y-126460484D01*
G75*
G02*
X204798943Y-127276748I-1192146J375882D01*
G01*
X204798943Y-127276748D01*
G75*
G02*
X203982679Y-125708720I375882J1192146D01*
G01*
G37*
%TD.AperFunction*%
%TO.P,SW5,2*%
%TO.N,Net-(D5-Pad2)*%
%TA.AperFunction,ComponentPad*%
G36*
G01*
X209591856Y-122815491D02*
X209480194Y-122246341D01*
G75*
G02*
X210466158Y-120779073I1226616J240652D01*
G01*
X210466158Y-120779073D01*
G75*
G02*
X211933426Y-121765037I240652J-1226616D01*
G01*
X212045088Y-122334187D01*
G75*
G02*
X211059124Y-123801455I-1226616J-240652D01*
G01*
X211059124Y-123801455D01*
G75*
G02*
X209591856Y-122815491I-240652J1226616D01*
G01*
G37*
%TD.AperFunction*%
%TD*%
%TO.P,SW6,2*%
%TO.N,Net-(D6-Pad2)*%
%TA.AperFunction,ComponentPad*%
G36*
G01*
X243154353Y-41627993D02*
X243042691Y-41058843D01*
G75*
G02*
X244028655Y-39591575I1226616J240652D01*
G01*
X244028655Y-39591575D01*
G75*
G02*
X245495923Y-40577539I240652J-1226616D01*
G01*
X245607585Y-41146689D01*
G75*
G02*
X244621621Y-42613957I-1226616J-240652D01*
G01*
X244621621Y-42613957D01*
G75*
G02*
X243154353Y-41627993I-240652J1226616D01*
G01*
G37*
%TD.AperFunction*%
%TO.P,SW6,1*%
%TO.N,/Row0*%
%TA.AperFunction,ComponentPad*%
G36*
G01*
X237545176Y-44521222D02*
X238221764Y-42375358D01*
G75*
G02*
X239789792Y-41559094I1192146J-375882D01*
G01*
X239789792Y-41559094D01*
G75*
G02*
X240606056Y-43127122I-375882J-1192146D01*
G01*
X239929468Y-45272986D01*
G75*
G02*
X238361440Y-46089250I-1192146J375882D01*
G01*
X238361440Y-46089250D01*
G75*
G02*
X237545176Y-44521222I375882J1192146D01*
G01*
G37*
%TD.AperFunction*%
%TD*%
%TO.P,SW7,2*%
%TO.N,Net-(D7-Pad2)*%
%TA.AperFunction,ComponentPad*%
G36*
G01*
X248029354Y-60096739D02*
X247917692Y-59527589D01*
G75*
G02*
X248903656Y-58060321I1226616J240652D01*
G01*
X248903656Y-58060321D01*
G75*
G02*
X250370924Y-59046285I240652J-1226616D01*
G01*
X250482586Y-59615435D01*
G75*
G02*
X249496622Y-61082703I-1226616J-240652D01*
G01*
X249496622Y-61082703D01*
G75*
G02*
X248029354Y-60096739I-240652J1226616D01*
G01*
G37*
%TD.AperFunction*%
%TO.P,SW7,1*%
%TO.N,/Row1*%
%TA.AperFunction,ComponentPad*%
G36*
G01*
X242420177Y-62989968D02*
X243096765Y-60844104D01*
G75*
G02*
X244664793Y-60027840I1192146J-375882D01*
G01*
X244664793Y-60027840D01*
G75*
G02*
X245481057Y-61595868I-375882J-1192146D01*
G01*
X244804469Y-63741732D01*
G75*
G02*
X243236441Y-64557996I-1192146J375882D01*
G01*
X243236441Y-64557996D01*
G75*
G02*
X242420177Y-62989968I375882J1192146D01*
G01*
G37*
%TD.AperFunction*%
%TD*%
%TO.P,SW8,1*%
%TO.N,/Row2*%
%TA.AperFunction,ComponentPad*%
G36*
G01*
X247388931Y-81364968D02*
X248065519Y-79219104D01*
G75*
G02*
X249633547Y-78402840I1192146J-375882D01*
G01*
X249633547Y-78402840D01*
G75*
G02*
X250449811Y-79970868I-375882J-1192146D01*
G01*
X249773223Y-82116732D01*
G75*
G02*
X248205195Y-82932996I-1192146J375882D01*
G01*
X248205195Y-82932996D01*
G75*
G02*
X247388931Y-81364968I375882J1192146D01*
G01*
G37*
%TD.AperFunction*%
%TO.P,SW8,2*%
%TO.N,Net-(D8-Pad2)*%
%TA.AperFunction,ComponentPad*%
G36*
G01*
X252998108Y-78471739D02*
X252886446Y-77902589D01*
G75*
G02*
X253872410Y-76435321I1226616J240652D01*
G01*
X253872410Y-76435321D01*
G75*
G02*
X255339678Y-77421285I240652J-1226616D01*
G01*
X255451340Y-77990435D01*
G75*
G02*
X254465376Y-79457703I-1226616J-240652D01*
G01*
X254465376Y-79457703D01*
G75*
G02*
X252998108Y-78471739I-240652J1226616D01*
G01*
G37*
%TD.AperFunction*%
%TD*%
%TO.P,SW9,2*%
%TO.N,Net-(D9-Pad2)*%
%TA.AperFunction,ComponentPad*%
G36*
G01*
X257966859Y-96846747D02*
X257855197Y-96277597D01*
G75*
G02*
X258841161Y-94810329I1226616J240652D01*
G01*
X258841161Y-94810329D01*
G75*
G02*
X260308429Y-95796293I240652J-1226616D01*
G01*
X260420091Y-96365443D01*
G75*
G02*
X259434127Y-97832711I-1226616J-240652D01*
G01*
X259434127Y-97832711D01*
G75*
G02*
X257966859Y-96846747I-240652J1226616D01*
G01*
G37*
%TD.AperFunction*%
%TO.P,SW9,1*%
%TO.N,/Row3*%
%TA.AperFunction,ComponentPad*%
G36*
G01*
X252357682Y-99739976D02*
X253034270Y-97594112D01*
G75*
G02*
X254602298Y-96777848I1192146J-375882D01*
G01*
X254602298Y-96777848D01*
G75*
G02*
X255418562Y-98345876I-375882J-1192146D01*
G01*
X254741974Y-100491740D01*
G75*
G02*
X253173946Y-101308004I-1192146J375882D01*
G01*
X253173946Y-101308004D01*
G75*
G02*
X252357682Y-99739976I375882J1192146D01*
G01*
G37*
%TD.AperFunction*%
%TD*%
%TO.P,SW10,2*%
%TO.N,Net-(D10-Pad2)*%
%TA.AperFunction,ComponentPad*%
G36*
G01*
X189531137Y-130423065D02*
X189298935Y-129891575D01*
G75*
G02*
X189943952Y-128245686I1145453J500436D01*
G01*
X189943952Y-128245686D01*
G75*
G02*
X191589841Y-128890703I500436J-1145453D01*
G01*
X191822043Y-129422193D01*
G75*
G02*
X191177026Y-131068082I-1145453J-500436D01*
G01*
X191177026Y-131068082D01*
G75*
G02*
X189531137Y-130423065I-500436J1145453D01*
G01*
G37*
%TD.AperFunction*%
%TO.P,SW10,1*%
%TO.N,/Row4*%
%TA.AperFunction,ComponentPad*%
G36*
G01*
X184681130Y-134461760D02*
X184877230Y-132220322D01*
G75*
G02*
X186231418Y-131084024I1245243J-108945D01*
G01*
X186231418Y-131084024D01*
G75*
G02*
X187367716Y-132438212I-108945J-1245243D01*
G01*
X187171616Y-134679650D01*
G75*
G02*
X185817428Y-135815948I-1245243J108945D01*
G01*
X185817428Y-135815948D01*
G75*
G02*
X184681130Y-134461760I108945J1245243D01*
G01*
G37*
%TD.AperFunction*%
%TD*%
%TO.P,SW12,1*%
%TO.N,/Row1*%
%TA.AperFunction,ComponentPad*%
G36*
G01*
X221607679Y-58677472D02*
X222284267Y-56531608D01*
G75*
G02*
X223852295Y-55715344I1192146J-375882D01*
G01*
X223852295Y-55715344D01*
G75*
G02*
X224668559Y-57283372I-375882J-1192146D01*
G01*
X223991971Y-59429236D01*
G75*
G02*
X222423943Y-60245500I-1192146J375882D01*
G01*
X222423943Y-60245500D01*
G75*
G02*
X221607679Y-58677472I375882J1192146D01*
G01*
G37*
%TD.AperFunction*%
%TO.P,SW12,2*%
%TO.N,Net-(D12-Pad2)*%
%TA.AperFunction,ComponentPad*%
G36*
G01*
X227216856Y-55784243D02*
X227105194Y-55215093D01*
G75*
G02*
X228091158Y-53747825I1226616J240652D01*
G01*
X228091158Y-53747825D01*
G75*
G02*
X229558426Y-54733789I240652J-1226616D01*
G01*
X229670088Y-55302939D01*
G75*
G02*
X228684124Y-56770207I-1226616J-240652D01*
G01*
X228684124Y-56770207D01*
G75*
G02*
X227216856Y-55784243I-240652J1226616D01*
G01*
G37*
%TD.AperFunction*%
%TD*%
%TO.P,SW13,1*%
%TO.N,/Row2*%
%TA.AperFunction,ComponentPad*%
G36*
G01*
X226482678Y-77052471D02*
X227159266Y-74906607D01*
G75*
G02*
X228727294Y-74090343I1192146J-375882D01*
G01*
X228727294Y-74090343D01*
G75*
G02*
X229543558Y-75658371I-375882J-1192146D01*
G01*
X228866970Y-77804235D01*
G75*
G02*
X227298942Y-78620499I-1192146J375882D01*
G01*
X227298942Y-78620499D01*
G75*
G02*
X226482678Y-77052471I375882J1192146D01*
G01*
G37*
%TD.AperFunction*%
%TO.P,SW13,2*%
%TO.N,Net-(D13-Pad2)*%
%TA.AperFunction,ComponentPad*%
G36*
G01*
X232091855Y-74159242D02*
X231980193Y-73590092D01*
G75*
G02*
X232966157Y-72122824I1226616J240652D01*
G01*
X232966157Y-72122824D01*
G75*
G02*
X234433425Y-73108788I240652J-1226616D01*
G01*
X234545087Y-73677938D01*
G75*
G02*
X233559123Y-75145206I-1226616J-240652D01*
G01*
X233559123Y-75145206D01*
G75*
G02*
X232091855Y-74159242I-240652J1226616D01*
G01*
G37*
%TD.AperFunction*%
%TD*%
%TO.P,SW14,2*%
%TO.N,Net-(D14-Pad2)*%
%TA.AperFunction,ComponentPad*%
G36*
G01*
X237060603Y-92627992D02*
X236948941Y-92058842D01*
G75*
G02*
X237934905Y-90591574I1226616J240652D01*
G01*
X237934905Y-90591574D01*
G75*
G02*
X239402173Y-91577538I240652J-1226616D01*
G01*
X239513835Y-92146688D01*
G75*
G02*
X238527871Y-93613956I-1226616J-240652D01*
G01*
X238527871Y-93613956D01*
G75*
G02*
X237060603Y-92627992I-240652J1226616D01*
G01*
G37*
%TD.AperFunction*%
%TO.P,SW14,1*%
%TO.N,/Row3*%
%TA.AperFunction,ComponentPad*%
G36*
G01*
X231451426Y-95521221D02*
X232128014Y-93375357D01*
G75*
G02*
X233696042Y-92559093I1192146J-375882D01*
G01*
X233696042Y-92559093D01*
G75*
G02*
X234512306Y-94127121I-375882J-1192146D01*
G01*
X233835718Y-96272985D01*
G75*
G02*
X232267690Y-97089249I-1192146J375882D01*
G01*
X232267690Y-97089249D01*
G75*
G02*
X231451426Y-95521221I375882J1192146D01*
G01*
G37*
%TD.AperFunction*%
%TD*%
%TO.P,SW16,2*%
%TO.N,Net-(D16-Pad2)*%
%TA.AperFunction,ComponentPad*%
G36*
G01*
X202935602Y-38627990D02*
X202823940Y-38058840D01*
G75*
G02*
X203809904Y-36591572I1226616J240652D01*
G01*
X203809904Y-36591572D01*
G75*
G02*
X205277172Y-37577536I240652J-1226616D01*
G01*
X205388834Y-38146686D01*
G75*
G02*
X204402870Y-39613954I-1226616J-240652D01*
G01*
X204402870Y-39613954D01*
G75*
G02*
X202935602Y-38627990I-240652J1226616D01*
G01*
G37*
%TD.AperFunction*%
%TO.P,SW16,1*%
%TO.N,/Row0*%
%TA.AperFunction,ComponentPad*%
G36*
G01*
X197326425Y-41521219D02*
X198003013Y-39375355D01*
G75*
G02*
X199571041Y-38559091I1192146J-375882D01*
G01*
X199571041Y-38559091D01*
G75*
G02*
X200387305Y-40127119I-375882J-1192146D01*
G01*
X199710717Y-42272983D01*
G75*
G02*
X198142689Y-43089247I-1192146J375882D01*
G01*
X198142689Y-43089247D01*
G75*
G02*
X197326425Y-41521219I375882J1192146D01*
G01*
G37*
%TD.AperFunction*%
%TD*%
%TO.P,SW18,1*%
%TO.N,/Row2*%
%TA.AperFunction,ComponentPad*%
G36*
G01*
X207170179Y-78364973D02*
X207846767Y-76219109D01*
G75*
G02*
X209414795Y-75402845I1192146J-375882D01*
G01*
X209414795Y-75402845D01*
G75*
G02*
X210231059Y-76970873I-375882J-1192146D01*
G01*
X209554471Y-79116737D01*
G75*
G02*
X207986443Y-79933001I-1192146J375882D01*
G01*
X207986443Y-79933001D01*
G75*
G02*
X207170179Y-78364973I375882J1192146D01*
G01*
G37*
%TD.AperFunction*%
%TO.P,SW18,2*%
%TO.N,Net-(D18-Pad2)*%
%TA.AperFunction,ComponentPad*%
G36*
G01*
X212779356Y-75471744D02*
X212667694Y-74902594D01*
G75*
G02*
X213653658Y-73435326I1226616J240652D01*
G01*
X213653658Y-73435326D01*
G75*
G02*
X215120926Y-74421290I240652J-1226616D01*
G01*
X215232588Y-74990440D01*
G75*
G02*
X214246624Y-76457708I-1226616J-240652D01*
G01*
X214246624Y-76457708D01*
G75*
G02*
X212779356Y-75471744I-240652J1226616D01*
G01*
G37*
%TD.AperFunction*%
%TD*%
%TO.P,SW19,2*%
%TO.N,Net-(D19-Pad2)*%
%TA.AperFunction,ComponentPad*%
G36*
G01*
X217654353Y-93846741D02*
X217542691Y-93277591D01*
G75*
G02*
X218528655Y-91810323I1226616J240652D01*
G01*
X218528655Y-91810323D01*
G75*
G02*
X219995923Y-92796287I240652J-1226616D01*
G01*
X220107585Y-93365437D01*
G75*
G02*
X219121621Y-94832705I-1226616J-240652D01*
G01*
X219121621Y-94832705D01*
G75*
G02*
X217654353Y-93846741I-240652J1226616D01*
G01*
G37*
%TD.AperFunction*%
%TO.P,SW19,1*%
%TO.N,/Row3*%
%TA.AperFunction,ComponentPad*%
G36*
G01*
X212045176Y-96739970D02*
X212721764Y-94594106D01*
G75*
G02*
X214289792Y-93777842I1192146J-375882D01*
G01*
X214289792Y-93777842D01*
G75*
G02*
X215106056Y-95345870I-375882J-1192146D01*
G01*
X214429468Y-97491734D01*
G75*
G02*
X212861440Y-98307998I-1192146J375882D01*
G01*
X212861440Y-98307998D01*
G75*
G02*
X212045176Y-96739970I375882J1192146D01*
G01*
G37*
%TD.AperFunction*%
%TD*%
%TO.P,SW20,2*%
%TO.N,Net-(D20-Pad2)*%
%TA.AperFunction,ComponentPad*%
G36*
G01*
X156536806Y-157439726D02*
X156101742Y-157056166D01*
G75*
G02*
X155990743Y-155291887I826640J937639D01*
G01*
X155990743Y-155291887D01*
G75*
G02*
X157755022Y-155180888I937639J-826640D01*
G01*
X158190086Y-155564448D01*
G75*
G02*
X158301085Y-157328727I-826640J-937639D01*
G01*
X158301085Y-157328727D01*
G75*
G02*
X156536806Y-157439726I-937639J826640D01*
G01*
G37*
%TD.AperFunction*%
%TO.P,SW20,1*%
%TO.N,/Row4*%
%TA.AperFunction,ComponentPad*%
G36*
G01*
X153848033Y-163149729D02*
X153078487Y-161035421D01*
G75*
G02*
X153825578Y-159433280I1174616J427525D01*
G01*
X153825578Y-159433280D01*
G75*
G02*
X155427719Y-160180371I427525J-1174616D01*
G01*
X156197265Y-162294679D01*
G75*
G02*
X155450174Y-163896820I-1174616J-427525D01*
G01*
X155450174Y-163896820D01*
G75*
G02*
X153848033Y-163149729I-427525J1174616D01*
G01*
G37*
%TD.AperFunction*%
%TD*%
%TO.P,SW21,1*%
%TO.N,/Row0*%
%TA.AperFunction,ComponentPad*%
G36*
G01*
X180357678Y-51927471D02*
X181034266Y-49781607D01*
G75*
G02*
X182602294Y-48965343I1192146J-375882D01*
G01*
X182602294Y-48965343D01*
G75*
G02*
X183418558Y-50533371I-375882J-1192146D01*
G01*
X182741970Y-52679235D01*
G75*
G02*
X181173942Y-53495499I-1192146J375882D01*
G01*
X181173942Y-53495499D01*
G75*
G02*
X180357678Y-51927471I375882J1192146D01*
G01*
G37*
%TD.AperFunction*%
%TO.P,SW21,2*%
%TO.N,Net-(D21-Pad2)*%
%TA.AperFunction,ComponentPad*%
G36*
G01*
X185966855Y-49034242D02*
X185855193Y-48465092D01*
G75*
G02*
X186841157Y-46997824I1226616J240652D01*
G01*
X186841157Y-46997824D01*
G75*
G02*
X188308425Y-47983788I240652J-1226616D01*
G01*
X188420087Y-48552938D01*
G75*
G02*
X187434123Y-50020206I-1226616J-240652D01*
G01*
X187434123Y-50020206D01*
G75*
G02*
X185966855Y-49034242I-240652J1226616D01*
G01*
G37*
%TD.AperFunction*%
%TD*%
%TO.P,SW22,1*%
%TO.N,/Row1*%
%TA.AperFunction,ComponentPad*%
G36*
G01*
X185326426Y-70396224D02*
X186003014Y-68250360D01*
G75*
G02*
X187571042Y-67434096I1192146J-375882D01*
G01*
X187571042Y-67434096D01*
G75*
G02*
X188387306Y-69002124I-375882J-1192146D01*
G01*
X187710718Y-71147988D01*
G75*
G02*
X186142690Y-71964252I-1192146J375882D01*
G01*
X186142690Y-71964252D01*
G75*
G02*
X185326426Y-70396224I375882J1192146D01*
G01*
G37*
%TD.AperFunction*%
%TO.P,SW22,2*%
%TO.N,Net-(D22-Pad2)*%
%TA.AperFunction,ComponentPad*%
G36*
G01*
X190935603Y-67502995D02*
X190823941Y-66933845D01*
G75*
G02*
X191809905Y-65466577I1226616J240652D01*
G01*
X191809905Y-65466577D01*
G75*
G02*
X193277173Y-66452541I240652J-1226616D01*
G01*
X193388835Y-67021691D01*
G75*
G02*
X192402871Y-68488959I-1226616J-240652D01*
G01*
X192402871Y-68488959D01*
G75*
G02*
X190935603Y-67502995I-240652J1226616D01*
G01*
G37*
%TD.AperFunction*%
%TD*%
%TO.P,SW23,2*%
%TO.N,Net-(D23-Pad2)*%
%TA.AperFunction,ComponentPad*%
G36*
G01*
X195810607Y-85877990D02*
X195698945Y-85308840D01*
G75*
G02*
X196684909Y-83841572I1226616J240652D01*
G01*
X196684909Y-83841572D01*
G75*
G02*
X198152177Y-84827536I240652J-1226616D01*
G01*
X198263839Y-85396686D01*
G75*
G02*
X197277875Y-86863954I-1226616J-240652D01*
G01*
X197277875Y-86863954D01*
G75*
G02*
X195810607Y-85877990I-240652J1226616D01*
G01*
G37*
%TD.AperFunction*%
%TO.P,SW23,1*%
%TO.N,/Row2*%
%TA.AperFunction,ComponentPad*%
G36*
G01*
X190201430Y-88771219D02*
X190878018Y-86625355D01*
G75*
G02*
X192446046Y-85809091I1192146J-375882D01*
G01*
X192446046Y-85809091D01*
G75*
G02*
X193262310Y-87377119I-375882J-1192146D01*
G01*
X192585722Y-89522983D01*
G75*
G02*
X191017694Y-90339247I-1192146J375882D01*
G01*
X191017694Y-90339247D01*
G75*
G02*
X190201430Y-88771219I375882J1192146D01*
G01*
G37*
%TD.AperFunction*%
%TD*%
%TO.P,SW24,1*%
%TO.N,/Row3*%
%TA.AperFunction,ComponentPad*%
G36*
G01*
X195170179Y-107146221D02*
X195846767Y-105000357D01*
G75*
G02*
X197414795Y-104184093I1192146J-375882D01*
G01*
X197414795Y-104184093D01*
G75*
G02*
X198231059Y-105752121I-375882J-1192146D01*
G01*
X197554471Y-107897985D01*
G75*
G02*
X195986443Y-108714249I-1192146J375882D01*
G01*
X195986443Y-108714249D01*
G75*
G02*
X195170179Y-107146221I375882J1192146D01*
G01*
G37*
%TD.AperFunction*%
%TO.P,SW24,2*%
%TO.N,Net-(D24-Pad2)*%
%TA.AperFunction,ComponentPad*%
G36*
G01*
X200779356Y-104252992D02*
X200667694Y-103683842D01*
G75*
G02*
X201653658Y-102216574I1226616J240652D01*
G01*
X201653658Y-102216574D01*
G75*
G02*
X203120926Y-103202538I240652J-1226616D01*
G01*
X203232588Y-103771688D01*
G75*
G02*
X202246624Y-105238956I-1226616J-240652D01*
G01*
X202246624Y-105238956D01*
G75*
G02*
X200779356Y-104252992I-240652J1226616D01*
G01*
G37*
%TD.AperFunction*%
%TD*%
%TO.P,SW25,2*%
%TO.N,Net-(D25-Pad2)*%
%TA.AperFunction,ComponentPad*%
G36*
G01*
X168060604Y-55877991D02*
X167948942Y-55308841D01*
G75*
G02*
X168934906Y-53841573I1226616J240652D01*
G01*
X168934906Y-53841573D01*
G75*
G02*
X170402174Y-54827537I240652J-1226616D01*
G01*
X170513836Y-55396687D01*
G75*
G02*
X169527872Y-56863955I-1226616J-240652D01*
G01*
X169527872Y-56863955D01*
G75*
G02*
X168060604Y-55877991I-240652J1226616D01*
G01*
G37*
%TD.AperFunction*%
%TO.P,SW25,1*%
%TO.N,/Row0*%
%TA.AperFunction,ComponentPad*%
G36*
G01*
X162451427Y-58771220D02*
X163128015Y-56625356D01*
G75*
G02*
X164696043Y-55809092I1192146J-375882D01*
G01*
X164696043Y-55809092D01*
G75*
G02*
X165512307Y-57377120I-375882J-1192146D01*
G01*
X164835719Y-59522984D01*
G75*
G02*
X163267691Y-60339248I-1192146J375882D01*
G01*
X163267691Y-60339248D01*
G75*
G02*
X162451427Y-58771220I375882J1192146D01*
G01*
G37*
%TD.AperFunction*%
%TD*%
%TO.P,SW26,2*%
%TO.N,Net-(D26-Pad2)*%
%TA.AperFunction,ComponentPad*%
G36*
G01*
X172935606Y-74252992D02*
X172823944Y-73683842D01*
G75*
G02*
X173809908Y-72216574I1226616J240652D01*
G01*
X173809908Y-72216574D01*
G75*
G02*
X175277176Y-73202538I240652J-1226616D01*
G01*
X175388838Y-73771688D01*
G75*
G02*
X174402874Y-75238956I-1226616J-240652D01*
G01*
X174402874Y-75238956D01*
G75*
G02*
X172935606Y-74252992I-240652J1226616D01*
G01*
G37*
%TD.AperFunction*%
%TO.P,SW26,1*%
%TO.N,/Row1*%
%TA.AperFunction,ComponentPad*%
G36*
G01*
X167326429Y-77146221D02*
X168003017Y-75000357D01*
G75*
G02*
X169571045Y-74184093I1192146J-375882D01*
G01*
X169571045Y-74184093D01*
G75*
G02*
X170387309Y-75752121I-375882J-1192146D01*
G01*
X169710721Y-77897985D01*
G75*
G02*
X168142693Y-78714249I-1192146J375882D01*
G01*
X168142693Y-78714249D01*
G75*
G02*
X167326429Y-77146221I375882J1192146D01*
G01*
G37*
%TD.AperFunction*%
%TD*%
%TO.P,SW27,1*%
%TO.N,/Row2*%
%TA.AperFunction,ComponentPad*%
G36*
G01*
X172295176Y-95521221D02*
X172971764Y-93375357D01*
G75*
G02*
X174539792Y-92559093I1192146J-375882D01*
G01*
X174539792Y-92559093D01*
G75*
G02*
X175356056Y-94127121I-375882J-1192146D01*
G01*
X174679468Y-96272985D01*
G75*
G02*
X173111440Y-97089249I-1192146J375882D01*
G01*
X173111440Y-97089249D01*
G75*
G02*
X172295176Y-95521221I375882J1192146D01*
G01*
G37*
%TD.AperFunction*%
%TO.P,SW27,2*%
%TO.N,Net-(D27-Pad2)*%
%TA.AperFunction,ComponentPad*%
G36*
G01*
X177904353Y-92627992D02*
X177792691Y-92058842D01*
G75*
G02*
X178778655Y-90591574I1226616J240652D01*
G01*
X178778655Y-90591574D01*
G75*
G02*
X180245923Y-91577538I240652J-1226616D01*
G01*
X180357585Y-92146688D01*
G75*
G02*
X179371621Y-93613956I-1226616J-240652D01*
G01*
X179371621Y-93613956D01*
G75*
G02*
X177904353Y-92627992I-240652J1226616D01*
G01*
G37*
%TD.AperFunction*%
%TD*%
%TO.P,SW28,2*%
%TO.N,Net-(D28-Pad2)*%
%TA.AperFunction,ComponentPad*%
G36*
G01*
X182873102Y-111096741D02*
X182761440Y-110527591D01*
G75*
G02*
X183747404Y-109060323I1226616J240652D01*
G01*
X183747404Y-109060323D01*
G75*
G02*
X185214672Y-110046287I240652J-1226616D01*
G01*
X185326334Y-110615437D01*
G75*
G02*
X184340370Y-112082705I-1226616J-240652D01*
G01*
X184340370Y-112082705D01*
G75*
G02*
X182873102Y-111096741I-240652J1226616D01*
G01*
G37*
%TD.AperFunction*%
%TO.P,SW28,1*%
%TO.N,/Row3*%
%TA.AperFunction,ComponentPad*%
G36*
G01*
X177263925Y-113989970D02*
X177940513Y-111844106D01*
G75*
G02*
X179508541Y-111027842I1192146J-375882D01*
G01*
X179508541Y-111027842D01*
G75*
G02*
X180324805Y-112595870I-375882J-1192146D01*
G01*
X179648217Y-114741734D01*
G75*
G02*
X178080189Y-115557998I-1192146J375882D01*
G01*
X178080189Y-115557998D01*
G75*
G02*
X177263925Y-113989970I375882J1192146D01*
G01*
G37*
%TD.AperFunction*%
%TD*%
%TO.P,SW29,1*%
%TO.N,/Row0*%
%TA.AperFunction,ComponentPad*%
G36*
G01*
X118942526Y-56227702D02*
X120601400Y-54707624D01*
G75*
G02*
X122367485Y-54784733I844488J-921597D01*
G01*
X122367485Y-54784733D01*
G75*
G02*
X122290376Y-56550818I-921597J-844488D01*
G01*
X120631502Y-58070896D01*
G75*
G02*
X118865417Y-57993787I-844488J921597D01*
G01*
X118865417Y-57993787D01*
G75*
G02*
X118942526Y-56227702I921597J844488D01*
G01*
G37*
%TD.AperFunction*%
%TO.P,SW29,2*%
%TO.N,Net-(D29-Pad2)*%
%TA.AperFunction,ComponentPad*%
G36*
G01*
X125246830Y-56526682D02*
X125434702Y-55977952D01*
G75*
G02*
X127022206Y-55200242I1182607J-404897D01*
G01*
X127022206Y-55200242D01*
G75*
G02*
X127799916Y-56787746I-404897J-1182607D01*
G01*
X127612044Y-57336476D01*
G75*
G02*
X126024540Y-58114186I-1182607J404897D01*
G01*
X126024540Y-58114186D01*
G75*
G02*
X125246830Y-56526682I404897J1182607D01*
G01*
G37*
%TD.AperFunction*%
%TD*%
%TO.P,SW30,1*%
%TO.N,/Row1*%
%TA.AperFunction,ComponentPad*%
G36*
G01*
X114067530Y-74602703D02*
X115726404Y-73082625D01*
G75*
G02*
X117492489Y-73159734I844488J-921597D01*
G01*
X117492489Y-73159734D01*
G75*
G02*
X117415380Y-74925819I-921597J-844488D01*
G01*
X115756506Y-76445897D01*
G75*
G02*
X113990421Y-76368788I-844488J921597D01*
G01*
X113990421Y-76368788D01*
G75*
G02*
X114067530Y-74602703I921597J844488D01*
G01*
G37*
%TD.AperFunction*%
%TO.P,SW30,2*%
%TO.N,Net-(D30-Pad2)*%
%TA.AperFunction,ComponentPad*%
G36*
G01*
X120371834Y-74901683D02*
X120559706Y-74352953D01*
G75*
G02*
X122147210Y-73575243I1182607J-404897D01*
G01*
X122147210Y-73575243D01*
G75*
G02*
X122924920Y-75162747I-404897J-1182607D01*
G01*
X122737048Y-75711477D01*
G75*
G02*
X121149544Y-76489187I-1182607J404897D01*
G01*
X121149544Y-76489187D01*
G75*
G02*
X120371834Y-74901683I404897J1182607D01*
G01*
G37*
%TD.AperFunction*%
%TD*%
%TO.P,SW31,1*%
%TO.N,/Row2*%
%TA.AperFunction,ComponentPad*%
G36*
G01*
X109098778Y-92977703D02*
X110757652Y-91457625D01*
G75*
G02*
X112523737Y-91534734I844488J-921597D01*
G01*
X112523737Y-91534734D01*
G75*
G02*
X112446628Y-93300819I-921597J-844488D01*
G01*
X110787754Y-94820897D01*
G75*
G02*
X109021669Y-94743788I-844488J921597D01*
G01*
X109021669Y-94743788D01*
G75*
G02*
X109098778Y-92977703I921597J844488D01*
G01*
G37*
%TD.AperFunction*%
%TO.P,SW31,2*%
%TO.N,Net-(D31-Pad2)*%
%TA.AperFunction,ComponentPad*%
G36*
G01*
X115403082Y-93276683D02*
X115590954Y-92727953D01*
G75*
G02*
X117178458Y-91950243I1182607J-404897D01*
G01*
X117178458Y-91950243D01*
G75*
G02*
X117956168Y-93537747I-404897J-1182607D01*
G01*
X117768296Y-94086477D01*
G75*
G02*
X116180792Y-94864187I-1182607J404897D01*
G01*
X116180792Y-94864187D01*
G75*
G02*
X115403082Y-93276683I404897J1182607D01*
G01*
G37*
%TD.AperFunction*%
%TD*%
%TO.P,SW32,1*%
%TO.N,/Row3*%
%TA.AperFunction,ComponentPad*%
G36*
G01*
X104130029Y-111446452D02*
X105788903Y-109926374D01*
G75*
G02*
X107554988Y-110003483I844488J-921597D01*
G01*
X107554988Y-110003483D01*
G75*
G02*
X107477879Y-111769568I-921597J-844488D01*
G01*
X105819005Y-113289646D01*
G75*
G02*
X104052920Y-113212537I-844488J921597D01*
G01*
X104052920Y-113212537D01*
G75*
G02*
X104130029Y-111446452I921597J844488D01*
G01*
G37*
%TD.AperFunction*%
%TO.P,SW32,2*%
%TO.N,Net-(D32-Pad2)*%
%TA.AperFunction,ComponentPad*%
G36*
G01*
X110434333Y-111745432D02*
X110622205Y-111196702D01*
G75*
G02*
X112209709Y-110418992I1182607J-404897D01*
G01*
X112209709Y-110418992D01*
G75*
G02*
X112987419Y-112006496I-404897J-1182607D01*
G01*
X112799547Y-112555226D01*
G75*
G02*
X111212043Y-113332936I-1182607J404897D01*
G01*
X111212043Y-113332936D01*
G75*
G02*
X110434333Y-111745432I404897J1182607D01*
G01*
G37*
%TD.AperFunction*%
%TD*%
%TO.P,SW33,2*%
%TO.N,Net-(D33-Pad2)*%
%TA.AperFunction,ComponentPad*%
G36*
G01*
X107340579Y-49682932D02*
X107528451Y-49134202D01*
G75*
G02*
X109115955Y-48356492I1182607J-404897D01*
G01*
X109115955Y-48356492D01*
G75*
G02*
X109893665Y-49943996I-404897J-1182607D01*
G01*
X109705793Y-50492726D01*
G75*
G02*
X108118289Y-51270436I-1182607J404897D01*
G01*
X108118289Y-51270436D01*
G75*
G02*
X107340579Y-49682932I404897J1182607D01*
G01*
G37*
%TD.AperFunction*%
%TO.P,SW33,1*%
%TO.N,/Row0*%
%TA.AperFunction,ComponentPad*%
G36*
G01*
X101036275Y-49383952D02*
X102695149Y-47863874D01*
G75*
G02*
X104461234Y-47940983I844488J-921597D01*
G01*
X104461234Y-47940983D01*
G75*
G02*
X104384125Y-49707068I-921597J-844488D01*
G01*
X102725251Y-51227146D01*
G75*
G02*
X100959166Y-51150037I-844488J921597D01*
G01*
X100959166Y-51150037D01*
G75*
G02*
X101036275Y-49383952I921597J844488D01*
G01*
G37*
%TD.AperFunction*%
%TD*%
%TO.P,SW34,1*%
%TO.N,/Row1*%
%TA.AperFunction,ComponentPad*%
G36*
G01*
X96161280Y-67852703D02*
X97820154Y-66332625D01*
G75*
G02*
X99586239Y-66409734I844488J-921597D01*
G01*
X99586239Y-66409734D01*
G75*
G02*
X99509130Y-68175819I-921597J-844488D01*
G01*
X97850256Y-69695897D01*
G75*
G02*
X96084171Y-69618788I-844488J921597D01*
G01*
X96084171Y-69618788D01*
G75*
G02*
X96161280Y-67852703I921597J844488D01*
G01*
G37*
%TD.AperFunction*%
%TO.P,SW34,2*%
%TO.N,Net-(D34-Pad2)*%
%TA.AperFunction,ComponentPad*%
G36*
G01*
X102465584Y-68151683D02*
X102653456Y-67602953D01*
G75*
G02*
X104240960Y-66825243I1182607J-404897D01*
G01*
X104240960Y-66825243D01*
G75*
G02*
X105018670Y-68412747I-404897J-1182607D01*
G01*
X104830798Y-68961477D01*
G75*
G02*
X103243294Y-69739187I-1182607J404897D01*
G01*
X103243294Y-69739187D01*
G75*
G02*
X102465584Y-68151683I404897J1182607D01*
G01*
G37*
%TD.AperFunction*%
%TD*%
%TO.P,SW35,1*%
%TO.N,/Row2*%
%TA.AperFunction,ComponentPad*%
G36*
G01*
X91192533Y-86321452D02*
X92851407Y-84801374D01*
G75*
G02*
X94617492Y-84878483I844488J-921597D01*
G01*
X94617492Y-84878483D01*
G75*
G02*
X94540383Y-86644568I-921597J-844488D01*
G01*
X92881509Y-88164646D01*
G75*
G02*
X91115424Y-88087537I-844488J921597D01*
G01*
X91115424Y-88087537D01*
G75*
G02*
X91192533Y-86321452I921597J844488D01*
G01*
G37*
%TD.AperFunction*%
%TO.P,SW35,2*%
%TO.N,Net-(D35-Pad2)*%
%TA.AperFunction,ComponentPad*%
G36*
G01*
X97496837Y-86620432D02*
X97684709Y-86071702D01*
G75*
G02*
X99272213Y-85293992I1182607J-404897D01*
G01*
X99272213Y-85293992D01*
G75*
G02*
X100049923Y-86881496I-404897J-1182607D01*
G01*
X99862051Y-87430226D01*
G75*
G02*
X98274547Y-88207936I-1182607J404897D01*
G01*
X98274547Y-88207936D01*
G75*
G02*
X97496837Y-86620432I404897J1182607D01*
G01*
G37*
%TD.AperFunction*%
%TD*%
%TO.P,SW36,2*%
%TO.N,Net-(D36-Pad2)*%
%TA.AperFunction,ComponentPad*%
G36*
G01*
X92528086Y-104901679D02*
X92715958Y-104352949D01*
G75*
G02*
X94303462Y-103575239I1182607J-404897D01*
G01*
X94303462Y-103575239D01*
G75*
G02*
X95081172Y-105162743I-404897J-1182607D01*
G01*
X94893300Y-105711473D01*
G75*
G02*
X93305796Y-106489183I-1182607J404897D01*
G01*
X93305796Y-106489183D01*
G75*
G02*
X92528086Y-104901679I404897J1182607D01*
G01*
G37*
%TD.AperFunction*%
%TO.P,SW36,1*%
%TO.N,/Row3*%
%TA.AperFunction,ComponentPad*%
G36*
G01*
X86223782Y-104602699D02*
X87882656Y-103082621D01*
G75*
G02*
X89648741Y-103159730I844488J-921597D01*
G01*
X89648741Y-103159730D01*
G75*
G02*
X89571632Y-104925815I-921597J-844488D01*
G01*
X87912758Y-106445893D01*
G75*
G02*
X86146673Y-106368784I-844488J921597D01*
G01*
X86146673Y-106368784D01*
G75*
G02*
X86223782Y-104602699I921597J844488D01*
G01*
G37*
%TD.AperFunction*%
%TD*%
%TO.P,SW37,2*%
%TO.N,Net-(D37-Pad2)*%
%TA.AperFunction,ComponentPad*%
G36*
G01*
X90465582Y-39276678D02*
X90653454Y-38727948D01*
G75*
G02*
X92240958Y-37950238I1182607J-404897D01*
G01*
X92240958Y-37950238D01*
G75*
G02*
X93018668Y-39537742I-404897J-1182607D01*
G01*
X92830796Y-40086472D01*
G75*
G02*
X91243292Y-40864182I-1182607J404897D01*
G01*
X91243292Y-40864182D01*
G75*
G02*
X90465582Y-39276678I404897J1182607D01*
G01*
G37*
%TD.AperFunction*%
%TO.P,SW37,1*%
%TO.N,/Row0*%
%TA.AperFunction,ComponentPad*%
G36*
G01*
X84161278Y-38977698D02*
X85820152Y-37457620D01*
G75*
G02*
X87586237Y-37534729I844488J-921597D01*
G01*
X87586237Y-37534729D01*
G75*
G02*
X87509128Y-39300814I-921597J-844488D01*
G01*
X85850254Y-40820892D01*
G75*
G02*
X84084169Y-40743783I-844488J921597D01*
G01*
X84084169Y-40743783D01*
G75*
G02*
X84161278Y-38977698I921597J844488D01*
G01*
G37*
%TD.AperFunction*%
%TD*%
%TO.P,SW38,1*%
%TO.N,/Row1*%
%TA.AperFunction,ComponentPad*%
G36*
G01*
X79192529Y-57352698D02*
X80851403Y-55832620D01*
G75*
G02*
X82617488Y-55909729I844488J-921597D01*
G01*
X82617488Y-55909729D01*
G75*
G02*
X82540379Y-57675814I-921597J-844488D01*
G01*
X80881505Y-59195892D01*
G75*
G02*
X79115420Y-59118783I-844488J921597D01*
G01*
X79115420Y-59118783D01*
G75*
G02*
X79192529Y-57352698I921597J844488D01*
G01*
G37*
%TD.AperFunction*%
%TO.P,SW38,2*%
%TO.N,Net-(D38-Pad2)*%
%TA.AperFunction,ComponentPad*%
G36*
G01*
X85496833Y-57651678D02*
X85684705Y-57102948D01*
G75*
G02*
X87272209Y-56325238I1182607J-404897D01*
G01*
X87272209Y-56325238D01*
G75*
G02*
X88049919Y-57912742I-404897J-1182607D01*
G01*
X87862047Y-58461472D01*
G75*
G02*
X86274543Y-59239182I-1182607J404897D01*
G01*
X86274543Y-59239182D01*
G75*
G02*
X85496833Y-57651678I404897J1182607D01*
G01*
G37*
%TD.AperFunction*%
%TD*%
%TO.P,SW39,2*%
%TO.N,Net-(D39-Pad2)*%
%TA.AperFunction,ComponentPad*%
G36*
G01*
X80621835Y-76120432D02*
X80809707Y-75571702D01*
G75*
G02*
X82397211Y-74793992I1182607J-404897D01*
G01*
X82397211Y-74793992D01*
G75*
G02*
X83174921Y-76381496I-404897J-1182607D01*
G01*
X82987049Y-76930226D01*
G75*
G02*
X81399545Y-77707936I-1182607J404897D01*
G01*
X81399545Y-77707936D01*
G75*
G02*
X80621835Y-76120432I404897J1182607D01*
G01*
G37*
%TD.AperFunction*%
%TO.P,SW39,1*%
%TO.N,/Row2*%
%TA.AperFunction,ComponentPad*%
G36*
G01*
X74317531Y-75821452D02*
X75976405Y-74301374D01*
G75*
G02*
X77742490Y-74378483I844488J-921597D01*
G01*
X77742490Y-74378483D01*
G75*
G02*
X77665381Y-76144568I-921597J-844488D01*
G01*
X76006507Y-77664646D01*
G75*
G02*
X74240422Y-77587537I-844488J921597D01*
G01*
X74240422Y-77587537D01*
G75*
G02*
X74317531Y-75821452I921597J844488D01*
G01*
G37*
%TD.AperFunction*%
%TD*%
%TO.P,SW40,1*%
%TO.N,/Row3*%
%TA.AperFunction,ComponentPad*%
G36*
G01*
X69348778Y-94196453D02*
X71007652Y-92676375D01*
G75*
G02*
X72773737Y-92753484I844488J-921597D01*
G01*
X72773737Y-92753484D01*
G75*
G02*
X72696628Y-94519569I-921597J-844488D01*
G01*
X71037754Y-96039647D01*
G75*
G02*
X69271669Y-95962538I-844488J921597D01*
G01*
X69271669Y-95962538D01*
G75*
G02*
X69348778Y-94196453I921597J844488D01*
G01*
G37*
%TD.AperFunction*%
%TO.P,SW40,2*%
%TO.N,Net-(D40-Pad2)*%
%TA.AperFunction,ComponentPad*%
G36*
G01*
X75653082Y-94495433D02*
X75840954Y-93946703D01*
G75*
G02*
X77428458Y-93168993I1182607J-404897D01*
G01*
X77428458Y-93168993D01*
G75*
G02*
X78206168Y-94756497I-404897J-1182607D01*
G01*
X78018296Y-95305227D01*
G75*
G02*
X76430792Y-96082937I-1182607J404897D01*
G01*
X76430792Y-96082937D01*
G75*
G02*
X75653082Y-94495433I404897J1182607D01*
G01*
G37*
%TD.AperFunction*%
%TD*%
%TO.P,SW41,2*%
%TO.N,Net-(D41-Pad2)*%
%TA.AperFunction,ComponentPad*%
G36*
G01*
X135969205Y-159334392D02*
X136452299Y-159013424D01*
G75*
G02*
X138185190Y-159362837I691739J-1041152D01*
G01*
X138185190Y-159362837D01*
G75*
G02*
X137835777Y-161095728I-1041152J-691739D01*
G01*
X137352683Y-161416696D01*
G75*
G02*
X135619792Y-161067283I-691739J1041152D01*
G01*
X135619792Y-161067283D01*
G75*
G02*
X135969205Y-159334392I1041152J691739D01*
G01*
G37*
%TD.AperFunction*%
%TO.P,SW41,1*%
%TO.N,/Row4*%
%TA.AperFunction,ComponentPad*%
G36*
G01*
X131149671Y-155259379D02*
X133391109Y-155063279D01*
G75*
G02*
X134745297Y-156199577I108945J-1245243D01*
G01*
X134745297Y-156199577D01*
G75*
G02*
X133608999Y-157553765I-1245243J-108945D01*
G01*
X131367561Y-157749865D01*
G75*
G02*
X130013373Y-156613567I-108945J1245243D01*
G01*
X130013373Y-156613567D01*
G75*
G02*
X131149671Y-155259379I1245243J108945D01*
G01*
G37*
%TD.AperFunction*%
%TD*%
%TO.P,SW42,2*%
%TO.N,Net-(D42-Pad2)*%
%TA.AperFunction,ComponentPad*%
G36*
G01*
X71059332Y-38057934D02*
X71247204Y-37509204D01*
G75*
G02*
X72834708Y-36731494I1182607J-404897D01*
G01*
X72834708Y-36731494D01*
G75*
G02*
X73612418Y-38318998I-404897J-1182607D01*
G01*
X73424546Y-38867728D01*
G75*
G02*
X71837042Y-39645438I-1182607J404897D01*
G01*
X71837042Y-39645438D01*
G75*
G02*
X71059332Y-38057934I404897J1182607D01*
G01*
G37*
%TD.AperFunction*%
%TO.P,SW42,1*%
%TO.N,/Row0*%
%TA.AperFunction,ComponentPad*%
G36*
G01*
X64755028Y-37758954D02*
X66413902Y-36238876D01*
G75*
G02*
X68179987Y-36315985I844488J-921597D01*
G01*
X68179987Y-36315985D01*
G75*
G02*
X68102878Y-38082070I-921597J-844488D01*
G01*
X66444004Y-39602148D01*
G75*
G02*
X64677919Y-39525039I-844488J921597D01*
G01*
X64677919Y-39525039D01*
G75*
G02*
X64755028Y-37758954I921597J844488D01*
G01*
G37*
%TD.AperFunction*%
%TD*%
%TO.P,SW43,2*%
%TO.N,Net-(D43-Pad2)*%
%TA.AperFunction,ComponentPad*%
G36*
G01*
X66090583Y-56526681D02*
X66278455Y-55977951D01*
G75*
G02*
X67865959Y-55200241I1182607J-404897D01*
G01*
X67865959Y-55200241D01*
G75*
G02*
X68643669Y-56787745I-404897J-1182607D01*
G01*
X68455797Y-57336475D01*
G75*
G02*
X66868293Y-58114185I-1182607J404897D01*
G01*
X66868293Y-58114185D01*
G75*
G02*
X66090583Y-56526681I404897J1182607D01*
G01*
G37*
%TD.AperFunction*%
%TO.P,SW43,1*%
%TO.N,/Row1*%
%TA.AperFunction,ComponentPad*%
G36*
G01*
X59786279Y-56227701D02*
X61445153Y-54707623D01*
G75*
G02*
X63211238Y-54784732I844488J-921597D01*
G01*
X63211238Y-54784732D01*
G75*
G02*
X63134129Y-56550817I-921597J-844488D01*
G01*
X61475255Y-58070895D01*
G75*
G02*
X59709170Y-57993786I-844488J921597D01*
G01*
X59709170Y-57993786D01*
G75*
G02*
X59786279Y-56227701I921597J844488D01*
G01*
G37*
%TD.AperFunction*%
%TD*%
%TO.P,SW44,2*%
%TO.N,Net-(D44-Pad2)*%
%TA.AperFunction,ComponentPad*%
G36*
G01*
X61215585Y-74807930D02*
X61403457Y-74259200D01*
G75*
G02*
X62990961Y-73481490I1182607J-404897D01*
G01*
X62990961Y-73481490D01*
G75*
G02*
X63768671Y-75068994I-404897J-1182607D01*
G01*
X63580799Y-75617724D01*
G75*
G02*
X61993295Y-76395434I-1182607J404897D01*
G01*
X61993295Y-76395434D01*
G75*
G02*
X61215585Y-74807930I404897J1182607D01*
G01*
G37*
%TD.AperFunction*%
%TO.P,SW44,1*%
%TO.N,/Row2*%
%TA.AperFunction,ComponentPad*%
G36*
G01*
X54911281Y-74508950D02*
X56570155Y-72988872D01*
G75*
G02*
X58336240Y-73065981I844488J-921597D01*
G01*
X58336240Y-73065981D01*
G75*
G02*
X58259131Y-74832066I-921597J-844488D01*
G01*
X56600257Y-76352144D01*
G75*
G02*
X54834172Y-76275035I-844488J921597D01*
G01*
X54834172Y-76275035D01*
G75*
G02*
X54911281Y-74508950I921597J844488D01*
G01*
G37*
%TD.AperFunction*%
%TD*%
%TO.P,SW45,2*%
%TO.N,Net-(D45-Pad2)*%
%TA.AperFunction,ComponentPad*%
G36*
G01*
X56246835Y-93276680D02*
X56434707Y-92727950D01*
G75*
G02*
X58022211Y-91950240I1182607J-404897D01*
G01*
X58022211Y-91950240D01*
G75*
G02*
X58799921Y-93537744I-404897J-1182607D01*
G01*
X58612049Y-94086474D01*
G75*
G02*
X57024545Y-94864184I-1182607J404897D01*
G01*
X57024545Y-94864184D01*
G75*
G02*
X56246835Y-93276680I404897J1182607D01*
G01*
G37*
%TD.AperFunction*%
%TO.P,SW45,1*%
%TO.N,/Row3*%
%TA.AperFunction,ComponentPad*%
G36*
G01*
X49942531Y-92977700D02*
X51601405Y-91457622D01*
G75*
G02*
X53367490Y-91534731I844488J-921597D01*
G01*
X53367490Y-91534731D01*
G75*
G02*
X53290381Y-93300816I-921597J-844488D01*
G01*
X51631507Y-94820894D01*
G75*
G02*
X49865422Y-94743785I-844488J921597D01*
G01*
X49865422Y-94743785D01*
G75*
G02*
X49942531Y-92977700I921597J844488D01*
G01*
G37*
%TD.AperFunction*%
%TD*%
%TO.P,SW46,2*%
%TO.N,Net-(D46-Pad2)*%
%TA.AperFunction,ComponentPad*%
G36*
G01*
X121225859Y-143799458D02*
X121628033Y-143381538D01*
G75*
G02*
X123395474Y-143347601I900689J-866752D01*
G01*
X123395474Y-143347601D01*
G75*
G02*
X123429411Y-145115042I-866752J-900689D01*
G01*
X123027237Y-145532962D01*
G75*
G02*
X121259796Y-145566899I-900689J866752D01*
G01*
X121259796Y-145566899D01*
G75*
G02*
X121225859Y-143799458I866752J900689D01*
G01*
G37*
%TD.AperFunction*%
%TO.P,SW46,1*%
%TO.N,/Row4*%
%TA.AperFunction,ComponentPad*%
G36*
G01*
X115638574Y-140864176D02*
X117784438Y-140187588D01*
G75*
G02*
X119352466Y-141003852I375882J-1192146D01*
G01*
X119352466Y-141003852D01*
G75*
G02*
X118536202Y-142571880I-1192146J-375882D01*
G01*
X116390338Y-143248468D01*
G75*
G02*
X114822310Y-142432204I-375882J1192146D01*
G01*
X114822310Y-142432204D01*
G75*
G02*
X115638574Y-140864176I1192146J375882D01*
G01*
G37*
%TD.AperFunction*%
%TD*%
%TO.P,SW47,1*%
%TO.N,/Row0*%
%TA.AperFunction,ComponentPad*%
G36*
G01*
X43848778Y-41977699D02*
X45507652Y-40457621D01*
G75*
G02*
X47273737Y-40534730I844488J-921597D01*
G01*
X47273737Y-40534730D01*
G75*
G02*
X47196628Y-42300815I-921597J-844488D01*
G01*
X45537754Y-43820893D01*
G75*
G02*
X43771669Y-43743784I-844488J921597D01*
G01*
X43771669Y-43743784D01*
G75*
G02*
X43848778Y-41977699I921597J844488D01*
G01*
G37*
%TD.AperFunction*%
%TO.P,SW47,2*%
%TO.N,Net-(D47-Pad2)*%
%TA.AperFunction,ComponentPad*%
G36*
G01*
X50153082Y-42276679D02*
X50340954Y-41727949D01*
G75*
G02*
X51928458Y-40950239I1182607J-404897D01*
G01*
X51928458Y-40950239D01*
G75*
G02*
X52706168Y-42537743I-404897J-1182607D01*
G01*
X52518296Y-43086473D01*
G75*
G02*
X50930792Y-43864183I-1182607J404897D01*
G01*
X50930792Y-43864183D01*
G75*
G02*
X50153082Y-42276679I404897J1182607D01*
G01*
G37*
%TD.AperFunction*%
%TD*%
%TO.P,SW48,1*%
%TO.N,/Row1*%
%TA.AperFunction,ComponentPad*%
G36*
G01*
X38973775Y-60446450D02*
X40632649Y-58926372D01*
G75*
G02*
X42398734Y-59003481I844488J-921597D01*
G01*
X42398734Y-59003481D01*
G75*
G02*
X42321625Y-60769566I-921597J-844488D01*
G01*
X40662751Y-62289644D01*
G75*
G02*
X38896666Y-62212535I-844488J921597D01*
G01*
X38896666Y-62212535D01*
G75*
G02*
X38973775Y-60446450I921597J844488D01*
G01*
G37*
%TD.AperFunction*%
%TO.P,SW48,2*%
%TO.N,Net-(D48-Pad2)*%
%TA.AperFunction,ComponentPad*%
G36*
G01*
X45278079Y-60745430D02*
X45465951Y-60196700D01*
G75*
G02*
X47053455Y-59418990I1182607J-404897D01*
G01*
X47053455Y-59418990D01*
G75*
G02*
X47831165Y-61006494I-404897J-1182607D01*
G01*
X47643293Y-61555224D01*
G75*
G02*
X46055789Y-62332934I-1182607J404897D01*
G01*
X46055789Y-62332934D01*
G75*
G02*
X45278079Y-60745430I404897J1182607D01*
G01*
G37*
%TD.AperFunction*%
%TD*%
%TO.P,SW49,2*%
%TO.N,Net-(D49-Pad2)*%
%TA.AperFunction,ComponentPad*%
G36*
G01*
X40309335Y-79120432D02*
X40497207Y-78571702D01*
G75*
G02*
X42084711Y-77793992I1182607J-404897D01*
G01*
X42084711Y-77793992D01*
G75*
G02*
X42862421Y-79381496I-404897J-1182607D01*
G01*
X42674549Y-79930226D01*
G75*
G02*
X41087045Y-80707936I-1182607J404897D01*
G01*
X41087045Y-80707936D01*
G75*
G02*
X40309335Y-79120432I404897J1182607D01*
G01*
G37*
%TD.AperFunction*%
%TO.P,SW49,1*%
%TO.N,/Row2*%
%TA.AperFunction,ComponentPad*%
G36*
G01*
X34005031Y-78821452D02*
X35663905Y-77301374D01*
G75*
G02*
X37429990Y-77378483I844488J-921597D01*
G01*
X37429990Y-77378483D01*
G75*
G02*
X37352881Y-79144568I-921597J-844488D01*
G01*
X35694007Y-80664646D01*
G75*
G02*
X33927922Y-80587537I-844488J921597D01*
G01*
X33927922Y-80587537D01*
G75*
G02*
X34005031Y-78821452I921597J844488D01*
G01*
G37*
%TD.AperFunction*%
%TD*%
%TO.P,SW50,1*%
%TO.N,/Row3*%
%TA.AperFunction,ComponentPad*%
G36*
G01*
X29130030Y-97196449D02*
X30788904Y-95676371D01*
G75*
G02*
X32554989Y-95753480I844488J-921597D01*
G01*
X32554989Y-95753480D01*
G75*
G02*
X32477880Y-97519565I-921597J-844488D01*
G01*
X30819006Y-99039643D01*
G75*
G02*
X29052921Y-98962534I-844488J921597D01*
G01*
X29052921Y-98962534D01*
G75*
G02*
X29130030Y-97196449I921597J844488D01*
G01*
G37*
%TD.AperFunction*%
%TO.P,SW50,2*%
%TO.N,Net-(D50-Pad2)*%
%TA.AperFunction,ComponentPad*%
G36*
G01*
X35434334Y-97495429D02*
X35622206Y-96946699D01*
G75*
G02*
X37209710Y-96168989I1182607J-404897D01*
G01*
X37209710Y-96168989D01*
G75*
G02*
X37987420Y-97756493I-404897J-1182607D01*
G01*
X37799548Y-98305223D01*
G75*
G02*
X36212044Y-99082933I-1182607J404897D01*
G01*
X36212044Y-99082933D01*
G75*
G02*
X35434334Y-97495429I404897J1182607D01*
G01*
G37*
%TD.AperFunction*%
%TD*%
%TO.P,SW51,2*%
%TO.N,Net-(D51-Pad2)*%
%TA.AperFunction,ComponentPad*%
G36*
G01*
X103578509Y-131580369D02*
X103880695Y-131085309D01*
G75*
G02*
X105598895Y-130669633I1066938J-651262D01*
G01*
X105598895Y-130669633D01*
G75*
G02*
X106014571Y-132387833I-651262J-1066938D01*
G01*
X105712385Y-132882893D01*
G75*
G02*
X103994185Y-133298569I-1066938J651262D01*
G01*
X103994185Y-133298569D01*
G75*
G02*
X103578509Y-131580369I651262J1066938D01*
G01*
G37*
%TD.AperFunction*%
%TO.P,SW51,1*%
%TO.N,/Row4*%
%TA.AperFunction,ComponentPad*%
G36*
G01*
X97488353Y-129923974D02*
X99436911Y-128798974D01*
G75*
G02*
X101144443Y-129256506I625000J-1082532D01*
G01*
X101144443Y-129256506D01*
G75*
G02*
X100686911Y-130964038I-1082532J-625000D01*
G01*
X98738353Y-132089038D01*
G75*
G02*
X97030821Y-131631506I-625000J1082532D01*
G01*
X97030821Y-131631506D01*
G75*
G02*
X97488353Y-129923974I1082532J625000D01*
G01*
G37*
%TD.AperFunction*%
%TD*%
%TO.P,SW52,2*%
%TO.N,Net-(D52-Pad2)*%
%TA.AperFunction,ComponentPad*%
G36*
G01*
X31778084Y-37401681D02*
X31965956Y-36852951D01*
G75*
G02*
X33553460Y-36075241I1182607J-404897D01*
G01*
X33553460Y-36075241D01*
G75*
G02*
X34331170Y-37662745I-404897J-1182607D01*
G01*
X34143298Y-38211475D01*
G75*
G02*
X32555794Y-38989185I-1182607J404897D01*
G01*
X32555794Y-38989185D01*
G75*
G02*
X31778084Y-37401681I404897J1182607D01*
G01*
G37*
%TD.AperFunction*%
%TO.P,SW52,1*%
%TO.N,/Row0*%
%TA.AperFunction,ComponentPad*%
G36*
G01*
X25473780Y-37102701D02*
X27132654Y-35582623D01*
G75*
G02*
X28898739Y-35659732I844488J-921597D01*
G01*
X28898739Y-35659732D01*
G75*
G02*
X28821630Y-37425817I-921597J-844488D01*
G01*
X27162756Y-38945895D01*
G75*
G02*
X25396671Y-38868786I-844488J921597D01*
G01*
X25396671Y-38868786D01*
G75*
G02*
X25473780Y-37102701I921597J844488D01*
G01*
G37*
%TD.AperFunction*%
%TD*%
%TO.P,SW53,1*%
%TO.N,/Row1*%
%TA.AperFunction,ComponentPad*%
G36*
G01*
X20598776Y-55477701D02*
X22257650Y-53957623D01*
G75*
G02*
X24023735Y-54034732I844488J-921597D01*
G01*
X24023735Y-54034732D01*
G75*
G02*
X23946626Y-55800817I-921597J-844488D01*
G01*
X22287752Y-57320895D01*
G75*
G02*
X20521667Y-57243786I-844488J921597D01*
G01*
X20521667Y-57243786D01*
G75*
G02*
X20598776Y-55477701I921597J844488D01*
G01*
G37*
%TD.AperFunction*%
%TO.P,SW53,2*%
%TO.N,Net-(D53-Pad2)*%
%TA.AperFunction,ComponentPad*%
G36*
G01*
X26903080Y-55776681D02*
X27090952Y-55227951D01*
G75*
G02*
X28678456Y-54450241I1182607J-404897D01*
G01*
X28678456Y-54450241D01*
G75*
G02*
X29456166Y-56037745I-404897J-1182607D01*
G01*
X29268294Y-56586475D01*
G75*
G02*
X27680790Y-57364185I-1182607J404897D01*
G01*
X27680790Y-57364185D01*
G75*
G02*
X26903080Y-55776681I404897J1182607D01*
G01*
G37*
%TD.AperFunction*%
%TD*%
%TO.P,SW54,2*%
%TO.N,Net-(D54-Pad2)*%
%TA.AperFunction,ComponentPad*%
G36*
G01*
X21934332Y-74151680D02*
X22122204Y-73602950D01*
G75*
G02*
X23709708Y-72825240I1182607J-404897D01*
G01*
X23709708Y-72825240D01*
G75*
G02*
X24487418Y-74412744I-404897J-1182607D01*
G01*
X24299546Y-74961474D01*
G75*
G02*
X22712042Y-75739184I-1182607J404897D01*
G01*
X22712042Y-75739184D01*
G75*
G02*
X21934332Y-74151680I404897J1182607D01*
G01*
G37*
%TD.AperFunction*%
%TO.P,SW54,1*%
%TO.N,/Row2*%
%TA.AperFunction,ComponentPad*%
G36*
G01*
X15630028Y-73852700D02*
X17288902Y-72332622D01*
G75*
G02*
X19054987Y-72409731I844488J-921597D01*
G01*
X19054987Y-72409731D01*
G75*
G02*
X18977878Y-74175816I-921597J-844488D01*
G01*
X17319004Y-75695894D01*
G75*
G02*
X15552919Y-75618785I-844488J921597D01*
G01*
X15552919Y-75618785D01*
G75*
G02*
X15630028Y-73852700I921597J844488D01*
G01*
G37*
%TD.AperFunction*%
%TD*%
%TO.P,SW55,1*%
%TO.N,/Row3*%
%TA.AperFunction,ComponentPad*%
G36*
G01*
X10661279Y-92321451D02*
X12320153Y-90801373D01*
G75*
G02*
X14086238Y-90878482I844488J-921597D01*
G01*
X14086238Y-90878482D01*
G75*
G02*
X14009129Y-92644567I-921597J-844488D01*
G01*
X12350255Y-94164645D01*
G75*
G02*
X10584170Y-94087536I-844488J921597D01*
G01*
X10584170Y-94087536D01*
G75*
G02*
X10661279Y-92321451I921597J844488D01*
G01*
G37*
%TD.AperFunction*%
%TO.P,SW55,2*%
%TO.N,Net-(D55-Pad2)*%
%TA.AperFunction,ComponentPad*%
G36*
G01*
X16965583Y-92620431D02*
X17153455Y-92071701D01*
G75*
G02*
X18740959Y-91293991I1182607J-404897D01*
G01*
X18740959Y-91293991D01*
G75*
G02*
X19518669Y-92881495I-404897J-1182607D01*
G01*
X19330797Y-93430225D01*
G75*
G02*
X17743293Y-94207935I-1182607J404897D01*
G01*
X17743293Y-94207935D01*
G75*
G02*
X16965583Y-92620431I404897J1182607D01*
G01*
G37*
%TD.AperFunction*%
%TD*%
%TO.P,SW56,1*%
%TO.N,/Row4*%
%TA.AperFunction,ComponentPad*%
G36*
G01*
X77411278Y-123258952D02*
X79070152Y-121738874D01*
G75*
G02*
X80836237Y-121815983I844488J-921597D01*
G01*
X80836237Y-121815983D01*
G75*
G02*
X80759128Y-123582068I-921597J-844488D01*
G01*
X79100254Y-125102146D01*
G75*
G02*
X77334169Y-125025037I-844488J921597D01*
G01*
X77334169Y-125025037D01*
G75*
G02*
X77411278Y-123258952I921597J844488D01*
G01*
G37*
%TD.AperFunction*%
%TO.P,SW56,2*%
%TO.N,Net-(D56-Pad2)*%
%TA.AperFunction,ComponentPad*%
G36*
G01*
X83715582Y-123557932D02*
X83903454Y-123009202D01*
G75*
G02*
X85490958Y-122231492I1182607J-404897D01*
G01*
X85490958Y-122231492D01*
G75*
G02*
X86268668Y-123818996I-404897J-1182607D01*
G01*
X86080796Y-124367726D01*
G75*
G02*
X84493292Y-125145436I-1182607J404897D01*
G01*
X84493292Y-125145436D01*
G75*
G02*
X83715582Y-123557932I404897J1182607D01*
G01*
G37*
%TD.AperFunction*%
%TD*%
D13*
%TO.N,/Col2*%
X227730100Y-106036462D03*
%TO.N,/Col9*%
X63700145Y-105193827D03*
%TO.N,/Row0*%
X136144509Y-61626216D03*
%TO.N,/Row1*%
X131461504Y-79103439D03*
%TO.N,/Row3*%
X169714316Y-120447730D03*
X135171466Y-100548966D03*
%TD*%
D14*
%TO.N,/Col0*%
X192969883Y-119805055D02*
X192041803Y-121412534D01*
X220498765Y-112428716D02*
X192969883Y-119805055D01*
X224058182Y-114483744D02*
X220498765Y-112428716D01*
X225150075Y-118558740D02*
X224058182Y-114483744D01*
X227681400Y-120020207D02*
X225150075Y-118558740D01*
X229773889Y-119459524D02*
X227681400Y-120020207D01*
X155482594Y-131208543D02*
X152674865Y-129587502D01*
X192041803Y-121412534D02*
X155482594Y-131208543D01*
%TO.N,/Col1*%
X192338323Y-121798966D02*
X154774562Y-131864144D01*
X154774562Y-131864144D02*
X152938223Y-131864142D01*
X193266401Y-120191491D02*
X192338323Y-121798966D01*
X220435190Y-112911635D02*
X193266401Y-120191491D01*
X152938223Y-131864142D02*
X152674863Y-132127503D01*
X223671753Y-114780263D02*
X220435190Y-112911635D01*
X229142330Y-121383300D02*
X224763645Y-118855264D01*
X232202893Y-120563223D02*
X229142330Y-121383300D01*
X233401275Y-118487569D02*
X232202893Y-120563223D01*
X224763645Y-118855264D02*
X223671753Y-114780263D01*
X233486660Y-118464688D02*
X233401275Y-118487569D01*
%TO.N,/Col2*%
X227730100Y-106036462D02*
X225005742Y-110755192D01*
X225005742Y-110755192D02*
X192673360Y-119418628D01*
X192673360Y-119418628D02*
X191745283Y-121026103D01*
X157936301Y-130085194D02*
X152674863Y-127047501D01*
X191745283Y-121026103D02*
X157936301Y-130085194D01*
%TO.N,/Col9*%
X71778766Y-107358486D02*
X63700145Y-105193827D01*
X77490163Y-117250921D02*
X71778766Y-107358486D01*
X100257753Y-123351479D02*
X77490163Y-117250921D01*
X107421908Y-126660359D02*
X101206631Y-124994980D01*
X111138461Y-133097617D02*
X107421908Y-126660359D01*
X123828019Y-131224097D02*
X117589193Y-134826085D01*
X101206631Y-124994980D02*
X100257753Y-123351479D01*
X117589193Y-134826085D02*
X111138461Y-133097617D01*
X137434863Y-124507500D02*
X125374281Y-131470681D01*
X124045617Y-131114668D02*
X125374281Y-131470681D01*
X123847183Y-131229232D02*
X124045617Y-131114668D01*
X123828019Y-131224097D02*
X123847183Y-131229232D01*
%TO.N,/Col10*%
X137434866Y-129587500D02*
X130281694Y-133717382D01*
X61419828Y-120224099D02*
X61482890Y-119988748D01*
X74409714Y-121112291D02*
X68668720Y-124426854D01*
X130281694Y-133717382D02*
X130259164Y-133711345D01*
X130259164Y-133711345D02*
X122946718Y-137933188D01*
X62963720Y-122898199D02*
X61419828Y-120224099D01*
X122946718Y-137933188D02*
X111050707Y-134745662D01*
X111050707Y-134745662D02*
X106828866Y-127433220D01*
X106828866Y-127433220D02*
X100538944Y-125747840D01*
X100538944Y-125747840D02*
X99590061Y-124104337D01*
X99590061Y-124104337D02*
X76678601Y-117965228D01*
X76678601Y-117965228D02*
X74992056Y-118938957D01*
X74992056Y-118938957D02*
X74409714Y-121112291D01*
X68668720Y-124426854D02*
X62963720Y-122898199D01*
%TO.N,/Col11*%
X65156867Y-121128382D02*
X65195664Y-120983585D01*
X66448850Y-123366157D02*
X65156867Y-121128382D01*
X68605143Y-123943935D02*
X66448850Y-123366157D01*
X137434864Y-127047501D02*
X127827987Y-132594033D01*
X107125387Y-127046790D02*
X100835459Y-125361408D01*
X127827987Y-132594033D02*
X124109197Y-131597585D01*
X100835412Y-125361325D02*
X100855417Y-125286683D01*
X124109197Y-131597585D02*
X117671936Y-135314139D01*
X74605623Y-118642440D02*
X74023279Y-120815773D01*
X117671936Y-135314139D02*
X110841940Y-133484050D01*
X110841940Y-133484050D02*
X107125387Y-127046790D01*
X100835459Y-125361408D02*
X100835412Y-125361325D01*
X74023279Y-120815773D02*
X68605143Y-123943935D01*
X100855417Y-125286683D02*
X99961233Y-123737907D01*
X99961233Y-123737907D02*
X76615023Y-117482311D01*
X76615023Y-117482311D02*
X74605623Y-118642440D01*
%TO.N,/Row0*%
X27147705Y-37264262D02*
X27810596Y-34790313D01*
X27810596Y-34790313D02*
X28630764Y-34316786D01*
X56974648Y-41911511D02*
X60763700Y-39723900D01*
X60763700Y-39723900D02*
X62219564Y-34290569D01*
X62219564Y-34290569D02*
X63712219Y-33428779D01*
X80102771Y-37820618D02*
X81021333Y-37290287D01*
X81021333Y-37290287D02*
X81603676Y-35116955D01*
X81603676Y-35116955D02*
X82981509Y-34321455D01*
X96745953Y-38009633D02*
X97740320Y-39731926D01*
X97521947Y-40546925D02*
X98118566Y-41580305D01*
X97740320Y-39731926D02*
X97521947Y-40546925D01*
X98118566Y-41580305D02*
X99658009Y-41992799D01*
X99658009Y-41992799D02*
X100983834Y-44289195D01*
X114114390Y-47807517D02*
X115440214Y-50103912D01*
X120616455Y-56389258D02*
X121639266Y-52572064D01*
X121639266Y-52572064D02*
X122594104Y-52020789D01*
X115440214Y-50103912D02*
X122594104Y-52020789D01*
X103673239Y-45951422D02*
X104787169Y-45308295D01*
X102710203Y-49545511D02*
X103673239Y-45951422D01*
X104787169Y-45308295D02*
X114114390Y-47807517D01*
X100983834Y-44289195D02*
X104787169Y-45308295D01*
X86477320Y-36742850D02*
X88233736Y-35728788D01*
X85835205Y-39139262D02*
X86477320Y-36742850D01*
X88233736Y-35728788D02*
X96745953Y-38009633D01*
X82981509Y-34321455D02*
X88233736Y-35728788D01*
X66991172Y-35822282D02*
X68783326Y-34787583D01*
X66428956Y-37920509D02*
X66991172Y-35822282D01*
X68783326Y-34787583D02*
X80102771Y-37820618D01*
X63712219Y-33428779D02*
X68783326Y-34787583D01*
X46216648Y-39549431D02*
X46832426Y-39193910D01*
X45522708Y-42139256D02*
X46216648Y-39549431D01*
X46832426Y-39193910D02*
X56974648Y-41911511D01*
X28630764Y-34316786D02*
X46832426Y-39193910D01*
X257450619Y-38949169D02*
X257089089Y-37599928D01*
X257089089Y-37599928D02*
X254636071Y-36183682D01*
X232087745Y-42225485D02*
X229446885Y-40700790D01*
X229446885Y-40700790D02*
X227966764Y-35176901D01*
X227966764Y-35176901D02*
X226197875Y-34155631D01*
X213248431Y-37625426D02*
X212795654Y-37746746D01*
X212795654Y-37746746D02*
X207216071Y-34525375D01*
X193361075Y-38237808D02*
X189317309Y-45241819D01*
X174013422Y-49342484D02*
X173085345Y-50949961D01*
X239075618Y-43824172D02*
X238585981Y-41996828D01*
X236796628Y-40963743D02*
X232087745Y-42225485D01*
X238585981Y-41996828D02*
X236796628Y-40963743D01*
X254636071Y-36183682D02*
X236796628Y-40963743D01*
X217714400Y-37907457D02*
X215965101Y-36897497D01*
X218169369Y-39605426D02*
X217714400Y-37907457D01*
X215965101Y-36897497D02*
X213248431Y-37625426D01*
X226197875Y-34155631D02*
X215965101Y-36897497D01*
X198856867Y-40824172D02*
X198387687Y-39073170D01*
X198314896Y-38801503D02*
X196077742Y-37509883D01*
X198856867Y-40824172D02*
X198314896Y-38801503D01*
X196077742Y-37509883D02*
X193361075Y-38237808D01*
X207216071Y-34525375D02*
X196077742Y-37509883D01*
X181299247Y-49032708D02*
X179356199Y-47910890D01*
X181888120Y-51230421D02*
X181299247Y-49032708D01*
X179356199Y-47910890D02*
X174013422Y-49342484D01*
X189317309Y-45241819D02*
X179356199Y-47910890D01*
X163114834Y-54838349D02*
X161675348Y-54007264D01*
X163981869Y-58074174D02*
X163114834Y-54838349D01*
X173085345Y-50949961D02*
X161675348Y-54007264D01*
X132645768Y-54714128D02*
X122594104Y-52020789D01*
X132812420Y-54880774D02*
X132645768Y-54714128D01*
X161675348Y-54007264D02*
X158415344Y-54880774D01*
X132812420Y-54880774D02*
X134048768Y-55212054D01*
X134048768Y-55212054D02*
X136654060Y-59724550D01*
X136654060Y-59724550D02*
X136144509Y-61626216D01*
X136144509Y-61626216D02*
X136144509Y-61626216D01*
X136654060Y-59724550D02*
X136664682Y-59724550D01*
X136664682Y-59724550D02*
X137208583Y-60268450D01*
X137208583Y-60268450D02*
X137208582Y-85393449D01*
X137208582Y-85393449D02*
X142271082Y-90455949D01*
X142271082Y-90455949D02*
X148177332Y-90455949D01*
X148177332Y-90455949D02*
X152489832Y-86143449D01*
X152489833Y-60806285D02*
X158415344Y-54880774D01*
X152489832Y-86143449D02*
X152489833Y-60806285D01*
%TO.N,/Row1*%
X22272705Y-55639257D02*
X22893877Y-53321025D01*
X22893877Y-53321025D02*
X23843112Y-52772980D01*
X53454779Y-60707411D02*
X56138744Y-59157816D01*
X56138744Y-59157816D02*
X57740188Y-53181150D01*
X57740188Y-53181150D02*
X59347663Y-52253071D01*
X74379881Y-56280948D02*
X76905919Y-54822535D01*
X76905919Y-54822535D02*
X77051506Y-54279202D01*
X77051506Y-54279202D02*
X78429345Y-53483711D01*
X92012676Y-57123353D02*
X93338498Y-59419747D01*
X94230229Y-59658686D02*
X96616710Y-63792200D01*
X93338498Y-59419747D02*
X94230229Y-59658686D01*
X109579987Y-67265699D02*
X110839522Y-69447276D01*
X116431378Y-72189444D02*
X117902851Y-71339890D01*
X115741453Y-74764259D02*
X116431378Y-72189444D01*
X117902851Y-71339890D02*
X127773405Y-73984697D01*
X110839522Y-69447276D02*
X117902851Y-71339890D01*
X98349475Y-66094983D02*
X100524432Y-64839272D01*
X97835205Y-68014259D02*
X98349475Y-66094983D01*
X100524432Y-64839272D02*
X109579987Y-67265699D01*
X96616710Y-63792200D02*
X100524432Y-64839272D01*
X80866452Y-57514262D02*
X81376894Y-55609265D01*
X81376894Y-55609265D02*
X82957122Y-54696919D01*
X82957122Y-54696919D02*
X92012676Y-57123353D01*
X78429345Y-53483711D02*
X82957122Y-54696919D01*
X61460208Y-56389263D02*
X62187374Y-53675426D01*
X62969887Y-53223644D02*
X74379881Y-56280948D01*
X62187374Y-53675426D02*
X62969887Y-53223644D01*
X59347663Y-52253071D02*
X62969887Y-53223644D01*
X40647707Y-60608010D02*
X41208317Y-58515768D01*
X41208317Y-58515768D02*
X42497557Y-57771423D01*
X42497557Y-57771423D02*
X53454779Y-60707411D01*
X23843112Y-52772980D02*
X42497557Y-57771423D01*
X262419370Y-57324172D02*
X261737752Y-57506812D01*
X261737752Y-57506812D02*
X257454681Y-55033978D01*
X239253018Y-59911103D02*
X232937925Y-56265081D01*
X232937925Y-56265081D02*
X232780385Y-55677144D01*
X232780385Y-55677144D02*
X232112942Y-53186194D01*
X232112942Y-53186194D02*
X230161000Y-52059243D01*
X218298227Y-55237864D02*
X213820249Y-52652503D01*
X197610812Y-56995812D02*
X193699623Y-63770181D01*
X177490185Y-68113492D02*
X176429525Y-69950602D01*
X176429525Y-69950602D02*
X173793527Y-70656920D01*
X168856870Y-76449169D02*
X167861710Y-72735178D01*
X167861710Y-72735178D02*
X167283413Y-72401300D01*
X173793527Y-70656920D02*
X167283413Y-72401300D01*
X186200100Y-67248078D02*
X184462963Y-66245139D01*
X186856869Y-69699172D02*
X186200100Y-67248078D01*
X184462963Y-66245139D02*
X177490185Y-68113492D01*
X193699623Y-63770181D02*
X184462963Y-66245139D01*
X203061772Y-56698332D02*
X201685806Y-55903916D01*
X203731866Y-59199171D02*
X203061772Y-56698332D01*
X201685806Y-55903916D02*
X197610812Y-56995812D01*
X213820249Y-52652503D02*
X201685806Y-55903916D01*
X222450860Y-55415533D02*
X220924337Y-54534201D01*
X223138116Y-57980423D02*
X222450860Y-55415533D01*
X220924337Y-54534201D02*
X218298227Y-55237864D01*
X230161000Y-52059243D02*
X220924337Y-54534201D01*
X243157553Y-59333164D02*
X242603571Y-59013323D01*
X243950616Y-62292918D02*
X243157553Y-59333164D01*
X242603571Y-59013323D02*
X239253018Y-59911103D01*
X257454681Y-55033978D02*
X242603571Y-59013323D01*
X130541972Y-74726532D02*
X127773405Y-73984697D01*
X131971052Y-77201770D02*
X130541972Y-74726532D01*
X131971052Y-77201770D02*
X131461504Y-79103439D01*
X131461504Y-79103439D02*
X131461504Y-79103439D01*
X160271082Y-75767607D02*
X162053995Y-73984694D01*
X162053995Y-73984694D02*
X162302857Y-73735835D01*
X133095337Y-99373954D02*
X159603077Y-99373954D01*
X132239832Y-98518450D02*
X133095337Y-99373954D01*
X162302857Y-73735835D02*
X167283413Y-72401300D01*
X132239832Y-77447590D02*
X132239832Y-98518450D01*
X160271082Y-98705950D02*
X160271082Y-75767607D01*
X159603077Y-99373954D02*
X160271082Y-98705950D01*
X132485652Y-77201769D02*
X132239832Y-77447590D01*
X131971052Y-77201770D02*
X132485652Y-77201769D01*
%TO.N,/Row2*%
X17303954Y-74014256D02*
X18011826Y-71372442D01*
X18011826Y-71372442D02*
X18550774Y-71061279D01*
X48615218Y-79117020D02*
X51418471Y-77498563D01*
X51418471Y-77498563D02*
X53068443Y-71340791D01*
X53068443Y-71340791D02*
X54561100Y-70479000D01*
X69683875Y-74531136D02*
X71980272Y-73205315D01*
X71980272Y-73205315D02*
X72319971Y-71937536D01*
X72319971Y-71937536D02*
X73008888Y-71539789D01*
X88131666Y-75591923D02*
X89656363Y-78232780D01*
X89656363Y-78232780D02*
X91195810Y-78645276D01*
X91195810Y-78645276D02*
X93714878Y-83008426D01*
X111403744Y-90784190D02*
X112354575Y-90235234D01*
X110772704Y-93139260D02*
X111403744Y-90784190D01*
X107826799Y-89022016D02*
X112354575Y-90235234D01*
X93771288Y-83106128D02*
X93714878Y-83008426D01*
X92866458Y-86483008D02*
X93771288Y-83106128D01*
X76878118Y-72673935D02*
X76993330Y-72607416D01*
X75991453Y-75983010D02*
X76878118Y-72673935D01*
X76993330Y-72607416D02*
X88131666Y-75591923D01*
X73008888Y-71539789D02*
X76993330Y-72607416D01*
X57313725Y-71951632D02*
X58183316Y-71449573D01*
X56585205Y-74670509D02*
X57313725Y-71951632D01*
X58183316Y-71449573D02*
X69683875Y-74531136D01*
X54561100Y-70479000D02*
X58183316Y-71449573D01*
X35678952Y-78983010D02*
X36233375Y-76913888D01*
X37551927Y-76152622D02*
X48615218Y-79117020D01*
X36233375Y-76913888D02*
X37551927Y-76152622D01*
X18550774Y-71061279D02*
X37551927Y-76152622D01*
X267294366Y-75699169D02*
X267009179Y-74634841D01*
X267009179Y-74634841D02*
X263986066Y-72889443D01*
X244516624Y-78106265D02*
X238316355Y-74526537D01*
X238286939Y-74416770D02*
X238172123Y-74350475D01*
X238316355Y-74526537D02*
X238286939Y-74416770D01*
X238172123Y-74350475D02*
X237352283Y-71290804D01*
X237352283Y-71290804D02*
X235629990Y-70296430D01*
X221593874Y-74057395D02*
X218838199Y-72466405D01*
X218838199Y-72466405D02*
X218747641Y-72490671D01*
X218747641Y-72490671D02*
X217369805Y-71695171D01*
X202880917Y-75577460D02*
X199036026Y-82237011D01*
X186901582Y-85488425D02*
X185642050Y-87670004D01*
X172986393Y-91692144D02*
X172239827Y-91261117D01*
X173825620Y-94824169D02*
X172986393Y-91692144D01*
X172239827Y-91261117D02*
X168074273Y-92377274D01*
X185642050Y-87670004D02*
X172239827Y-91261117D01*
X191044030Y-85507128D02*
X189708805Y-84736234D01*
X191731867Y-88074171D02*
X191044030Y-85507128D01*
X189708805Y-84736234D02*
X186901582Y-85488425D01*
X199036026Y-82237011D02*
X189708805Y-84736234D01*
X208083951Y-75366476D02*
X206684253Y-74558358D01*
X208700618Y-77667922D02*
X208083951Y-75366476D01*
X206684253Y-74558358D02*
X202880917Y-75577460D01*
X217369805Y-71695171D02*
X206684253Y-74558358D01*
X227416115Y-74127362D02*
X225487766Y-73014033D01*
X228013121Y-76355422D02*
X227416115Y-74127362D01*
X225487766Y-73014033D02*
X221593874Y-74057395D01*
X235629990Y-70296430D02*
X225487766Y-73014033D01*
X248001246Y-77241438D02*
X248048291Y-77159959D01*
X248919367Y-80667920D02*
X248001246Y-77241438D01*
X248048291Y-77159959D02*
X244516624Y-78106265D01*
X263986066Y-72889443D02*
X248048291Y-77159959D01*
X166964902Y-93486646D02*
X168074273Y-92377274D01*
X166964902Y-93486646D02*
X165459445Y-93890033D01*
X165459445Y-93890033D02*
X164590953Y-95394300D01*
X164590953Y-95394300D02*
X170026153Y-115678744D01*
X170026153Y-115678744D02*
X167904832Y-119352979D01*
X163424115Y-120553585D02*
X152674864Y-114347500D01*
X167904832Y-119352979D02*
X163424115Y-120553585D01*
X160161289Y-99823965D02*
X164590953Y-95394300D01*
X124489015Y-94611382D02*
X129701598Y-99823965D01*
X124489015Y-93486647D02*
X124489015Y-94611382D01*
X129701598Y-99823965D02*
X160161289Y-99823965D01*
X112354575Y-90235234D02*
X124489015Y-93486647D01*
%TO.N,/Row3*%
X12335207Y-92483010D02*
X13013909Y-89950031D01*
X13013909Y-89950031D02*
X14083454Y-89332533D01*
X43785675Y-97291221D02*
X46885811Y-95501358D01*
X46885811Y-95501358D02*
X48365929Y-89977470D01*
X48365929Y-89977470D02*
X49973407Y-89049392D01*
X64462295Y-92931678D02*
X67217969Y-91340686D01*
X67217969Y-91340686D02*
X67242234Y-91250136D01*
X67242234Y-91250136D02*
X68652576Y-90435871D01*
X82326462Y-94099777D02*
X83604758Y-96313861D01*
X83604758Y-96313861D02*
X85907932Y-96930992D01*
X85907932Y-96930992D02*
X88559587Y-101523785D01*
X88559587Y-101523785D02*
X100060142Y-104605347D01*
X100060142Y-104605347D02*
X101054512Y-106327645D01*
X105803955Y-111608010D02*
X106624211Y-108546783D01*
X106624211Y-108546783D02*
X107483956Y-108050409D01*
X101054512Y-106327645D02*
X107483956Y-108050409D01*
X88700559Y-101767961D02*
X88559587Y-101523785D01*
X87897709Y-104764261D02*
X88700559Y-101767961D01*
X71475996Y-92666306D02*
X73219640Y-91659616D01*
X71022705Y-94358010D02*
X71475996Y-92666306D01*
X73219640Y-91659616D02*
X82326462Y-94099777D01*
X68652576Y-90435871D02*
X73219640Y-91659616D01*
X52073166Y-91434782D02*
X54229517Y-90189810D01*
X51616451Y-93139259D02*
X52073166Y-91434782D01*
X54229517Y-90189810D02*
X64462295Y-92931678D01*
X49973407Y-89049392D02*
X54229517Y-90189810D01*
X31433816Y-95007345D02*
X32647339Y-94306711D01*
X30803954Y-97358012D02*
X31433816Y-95007345D01*
X32647339Y-94306711D02*
X43785675Y-97291221D01*
X14083454Y-89332533D02*
X32647339Y-94306711D01*
X272263120Y-94074172D02*
X271939754Y-92867366D01*
X271939754Y-92867366D02*
X269207648Y-91289980D01*
X248742096Y-96773713D02*
X243690022Y-93856895D01*
X243690022Y-93856895D02*
X242646655Y-89963007D01*
X242646655Y-89963007D02*
X241039177Y-89034929D01*
X226912515Y-92820159D02*
X224386476Y-91361749D01*
X224386476Y-91361749D02*
X224216628Y-90727861D01*
X224216628Y-90727861D02*
X222838791Y-89932367D01*
X207082124Y-94154348D02*
X203303522Y-100699082D01*
X187546858Y-104921069D02*
X186552489Y-106643362D01*
X177838720Y-109726405D02*
X176953599Y-109215376D01*
X178794366Y-113292921D02*
X177838720Y-109726405D01*
X176953599Y-109215376D02*
X171701378Y-110622709D01*
X186552489Y-106643362D02*
X176953599Y-109215376D01*
X195829022Y-103196319D02*
X195244078Y-102858603D01*
X196700618Y-106449174D02*
X195829022Y-103196319D01*
X195244078Y-102858603D02*
X187546858Y-104921069D01*
X203303522Y-100699082D02*
X195244078Y-102858603D01*
X212879351Y-93444414D02*
X211881567Y-92868344D01*
X213575619Y-96042922D02*
X212879351Y-93444414D01*
X211881567Y-92868344D02*
X207082124Y-94154348D01*
X222838791Y-89932367D02*
X211881567Y-92868344D01*
X232341236Y-92433288D02*
X231078069Y-91704000D01*
X232981870Y-94824171D02*
X232341236Y-92433288D01*
X231078069Y-91704000D02*
X226912515Y-92820159D01*
X241039177Y-89034929D02*
X231078069Y-91704000D01*
X253164290Y-96341553D02*
X252273760Y-95827403D01*
X252273760Y-95827403D02*
X248742096Y-96773713D01*
X253888120Y-99042923D02*
X253164290Y-96341553D01*
X107483956Y-108050409D02*
X114526293Y-109937400D01*
X114202641Y-111145281D02*
X115948604Y-114169371D01*
X114526293Y-109937400D02*
X114202641Y-111145281D01*
X269207648Y-91289980D02*
X265523200Y-92277229D01*
X265523200Y-92277229D02*
X252273760Y-95827403D01*
X171701378Y-110622709D02*
X170899603Y-110837543D01*
X169735232Y-112854300D02*
X170754333Y-116657634D01*
X170899603Y-110837543D02*
X169735232Y-112854300D01*
X170754333Y-116657634D02*
X171045502Y-117744300D01*
X171045502Y-117744300D02*
X171118298Y-118015965D01*
X171118298Y-118015965D02*
X169714316Y-120447730D01*
X169714316Y-120447730D02*
X169714316Y-120447730D01*
X129335359Y-108496920D02*
X124388194Y-126959997D01*
X132269765Y-106802740D02*
X129335359Y-108496920D01*
X133721086Y-101386344D02*
X132269765Y-106802740D01*
X135171466Y-100548966D02*
X133721086Y-101386344D01*
X124388194Y-126959997D02*
X137434861Y-119427500D01*
X115948604Y-114169371D02*
X113116828Y-124737704D01*
X113116828Y-124737704D02*
X114160974Y-126546218D01*
X121635801Y-128549092D02*
X124388194Y-126959997D01*
X114160974Y-126546218D02*
X121635801Y-128549092D01*
%TO.N,/Row4*%
X79085205Y-123420509D02*
X79560718Y-121645858D01*
X79560718Y-121645858D02*
X82450211Y-119977612D01*
X82450211Y-119977612D02*
X99293543Y-124490763D01*
X100242421Y-126134271D02*
X99087638Y-130444004D01*
X99293543Y-124490763D02*
X100242421Y-126134271D01*
X128733147Y-139949540D02*
X134235386Y-149479693D01*
X117087392Y-141718030D02*
X118287947Y-137237494D01*
X118287947Y-137237494D02*
X118228706Y-137134884D01*
X205513119Y-125011670D02*
X205237155Y-125085616D01*
X205237155Y-125085616D02*
X199197880Y-121598839D01*
X199197880Y-121598839D02*
X181811219Y-126257584D01*
X168623085Y-137167676D02*
X169619193Y-136900771D01*
X169619193Y-136900771D02*
X163551970Y-138526478D01*
X176773081Y-134983891D02*
X169619193Y-136900771D01*
X181784899Y-134585967D02*
X178198344Y-132515263D01*
X186024424Y-133449986D02*
X181784899Y-134585967D01*
X178198344Y-132515263D02*
X176773081Y-134983891D01*
X181811219Y-126257584D02*
X178198344Y-132515263D01*
X165614286Y-146759435D02*
X160502572Y-143808190D01*
X168812164Y-145902566D02*
X165614286Y-146759435D01*
X163551970Y-138526478D02*
X160502572Y-143808190D01*
X160502572Y-143808190D02*
X160412018Y-143832456D01*
X153204614Y-156316042D02*
X154637875Y-161665049D01*
X156972897Y-149671627D02*
X157015926Y-149714656D01*
X134183961Y-149671629D02*
X156972897Y-149671627D01*
X157015926Y-149714656D02*
X153204614Y-156316042D01*
X160412018Y-143832456D02*
X157015926Y-149714656D01*
X134235386Y-149479693D02*
X134183961Y-149671629D01*
X134183961Y-149671629D02*
X132379334Y-156406568D01*
X118228706Y-137134884D02*
X128733147Y-139949540D01*
X129620111Y-136639347D02*
X137434863Y-132127502D01*
X128733147Y-139949540D02*
X129620111Y-136639347D01*
X105891904Y-127648045D02*
X100242421Y-126134271D01*
X106532348Y-127819651D02*
X105891904Y-127648045D01*
X110754189Y-135132096D02*
X106532348Y-127819651D01*
X118228706Y-137134884D02*
X110754189Y-135132096D01*
%TD*%
M02*
