%TF.GenerationSoftware,KiCad,Pcbnew,(5.1.9)-1*%
%TF.CreationDate,2021-03-13T12:52:02-07:00*%
%TF.ProjectId,Pteron56v0,50746572-6f6e-4353-9676-302e6b696361,rev?*%
%TF.SameCoordinates,Original*%
%TF.FileFunction,Legend,Bot*%
%TF.FilePolarity,Positive*%
%FSLAX46Y46*%
G04 Gerber Fmt 4.6, Leading zero omitted, Abs format (unit mm)*
G04 Created by KiCad (PCBNEW (5.1.9)-1) date 2021-03-13 12:52:02*
%MOMM*%
%LPD*%
G01*
G04 APERTURE LIST*
%ADD10C,0.010000*%
%ADD11C,0.100000*%
%ADD12C,0.200000*%
G04 APERTURE END LIST*
D10*
%TO.C,G\u002A\u002A\u002A*%
G36*
X140368788Y-141449120D02*
G01*
X140086163Y-141566796D01*
X139469539Y-142106634D01*
X139379460Y-142724351D01*
X139799643Y-143377077D01*
X140468152Y-143770482D01*
X141306235Y-143925286D01*
X142080449Y-143821097D01*
X142436292Y-143607411D01*
X142584791Y-143312602D01*
X141861512Y-143312602D01*
X141827977Y-143382785D01*
X141494075Y-143504178D01*
X140911226Y-143487299D01*
X140340406Y-143354884D01*
X140117262Y-143233750D01*
X140075431Y-142926532D01*
X140338531Y-142559478D01*
X140745184Y-142334478D01*
X140844426Y-142324042D01*
X141394549Y-142491921D01*
X141787494Y-142879480D01*
X141861512Y-143312602D01*
X142584791Y-143312602D01*
X142693171Y-143097441D01*
X142757134Y-142657978D01*
X142520959Y-142074969D01*
X142390190Y-141977188D01*
X140985985Y-141977188D01*
X140618187Y-142014458D01*
X140238623Y-141972440D01*
X140283976Y-141879601D01*
X140831372Y-141844287D01*
X140952397Y-141879601D01*
X140985985Y-141977188D01*
X142390190Y-141977188D01*
X141928305Y-141631819D01*
X141152980Y-141399534D01*
X140368788Y-141449120D01*
G37*
X140368788Y-141449120D02*
X140086163Y-141566796D01*
X139469539Y-142106634D01*
X139379460Y-142724351D01*
X139799643Y-143377077D01*
X140468152Y-143770482D01*
X141306235Y-143925286D01*
X142080449Y-143821097D01*
X142436292Y-143607411D01*
X142584791Y-143312602D01*
X141861512Y-143312602D01*
X141827977Y-143382785D01*
X141494075Y-143504178D01*
X140911226Y-143487299D01*
X140340406Y-143354884D01*
X140117262Y-143233750D01*
X140075431Y-142926532D01*
X140338531Y-142559478D01*
X140745184Y-142334478D01*
X140844426Y-142324042D01*
X141394549Y-142491921D01*
X141787494Y-142879480D01*
X141861512Y-143312602D01*
X142584791Y-143312602D01*
X142693171Y-143097441D01*
X142757134Y-142657978D01*
X142520959Y-142074969D01*
X142390190Y-141977188D01*
X140985985Y-141977188D01*
X140618187Y-142014458D01*
X140238623Y-141972440D01*
X140283976Y-141879601D01*
X140831372Y-141844287D01*
X140952397Y-141879601D01*
X140985985Y-141977188D01*
X142390190Y-141977188D01*
X141928305Y-141631819D01*
X141152980Y-141399534D01*
X140368788Y-141449120D01*
G36*
X139402657Y-136548772D02*
G01*
X139161810Y-137248656D01*
X139147660Y-137529589D01*
X139212883Y-138161050D01*
X139517342Y-138465113D01*
X140014960Y-138602660D01*
X141003736Y-138946721D01*
X141572981Y-139464594D01*
X141687660Y-139883622D01*
X141574512Y-140149823D01*
X141158773Y-140282674D01*
X140327196Y-140318779D01*
X139427088Y-140370719D01*
X138859356Y-140570621D01*
X138455617Y-140949978D01*
X137992594Y-141906636D01*
X137974274Y-142970580D01*
X138362782Y-144018744D01*
X139120243Y-144928060D01*
X139826412Y-145404121D01*
X140443007Y-145694384D01*
X140896496Y-145755090D01*
X141447147Y-145588783D01*
X141834600Y-145423752D01*
X142217420Y-145164919D01*
X141457394Y-145164919D01*
X141102268Y-145211208D01*
X141019239Y-145212972D01*
X140562621Y-145184072D01*
X140522419Y-145100373D01*
X140546256Y-145089718D01*
X141077032Y-145036827D01*
X141348361Y-145079811D01*
X141457394Y-145164919D01*
X142217420Y-145164919D01*
X142872600Y-144721938D01*
X143712269Y-143693500D01*
X144193968Y-142537521D01*
X144209125Y-142462500D01*
X144226132Y-141455323D01*
X143743776Y-141455323D01*
X143598297Y-142769644D01*
X143032418Y-143785562D01*
X143002185Y-143818324D01*
X142157802Y-144377829D01*
X141142129Y-144571491D01*
X140141884Y-144396200D01*
X139370262Y-143878786D01*
X139044745Y-143256562D01*
X138900080Y-142443324D01*
X138942201Y-141646945D01*
X139177046Y-141075302D01*
X139287421Y-140977787D01*
X140033077Y-140757911D01*
X140980728Y-140795156D01*
X141871393Y-141075630D01*
X141955029Y-141120884D01*
X142505395Y-141402209D01*
X142823976Y-141512463D01*
X143006263Y-141307450D01*
X142954273Y-140731506D01*
X142683628Y-139886455D01*
X142513064Y-139485788D01*
X141907385Y-138547466D01*
X141314165Y-138135270D01*
X140529064Y-138135270D01*
X140492362Y-138294220D01*
X140350818Y-138313516D01*
X140130744Y-138215690D01*
X140172573Y-138135270D01*
X140489877Y-138103271D01*
X140529064Y-138135270D01*
X141314165Y-138135270D01*
X141007275Y-137922029D01*
X140921623Y-137881577D01*
X140185731Y-137455673D01*
X139838063Y-137079730D01*
X139895417Y-136826541D01*
X140374588Y-136768895D01*
X140675356Y-136814318D01*
X141777147Y-137297712D01*
X142692651Y-138232074D01*
X143358701Y-139548002D01*
X143464606Y-139878802D01*
X143743776Y-141455323D01*
X144226132Y-141455323D01*
X144227996Y-141344964D01*
X143951675Y-139982198D01*
X143490334Y-138851784D01*
X142848231Y-137874475D01*
X142096118Y-137086392D01*
X141304750Y-136523658D01*
X140544881Y-136222395D01*
X139887266Y-136218725D01*
X139402657Y-136548772D01*
G37*
X139402657Y-136548772D02*
X139161810Y-137248656D01*
X139147660Y-137529589D01*
X139212883Y-138161050D01*
X139517342Y-138465113D01*
X140014960Y-138602660D01*
X141003736Y-138946721D01*
X141572981Y-139464594D01*
X141687660Y-139883622D01*
X141574512Y-140149823D01*
X141158773Y-140282674D01*
X140327196Y-140318779D01*
X139427088Y-140370719D01*
X138859356Y-140570621D01*
X138455617Y-140949978D01*
X137992594Y-141906636D01*
X137974274Y-142970580D01*
X138362782Y-144018744D01*
X139120243Y-144928060D01*
X139826412Y-145404121D01*
X140443007Y-145694384D01*
X140896496Y-145755090D01*
X141447147Y-145588783D01*
X141834600Y-145423752D01*
X142217420Y-145164919D01*
X141457394Y-145164919D01*
X141102268Y-145211208D01*
X141019239Y-145212972D01*
X140562621Y-145184072D01*
X140522419Y-145100373D01*
X140546256Y-145089718D01*
X141077032Y-145036827D01*
X141348361Y-145079811D01*
X141457394Y-145164919D01*
X142217420Y-145164919D01*
X142872600Y-144721938D01*
X143712269Y-143693500D01*
X144193968Y-142537521D01*
X144209125Y-142462500D01*
X144226132Y-141455323D01*
X143743776Y-141455323D01*
X143598297Y-142769644D01*
X143032418Y-143785562D01*
X143002185Y-143818324D01*
X142157802Y-144377829D01*
X141142129Y-144571491D01*
X140141884Y-144396200D01*
X139370262Y-143878786D01*
X139044745Y-143256562D01*
X138900080Y-142443324D01*
X138942201Y-141646945D01*
X139177046Y-141075302D01*
X139287421Y-140977787D01*
X140033077Y-140757911D01*
X140980728Y-140795156D01*
X141871393Y-141075630D01*
X141955029Y-141120884D01*
X142505395Y-141402209D01*
X142823976Y-141512463D01*
X143006263Y-141307450D01*
X142954273Y-140731506D01*
X142683628Y-139886455D01*
X142513064Y-139485788D01*
X141907385Y-138547466D01*
X141314165Y-138135270D01*
X140529064Y-138135270D01*
X140492362Y-138294220D01*
X140350818Y-138313516D01*
X140130744Y-138215690D01*
X140172573Y-138135270D01*
X140489877Y-138103271D01*
X140529064Y-138135270D01*
X141314165Y-138135270D01*
X141007275Y-137922029D01*
X140921623Y-137881577D01*
X140185731Y-137455673D01*
X139838063Y-137079730D01*
X139895417Y-136826541D01*
X140374588Y-136768895D01*
X140675356Y-136814318D01*
X141777147Y-137297712D01*
X142692651Y-138232074D01*
X143358701Y-139548002D01*
X143464606Y-139878802D01*
X143743776Y-141455323D01*
X144226132Y-141455323D01*
X144227996Y-141344964D01*
X143951675Y-139982198D01*
X143490334Y-138851784D01*
X142848231Y-137874475D01*
X142096118Y-137086392D01*
X141304750Y-136523658D01*
X140544881Y-136222395D01*
X139887266Y-136218725D01*
X139402657Y-136548772D01*
G36*
X148817967Y-136447094D02*
G01*
X147859179Y-136522269D01*
X146762171Y-136705313D01*
X146366608Y-136797184D01*
X145573301Y-137031474D01*
X145161948Y-137284276D01*
X144990180Y-137679116D01*
X144943224Y-138032181D01*
X144931594Y-139174188D01*
X145152897Y-139881207D01*
X145597259Y-140128657D01*
X145777354Y-140108529D01*
X146467373Y-139952149D01*
X147235555Y-139778926D01*
X147900186Y-139708757D01*
X148104503Y-139884305D01*
X147883149Y-140135866D01*
X147616372Y-140185095D01*
X146950311Y-140427597D01*
X146375331Y-141057304D01*
X145952659Y-141927519D01*
X145743525Y-142891543D01*
X145809157Y-143802680D01*
X145952585Y-144171385D01*
X146673404Y-144988823D01*
X147734823Y-145531524D01*
X148998308Y-145762189D01*
X150325324Y-145643514D01*
X150845573Y-145488893D01*
X151510396Y-144996102D01*
X151606494Y-144739183D01*
X151312924Y-144739183D01*
X151072998Y-144955146D01*
X150461208Y-145123810D01*
X149639533Y-145228757D01*
X148769953Y-145253570D01*
X148014448Y-145181832D01*
X147725317Y-145102805D01*
X147314340Y-144868574D01*
X147349128Y-144712180D01*
X147741165Y-144689400D01*
X148216185Y-144793491D01*
X149392054Y-144933407D01*
X150221448Y-144796894D01*
X150887772Y-144673681D01*
X151274049Y-144691125D01*
X151312924Y-144739183D01*
X151606494Y-144739183D01*
X151798154Y-144226779D01*
X151696309Y-143573957D01*
X151314554Y-143573957D01*
X151101269Y-143982907D01*
X150845029Y-144189776D01*
X150164353Y-144384962D01*
X149215470Y-144402807D01*
X148216191Y-144267240D01*
X147384323Y-144002196D01*
X147035999Y-143771254D01*
X146472184Y-142892937D01*
X146380849Y-141997487D01*
X146717180Y-141203245D01*
X147436366Y-140628554D01*
X148312069Y-140401341D01*
X148963728Y-140309770D01*
X149232699Y-140079134D01*
X149270759Y-139553238D01*
X149265058Y-139420598D01*
X149182998Y-138812945D01*
X148177308Y-138812945D01*
X147959939Y-138982110D01*
X147249303Y-139309377D01*
X146945994Y-139434893D01*
X146184881Y-139741845D01*
X145806805Y-139868361D01*
X145697753Y-139831192D01*
X145743708Y-139647085D01*
X145756315Y-139609659D01*
X146055790Y-139368777D01*
X146701544Y-139103258D01*
X147119766Y-138981471D01*
X147898289Y-138810019D01*
X148177308Y-138812945D01*
X149182998Y-138812945D01*
X149160511Y-138646434D01*
X148874250Y-138251974D01*
X148307830Y-138187846D01*
X147362802Y-138404680D01*
X147284971Y-138427606D01*
X146416232Y-138654135D01*
X145917917Y-138687357D01*
X145664523Y-138533962D01*
X145651611Y-138514678D01*
X145410907Y-137930070D01*
X145584958Y-137506680D01*
X146218190Y-137192986D01*
X146945937Y-137013585D01*
X148151061Y-136786932D01*
X148945849Y-136714624D01*
X149442187Y-136835987D01*
X149751958Y-137190347D01*
X149987046Y-137817029D01*
X150073828Y-138112990D01*
X150425916Y-139342208D01*
X150631173Y-140151053D01*
X150680677Y-140635797D01*
X150565506Y-140892715D01*
X150276738Y-141018080D01*
X149805451Y-141108165D01*
X149796104Y-141109897D01*
X148830183Y-141417443D01*
X148136829Y-141887832D01*
X147840211Y-142433394D01*
X147837134Y-142493002D01*
X148066731Y-142936365D01*
X148614362Y-143332053D01*
X149268285Y-143559711D01*
X149695622Y-143549372D01*
X150433395Y-143339690D01*
X150778187Y-143241814D01*
X151202913Y-143270948D01*
X151314554Y-143573957D01*
X151696309Y-143573957D01*
X151657957Y-143328129D01*
X151621681Y-143243898D01*
X151334994Y-142800056D01*
X150935601Y-142762646D01*
X150634553Y-142862562D01*
X149839613Y-143068332D01*
X149267974Y-143126147D01*
X148775821Y-143025612D01*
X148707056Y-142795779D01*
X149005698Y-142544303D01*
X149615765Y-142378842D01*
X149658984Y-142374204D01*
X150516842Y-142070014D01*
X150689610Y-141865945D01*
X148863509Y-141865945D01*
X148798455Y-142015363D01*
X148529244Y-142302395D01*
X148374474Y-142243515D01*
X148371871Y-142206137D01*
X148561777Y-141979993D01*
X148680550Y-141897458D01*
X148863509Y-141865945D01*
X150689610Y-141865945D01*
X150821789Y-141709820D01*
X150343880Y-141709820D01*
X149976082Y-141747089D01*
X149596517Y-141705072D01*
X149641871Y-141612232D01*
X150189267Y-141576919D01*
X150310292Y-141612232D01*
X150343880Y-141709820D01*
X150821789Y-141709820D01*
X151053625Y-141435983D01*
X151171177Y-140597591D01*
X151148396Y-140470154D01*
X150988126Y-139853686D01*
X150723287Y-138945109D01*
X150465419Y-138112990D01*
X149932484Y-136441937D01*
X148817967Y-136447094D01*
G37*
X148817967Y-136447094D02*
X147859179Y-136522269D01*
X146762171Y-136705313D01*
X146366608Y-136797184D01*
X145573301Y-137031474D01*
X145161948Y-137284276D01*
X144990180Y-137679116D01*
X144943224Y-138032181D01*
X144931594Y-139174188D01*
X145152897Y-139881207D01*
X145597259Y-140128657D01*
X145777354Y-140108529D01*
X146467373Y-139952149D01*
X147235555Y-139778926D01*
X147900186Y-139708757D01*
X148104503Y-139884305D01*
X147883149Y-140135866D01*
X147616372Y-140185095D01*
X146950311Y-140427597D01*
X146375331Y-141057304D01*
X145952659Y-141927519D01*
X145743525Y-142891543D01*
X145809157Y-143802680D01*
X145952585Y-144171385D01*
X146673404Y-144988823D01*
X147734823Y-145531524D01*
X148998308Y-145762189D01*
X150325324Y-145643514D01*
X150845573Y-145488893D01*
X151510396Y-144996102D01*
X151606494Y-144739183D01*
X151312924Y-144739183D01*
X151072998Y-144955146D01*
X150461208Y-145123810D01*
X149639533Y-145228757D01*
X148769953Y-145253570D01*
X148014448Y-145181832D01*
X147725317Y-145102805D01*
X147314340Y-144868574D01*
X147349128Y-144712180D01*
X147741165Y-144689400D01*
X148216185Y-144793491D01*
X149392054Y-144933407D01*
X150221448Y-144796894D01*
X150887772Y-144673681D01*
X151274049Y-144691125D01*
X151312924Y-144739183D01*
X151606494Y-144739183D01*
X151798154Y-144226779D01*
X151696309Y-143573957D01*
X151314554Y-143573957D01*
X151101269Y-143982907D01*
X150845029Y-144189776D01*
X150164353Y-144384962D01*
X149215470Y-144402807D01*
X148216191Y-144267240D01*
X147384323Y-144002196D01*
X147035999Y-143771254D01*
X146472184Y-142892937D01*
X146380849Y-141997487D01*
X146717180Y-141203245D01*
X147436366Y-140628554D01*
X148312069Y-140401341D01*
X148963728Y-140309770D01*
X149232699Y-140079134D01*
X149270759Y-139553238D01*
X149265058Y-139420598D01*
X149182998Y-138812945D01*
X148177308Y-138812945D01*
X147959939Y-138982110D01*
X147249303Y-139309377D01*
X146945994Y-139434893D01*
X146184881Y-139741845D01*
X145806805Y-139868361D01*
X145697753Y-139831192D01*
X145743708Y-139647085D01*
X145756315Y-139609659D01*
X146055790Y-139368777D01*
X146701544Y-139103258D01*
X147119766Y-138981471D01*
X147898289Y-138810019D01*
X148177308Y-138812945D01*
X149182998Y-138812945D01*
X149160511Y-138646434D01*
X148874250Y-138251974D01*
X148307830Y-138187846D01*
X147362802Y-138404680D01*
X147284971Y-138427606D01*
X146416232Y-138654135D01*
X145917917Y-138687357D01*
X145664523Y-138533962D01*
X145651611Y-138514678D01*
X145410907Y-137930070D01*
X145584958Y-137506680D01*
X146218190Y-137192986D01*
X146945937Y-137013585D01*
X148151061Y-136786932D01*
X148945849Y-136714624D01*
X149442187Y-136835987D01*
X149751958Y-137190347D01*
X149987046Y-137817029D01*
X150073828Y-138112990D01*
X150425916Y-139342208D01*
X150631173Y-140151053D01*
X150680677Y-140635797D01*
X150565506Y-140892715D01*
X150276738Y-141018080D01*
X149805451Y-141108165D01*
X149796104Y-141109897D01*
X148830183Y-141417443D01*
X148136829Y-141887832D01*
X147840211Y-142433394D01*
X147837134Y-142493002D01*
X148066731Y-142936365D01*
X148614362Y-143332053D01*
X149268285Y-143559711D01*
X149695622Y-143549372D01*
X150433395Y-143339690D01*
X150778187Y-143241814D01*
X151202913Y-143270948D01*
X151314554Y-143573957D01*
X151696309Y-143573957D01*
X151657957Y-143328129D01*
X151621681Y-143243898D01*
X151334994Y-142800056D01*
X150935601Y-142762646D01*
X150634553Y-142862562D01*
X149839613Y-143068332D01*
X149267974Y-143126147D01*
X148775821Y-143025612D01*
X148707056Y-142795779D01*
X149005698Y-142544303D01*
X149615765Y-142378842D01*
X149658984Y-142374204D01*
X150516842Y-142070014D01*
X150689610Y-141865945D01*
X148863509Y-141865945D01*
X148798455Y-142015363D01*
X148529244Y-142302395D01*
X148374474Y-142243515D01*
X148371871Y-142206137D01*
X148561777Y-141979993D01*
X148680550Y-141897458D01*
X148863509Y-141865945D01*
X150689610Y-141865945D01*
X150821789Y-141709820D01*
X150343880Y-141709820D01*
X149976082Y-141747089D01*
X149596517Y-141705072D01*
X149641871Y-141612232D01*
X150189267Y-141576919D01*
X150310292Y-141612232D01*
X150343880Y-141709820D01*
X150821789Y-141709820D01*
X151053625Y-141435983D01*
X151171177Y-140597591D01*
X151148396Y-140470154D01*
X150988126Y-139853686D01*
X150723287Y-138945109D01*
X150465419Y-138112990D01*
X149932484Y-136441937D01*
X148817967Y-136447094D01*
G36*
X136944861Y-94823253D02*
G01*
X136537987Y-95359341D01*
X136244220Y-96117513D01*
X136142249Y-96942358D01*
X136151860Y-97102318D01*
X136390277Y-97771856D01*
X136841965Y-98073526D01*
X137355236Y-97962614D01*
X137701682Y-97559197D01*
X137906191Y-96879371D01*
X137940846Y-96068631D01*
X137905018Y-95832817D01*
X137647029Y-95832817D01*
X137609867Y-96479530D01*
X137420612Y-97169659D01*
X137196829Y-97689119D01*
X137045893Y-97748614D01*
X137012215Y-97686871D01*
X136635425Y-97686871D01*
X136501740Y-97820556D01*
X136368056Y-97686871D01*
X136501740Y-97553187D01*
X136635425Y-97686871D01*
X137012215Y-97686871D01*
X136848822Y-97387324D01*
X136836980Y-97361838D01*
X136715348Y-96799894D01*
X136954462Y-96193996D01*
X137063396Y-96024996D01*
X137405129Y-95554525D01*
X137566121Y-95504439D01*
X137647029Y-95832817D01*
X137905018Y-95832817D01*
X137825627Y-95310288D01*
X137580518Y-94787654D01*
X137386152Y-94664657D01*
X136944861Y-94823253D01*
G37*
X136944861Y-94823253D02*
X136537987Y-95359341D01*
X136244220Y-96117513D01*
X136142249Y-96942358D01*
X136151860Y-97102318D01*
X136390277Y-97771856D01*
X136841965Y-98073526D01*
X137355236Y-97962614D01*
X137701682Y-97559197D01*
X137906191Y-96879371D01*
X137940846Y-96068631D01*
X137905018Y-95832817D01*
X137647029Y-95832817D01*
X137609867Y-96479530D01*
X137420612Y-97169659D01*
X137196829Y-97689119D01*
X137045893Y-97748614D01*
X137012215Y-97686871D01*
X136635425Y-97686871D01*
X136501740Y-97820556D01*
X136368056Y-97686871D01*
X136501740Y-97553187D01*
X136635425Y-97686871D01*
X137012215Y-97686871D01*
X136848822Y-97387324D01*
X136836980Y-97361838D01*
X136715348Y-96799894D01*
X136954462Y-96193996D01*
X137063396Y-96024996D01*
X137405129Y-95554525D01*
X137566121Y-95504439D01*
X137647029Y-95832817D01*
X137905018Y-95832817D01*
X137825627Y-95310288D01*
X137580518Y-94787654D01*
X137386152Y-94664657D01*
X136944861Y-94823253D01*
G36*
X159704495Y-94765901D02*
G01*
X159220971Y-95131851D01*
X159094372Y-95448616D01*
X159311860Y-95864724D01*
X159812864Y-96265905D01*
X160370196Y-96478729D01*
X160450312Y-96483714D01*
X160807504Y-96371150D01*
X160950821Y-95941870D01*
X160955076Y-95831072D01*
X160163846Y-95831072D01*
X160034228Y-96107813D01*
X159896477Y-96082661D01*
X159639308Y-95740842D01*
X159629109Y-95665829D01*
X159833042Y-95421441D01*
X159896477Y-95414240D01*
X160131123Y-95631868D01*
X160163846Y-95831072D01*
X160955076Y-95831072D01*
X160965951Y-95547924D01*
X160927181Y-95082949D01*
X160315251Y-95082949D01*
X160052442Y-95125763D01*
X159705661Y-95076606D01*
X159701521Y-94985336D01*
X160059364Y-94921511D01*
X160213977Y-94964228D01*
X160315251Y-95082949D01*
X160927181Y-95082949D01*
X160912910Y-94911802D01*
X160686600Y-94652122D01*
X160351004Y-94612135D01*
X159704495Y-94765901D01*
G37*
X159704495Y-94765901D02*
X159220971Y-95131851D01*
X159094372Y-95448616D01*
X159311860Y-95864724D01*
X159812864Y-96265905D01*
X160370196Y-96478729D01*
X160450312Y-96483714D01*
X160807504Y-96371150D01*
X160950821Y-95941870D01*
X160955076Y-95831072D01*
X160163846Y-95831072D01*
X160034228Y-96107813D01*
X159896477Y-96082661D01*
X159639308Y-95740842D01*
X159629109Y-95665829D01*
X159833042Y-95421441D01*
X159896477Y-95414240D01*
X160131123Y-95631868D01*
X160163846Y-95831072D01*
X160955076Y-95831072D01*
X160965951Y-95547924D01*
X160927181Y-95082949D01*
X160315251Y-95082949D01*
X160052442Y-95125763D01*
X159705661Y-95076606D01*
X159701521Y-94985336D01*
X160059364Y-94921511D01*
X160213977Y-94964228D01*
X160315251Y-95082949D01*
X160927181Y-95082949D01*
X160912910Y-94911802D01*
X160686600Y-94652122D01*
X160351004Y-94612135D01*
X159704495Y-94765901D01*
G36*
X142452877Y-94394668D02*
G01*
X141738536Y-94602508D01*
X141493652Y-94966238D01*
X141612017Y-95574629D01*
X142060044Y-96142341D01*
X142658311Y-96465072D01*
X142826337Y-96483714D01*
X143150362Y-96379101D01*
X143294060Y-95977055D01*
X143307093Y-95681608D01*
X143010051Y-95681608D01*
X142968033Y-96061173D01*
X142875194Y-96015819D01*
X142845009Y-95547924D01*
X142517530Y-95547924D01*
X142373159Y-95903730D01*
X142250161Y-95948977D01*
X142012958Y-95732420D01*
X141982793Y-95547924D01*
X142127164Y-95192118D01*
X142250161Y-95146871D01*
X142487365Y-95363428D01*
X142517530Y-95547924D01*
X142845009Y-95547924D01*
X142839880Y-95468423D01*
X142875194Y-95347398D01*
X142972781Y-95313810D01*
X143010051Y-95681608D01*
X143307093Y-95681608D01*
X143319635Y-95397300D01*
X143294782Y-94708285D01*
X143139035Y-94413060D01*
X142730614Y-94370753D01*
X142452877Y-94394668D01*
G37*
X142452877Y-94394668D02*
X141738536Y-94602508D01*
X141493652Y-94966238D01*
X141612017Y-95574629D01*
X142060044Y-96142341D01*
X142658311Y-96465072D01*
X142826337Y-96483714D01*
X143150362Y-96379101D01*
X143294060Y-95977055D01*
X143307093Y-95681608D01*
X143010051Y-95681608D01*
X142968033Y-96061173D01*
X142875194Y-96015819D01*
X142845009Y-95547924D01*
X142517530Y-95547924D01*
X142373159Y-95903730D01*
X142250161Y-95948977D01*
X142012958Y-95732420D01*
X141982793Y-95547924D01*
X142127164Y-95192118D01*
X142250161Y-95146871D01*
X142487365Y-95363428D01*
X142517530Y-95547924D01*
X142845009Y-95547924D01*
X142839880Y-95468423D01*
X142875194Y-95347398D01*
X142972781Y-95313810D01*
X143010051Y-95681608D01*
X143307093Y-95681608D01*
X143319635Y-95397300D01*
X143294782Y-94708285D01*
X143139035Y-94413060D01*
X142730614Y-94370753D01*
X142452877Y-94394668D01*
G36*
X136667183Y-93525665D02*
G01*
X135932365Y-94197402D01*
X135323756Y-95326850D01*
X135031945Y-96213630D01*
X134904282Y-97417970D01*
X135133574Y-98525471D01*
X135647854Y-99455878D01*
X136375156Y-100128936D01*
X137243513Y-100464389D01*
X138180961Y-100381981D01*
X138598897Y-100191436D01*
X139203538Y-99559668D01*
X139614031Y-98570385D01*
X139773103Y-97577335D01*
X139523621Y-97577335D01*
X139487876Y-97955246D01*
X139275605Y-98554600D01*
X138979323Y-99172338D01*
X138691541Y-99605400D01*
X138560122Y-99692135D01*
X138524300Y-99480039D01*
X138700540Y-98938936D01*
X138880689Y-98538009D01*
X139218512Y-97910107D01*
X139459491Y-97583085D01*
X139523621Y-97577335D01*
X139773103Y-97577335D01*
X139805801Y-97373210D01*
X139777039Y-96672464D01*
X139049036Y-96672464D01*
X138875147Y-97673169D01*
X138507639Y-98543769D01*
X137994088Y-99208688D01*
X137382074Y-99592352D01*
X136719175Y-99619187D01*
X136052967Y-99213616D01*
X135852725Y-98987657D01*
X135386227Y-97976744D01*
X135363702Y-96747619D01*
X135784187Y-95378671D01*
X135900161Y-95136682D01*
X136338475Y-94385348D01*
X136765806Y-94006113D01*
X137337469Y-93862856D01*
X137355642Y-93861054D01*
X138001638Y-93886761D01*
X138411939Y-94217957D01*
X138625642Y-94583039D01*
X138981727Y-95617229D01*
X139049036Y-96672464D01*
X139777039Y-96672464D01*
X139754271Y-96117764D01*
X139452415Y-94994977D01*
X138934096Y-94235222D01*
X138185370Y-93679597D01*
X137371807Y-93415446D01*
X136667183Y-93525665D01*
G37*
X136667183Y-93525665D02*
X135932365Y-94197402D01*
X135323756Y-95326850D01*
X135031945Y-96213630D01*
X134904282Y-97417970D01*
X135133574Y-98525471D01*
X135647854Y-99455878D01*
X136375156Y-100128936D01*
X137243513Y-100464389D01*
X138180961Y-100381981D01*
X138598897Y-100191436D01*
X139203538Y-99559668D01*
X139614031Y-98570385D01*
X139773103Y-97577335D01*
X139523621Y-97577335D01*
X139487876Y-97955246D01*
X139275605Y-98554600D01*
X138979323Y-99172338D01*
X138691541Y-99605400D01*
X138560122Y-99692135D01*
X138524300Y-99480039D01*
X138700540Y-98938936D01*
X138880689Y-98538009D01*
X139218512Y-97910107D01*
X139459491Y-97583085D01*
X139523621Y-97577335D01*
X139773103Y-97577335D01*
X139805801Y-97373210D01*
X139777039Y-96672464D01*
X139049036Y-96672464D01*
X138875147Y-97673169D01*
X138507639Y-98543769D01*
X137994088Y-99208688D01*
X137382074Y-99592352D01*
X136719175Y-99619187D01*
X136052967Y-99213616D01*
X135852725Y-98987657D01*
X135386227Y-97976744D01*
X135363702Y-96747619D01*
X135784187Y-95378671D01*
X135900161Y-95136682D01*
X136338475Y-94385348D01*
X136765806Y-94006113D01*
X137337469Y-93862856D01*
X137355642Y-93861054D01*
X138001638Y-93886761D01*
X138411939Y-94217957D01*
X138625642Y-94583039D01*
X138981727Y-95617229D01*
X139049036Y-96672464D01*
X139777039Y-96672464D01*
X139754271Y-96117764D01*
X139452415Y-94994977D01*
X138934096Y-94235222D01*
X138185370Y-93679597D01*
X137371807Y-93415446D01*
X136667183Y-93525665D01*
G36*
X129311550Y-93571130D02*
G01*
X129029502Y-93787251D01*
X128940606Y-94140597D01*
X128818781Y-94904033D01*
X128681905Y-95955333D01*
X128579840Y-96861877D01*
X128453030Y-98213702D01*
X128410801Y-99132684D01*
X128454169Y-99714147D01*
X128584149Y-100053415D01*
X128614280Y-100093076D01*
X129041987Y-100336868D01*
X129709506Y-100472593D01*
X130431102Y-100495614D01*
X131021040Y-100401294D01*
X131293587Y-100184997D01*
X131296187Y-100160029D01*
X131404298Y-100073676D01*
X131576841Y-100293714D01*
X132093974Y-100668806D01*
X132766774Y-100761608D01*
X133429233Y-100686451D01*
X133739532Y-100395922D01*
X133811319Y-100160029D01*
X133904057Y-99613085D01*
X134027625Y-98756345D01*
X133642249Y-98756345D01*
X133613349Y-99212963D01*
X133529651Y-99253165D01*
X133518995Y-99229328D01*
X133466104Y-98698552D01*
X133509088Y-98427223D01*
X133594196Y-98318190D01*
X133640486Y-98673316D01*
X133642249Y-98756345D01*
X134027625Y-98756345D01*
X134034041Y-98711867D01*
X134176023Y-97633176D01*
X134202674Y-97419503D01*
X134322990Y-96273454D01*
X134328684Y-95970973D01*
X134025415Y-95970973D01*
X134007565Y-96216345D01*
X133920332Y-96885736D01*
X133826344Y-97258359D01*
X133799973Y-97285819D01*
X133733810Y-97048334D01*
X133697044Y-96455153D01*
X133694372Y-96216345D01*
X133740440Y-95546469D01*
X133855515Y-95174042D01*
X133901964Y-95146871D01*
X134009081Y-95382304D01*
X134025415Y-95970973D01*
X134328684Y-95970973D01*
X134337283Y-95514215D01*
X134265309Y-95139730D01*
X133250738Y-95139730D01*
X133241747Y-95975164D01*
X133233773Y-96216345D01*
X133158022Y-97696705D01*
X133037727Y-98713319D01*
X132854913Y-99336514D01*
X132591605Y-99636622D01*
X132345415Y-99692135D01*
X131918803Y-99549818D01*
X131824284Y-99357924D01*
X131893058Y-98897230D01*
X131931752Y-98732316D01*
X131486834Y-98732316D01*
X131460084Y-99012990D01*
X131258776Y-99477439D01*
X131009752Y-99867739D01*
X130883329Y-99959503D01*
X130892315Y-99751868D01*
X131069851Y-99289952D01*
X131324623Y-98841429D01*
X131486834Y-98732316D01*
X131931752Y-98732316D01*
X132061320Y-98180107D01*
X132108621Y-98005144D01*
X132301718Y-97124773D01*
X132276242Y-96724584D01*
X132057301Y-96808769D01*
X131669998Y-97381523D01*
X131403666Y-97887398D01*
X130945892Y-98744053D01*
X130579516Y-99212259D01*
X130199012Y-99400725D01*
X129911296Y-99424766D01*
X129309276Y-99328503D01*
X129001462Y-99134806D01*
X128937533Y-98735670D01*
X128936278Y-97965232D01*
X128985423Y-96981651D01*
X129072691Y-95943082D01*
X129185805Y-95007684D01*
X129312490Y-94333613D01*
X129390797Y-94118949D01*
X129775230Y-93924269D01*
X130054380Y-93968999D01*
X130313079Y-94151316D01*
X130416641Y-94526234D01*
X130389007Y-95232002D01*
X130345314Y-95649108D01*
X130225746Y-96576516D01*
X130101930Y-97343192D01*
X130034940Y-97651662D01*
X130038477Y-98024686D01*
X130239709Y-98036321D01*
X130510077Y-97747418D01*
X130891669Y-97098294D01*
X131303271Y-96227635D01*
X131315061Y-96199951D01*
X131674978Y-95414240D01*
X130978472Y-95414240D01*
X130936455Y-95793804D01*
X130843615Y-95748450D01*
X130808301Y-95201055D01*
X130843615Y-95080029D01*
X130941202Y-95046442D01*
X130978472Y-95414240D01*
X131674978Y-95414240D01*
X131743926Y-95263726D01*
X132087687Y-94734176D01*
X132426509Y-94509418D01*
X132669561Y-94478450D01*
X133003738Y-94511788D01*
X133184432Y-94692076D01*
X133250738Y-95139730D01*
X134265309Y-95139730D01*
X134239070Y-95003207D01*
X134074470Y-94678977D01*
X133532072Y-94237569D01*
X132791635Y-94061323D01*
X132067500Y-94161711D01*
X131576841Y-94545293D01*
X131360772Y-94791878D01*
X131296187Y-94698074D01*
X131070505Y-94186757D01*
X130542890Y-93779625D01*
X129895763Y-93549981D01*
X129311550Y-93571130D01*
G37*
X129311550Y-93571130D02*
X129029502Y-93787251D01*
X128940606Y-94140597D01*
X128818781Y-94904033D01*
X128681905Y-95955333D01*
X128579840Y-96861877D01*
X128453030Y-98213702D01*
X128410801Y-99132684D01*
X128454169Y-99714147D01*
X128584149Y-100053415D01*
X128614280Y-100093076D01*
X129041987Y-100336868D01*
X129709506Y-100472593D01*
X130431102Y-100495614D01*
X131021040Y-100401294D01*
X131293587Y-100184997D01*
X131296187Y-100160029D01*
X131404298Y-100073676D01*
X131576841Y-100293714D01*
X132093974Y-100668806D01*
X132766774Y-100761608D01*
X133429233Y-100686451D01*
X133739532Y-100395922D01*
X133811319Y-100160029D01*
X133904057Y-99613085D01*
X134027625Y-98756345D01*
X133642249Y-98756345D01*
X133613349Y-99212963D01*
X133529651Y-99253165D01*
X133518995Y-99229328D01*
X133466104Y-98698552D01*
X133509088Y-98427223D01*
X133594196Y-98318190D01*
X133640486Y-98673316D01*
X133642249Y-98756345D01*
X134027625Y-98756345D01*
X134034041Y-98711867D01*
X134176023Y-97633176D01*
X134202674Y-97419503D01*
X134322990Y-96273454D01*
X134328684Y-95970973D01*
X134025415Y-95970973D01*
X134007565Y-96216345D01*
X133920332Y-96885736D01*
X133826344Y-97258359D01*
X133799973Y-97285819D01*
X133733810Y-97048334D01*
X133697044Y-96455153D01*
X133694372Y-96216345D01*
X133740440Y-95546469D01*
X133855515Y-95174042D01*
X133901964Y-95146871D01*
X134009081Y-95382304D01*
X134025415Y-95970973D01*
X134328684Y-95970973D01*
X134337283Y-95514215D01*
X134265309Y-95139730D01*
X133250738Y-95139730D01*
X133241747Y-95975164D01*
X133233773Y-96216345D01*
X133158022Y-97696705D01*
X133037727Y-98713319D01*
X132854913Y-99336514D01*
X132591605Y-99636622D01*
X132345415Y-99692135D01*
X131918803Y-99549818D01*
X131824284Y-99357924D01*
X131893058Y-98897230D01*
X131931752Y-98732316D01*
X131486834Y-98732316D01*
X131460084Y-99012990D01*
X131258776Y-99477439D01*
X131009752Y-99867739D01*
X130883329Y-99959503D01*
X130892315Y-99751868D01*
X131069851Y-99289952D01*
X131324623Y-98841429D01*
X131486834Y-98732316D01*
X131931752Y-98732316D01*
X132061320Y-98180107D01*
X132108621Y-98005144D01*
X132301718Y-97124773D01*
X132276242Y-96724584D01*
X132057301Y-96808769D01*
X131669998Y-97381523D01*
X131403666Y-97887398D01*
X130945892Y-98744053D01*
X130579516Y-99212259D01*
X130199012Y-99400725D01*
X129911296Y-99424766D01*
X129309276Y-99328503D01*
X129001462Y-99134806D01*
X128937533Y-98735670D01*
X128936278Y-97965232D01*
X128985423Y-96981651D01*
X129072691Y-95943082D01*
X129185805Y-95007684D01*
X129312490Y-94333613D01*
X129390797Y-94118949D01*
X129775230Y-93924269D01*
X130054380Y-93968999D01*
X130313079Y-94151316D01*
X130416641Y-94526234D01*
X130389007Y-95232002D01*
X130345314Y-95649108D01*
X130225746Y-96576516D01*
X130101930Y-97343192D01*
X130034940Y-97651662D01*
X130038477Y-98024686D01*
X130239709Y-98036321D01*
X130510077Y-97747418D01*
X130891669Y-97098294D01*
X131303271Y-96227635D01*
X131315061Y-96199951D01*
X131674978Y-95414240D01*
X130978472Y-95414240D01*
X130936455Y-95793804D01*
X130843615Y-95748450D01*
X130808301Y-95201055D01*
X130843615Y-95080029D01*
X130941202Y-95046442D01*
X130978472Y-95414240D01*
X131674978Y-95414240D01*
X131743926Y-95263726D01*
X132087687Y-94734176D01*
X132426509Y-94509418D01*
X132669561Y-94478450D01*
X133003738Y-94511788D01*
X133184432Y-94692076D01*
X133250738Y-95139730D01*
X134265309Y-95139730D01*
X134239070Y-95003207D01*
X134074470Y-94678977D01*
X133532072Y-94237569D01*
X132791635Y-94061323D01*
X132067500Y-94161711D01*
X131576841Y-94545293D01*
X131360772Y-94791878D01*
X131296187Y-94698074D01*
X131070505Y-94186757D01*
X130542890Y-93779625D01*
X129895763Y-93549981D01*
X129311550Y-93571130D01*
G36*
X146703159Y-93466719D02*
G01*
X146445173Y-93667285D01*
X146394386Y-94191938D01*
X146394372Y-94211082D01*
X146462386Y-94757644D01*
X146767906Y-95059837D01*
X147397004Y-95260868D01*
X148130608Y-95505399D01*
X148367057Y-95735175D01*
X148095261Y-95919619D01*
X147664372Y-95998060D01*
X147040985Y-96253973D01*
X146801360Y-96720148D01*
X146970087Y-97222825D01*
X147445306Y-97546139D01*
X148025231Y-97844370D01*
X148109617Y-98075363D01*
X147736801Y-98202213D01*
X146945122Y-98188013D01*
X146795425Y-98171769D01*
X145458583Y-98013440D01*
X145458583Y-98951239D01*
X145485556Y-99477589D01*
X145647511Y-99803366D01*
X146065998Y-100035984D01*
X146862567Y-100282859D01*
X147013491Y-100325323D01*
X148199180Y-100637909D01*
X148979996Y-100754406D01*
X149460661Y-100640768D01*
X149745897Y-100262948D01*
X149940425Y-99586902D01*
X149989099Y-99357924D01*
X150020886Y-99157398D01*
X149736477Y-99157398D01*
X149638651Y-99377472D01*
X149558232Y-99335643D01*
X149526233Y-99018340D01*
X149558232Y-98979152D01*
X149717182Y-99015854D01*
X149736477Y-99157398D01*
X150020886Y-99157398D01*
X150154352Y-98315452D01*
X150221674Y-97664591D01*
X149982738Y-97664591D01*
X149933580Y-98011372D01*
X149842311Y-98015512D01*
X149778485Y-97657668D01*
X149821203Y-97503056D01*
X149939923Y-97401782D01*
X149982738Y-97664591D01*
X150221674Y-97664591D01*
X150285149Y-97050941D01*
X150342265Y-96089776D01*
X150399362Y-94390091D01*
X149922529Y-94390091D01*
X149557933Y-96706902D01*
X149348566Y-98045501D01*
X149176659Y-98933592D01*
X148976518Y-99445362D01*
X148682452Y-99654995D01*
X148228767Y-99636678D01*
X147549769Y-99464596D01*
X147200314Y-99369313D01*
X146378315Y-99076478D01*
X146003081Y-98800537D01*
X146081133Y-98608285D01*
X146618989Y-98566518D01*
X147128606Y-98634696D01*
X147990941Y-98713152D01*
X148464683Y-98507333D01*
X148648531Y-97953163D01*
X148662909Y-97638625D01*
X148470966Y-97125544D01*
X148086367Y-96970204D01*
X147575582Y-96766804D01*
X147396461Y-96552943D01*
X147475877Y-96343244D01*
X147972486Y-96359987D01*
X148110782Y-96385838D01*
X148680633Y-96455727D01*
X148899681Y-96256180D01*
X148934372Y-95725335D01*
X148873672Y-95178466D01*
X148593292Y-94865890D01*
X147945814Y-94634160D01*
X147864898Y-94612135D01*
X147199860Y-94354282D01*
X146825544Y-94056318D01*
X146795425Y-93963263D01*
X146879856Y-93781160D01*
X147205588Y-93752589D01*
X147881272Y-93879842D01*
X148358977Y-93996231D01*
X149922529Y-94390091D01*
X150399362Y-94390091D01*
X150404898Y-94225313D01*
X149335425Y-93868603D01*
X148388346Y-93618813D01*
X147454134Y-93469537D01*
X147330161Y-93460435D01*
X146703159Y-93466719D01*
G37*
X146703159Y-93466719D02*
X146445173Y-93667285D01*
X146394386Y-94191938D01*
X146394372Y-94211082D01*
X146462386Y-94757644D01*
X146767906Y-95059837D01*
X147397004Y-95260868D01*
X148130608Y-95505399D01*
X148367057Y-95735175D01*
X148095261Y-95919619D01*
X147664372Y-95998060D01*
X147040985Y-96253973D01*
X146801360Y-96720148D01*
X146970087Y-97222825D01*
X147445306Y-97546139D01*
X148025231Y-97844370D01*
X148109617Y-98075363D01*
X147736801Y-98202213D01*
X146945122Y-98188013D01*
X146795425Y-98171769D01*
X145458583Y-98013440D01*
X145458583Y-98951239D01*
X145485556Y-99477589D01*
X145647511Y-99803366D01*
X146065998Y-100035984D01*
X146862567Y-100282859D01*
X147013491Y-100325323D01*
X148199180Y-100637909D01*
X148979996Y-100754406D01*
X149460661Y-100640768D01*
X149745897Y-100262948D01*
X149940425Y-99586902D01*
X149989099Y-99357924D01*
X150020886Y-99157398D01*
X149736477Y-99157398D01*
X149638651Y-99377472D01*
X149558232Y-99335643D01*
X149526233Y-99018340D01*
X149558232Y-98979152D01*
X149717182Y-99015854D01*
X149736477Y-99157398D01*
X150020886Y-99157398D01*
X150154352Y-98315452D01*
X150221674Y-97664591D01*
X149982738Y-97664591D01*
X149933580Y-98011372D01*
X149842311Y-98015512D01*
X149778485Y-97657668D01*
X149821203Y-97503056D01*
X149939923Y-97401782D01*
X149982738Y-97664591D01*
X150221674Y-97664591D01*
X150285149Y-97050941D01*
X150342265Y-96089776D01*
X150399362Y-94390091D01*
X149922529Y-94390091D01*
X149557933Y-96706902D01*
X149348566Y-98045501D01*
X149176659Y-98933592D01*
X148976518Y-99445362D01*
X148682452Y-99654995D01*
X148228767Y-99636678D01*
X147549769Y-99464596D01*
X147200314Y-99369313D01*
X146378315Y-99076478D01*
X146003081Y-98800537D01*
X146081133Y-98608285D01*
X146618989Y-98566518D01*
X147128606Y-98634696D01*
X147990941Y-98713152D01*
X148464683Y-98507333D01*
X148648531Y-97953163D01*
X148662909Y-97638625D01*
X148470966Y-97125544D01*
X148086367Y-96970204D01*
X147575582Y-96766804D01*
X147396461Y-96552943D01*
X147475877Y-96343244D01*
X147972486Y-96359987D01*
X148110782Y-96385838D01*
X148680633Y-96455727D01*
X148899681Y-96256180D01*
X148934372Y-95725335D01*
X148873672Y-95178466D01*
X148593292Y-94865890D01*
X147945814Y-94634160D01*
X147864898Y-94612135D01*
X147199860Y-94354282D01*
X146825544Y-94056318D01*
X146795425Y-93963263D01*
X146879856Y-93781160D01*
X147205588Y-93752589D01*
X147881272Y-93879842D01*
X148358977Y-93996231D01*
X149922529Y-94390091D01*
X150399362Y-94390091D01*
X150404898Y-94225313D01*
X149335425Y-93868603D01*
X148388346Y-93618813D01*
X147454134Y-93469537D01*
X147330161Y-93460435D01*
X146703159Y-93466719D01*
G36*
X154555494Y-93692851D02*
G01*
X153104717Y-93999672D01*
X152944898Y-94037109D01*
X151936350Y-94283918D01*
X151345487Y-94479555D01*
X151068672Y-94691867D01*
X151002270Y-94988703D01*
X151026578Y-95292973D01*
X151267098Y-96196546D01*
X151751481Y-96636522D01*
X152426420Y-96654251D01*
X152853610Y-96605123D01*
X153088207Y-96760012D01*
X153219538Y-97240376D01*
X153298401Y-97839882D01*
X153574836Y-99232071D01*
X154008754Y-100185139D01*
X154576758Y-100673916D01*
X155255448Y-100673230D01*
X155704649Y-100428437D01*
X155955152Y-100191532D01*
X156059889Y-99864492D01*
X156043207Y-99558450D01*
X155885951Y-99558450D01*
X155752267Y-99692135D01*
X155618583Y-99558450D01*
X155752267Y-99424766D01*
X155885951Y-99558450D01*
X156043207Y-99558450D01*
X156029430Y-99305704D01*
X155915789Y-98622661D01*
X155555315Y-98622661D01*
X155541099Y-99021373D01*
X155474369Y-98942301D01*
X155351214Y-98488977D01*
X155198917Y-97665840D01*
X155147113Y-97018450D01*
X155161329Y-96619739D01*
X155228059Y-96698810D01*
X155351214Y-97152135D01*
X155503511Y-97975271D01*
X155555315Y-98622661D01*
X155915789Y-98622661D01*
X155874344Y-98373555D01*
X155862733Y-98310402D01*
X155683795Y-97068259D01*
X155702666Y-96261028D01*
X155796369Y-96082661D01*
X155083846Y-96082661D01*
X154950161Y-96216345D01*
X154816477Y-96082661D01*
X154950161Y-95948977D01*
X155083846Y-96082661D01*
X155796369Y-96082661D01*
X155933642Y-95821361D01*
X156391017Y-95681908D01*
X156420688Y-95681608D01*
X156972334Y-95495451D01*
X157138487Y-94956852D01*
X157045830Y-94565211D01*
X156387500Y-94565211D01*
X156220152Y-94827538D01*
X155606414Y-95007364D01*
X155484898Y-95030828D01*
X154974745Y-95155416D01*
X154680073Y-95366065D01*
X154574206Y-95770858D01*
X154630465Y-96477879D01*
X154822175Y-97595211D01*
X154834922Y-97664244D01*
X154967046Y-98565336D01*
X155010779Y-99283405D01*
X154976998Y-99584928D01*
X154687885Y-99949416D01*
X154337808Y-99841592D01*
X153993141Y-99308497D01*
X153802457Y-98752508D01*
X153598108Y-97768608D01*
X153486602Y-96804102D01*
X153479635Y-96578357D01*
X153479635Y-95611200D01*
X152410161Y-95754646D01*
X151725470Y-95815932D01*
X151418218Y-95711603D01*
X151341418Y-95380547D01*
X151340688Y-95309985D01*
X151394486Y-95014902D01*
X151622531Y-94792375D01*
X152124798Y-94596158D01*
X153001261Y-94380007D01*
X153649574Y-94241992D01*
X154795776Y-94018867D01*
X155528021Y-93923088D01*
X155950450Y-93949657D01*
X156167207Y-94093574D01*
X156185479Y-94120279D01*
X156387500Y-94565211D01*
X157045830Y-94565211D01*
X156972955Y-94257189D01*
X156715510Y-93838569D01*
X156280427Y-93607903D01*
X155587243Y-93560796D01*
X154555494Y-93692851D01*
G37*
X154555494Y-93692851D02*
X153104717Y-93999672D01*
X152944898Y-94037109D01*
X151936350Y-94283918D01*
X151345487Y-94479555D01*
X151068672Y-94691867D01*
X151002270Y-94988703D01*
X151026578Y-95292973D01*
X151267098Y-96196546D01*
X151751481Y-96636522D01*
X152426420Y-96654251D01*
X152853610Y-96605123D01*
X153088207Y-96760012D01*
X153219538Y-97240376D01*
X153298401Y-97839882D01*
X153574836Y-99232071D01*
X154008754Y-100185139D01*
X154576758Y-100673916D01*
X155255448Y-100673230D01*
X155704649Y-100428437D01*
X155955152Y-100191532D01*
X156059889Y-99864492D01*
X156043207Y-99558450D01*
X155885951Y-99558450D01*
X155752267Y-99692135D01*
X155618583Y-99558450D01*
X155752267Y-99424766D01*
X155885951Y-99558450D01*
X156043207Y-99558450D01*
X156029430Y-99305704D01*
X155915789Y-98622661D01*
X155555315Y-98622661D01*
X155541099Y-99021373D01*
X155474369Y-98942301D01*
X155351214Y-98488977D01*
X155198917Y-97665840D01*
X155147113Y-97018450D01*
X155161329Y-96619739D01*
X155228059Y-96698810D01*
X155351214Y-97152135D01*
X155503511Y-97975271D01*
X155555315Y-98622661D01*
X155915789Y-98622661D01*
X155874344Y-98373555D01*
X155862733Y-98310402D01*
X155683795Y-97068259D01*
X155702666Y-96261028D01*
X155796369Y-96082661D01*
X155083846Y-96082661D01*
X154950161Y-96216345D01*
X154816477Y-96082661D01*
X154950161Y-95948977D01*
X155083846Y-96082661D01*
X155796369Y-96082661D01*
X155933642Y-95821361D01*
X156391017Y-95681908D01*
X156420688Y-95681608D01*
X156972334Y-95495451D01*
X157138487Y-94956852D01*
X157045830Y-94565211D01*
X156387500Y-94565211D01*
X156220152Y-94827538D01*
X155606414Y-95007364D01*
X155484898Y-95030828D01*
X154974745Y-95155416D01*
X154680073Y-95366065D01*
X154574206Y-95770858D01*
X154630465Y-96477879D01*
X154822175Y-97595211D01*
X154834922Y-97664244D01*
X154967046Y-98565336D01*
X155010779Y-99283405D01*
X154976998Y-99584928D01*
X154687885Y-99949416D01*
X154337808Y-99841592D01*
X153993141Y-99308497D01*
X153802457Y-98752508D01*
X153598108Y-97768608D01*
X153486602Y-96804102D01*
X153479635Y-96578357D01*
X153479635Y-95611200D01*
X152410161Y-95754646D01*
X151725470Y-95815932D01*
X151418218Y-95711603D01*
X151341418Y-95380547D01*
X151340688Y-95309985D01*
X151394486Y-95014902D01*
X151622531Y-94792375D01*
X152124798Y-94596158D01*
X153001261Y-94380007D01*
X153649574Y-94241992D01*
X154795776Y-94018867D01*
X155528021Y-93923088D01*
X155950450Y-93949657D01*
X156167207Y-94093574D01*
X156185479Y-94120279D01*
X156387500Y-94565211D01*
X157045830Y-94565211D01*
X156972955Y-94257189D01*
X156715510Y-93838569D01*
X156280427Y-93607903D01*
X155587243Y-93560796D01*
X154555494Y-93692851D01*
G36*
X159173048Y-93684933D02*
G01*
X158667470Y-93951595D01*
X158394056Y-94170697D01*
X157794209Y-94986424D01*
X157599963Y-95939010D01*
X157780748Y-96884080D01*
X158305995Y-97677257D01*
X159145138Y-98174166D01*
X159247734Y-98202656D01*
X159680740Y-98399585D01*
X159864621Y-98811784D01*
X159896477Y-99398677D01*
X159956591Y-100111721D01*
X160194099Y-100468193D01*
X160498056Y-100593090D01*
X161269773Y-100740115D01*
X161727769Y-100625409D01*
X161853645Y-100463057D01*
X161388578Y-100463057D01*
X161069765Y-100423803D01*
X160698583Y-100226871D01*
X160448029Y-100019228D01*
X160688845Y-99964503D01*
X160749645Y-99963597D01*
X161233078Y-100099839D01*
X161367004Y-100226871D01*
X161388578Y-100463057D01*
X161853645Y-100463057D01*
X162032430Y-100232466D01*
X162152244Y-99758950D01*
X162258690Y-98883752D01*
X162338863Y-97739929D01*
X162376048Y-96689835D01*
X162415839Y-94705479D01*
X162302793Y-94705479D01*
X162279978Y-95418575D01*
X162219979Y-96448563D01*
X162135467Y-97579927D01*
X162129876Y-97646532D01*
X162031103Y-98680485D01*
X161922696Y-99291275D01*
X161761322Y-99589412D01*
X161503649Y-99685406D01*
X161327771Y-99692135D01*
X160917002Y-99624467D01*
X160737536Y-99321456D01*
X160698583Y-98652417D01*
X160663393Y-98058258D01*
X159962449Y-98058258D01*
X159896477Y-98067984D01*
X159376899Y-97941915D01*
X158827004Y-97686871D01*
X158375453Y-97394783D01*
X158378937Y-97309926D01*
X158799248Y-97433001D01*
X159397886Y-97676406D01*
X159873420Y-97921977D01*
X159962449Y-98058258D01*
X160663393Y-98058258D01*
X160658100Y-97968896D01*
X160442048Y-97634653D01*
X159908523Y-97465292D01*
X159763459Y-97437268D01*
X158929748Y-97104386D01*
X158404859Y-96442926D01*
X158102567Y-95474928D01*
X158283789Y-94710739D01*
X158930435Y-94168866D01*
X160024417Y-93867814D01*
X160978531Y-93810029D01*
X161764913Y-93825722D01*
X162155281Y-93935334D01*
X162288357Y-94232668D01*
X162302793Y-94705479D01*
X162415839Y-94705479D01*
X162436477Y-93676345D01*
X160794295Y-93597494D01*
X159816652Y-93582503D01*
X159173048Y-93684933D01*
G37*
X159173048Y-93684933D02*
X158667470Y-93951595D01*
X158394056Y-94170697D01*
X157794209Y-94986424D01*
X157599963Y-95939010D01*
X157780748Y-96884080D01*
X158305995Y-97677257D01*
X159145138Y-98174166D01*
X159247734Y-98202656D01*
X159680740Y-98399585D01*
X159864621Y-98811784D01*
X159896477Y-99398677D01*
X159956591Y-100111721D01*
X160194099Y-100468193D01*
X160498056Y-100593090D01*
X161269773Y-100740115D01*
X161727769Y-100625409D01*
X161853645Y-100463057D01*
X161388578Y-100463057D01*
X161069765Y-100423803D01*
X160698583Y-100226871D01*
X160448029Y-100019228D01*
X160688845Y-99964503D01*
X160749645Y-99963597D01*
X161233078Y-100099839D01*
X161367004Y-100226871D01*
X161388578Y-100463057D01*
X161853645Y-100463057D01*
X162032430Y-100232466D01*
X162152244Y-99758950D01*
X162258690Y-98883752D01*
X162338863Y-97739929D01*
X162376048Y-96689835D01*
X162415839Y-94705479D01*
X162302793Y-94705479D01*
X162279978Y-95418575D01*
X162219979Y-96448563D01*
X162135467Y-97579927D01*
X162129876Y-97646532D01*
X162031103Y-98680485D01*
X161922696Y-99291275D01*
X161761322Y-99589412D01*
X161503649Y-99685406D01*
X161327771Y-99692135D01*
X160917002Y-99624467D01*
X160737536Y-99321456D01*
X160698583Y-98652417D01*
X160663393Y-98058258D01*
X159962449Y-98058258D01*
X159896477Y-98067984D01*
X159376899Y-97941915D01*
X158827004Y-97686871D01*
X158375453Y-97394783D01*
X158378937Y-97309926D01*
X158799248Y-97433001D01*
X159397886Y-97676406D01*
X159873420Y-97921977D01*
X159962449Y-98058258D01*
X160663393Y-98058258D01*
X160658100Y-97968896D01*
X160442048Y-97634653D01*
X159908523Y-97465292D01*
X159763459Y-97437268D01*
X158929748Y-97104386D01*
X158404859Y-96442926D01*
X158102567Y-95474928D01*
X158283789Y-94710739D01*
X158930435Y-94168866D01*
X160024417Y-93867814D01*
X160978531Y-93810029D01*
X161764913Y-93825722D01*
X162155281Y-93935334D01*
X162288357Y-94232668D01*
X162302793Y-94705479D01*
X162415839Y-94705479D01*
X162436477Y-93676345D01*
X160794295Y-93597494D01*
X159816652Y-93582503D01*
X159173048Y-93684933D01*
G36*
X142643995Y-93386942D02*
G01*
X141778269Y-93630540D01*
X141007807Y-94017144D01*
X140704937Y-94261474D01*
X140253536Y-94849710D01*
X140156730Y-95494290D01*
X140202515Y-95873274D01*
X140457858Y-96693686D01*
X140863180Y-97368894D01*
X140883291Y-97391000D01*
X141232204Y-97859651D01*
X141204745Y-98287089D01*
X141037038Y-98622661D01*
X140682660Y-99569445D01*
X140799528Y-100280521D01*
X141321281Y-100716108D01*
X141829780Y-100879763D01*
X142128682Y-100683183D01*
X142318201Y-100317997D01*
X142639791Y-99612185D01*
X142789760Y-100253739D01*
X143143469Y-100773446D01*
X143751467Y-100999473D01*
X144387840Y-100873403D01*
X144591513Y-100719625D01*
X144609053Y-100682123D01*
X144222170Y-100682123D01*
X143854372Y-100719392D01*
X143474808Y-100677375D01*
X143520161Y-100584535D01*
X144067557Y-100549222D01*
X144188583Y-100584535D01*
X144222170Y-100682123D01*
X144609053Y-100682123D01*
X144815363Y-100241034D01*
X144917414Y-99517762D01*
X144918071Y-99438135D01*
X144910354Y-99297952D01*
X144449416Y-99297952D01*
X144407831Y-99822099D01*
X144292207Y-100022251D01*
X143885961Y-100197760D01*
X143640519Y-100007941D01*
X143473131Y-99374606D01*
X143447631Y-99224240D01*
X143321375Y-98456077D01*
X143224605Y-97876742D01*
X143215001Y-97820556D01*
X143063876Y-97737068D01*
X142749394Y-98114055D01*
X142631226Y-98308469D01*
X142081019Y-99227294D01*
X141710413Y-99742970D01*
X141451979Y-99926605D01*
X141238290Y-99849307D01*
X141201970Y-99815734D01*
X141104632Y-99424095D01*
X141357323Y-98728845D01*
X141457260Y-98535656D01*
X141994634Y-97533033D01*
X141320292Y-96648926D01*
X140748549Y-95701303D01*
X140659448Y-94960054D01*
X141065201Y-94395669D01*
X141978018Y-93978634D01*
X142478979Y-93848459D01*
X143264302Y-93720623D01*
X143660520Y-93797205D01*
X143746256Y-93913931D01*
X143830510Y-94301060D01*
X143960360Y-95091957D01*
X144115975Y-96159671D01*
X144233167Y-97031081D01*
X144391664Y-98391352D01*
X144449416Y-99297952D01*
X144910354Y-99297952D01*
X144869893Y-98563035D01*
X144749352Y-97470223D01*
X144579277Y-96295700D01*
X144382501Y-95175471D01*
X144181854Y-94245538D01*
X144000167Y-93641903D01*
X143921758Y-93503100D01*
X143420115Y-93329934D01*
X142643995Y-93386942D01*
G37*
X142643995Y-93386942D02*
X141778269Y-93630540D01*
X141007807Y-94017144D01*
X140704937Y-94261474D01*
X140253536Y-94849710D01*
X140156730Y-95494290D01*
X140202515Y-95873274D01*
X140457858Y-96693686D01*
X140863180Y-97368894D01*
X140883291Y-97391000D01*
X141232204Y-97859651D01*
X141204745Y-98287089D01*
X141037038Y-98622661D01*
X140682660Y-99569445D01*
X140799528Y-100280521D01*
X141321281Y-100716108D01*
X141829780Y-100879763D01*
X142128682Y-100683183D01*
X142318201Y-100317997D01*
X142639791Y-99612185D01*
X142789760Y-100253739D01*
X143143469Y-100773446D01*
X143751467Y-100999473D01*
X144387840Y-100873403D01*
X144591513Y-100719625D01*
X144609053Y-100682123D01*
X144222170Y-100682123D01*
X143854372Y-100719392D01*
X143474808Y-100677375D01*
X143520161Y-100584535D01*
X144067557Y-100549222D01*
X144188583Y-100584535D01*
X144222170Y-100682123D01*
X144609053Y-100682123D01*
X144815363Y-100241034D01*
X144917414Y-99517762D01*
X144918071Y-99438135D01*
X144910354Y-99297952D01*
X144449416Y-99297952D01*
X144407831Y-99822099D01*
X144292207Y-100022251D01*
X143885961Y-100197760D01*
X143640519Y-100007941D01*
X143473131Y-99374606D01*
X143447631Y-99224240D01*
X143321375Y-98456077D01*
X143224605Y-97876742D01*
X143215001Y-97820556D01*
X143063876Y-97737068D01*
X142749394Y-98114055D01*
X142631226Y-98308469D01*
X142081019Y-99227294D01*
X141710413Y-99742970D01*
X141451979Y-99926605D01*
X141238290Y-99849307D01*
X141201970Y-99815734D01*
X141104632Y-99424095D01*
X141357323Y-98728845D01*
X141457260Y-98535656D01*
X141994634Y-97533033D01*
X141320292Y-96648926D01*
X140748549Y-95701303D01*
X140659448Y-94960054D01*
X141065201Y-94395669D01*
X141978018Y-93978634D01*
X142478979Y-93848459D01*
X143264302Y-93720623D01*
X143660520Y-93797205D01*
X143746256Y-93913931D01*
X143830510Y-94301060D01*
X143960360Y-95091957D01*
X144115975Y-96159671D01*
X144233167Y-97031081D01*
X144391664Y-98391352D01*
X144449416Y-99297952D01*
X144910354Y-99297952D01*
X144869893Y-98563035D01*
X144749352Y-97470223D01*
X144579277Y-96295700D01*
X144382501Y-95175471D01*
X144181854Y-94245538D01*
X144000167Y-93641903D01*
X143921758Y-93503100D01*
X143420115Y-93329934D01*
X142643995Y-93386942D01*
%TD*%
D11*
%TO.C,U1*%
X136608565Y-103361201D02*
X136608565Y-105013801D01*
X138261165Y-105013801D01*
X138261165Y-103361201D01*
X136608565Y-103361201D01*
X138261165Y-106727501D02*
G75*
G03*
X138261165Y-106727501I-826300J0D01*
G01*
X138261165Y-109267501D02*
G75*
G03*
X138261165Y-109267501I-826300J0D01*
G01*
X138261165Y-111807501D02*
G75*
G03*
X138261165Y-111807501I-826300J0D01*
G01*
X138261165Y-114347501D02*
G75*
G03*
X138261165Y-114347501I-826300J0D01*
G01*
X138261165Y-116887501D02*
G75*
G03*
X138261165Y-116887501I-826300J0D01*
G01*
X138261165Y-119427501D02*
G75*
G03*
X138261165Y-119427501I-826300J0D01*
G01*
X138261165Y-121967501D02*
G75*
G03*
X138261165Y-121967501I-826300J0D01*
G01*
X138261165Y-124507501D02*
G75*
G03*
X138261165Y-124507501I-826300J0D01*
G01*
X138261165Y-127047501D02*
G75*
G03*
X138261165Y-127047501I-826300J0D01*
G01*
X138261165Y-129587501D02*
G75*
G03*
X138261165Y-129587501I-826300J0D01*
G01*
X138261165Y-132127501D02*
G75*
G03*
X138261165Y-132127501I-826300J0D01*
G01*
X153501165Y-132127501D02*
G75*
G03*
X153501165Y-132127501I-826300J0D01*
G01*
X153501165Y-129587501D02*
G75*
G03*
X153501165Y-129587501I-826300J0D01*
G01*
X153501165Y-127047501D02*
G75*
G03*
X153501165Y-127047501I-826300J0D01*
G01*
X153501165Y-124507501D02*
G75*
G03*
X153501165Y-124507501I-826300J0D01*
G01*
X153501165Y-121967501D02*
G75*
G03*
X153501165Y-121967501I-826300J0D01*
G01*
X153501165Y-119427501D02*
G75*
G03*
X153501165Y-119427501I-826300J0D01*
G01*
X153501165Y-116887501D02*
G75*
G03*
X153501165Y-116887501I-826300J0D01*
G01*
X153501165Y-114347501D02*
G75*
G03*
X153501165Y-114347501I-826300J0D01*
G01*
X153501165Y-111807501D02*
G75*
G03*
X153501165Y-111807501I-826300J0D01*
G01*
X153501165Y-109267501D02*
G75*
G03*
X153501165Y-109267501I-826300J0D01*
G01*
X153501165Y-106727501D02*
G75*
G03*
X153501165Y-106727501I-826300J0D01*
G01*
X153501165Y-104187501D02*
G75*
G03*
X153501165Y-104187501I-826300J0D01*
G01*
%TD*%
%TO.C,SW11*%
D12*
X225194705Y-46256524D02*
X225069041Y-46339495D01*
X224839058Y-46401118D01*
X224734741Y-46379771D01*
X224676420Y-46346100D01*
X224605774Y-46266431D01*
X224581124Y-46174439D01*
X224602471Y-46070121D01*
X224636143Y-46011800D01*
X224715811Y-45941154D01*
X224887472Y-45845858D01*
X224967141Y-45775213D01*
X225000812Y-45716891D01*
X225022159Y-45612574D01*
X224997510Y-45520581D01*
X224926864Y-45440913D01*
X224868543Y-45407241D01*
X224764225Y-45385894D01*
X224534243Y-45447517D01*
X224408578Y-45530488D01*
X224074278Y-45570765D02*
X224103115Y-46598314D01*
X223734258Y-45957666D01*
X223735143Y-46696912D01*
X223246342Y-45792609D01*
X222631228Y-46992705D02*
X223183185Y-46844808D01*
X222907207Y-46918757D02*
X222648388Y-45952831D01*
X222777355Y-46066171D01*
X222893997Y-46133514D01*
X222998315Y-46154861D01*
X221711299Y-47239199D02*
X222263256Y-47091303D01*
X221987277Y-47165251D02*
X221728458Y-46199325D01*
X221857425Y-46312665D01*
X221974068Y-46380009D01*
X222078385Y-46401356D01*
%TO.C,SW1*%
X264015989Y-45723519D02*
X263890324Y-45806490D01*
X263660342Y-45868114D01*
X263556024Y-45846767D01*
X263497703Y-45813095D01*
X263427057Y-45733427D01*
X263402407Y-45641434D01*
X263423755Y-45537116D01*
X263457426Y-45478795D01*
X263537095Y-45408149D01*
X263708756Y-45312854D01*
X263788424Y-45242208D01*
X263822096Y-45183887D01*
X263843443Y-45079569D01*
X263818793Y-44987576D01*
X263748147Y-44907908D01*
X263689826Y-44874236D01*
X263585508Y-44852889D01*
X263355526Y-44914513D01*
X263229861Y-44997483D01*
X262895561Y-45037760D02*
X262924398Y-46065309D01*
X262555542Y-45424661D01*
X262556426Y-46163907D01*
X262067625Y-45259605D01*
X261452511Y-46459700D02*
X262004469Y-46311803D01*
X261728490Y-46385752D02*
X261469671Y-45419826D01*
X261598638Y-45533166D01*
X261715280Y-45600509D01*
X261819598Y-45621856D01*
%TO.C,SW17*%
X210757206Y-65850273D02*
X210631542Y-65933244D01*
X210401559Y-65994867D01*
X210297242Y-65973520D01*
X210238921Y-65939849D01*
X210168275Y-65860180D01*
X210143625Y-65768188D01*
X210164972Y-65663870D01*
X210198644Y-65605549D01*
X210278312Y-65534903D01*
X210449973Y-65439607D01*
X210529642Y-65368962D01*
X210563313Y-65310640D01*
X210584660Y-65206323D01*
X210560011Y-65114330D01*
X210489365Y-65034662D01*
X210431044Y-65000990D01*
X210326726Y-64979643D01*
X210096744Y-65041266D01*
X209971079Y-65124237D01*
X209636779Y-65164514D02*
X209665616Y-66192063D01*
X209296759Y-65551415D01*
X209297644Y-66290661D01*
X208808843Y-65386358D01*
X208193729Y-66586454D02*
X208745686Y-66438557D01*
X208469708Y-66512506D02*
X208210889Y-65546580D01*
X208339856Y-65659920D01*
X208456498Y-65727263D01*
X208560816Y-65748610D01*
X207612935Y-65706801D02*
X206968984Y-65879347D01*
X207641771Y-66734350D01*
%TO.C,SW15*%
X177990158Y-148961474D02*
X177911332Y-149089779D01*
X177728941Y-149242823D01*
X177625375Y-149267563D01*
X177558288Y-149261694D01*
X177460592Y-149219346D01*
X177399374Y-149146389D01*
X177374634Y-149042824D01*
X177380504Y-148975737D01*
X177422851Y-148878040D01*
X177538156Y-148719126D01*
X177580503Y-148621430D01*
X177586373Y-148554343D01*
X177561633Y-148450777D01*
X177500415Y-148377821D01*
X177402719Y-148335473D01*
X177335632Y-148329604D01*
X177232066Y-148354343D01*
X177049675Y-148507388D01*
X176970849Y-148635693D01*
X176684892Y-148813477D02*
X177145288Y-149732566D01*
X176540240Y-149307827D01*
X176853461Y-149977438D01*
X176028282Y-149364438D01*
X175977982Y-150712052D02*
X176415722Y-150344745D01*
X176196852Y-150528399D02*
X175554064Y-149762354D01*
X175718847Y-149810571D01*
X175853022Y-149822310D01*
X175956588Y-149797570D01*
X174642106Y-150527578D02*
X175006889Y-150221488D01*
X175349457Y-150555662D01*
X175282370Y-150549793D01*
X175178804Y-150574533D01*
X174996413Y-150727577D01*
X174954065Y-150825273D01*
X174948196Y-150892361D01*
X174972935Y-150995926D01*
X175125980Y-151178318D01*
X175223676Y-151220665D01*
X175290763Y-151226535D01*
X175394329Y-151201795D01*
X175576720Y-151048750D01*
X175619068Y-150951054D01*
X175624938Y-150883967D01*
%TO.C,SW2*%
X268984746Y-64098519D02*
X268859081Y-64181490D01*
X268629099Y-64243114D01*
X268524781Y-64221767D01*
X268466460Y-64188095D01*
X268395814Y-64108427D01*
X268371164Y-64016434D01*
X268392512Y-63912116D01*
X268426183Y-63853795D01*
X268505852Y-63783149D01*
X268677513Y-63687854D01*
X268757181Y-63617208D01*
X268790853Y-63558887D01*
X268812200Y-63454569D01*
X268787550Y-63362576D01*
X268716904Y-63282908D01*
X268658583Y-63249236D01*
X268554265Y-63227889D01*
X268324283Y-63289513D01*
X268198618Y-63372483D01*
X267864318Y-63412760D02*
X267893155Y-64440309D01*
X267524299Y-63799661D01*
X267525183Y-64538907D01*
X267036382Y-63634605D01*
X266739056Y-63812871D02*
X266680735Y-63779199D01*
X266576417Y-63757852D01*
X266346435Y-63819475D01*
X266266767Y-63890121D01*
X266233095Y-63948442D01*
X266211748Y-64052760D01*
X266236397Y-64144753D01*
X266319368Y-64270418D01*
X267019222Y-64674479D01*
X266421268Y-64834700D01*
%TO.C,SW3*%
X273859746Y-82473518D02*
X273734081Y-82556489D01*
X273504099Y-82618113D01*
X273399781Y-82596766D01*
X273341460Y-82563094D01*
X273270814Y-82483426D01*
X273246164Y-82391433D01*
X273267512Y-82287115D01*
X273301183Y-82228794D01*
X273380852Y-82158148D01*
X273552513Y-82062853D01*
X273632181Y-81992207D01*
X273665853Y-81933886D01*
X273687200Y-81829568D01*
X273662550Y-81737575D01*
X273591904Y-81657907D01*
X273533583Y-81624235D01*
X273429265Y-81602888D01*
X273199283Y-81664512D01*
X273073618Y-81747482D01*
X272739318Y-81787759D02*
X272768155Y-82815308D01*
X272399299Y-82174660D01*
X272400183Y-82913906D01*
X271911382Y-82009604D01*
X271635403Y-82083552D02*
X271037449Y-82243773D01*
X271458022Y-82525472D01*
X271320033Y-82562446D01*
X271240365Y-82633092D01*
X271206693Y-82691413D01*
X271185346Y-82795731D01*
X271246969Y-83025713D01*
X271317615Y-83105381D01*
X271375936Y-83139053D01*
X271480254Y-83160400D01*
X271756233Y-83086452D01*
X271835901Y-83015806D01*
X271869573Y-82957485D01*
%TO.C,SW4*%
X278828491Y-100848520D02*
X278702826Y-100931491D01*
X278472844Y-100993115D01*
X278368526Y-100971768D01*
X278310205Y-100938096D01*
X278239559Y-100858428D01*
X278214909Y-100766435D01*
X278236257Y-100662117D01*
X278269928Y-100603796D01*
X278349597Y-100533150D01*
X278521258Y-100437855D01*
X278600926Y-100367209D01*
X278634598Y-100308888D01*
X278655945Y-100204570D01*
X278631295Y-100112577D01*
X278560649Y-100032909D01*
X278502328Y-99999237D01*
X278398010Y-99977890D01*
X278168028Y-100039514D01*
X278042363Y-100122484D01*
X277708063Y-100162761D02*
X277736900Y-101190310D01*
X277368044Y-100549662D01*
X277368928Y-101288908D01*
X276880127Y-100384606D01*
X276184460Y-100916101D02*
X276357006Y-101560052D01*
X276315845Y-100486506D02*
X276730698Y-101114829D01*
X276132744Y-101275050D01*
%TO.C,SW5*%
X212078493Y-131786018D02*
X211952828Y-131868989D01*
X211722846Y-131930613D01*
X211618528Y-131909266D01*
X211560207Y-131875594D01*
X211489561Y-131795926D01*
X211464911Y-131703933D01*
X211486259Y-131599615D01*
X211519930Y-131541294D01*
X211599599Y-131470648D01*
X211771260Y-131375353D01*
X211850928Y-131304707D01*
X211884600Y-131246386D01*
X211905947Y-131142068D01*
X211881297Y-131050075D01*
X211810651Y-130970407D01*
X211752330Y-130936735D01*
X211648012Y-130915388D01*
X211418030Y-130977012D01*
X211292365Y-131059982D01*
X210958065Y-131100259D02*
X210986902Y-132127808D01*
X210618046Y-131487160D01*
X210618930Y-132226406D01*
X210130129Y-131322104D01*
X209302193Y-131543948D02*
X209762157Y-131420701D01*
X209931401Y-131868341D01*
X209873080Y-131834670D01*
X209768762Y-131813322D01*
X209538780Y-131874946D01*
X209459112Y-131945592D01*
X209425440Y-132003913D01*
X209404093Y-132108231D01*
X209465716Y-132338213D01*
X209536362Y-132417881D01*
X209594683Y-132451553D01*
X209699001Y-132472900D01*
X209928983Y-132411277D01*
X210008652Y-132340631D01*
X210042323Y-132282309D01*
%TO.C,SW6*%
X245640990Y-50598520D02*
X245515325Y-50681491D01*
X245285343Y-50743115D01*
X245181025Y-50721768D01*
X245122704Y-50688096D01*
X245052058Y-50608428D01*
X245027408Y-50516435D01*
X245048756Y-50412117D01*
X245082427Y-50353796D01*
X245162096Y-50283150D01*
X245333757Y-50187855D01*
X245413425Y-50117209D01*
X245447097Y-50058888D01*
X245468444Y-49954570D01*
X245443794Y-49862577D01*
X245373148Y-49782909D01*
X245314827Y-49749237D01*
X245210509Y-49727890D01*
X244980527Y-49789514D01*
X244854862Y-49872484D01*
X244520562Y-49912761D02*
X244549399Y-50940310D01*
X244180543Y-50299662D01*
X244181427Y-51038908D01*
X243692626Y-50134606D01*
X242910686Y-50344126D02*
X243094672Y-50294827D01*
X243198990Y-50316174D01*
X243257311Y-50349846D01*
X243386278Y-50463186D01*
X243481573Y-50634847D01*
X243580171Y-51002819D01*
X243558824Y-51107136D01*
X243525152Y-51165457D01*
X243445484Y-51236103D01*
X243261498Y-51285402D01*
X243157180Y-51264055D01*
X243098859Y-51230383D01*
X243028213Y-51150715D01*
X242966590Y-50920733D01*
X242987937Y-50816415D01*
X243021609Y-50758094D01*
X243101277Y-50687448D01*
X243285263Y-50638149D01*
X243389580Y-50659496D01*
X243447901Y-50693168D01*
X243518547Y-50772836D01*
%TO.C,SW7*%
X250515991Y-69067266D02*
X250390326Y-69150237D01*
X250160344Y-69211861D01*
X250056026Y-69190514D01*
X249997705Y-69156842D01*
X249927059Y-69077174D01*
X249902409Y-68985181D01*
X249923757Y-68880863D01*
X249957428Y-68822542D01*
X250037097Y-68751896D01*
X250208758Y-68656601D01*
X250288426Y-68585955D01*
X250322098Y-68527634D01*
X250343445Y-68423316D01*
X250318795Y-68331323D01*
X250248149Y-68251655D01*
X250189828Y-68217983D01*
X250085510Y-68196636D01*
X249855528Y-68258260D01*
X249729863Y-68341230D01*
X249395563Y-68381507D02*
X249424400Y-69409056D01*
X249055544Y-68768408D01*
X249056428Y-69507654D01*
X248567627Y-68603352D01*
X248291648Y-68677300D02*
X247647698Y-68849846D01*
X248320485Y-69704849D01*
%TO.C,SW8*%
X255484745Y-87442266D02*
X255359080Y-87525237D01*
X255129098Y-87586861D01*
X255024780Y-87565514D01*
X254966459Y-87531842D01*
X254895813Y-87452174D01*
X254871163Y-87360181D01*
X254892511Y-87255863D01*
X254926182Y-87197542D01*
X255005851Y-87126896D01*
X255177512Y-87031601D01*
X255257180Y-86960955D01*
X255290852Y-86902634D01*
X255312199Y-86798316D01*
X255287549Y-86706323D01*
X255216903Y-86626655D01*
X255158582Y-86592983D01*
X255054264Y-86571636D01*
X254824282Y-86633260D01*
X254698617Y-86716230D01*
X254364317Y-86756507D02*
X254393154Y-87784056D01*
X254024298Y-87143408D01*
X254025182Y-87882654D01*
X253536381Y-86978352D01*
X253141342Y-87527892D02*
X253221011Y-87457246D01*
X253254682Y-87398925D01*
X253276029Y-87294607D01*
X253263705Y-87248610D01*
X253193059Y-87168942D01*
X253134738Y-87135270D01*
X253030420Y-87113923D01*
X252846434Y-87163222D01*
X252766766Y-87233868D01*
X252733094Y-87292189D01*
X252711747Y-87396507D01*
X252724072Y-87442504D01*
X252794718Y-87522172D01*
X252853039Y-87555843D01*
X252957356Y-87577191D01*
X253141342Y-87527892D01*
X253245660Y-87549239D01*
X253303981Y-87582910D01*
X253374627Y-87662579D01*
X253423926Y-87846565D01*
X253402579Y-87950882D01*
X253368907Y-88009203D01*
X253289239Y-88079849D01*
X253105253Y-88129148D01*
X253000935Y-88107801D01*
X252942614Y-88074129D01*
X252871968Y-87994461D01*
X252822669Y-87810475D01*
X252844017Y-87706158D01*
X252877688Y-87647836D01*
X252957356Y-87577191D01*
%TO.C,SW9*%
X260453496Y-105817274D02*
X260327831Y-105900245D01*
X260097849Y-105961869D01*
X259993531Y-105940522D01*
X259935210Y-105906850D01*
X259864564Y-105827182D01*
X259839914Y-105735189D01*
X259861262Y-105630871D01*
X259894933Y-105572550D01*
X259974602Y-105501904D01*
X260146263Y-105406609D01*
X260225931Y-105335963D01*
X260259603Y-105277642D01*
X260280950Y-105173324D01*
X260256300Y-105081331D01*
X260185654Y-105001663D01*
X260127333Y-104967991D01*
X260023015Y-104946644D01*
X259793033Y-105008268D01*
X259667368Y-105091238D01*
X259333068Y-105131515D02*
X259361905Y-106159064D01*
X258993049Y-105518416D01*
X258993933Y-106257662D01*
X258505132Y-105353360D01*
X258349983Y-106430208D02*
X258165997Y-106479507D01*
X258061679Y-106458160D01*
X258003358Y-106424488D01*
X257874391Y-106311148D01*
X257779096Y-106139487D01*
X257680498Y-105771515D01*
X257701845Y-105667197D01*
X257735517Y-105608876D01*
X257815185Y-105538230D01*
X257999171Y-105488931D01*
X258103489Y-105510278D01*
X258161810Y-105543950D01*
X258232456Y-105623618D01*
X258294079Y-105853601D01*
X258272732Y-105957918D01*
X258239060Y-106016240D01*
X258159392Y-106086886D01*
X257975406Y-106136184D01*
X257871089Y-106114837D01*
X257812768Y-106081166D01*
X257742122Y-106001497D01*
%TO.C,SW10*%
X194322794Y-138422868D02*
X194218066Y-138531070D01*
X194006873Y-138641010D01*
X193900408Y-138642748D01*
X193836181Y-138622497D01*
X193749967Y-138560008D01*
X193705990Y-138475531D01*
X193704253Y-138369066D01*
X193724504Y-138304839D01*
X193786993Y-138218624D01*
X193933959Y-138088434D01*
X193996448Y-138002219D01*
X194016699Y-137937992D01*
X194014962Y-137831527D01*
X193970986Y-137747050D01*
X193884771Y-137684561D01*
X193820544Y-137664310D01*
X193714079Y-137666047D01*
X193502886Y-137775988D01*
X193398158Y-137884190D01*
X193080500Y-137995868D02*
X193331055Y-138992819D01*
X192832280Y-138447192D01*
X192993146Y-139168723D01*
X192320205Y-138391652D01*
X191979420Y-139696436D02*
X192486283Y-139432579D01*
X192232851Y-139564508D02*
X191771103Y-138677497D01*
X191921544Y-138760237D01*
X192049997Y-138800738D01*
X192156463Y-138799000D01*
X190968569Y-139095269D02*
X190884092Y-139139245D01*
X190821603Y-139225460D01*
X190801352Y-139289687D01*
X190803090Y-139396152D01*
X190848803Y-139587094D01*
X190958743Y-139798288D01*
X191088934Y-139945254D01*
X191175149Y-140007743D01*
X191239375Y-140027994D01*
X191345841Y-140026256D01*
X191430318Y-139982280D01*
X191492807Y-139896066D01*
X191513058Y-139831839D01*
X191511320Y-139725374D01*
X191465607Y-139534431D01*
X191355667Y-139323238D01*
X191225476Y-139176272D01*
X191139261Y-139113783D01*
X191075034Y-139093532D01*
X190968569Y-139095269D01*
%TO.C,SW12*%
X230163457Y-64631523D02*
X230037793Y-64714494D01*
X229807810Y-64776117D01*
X229703493Y-64754770D01*
X229645172Y-64721099D01*
X229574526Y-64641430D01*
X229549876Y-64549438D01*
X229571223Y-64445120D01*
X229604895Y-64386799D01*
X229684563Y-64316153D01*
X229856224Y-64220857D01*
X229935893Y-64150212D01*
X229969564Y-64091890D01*
X229990911Y-63987573D01*
X229966262Y-63895580D01*
X229895616Y-63815912D01*
X229837295Y-63782240D01*
X229732977Y-63760893D01*
X229502995Y-63822516D01*
X229377330Y-63905487D01*
X229043030Y-63945764D02*
X229071867Y-64973313D01*
X228703010Y-64332665D01*
X228703895Y-65071911D01*
X228215094Y-64167608D01*
X227599980Y-65367704D02*
X228151937Y-65219807D01*
X227875959Y-65293756D02*
X227617140Y-64327830D01*
X227746107Y-64441170D01*
X227862749Y-64508513D01*
X227967067Y-64529860D01*
X226997839Y-64592369D02*
X226939517Y-64558697D01*
X226835200Y-64537350D01*
X226605217Y-64598973D01*
X226525549Y-64669619D01*
X226491877Y-64727941D01*
X226470530Y-64832258D01*
X226495180Y-64924251D01*
X226578150Y-65049916D01*
X227278005Y-65453977D01*
X226680051Y-65614198D01*
%TO.C,SW13*%
X235038456Y-83006522D02*
X234912792Y-83089493D01*
X234682809Y-83151116D01*
X234578492Y-83129769D01*
X234520171Y-83096098D01*
X234449525Y-83016429D01*
X234424875Y-82924437D01*
X234446222Y-82820119D01*
X234479894Y-82761798D01*
X234559562Y-82691152D01*
X234731223Y-82595856D01*
X234810892Y-82525211D01*
X234844563Y-82466889D01*
X234865910Y-82362572D01*
X234841261Y-82270579D01*
X234770615Y-82190911D01*
X234712294Y-82157239D01*
X234607976Y-82135892D01*
X234377994Y-82197515D01*
X234252329Y-82280486D01*
X233918029Y-82320763D02*
X233946866Y-83348312D01*
X233578009Y-82707664D01*
X233578894Y-83446910D01*
X233090093Y-82542607D01*
X232474979Y-83742703D02*
X233026936Y-83594806D01*
X232750958Y-83668755D02*
X232492139Y-82702829D01*
X232621106Y-82816169D01*
X232737748Y-82883512D01*
X232842066Y-82904859D01*
X231894185Y-82863050D02*
X231296230Y-83023271D01*
X231716803Y-83304970D01*
X231578814Y-83341944D01*
X231499146Y-83412590D01*
X231465474Y-83470911D01*
X231444127Y-83575229D01*
X231505751Y-83805211D01*
X231576397Y-83884880D01*
X231634718Y-83918551D01*
X231739035Y-83939898D01*
X232015014Y-83865950D01*
X232094682Y-83795304D01*
X232128354Y-83736983D01*
%TO.C,SW14*%
X240007204Y-101475272D02*
X239881540Y-101558243D01*
X239651557Y-101619866D01*
X239547240Y-101598519D01*
X239488919Y-101564848D01*
X239418273Y-101485179D01*
X239393623Y-101393187D01*
X239414970Y-101288869D01*
X239448642Y-101230548D01*
X239528310Y-101159902D01*
X239699971Y-101064606D01*
X239779640Y-100993961D01*
X239813311Y-100935639D01*
X239834658Y-100831322D01*
X239810009Y-100739329D01*
X239739363Y-100659661D01*
X239681042Y-100625989D01*
X239576724Y-100604642D01*
X239346742Y-100666265D01*
X239221077Y-100749236D01*
X238886777Y-100789513D02*
X238915614Y-101817062D01*
X238546757Y-101176414D01*
X238547642Y-101915660D01*
X238058841Y-101011357D01*
X237443727Y-102211453D02*
X237995684Y-102063556D01*
X237719706Y-102137505D02*
X237460887Y-101171579D01*
X237589854Y-101284919D01*
X237706496Y-101352262D01*
X237810814Y-101373609D01*
X236443244Y-101789347D02*
X236615790Y-102433298D01*
X236574629Y-101359752D02*
X236989482Y-101988075D01*
X236391528Y-102148297D01*
%TO.C,SW16*%
X205882203Y-47475270D02*
X205756539Y-47558241D01*
X205526556Y-47619864D01*
X205422239Y-47598517D01*
X205363918Y-47564846D01*
X205293272Y-47485177D01*
X205268622Y-47393185D01*
X205289969Y-47288867D01*
X205323641Y-47230546D01*
X205403309Y-47159900D01*
X205574970Y-47064604D01*
X205654639Y-46993959D01*
X205688310Y-46935637D01*
X205709657Y-46831320D01*
X205685008Y-46739327D01*
X205614362Y-46659659D01*
X205556041Y-46625987D01*
X205451723Y-46604640D01*
X205221741Y-46666263D01*
X205096076Y-46749234D01*
X204761776Y-46789511D02*
X204790613Y-47817060D01*
X204421756Y-47176412D01*
X204422641Y-47915658D01*
X203933840Y-47011355D01*
X203318726Y-48211451D02*
X203870683Y-48063554D01*
X203594705Y-48137503D02*
X203335886Y-47171577D01*
X203464853Y-47284917D01*
X203581495Y-47352260D01*
X203685813Y-47373607D01*
X202231970Y-47467370D02*
X202415956Y-47418071D01*
X202520274Y-47439418D01*
X202578595Y-47473090D01*
X202707562Y-47586430D01*
X202802858Y-47758091D01*
X202901455Y-48126063D01*
X202880108Y-48230380D01*
X202846436Y-48288702D01*
X202766768Y-48359347D01*
X202582782Y-48408646D01*
X202478465Y-48387299D01*
X202420144Y-48353628D01*
X202349498Y-48273959D01*
X202287874Y-48043977D01*
X202309221Y-47939659D01*
X202342893Y-47881338D01*
X202422561Y-47810692D01*
X202606547Y-47761393D01*
X202710865Y-47782740D01*
X202769186Y-47816412D01*
X202839832Y-47896080D01*
%TO.C,SW18*%
X215725957Y-84319024D02*
X215600293Y-84401995D01*
X215370310Y-84463618D01*
X215265993Y-84442271D01*
X215207672Y-84408600D01*
X215137026Y-84328931D01*
X215112376Y-84236939D01*
X215133723Y-84132621D01*
X215167395Y-84074300D01*
X215247063Y-84003654D01*
X215418724Y-83908358D01*
X215498393Y-83837713D01*
X215532064Y-83779391D01*
X215553411Y-83675074D01*
X215528762Y-83583081D01*
X215458116Y-83503413D01*
X215399795Y-83469741D01*
X215295477Y-83448394D01*
X215065495Y-83510017D01*
X214939830Y-83592988D01*
X214605530Y-83633265D02*
X214634367Y-84660814D01*
X214265510Y-84020166D01*
X214266395Y-84759412D01*
X213777594Y-83855109D01*
X213162480Y-85055205D02*
X213714437Y-84907308D01*
X213438459Y-84981257D02*
X213179640Y-84015331D01*
X213308607Y-84128671D01*
X213425249Y-84196014D01*
X213529567Y-84217361D01*
X212462626Y-84651144D02*
X212542294Y-84580498D01*
X212575966Y-84522177D01*
X212597313Y-84417859D01*
X212584988Y-84371863D01*
X212514342Y-84292194D01*
X212456021Y-84258523D01*
X212351703Y-84237176D01*
X212167717Y-84286474D01*
X212088049Y-84357120D01*
X212054377Y-84415442D01*
X212033030Y-84519759D01*
X212045355Y-84565756D01*
X212116001Y-84645424D01*
X212174322Y-84679096D01*
X212278640Y-84700443D01*
X212462626Y-84651144D01*
X212566943Y-84672491D01*
X212625265Y-84706163D01*
X212695910Y-84785831D01*
X212745209Y-84969817D01*
X212723862Y-85074134D01*
X212690190Y-85132456D01*
X212610522Y-85203101D01*
X212426536Y-85252400D01*
X212322219Y-85231053D01*
X212263898Y-85197382D01*
X212193252Y-85117713D01*
X212143953Y-84933727D01*
X212165300Y-84829410D01*
X212198972Y-84771089D01*
X212278640Y-84700443D01*
%TO.C,SW19*%
X220600954Y-102694021D02*
X220475290Y-102776992D01*
X220245307Y-102838615D01*
X220140990Y-102817268D01*
X220082669Y-102783597D01*
X220012023Y-102703928D01*
X219987373Y-102611936D01*
X220008720Y-102507618D01*
X220042392Y-102449297D01*
X220122060Y-102378651D01*
X220293721Y-102283355D01*
X220373390Y-102212710D01*
X220407061Y-102154388D01*
X220428408Y-102050071D01*
X220403759Y-101958078D01*
X220333113Y-101878410D01*
X220274792Y-101844738D01*
X220170474Y-101823391D01*
X219940492Y-101885014D01*
X219814827Y-101967985D01*
X219480527Y-102008262D02*
X219509364Y-103035811D01*
X219140507Y-102395163D01*
X219141392Y-103134409D01*
X218652591Y-102230106D01*
X218037477Y-103430202D02*
X218589434Y-103282305D01*
X218313456Y-103356254D02*
X218054637Y-102390328D01*
X218183604Y-102503668D01*
X218300246Y-102571011D01*
X218404564Y-102592358D01*
X217577512Y-103553449D02*
X217393526Y-103602748D01*
X217289209Y-103581401D01*
X217230887Y-103547729D01*
X217101920Y-103434389D01*
X217006625Y-103262728D01*
X216908027Y-102894756D01*
X216929374Y-102790439D01*
X216963046Y-102732117D01*
X217042714Y-102661471D01*
X217226700Y-102612173D01*
X217331018Y-102633520D01*
X217389339Y-102667191D01*
X217459985Y-102746860D01*
X217521609Y-102976842D01*
X217500262Y-103081160D01*
X217466590Y-103139481D01*
X217386922Y-103210127D01*
X217202936Y-103259426D01*
X217098618Y-103238079D01*
X217040297Y-103204407D01*
X216969651Y-103124739D01*
%TO.C,SW20*%
X164260385Y-162664968D02*
X164211198Y-162807293D01*
X164066255Y-162996187D01*
X163970499Y-163042755D01*
X163903731Y-163051546D01*
X163799185Y-163031347D01*
X163723628Y-162973370D01*
X163677059Y-162877614D01*
X163668269Y-162810846D01*
X163688467Y-162706300D01*
X163766643Y-162526197D01*
X163786842Y-162421651D01*
X163778052Y-162354883D01*
X163731483Y-162259127D01*
X163655925Y-162201150D01*
X163551379Y-162180951D01*
X163484612Y-162189741D01*
X163388856Y-162236310D01*
X163243913Y-162425204D01*
X163194725Y-162567529D01*
X162954026Y-162802991D02*
X163602436Y-163600646D01*
X162919801Y-163316932D01*
X163370527Y-163902876D01*
X162432231Y-163483008D01*
X162304868Y-163805437D02*
X162238100Y-163814227D01*
X162142344Y-163860796D01*
X161997401Y-164049689D01*
X161977203Y-164154235D01*
X161985993Y-164221003D01*
X162032562Y-164316759D01*
X162108119Y-164374736D01*
X162250444Y-164423923D01*
X163051652Y-164318442D01*
X162674800Y-164809566D01*
X161504594Y-164691928D02*
X161446617Y-164767485D01*
X161426418Y-164872031D01*
X161435209Y-164938799D01*
X161481777Y-165034555D01*
X161603904Y-165188288D01*
X161792797Y-165333231D01*
X161972901Y-165411407D01*
X162077447Y-165431606D01*
X162144214Y-165422816D01*
X162239970Y-165376247D01*
X162297948Y-165300689D01*
X162318146Y-165196143D01*
X162309356Y-165129376D01*
X162262787Y-165033620D01*
X162140661Y-164879886D01*
X161951767Y-164734943D01*
X161771664Y-164656767D01*
X161667118Y-164636569D01*
X161600350Y-164645359D01*
X161504594Y-164691928D01*
%TO.C,SW21*%
X188913456Y-57881522D02*
X188787792Y-57964493D01*
X188557809Y-58026116D01*
X188453492Y-58004769D01*
X188395171Y-57971098D01*
X188324525Y-57891429D01*
X188299875Y-57799437D01*
X188321222Y-57695119D01*
X188354894Y-57636798D01*
X188434562Y-57566152D01*
X188606223Y-57470856D01*
X188685892Y-57400211D01*
X188719563Y-57341889D01*
X188740910Y-57237572D01*
X188716261Y-57145579D01*
X188645615Y-57065911D01*
X188587294Y-57032239D01*
X188482976Y-57010892D01*
X188252994Y-57072515D01*
X188127329Y-57155486D01*
X187793029Y-57195763D02*
X187821866Y-58223312D01*
X187453009Y-57582664D01*
X187453894Y-58321910D01*
X186965093Y-57417607D01*
X186667767Y-57595873D02*
X186609446Y-57562202D01*
X186505128Y-57540855D01*
X186275146Y-57602478D01*
X186195477Y-57673124D01*
X186161806Y-57731445D01*
X186140459Y-57835763D01*
X186165108Y-57927756D01*
X186248079Y-58053421D01*
X186947933Y-58457482D01*
X186349979Y-58617703D01*
X185430050Y-58864197D02*
X185982007Y-58716301D01*
X185706028Y-58790249D02*
X185447209Y-57824323D01*
X185576176Y-57937663D01*
X185692819Y-58005007D01*
X185797136Y-58026354D01*
%TO.C,SW22*%
X193882204Y-76350275D02*
X193756540Y-76433246D01*
X193526557Y-76494869D01*
X193422240Y-76473522D01*
X193363919Y-76439851D01*
X193293273Y-76360182D01*
X193268623Y-76268190D01*
X193289970Y-76163872D01*
X193323642Y-76105551D01*
X193403310Y-76034905D01*
X193574971Y-75939609D01*
X193654640Y-75868964D01*
X193688311Y-75810642D01*
X193709658Y-75706325D01*
X193685009Y-75614332D01*
X193614363Y-75534664D01*
X193556042Y-75500992D01*
X193451724Y-75479645D01*
X193221742Y-75541268D01*
X193096077Y-75624239D01*
X192761777Y-75664516D02*
X192790614Y-76692065D01*
X192421757Y-76051417D01*
X192422642Y-76790663D01*
X191933841Y-75886360D01*
X191636515Y-76064626D02*
X191578194Y-76030955D01*
X191473876Y-76009608D01*
X191243894Y-76071231D01*
X191164225Y-76141877D01*
X191130554Y-76200198D01*
X191109207Y-76304516D01*
X191133856Y-76396509D01*
X191216827Y-76522174D01*
X191916681Y-76926235D01*
X191318727Y-77086456D01*
X190716586Y-76311121D02*
X190658264Y-76277449D01*
X190553947Y-76256102D01*
X190323964Y-76317725D01*
X190244296Y-76388371D01*
X190210624Y-76446693D01*
X190189277Y-76551010D01*
X190213927Y-76643003D01*
X190296897Y-76768668D01*
X190996752Y-77172729D01*
X190398798Y-77332950D01*
%TO.C,SW23*%
X198757208Y-94725270D02*
X198631544Y-94808241D01*
X198401561Y-94869864D01*
X198297244Y-94848517D01*
X198238923Y-94814846D01*
X198168277Y-94735177D01*
X198143627Y-94643185D01*
X198164974Y-94538867D01*
X198198646Y-94480546D01*
X198278314Y-94409900D01*
X198449975Y-94314604D01*
X198529644Y-94243959D01*
X198563315Y-94185637D01*
X198584662Y-94081320D01*
X198560013Y-93989327D01*
X198489367Y-93909659D01*
X198431046Y-93875987D01*
X198326728Y-93854640D01*
X198096746Y-93916263D01*
X197971081Y-93999234D01*
X197636781Y-94039511D02*
X197665618Y-95067060D01*
X197296761Y-94426412D01*
X197297646Y-95165658D01*
X196808845Y-94261355D01*
X196511519Y-94439621D02*
X196453198Y-94405950D01*
X196348880Y-94384603D01*
X196118898Y-94446226D01*
X196039229Y-94516872D01*
X196005558Y-94575193D01*
X195984211Y-94679511D01*
X196008860Y-94771504D01*
X196091831Y-94897169D01*
X196791685Y-95301230D01*
X196193731Y-95461451D01*
X195612937Y-94581798D02*
X195014982Y-94742019D01*
X195435555Y-95023718D01*
X195297566Y-95060692D01*
X195217898Y-95131338D01*
X195184226Y-95189659D01*
X195162879Y-95293977D01*
X195224503Y-95523959D01*
X195295149Y-95603628D01*
X195353470Y-95637299D01*
X195457787Y-95658646D01*
X195733766Y-95584698D01*
X195813434Y-95514052D01*
X195847106Y-95455731D01*
%TO.C,SW24*%
X203725957Y-113100272D02*
X203600293Y-113183243D01*
X203370310Y-113244866D01*
X203265993Y-113223519D01*
X203207672Y-113189848D01*
X203137026Y-113110179D01*
X203112376Y-113018187D01*
X203133723Y-112913869D01*
X203167395Y-112855548D01*
X203247063Y-112784902D01*
X203418724Y-112689606D01*
X203498393Y-112618961D01*
X203532064Y-112560639D01*
X203553411Y-112456322D01*
X203528762Y-112364329D01*
X203458116Y-112284661D01*
X203399795Y-112250989D01*
X203295477Y-112229642D01*
X203065495Y-112291265D01*
X202939830Y-112374236D01*
X202605530Y-112414513D02*
X202634367Y-113442062D01*
X202265510Y-112801414D01*
X202266395Y-113540660D01*
X201777594Y-112636357D01*
X201480268Y-112814623D02*
X201421947Y-112780952D01*
X201317629Y-112759605D01*
X201087647Y-112821228D01*
X201007978Y-112891874D01*
X200974307Y-112950195D01*
X200952960Y-113054513D01*
X200977609Y-113146506D01*
X201060580Y-113272171D01*
X201760434Y-113676232D01*
X201162480Y-113836453D01*
X200161997Y-113414347D02*
X200334543Y-114058298D01*
X200293382Y-112984752D02*
X200708235Y-113613075D01*
X200110281Y-113773297D01*
%TO.C,SW25*%
X171007205Y-64725271D02*
X170881541Y-64808242D01*
X170651558Y-64869865D01*
X170547241Y-64848518D01*
X170488920Y-64814847D01*
X170418274Y-64735178D01*
X170393624Y-64643186D01*
X170414971Y-64538868D01*
X170448643Y-64480547D01*
X170528311Y-64409901D01*
X170699972Y-64314605D01*
X170779641Y-64243960D01*
X170813312Y-64185638D01*
X170834659Y-64081321D01*
X170810010Y-63989328D01*
X170739364Y-63909660D01*
X170681043Y-63875988D01*
X170576725Y-63854641D01*
X170346743Y-63916264D01*
X170221078Y-63999235D01*
X169886778Y-64039512D02*
X169915615Y-65067061D01*
X169546758Y-64426413D01*
X169547643Y-65165659D01*
X169058842Y-64261356D01*
X168761516Y-64439622D02*
X168703195Y-64405951D01*
X168598877Y-64384604D01*
X168368895Y-64446227D01*
X168289226Y-64516873D01*
X168255555Y-64575194D01*
X168234208Y-64679512D01*
X168258857Y-64771505D01*
X168341828Y-64897170D01*
X169041682Y-65301231D01*
X168443728Y-65461452D01*
X167310976Y-64729696D02*
X167770941Y-64606448D01*
X167940184Y-65054088D01*
X167881863Y-65020417D01*
X167777545Y-64999070D01*
X167547563Y-65060693D01*
X167467895Y-65131339D01*
X167434223Y-65189660D01*
X167412876Y-65293978D01*
X167474500Y-65523960D01*
X167545146Y-65603629D01*
X167603467Y-65637300D01*
X167707784Y-65658647D01*
X167937767Y-65597024D01*
X168017435Y-65526378D01*
X168051107Y-65468057D01*
%TO.C,SW26*%
X175882207Y-83100272D02*
X175756543Y-83183243D01*
X175526560Y-83244866D01*
X175422243Y-83223519D01*
X175363922Y-83189848D01*
X175293276Y-83110179D01*
X175268626Y-83018187D01*
X175289973Y-82913869D01*
X175323645Y-82855548D01*
X175403313Y-82784902D01*
X175574974Y-82689606D01*
X175654643Y-82618961D01*
X175688314Y-82560639D01*
X175709661Y-82456322D01*
X175685012Y-82364329D01*
X175614366Y-82284661D01*
X175556045Y-82250989D01*
X175451727Y-82229642D01*
X175221745Y-82291265D01*
X175096080Y-82374236D01*
X174761780Y-82414513D02*
X174790617Y-83442062D01*
X174421760Y-82801414D01*
X174422645Y-83540660D01*
X173933844Y-82636357D01*
X173636518Y-82814623D02*
X173578197Y-82780952D01*
X173473879Y-82759605D01*
X173243897Y-82821228D01*
X173164228Y-82891874D01*
X173130557Y-82950195D01*
X173109210Y-83054513D01*
X173133859Y-83146506D01*
X173216830Y-83272171D01*
X173916684Y-83676232D01*
X173318730Y-83836453D01*
X172231974Y-83092372D02*
X172415960Y-83043073D01*
X172520278Y-83064420D01*
X172578599Y-83098092D01*
X172707566Y-83211432D01*
X172802862Y-83383093D01*
X172901459Y-83751065D01*
X172880112Y-83855382D01*
X172846440Y-83913704D01*
X172766772Y-83984349D01*
X172582786Y-84033648D01*
X172478469Y-84012301D01*
X172420148Y-83978630D01*
X172349502Y-83898961D01*
X172287878Y-83668979D01*
X172309225Y-83564661D01*
X172342897Y-83506340D01*
X172422565Y-83435694D01*
X172606551Y-83386395D01*
X172710869Y-83407742D01*
X172769190Y-83441414D01*
X172839836Y-83521082D01*
%TO.C,SW27*%
X180850954Y-101475272D02*
X180725290Y-101558243D01*
X180495307Y-101619866D01*
X180390990Y-101598519D01*
X180332669Y-101564848D01*
X180262023Y-101485179D01*
X180237373Y-101393187D01*
X180258720Y-101288869D01*
X180292392Y-101230548D01*
X180372060Y-101159902D01*
X180543721Y-101064606D01*
X180623390Y-100993961D01*
X180657061Y-100935639D01*
X180678408Y-100831322D01*
X180653759Y-100739329D01*
X180583113Y-100659661D01*
X180524792Y-100625989D01*
X180420474Y-100604642D01*
X180190492Y-100666265D01*
X180064827Y-100749236D01*
X179730527Y-100789513D02*
X179759364Y-101817062D01*
X179390507Y-101176414D01*
X179391392Y-101915660D01*
X178902591Y-101011357D01*
X178605265Y-101189623D02*
X178546944Y-101155952D01*
X178442626Y-101134605D01*
X178212644Y-101196228D01*
X178132975Y-101266874D01*
X178099304Y-101325195D01*
X178077957Y-101429513D01*
X178102606Y-101521506D01*
X178185577Y-101647171D01*
X178885431Y-102051232D01*
X178287477Y-102211453D01*
X177706683Y-101331800D02*
X177062732Y-101504346D01*
X177735519Y-102359349D01*
%TO.C,SW28*%
X185819703Y-119944021D02*
X185694039Y-120026992D01*
X185464056Y-120088615D01*
X185359739Y-120067268D01*
X185301418Y-120033597D01*
X185230772Y-119953928D01*
X185206122Y-119861936D01*
X185227469Y-119757618D01*
X185261141Y-119699297D01*
X185340809Y-119628651D01*
X185512470Y-119533355D01*
X185592139Y-119462710D01*
X185625810Y-119404388D01*
X185647157Y-119300071D01*
X185622508Y-119208078D01*
X185551862Y-119128410D01*
X185493541Y-119094738D01*
X185389223Y-119073391D01*
X185159241Y-119135014D01*
X185033576Y-119217985D01*
X184699276Y-119258262D02*
X184728113Y-120285811D01*
X184359256Y-119645163D01*
X184360141Y-120384409D01*
X183871340Y-119480106D01*
X183574014Y-119658372D02*
X183515693Y-119624701D01*
X183411375Y-119603354D01*
X183181393Y-119664977D01*
X183101724Y-119735623D01*
X183068053Y-119793944D01*
X183046706Y-119898262D01*
X183071355Y-119990255D01*
X183154326Y-120115920D01*
X183854180Y-120519981D01*
X183256226Y-120680202D01*
X182556372Y-120276141D02*
X182636040Y-120205495D01*
X182669712Y-120147174D01*
X182691059Y-120042856D01*
X182678734Y-119996860D01*
X182608088Y-119917191D01*
X182549767Y-119883520D01*
X182445449Y-119862173D01*
X182261463Y-119911471D01*
X182181795Y-119982117D01*
X182148123Y-120040439D01*
X182126776Y-120144756D01*
X182139101Y-120190753D01*
X182209747Y-120270421D01*
X182268068Y-120304093D01*
X182372386Y-120325440D01*
X182556372Y-120276141D01*
X182660689Y-120297488D01*
X182719011Y-120331160D01*
X182789656Y-120410828D01*
X182838955Y-120594814D01*
X182817608Y-120699131D01*
X182783936Y-120757453D01*
X182704268Y-120828098D01*
X182520282Y-120877397D01*
X182415965Y-120856050D01*
X182357644Y-120822379D01*
X182286998Y-120742710D01*
X182237699Y-120558724D01*
X182259046Y-120454407D01*
X182292718Y-120396086D01*
X182372386Y-120325440D01*
%TO.C,SW29*%
X123375021Y-65661952D02*
X123224707Y-65670974D01*
X122994725Y-65609350D01*
X122915057Y-65538705D01*
X122881385Y-65480383D01*
X122860038Y-65376066D01*
X122884687Y-65284073D01*
X122955333Y-65204405D01*
X123013654Y-65170733D01*
X123117972Y-65149386D01*
X123314282Y-65152688D01*
X123418600Y-65131341D01*
X123476921Y-65097669D01*
X123547567Y-65018001D01*
X123572217Y-64926008D01*
X123550870Y-64821691D01*
X123517198Y-64763369D01*
X123437530Y-64692723D01*
X123207547Y-64631100D01*
X123057233Y-64640122D01*
X122747583Y-64507853D02*
X122258781Y-65412155D01*
X122259666Y-64672909D01*
X121890810Y-65313557D01*
X121919646Y-64286008D01*
X121573021Y-64291728D02*
X121539350Y-64233407D01*
X121459682Y-64162761D01*
X121229699Y-64101137D01*
X121125382Y-64122484D01*
X121067060Y-64156156D01*
X120996414Y-64235824D01*
X120971765Y-64327817D01*
X120980787Y-64478131D01*
X121384848Y-65177985D01*
X120786894Y-65017764D01*
X120326930Y-64894517D02*
X120142944Y-64845218D01*
X120063276Y-64774572D01*
X120029604Y-64716251D01*
X119974585Y-64553612D01*
X119977887Y-64357302D01*
X120076485Y-63989330D01*
X120147131Y-63909662D01*
X120205452Y-63875990D01*
X120309770Y-63854643D01*
X120493756Y-63903942D01*
X120573424Y-63974588D01*
X120607096Y-64032909D01*
X120628443Y-64137226D01*
X120566819Y-64367209D01*
X120496173Y-64446877D01*
X120437852Y-64480549D01*
X120333534Y-64501896D01*
X120149549Y-64452597D01*
X120069880Y-64381951D01*
X120036209Y-64323630D01*
X120014862Y-64219312D01*
%TO.C,SW30*%
X118500025Y-84036953D02*
X118349711Y-84045975D01*
X118119729Y-83984351D01*
X118040061Y-83913706D01*
X118006389Y-83855384D01*
X117985042Y-83751067D01*
X118009691Y-83659074D01*
X118080337Y-83579406D01*
X118138658Y-83545734D01*
X118242976Y-83524387D01*
X118439286Y-83527689D01*
X118543604Y-83506342D01*
X118601925Y-83472670D01*
X118672571Y-83393002D01*
X118697221Y-83301009D01*
X118675874Y-83196692D01*
X118642202Y-83138370D01*
X118562534Y-83067724D01*
X118332551Y-83006101D01*
X118182237Y-83015123D01*
X117872587Y-82882854D02*
X117383785Y-83787156D01*
X117384670Y-83047910D01*
X117015814Y-83688558D01*
X117044650Y-82661009D01*
X116768671Y-82587061D02*
X116170717Y-82426839D01*
X116394095Y-82881084D01*
X116256105Y-82844110D01*
X116151788Y-82865457D01*
X116093467Y-82899129D01*
X116022821Y-82978797D01*
X115961197Y-83208779D01*
X115982544Y-83313097D01*
X116016216Y-83371418D01*
X116095884Y-83442064D01*
X116371863Y-83516012D01*
X116476181Y-83494665D01*
X116534502Y-83460993D01*
X115572763Y-82266618D02*
X115480770Y-82241968D01*
X115376453Y-82263316D01*
X115318131Y-82296987D01*
X115247486Y-82376655D01*
X115152190Y-82548317D01*
X115090567Y-82778299D01*
X115087264Y-82974610D01*
X115108611Y-83078927D01*
X115142283Y-83137248D01*
X115221951Y-83207894D01*
X115313944Y-83232544D01*
X115418262Y-83211197D01*
X115476583Y-83177525D01*
X115547229Y-83097857D01*
X115642524Y-82926196D01*
X115704148Y-82696213D01*
X115707450Y-82499903D01*
X115686103Y-82395585D01*
X115652431Y-82337264D01*
X115572763Y-82266618D01*
%TO.C,SW31*%
X113531273Y-102411953D02*
X113380959Y-102420975D01*
X113150977Y-102359351D01*
X113071309Y-102288706D01*
X113037637Y-102230384D01*
X113016290Y-102126067D01*
X113040939Y-102034074D01*
X113111585Y-101954406D01*
X113169906Y-101920734D01*
X113274224Y-101899387D01*
X113470534Y-101902689D01*
X113574852Y-101881342D01*
X113633173Y-101847670D01*
X113703819Y-101768002D01*
X113728469Y-101676009D01*
X113707122Y-101571692D01*
X113673450Y-101513370D01*
X113593782Y-101442724D01*
X113363799Y-101381101D01*
X113213485Y-101390123D01*
X112903835Y-101257854D02*
X112415033Y-102162156D01*
X112415918Y-101422910D01*
X112047062Y-102063558D01*
X112075898Y-101036009D01*
X111799919Y-100962061D02*
X111201965Y-100801839D01*
X111425343Y-101256084D01*
X111287353Y-101219110D01*
X111183036Y-101240457D01*
X111124715Y-101274129D01*
X111054069Y-101353797D01*
X110992445Y-101583779D01*
X111013792Y-101688097D01*
X111047464Y-101746418D01*
X111127132Y-101817064D01*
X111403111Y-101891012D01*
X111507429Y-101869665D01*
X111565750Y-101835993D01*
X110023217Y-101521271D02*
X110575175Y-101669167D01*
X110299196Y-101595219D02*
X110558015Y-100629293D01*
X110613034Y-100791932D01*
X110680377Y-100908574D01*
X110760045Y-100979220D01*
%TO.C,SW32*%
X108562524Y-120880702D02*
X108412210Y-120889724D01*
X108182228Y-120828100D01*
X108102560Y-120757455D01*
X108068888Y-120699133D01*
X108047541Y-120594816D01*
X108072190Y-120502823D01*
X108142836Y-120423155D01*
X108201157Y-120389483D01*
X108305475Y-120368136D01*
X108501785Y-120371438D01*
X108606103Y-120350091D01*
X108664424Y-120316419D01*
X108735070Y-120236751D01*
X108759720Y-120144758D01*
X108738373Y-120040441D01*
X108704701Y-119982119D01*
X108625033Y-119911473D01*
X108395050Y-119849850D01*
X108244736Y-119858872D01*
X107935086Y-119726603D02*
X107446284Y-120630905D01*
X107447169Y-119891659D01*
X107078313Y-120532307D01*
X107107149Y-119504758D01*
X106831170Y-119430810D02*
X106233216Y-119270588D01*
X106456594Y-119724833D01*
X106318604Y-119687859D01*
X106214287Y-119709206D01*
X106155966Y-119742878D01*
X106085320Y-119822546D01*
X106023696Y-120052528D01*
X106045043Y-120156846D01*
X106078715Y-120215167D01*
X106158383Y-120285813D01*
X106434362Y-120359761D01*
X106538680Y-120338414D01*
X106597001Y-120304742D01*
X105840595Y-119263983D02*
X105806923Y-119205662D01*
X105727255Y-119135016D01*
X105497273Y-119073393D01*
X105392955Y-119094740D01*
X105334634Y-119128412D01*
X105263988Y-119208080D01*
X105239339Y-119300073D01*
X105248361Y-119450387D01*
X105652422Y-120150241D01*
X105054468Y-119990020D01*
%TO.C,SW33*%
X105468770Y-58818202D02*
X105318456Y-58827224D01*
X105088474Y-58765600D01*
X105008806Y-58694955D01*
X104975134Y-58636633D01*
X104953787Y-58532316D01*
X104978436Y-58440323D01*
X105049082Y-58360655D01*
X105107403Y-58326983D01*
X105211721Y-58305636D01*
X105408031Y-58308938D01*
X105512349Y-58287591D01*
X105570670Y-58253919D01*
X105641316Y-58174251D01*
X105665966Y-58082258D01*
X105644619Y-57977941D01*
X105610947Y-57919619D01*
X105531279Y-57848973D01*
X105301296Y-57787350D01*
X105150982Y-57796372D01*
X104841332Y-57664103D02*
X104352530Y-58568405D01*
X104353415Y-57829159D01*
X103984559Y-58469807D01*
X104013395Y-57442258D01*
X103737416Y-57368310D02*
X103139462Y-57208088D01*
X103362840Y-57662333D01*
X103224850Y-57625359D01*
X103120533Y-57646706D01*
X103062212Y-57680378D01*
X102991566Y-57760046D01*
X102929942Y-57990028D01*
X102951289Y-58094346D01*
X102984961Y-58152667D01*
X103064629Y-58223313D01*
X103340608Y-58297261D01*
X103444926Y-58275914D01*
X103503247Y-58242242D01*
X102817487Y-57121815D02*
X102219533Y-56961594D01*
X102442911Y-57415839D01*
X102304921Y-57378865D01*
X102200603Y-57400212D01*
X102142282Y-57433883D01*
X102071636Y-57513552D01*
X102010013Y-57743534D01*
X102031360Y-57847852D01*
X102065032Y-57906173D01*
X102144700Y-57976819D01*
X102420679Y-58050767D01*
X102524996Y-58029420D01*
X102583317Y-57995748D01*
%TO.C,SW34*%
X100593775Y-77286953D02*
X100443461Y-77295975D01*
X100213479Y-77234351D01*
X100133811Y-77163706D01*
X100100139Y-77105384D01*
X100078792Y-77001067D01*
X100103441Y-76909074D01*
X100174087Y-76829406D01*
X100232408Y-76795734D01*
X100336726Y-76774387D01*
X100533036Y-76777689D01*
X100637354Y-76756342D01*
X100695675Y-76722670D01*
X100766321Y-76643002D01*
X100790971Y-76551009D01*
X100769624Y-76446692D01*
X100735952Y-76388370D01*
X100656284Y-76317724D01*
X100426301Y-76256101D01*
X100275987Y-76265123D01*
X99966337Y-76132854D02*
X99477535Y-77037156D01*
X99478420Y-76297910D01*
X99109564Y-76938558D01*
X99138400Y-75911009D01*
X98862421Y-75837061D02*
X98264467Y-75676839D01*
X98487845Y-76131084D01*
X98349855Y-76094110D01*
X98245538Y-76115457D01*
X98187217Y-76149129D01*
X98116571Y-76228797D01*
X98054947Y-76458779D01*
X98076294Y-76563097D01*
X98109966Y-76621418D01*
X98189634Y-76692064D01*
X98465613Y-76766012D01*
X98569931Y-76744665D01*
X98628252Y-76710993D01*
X97350258Y-75776970D02*
X97177712Y-76420920D01*
X97678838Y-75470621D02*
X97723950Y-76222192D01*
X97125995Y-76061971D01*
%TO.C,SW35*%
X95625028Y-95755702D02*
X95474714Y-95764724D01*
X95244732Y-95703100D01*
X95165064Y-95632455D01*
X95131392Y-95574133D01*
X95110045Y-95469816D01*
X95134694Y-95377823D01*
X95205340Y-95298155D01*
X95263661Y-95264483D01*
X95367979Y-95243136D01*
X95564289Y-95246438D01*
X95668607Y-95225091D01*
X95726928Y-95191419D01*
X95797574Y-95111751D01*
X95822224Y-95019758D01*
X95800877Y-94915441D01*
X95767205Y-94857119D01*
X95687537Y-94786473D01*
X95457554Y-94724850D01*
X95307240Y-94733872D01*
X94997590Y-94601603D02*
X94508788Y-95505905D01*
X94509673Y-94766659D01*
X94140817Y-95407307D01*
X94169653Y-94379758D01*
X93893674Y-94305810D02*
X93295720Y-94145588D01*
X93519098Y-94599833D01*
X93381108Y-94562859D01*
X93276791Y-94584206D01*
X93218470Y-94617878D01*
X93147824Y-94697546D01*
X93086200Y-94927528D01*
X93107547Y-95031846D01*
X93141219Y-95090167D01*
X93220887Y-95160813D01*
X93496866Y-95234761D01*
X93601184Y-95213414D01*
X93659505Y-95179742D01*
X92421787Y-93911419D02*
X92881752Y-94034666D01*
X92804501Y-94506955D01*
X92770830Y-94448634D01*
X92691161Y-94377988D01*
X92461179Y-94316365D01*
X92356861Y-94337712D01*
X92298540Y-94371383D01*
X92227894Y-94451052D01*
X92166271Y-94681034D01*
X92187618Y-94785352D01*
X92221290Y-94843673D01*
X92300958Y-94914319D01*
X92530940Y-94975942D01*
X92635258Y-94954595D01*
X92693579Y-94920923D01*
%TO.C,SW36*%
X90656277Y-114036949D02*
X90505963Y-114045971D01*
X90275981Y-113984347D01*
X90196313Y-113913702D01*
X90162641Y-113855380D01*
X90141294Y-113751063D01*
X90165943Y-113659070D01*
X90236589Y-113579402D01*
X90294910Y-113545730D01*
X90399228Y-113524383D01*
X90595538Y-113527685D01*
X90699856Y-113506338D01*
X90758177Y-113472666D01*
X90828823Y-113392998D01*
X90853473Y-113301005D01*
X90832126Y-113196688D01*
X90798454Y-113138366D01*
X90718786Y-113067720D01*
X90488803Y-113006097D01*
X90338489Y-113015119D01*
X90028839Y-112882850D02*
X89540037Y-113787152D01*
X89540922Y-113047906D01*
X89172066Y-113688554D01*
X89200902Y-112661005D01*
X88924923Y-112587057D02*
X88326969Y-112426835D01*
X88550347Y-112881080D01*
X88412357Y-112844106D01*
X88308040Y-112865453D01*
X88249719Y-112899125D01*
X88179073Y-112978793D01*
X88117449Y-113208775D01*
X88138796Y-113313093D01*
X88172468Y-113371414D01*
X88252136Y-113442060D01*
X88528115Y-113516008D01*
X88632433Y-113494661D01*
X88690754Y-113460989D01*
X87499033Y-112204990D02*
X87683019Y-112254289D01*
X87762687Y-112324935D01*
X87796359Y-112383256D01*
X87851378Y-112545895D01*
X87848075Y-112742206D01*
X87749477Y-113110177D01*
X87678831Y-113189846D01*
X87620510Y-113223517D01*
X87516193Y-113244864D01*
X87332207Y-113195566D01*
X87252539Y-113124920D01*
X87218867Y-113066599D01*
X87197520Y-112962281D01*
X87259143Y-112732299D01*
X87329789Y-112652630D01*
X87388110Y-112618959D01*
X87492428Y-112597612D01*
X87676414Y-112646910D01*
X87756082Y-112717556D01*
X87789754Y-112775877D01*
X87811101Y-112880195D01*
%TO.C,SW37*%
X88593773Y-48411948D02*
X88443459Y-48420970D01*
X88213477Y-48359346D01*
X88133809Y-48288701D01*
X88100137Y-48230379D01*
X88078790Y-48126062D01*
X88103439Y-48034069D01*
X88174085Y-47954401D01*
X88232406Y-47920729D01*
X88336724Y-47899382D01*
X88533034Y-47902684D01*
X88637352Y-47881337D01*
X88695673Y-47847665D01*
X88766319Y-47767997D01*
X88790969Y-47676004D01*
X88769622Y-47571687D01*
X88735950Y-47513365D01*
X88656282Y-47442719D01*
X88426299Y-47381096D01*
X88275985Y-47390118D01*
X87966335Y-47257849D02*
X87477533Y-48162151D01*
X87478418Y-47422905D01*
X87109562Y-48063553D01*
X87138398Y-47036004D01*
X86862419Y-46962056D02*
X86264465Y-46801834D01*
X86487843Y-47256079D01*
X86349853Y-47219105D01*
X86245536Y-47240452D01*
X86187215Y-47274124D01*
X86116569Y-47353792D01*
X86054945Y-47583774D01*
X86076292Y-47688092D01*
X86109964Y-47746413D01*
X86189632Y-47817059D01*
X86465611Y-47891007D01*
X86569929Y-47869660D01*
X86628250Y-47835988D01*
X85942490Y-46715561D02*
X85298539Y-46543015D01*
X85453689Y-47619863D01*
%TO.C,SW38*%
X83625024Y-66786948D02*
X83474710Y-66795970D01*
X83244728Y-66734346D01*
X83165060Y-66663701D01*
X83131388Y-66605379D01*
X83110041Y-66501062D01*
X83134690Y-66409069D01*
X83205336Y-66329401D01*
X83263657Y-66295729D01*
X83367975Y-66274382D01*
X83564285Y-66277684D01*
X83668603Y-66256337D01*
X83726924Y-66222665D01*
X83797570Y-66142997D01*
X83822220Y-66051004D01*
X83800873Y-65946687D01*
X83767201Y-65888365D01*
X83687533Y-65817719D01*
X83457550Y-65756096D01*
X83307236Y-65765118D01*
X82997586Y-65632849D02*
X82508784Y-66537151D01*
X82509669Y-65797905D01*
X82140813Y-66438553D01*
X82169649Y-65411004D01*
X81893670Y-65337056D02*
X81295716Y-65176834D01*
X81519094Y-65631079D01*
X81381104Y-65594105D01*
X81276787Y-65615452D01*
X81218466Y-65649124D01*
X81147820Y-65728792D01*
X81086196Y-65958774D01*
X81107543Y-66063092D01*
X81141215Y-66121413D01*
X81220883Y-66192059D01*
X81496862Y-66266007D01*
X81601180Y-66244660D01*
X81659501Y-66210988D01*
X80632836Y-65442906D02*
X80737154Y-65421559D01*
X80795475Y-65387887D01*
X80866121Y-65308219D01*
X80878446Y-65262222D01*
X80857099Y-65157905D01*
X80823427Y-65099584D01*
X80743759Y-65028938D01*
X80559773Y-64979639D01*
X80455455Y-65000986D01*
X80397134Y-65034658D01*
X80326488Y-65114326D01*
X80314163Y-65160322D01*
X80335510Y-65264640D01*
X80369182Y-65322961D01*
X80448850Y-65393607D01*
X80632836Y-65442906D01*
X80712504Y-65513552D01*
X80746176Y-65571873D01*
X80767523Y-65676191D01*
X80718224Y-65860176D01*
X80647578Y-65939845D01*
X80589257Y-65973516D01*
X80484940Y-65994863D01*
X80300954Y-65945565D01*
X80221286Y-65874919D01*
X80187614Y-65816598D01*
X80166267Y-65712280D01*
X80215566Y-65528294D01*
X80286212Y-65448626D01*
X80344533Y-65414954D01*
X80448850Y-65393607D01*
%TO.C,SW39*%
X78750026Y-85255702D02*
X78599712Y-85264724D01*
X78369730Y-85203100D01*
X78290062Y-85132455D01*
X78256390Y-85074133D01*
X78235043Y-84969816D01*
X78259692Y-84877823D01*
X78330338Y-84798155D01*
X78388659Y-84764483D01*
X78492977Y-84743136D01*
X78689287Y-84746438D01*
X78793605Y-84725091D01*
X78851926Y-84691419D01*
X78922572Y-84611751D01*
X78947222Y-84519758D01*
X78925875Y-84415441D01*
X78892203Y-84357119D01*
X78812535Y-84286473D01*
X78582552Y-84224850D01*
X78432238Y-84233872D01*
X78122588Y-84101603D02*
X77633786Y-85005905D01*
X77634671Y-84266659D01*
X77265815Y-84907307D01*
X77294651Y-83879758D01*
X77018672Y-83805810D02*
X76420718Y-83645588D01*
X76644096Y-84099833D01*
X76506106Y-84062859D01*
X76401789Y-84084206D01*
X76343468Y-84117878D01*
X76272822Y-84197546D01*
X76211198Y-84427528D01*
X76232545Y-84531846D01*
X76266217Y-84590167D01*
X76345885Y-84660813D01*
X76621864Y-84734761D01*
X76726182Y-84713414D01*
X76784503Y-84679742D01*
X75701935Y-84488267D02*
X75517949Y-84438968D01*
X75438281Y-84368322D01*
X75404609Y-84310001D01*
X75349590Y-84147362D01*
X75352892Y-83951052D01*
X75451490Y-83583080D01*
X75522136Y-83503412D01*
X75580457Y-83469740D01*
X75684775Y-83448393D01*
X75868761Y-83497692D01*
X75948429Y-83568338D01*
X75982101Y-83626659D01*
X76003448Y-83730976D01*
X75941824Y-83960959D01*
X75871178Y-84040627D01*
X75812857Y-84074299D01*
X75708539Y-84095646D01*
X75524554Y-84046347D01*
X75444885Y-83975701D01*
X75411214Y-83917380D01*
X75389867Y-83813062D01*
%TO.C,SW40*%
X73781273Y-103630703D02*
X73630959Y-103639725D01*
X73400977Y-103578101D01*
X73321309Y-103507456D01*
X73287637Y-103449134D01*
X73266290Y-103344817D01*
X73290939Y-103252824D01*
X73361585Y-103173156D01*
X73419906Y-103139484D01*
X73524224Y-103118137D01*
X73720534Y-103121439D01*
X73824852Y-103100092D01*
X73883173Y-103066420D01*
X73953819Y-102986752D01*
X73978469Y-102894759D01*
X73957122Y-102790442D01*
X73923450Y-102732120D01*
X73843782Y-102661474D01*
X73613799Y-102599851D01*
X73463485Y-102608873D01*
X73153835Y-102476604D02*
X72665033Y-103380906D01*
X72665918Y-102641660D01*
X72297062Y-103282308D01*
X72325898Y-102254759D01*
X71457685Y-102367214D02*
X71285139Y-103011164D01*
X71786265Y-102060866D02*
X71831377Y-102812436D01*
X71233423Y-102652215D01*
X70854011Y-101860368D02*
X70762018Y-101835718D01*
X70657701Y-101857066D01*
X70599379Y-101890737D01*
X70528734Y-101970405D01*
X70433438Y-102142067D01*
X70371815Y-102372049D01*
X70368512Y-102568360D01*
X70389859Y-102672677D01*
X70423531Y-102730998D01*
X70503199Y-102801644D01*
X70595192Y-102826294D01*
X70699510Y-102804947D01*
X70757831Y-102771275D01*
X70828477Y-102691607D01*
X70923772Y-102519946D01*
X70985396Y-102289963D01*
X70988698Y-102093653D01*
X70967351Y-101989335D01*
X70933679Y-101931014D01*
X70854011Y-101860368D01*
%TO.C,SW41*%
X128922999Y-165442404D02*
X128798254Y-165358056D01*
X128653311Y-165169162D01*
X128633112Y-165064616D01*
X128641902Y-164997849D01*
X128688471Y-164902093D01*
X128764029Y-164844116D01*
X128868575Y-164823917D01*
X128935342Y-164832707D01*
X129031098Y-164879276D01*
X129184831Y-165001402D01*
X129280587Y-165047971D01*
X129347355Y-165056761D01*
X129451901Y-165036563D01*
X129527458Y-164978585D01*
X129574027Y-164882829D01*
X129582817Y-164816062D01*
X129562619Y-164711516D01*
X129417675Y-164522622D01*
X129292931Y-164438275D01*
X129127789Y-164144835D02*
X128189493Y-164564703D01*
X128640219Y-163978758D01*
X127957583Y-164262473D01*
X128605994Y-163464818D01*
X127848736Y-163025500D02*
X127319833Y-163431341D01*
X128295909Y-162982484D02*
X127874171Y-163606208D01*
X127497319Y-163115084D01*
X126682083Y-162600209D02*
X127029947Y-163053554D01*
X126856015Y-162826881D02*
X127649368Y-162218120D01*
X127594010Y-162380643D01*
X127576429Y-162514178D01*
X127596628Y-162618724D01*
%TO.C,SW42*%
X69187523Y-47193204D02*
X69037209Y-47202226D01*
X68807227Y-47140602D01*
X68727559Y-47069957D01*
X68693887Y-47011635D01*
X68672540Y-46907318D01*
X68697189Y-46815325D01*
X68767835Y-46735657D01*
X68826156Y-46701985D01*
X68930474Y-46680638D01*
X69126784Y-46683940D01*
X69231102Y-46662593D01*
X69289423Y-46628921D01*
X69360069Y-46549253D01*
X69384719Y-46457260D01*
X69363372Y-46352943D01*
X69329700Y-46294621D01*
X69250032Y-46223975D01*
X69020049Y-46162352D01*
X68869735Y-46171374D01*
X68560085Y-46039105D02*
X68071283Y-46943407D01*
X68072168Y-46204161D01*
X67703312Y-46844809D01*
X67732148Y-45817260D01*
X66863935Y-45929715D02*
X66691389Y-46573665D01*
X67192515Y-45623367D02*
X67237627Y-46374937D01*
X66639673Y-46214716D01*
X66465594Y-45576485D02*
X66431922Y-45518164D01*
X66352254Y-45447518D01*
X66122272Y-45385895D01*
X66017954Y-45407242D01*
X65959633Y-45440914D01*
X65888987Y-45520582D01*
X65864338Y-45612575D01*
X65873360Y-45762889D01*
X66277421Y-46462743D01*
X65679467Y-46302522D01*
%TO.C,SW43*%
X64218774Y-65661951D02*
X64068460Y-65670973D01*
X63838478Y-65609349D01*
X63758810Y-65538704D01*
X63725138Y-65480382D01*
X63703791Y-65376065D01*
X63728440Y-65284072D01*
X63799086Y-65204404D01*
X63857407Y-65170732D01*
X63961725Y-65149385D01*
X64158035Y-65152687D01*
X64262353Y-65131340D01*
X64320674Y-65097668D01*
X64391320Y-65018000D01*
X64415970Y-64926007D01*
X64394623Y-64821690D01*
X64360951Y-64763368D01*
X64281283Y-64692722D01*
X64051300Y-64631099D01*
X63900986Y-64640121D01*
X63591336Y-64507852D02*
X63102534Y-65412154D01*
X63103419Y-64672908D01*
X62734563Y-65313556D01*
X62763399Y-64286007D01*
X61895186Y-64398462D02*
X61722640Y-65042412D01*
X62223766Y-64092114D02*
X62268878Y-64843684D01*
X61670924Y-64683463D01*
X61567491Y-63965564D02*
X60969537Y-63805343D01*
X61192915Y-64259588D01*
X61054925Y-64222614D01*
X60950607Y-64243961D01*
X60892286Y-64277632D01*
X60821640Y-64357301D01*
X60760017Y-64587283D01*
X60781364Y-64691601D01*
X60815036Y-64749922D01*
X60894704Y-64820568D01*
X61170683Y-64894516D01*
X61275000Y-64873169D01*
X61333321Y-64839497D01*
%TO.C,SW44*%
X59343776Y-83943200D02*
X59193462Y-83952222D01*
X58963480Y-83890598D01*
X58883812Y-83819953D01*
X58850140Y-83761631D01*
X58828793Y-83657314D01*
X58853442Y-83565321D01*
X58924088Y-83485653D01*
X58982409Y-83451981D01*
X59086727Y-83430634D01*
X59283037Y-83433936D01*
X59387355Y-83412589D01*
X59445676Y-83378917D01*
X59516322Y-83299249D01*
X59540972Y-83207256D01*
X59519625Y-83102939D01*
X59485953Y-83044617D01*
X59406285Y-82973971D01*
X59176302Y-82912348D01*
X59025988Y-82921370D01*
X58716338Y-82789101D02*
X58227536Y-83693403D01*
X58228421Y-82954157D01*
X57859565Y-83594805D01*
X57888401Y-82567256D01*
X57020188Y-82679711D02*
X56847642Y-83323661D01*
X57348768Y-82373363D02*
X57393880Y-83124933D01*
X56795926Y-82964712D01*
X56100259Y-82433217D02*
X55927713Y-83077167D01*
X56428839Y-82126868D02*
X56473951Y-82878439D01*
X55875996Y-82718218D01*
%TO.C,SW45*%
X54375026Y-102411950D02*
X54224712Y-102420972D01*
X53994730Y-102359348D01*
X53915062Y-102288703D01*
X53881390Y-102230381D01*
X53860043Y-102126064D01*
X53884692Y-102034071D01*
X53955338Y-101954403D01*
X54013659Y-101920731D01*
X54117977Y-101899384D01*
X54314287Y-101902686D01*
X54418605Y-101881339D01*
X54476926Y-101847667D01*
X54547572Y-101767999D01*
X54572222Y-101676006D01*
X54550875Y-101571689D01*
X54517203Y-101513367D01*
X54437535Y-101442721D01*
X54207552Y-101381098D01*
X54057238Y-101390120D01*
X53747588Y-101257851D02*
X53258786Y-102162153D01*
X53259671Y-101422907D01*
X52890815Y-102063555D01*
X52919651Y-101036006D01*
X52051438Y-101148461D02*
X51878892Y-101792411D01*
X52380018Y-100842113D02*
X52425130Y-101593683D01*
X51827176Y-101433462D01*
X51171785Y-100567667D02*
X51631750Y-100690914D01*
X51554499Y-101163203D01*
X51520828Y-101104882D01*
X51441159Y-101034236D01*
X51211177Y-100972613D01*
X51106859Y-100993960D01*
X51048538Y-101027631D01*
X50977892Y-101107300D01*
X50916269Y-101337282D01*
X50937616Y-101441600D01*
X50971288Y-101499921D01*
X51050956Y-101570567D01*
X51280938Y-101632190D01*
X51385256Y-101610843D01*
X51443577Y-101577171D01*
%TO.C,SW46*%
X115668692Y-151287763D02*
X115528648Y-151232414D01*
X115346257Y-151079369D01*
X115303909Y-150981673D01*
X115298040Y-150914586D01*
X115322779Y-150811020D01*
X115383997Y-150738064D01*
X115481693Y-150695716D01*
X115548781Y-150689847D01*
X115652346Y-150714586D01*
X115828868Y-150800544D01*
X115932434Y-150825283D01*
X115999521Y-150819414D01*
X116097217Y-150777066D01*
X116158435Y-150704110D01*
X116183175Y-150600544D01*
X116177305Y-150533457D01*
X116134958Y-150435761D01*
X115952566Y-150282716D01*
X115812522Y-150227368D01*
X115587783Y-149976627D02*
X114762604Y-150589626D01*
X115075825Y-149920016D01*
X114470777Y-150344755D01*
X114931174Y-149425666D01*
X114096780Y-149160662D02*
X113668255Y-149671358D01*
X114524043Y-149021880D02*
X114247300Y-149722100D01*
X113773082Y-149324184D01*
X113581476Y-148293135D02*
X113727389Y-148415571D01*
X113769737Y-148513267D01*
X113775606Y-148580355D01*
X113756736Y-148751007D01*
X113670779Y-148927529D01*
X113425907Y-149219356D01*
X113328211Y-149261704D01*
X113261124Y-149267573D01*
X113157558Y-149242833D01*
X113011645Y-149120398D01*
X112969298Y-149022701D01*
X112963428Y-148955614D01*
X112988168Y-148852049D01*
X113141212Y-148669657D01*
X113238909Y-148627309D01*
X113305996Y-148621440D01*
X113409561Y-148646180D01*
X113555475Y-148768615D01*
X113597822Y-148866312D01*
X113603692Y-148933399D01*
X113578952Y-149036964D01*
%TO.C,SW47*%
X48281273Y-51411949D02*
X48130959Y-51420971D01*
X47900977Y-51359347D01*
X47821309Y-51288702D01*
X47787637Y-51230380D01*
X47766290Y-51126063D01*
X47790939Y-51034070D01*
X47861585Y-50954402D01*
X47919906Y-50920730D01*
X48024224Y-50899383D01*
X48220534Y-50902685D01*
X48324852Y-50881338D01*
X48383173Y-50847666D01*
X48453819Y-50767998D01*
X48478469Y-50676005D01*
X48457122Y-50571688D01*
X48423450Y-50513366D01*
X48343782Y-50442720D01*
X48113799Y-50381097D01*
X47963485Y-50390119D01*
X47653835Y-50257850D02*
X47165033Y-51162152D01*
X47165918Y-50422906D01*
X46797062Y-51063554D01*
X46825898Y-50036005D01*
X45957685Y-50148460D02*
X45785139Y-50792410D01*
X46286265Y-49842112D02*
X46331377Y-50593682D01*
X45733423Y-50433461D01*
X45629990Y-49715562D02*
X44986039Y-49543016D01*
X45141189Y-50619864D01*
%TO.C,SW48*%
X43406270Y-69880700D02*
X43255956Y-69889722D01*
X43025974Y-69828098D01*
X42946306Y-69757453D01*
X42912634Y-69699131D01*
X42891287Y-69594814D01*
X42915936Y-69502821D01*
X42986582Y-69423153D01*
X43044903Y-69389481D01*
X43149221Y-69368134D01*
X43345531Y-69371436D01*
X43449849Y-69350089D01*
X43508170Y-69316417D01*
X43578816Y-69236749D01*
X43603466Y-69144756D01*
X43582119Y-69040439D01*
X43548447Y-68982117D01*
X43468779Y-68911471D01*
X43238796Y-68849848D01*
X43088482Y-68858870D01*
X42778832Y-68726601D02*
X42290030Y-69630903D01*
X42290915Y-68891657D01*
X41922059Y-69532305D01*
X41950895Y-68504756D01*
X41082682Y-68617211D02*
X40910136Y-69261161D01*
X41411262Y-68310863D02*
X41456374Y-69062433D01*
X40858420Y-68902212D01*
X40414082Y-68536658D02*
X40518400Y-68515311D01*
X40576721Y-68481639D01*
X40647367Y-68401971D01*
X40659692Y-68355974D01*
X40638345Y-68251657D01*
X40604673Y-68193336D01*
X40525005Y-68122690D01*
X40341019Y-68073391D01*
X40236701Y-68094738D01*
X40178380Y-68128410D01*
X40107734Y-68208078D01*
X40095409Y-68254074D01*
X40116756Y-68358392D01*
X40150428Y-68416713D01*
X40230096Y-68487359D01*
X40414082Y-68536658D01*
X40493750Y-68607304D01*
X40527422Y-68665625D01*
X40548769Y-68769943D01*
X40499470Y-68953928D01*
X40428824Y-69033597D01*
X40370503Y-69067268D01*
X40266186Y-69088615D01*
X40082200Y-69039317D01*
X40002532Y-68968671D01*
X39968860Y-68910350D01*
X39947513Y-68806032D01*
X39996812Y-68622046D01*
X40067458Y-68542378D01*
X40125779Y-68508706D01*
X40230096Y-68487359D01*
%TO.C,SW49*%
X38437526Y-88255702D02*
X38287212Y-88264724D01*
X38057230Y-88203100D01*
X37977562Y-88132455D01*
X37943890Y-88074133D01*
X37922543Y-87969816D01*
X37947192Y-87877823D01*
X38017838Y-87798155D01*
X38076159Y-87764483D01*
X38180477Y-87743136D01*
X38376787Y-87746438D01*
X38481105Y-87725091D01*
X38539426Y-87691419D01*
X38610072Y-87611751D01*
X38634722Y-87519758D01*
X38613375Y-87415441D01*
X38579703Y-87357119D01*
X38500035Y-87286473D01*
X38270052Y-87224850D01*
X38119738Y-87233872D01*
X37810088Y-87101603D02*
X37321286Y-88005905D01*
X37322171Y-87266659D01*
X36953315Y-87907307D01*
X36982151Y-86879758D01*
X36113938Y-86992213D02*
X35941392Y-87636163D01*
X36442518Y-86685865D02*
X36487630Y-87437435D01*
X35889676Y-87277214D01*
X35389435Y-87488267D02*
X35205449Y-87438968D01*
X35125781Y-87368322D01*
X35092109Y-87310001D01*
X35037090Y-87147362D01*
X35040392Y-86951052D01*
X35138990Y-86583080D01*
X35209636Y-86503412D01*
X35267957Y-86469740D01*
X35372275Y-86448393D01*
X35556261Y-86497692D01*
X35635929Y-86568338D01*
X35669601Y-86626659D01*
X35690948Y-86730976D01*
X35629324Y-86960959D01*
X35558678Y-87040627D01*
X35500357Y-87074299D01*
X35396039Y-87095646D01*
X35212054Y-87046347D01*
X35132385Y-86975701D01*
X35098714Y-86917380D01*
X35077367Y-86813062D01*
%TO.C,SW50*%
X33562525Y-106630699D02*
X33412211Y-106639721D01*
X33182229Y-106578097D01*
X33102561Y-106507452D01*
X33068889Y-106449130D01*
X33047542Y-106344813D01*
X33072191Y-106252820D01*
X33142837Y-106173152D01*
X33201158Y-106139480D01*
X33305476Y-106118133D01*
X33501786Y-106121435D01*
X33606104Y-106100088D01*
X33664425Y-106066416D01*
X33735071Y-105986748D01*
X33759721Y-105894755D01*
X33738374Y-105790438D01*
X33704702Y-105732116D01*
X33625034Y-105661470D01*
X33395051Y-105599847D01*
X33244737Y-105608869D01*
X32935087Y-105476600D02*
X32446285Y-106380902D01*
X32447170Y-105641656D01*
X32078314Y-106282304D01*
X32107150Y-105254755D01*
X31279214Y-105032910D02*
X31739178Y-105156157D01*
X31661928Y-105628446D01*
X31628256Y-105570125D01*
X31548588Y-105499479D01*
X31318605Y-105437856D01*
X31214288Y-105459203D01*
X31155967Y-105492875D01*
X31085321Y-105572543D01*
X31023697Y-105802525D01*
X31045044Y-105906843D01*
X31078716Y-105965164D01*
X31158384Y-106035810D01*
X31388366Y-106097433D01*
X31492684Y-106076086D01*
X31551005Y-106042415D01*
X30635263Y-104860364D02*
X30543270Y-104835714D01*
X30438953Y-104857062D01*
X30380631Y-104890733D01*
X30309986Y-104970401D01*
X30214690Y-105142063D01*
X30153067Y-105372045D01*
X30149764Y-105568356D01*
X30171111Y-105672673D01*
X30204783Y-105730994D01*
X30284451Y-105801640D01*
X30376444Y-105826290D01*
X30480762Y-105804943D01*
X30539083Y-105771271D01*
X30609729Y-105691603D01*
X30705024Y-105519942D01*
X30766648Y-105289959D01*
X30769950Y-105093649D01*
X30748603Y-104989331D01*
X30714931Y-104931010D01*
X30635263Y-104860364D01*
%TO.C,SW51*%
X99773834Y-140093962D02*
X99625131Y-140070236D01*
X99413938Y-139960296D01*
X99351448Y-139874082D01*
X99331198Y-139809855D01*
X99332935Y-139703390D01*
X99376911Y-139618912D01*
X99463126Y-139556423D01*
X99527353Y-139536173D01*
X99633818Y-139537910D01*
X99824760Y-139583624D01*
X99931226Y-139585361D01*
X99995452Y-139565110D01*
X100081667Y-139502621D01*
X100125643Y-139418144D01*
X100127380Y-139311679D01*
X100107130Y-139247452D01*
X100044641Y-139161237D01*
X99833448Y-139051297D01*
X99684744Y-139027572D01*
X99411061Y-138831417D02*
X98738120Y-139608488D01*
X98898986Y-138886956D01*
X98400211Y-139432583D01*
X98650766Y-138435633D01*
X97890471Y-138039848D02*
X98312858Y-138259728D01*
X98135216Y-138704102D01*
X98114965Y-138639876D01*
X98052476Y-138553661D01*
X97841283Y-138443721D01*
X97734818Y-138441984D01*
X97670591Y-138462234D01*
X97584376Y-138524723D01*
X97474436Y-138735916D01*
X97472699Y-138842382D01*
X97492949Y-138906608D01*
X97555439Y-138992823D01*
X97766632Y-139102763D01*
X97873097Y-139104500D01*
X97937324Y-139084250D01*
X96541712Y-138465110D02*
X97048575Y-138728967D01*
X96795144Y-138597038D02*
X97256892Y-137710028D01*
X97275405Y-137880719D01*
X97315907Y-138009173D01*
X97378396Y-138095387D01*
%TO.C,SW52*%
X29906275Y-46536951D02*
X29755961Y-46545973D01*
X29525979Y-46484349D01*
X29446311Y-46413704D01*
X29412639Y-46355382D01*
X29391292Y-46251065D01*
X29415941Y-46159072D01*
X29486587Y-46079404D01*
X29544908Y-46045732D01*
X29649226Y-46024385D01*
X29845536Y-46027687D01*
X29949854Y-46006340D01*
X30008175Y-45972668D01*
X30078821Y-45893000D01*
X30103471Y-45801007D01*
X30082124Y-45696690D01*
X30048452Y-45638368D01*
X29968784Y-45567722D01*
X29738801Y-45506099D01*
X29588487Y-45515121D01*
X29278837Y-45382852D02*
X28790035Y-46287154D01*
X28790920Y-45547908D01*
X28422064Y-46188556D01*
X28450900Y-45161007D01*
X27622964Y-44939162D02*
X28082928Y-45062409D01*
X28005678Y-45534698D01*
X27972006Y-45476377D01*
X27892338Y-45405731D01*
X27662355Y-45344108D01*
X27558038Y-45365455D01*
X27499717Y-45399127D01*
X27429071Y-45478795D01*
X27367447Y-45708777D01*
X27388794Y-45813095D01*
X27422466Y-45871416D01*
X27502134Y-45942062D01*
X27732116Y-46003685D01*
X27836434Y-45982338D01*
X27894755Y-45948667D01*
X27184346Y-44920232D02*
X27150674Y-44861911D01*
X27071006Y-44791265D01*
X26841024Y-44729642D01*
X26736706Y-44750989D01*
X26678385Y-44784661D01*
X26607739Y-44864329D01*
X26583090Y-44956322D01*
X26592112Y-45106636D01*
X26996173Y-45806490D01*
X26398219Y-45646269D01*
%TO.C,SW53*%
X25031271Y-64911951D02*
X24880957Y-64920973D01*
X24650975Y-64859349D01*
X24571307Y-64788704D01*
X24537635Y-64730382D01*
X24516288Y-64626065D01*
X24540937Y-64534072D01*
X24611583Y-64454404D01*
X24669904Y-64420732D01*
X24774222Y-64399385D01*
X24970532Y-64402687D01*
X25074850Y-64381340D01*
X25133171Y-64347668D01*
X25203817Y-64268000D01*
X25228467Y-64176007D01*
X25207120Y-64071690D01*
X25173448Y-64013368D01*
X25093780Y-63942722D01*
X24863797Y-63881099D01*
X24713483Y-63890121D01*
X24403833Y-63757852D02*
X23915031Y-64662154D01*
X23915916Y-63922908D01*
X23547060Y-64563556D01*
X23575896Y-63536007D01*
X22747960Y-63314162D02*
X23207924Y-63437409D01*
X23130674Y-63909698D01*
X23097002Y-63851377D01*
X23017334Y-63780731D01*
X22787351Y-63719108D01*
X22683034Y-63740455D01*
X22624713Y-63774127D01*
X22554067Y-63853795D01*
X22492443Y-64083777D01*
X22513790Y-64188095D01*
X22547462Y-64246416D01*
X22627130Y-64317062D01*
X22857112Y-64378685D01*
X22961430Y-64357338D01*
X23019751Y-64323667D01*
X22379988Y-63215564D02*
X21782034Y-63055343D01*
X22005412Y-63509588D01*
X21867422Y-63472614D01*
X21763104Y-63493961D01*
X21704783Y-63527632D01*
X21634137Y-63607301D01*
X21572514Y-63837283D01*
X21593861Y-63941601D01*
X21627533Y-63999922D01*
X21707201Y-64070568D01*
X21983180Y-64144516D01*
X22087497Y-64123169D01*
X22145818Y-64089497D01*
%TO.C,SW54*%
X20062523Y-83286950D02*
X19912209Y-83295972D01*
X19682227Y-83234348D01*
X19602559Y-83163703D01*
X19568887Y-83105381D01*
X19547540Y-83001064D01*
X19572189Y-82909071D01*
X19642835Y-82829403D01*
X19701156Y-82795731D01*
X19805474Y-82774384D01*
X20001784Y-82777686D01*
X20106102Y-82756339D01*
X20164423Y-82722667D01*
X20235069Y-82642999D01*
X20259719Y-82551006D01*
X20238372Y-82446689D01*
X20204700Y-82388367D01*
X20125032Y-82317721D01*
X19895049Y-82256098D01*
X19744735Y-82265120D01*
X19435085Y-82132851D02*
X18946283Y-83037153D01*
X18947168Y-82297907D01*
X18578312Y-82938555D01*
X18607148Y-81911006D01*
X17779212Y-81689161D02*
X18239176Y-81812408D01*
X18161926Y-82284697D01*
X18128254Y-82226376D01*
X18048586Y-82155730D01*
X17818603Y-82094107D01*
X17714286Y-82115454D01*
X17655965Y-82149126D01*
X17585319Y-82228794D01*
X17523695Y-82458776D01*
X17545042Y-82563094D01*
X17578714Y-82621415D01*
X17658382Y-82692061D01*
X17888364Y-82753684D01*
X17992682Y-82732337D01*
X18051003Y-82698666D01*
X16819006Y-81776967D02*
X16646460Y-82420917D01*
X17147586Y-81470618D02*
X17192698Y-82222189D01*
X16594743Y-82061968D01*
%TO.C,SW55*%
X15093774Y-101755701D02*
X14943460Y-101764723D01*
X14713478Y-101703099D01*
X14633810Y-101632454D01*
X14600138Y-101574132D01*
X14578791Y-101469815D01*
X14603440Y-101377822D01*
X14674086Y-101298154D01*
X14732407Y-101264482D01*
X14836725Y-101243135D01*
X15033035Y-101246437D01*
X15137353Y-101225090D01*
X15195674Y-101191418D01*
X15266320Y-101111750D01*
X15290970Y-101019757D01*
X15269623Y-100915440D01*
X15235951Y-100857118D01*
X15156283Y-100786472D01*
X14926300Y-100724849D01*
X14775986Y-100733871D01*
X14466336Y-100601602D02*
X13977534Y-101505904D01*
X13978419Y-100766658D01*
X13609563Y-101407306D01*
X13638399Y-100379757D01*
X12810463Y-100157912D02*
X13270427Y-100281159D01*
X13193177Y-100753448D01*
X13159505Y-100695127D01*
X13079837Y-100624481D01*
X12849854Y-100562858D01*
X12745537Y-100584205D01*
X12687216Y-100617877D01*
X12616570Y-100697545D01*
X12554946Y-100927527D01*
X12576293Y-101031845D01*
X12609965Y-101090166D01*
X12689633Y-101160812D01*
X12919615Y-101222435D01*
X13023933Y-101201088D01*
X13082254Y-101167417D01*
X11890533Y-99911418D02*
X12350498Y-100034665D01*
X12273247Y-100506954D01*
X12239576Y-100448633D01*
X12159907Y-100377987D01*
X11929925Y-100316364D01*
X11825607Y-100337711D01*
X11767286Y-100371382D01*
X11696640Y-100451051D01*
X11635017Y-100681033D01*
X11656364Y-100785351D01*
X11690036Y-100843672D01*
X11769704Y-100914318D01*
X11999686Y-100975941D01*
X12104004Y-100954594D01*
X12162325Y-100920922D01*
%TO.C,SW56*%
X81843773Y-132693202D02*
X81693459Y-132702224D01*
X81463477Y-132640600D01*
X81383809Y-132569955D01*
X81350137Y-132511633D01*
X81328790Y-132407316D01*
X81353439Y-132315323D01*
X81424085Y-132235655D01*
X81482406Y-132201983D01*
X81586724Y-132180636D01*
X81783034Y-132183938D01*
X81887352Y-132162591D01*
X81945673Y-132128919D01*
X82016319Y-132049251D01*
X82040969Y-131957258D01*
X82019622Y-131852941D01*
X81985950Y-131794619D01*
X81906282Y-131723973D01*
X81676299Y-131662350D01*
X81525985Y-131671372D01*
X81216335Y-131539103D02*
X80727533Y-132443405D01*
X80728418Y-131704159D01*
X80359562Y-132344807D01*
X80388398Y-131317258D01*
X79560462Y-131095413D02*
X80020426Y-131218660D01*
X79943176Y-131690949D01*
X79909504Y-131632628D01*
X79829836Y-131561982D01*
X79599853Y-131500359D01*
X79495536Y-131521706D01*
X79437215Y-131555378D01*
X79366569Y-131635046D01*
X79304945Y-131865028D01*
X79326292Y-131969346D01*
X79359964Y-132027667D01*
X79439632Y-132098313D01*
X79669614Y-132159936D01*
X79773932Y-132138589D01*
X79832253Y-132104918D01*
X78686529Y-130861243D02*
X78870515Y-130910542D01*
X78950183Y-130981188D01*
X78983855Y-131039509D01*
X79038874Y-131202148D01*
X79035571Y-131398459D01*
X78936973Y-131766430D01*
X78866327Y-131846099D01*
X78808006Y-131879770D01*
X78703689Y-131901117D01*
X78519703Y-131851819D01*
X78440035Y-131781173D01*
X78406363Y-131722852D01*
X78385016Y-131618534D01*
X78446639Y-131388552D01*
X78517285Y-131308883D01*
X78575606Y-131275212D01*
X78679924Y-131253865D01*
X78863910Y-131303163D01*
X78943578Y-131373809D01*
X78977250Y-131432130D01*
X78998597Y-131536448D01*
%TD*%
M02*
