M48
; DRILL file {KiCad (5.1.9)-1} date 03/13/21 12:52:07
; FORMAT={-:-/ absolute / inch / decimal}
; #@! TF.CreationDate,2021-03-13T12:52:07-07:00
; #@! TF.GenerationSoftware,Kicad,Pcbnew,(5.1.9)-1
FMAT,2
INCH
T1C0.0157
T2C0.0315
T3C0.0430
T4C0.0591
T5C0.0670
T6C0.0787
T7C0.1570
%
G90
G05
T1
X2.5079Y-4.1415
X5.1756Y-3.1143
X5.3217Y-3.9586
X5.36Y-2.4262
X6.6817Y-4.742
X8.9658Y-4.1747
T2
X0.8982Y-4.0647
X0.9759Y-3.7749
X1.0828Y-3.3855
X1.1604Y-3.0957
X1.2858Y-2.6289
X1.3634Y-2.3391
X1.4703Y-1.9054
X1.548Y-1.6157
X1.6216Y-4.264
X1.6993Y-3.9742
X1.8099Y-3.5516
X1.8875Y-3.2618
X2.0129Y-2.795
X2.0905Y-2.5052
X2.1282Y-4.6456
X2.2011Y-2.0863
X2.2059Y-4.3559
X2.2744Y-4.6848
X2.2788Y-1.7965
X2.3521Y-4.395
X2.4206Y-4.724
X2.4447Y-4.0794
X2.4982Y-4.4342
X2.5224Y-3.7896
X2.5668Y-4.7631
X2.6293Y-3.4077
X2.6444Y-4.4734
X2.7069Y-3.1179
X2.8353Y-2.6014
X2.9129Y-2.3116
X3.0242Y-1.9239
X3.1019Y-1.6341
X3.2051Y-4.1532
X3.2827Y-3.8635
X3.397Y-3.4372
X3.4746Y-3.1474
X3.5926Y-2.6916
X3.6703Y-2.4018
X3.7752Y-1.9929
X3.8529Y-1.7031
X3.8739Y-4.5336
X3.9516Y-4.2439
X4.0667Y-3.8287
X4.1443Y-3.5389
X4.2558Y-3.1228
X4.3334Y-2.833
X4.4469Y-2.4098
X4.5245Y-2.12
X4.5744Y-4.8139
X4.652Y-4.5241
X4.77Y-4.1089
X4.8477Y-3.8192
X4.9693Y-3.3634
X5.047Y-3.0736
X5.1539Y-2.6473
X5.2315Y-2.3576
X6.2279Y-2.363
X6.3056Y-2.6528
X6.4125Y-3.0865
X6.4901Y-3.3763
X6.6081Y-3.8099
X6.6858Y-4.0997
X6.8037Y-4.5259
X6.8814Y-4.8157
X6.9329Y-2.1084
X7.0106Y-2.3982
X7.1212Y-2.817
X7.1988Y-3.1068
X7.3242Y-3.5515
X7.4018Y-3.8413
X7.5124Y-4.2786
X7.59Y-4.5684
X7.6107Y-1.77
X7.6883Y-2.0597
X7.7843Y-2.4036
X7.8619Y-2.6934
X7.9937Y-3.1423
X8.0713Y-3.4321
X8.1821Y-3.8599
X8.2598Y-4.1496
X8.3576Y-1.647
X8.4353Y-1.9368
X8.5495Y-2.3446
X8.6272Y-2.6344
X8.7415Y-3.0643
X8.8191Y-3.3541
X8.9371Y-3.7988
X8.9686Y-4.4134
X9.0147Y-4.0886
X9.0462Y-4.7031
X9.1147Y-4.3742
X9.1844Y-1.8316
X9.1924Y-4.664
X9.262Y-2.1213
X9.2645Y-4.3341
X9.3421Y-4.6238
X9.3579Y-2.4627
X9.4178Y-4.293
X9.4355Y-2.7525
X9.4954Y-4.5828
X9.5646Y-3.2378
X9.6422Y-3.5276
X9.7491Y-3.976
X9.8268Y-4.2658
X9.9115Y-1.6359
X9.9892Y-1.9257
X10.0924Y-2.3188
X10.17Y-2.6085
X10.2954Y-3.068
X10.373Y-3.3578
X10.4873Y-3.7804
X10.5649Y-4.0701
T3
X5.4108Y-4.1019
X5.4108Y-4.2019
X5.4108Y-4.3019
X5.4108Y-4.4019
X5.4108Y-4.5019
X5.4108Y-4.6019
X5.4108Y-4.7019
X5.4108Y-4.8019
X5.4108Y-4.9019
X5.4108Y-5.0019
X5.4108Y-5.1019
X5.4108Y-5.2019
X6.0108Y-4.1019
X6.0108Y-4.2019
X6.0108Y-4.3019
X6.0108Y-4.4019
X6.0108Y-4.5019
X6.0108Y-4.6019
X6.0108Y-4.7019
X6.0108Y-4.8019
X6.0108Y-4.9019
X6.0108Y-5.0019
X6.0108Y-5.1019
X6.0108Y-5.2019
T5
X0.3804Y-3.7563
X0.576Y-3.0292
X0.7667Y-3.8599
X0.7716Y-2.3058
X0.9624Y-3.1327
X0.9635Y-1.5824
X1.1075Y-3.9483
X1.158Y-2.4093
X1.2994Y-3.2248
X1.3499Y-1.6859
X1.4939Y-4.0518
X1.495Y-2.5014
X1.6858Y-3.3284
X1.687Y-1.7743
X1.8814Y-2.6049
X1.9269Y-3.7822
X2.0733Y-1.8778
X2.1225Y-3.055
X2.3132Y-3.8857
X2.3144Y-2.3353
X2.5089Y-3.1586
X2.51Y-1.6082
X2.6909Y-3.8301
X2.7008Y-2.4388
X2.8865Y-3.1067
X2.8964Y-1.7117
X3.0083Y-4.9743
X3.0773Y-3.9337
X3.0784Y-2.3796
X3.2729Y-3.2102
X3.2741Y-1.6562
X3.3553Y-4.2398
X3.3947Y-5.0779
X3.4648Y-2.4831
X3.5509Y-3.5201
X3.6604Y-1.7597
X3.7416Y-4.3434
X3.7465Y-2.793
X3.7734Y-5.2253
X3.9373Y-3.6236
X3.9384Y-2.0659
X4.0602Y-4.5093
X4.1282Y-5.41
X4.1329Y-2.8965
X4.2559Y-3.7822
X4.3248Y-2.1694
X4.4466Y-4.6128
X4.4515Y-3.0587
X4.4656Y-5.6394
X4.6422Y-3.8857
X4.6434Y-2.3353
X4.772Y-5.8965
X4.8379Y-3.1623
X5.0298Y-2.4388
X5.0581Y-6.1851
X5.3016Y-6.5024
X6.1543Y-6.5061
X6.3978Y-6.1888
X6.4224Y-2.4388
X6.6144Y-3.1623
X6.6802Y-5.8965
X6.8088Y-2.3353
X6.81Y-3.8857
X6.9866Y-5.6394
X7.0007Y-3.0587
X7.0056Y-4.6128
X7.1274Y-2.1694
X7.1964Y-3.7822
X7.323Y-2.8965
X7.3241Y-5.41
X7.392Y-4.5093
X7.5138Y-2.0659
X7.515Y-3.6199
X7.6789Y-5.2253
X7.7094Y-2.793
X7.7106Y-4.3434
X7.7955Y-1.7597
X7.9013Y-3.5164
X7.9874Y-2.4831
X8.0575Y-5.0742
X8.097Y-4.2398
X8.1818Y-1.6562
X8.183Y-3.2102
X8.3738Y-2.3796
X8.375Y-3.9337
X8.4439Y-4.9706
X8.5558Y-1.7117
X8.5694Y-3.1067
X8.7514Y-2.4352
X8.7613Y-3.8301
X8.9422Y-1.6082
X8.9434Y-3.1586
X9.1378Y-2.3316
X9.139Y-3.8857
X9.3297Y-3.055
X9.3789Y-1.8778
X9.5254Y-3.7822
X9.5708Y-2.6049
X9.7653Y-1.7743
X9.7664Y-3.3284
X9.9572Y-2.5014
X9.9621Y-4.0518
X10.1023Y-1.6859
X10.1528Y-3.2248
X10.2979Y-2.4093
X10.3484Y-3.9483
X10.4887Y-1.5824
X10.4899Y-3.1327
X10.6843Y-2.3058
X10.6855Y-3.8562
X10.8762Y-3.0292
X11.0719Y-3.7526
T6
X0.0709Y-4.0943
X0.8682Y-1.1268
X1.2299Y-2.8136
X2.6989Y-5.3087
X2.7948Y-2.7656
X3.5773Y-1.2855
X4.1937Y-3.3377
X4.5187Y-5.1342
X5.0574Y-6.9327
X6.3935Y-6.9364
X6.9334Y-5.1354
X7.2591Y-3.335
X7.8736Y-1.2855
X8.6609Y-2.7668
X8.752Y-5.3087
X10.2233Y-2.811
X10.5864Y-1.1268
X11.38Y-4.0906
T7
X0.5736Y-3.8081
X0.7692Y-3.081
X0.9648Y-2.3576
X1.1567Y-1.6341
X1.3007Y-4.0
X1.4926Y-3.2766
X1.6882Y-2.5532
X1.8801Y-1.8261
X2.1201Y-3.8339
X2.3157Y-3.1068
X2.5076Y-2.3871
X2.7032Y-1.66
X2.8841Y-3.8819
X3.0797Y-3.1585
X3.2015Y-5.0261
X3.2716Y-2.4314
X3.4673Y-1.7079
X3.5485Y-4.2916
X3.7441Y-3.5719
X3.9397Y-2.8448
X3.9508Y-5.3177
X4.1316Y-2.1176
X4.2534Y-4.561
X4.449Y-3.8339
X4.6188Y-5.768
X4.6447Y-3.1105
X4.8366Y-2.3871
X5.1799Y-6.3438
X6.2761Y-6.3475
X6.6156Y-2.3871
X6.8076Y-3.1105
X6.8334Y-5.768
X7.0032Y-3.8339
X7.1988Y-4.561
X7.3206Y-2.1176
X7.5015Y-5.3177
X7.5162Y-2.8448
X7.7081Y-3.5682
X7.9038Y-4.2916
X7.9887Y-1.7079
X8.1806Y-2.4314
X8.2507Y-5.0224
X8.3762Y-3.1585
X8.5681Y-3.8819
X8.749Y-1.66
X8.9446Y-2.3834
X9.1365Y-3.1068
X9.3322Y-3.8339
X9.5721Y-1.8261
X9.764Y-2.5532
X9.9596Y-3.2766
X10.1552Y-4.0
X10.2955Y-1.6341
X10.4911Y-2.3576
X10.6831Y-3.081
X10.8787Y-3.8044
T4
G00X0.5183Y-3.6111
M15
G01X0.453Y-3.671
M16
G05
G00X0.7139Y-2.884
M15
G01X0.6486Y-2.9439
M16
G05
G00X0.7219Y-3.6408
M15
G01X0.7145Y-3.6624
M16
G05
G00X0.9095Y-2.1606
M15
G01X0.8442Y-2.2204
M16
G05
G00X0.9175Y-2.9137
M15
G01X0.9101Y-2.9353
M16
G05
G00X1.1015Y-1.4372
M15
G01X1.0362Y-1.497
M16
G05
G00X1.1131Y-2.1903
M15
G01X1.1057Y-2.2119
M16
G05
G00X1.2454Y-3.8031
M15
G01X1.1801Y-3.8629
M16
G05
G00X1.3051Y-1.4668
M15
G01X1.2977Y-1.4884
M16
G05
G00X1.4373Y-3.0796
M15
G01X1.372Y-3.1395
M16
G05
G00X1.449Y-3.8327
M15
G01X1.4416Y-3.8543
M16
G05
G00X1.633Y-2.3562
M15
G01X1.5676Y-2.4161
M16
G05
G00X1.6409Y-3.1093
M15
G01X1.6335Y-3.1309
M16
G05
G00X1.8249Y-1.6291
M15
G01X1.7596Y-1.6889
M16
G05
G00X1.8366Y-2.3859
M15
G01X1.8292Y-2.4075
M16
G05
G00X2.0285Y-1.6588
M15
G01X2.0211Y-1.6804
M16
G05
G00X2.0648Y-3.637
M15
G01X1.9995Y-3.6968
M16
G05
G00X2.2604Y-2.9099
M15
G01X2.1951Y-2.9697
M16
G05
G00X2.2684Y-3.6666
M15
G01X2.261Y-3.6883
M16
G05
G00X2.4523Y-2.1901
M15
G01X2.387Y-2.25
M16
G05
G00X2.464Y-2.9395
M15
G01X2.4566Y-2.9611
M16
G05
G00X2.648Y-1.463
M15
G01X2.5827Y-1.5229
M16
G05
G00X2.6559Y-2.2198
M15
G01X2.6486Y-2.2414
M16
G05
G00X2.8288Y-3.685
M15
G01X2.7635Y-3.7448
M16
G05
G00X2.8516Y-1.4927
M15
G01X2.8442Y-1.5143
M16
G05
G00X3.0244Y-2.9615
M15
G01X2.9591Y-3.0214
M16
G05
G00X3.0324Y-3.7146
M15
G01X3.025Y-3.7362
M16
G05
G00X3.1462Y-4.8292
M15
G01X3.0809Y-4.889
M16
G05
G00X3.2164Y-2.2344
M15
G01X3.1511Y-2.2943
M16
G05
G00X3.228Y-2.9912
M15
G01X3.2206Y-3.0128
M16
G05
G00X3.3498Y-4.8588
M15
G01X3.3424Y-4.8804
M16
G05
G00X3.412Y-1.511
M15
G01X3.3467Y-1.5708
M16
G05
G00X3.42Y-2.2641
M15
G01X3.4126Y-2.2857
M16
G05
G00X3.4932Y-4.0947
M15
G01X3.4279Y-4.1545
M16
G05
G00X3.6156Y-1.5407
M15
G01X3.6082Y-1.5623
M16
G05
G00X3.6888Y-3.3749
M15
G01X3.6235Y-3.4348
M16
G05
G00X3.6968Y-4.1243
M15
G01X3.6894Y-4.1459
M16
G05
G00X3.8844Y-2.6478
M15
G01X3.8191Y-2.7076
M16
G05
G00X3.8924Y-3.4046
M15
G01X3.885Y-3.4262
M16
G05
G00X3.9394Y-5.1134
M15
G01X3.8627Y-5.1577
M16
G05
G00X4.0764Y-1.9207
M15
G01X4.0111Y-1.9805
M16
G05
G00X4.088Y-2.6775
M15
G01X4.0806Y-2.6991
M16
G05
G00X4.1318Y-5.1865
M15
G01X4.1199Y-5.206
M16
G05
G00X4.1982Y-4.3641
M15
G01X4.1329Y-4.4239
M16
G05
G00X4.28Y-1.9504
M15
G01X4.2726Y-1.972
M16
G05
G00X4.3938Y-3.637
M15
G01X4.3285Y-3.6968
M16
G05
G00X4.4018Y-4.3938
M15
G01X4.3944Y-4.4154
M16
G05
G00X4.5894Y-2.9136
M15
G01X4.5241Y-2.9734
M16
G05
G00X4.5974Y-3.6666
M15
G01X4.59Y-3.6883
M16
G05
G00X4.652Y-5.5661
M15
G01X4.5675Y-5.5928
M16
G05
G00X4.7813Y-2.1901
M15
G01X4.716Y-2.25
M16
G05
G00X4.793Y-2.9432
M15
G01X4.7856Y-2.9648
M16
G05
G00X4.824Y-5.6791
M15
G01X4.8081Y-5.6955
M16
G05
G00X4.9849Y-2.2198
M15
G01X4.9775Y-2.2414
M16
G05
G00X5.2559Y-6.1539
M15
G01X5.1677Y-6.1616
M16
G05
G00X5.3994Y-6.3014
M15
G01X5.3804Y-6.314
M16
G05
G00X6.073Y-6.3231
M15
G01X6.1033Y-6.4064
M16
G05
G00X6.1783Y-6.1464
M15
G01X6.1954Y-6.1615
M16
G05
G00X6.4693Y-2.2441
M15
G01X6.4427Y-2.3286
M16
G05
G00X6.6404Y-5.7003
M15
G01X6.6519Y-5.7881
M16
G05
G00X6.6612Y-2.9676
M15
G01X6.6346Y-3.0521
M16
G05
G00X6.6605Y-2.168
M15
G01X6.6649Y-2.1904
M16
G05
G00X6.7815Y-5.5505
M15
G01X6.7949Y-5.569
M16
G05
G00X6.8568Y-3.691
M15
G01X6.8302Y-3.7755
M16
G05
G00X6.8524Y-2.8915
M15
G01X6.8568Y-2.9139
M16
G05
G00X7.0525Y-4.4181
M15
G01X7.0258Y-4.5026
M16
G05
G00X7.048Y-3.6149
M15
G01X7.0524Y-3.6373
M16
G05
G00X7.1743Y-1.9747
M15
G01X7.1476Y-2.0592
M16
G05
G00X7.2436Y-4.342
M15
G01X7.248Y-4.3644
M16
G05
G00X7.3277Y-5.2098
M15
G01X7.3199Y-5.2981
M16
G05
G00X7.3699Y-2.7018
M15
G01X7.3433Y-2.7863
M16
G05
G00X7.3654Y-1.8986
M15
G01X7.3698Y-1.921
M16
G05
G00X7.4978Y-5.0941
M15
G01X7.507Y-5.1151
M16
G05
G00X7.5618Y-3.4252
M15
G01X7.5352Y-3.5097
M16
G05
G00X7.561Y-2.6257
M15
G01X7.5654Y-2.6481
M16
G05
G00X7.7574Y-4.1487
M15
G01X7.7308Y-4.2332
M16
G05
G00X7.753Y-3.3491
M15
G01X7.7574Y-3.3715
M16
G05
G00X7.8423Y-1.565
M15
G01X7.8157Y-1.6495
M16
G05
G00X7.9486Y-4.0726
M15
G01X7.953Y-4.095
M16
G05
G00X8.0343Y-2.2884
M15
G01X8.0076Y-2.3729
M16
G05
G00X8.0335Y-1.4889
M15
G01X8.0379Y-1.5113
M16
G05
G00X8.1044Y-4.8795
M15
G01X8.0777Y-4.964
M16
G05
G00X8.2299Y-3.0156
M15
G01X8.2032Y-3.1
M16
G05
G00X8.2254Y-2.2123
M15
G01X8.2298Y-2.2347
M16
G05
G00X8.2955Y-4.8034
M15
G01X8.2999Y-4.8258
M16
G05
G00X8.4218Y-3.739
M15
G01X8.3952Y-3.8235
M16
G05
G00X8.421Y-2.9394
M15
G01X8.4254Y-2.9619
M16
G05
G00X8.6027Y-1.517
M15
G01X8.576Y-1.6015
M16
G05
G00X8.613Y-3.6629
M15
G01X8.6174Y-3.6853
M16
G05
G00X8.7983Y-2.2405
M15
G01X8.7716Y-2.3249
M16
G05
G00X8.7938Y-1.4409
M15
G01X8.7982Y-1.4633
M16
G05
G00X8.9902Y-2.9639
M15
G01X8.9636Y-3.0484
M16
G05
G00X8.9894Y-2.1643
M15
G01X8.9938Y-2.1868
M16
G05
G00X9.1858Y-3.691
M15
G01X9.1592Y-3.7755
M16
G05
G00X9.1814Y-2.8878
M15
G01X9.1858Y-2.9102
M16
G05
G00X9.377Y-3.6149
M15
G01X9.3814Y-3.6373
M16
G05
G00X9.4257Y-1.6831
M15
G01X9.3991Y-1.7676
M16
G05
G00X9.6177Y-2.4102
M15
G01X9.591Y-2.4947
M16
G05
G00X9.6169Y-1.607
M15
G01X9.6213Y-1.6294
M16
G05
G00X9.8133Y-3.1337
M15
G01X9.7867Y-3.2181
M16
G05
G00X9.8088Y-2.3341
M15
G01X9.8132Y-2.3565
M16
G05
G00X10.0089Y-3.8571
M15
G01X9.9823Y-3.9416
M16
G05
G00X10.0045Y-3.0576
M15
G01X10.0088Y-3.08
M16
G05
G00X10.1492Y-1.4912
M15
G01X10.1225Y-1.5757
M16
G05
G00X10.2001Y-3.781
M15
G01X10.2045Y-3.8034
M16
G05
G00X10.3448Y-2.2146
M15
G01X10.3182Y-2.2991
M16
G05
G00X10.3403Y-1.4151
M15
G01X10.3447Y-1.4375
M16
G05
G00X10.5367Y-2.938
M15
G01X10.5101Y-3.0225
M16
G05
G00X10.5359Y-2.1385
M15
G01X10.5403Y-2.1609
M16
G05
G00X10.7323Y-3.6615
M15
G01X10.7057Y-3.7459
M16
G05
G00X10.7279Y-2.8619
M15
G01X10.7323Y-2.8843
M16
G05
G00X10.9235Y-3.5854
M15
G01X10.9279Y-3.6078
M16
G05
T0
M30
