%TF.GenerationSoftware,KiCad,Pcbnew,(5.1.9)-1*%
%TF.CreationDate,2021-03-20T23:04:42-06:00*%
%TF.ProjectId,Pteron56v0,50746572-6f6e-4353-9676-302e6b696361,rev?*%
%TF.SameCoordinates,Original*%
%TF.FileFunction,Soldermask,Bot*%
%TF.FilePolarity,Negative*%
%FSLAX46Y46*%
G04 Gerber Fmt 4.6, Leading zero omitted, Abs format (unit mm)*
G04 Created by KiCad (PCBNEW (5.1.9)-1) date 2021-03-20 23:04:42*
%MOMM*%
%LPD*%
G01*
G04 APERTURE LIST*
%ADD10C,1.701800*%
%ADD11C,3.987800*%
%ADD12C,2.000000*%
%ADD13R,1.752600X1.752600*%
%ADD14C,1.752600*%
%ADD15C,0.100000*%
G04 APERTURE END LIST*
%TO.C,SW26*%
G36*
G01*
X185744850Y-84969660D02*
X185633188Y-84400510D01*
G75*
G02*
X186619152Y-82933242I1226616J240652D01*
G01*
X186619152Y-82933242D01*
G75*
G02*
X188086420Y-83919206I240652J-1226616D01*
G01*
X188198082Y-84488356D01*
G75*
G02*
X187212118Y-85955624I-1226616J-240652D01*
G01*
X187212118Y-85955624D01*
G75*
G02*
X185744850Y-84969660I-240652J1226616D01*
G01*
G37*
G36*
G01*
X180135673Y-87862889D02*
X180812261Y-85717025D01*
G75*
G02*
X182380289Y-84900761I1192146J-375882D01*
G01*
X182380289Y-84900761D01*
G75*
G02*
X183196553Y-86468789I-375882J-1192146D01*
G01*
X182519965Y-88614653D01*
G75*
G02*
X180951937Y-89430917I-1192146J375882D01*
G01*
X180951937Y-89430917D01*
G75*
G02*
X180135673Y-87862889I375882J1192146D01*
G01*
G37*
D10*
X190628148Y-88408641D03*
X180814342Y-91038243D03*
D11*
X185721245Y-89723442D03*
%TD*%
%TO.C,SW3*%
G36*
G01*
X284182355Y-84219660D02*
X284070693Y-83650510D01*
G75*
G02*
X285056657Y-82183242I1226616J240652D01*
G01*
X285056657Y-82183242D01*
G75*
G02*
X286523925Y-83169206I240652J-1226616D01*
G01*
X286635587Y-83738356D01*
G75*
G02*
X285649623Y-85205624I-1226616J-240652D01*
G01*
X285649623Y-85205624D01*
G75*
G02*
X284182355Y-84219660I-240652J1226616D01*
G01*
G37*
G36*
G01*
X278573178Y-87112889D02*
X279249766Y-84967025D01*
G75*
G02*
X280817794Y-84150761I1192146J-375882D01*
G01*
X280817794Y-84150761D01*
G75*
G02*
X281634058Y-85718789I-375882J-1192146D01*
G01*
X280957470Y-87864653D01*
G75*
G02*
X279389442Y-88680917I-1192146J375882D01*
G01*
X279389442Y-88680917D01*
G75*
G02*
X278573178Y-87112889I375882J1192146D01*
G01*
G37*
D10*
X289065653Y-87658641D03*
X279251847Y-90288243D03*
D11*
X284158750Y-88973442D03*
%TD*%
D12*
%TO.C,REF\u002A\u002A*%
X272481858Y-82116353D03*
%TD*%
%TO.C,REF\u002A\u002A*%
X232795071Y-80993911D03*
%TD*%
%TO.C,REF\u002A\u002A*%
X197190130Y-95426706D03*
%TD*%
%TO.C,REF\u002A\u002A*%
X188916347Y-141155982D03*
%TD*%
%TO.C,REF\u002A\u002A*%
X127584580Y-141124844D03*
%TD*%
%TO.C,REF\u002A\u002A*%
X119329312Y-95494092D03*
%TD*%
%TO.C,REF\u002A\u002A*%
X83798062Y-80962843D03*
%TD*%
%TO.C,REF\u002A\u002A*%
X44048063Y-82181592D03*
%TD*%
%TO.C,REF\u002A\u002A*%
X14610564Y-114712840D03*
%TD*%
%TO.C,REF\u002A\u002A*%
X81360560Y-145556593D03*
%TD*%
%TO.C,REF\u002A\u002A*%
X141266812Y-186806590D03*
%TD*%
%TO.C,REF\u002A\u002A*%
X175204313Y-186900342D03*
%TD*%
%TO.C,REF\u002A\u002A*%
X235110565Y-145556593D03*
%TD*%
%TO.C,REF\u002A\u002A*%
X301860562Y-114619092D03*
%TD*%
%TO.C,REF\u002A\u002A*%
X281704314Y-39337841D03*
%TD*%
%TO.C,REF\u002A\u002A*%
X212798062Y-43369091D03*
%TD*%
%TO.C,REF\u002A\u002A*%
X103673064Y-43369091D03*
%TD*%
%TO.C,REF\u002A\u002A*%
X34860561Y-39337840D03*
%TD*%
D13*
%TO.C,U1*%
X150244110Y-114904169D03*
D14*
X150244110Y-117444169D03*
X150244110Y-119984169D03*
X150244110Y-122524169D03*
X150244110Y-125064169D03*
X150244110Y-127604169D03*
X150244110Y-130144169D03*
X150244110Y-132684169D03*
X150244110Y-135224169D03*
X150244110Y-137764169D03*
X150244110Y-140304169D03*
X150244110Y-142844169D03*
X165484110Y-142844169D03*
X165484110Y-140304169D03*
X165484110Y-137764169D03*
X165484110Y-135224169D03*
X165484110Y-132684169D03*
X165484110Y-130144169D03*
X165484110Y-127604169D03*
X165484110Y-125064169D03*
X165484110Y-122524169D03*
X165484110Y-119984169D03*
X165484110Y-117444169D03*
X165484110Y-114904169D03*
%TD*%
D11*
%TO.C,SW11*%
X235033744Y-52879695D03*
D10*
X230126841Y-54194496D03*
X239940647Y-51564894D03*
G36*
G01*
X229448172Y-51019142D02*
X230124760Y-48873278D01*
G75*
G02*
X231692788Y-48057014I1192146J-375882D01*
G01*
X231692788Y-48057014D01*
G75*
G02*
X232509052Y-49625042I-375882J-1192146D01*
G01*
X231832464Y-51770906D01*
G75*
G02*
X230264436Y-52587170I-1192146J375882D01*
G01*
X230264436Y-52587170D01*
G75*
G02*
X229448172Y-51019142I375882J1192146D01*
G01*
G37*
G36*
G01*
X235057349Y-48125913D02*
X234945687Y-47556763D01*
G75*
G02*
X235931651Y-46089495I1226616J240652D01*
G01*
X235931651Y-46089495D01*
G75*
G02*
X237398919Y-47075459I240652J-1226616D01*
G01*
X237510581Y-47644609D01*
G75*
G02*
X236524617Y-49111877I-1226616J-240652D01*
G01*
X236524617Y-49111877D01*
G75*
G02*
X235057349Y-48125913I-240652J1226616D01*
G01*
G37*
%TD*%
D11*
%TO.C,SW1*%
X274314991Y-52223441D03*
D10*
X269408088Y-53538242D03*
X279221894Y-50908640D03*
G36*
G01*
X268729419Y-50362888D02*
X269406007Y-48217024D01*
G75*
G02*
X270974035Y-47400760I1192146J-375882D01*
G01*
X270974035Y-47400760D01*
G75*
G02*
X271790299Y-48968788I-375882J-1192146D01*
G01*
X271113711Y-51114652D01*
G75*
G02*
X269545683Y-51930916I-1192146J375882D01*
G01*
X269545683Y-51930916D01*
G75*
G02*
X268729419Y-50362888I375882J1192146D01*
G01*
G37*
G36*
G01*
X274338596Y-47469659D02*
X274226934Y-46900509D01*
G75*
G02*
X275212898Y-45433241I1226616J240652D01*
G01*
X275212898Y-45433241D01*
G75*
G02*
X276680166Y-46419205I240652J-1226616D01*
G01*
X276791828Y-46988355D01*
G75*
G02*
X275805864Y-48455623I-1226616J-240652D01*
G01*
X275805864Y-48455623D01*
G75*
G02*
X274338596Y-47469659I-240652J1226616D01*
G01*
G37*
%TD*%
%TO.C,SW17*%
G36*
G01*
X220619849Y-67719662D02*
X220508187Y-67150512D01*
G75*
G02*
X221494151Y-65683244I1226616J240652D01*
G01*
X221494151Y-65683244D01*
G75*
G02*
X222961419Y-66669208I240652J-1226616D01*
G01*
X223073081Y-67238358D01*
G75*
G02*
X222087117Y-68705626I-1226616J-240652D01*
G01*
X222087117Y-68705626D01*
G75*
G02*
X220619849Y-67719662I-240652J1226616D01*
G01*
G37*
G36*
G01*
X215010672Y-70612891D02*
X215687260Y-68467027D01*
G75*
G02*
X217255288Y-67650763I1192146J-375882D01*
G01*
X217255288Y-67650763D01*
G75*
G02*
X218071552Y-69218791I-375882J-1192146D01*
G01*
X217394964Y-71364655D01*
G75*
G02*
X215826936Y-72180919I-1192146J375882D01*
G01*
X215826936Y-72180919D01*
G75*
G02*
X215010672Y-70612891I375882J1192146D01*
G01*
G37*
X225503147Y-71158643D03*
X215689341Y-73788245D03*
D11*
X220596244Y-72473444D03*
%TD*%
%TO.C,SW15*%
X186377496Y-157223436D03*
D10*
X182485990Y-160488797D03*
X190269002Y-153958075D03*
G36*
G01*
X180528945Y-157897766D02*
X180235261Y-155667016D01*
G75*
G02*
X181311409Y-154264552I1239306J163158D01*
G01*
X181311409Y-154264552D01*
G75*
G02*
X182713873Y-155340700I163158J-1239306D01*
G01*
X183007557Y-157571450D01*
G75*
G02*
X181931409Y-158973914I-1239306J-163158D01*
G01*
X181931409Y-158973914D01*
G75*
G02*
X180528945Y-157897766I-163158J1239306D01*
G01*
G37*
G36*
G01*
X184389855Y-152905070D02*
X184048121Y-152436436D01*
G75*
G02*
X184321613Y-150689954I1009987J736495D01*
G01*
X184321613Y-150689954D01*
G75*
G02*
X186068095Y-150963446I736495J-1009987D01*
G01*
X186409829Y-151432080D01*
G75*
G02*
X186136337Y-153178562I-1009987J-736495D01*
G01*
X186136337Y-153178562D01*
G75*
G02*
X184389855Y-152905070I-736495J1009987D01*
G01*
G37*
%TD*%
%TO.C,D1*%
G36*
G01*
X264768598Y-53042081D02*
X264768598Y-53042081D01*
G75*
G02*
X263788802Y-52476395I-207055J772741D01*
G01*
X263788802Y-52476395D01*
G75*
G02*
X264354488Y-51496599I772741J207055D01*
G01*
X264354488Y-51496599D01*
G75*
G02*
X265334284Y-52062285I207055J-772741D01*
G01*
X265334284Y-52062285D01*
G75*
G02*
X264768598Y-53042081I-772741J-207055D01*
G01*
G37*
D15*
G36*
X267513540Y-60195380D02*
G01*
X265968059Y-60609491D01*
X265553948Y-59064010D01*
X267099429Y-58649899D01*
X267513540Y-60195380D01*
G37*
%TD*%
%TO.C,D2*%
G36*
X272107293Y-77539128D02*
G01*
X270561812Y-77953239D01*
X270147701Y-76407758D01*
X271693182Y-75993647D01*
X272107293Y-77539128D01*
G37*
G36*
G01*
X269362351Y-70385829D02*
X269362351Y-70385829D01*
G75*
G02*
X268382555Y-69820143I-207055J772741D01*
G01*
X268382555Y-69820143D01*
G75*
G02*
X268948241Y-68840347I772741J207055D01*
G01*
X268948241Y-68840347D01*
G75*
G02*
X269928037Y-69406033I207055J-772741D01*
G01*
X269928037Y-69406033D01*
G75*
G02*
X269362351Y-70385829I-772741J-207055D01*
G01*
G37*
%TD*%
%TO.C,D3*%
G36*
X277263536Y-96570378D02*
G01*
X275718055Y-96984489D01*
X275303944Y-95439008D01*
X276849425Y-95024897D01*
X277263536Y-96570378D01*
G37*
G36*
G01*
X274518594Y-89417079D02*
X274518594Y-89417079D01*
G75*
G02*
X273538798Y-88851393I-207055J772741D01*
G01*
X273538798Y-88851393D01*
G75*
G02*
X274104484Y-87871597I772741J207055D01*
G01*
X274104484Y-87871597D01*
G75*
G02*
X275084280Y-88437283I207055J-772741D01*
G01*
X275084280Y-88437283D01*
G75*
G02*
X274518594Y-89417079I-772741J-207055D01*
G01*
G37*
%TD*%
%TO.C,D4*%
G36*
G01*
X279393596Y-107510830D02*
X279393596Y-107510830D01*
G75*
G02*
X278413800Y-106945144I-207055J772741D01*
G01*
X278413800Y-106945144D01*
G75*
G02*
X278979486Y-105965348I772741J207055D01*
G01*
X278979486Y-105965348D01*
G75*
G02*
X279959282Y-106531034I207055J-772741D01*
G01*
X279959282Y-106531034D01*
G75*
G02*
X279393596Y-107510830I-772741J-207055D01*
G01*
G37*
G36*
X282138538Y-114664129D02*
G01*
X280593057Y-115078240D01*
X280178946Y-113532759D01*
X281724427Y-113118648D01*
X282138538Y-114664129D01*
G37*
%TD*%
%TO.C,D5*%
G36*
G01*
X240817987Y-123588581D02*
X240817987Y-123588581D01*
G75*
G02*
X239838191Y-123022895I-207055J772741D01*
G01*
X239838191Y-123022895D01*
G75*
G02*
X240403877Y-122043099I772741J207055D01*
G01*
X240403877Y-122043099D01*
G75*
G02*
X241383673Y-122608785I207055J-772741D01*
G01*
X241383673Y-122608785D01*
G75*
G02*
X240817987Y-123588581I-772741J-207055D01*
G01*
G37*
G36*
X243562929Y-130741880D02*
G01*
X242017448Y-131155991D01*
X241603337Y-129610510D01*
X243148818Y-129196399D01*
X243562929Y-130741880D01*
G37*
%TD*%
%TO.C,D6*%
G36*
X249044792Y-65164124D02*
G01*
X247499311Y-65578235D01*
X247085200Y-64032754D01*
X248630681Y-63618643D01*
X249044792Y-65164124D01*
G37*
G36*
G01*
X246299850Y-58010825D02*
X246299850Y-58010825D01*
G75*
G02*
X245320054Y-57445139I-207055J772741D01*
G01*
X245320054Y-57445139D01*
G75*
G02*
X245885740Y-56465343I772741J207055D01*
G01*
X245885740Y-56465343D01*
G75*
G02*
X246865536Y-57031029I207055J-772741D01*
G01*
X246865536Y-57031029D01*
G75*
G02*
X246299850Y-58010825I-772741J-207055D01*
G01*
G37*
%TD*%
%TO.C,D7*%
G36*
G01*
X250706101Y-74042078D02*
X250706101Y-74042078D01*
G75*
G02*
X249726305Y-73476392I-207055J772741D01*
G01*
X249726305Y-73476392D01*
G75*
G02*
X250291991Y-72496596I772741J207055D01*
G01*
X250291991Y-72496596D01*
G75*
G02*
X251271787Y-73062282I207055J-772741D01*
G01*
X251271787Y-73062282D01*
G75*
G02*
X250706101Y-74042078I-772741J-207055D01*
G01*
G37*
G36*
X253451043Y-81195377D02*
G01*
X251905562Y-81609488D01*
X251491451Y-80064007D01*
X253036932Y-79649896D01*
X253451043Y-81195377D01*
G37*
%TD*%
%TO.C,D8*%
G36*
G01*
X255956099Y-93729583D02*
X255956099Y-93729583D01*
G75*
G02*
X254976303Y-93163897I-207055J772741D01*
G01*
X254976303Y-93163897D01*
G75*
G02*
X255541989Y-92184101I772741J207055D01*
G01*
X255541989Y-92184101D01*
G75*
G02*
X256521785Y-92749787I207055J-772741D01*
G01*
X256521785Y-92749787D01*
G75*
G02*
X255956099Y-93729583I-772741J-207055D01*
G01*
G37*
G36*
X258701041Y-100882882D02*
G01*
X257155560Y-101296993D01*
X256741449Y-99751512D01*
X258286930Y-99337401D01*
X258701041Y-100882882D01*
G37*
%TD*%
%TO.C,D9*%
G36*
X263388542Y-119632878D02*
G01*
X261843061Y-120046989D01*
X261428950Y-118501508D01*
X262974431Y-118087397D01*
X263388542Y-119632878D01*
G37*
G36*
G01*
X260643600Y-112479579D02*
X260643600Y-112479579D01*
G75*
G02*
X259663804Y-111913893I-207055J772741D01*
G01*
X259663804Y-111913893D01*
G75*
G02*
X260229490Y-110934097I772741J207055D01*
G01*
X260229490Y-110934097D01*
G75*
G02*
X261209286Y-111499783I207055J-772741D01*
G01*
X261209286Y-111499783D01*
G75*
G02*
X260643600Y-112479579I-772741J-207055D01*
G01*
G37*
%TD*%
%TO.C,D10*%
G36*
X247275700Y-129747040D02*
G01*
X245730219Y-130161151D01*
X245316108Y-128615670D01*
X246861589Y-128201559D01*
X247275700Y-129747040D01*
G37*
G36*
G01*
X244530758Y-122593741D02*
X244530758Y-122593741D01*
G75*
G02*
X243550962Y-122028055I-207055J772741D01*
G01*
X243550962Y-122028055D01*
G75*
G02*
X244116648Y-121048259I772741J207055D01*
G01*
X244116648Y-121048259D01*
G75*
G02*
X245096444Y-121613945I207055J-772741D01*
G01*
X245096444Y-121613945D01*
G75*
G02*
X244530758Y-122593741I-772741J-207055D01*
G01*
G37*
%TD*%
%TO.C,D11*%
G36*
G01*
X225299847Y-53323329D02*
X225299847Y-53323329D01*
G75*
G02*
X224320051Y-52757643I-207055J772741D01*
G01*
X224320051Y-52757643D01*
G75*
G02*
X224885737Y-51777847I772741J207055D01*
G01*
X224885737Y-51777847D01*
G75*
G02*
X225865533Y-52343533I207055J-772741D01*
G01*
X225865533Y-52343533D01*
G75*
G02*
X225299847Y-53323329I-772741J-207055D01*
G01*
G37*
G36*
X228044789Y-60476628D02*
G01*
X226499308Y-60890739D01*
X226085197Y-59345258D01*
X227630678Y-58931147D01*
X228044789Y-60476628D01*
G37*
%TD*%
%TO.C,D12*%
G36*
X232919797Y-78195377D02*
G01*
X231374316Y-78609488D01*
X230960205Y-77064007D01*
X232505686Y-76649896D01*
X232919797Y-78195377D01*
G37*
G36*
G01*
X230174855Y-71042078D02*
X230174855Y-71042078D01*
G75*
G02*
X229195059Y-70476392I-207055J772741D01*
G01*
X229195059Y-70476392D01*
G75*
G02*
X229760745Y-69496596I772741J207055D01*
G01*
X229760745Y-69496596D01*
G75*
G02*
X230740541Y-70062282I207055J-772741D01*
G01*
X230740541Y-70062282D01*
G75*
G02*
X230174855Y-71042078I-772741J-207055D01*
G01*
G37*
%TD*%
%TO.C,D13*%
G36*
G01*
X235049851Y-89323333D02*
X235049851Y-89323333D01*
G75*
G02*
X234070055Y-88757647I-207055J772741D01*
G01*
X234070055Y-88757647D01*
G75*
G02*
X234635741Y-87777851I772741J207055D01*
G01*
X234635741Y-87777851D01*
G75*
G02*
X235615537Y-88343537I207055J-772741D01*
G01*
X235615537Y-88343537D01*
G75*
G02*
X235049851Y-89323333I-772741J-207055D01*
G01*
G37*
G36*
X237794793Y-96476632D02*
G01*
X236249312Y-96890743D01*
X235835201Y-95345262D01*
X237380682Y-94931151D01*
X237794793Y-96476632D01*
G37*
%TD*%
%TO.C,D14*%
G36*
X242763539Y-115132883D02*
G01*
X241218058Y-115546994D01*
X240803947Y-114001513D01*
X242349428Y-113587402D01*
X242763539Y-115132883D01*
G37*
G36*
G01*
X240018597Y-107979584D02*
X240018597Y-107979584D01*
G75*
G02*
X239038801Y-107413898I-207055J772741D01*
G01*
X239038801Y-107413898D01*
G75*
G02*
X239604487Y-106434102I772741J207055D01*
G01*
X239604487Y-106434102D01*
G75*
G02*
X240584283Y-106999788I207055J-772741D01*
G01*
X240584283Y-106999788D01*
G75*
G02*
X240018597Y-107979584I-772741J-207055D01*
G01*
G37*
%TD*%
%TO.C,D15*%
G36*
G01*
X248334092Y-121574643D02*
X248334092Y-121574643D01*
G75*
G02*
X247354296Y-121008957I-207055J772741D01*
G01*
X247354296Y-121008957D01*
G75*
G02*
X247919982Y-120029161I772741J207055D01*
G01*
X247919982Y-120029161D01*
G75*
G02*
X248899778Y-120594847I207055J-772741D01*
G01*
X248899778Y-120594847D01*
G75*
G02*
X248334092Y-121574643I-772741J-207055D01*
G01*
G37*
G36*
X251079034Y-128727942D02*
G01*
X249533553Y-129142053D01*
X249119442Y-127596572D01*
X250664923Y-127182461D01*
X251079034Y-128727942D01*
G37*
%TD*%
%TO.C,D16*%
G36*
X209072489Y-63599588D02*
G01*
X207527008Y-64013699D01*
X207112897Y-62468218D01*
X208658378Y-62054107D01*
X209072489Y-63599588D01*
G37*
G36*
G01*
X206327547Y-56446289D02*
X206327547Y-56446289D01*
G75*
G02*
X205347751Y-55880603I-207055J772741D01*
G01*
X205347751Y-55880603D01*
G75*
G02*
X205913437Y-54900807I772741J207055D01*
G01*
X205913437Y-54900807D01*
G75*
G02*
X206893233Y-55466493I207055J-772741D01*
G01*
X206893233Y-55466493D01*
G75*
G02*
X206327547Y-56446289I-772741J-207055D01*
G01*
G37*
%TD*%
%TO.C,D17*%
G36*
G01*
X210737148Y-72540917D02*
X210737148Y-72540917D01*
G75*
G02*
X209757352Y-71975231I-207055J772741D01*
G01*
X209757352Y-71975231D01*
G75*
G02*
X210323038Y-70995435I772741J207055D01*
G01*
X210323038Y-70995435D01*
G75*
G02*
X211302834Y-71561121I207055J-772741D01*
G01*
X211302834Y-71561121D01*
G75*
G02*
X210737148Y-72540917I-772741J-207055D01*
G01*
G37*
G36*
X213482090Y-79694216D02*
G01*
X211936609Y-80108327D01*
X211522498Y-78562846D01*
X213067979Y-78148735D01*
X213482090Y-79694216D01*
G37*
%TD*%
%TO.C,D18*%
G36*
X218800726Y-98456975D02*
G01*
X217255245Y-98871086D01*
X216841134Y-97325605D01*
X218386615Y-96911494D01*
X218800726Y-98456975D01*
G37*
G36*
G01*
X216055784Y-91303676D02*
X216055784Y-91303676D01*
G75*
G02*
X215075988Y-90737990I-207055J772741D01*
G01*
X215075988Y-90737990D01*
G75*
G02*
X215641674Y-89758194I772741J207055D01*
G01*
X215641674Y-89758194D01*
G75*
G02*
X216621470Y-90323880I207055J-772741D01*
G01*
X216621470Y-90323880D01*
G75*
G02*
X216055784Y-91303676I-772741J-207055D01*
G01*
G37*
%TD*%
%TO.C,D19*%
G36*
X223587291Y-116682902D02*
G01*
X222041810Y-117097013D01*
X221627699Y-115551532D01*
X223173180Y-115137421D01*
X223587291Y-116682902D01*
G37*
G36*
G01*
X220842349Y-109529603D02*
X220842349Y-109529603D01*
G75*
G02*
X219862553Y-108963917I-207055J772741D01*
G01*
X219862553Y-108963917D01*
G75*
G02*
X220428239Y-107984121I772741J207055D01*
G01*
X220428239Y-107984121D01*
G75*
G02*
X221408035Y-108549807I207055J-772741D01*
G01*
X221408035Y-108549807D01*
G75*
G02*
X220842349Y-109529603I-772741J-207055D01*
G01*
G37*
%TD*%
%TO.C,D20*%
G36*
X254972926Y-127684579D02*
G01*
X253427445Y-128098690D01*
X253013334Y-126553209D01*
X254558815Y-126139098D01*
X254972926Y-127684579D01*
G37*
G36*
G01*
X252227984Y-120531280D02*
X252227984Y-120531280D01*
G75*
G02*
X251248188Y-119965594I-207055J772741D01*
G01*
X251248188Y-119965594D01*
G75*
G02*
X251813874Y-118985798I772741J207055D01*
G01*
X251813874Y-118985798D01*
G75*
G02*
X252793670Y-119551484I207055J-772741D01*
G01*
X252793670Y-119551484D01*
G75*
G02*
X252227984Y-120531280I-772741J-207055D01*
G01*
G37*
%TD*%
%TO.C,D21*%
G36*
G01*
X189112349Y-65042077D02*
X189112349Y-65042077D01*
G75*
G02*
X188132553Y-64476391I-207055J772741D01*
G01*
X188132553Y-64476391D01*
G75*
G02*
X188698239Y-63496595I772741J207055D01*
G01*
X188698239Y-63496595D01*
G75*
G02*
X189678035Y-64062281I207055J-772741D01*
G01*
X189678035Y-64062281D01*
G75*
G02*
X189112349Y-65042077I-772741J-207055D01*
G01*
G37*
G36*
X191857291Y-72195376D02*
G01*
X190311810Y-72609487D01*
X189897699Y-71064006D01*
X191443180Y-70649895D01*
X191857291Y-72195376D01*
G37*
%TD*%
%TO.C,D22*%
G36*
X196638547Y-90195380D02*
G01*
X195093066Y-90609491D01*
X194678955Y-89064010D01*
X196224436Y-88649899D01*
X196638547Y-90195380D01*
G37*
G36*
G01*
X193893605Y-83042081D02*
X193893605Y-83042081D01*
G75*
G02*
X192913809Y-82476395I-207055J772741D01*
G01*
X192913809Y-82476395D01*
G75*
G02*
X193479495Y-81496599I772741J207055D01*
G01*
X193479495Y-81496599D01*
G75*
G02*
X194459291Y-82062285I207055J-772741D01*
G01*
X194459291Y-82062285D01*
G75*
G02*
X193893605Y-83042081I-772741J-207055D01*
G01*
G37*
%TD*%
%TO.C,D23*%
G36*
X201794790Y-108851626D02*
G01*
X200249309Y-109265737D01*
X199835198Y-107720256D01*
X201380679Y-107306145D01*
X201794790Y-108851626D01*
G37*
G36*
G01*
X199049848Y-101698327D02*
X199049848Y-101698327D01*
G75*
G02*
X198070052Y-101132641I-207055J772741D01*
G01*
X198070052Y-101132641D01*
G75*
G02*
X198635738Y-100152845I772741J207055D01*
G01*
X198635738Y-100152845D01*
G75*
G02*
X199615534Y-100718531I207055J-772741D01*
G01*
X199615534Y-100718531D01*
G75*
G02*
X199049848Y-101698327I-772741J-207055D01*
G01*
G37*
%TD*%
%TO.C,D24*%
G36*
G01*
X203831092Y-120167080D02*
X203831092Y-120167080D01*
G75*
G02*
X202851296Y-119601394I-207055J772741D01*
G01*
X202851296Y-119601394D01*
G75*
G02*
X203416982Y-118621598I772741J207055D01*
G01*
X203416982Y-118621598D01*
G75*
G02*
X204396778Y-119187284I207055J-772741D01*
G01*
X204396778Y-119187284D01*
G75*
G02*
X203831092Y-120167080I-772741J-207055D01*
G01*
G37*
G36*
X206576034Y-127320379D02*
G01*
X205030553Y-127734490D01*
X204616442Y-126189009D01*
X206161923Y-125774898D01*
X206576034Y-127320379D01*
G37*
%TD*%
%TO.C,D25*%
G36*
X173951046Y-78664128D02*
G01*
X172405565Y-79078239D01*
X171991454Y-77532758D01*
X173536935Y-77118647D01*
X173951046Y-78664128D01*
G37*
G36*
G01*
X171206104Y-71510829D02*
X171206104Y-71510829D01*
G75*
G02*
X170226308Y-70945143I-207055J772741D01*
G01*
X170226308Y-70945143D01*
G75*
G02*
X170791994Y-69965347I772741J207055D01*
G01*
X170791994Y-69965347D01*
G75*
G02*
X171771790Y-70531033I207055J-772741D01*
G01*
X171771790Y-70531033D01*
G75*
G02*
X171206104Y-71510829I-772741J-207055D01*
G01*
G37*
%TD*%
%TO.C,D26*%
G36*
G01*
X175893596Y-89885828D02*
X175893596Y-89885828D01*
G75*
G02*
X174913800Y-89320142I-207055J772741D01*
G01*
X174913800Y-89320142D01*
G75*
G02*
X175479486Y-88340346I772741J207055D01*
G01*
X175479486Y-88340346D01*
G75*
G02*
X176459282Y-88906032I207055J-772741D01*
G01*
X176459282Y-88906032D01*
G75*
G02*
X175893596Y-89885828I-772741J-207055D01*
G01*
G37*
G36*
X178638538Y-97039127D02*
G01*
X177093057Y-97453238D01*
X176678946Y-95907757D01*
X178224427Y-95493646D01*
X178638538Y-97039127D01*
G37*
%TD*%
%TO.C,D27*%
G36*
X183607296Y-115414128D02*
G01*
X182061815Y-115828239D01*
X181647704Y-114282758D01*
X183193185Y-113868647D01*
X183607296Y-115414128D01*
G37*
G36*
G01*
X180862354Y-108260829D02*
X180862354Y-108260829D01*
G75*
G02*
X179882558Y-107695143I-207055J772741D01*
G01*
X179882558Y-107695143D01*
G75*
G02*
X180448244Y-106715347I772741J207055D01*
G01*
X180448244Y-106715347D01*
G75*
G02*
X181428040Y-107281033I207055J-772741D01*
G01*
X181428040Y-107281033D01*
G75*
G02*
X180862354Y-108260829I-772741J-207055D01*
G01*
G37*
%TD*%
%TO.C,D28*%
G36*
X188576041Y-133601625D02*
G01*
X187030560Y-134015736D01*
X186616449Y-132470255D01*
X188161930Y-132056144D01*
X188576041Y-133601625D01*
G37*
G36*
G01*
X185831099Y-126448326D02*
X185831099Y-126448326D01*
G75*
G02*
X184851303Y-125882640I-207055J772741D01*
G01*
X184851303Y-125882640D01*
G75*
G02*
X185416989Y-124902844I772741J207055D01*
G01*
X185416989Y-124902844D01*
G75*
G02*
X186396785Y-125468530I207055J-772741D01*
G01*
X186396785Y-125468530D01*
G75*
G02*
X185831099Y-126448326I-772741J-207055D01*
G01*
G37*
%TD*%
%TO.C,D29*%
G36*
G01*
X143924850Y-77186055D02*
X143924850Y-77186055D01*
G75*
G02*
X144490536Y-78165851I-207055J-772741D01*
G01*
X144490536Y-78165851D01*
G75*
G02*
X143510740Y-78731537I-772741J207055D01*
G01*
X143510740Y-78731537D01*
G75*
G02*
X142945054Y-77751741I207055J772741D01*
G01*
X142945054Y-77751741D01*
G75*
G02*
X143924850Y-77186055I772741J-207055D01*
G01*
G37*
G36*
X145124311Y-69618645D02*
G01*
X146669792Y-70032756D01*
X146255681Y-71578237D01*
X144710200Y-71164126D01*
X145124311Y-69618645D01*
G37*
%TD*%
%TO.C,D30*%
G36*
G01*
X139237349Y-95373555D02*
X139237349Y-95373555D01*
G75*
G02*
X139803035Y-96353351I-207055J-772741D01*
G01*
X139803035Y-96353351D01*
G75*
G02*
X138823239Y-96919037I-772741J207055D01*
G01*
X138823239Y-96919037D01*
G75*
G02*
X138257553Y-95939241I207055J772741D01*
G01*
X138257553Y-95939241D01*
G75*
G02*
X139237349Y-95373555I772741J-207055D01*
G01*
G37*
G36*
X140436810Y-87806145D02*
G01*
X141982291Y-88220256D01*
X141568180Y-89765737D01*
X140022699Y-89351626D01*
X140436810Y-87806145D01*
G37*
%TD*%
%TO.C,D31*%
G36*
X135374312Y-106743651D02*
G01*
X136919793Y-107157762D01*
X136505682Y-108703243D01*
X134960201Y-108289132D01*
X135374312Y-106743651D01*
G37*
G36*
G01*
X134174851Y-114311061D02*
X134174851Y-114311061D01*
G75*
G02*
X134740537Y-115290857I-207055J-772741D01*
G01*
X134740537Y-115290857D01*
G75*
G02*
X133760741Y-115856543I-772741J207055D01*
G01*
X133760741Y-115856543D01*
G75*
G02*
X133195055Y-114876747I207055J772741D01*
G01*
X133195055Y-114876747D01*
G75*
G02*
X134174851Y-114311061I772741J-207055D01*
G01*
G37*
%TD*%
%TO.C,D32*%
G36*
G01*
X129206101Y-132217309D02*
X129206101Y-132217309D01*
G75*
G02*
X129771787Y-133197105I-207055J-772741D01*
G01*
X129771787Y-133197105D01*
G75*
G02*
X128791991Y-133762791I-772741J207055D01*
G01*
X128791991Y-133762791D01*
G75*
G02*
X128226305Y-132782995I207055J772741D01*
G01*
X128226305Y-132782995D01*
G75*
G02*
X129206101Y-132217309I772741J-207055D01*
G01*
G37*
G36*
X130405562Y-124649899D02*
G01*
X131951043Y-125064010D01*
X131536932Y-126609491D01*
X129991451Y-126195380D01*
X130405562Y-124649899D01*
G37*
%TD*%
%TO.C,D33*%
G36*
X127165980Y-63584323D02*
G01*
X128711461Y-63998434D01*
X128297350Y-65543915D01*
X126751869Y-65129804D01*
X127165980Y-63584323D01*
G37*
G36*
G01*
X125966519Y-71151733D02*
X125966519Y-71151733D01*
G75*
G02*
X126532205Y-72131529I-207055J-772741D01*
G01*
X126532205Y-72131529D01*
G75*
G02*
X125552409Y-72697215I-772741J207055D01*
G01*
X125552409Y-72697215D01*
G75*
G02*
X124986723Y-71717419I207055J772741D01*
G01*
X124986723Y-71717419D01*
G75*
G02*
X125966519Y-71151733I772741J-207055D01*
G01*
G37*
%TD*%
%TO.C,D34*%
G36*
G01*
X121113668Y-89262846D02*
X121113668Y-89262846D01*
G75*
G02*
X121679354Y-90242642I-207055J-772741D01*
G01*
X121679354Y-90242642D01*
G75*
G02*
X120699558Y-90808328I-772741J207055D01*
G01*
X120699558Y-90808328D01*
G75*
G02*
X120133872Y-89828532I207055J772741D01*
G01*
X120133872Y-89828532D01*
G75*
G02*
X121113668Y-89262846I772741J-207055D01*
G01*
G37*
G36*
X122313129Y-81695436D02*
G01*
X123858610Y-82109547D01*
X123444499Y-83655028D01*
X121899018Y-83240917D01*
X122313129Y-81695436D01*
G37*
%TD*%
%TO.C,D35*%
G36*
X117508793Y-99625436D02*
G01*
X119054274Y-100039547D01*
X118640163Y-101585028D01*
X117094682Y-101170917D01*
X117508793Y-99625436D01*
G37*
G36*
G01*
X116309332Y-107192846D02*
X116309332Y-107192846D01*
G75*
G02*
X116875018Y-108172642I-207055J-772741D01*
G01*
X116875018Y-108172642D01*
G75*
G02*
X115895222Y-108738328I-772741J207055D01*
G01*
X115895222Y-108738328D01*
G75*
G02*
X115329536Y-107758532I207055J772741D01*
G01*
X115329536Y-107758532D01*
G75*
G02*
X116309332Y-107192846I772741J-207055D01*
G01*
G37*
%TD*%
%TO.C,D36*%
G36*
X112613911Y-117531176D02*
G01*
X114159392Y-117945287D01*
X113745281Y-119490768D01*
X112199800Y-119076657D01*
X112613911Y-117531176D01*
G37*
G36*
G01*
X111414450Y-125098586D02*
X111414450Y-125098586D01*
G75*
G02*
X111980136Y-126078382I-207055J-772741D01*
G01*
X111980136Y-126078382D01*
G75*
G02*
X111000340Y-126644068I-772741J207055D01*
G01*
X111000340Y-126644068D01*
G75*
G02*
X110434654Y-125664272I207055J772741D01*
G01*
X110434654Y-125664272D01*
G75*
G02*
X111414450Y-125098586I772741J-207055D01*
G01*
G37*
%TD*%
%TO.C,D37*%
G36*
G01*
X108907021Y-60563114D02*
X108907021Y-60563114D01*
G75*
G02*
X109472707Y-61542910I-207055J-772741D01*
G01*
X109472707Y-61542910D01*
G75*
G02*
X108492911Y-62108596I-772741J207055D01*
G01*
X108492911Y-62108596D01*
G75*
G02*
X107927225Y-61128800I207055J772741D01*
G01*
X107927225Y-61128800D01*
G75*
G02*
X108907021Y-60563114I772741J-207055D01*
G01*
G37*
G36*
X110106482Y-52995704D02*
G01*
X111651963Y-53409815D01*
X111237852Y-54955296D01*
X109692371Y-54541185D01*
X110106482Y-52995704D01*
G37*
%TD*%
%TO.C,D38*%
G36*
G01*
X104268596Y-78311055D02*
X104268596Y-78311055D01*
G75*
G02*
X104834282Y-79290851I-207055J-772741D01*
G01*
X104834282Y-79290851D01*
G75*
G02*
X103854486Y-79856537I-772741J207055D01*
G01*
X103854486Y-79856537D01*
G75*
G02*
X103288800Y-78876741I207055J772741D01*
G01*
X103288800Y-78876741D01*
G75*
G02*
X104268596Y-78311055I772741J-207055D01*
G01*
G37*
G36*
X105468057Y-70743645D02*
G01*
X107013538Y-71157756D01*
X106599427Y-72703237D01*
X105053946Y-72289126D01*
X105468057Y-70743645D01*
G37*
%TD*%
%TO.C,D39*%
G36*
G01*
X99299847Y-97248556D02*
X99299847Y-97248556D01*
G75*
G02*
X99865533Y-98228352I-207055J-772741D01*
G01*
X99865533Y-98228352D01*
G75*
G02*
X98885737Y-98794038I-772741J207055D01*
G01*
X98885737Y-98794038D01*
G75*
G02*
X98320051Y-97814242I207055J772741D01*
G01*
X98320051Y-97814242D01*
G75*
G02*
X99299847Y-97248556I772741J-207055D01*
G01*
G37*
G36*
X100499308Y-89681146D02*
G01*
X102044789Y-90095257D01*
X101630678Y-91640738D01*
X100085197Y-91226627D01*
X100499308Y-89681146D01*
G37*
%TD*%
%TO.C,D40*%
G36*
X95624305Y-107868645D02*
G01*
X97169786Y-108282756D01*
X96755675Y-109828237D01*
X95210194Y-109414126D01*
X95624305Y-107868645D01*
G37*
G36*
G01*
X94424844Y-115436055D02*
X94424844Y-115436055D01*
G75*
G02*
X94990530Y-116415851I-207055J-772741D01*
G01*
X94990530Y-116415851D01*
G75*
G02*
X94010734Y-116981537I-772741J207055D01*
G01*
X94010734Y-116981537D01*
G75*
G02*
X93445048Y-116001741I207055J772741D01*
G01*
X93445048Y-116001741D01*
G75*
G02*
X94424844Y-115436055I772741J-207055D01*
G01*
G37*
%TD*%
%TO.C,D41*%
G36*
X67432261Y-129695538D02*
G01*
X65886780Y-129281427D01*
X66300891Y-127735946D01*
X67846372Y-128150057D01*
X67432261Y-129695538D01*
G37*
G36*
G01*
X68631722Y-122128128D02*
X68631722Y-122128128D01*
G75*
G02*
X68066036Y-121148332I207055J772741D01*
G01*
X68066036Y-121148332D01*
G75*
G02*
X69045832Y-120582646I772741J-207055D01*
G01*
X69045832Y-120582646D01*
G75*
G02*
X69611518Y-121562442I-207055J-772741D01*
G01*
X69611518Y-121562442D01*
G75*
G02*
X68631722Y-122128128I-772741J207055D01*
G01*
G37*
%TD*%
%TO.C,D42*%
G36*
G01*
X89831094Y-58811058D02*
X89831094Y-58811058D01*
G75*
G02*
X90396780Y-59790854I-207055J-772741D01*
G01*
X90396780Y-59790854D01*
G75*
G02*
X89416984Y-60356540I-772741J207055D01*
G01*
X89416984Y-60356540D01*
G75*
G02*
X88851298Y-59376744I207055J772741D01*
G01*
X88851298Y-59376744D01*
G75*
G02*
X89831094Y-58811058I772741J-207055D01*
G01*
G37*
G36*
X91030555Y-51243648D02*
G01*
X92576036Y-51657759D01*
X92161925Y-53203240D01*
X90616444Y-52789129D01*
X91030555Y-51243648D01*
G37*
%TD*%
%TO.C,D43*%
G36*
G01*
X85032917Y-76019207D02*
X85032917Y-76019207D01*
G75*
G02*
X85598603Y-76999003I-207055J-772741D01*
G01*
X85598603Y-76999003D01*
G75*
G02*
X84618807Y-77564689I-772741J207055D01*
G01*
X84618807Y-77564689D01*
G75*
G02*
X84053121Y-76584893I207055J772741D01*
G01*
X84053121Y-76584893D01*
G75*
G02*
X85032917Y-76019207I772741J-207055D01*
G01*
G37*
G36*
X86232378Y-68451797D02*
G01*
X87777859Y-68865908D01*
X87363748Y-70411389D01*
X85818267Y-69997278D01*
X86232378Y-68451797D01*
G37*
%TD*%
%TO.C,D44*%
G36*
G01*
X79799849Y-96498557D02*
X79799849Y-96498557D01*
G75*
G02*
X80365535Y-97478353I-207055J-772741D01*
G01*
X80365535Y-97478353D01*
G75*
G02*
X79385739Y-98044039I-772741J207055D01*
G01*
X79385739Y-98044039D01*
G75*
G02*
X78820053Y-97064243I207055J772741D01*
G01*
X78820053Y-97064243D01*
G75*
G02*
X79799849Y-96498557I772741J-207055D01*
G01*
G37*
G36*
X80999310Y-88931147D02*
G01*
X82544791Y-89345258D01*
X82130680Y-90890739D01*
X80585199Y-90476628D01*
X80999310Y-88931147D01*
G37*
%TD*%
%TO.C,D45*%
G36*
G01*
X75112348Y-113561055D02*
X75112348Y-113561055D01*
G75*
G02*
X75678034Y-114540851I-207055J-772741D01*
G01*
X75678034Y-114540851D01*
G75*
G02*
X74698238Y-115106537I-772741J207055D01*
G01*
X74698238Y-115106537D01*
G75*
G02*
X74132552Y-114126741I207055J772741D01*
G01*
X74132552Y-114126741D01*
G75*
G02*
X75112348Y-113561055I772741J-207055D01*
G01*
G37*
G36*
X76311809Y-105993645D02*
G01*
X77857290Y-106407756D01*
X77443179Y-107953237D01*
X75897698Y-107539126D01*
X76311809Y-105993645D01*
G37*
%TD*%
%TO.C,D46*%
G36*
G01*
X72344500Y-123122967D02*
X72344500Y-123122967D01*
G75*
G02*
X71778814Y-122143171I207055J772741D01*
G01*
X71778814Y-122143171D01*
G75*
G02*
X72758610Y-121577485I772741J-207055D01*
G01*
X72758610Y-121577485D01*
G75*
G02*
X73324296Y-122557281I-207055J-772741D01*
G01*
X73324296Y-122557281D01*
G75*
G02*
X72344500Y-123122967I-772741J207055D01*
G01*
G37*
G36*
X71145039Y-130690377D02*
G01*
X69599558Y-130276266D01*
X70013669Y-128730785D01*
X71559150Y-129144896D01*
X71145039Y-130690377D01*
G37*
%TD*%
%TO.C,D47*%
G36*
X70124308Y-55368643D02*
G01*
X71669789Y-55782754D01*
X71255678Y-57328235D01*
X69710197Y-56914124D01*
X70124308Y-55368643D01*
G37*
G36*
G01*
X68924847Y-62936053D02*
X68924847Y-62936053D01*
G75*
G02*
X69490533Y-63915849I-207055J-772741D01*
G01*
X69490533Y-63915849D01*
G75*
G02*
X68510737Y-64481535I-772741J207055D01*
G01*
X68510737Y-64481535D01*
G75*
G02*
X67945051Y-63501739I207055J772741D01*
G01*
X67945051Y-63501739D01*
G75*
G02*
X68924847Y-62936053I772741J-207055D01*
G01*
G37*
%TD*%
%TO.C,D48*%
G36*
G01*
X64143602Y-80936060D02*
X64143602Y-80936060D01*
G75*
G02*
X64709288Y-81915856I-207055J-772741D01*
G01*
X64709288Y-81915856D01*
G75*
G02*
X63729492Y-82481542I-772741J207055D01*
G01*
X63729492Y-82481542D01*
G75*
G02*
X63163806Y-81501746I207055J772741D01*
G01*
X63163806Y-81501746D01*
G75*
G02*
X64143602Y-80936060I772741J-207055D01*
G01*
G37*
G36*
X65343063Y-73368650D02*
G01*
X66888544Y-73782761D01*
X66474433Y-75328242D01*
X64928952Y-74914131D01*
X65343063Y-73368650D01*
G37*
%TD*%
%TO.C,D49*%
G36*
G01*
X58987347Y-100154805D02*
X58987347Y-100154805D01*
G75*
G02*
X59553033Y-101134601I-207055J-772741D01*
G01*
X59553033Y-101134601D01*
G75*
G02*
X58573237Y-101700287I-772741J207055D01*
G01*
X58573237Y-101700287D01*
G75*
G02*
X58007551Y-100720491I207055J772741D01*
G01*
X58007551Y-100720491D01*
G75*
G02*
X58987347Y-100154805I772741J-207055D01*
G01*
G37*
G36*
X60186808Y-92587395D02*
G01*
X61732289Y-93001506D01*
X61318178Y-94546987D01*
X59772697Y-94132876D01*
X60186808Y-92587395D01*
G37*
%TD*%
%TO.C,D50*%
G36*
X55405555Y-110681148D02*
G01*
X56951036Y-111095259D01*
X56536925Y-112640740D01*
X54991444Y-112226629D01*
X55405555Y-110681148D01*
G37*
G36*
G01*
X54206094Y-118248558D02*
X54206094Y-118248558D01*
G75*
G02*
X54771780Y-119228354I-207055J-772741D01*
G01*
X54771780Y-119228354D01*
G75*
G02*
X53791984Y-119794040I-772741J207055D01*
G01*
X53791984Y-119794040D01*
G75*
G02*
X53226298Y-118814244I207055J772741D01*
G01*
X53226298Y-118814244D01*
G75*
G02*
X54206094Y-118248558I772741J-207055D01*
G01*
G37*
%TD*%
%TO.C,D51*%
G36*
X74857822Y-131685211D02*
G01*
X73312341Y-131271100D01*
X73726452Y-129725619D01*
X75271933Y-130139730D01*
X74857822Y-131685211D01*
G37*
G36*
G01*
X76057283Y-124117801D02*
X76057283Y-124117801D01*
G75*
G02*
X75491597Y-123138005I207055J772741D01*
G01*
X75491597Y-123138005D01*
G75*
G02*
X76471393Y-122572319I772741J-207055D01*
G01*
X76471393Y-122572319D01*
G75*
G02*
X77037079Y-123552115I-207055J-772741D01*
G01*
X77037079Y-123552115D01*
G75*
G02*
X76057283Y-124117801I-772741J207055D01*
G01*
G37*
%TD*%
%TO.C,D52*%
G36*
X51561809Y-50774899D02*
G01*
X53107290Y-51189010D01*
X52693179Y-52734491D01*
X51147698Y-52320380D01*
X51561809Y-50774899D01*
G37*
G36*
G01*
X50362348Y-58342309D02*
X50362348Y-58342309D01*
G75*
G02*
X50928034Y-59322105I-207055J-772741D01*
G01*
X50928034Y-59322105D01*
G75*
G02*
X49948238Y-59887791I-772741J207055D01*
G01*
X49948238Y-59887791D01*
G75*
G02*
X49382552Y-58907995I207055J772741D01*
G01*
X49382552Y-58907995D01*
G75*
G02*
X50362348Y-58342309I772741J-207055D01*
G01*
G37*
%TD*%
%TO.C,D53*%
G36*
G01*
X45674850Y-76717310D02*
X45674850Y-76717310D01*
G75*
G02*
X46240536Y-77697106I-207055J-772741D01*
G01*
X46240536Y-77697106D01*
G75*
G02*
X45260740Y-78262792I-772741J207055D01*
G01*
X45260740Y-78262792D01*
G75*
G02*
X44695054Y-77282996I207055J772741D01*
G01*
X44695054Y-77282996D01*
G75*
G02*
X45674850Y-76717310I772741J-207055D01*
G01*
G37*
G36*
X46874311Y-69149900D02*
G01*
X48419792Y-69564011D01*
X48005681Y-71109492D01*
X46460200Y-70695381D01*
X46874311Y-69149900D01*
G37*
%TD*%
%TO.C,D54*%
G36*
G01*
X40518601Y-95936054D02*
X40518601Y-95936054D01*
G75*
G02*
X41084287Y-96915850I-207055J-772741D01*
G01*
X41084287Y-96915850D01*
G75*
G02*
X40104491Y-97481536I-772741J207055D01*
G01*
X40104491Y-97481536D01*
G75*
G02*
X39538805Y-96501740I207055J772741D01*
G01*
X39538805Y-96501740D01*
G75*
G02*
X40518601Y-95936054I772741J-207055D01*
G01*
G37*
G36*
X41718062Y-88368644D02*
G01*
X43263543Y-88782755D01*
X42849432Y-90328236D01*
X41303951Y-89914125D01*
X41718062Y-88368644D01*
G37*
%TD*%
%TO.C,D55*%
G36*
X37030562Y-105618647D02*
G01*
X38576043Y-106032758D01*
X38161932Y-107578239D01*
X36616451Y-107164128D01*
X37030562Y-105618647D01*
G37*
G36*
G01*
X35831101Y-113186057D02*
X35831101Y-113186057D01*
G75*
G02*
X36396787Y-114165853I-207055J-772741D01*
G01*
X36396787Y-114165853D01*
G75*
G02*
X35416991Y-114731539I-772741J207055D01*
G01*
X35416991Y-114731539D01*
G75*
G02*
X34851305Y-113751743I207055J772741D01*
G01*
X34851305Y-113751743D01*
G75*
G02*
X35831101Y-113186057I772741J-207055D01*
G01*
G37*
%TD*%
%TO.C,D56*%
G36*
X78570595Y-132680048D02*
G01*
X77025114Y-132265937D01*
X77439225Y-130720456D01*
X78984706Y-131134567D01*
X78570595Y-132680048D01*
G37*
G36*
G01*
X79770056Y-125112638D02*
X79770056Y-125112638D01*
G75*
G02*
X79204370Y-124132842I207055J772741D01*
G01*
X79204370Y-124132842D01*
G75*
G02*
X80184166Y-123567156I772741J-207055D01*
G01*
X80184166Y-123567156D01*
G75*
G02*
X80749852Y-124546952I-207055J-772741D01*
G01*
X80749852Y-124546952D01*
G75*
G02*
X79770056Y-125112638I-772741J207055D01*
G01*
G37*
%TD*%
D11*
%TO.C,SW2*%
X279283748Y-70598442D03*
D10*
X274376845Y-71913243D03*
X284190651Y-69283641D03*
G36*
G01*
X273698176Y-68737889D02*
X274374764Y-66592025D01*
G75*
G02*
X275942792Y-65775761I1192146J-375882D01*
G01*
X275942792Y-65775761D01*
G75*
G02*
X276759056Y-67343789I-375882J-1192146D01*
G01*
X276082468Y-69489653D01*
G75*
G02*
X274514440Y-70305917I-1192146J375882D01*
G01*
X274514440Y-70305917D01*
G75*
G02*
X273698176Y-68737889I375882J1192146D01*
G01*
G37*
G36*
G01*
X279307353Y-65844660D02*
X279195691Y-65275510D01*
G75*
G02*
X280181655Y-63808242I1226616J240652D01*
G01*
X280181655Y-63808242D01*
G75*
G02*
X281648923Y-64794206I240652J-1226616D01*
G01*
X281760585Y-65363356D01*
G75*
G02*
X280774621Y-66830624I-1226616J-240652D01*
G01*
X280774621Y-66830624D01*
G75*
G02*
X279307353Y-65844660I-240652J1226616D01*
G01*
G37*
%TD*%
D11*
%TO.C,SW4*%
X289127494Y-107348445D03*
D10*
X284220591Y-108663246D03*
X294034397Y-106033644D03*
G36*
G01*
X283541922Y-105487892D02*
X284218510Y-103342028D01*
G75*
G02*
X285786538Y-102525764I1192146J-375882D01*
G01*
X285786538Y-102525764D01*
G75*
G02*
X286602802Y-104093792I-375882J-1192146D01*
G01*
X285926214Y-106239656D01*
G75*
G02*
X284358186Y-107055920I-1192146J375882D01*
G01*
X284358186Y-107055920D01*
G75*
G02*
X283541922Y-105487892I375882J1192146D01*
G01*
G37*
G36*
G01*
X289151099Y-102594663D02*
X289039437Y-102025513D01*
G75*
G02*
X290025401Y-100558245I1226616J240652D01*
G01*
X290025401Y-100558245D01*
G75*
G02*
X291492669Y-101544209I240652J-1226616D01*
G01*
X291604331Y-102113359D01*
G75*
G02*
X290618367Y-103580627I-1226616J-240652D01*
G01*
X290618367Y-103580627D01*
G75*
G02*
X289151099Y-102594663I-240652J1226616D01*
G01*
G37*
%TD*%
D11*
%TO.C,SW5*%
X222377497Y-138285942D03*
D10*
X217470594Y-139600743D03*
X227284400Y-136971141D03*
G36*
G01*
X216791925Y-136425389D02*
X217468513Y-134279525D01*
G75*
G02*
X219036541Y-133463261I1192146J-375882D01*
G01*
X219036541Y-133463261D01*
G75*
G02*
X219852805Y-135031289I-375882J-1192146D01*
G01*
X219176217Y-137177153D01*
G75*
G02*
X217608189Y-137993417I-1192146J375882D01*
G01*
X217608189Y-137993417D01*
G75*
G02*
X216791925Y-136425389I375882J1192146D01*
G01*
G37*
G36*
G01*
X222401102Y-133532160D02*
X222289440Y-132963010D01*
G75*
G02*
X223275404Y-131495742I1226616J240652D01*
G01*
X223275404Y-131495742D01*
G75*
G02*
X224742672Y-132481706I240652J-1226616D01*
G01*
X224854334Y-133050856D01*
G75*
G02*
X223868370Y-134518124I-1226616J-240652D01*
G01*
X223868370Y-134518124D01*
G75*
G02*
X222401102Y-133532160I-240652J1226616D01*
G01*
G37*
%TD*%
%TO.C,SW6*%
G36*
G01*
X255963597Y-52344661D02*
X255851935Y-51775511D01*
G75*
G02*
X256837899Y-50308243I1226616J240652D01*
G01*
X256837899Y-50308243D01*
G75*
G02*
X258305167Y-51294207I240652J-1226616D01*
G01*
X258416829Y-51863357D01*
G75*
G02*
X257430865Y-53330625I-1226616J-240652D01*
G01*
X257430865Y-53330625D01*
G75*
G02*
X255963597Y-52344661I-240652J1226616D01*
G01*
G37*
G36*
G01*
X250354420Y-55237890D02*
X251031008Y-53092026D01*
G75*
G02*
X252599036Y-52275762I1192146J-375882D01*
G01*
X252599036Y-52275762D01*
G75*
G02*
X253415300Y-53843790I-375882J-1192146D01*
G01*
X252738712Y-55989654D01*
G75*
G02*
X251170684Y-56805918I-1192146J375882D01*
G01*
X251170684Y-56805918D01*
G75*
G02*
X250354420Y-55237890I375882J1192146D01*
G01*
G37*
X260846895Y-55783642D03*
X251033089Y-58413244D03*
D11*
X255939992Y-57098443D03*
%TD*%
%TO.C,SW7*%
G36*
G01*
X260838598Y-70813404D02*
X260726936Y-70244254D01*
G75*
G02*
X261712900Y-68776986I1226616J240652D01*
G01*
X261712900Y-68776986D01*
G75*
G02*
X263180168Y-69762950I240652J-1226616D01*
G01*
X263291830Y-70332100D01*
G75*
G02*
X262305866Y-71799368I-1226616J-240652D01*
G01*
X262305866Y-71799368D01*
G75*
G02*
X260838598Y-70813404I-240652J1226616D01*
G01*
G37*
G36*
G01*
X255229421Y-73706633D02*
X255906009Y-71560769D01*
G75*
G02*
X257474037Y-70744505I1192146J-375882D01*
G01*
X257474037Y-70744505D01*
G75*
G02*
X258290301Y-72312533I-375882J-1192146D01*
G01*
X257613713Y-74458397D01*
G75*
G02*
X256045685Y-75274661I-1192146J375882D01*
G01*
X256045685Y-75274661D01*
G75*
G02*
X255229421Y-73706633I375882J1192146D01*
G01*
G37*
D10*
X265721896Y-74252385D03*
X255908090Y-76881987D03*
D11*
X260814993Y-75567186D03*
%TD*%
%TO.C,SW8*%
X265783749Y-93942190D03*
D10*
X260876846Y-95256991D03*
X270690652Y-92627389D03*
G36*
G01*
X260198177Y-92081637D02*
X260874765Y-89935773D01*
G75*
G02*
X262442793Y-89119509I1192146J-375882D01*
G01*
X262442793Y-89119509D01*
G75*
G02*
X263259057Y-90687537I-375882J-1192146D01*
G01*
X262582469Y-92833401D01*
G75*
G02*
X261014441Y-93649665I-1192146J375882D01*
G01*
X261014441Y-93649665D01*
G75*
G02*
X260198177Y-92081637I375882J1192146D01*
G01*
G37*
G36*
G01*
X265807354Y-89188408D02*
X265695692Y-88619258D01*
G75*
G02*
X266681656Y-87151990I1226616J240652D01*
G01*
X266681656Y-87151990D01*
G75*
G02*
X268148924Y-88137954I240652J-1226616D01*
G01*
X268260586Y-88707104D01*
G75*
G02*
X267274622Y-90174372I-1226616J-240652D01*
G01*
X267274622Y-90174372D01*
G75*
G02*
X265807354Y-89188408I-240652J1226616D01*
G01*
G37*
%TD*%
%TO.C,SW9*%
G36*
G01*
X270776104Y-107563414D02*
X270664442Y-106994264D01*
G75*
G02*
X271650406Y-105526996I1226616J240652D01*
G01*
X271650406Y-105526996D01*
G75*
G02*
X273117674Y-106512960I240652J-1226616D01*
G01*
X273229336Y-107082110D01*
G75*
G02*
X272243372Y-108549378I-1226616J-240652D01*
G01*
X272243372Y-108549378D01*
G75*
G02*
X270776104Y-107563414I-240652J1226616D01*
G01*
G37*
G36*
G01*
X265166927Y-110456643D02*
X265843515Y-108310779D01*
G75*
G02*
X267411543Y-107494515I1192146J-375882D01*
G01*
X267411543Y-107494515D01*
G75*
G02*
X268227807Y-109062543I-375882J-1192146D01*
G01*
X267551219Y-111208407D01*
G75*
G02*
X265983191Y-112024671I-1192146J375882D01*
G01*
X265983191Y-112024671D01*
G75*
G02*
X265166927Y-110456643I375882J1192146D01*
G01*
G37*
X275659402Y-111002395D03*
X265845596Y-113631997D03*
D11*
X270752499Y-112317196D03*
%TD*%
%TO.C,SW10*%
G36*
G01*
X202340382Y-141139733D02*
X202108180Y-140608243D01*
G75*
G02*
X202753197Y-138962354I1145453J500436D01*
G01*
X202753197Y-138962354D01*
G75*
G02*
X204399086Y-139607371I500436J-1145453D01*
G01*
X204631288Y-140138861D01*
G75*
G02*
X203986271Y-141784750I-1145453J-500436D01*
G01*
X203986271Y-141784750D01*
G75*
G02*
X202340382Y-141139733I-500436J1145453D01*
G01*
G37*
G36*
G01*
X197490375Y-145178428D02*
X197686475Y-142936990D01*
G75*
G02*
X199040663Y-141800692I1245243J-108945D01*
G01*
X199040663Y-141800692D01*
G75*
G02*
X200176961Y-143154880I-108945J-1245243D01*
G01*
X199980861Y-145396318D01*
G75*
G02*
X198626673Y-146532616I-1245243J108945D01*
G01*
X198626673Y-146532616D01*
G75*
G02*
X197490375Y-145178428I108945J1245243D01*
G01*
G37*
D10*
X207852258Y-143440257D03*
X198840228Y-148131623D03*
D11*
X203346243Y-145785940D03*
%TD*%
%TO.C,SW12*%
X240002496Y-71254693D03*
D10*
X235095593Y-72569494D03*
X244909399Y-69939892D03*
G36*
G01*
X234416924Y-69394140D02*
X235093512Y-67248276D01*
G75*
G02*
X236661540Y-66432012I1192146J-375882D01*
G01*
X236661540Y-66432012D01*
G75*
G02*
X237477804Y-68000040I-375882J-1192146D01*
G01*
X236801216Y-70145904D01*
G75*
G02*
X235233188Y-70962168I-1192146J375882D01*
G01*
X235233188Y-70962168D01*
G75*
G02*
X234416924Y-69394140I375882J1192146D01*
G01*
G37*
G36*
G01*
X240026101Y-66500911D02*
X239914439Y-65931761D01*
G75*
G02*
X240900403Y-64464493I1226616J240652D01*
G01*
X240900403Y-64464493D01*
G75*
G02*
X242367671Y-65450457I240652J-1226616D01*
G01*
X242479333Y-66019607D01*
G75*
G02*
X241493369Y-67486875I-1226616J-240652D01*
G01*
X241493369Y-67486875D01*
G75*
G02*
X240026101Y-66500911I-240652J1226616D01*
G01*
G37*
%TD*%
D11*
%TO.C,SW13*%
X244877496Y-89629693D03*
D10*
X239970593Y-90944494D03*
X249784399Y-88314892D03*
G36*
G01*
X239291924Y-87769140D02*
X239968512Y-85623276D01*
G75*
G02*
X241536540Y-84807012I1192146J-375882D01*
G01*
X241536540Y-84807012D01*
G75*
G02*
X242352804Y-86375040I-375882J-1192146D01*
G01*
X241676216Y-88520904D01*
G75*
G02*
X240108188Y-89337168I-1192146J375882D01*
G01*
X240108188Y-89337168D01*
G75*
G02*
X239291924Y-87769140I375882J1192146D01*
G01*
G37*
G36*
G01*
X244901101Y-84875911D02*
X244789439Y-84306761D01*
G75*
G02*
X245775403Y-82839493I1226616J240652D01*
G01*
X245775403Y-82839493D01*
G75*
G02*
X247242671Y-83825457I240652J-1226616D01*
G01*
X247354333Y-84394607D01*
G75*
G02*
X246368369Y-85861875I-1226616J-240652D01*
G01*
X246368369Y-85861875D01*
G75*
G02*
X244901101Y-84875911I-240652J1226616D01*
G01*
G37*
%TD*%
%TO.C,SW14*%
G36*
G01*
X249869847Y-103344660D02*
X249758185Y-102775510D01*
G75*
G02*
X250744149Y-101308242I1226616J240652D01*
G01*
X250744149Y-101308242D01*
G75*
G02*
X252211417Y-102294206I240652J-1226616D01*
G01*
X252323079Y-102863356D01*
G75*
G02*
X251337115Y-104330624I-1226616J-240652D01*
G01*
X251337115Y-104330624D01*
G75*
G02*
X249869847Y-103344660I-240652J1226616D01*
G01*
G37*
G36*
G01*
X244260670Y-106237889D02*
X244937258Y-104092025D01*
G75*
G02*
X246505286Y-103275761I1192146J-375882D01*
G01*
X246505286Y-103275761D01*
G75*
G02*
X247321550Y-104843789I-375882J-1192146D01*
G01*
X246644962Y-106989653D01*
G75*
G02*
X245076934Y-107805917I-1192146J375882D01*
G01*
X245076934Y-107805917D01*
G75*
G02*
X244260670Y-106237889I375882J1192146D01*
G01*
G37*
X254753145Y-106783641D03*
X244939339Y-109413243D03*
D11*
X249846242Y-108098442D03*
%TD*%
%TO.C,SW16*%
G36*
G01*
X215744847Y-49344659D02*
X215633185Y-48775509D01*
G75*
G02*
X216619149Y-47308241I1226616J240652D01*
G01*
X216619149Y-47308241D01*
G75*
G02*
X218086417Y-48294205I240652J-1226616D01*
G01*
X218198079Y-48863355D01*
G75*
G02*
X217212115Y-50330623I-1226616J-240652D01*
G01*
X217212115Y-50330623D01*
G75*
G02*
X215744847Y-49344659I-240652J1226616D01*
G01*
G37*
G36*
G01*
X210135670Y-52237888D02*
X210812258Y-50092024D01*
G75*
G02*
X212380286Y-49275760I1192146J-375882D01*
G01*
X212380286Y-49275760D01*
G75*
G02*
X213196550Y-50843788I-375882J-1192146D01*
G01*
X212519962Y-52989652D01*
G75*
G02*
X210951934Y-53805916I-1192146J375882D01*
G01*
X210951934Y-53805916D01*
G75*
G02*
X210135670Y-52237888I375882J1192146D01*
G01*
G37*
D10*
X220628145Y-52783640D03*
X210814339Y-55413242D03*
D11*
X215721242Y-54098441D03*
%TD*%
%TO.C,SW18*%
X225564999Y-90942194D03*
D10*
X220658096Y-92256995D03*
X230471902Y-89627393D03*
G36*
G01*
X219979427Y-89081641D02*
X220656015Y-86935777D01*
G75*
G02*
X222224043Y-86119513I1192146J-375882D01*
G01*
X222224043Y-86119513D01*
G75*
G02*
X223040307Y-87687541I-375882J-1192146D01*
G01*
X222363719Y-89833405D01*
G75*
G02*
X220795691Y-90649669I-1192146J375882D01*
G01*
X220795691Y-90649669D01*
G75*
G02*
X219979427Y-89081641I375882J1192146D01*
G01*
G37*
G36*
G01*
X225588604Y-86188412D02*
X225476942Y-85619262D01*
G75*
G02*
X226462906Y-84151994I1226616J240652D01*
G01*
X226462906Y-84151994D01*
G75*
G02*
X227930174Y-85137958I240652J-1226616D01*
G01*
X228041836Y-85707108D01*
G75*
G02*
X227055872Y-87174376I-1226616J-240652D01*
G01*
X227055872Y-87174376D01*
G75*
G02*
X225588604Y-86188412I-240652J1226616D01*
G01*
G37*
%TD*%
%TO.C,SW19*%
G36*
G01*
X230463597Y-104563409D02*
X230351935Y-103994259D01*
G75*
G02*
X231337899Y-102526991I1226616J240652D01*
G01*
X231337899Y-102526991D01*
G75*
G02*
X232805167Y-103512955I240652J-1226616D01*
G01*
X232916829Y-104082105D01*
G75*
G02*
X231930865Y-105549373I-1226616J-240652D01*
G01*
X231930865Y-105549373D01*
G75*
G02*
X230463597Y-104563409I-240652J1226616D01*
G01*
G37*
G36*
G01*
X224854420Y-107456638D02*
X225531008Y-105310774D01*
G75*
G02*
X227099036Y-104494510I1192146J-375882D01*
G01*
X227099036Y-104494510D01*
G75*
G02*
X227915300Y-106062538I-375882J-1192146D01*
G01*
X227238712Y-108208402D01*
G75*
G02*
X225670684Y-109024666I-1192146J375882D01*
G01*
X225670684Y-109024666D01*
G75*
G02*
X224854420Y-107456638I375882J1192146D01*
G01*
G37*
X235346895Y-108002390D03*
X225533089Y-110631992D03*
D11*
X230439992Y-109317191D03*
%TD*%
%TO.C,SW20*%
G36*
G01*
X169346051Y-168156393D02*
X168910987Y-167772833D01*
G75*
G02*
X168799988Y-166008554I826640J937639D01*
G01*
X168799988Y-166008554D01*
G75*
G02*
X170564267Y-165897555I937639J-826640D01*
G01*
X170999331Y-166281115D01*
G75*
G02*
X171110330Y-168045394I-826640J-937639D01*
G01*
X171110330Y-168045394D01*
G75*
G02*
X169346051Y-168156393I-937639J826640D01*
G01*
G37*
G36*
G01*
X166657278Y-173866396D02*
X165887732Y-171752088D01*
G75*
G02*
X166634823Y-170149947I1174616J427525D01*
G01*
X166634823Y-170149947D01*
G75*
G02*
X168236964Y-170897038I427525J-1174616D01*
G01*
X169006510Y-173011346D01*
G75*
G02*
X168259419Y-174613487I-1174616J-427525D01*
G01*
X168259419Y-174613487D01*
G75*
G02*
X166657278Y-173866396I-427525J1174616D01*
G01*
G37*
D10*
X175313751Y-167911957D03*
X169128735Y-175972427D03*
D11*
X172221243Y-171942192D03*
%TD*%
%TO.C,SW21*%
X198752495Y-64504690D03*
D10*
X193845592Y-65819491D03*
X203659398Y-63189889D03*
G36*
G01*
X193166923Y-62644137D02*
X193843511Y-60498273D01*
G75*
G02*
X195411539Y-59682009I1192146J-375882D01*
G01*
X195411539Y-59682009D01*
G75*
G02*
X196227803Y-61250037I-375882J-1192146D01*
G01*
X195551215Y-63395901D01*
G75*
G02*
X193983187Y-64212165I-1192146J375882D01*
G01*
X193983187Y-64212165D01*
G75*
G02*
X193166923Y-62644137I375882J1192146D01*
G01*
G37*
G36*
G01*
X198776100Y-59750908D02*
X198664438Y-59181758D01*
G75*
G02*
X199650402Y-57714490I1226616J240652D01*
G01*
X199650402Y-57714490D01*
G75*
G02*
X201117670Y-58700454I240652J-1226616D01*
G01*
X201229332Y-59269604D01*
G75*
G02*
X200243368Y-60736872I-1226616J-240652D01*
G01*
X200243368Y-60736872D01*
G75*
G02*
X198776100Y-59750908I-240652J1226616D01*
G01*
G37*
%TD*%
D11*
%TO.C,SW22*%
X203721245Y-82973446D03*
D10*
X198814342Y-84288247D03*
X208628148Y-81658645D03*
G36*
G01*
X198135673Y-81112893D02*
X198812261Y-78967029D01*
G75*
G02*
X200380289Y-78150765I1192146J-375882D01*
G01*
X200380289Y-78150765D01*
G75*
G02*
X201196553Y-79718793I-375882J-1192146D01*
G01*
X200519965Y-81864657D01*
G75*
G02*
X198951937Y-82680921I-1192146J375882D01*
G01*
X198951937Y-82680921D01*
G75*
G02*
X198135673Y-81112893I375882J1192146D01*
G01*
G37*
G36*
G01*
X203744850Y-78219664D02*
X203633188Y-77650514D01*
G75*
G02*
X204619152Y-76183246I1226616J240652D01*
G01*
X204619152Y-76183246D01*
G75*
G02*
X206086420Y-77169210I240652J-1226616D01*
G01*
X206198082Y-77738360D01*
G75*
G02*
X205212118Y-79205628I-1226616J-240652D01*
G01*
X205212118Y-79205628D01*
G75*
G02*
X203744850Y-78219664I-240652J1226616D01*
G01*
G37*
%TD*%
%TO.C,SW23*%
G36*
G01*
X208619850Y-96594657D02*
X208508188Y-96025507D01*
G75*
G02*
X209494152Y-94558239I1226616J240652D01*
G01*
X209494152Y-94558239D01*
G75*
G02*
X210961420Y-95544203I240652J-1226616D01*
G01*
X211073082Y-96113353D01*
G75*
G02*
X210087118Y-97580621I-1226616J-240652D01*
G01*
X210087118Y-97580621D01*
G75*
G02*
X208619850Y-96594657I-240652J1226616D01*
G01*
G37*
G36*
G01*
X203010673Y-99487886D02*
X203687261Y-97342022D01*
G75*
G02*
X205255289Y-96525758I1192146J-375882D01*
G01*
X205255289Y-96525758D01*
G75*
G02*
X206071553Y-98093786I-375882J-1192146D01*
G01*
X205394965Y-100239650D01*
G75*
G02*
X203826937Y-101055914I-1192146J375882D01*
G01*
X203826937Y-101055914D01*
G75*
G02*
X203010673Y-99487886I375882J1192146D01*
G01*
G37*
X213503148Y-100033638D03*
X203689342Y-102663240D03*
D11*
X208596245Y-101348439D03*
%TD*%
%TO.C,SW24*%
X213564996Y-119723442D03*
D10*
X208658093Y-121038243D03*
X218471899Y-118408641D03*
G36*
G01*
X207979424Y-117862889D02*
X208656012Y-115717025D01*
G75*
G02*
X210224040Y-114900761I1192146J-375882D01*
G01*
X210224040Y-114900761D01*
G75*
G02*
X211040304Y-116468789I-375882J-1192146D01*
G01*
X210363716Y-118614653D01*
G75*
G02*
X208795688Y-119430917I-1192146J375882D01*
G01*
X208795688Y-119430917D01*
G75*
G02*
X207979424Y-117862889I375882J1192146D01*
G01*
G37*
G36*
G01*
X213588601Y-114969660D02*
X213476939Y-114400510D01*
G75*
G02*
X214462903Y-112933242I1226616J240652D01*
G01*
X214462903Y-112933242D01*
G75*
G02*
X215930171Y-113919206I240652J-1226616D01*
G01*
X216041833Y-114488356D01*
G75*
G02*
X215055869Y-115955624I-1226616J-240652D01*
G01*
X215055869Y-115955624D01*
G75*
G02*
X213588601Y-114969660I-240652J1226616D01*
G01*
G37*
%TD*%
%TO.C,SW25*%
G36*
G01*
X180869849Y-66594660D02*
X180758187Y-66025510D01*
G75*
G02*
X181744151Y-64558242I1226616J240652D01*
G01*
X181744151Y-64558242D01*
G75*
G02*
X183211419Y-65544206I240652J-1226616D01*
G01*
X183323081Y-66113356D01*
G75*
G02*
X182337117Y-67580624I-1226616J-240652D01*
G01*
X182337117Y-67580624D01*
G75*
G02*
X180869849Y-66594660I-240652J1226616D01*
G01*
G37*
G36*
G01*
X175260672Y-69487889D02*
X175937260Y-67342025D01*
G75*
G02*
X177505288Y-66525761I1192146J-375882D01*
G01*
X177505288Y-66525761D01*
G75*
G02*
X178321552Y-68093789I-375882J-1192146D01*
G01*
X177644964Y-70239653D01*
G75*
G02*
X176076936Y-71055917I-1192146J375882D01*
G01*
X176076936Y-71055917D01*
G75*
G02*
X175260672Y-69487889I375882J1192146D01*
G01*
G37*
X185753147Y-70033641D03*
X175939341Y-72663243D03*
D11*
X180846244Y-71348442D03*
%TD*%
%TO.C,SW27*%
X190689993Y-108098442D03*
D10*
X185783090Y-109413243D03*
X195596896Y-106783641D03*
G36*
G01*
X185104421Y-106237889D02*
X185781009Y-104092025D01*
G75*
G02*
X187349037Y-103275761I1192146J-375882D01*
G01*
X187349037Y-103275761D01*
G75*
G02*
X188165301Y-104843789I-375882J-1192146D01*
G01*
X187488713Y-106989653D01*
G75*
G02*
X185920685Y-107805917I-1192146J375882D01*
G01*
X185920685Y-107805917D01*
G75*
G02*
X185104421Y-106237889I375882J1192146D01*
G01*
G37*
G36*
G01*
X190713598Y-103344660D02*
X190601936Y-102775510D01*
G75*
G02*
X191587900Y-101308242I1226616J240652D01*
G01*
X191587900Y-101308242D01*
G75*
G02*
X193055168Y-102294206I240652J-1226616D01*
G01*
X193166830Y-102863356D01*
G75*
G02*
X192180866Y-104330624I-1226616J-240652D01*
G01*
X192180866Y-104330624D01*
G75*
G02*
X190713598Y-103344660I-240652J1226616D01*
G01*
G37*
%TD*%
%TO.C,SW28*%
G36*
G01*
X195682347Y-121813409D02*
X195570685Y-121244259D01*
G75*
G02*
X196556649Y-119776991I1226616J240652D01*
G01*
X196556649Y-119776991D01*
G75*
G02*
X198023917Y-120762955I240652J-1226616D01*
G01*
X198135579Y-121332105D01*
G75*
G02*
X197149615Y-122799373I-1226616J-240652D01*
G01*
X197149615Y-122799373D01*
G75*
G02*
X195682347Y-121813409I-240652J1226616D01*
G01*
G37*
G36*
G01*
X190073170Y-124706638D02*
X190749758Y-122560774D01*
G75*
G02*
X192317786Y-121744510I1192146J-375882D01*
G01*
X192317786Y-121744510D01*
G75*
G02*
X193134050Y-123312538I-375882J-1192146D01*
G01*
X192457462Y-125458402D01*
G75*
G02*
X190889434Y-126274666I-1192146J375882D01*
G01*
X190889434Y-126274666D01*
G75*
G02*
X190073170Y-124706638I375882J1192146D01*
G01*
G37*
X200565645Y-125252390D03*
X190751839Y-127881992D03*
D11*
X195658742Y-126567191D03*
%TD*%
%TO.C,SW29*%
X135658741Y-71348444D03*
D10*
X130751838Y-70033643D03*
X140565644Y-72663245D03*
G36*
G01*
X131751770Y-66944371D02*
X133410644Y-65424293D01*
G75*
G02*
X135176729Y-65501402I844488J-921597D01*
G01*
X135176729Y-65501402D01*
G75*
G02*
X135099620Y-67267487I-921597J-844488D01*
G01*
X133440746Y-68787565D01*
G75*
G02*
X131674661Y-68710456I-844488J921597D01*
G01*
X131674661Y-68710456D01*
G75*
G02*
X131751770Y-66944371I921597J844488D01*
G01*
G37*
G36*
G01*
X138056074Y-67243351D02*
X138243946Y-66694621D01*
G75*
G02*
X139831450Y-65916911I1182607J-404897D01*
G01*
X139831450Y-65916911D01*
G75*
G02*
X140609160Y-67504415I-404897J-1182607D01*
G01*
X140421288Y-68053145D01*
G75*
G02*
X138833784Y-68830855I-1182607J404897D01*
G01*
X138833784Y-68830855D01*
G75*
G02*
X138056074Y-67243351I404897J1182607D01*
G01*
G37*
%TD*%
D11*
%TO.C,SW30*%
X130783747Y-89723445D03*
D10*
X125876844Y-88408644D03*
X135690650Y-91038246D03*
G36*
G01*
X126876776Y-85319372D02*
X128535650Y-83799294D01*
G75*
G02*
X130301735Y-83876403I844488J-921597D01*
G01*
X130301735Y-83876403D01*
G75*
G02*
X130224626Y-85642488I-921597J-844488D01*
G01*
X128565752Y-87162566D01*
G75*
G02*
X126799667Y-87085457I-844488J921597D01*
G01*
X126799667Y-87085457D01*
G75*
G02*
X126876776Y-85319372I921597J844488D01*
G01*
G37*
G36*
G01*
X133181080Y-85618352D02*
X133368952Y-85069622D01*
G75*
G02*
X134956456Y-84291912I1182607J-404897D01*
G01*
X134956456Y-84291912D01*
G75*
G02*
X135734166Y-85879416I-404897J-1182607D01*
G01*
X135546294Y-86428146D01*
G75*
G02*
X133958790Y-87205856I-1182607J404897D01*
G01*
X133958790Y-87205856D01*
G75*
G02*
X133181080Y-85618352I404897J1182607D01*
G01*
G37*
%TD*%
D11*
%TO.C,SW31*%
X125814996Y-108098444D03*
D10*
X120908093Y-106783643D03*
X130721899Y-109413245D03*
G36*
G01*
X121908025Y-103694371D02*
X123566899Y-102174293D01*
G75*
G02*
X125332984Y-102251402I844488J-921597D01*
G01*
X125332984Y-102251402D01*
G75*
G02*
X125255875Y-104017487I-921597J-844488D01*
G01*
X123597001Y-105537565D01*
G75*
G02*
X121830916Y-105460456I-844488J921597D01*
G01*
X121830916Y-105460456D01*
G75*
G02*
X121908025Y-103694371I921597J844488D01*
G01*
G37*
G36*
G01*
X128212329Y-103993351D02*
X128400201Y-103444621D01*
G75*
G02*
X129987705Y-102666911I1182607J-404897D01*
G01*
X129987705Y-102666911D01*
G75*
G02*
X130765415Y-104254415I-404897J-1182607D01*
G01*
X130577543Y-104803145D01*
G75*
G02*
X128990039Y-105580855I-1182607J404897D01*
G01*
X128990039Y-105580855D01*
G75*
G02*
X128212329Y-103993351I404897J1182607D01*
G01*
G37*
%TD*%
D11*
%TO.C,SW32*%
X120846246Y-126567192D03*
D10*
X115939343Y-125252391D03*
X125753149Y-127881993D03*
G36*
G01*
X116939275Y-122163119D02*
X118598149Y-120643041D01*
G75*
G02*
X120364234Y-120720150I844488J-921597D01*
G01*
X120364234Y-120720150D01*
G75*
G02*
X120287125Y-122486235I-921597J-844488D01*
G01*
X118628251Y-124006313D01*
G75*
G02*
X116862166Y-123929204I-844488J921597D01*
G01*
X116862166Y-123929204D01*
G75*
G02*
X116939275Y-122163119I921597J844488D01*
G01*
G37*
G36*
G01*
X123243579Y-122462099D02*
X123431451Y-121913369D01*
G75*
G02*
X125018955Y-121135659I1182607J-404897D01*
G01*
X125018955Y-121135659D01*
G75*
G02*
X125796665Y-122723163I-404897J-1182607D01*
G01*
X125608793Y-123271893D01*
G75*
G02*
X124021289Y-124049603I-1182607J404897D01*
G01*
X124021289Y-124049603D01*
G75*
G02*
X123243579Y-122462099I404897J1182607D01*
G01*
G37*
%TD*%
%TO.C,SW33*%
G36*
G01*
X120149823Y-60399602D02*
X120337695Y-59850872D01*
G75*
G02*
X121925199Y-59073162I1182607J-404897D01*
G01*
X121925199Y-59073162D01*
G75*
G02*
X122702909Y-60660666I-404897J-1182607D01*
G01*
X122515037Y-61209396D01*
G75*
G02*
X120927533Y-61987106I-1182607J404897D01*
G01*
X120927533Y-61987106D01*
G75*
G02*
X120149823Y-60399602I404897J1182607D01*
G01*
G37*
G36*
G01*
X113845519Y-60100622D02*
X115504393Y-58580544D01*
G75*
G02*
X117270478Y-58657653I844488J-921597D01*
G01*
X117270478Y-58657653D01*
G75*
G02*
X117193369Y-60423738I-921597J-844488D01*
G01*
X115534495Y-61943816D01*
G75*
G02*
X113768410Y-61866707I-844488J921597D01*
G01*
X113768410Y-61866707D01*
G75*
G02*
X113845519Y-60100622I921597J844488D01*
G01*
G37*
X122659393Y-65819496D03*
X112845587Y-63189894D03*
D11*
X117752490Y-64504695D03*
%TD*%
%TO.C,SW34*%
X112877498Y-82973442D03*
D10*
X107970595Y-81658641D03*
X117784401Y-84288243D03*
G36*
G01*
X108970527Y-78569369D02*
X110629401Y-77049291D01*
G75*
G02*
X112395486Y-77126400I844488J-921597D01*
G01*
X112395486Y-77126400D01*
G75*
G02*
X112318377Y-78892485I-921597J-844488D01*
G01*
X110659503Y-80412563D01*
G75*
G02*
X108893418Y-80335454I-844488J921597D01*
G01*
X108893418Y-80335454D01*
G75*
G02*
X108970527Y-78569369I921597J844488D01*
G01*
G37*
G36*
G01*
X115274831Y-78868349D02*
X115462703Y-78319619D01*
G75*
G02*
X117050207Y-77541909I1182607J-404897D01*
G01*
X117050207Y-77541909D01*
G75*
G02*
X117827917Y-79129413I-404897J-1182607D01*
G01*
X117640045Y-79678143D01*
G75*
G02*
X116052541Y-80455853I-1182607J404897D01*
G01*
X116052541Y-80455853D01*
G75*
G02*
X115274831Y-78868349I404897J1182607D01*
G01*
G37*
%TD*%
D11*
%TO.C,SW35*%
X107908748Y-101442193D03*
D10*
X103001845Y-100127392D03*
X112815651Y-102756994D03*
G36*
G01*
X104001777Y-97038120D02*
X105660651Y-95518042D01*
G75*
G02*
X107426736Y-95595151I844488J-921597D01*
G01*
X107426736Y-95595151D01*
G75*
G02*
X107349627Y-97361236I-921597J-844488D01*
G01*
X105690753Y-98881314D01*
G75*
G02*
X103924668Y-98804205I-844488J921597D01*
G01*
X103924668Y-98804205D01*
G75*
G02*
X104001777Y-97038120I921597J844488D01*
G01*
G37*
G36*
G01*
X110306081Y-97337100D02*
X110493953Y-96788370D01*
G75*
G02*
X112081457Y-96010660I1182607J-404897D01*
G01*
X112081457Y-96010660D01*
G75*
G02*
X112859167Y-97598164I-404897J-1182607D01*
G01*
X112671295Y-98146894D01*
G75*
G02*
X111083791Y-98924604I-1182607J404897D01*
G01*
X111083791Y-98924604D01*
G75*
G02*
X110306081Y-97337100I404897J1182607D01*
G01*
G37*
%TD*%
%TO.C,SW36*%
G36*
G01*
X105337330Y-115618349D02*
X105525202Y-115069619D01*
G75*
G02*
X107112706Y-114291909I1182607J-404897D01*
G01*
X107112706Y-114291909D01*
G75*
G02*
X107890416Y-115879413I-404897J-1182607D01*
G01*
X107702544Y-116428143D01*
G75*
G02*
X106115040Y-117205853I-1182607J404897D01*
G01*
X106115040Y-117205853D01*
G75*
G02*
X105337330Y-115618349I404897J1182607D01*
G01*
G37*
G36*
G01*
X99033026Y-115319369D02*
X100691900Y-113799291D01*
G75*
G02*
X102457985Y-113876400I844488J-921597D01*
G01*
X102457985Y-113876400D01*
G75*
G02*
X102380876Y-115642485I-921597J-844488D01*
G01*
X100722002Y-117162563D01*
G75*
G02*
X98955917Y-117085454I-844488J921597D01*
G01*
X98955917Y-117085454D01*
G75*
G02*
X99033026Y-115319369I921597J844488D01*
G01*
G37*
X107846900Y-121038243D03*
X98033094Y-118408641D03*
D11*
X102939997Y-119723442D03*
%TD*%
%TO.C,SW37*%
G36*
G01*
X103274827Y-49993347D02*
X103462699Y-49444617D01*
G75*
G02*
X105050203Y-48666907I1182607J-404897D01*
G01*
X105050203Y-48666907D01*
G75*
G02*
X105827913Y-50254411I-404897J-1182607D01*
G01*
X105640041Y-50803141D01*
G75*
G02*
X104052537Y-51580851I-1182607J404897D01*
G01*
X104052537Y-51580851D01*
G75*
G02*
X103274827Y-49993347I404897J1182607D01*
G01*
G37*
G36*
G01*
X96970523Y-49694367D02*
X98629397Y-48174289D01*
G75*
G02*
X100395482Y-48251398I844488J-921597D01*
G01*
X100395482Y-48251398D01*
G75*
G02*
X100318373Y-50017483I-921597J-844488D01*
G01*
X98659499Y-51537561D01*
G75*
G02*
X96893414Y-51460452I-844488J921597D01*
G01*
X96893414Y-51460452D01*
G75*
G02*
X96970523Y-49694367I921597J844488D01*
G01*
G37*
D10*
X105784397Y-55413241D03*
X95970591Y-52783639D03*
D11*
X100877494Y-54098440D03*
%TD*%
%TO.C,SW38*%
X95908744Y-72473441D03*
D10*
X91001841Y-71158640D03*
X100815647Y-73788242D03*
G36*
G01*
X92001773Y-68069368D02*
X93660647Y-66549290D01*
G75*
G02*
X95426732Y-66626399I844488J-921597D01*
G01*
X95426732Y-66626399D01*
G75*
G02*
X95349623Y-68392484I-921597J-844488D01*
G01*
X93690749Y-69912562D01*
G75*
G02*
X91924664Y-69835453I-844488J921597D01*
G01*
X91924664Y-69835453D01*
G75*
G02*
X92001773Y-68069368I921597J844488D01*
G01*
G37*
G36*
G01*
X98306077Y-68368348D02*
X98493949Y-67819618D01*
G75*
G02*
X100081453Y-67041908I1182607J-404897D01*
G01*
X100081453Y-67041908D01*
G75*
G02*
X100859163Y-68629412I-404897J-1182607D01*
G01*
X100671291Y-69178142D01*
G75*
G02*
X99083787Y-69955852I-1182607J404897D01*
G01*
X99083787Y-69955852D01*
G75*
G02*
X98306077Y-68368348I404897J1182607D01*
G01*
G37*
%TD*%
%TO.C,SW39*%
G36*
G01*
X93431081Y-86837100D02*
X93618953Y-86288370D01*
G75*
G02*
X95206457Y-85510660I1182607J-404897D01*
G01*
X95206457Y-85510660D01*
G75*
G02*
X95984167Y-87098164I-404897J-1182607D01*
G01*
X95796295Y-87646894D01*
G75*
G02*
X94208791Y-88424604I-1182607J404897D01*
G01*
X94208791Y-88424604D01*
G75*
G02*
X93431081Y-86837100I404897J1182607D01*
G01*
G37*
G36*
G01*
X87126777Y-86538120D02*
X88785651Y-85018042D01*
G75*
G02*
X90551736Y-85095151I844488J-921597D01*
G01*
X90551736Y-85095151D01*
G75*
G02*
X90474627Y-86861236I-921597J-844488D01*
G01*
X88815753Y-88381314D01*
G75*
G02*
X87049668Y-88304205I-844488J921597D01*
G01*
X87049668Y-88304205D01*
G75*
G02*
X87126777Y-86538120I921597J844488D01*
G01*
G37*
X95940651Y-92256994D03*
X86126845Y-89627392D03*
D11*
X91033748Y-90942193D03*
%TD*%
%TO.C,SW40*%
X86064992Y-109317194D03*
D10*
X81158089Y-108002393D03*
X90971895Y-110631995D03*
G36*
G01*
X82158021Y-104913121D02*
X83816895Y-103393043D01*
G75*
G02*
X85582980Y-103470152I844488J-921597D01*
G01*
X85582980Y-103470152D01*
G75*
G02*
X85505871Y-105236237I-921597J-844488D01*
G01*
X83846997Y-106756315D01*
G75*
G02*
X82080912Y-106679206I-844488J921597D01*
G01*
X82080912Y-106679206D01*
G75*
G02*
X82158021Y-104913121I921597J844488D01*
G01*
G37*
G36*
G01*
X88462325Y-105212101D02*
X88650197Y-104663371D01*
G75*
G02*
X90237701Y-103885661I1182607J-404897D01*
G01*
X90237701Y-103885661D01*
G75*
G02*
X91015411Y-105473165I-404897J-1182607D01*
G01*
X90827539Y-106021895D01*
G75*
G02*
X89240035Y-106799605I-1182607J404897D01*
G01*
X89240035Y-106799605D01*
G75*
G02*
X88462325Y-105212101I404897J1182607D01*
G01*
G37*
%TD*%
%TO.C,SW41*%
G36*
G01*
X148778452Y-170051060D02*
X149261546Y-169730092D01*
G75*
G02*
X150994437Y-170079505I691739J-1041152D01*
G01*
X150994437Y-170079505D01*
G75*
G02*
X150645024Y-171812396I-1041152J-691739D01*
G01*
X150161930Y-172133364D01*
G75*
G02*
X148429039Y-171783951I-691739J1041152D01*
G01*
X148429039Y-171783951D01*
G75*
G02*
X148778452Y-170051060I1041152J691739D01*
G01*
G37*
G36*
G01*
X143958918Y-165976047D02*
X146200356Y-165779947D01*
G75*
G02*
X147554544Y-166916245I108945J-1245243D01*
G01*
X147554544Y-166916245D01*
G75*
G02*
X146418246Y-168270433I-1245243J-108945D01*
G01*
X144176808Y-168466533D01*
G75*
G02*
X142822620Y-167330235I-108945J1245243D01*
G01*
X142822620Y-167330235D01*
G75*
G02*
X143958918Y-165976047I1245243J108945D01*
G01*
G37*
X147470005Y-175878680D03*
X141284989Y-167818210D03*
D11*
X144377497Y-171848445D03*
%TD*%
%TO.C,SW42*%
G36*
G01*
X83868578Y-48774601D02*
X84056450Y-48225871D01*
G75*
G02*
X85643954Y-47448161I1182607J-404897D01*
G01*
X85643954Y-47448161D01*
G75*
G02*
X86421664Y-49035665I-404897J-1182607D01*
G01*
X86233792Y-49584395D01*
G75*
G02*
X84646288Y-50362105I-1182607J404897D01*
G01*
X84646288Y-50362105D01*
G75*
G02*
X83868578Y-48774601I404897J1182607D01*
G01*
G37*
G36*
G01*
X77564274Y-48475621D02*
X79223148Y-46955543D01*
G75*
G02*
X80989233Y-47032652I844488J-921597D01*
G01*
X80989233Y-47032652D01*
G75*
G02*
X80912124Y-48798737I-921597J-844488D01*
G01*
X79253250Y-50318815D01*
G75*
G02*
X77487165Y-50241706I-844488J921597D01*
G01*
X77487165Y-50241706D01*
G75*
G02*
X77564274Y-48475621I921597J844488D01*
G01*
G37*
D10*
X86378148Y-54194495D03*
X76564342Y-51564893D03*
D11*
X81471245Y-52879694D03*
%TD*%
%TO.C,SW43*%
G36*
G01*
X78899827Y-67243349D02*
X79087699Y-66694619D01*
G75*
G02*
X80675203Y-65916909I1182607J-404897D01*
G01*
X80675203Y-65916909D01*
G75*
G02*
X81452913Y-67504413I-404897J-1182607D01*
G01*
X81265041Y-68053143D01*
G75*
G02*
X79677537Y-68830853I-1182607J404897D01*
G01*
X79677537Y-68830853D01*
G75*
G02*
X78899827Y-67243349I404897J1182607D01*
G01*
G37*
G36*
G01*
X72595523Y-66944369D02*
X74254397Y-65424291D01*
G75*
G02*
X76020482Y-65501400I844488J-921597D01*
G01*
X76020482Y-65501400D01*
G75*
G02*
X75943373Y-67267485I-921597J-844488D01*
G01*
X74284499Y-68787563D01*
G75*
G02*
X72518414Y-68710454I-844488J921597D01*
G01*
X72518414Y-68710454D01*
G75*
G02*
X72595523Y-66944369I921597J844488D01*
G01*
G37*
D10*
X81409397Y-72663243D03*
X71595591Y-70033641D03*
D11*
X76502494Y-71348442D03*
%TD*%
%TO.C,SW44*%
G36*
G01*
X74024829Y-85524597D02*
X74212701Y-84975867D01*
G75*
G02*
X75800205Y-84198157I1182607J-404897D01*
G01*
X75800205Y-84198157D01*
G75*
G02*
X76577915Y-85785661I-404897J-1182607D01*
G01*
X76390043Y-86334391D01*
G75*
G02*
X74802539Y-87112101I-1182607J404897D01*
G01*
X74802539Y-87112101D01*
G75*
G02*
X74024829Y-85524597I404897J1182607D01*
G01*
G37*
G36*
G01*
X67720525Y-85225617D02*
X69379399Y-83705539D01*
G75*
G02*
X71145484Y-83782648I844488J-921597D01*
G01*
X71145484Y-83782648D01*
G75*
G02*
X71068375Y-85548733I-921597J-844488D01*
G01*
X69409501Y-87068811D01*
G75*
G02*
X67643416Y-86991702I-844488J921597D01*
G01*
X67643416Y-86991702D01*
G75*
G02*
X67720525Y-85225617I921597J844488D01*
G01*
G37*
D10*
X76534399Y-90944491D03*
X66720593Y-88314889D03*
D11*
X71627496Y-89629690D03*
%TD*%
%TO.C,SW45*%
G36*
G01*
X69056079Y-103993348D02*
X69243951Y-103444618D01*
G75*
G02*
X70831455Y-102666908I1182607J-404897D01*
G01*
X70831455Y-102666908D01*
G75*
G02*
X71609165Y-104254412I-404897J-1182607D01*
G01*
X71421293Y-104803142D01*
G75*
G02*
X69833789Y-105580852I-1182607J404897D01*
G01*
X69833789Y-105580852D01*
G75*
G02*
X69056079Y-103993348I404897J1182607D01*
G01*
G37*
G36*
G01*
X62751775Y-103694368D02*
X64410649Y-102174290D01*
G75*
G02*
X66176734Y-102251399I844488J-921597D01*
G01*
X66176734Y-102251399D01*
G75*
G02*
X66099625Y-104017484I-921597J-844488D01*
G01*
X64440751Y-105537562D01*
G75*
G02*
X62674666Y-105460453I-844488J921597D01*
G01*
X62674666Y-105460453D01*
G75*
G02*
X62751775Y-103694368I921597J844488D01*
G01*
G37*
D10*
X71565649Y-109413242D03*
X61751843Y-106783640D03*
D11*
X66658746Y-108098441D03*
%TD*%
%TO.C,SW46*%
G36*
G01*
X134035104Y-154516125D02*
X134437278Y-154098205D01*
G75*
G02*
X136204719Y-154064268I900689J-866752D01*
G01*
X136204719Y-154064268D01*
G75*
G02*
X136238656Y-155831709I-866752J-900689D01*
G01*
X135836482Y-156249629D01*
G75*
G02*
X134069041Y-156283566I-900689J866752D01*
G01*
X134069041Y-156283566D01*
G75*
G02*
X134035104Y-154516125I866752J900689D01*
G01*
G37*
G36*
G01*
X128447819Y-151580843D02*
X130593683Y-150904255D01*
G75*
G02*
X132161711Y-151720519I375882J-1192146D01*
G01*
X132161711Y-151720519D01*
G75*
G02*
X131345447Y-153288547I-1192146J-375882D01*
G01*
X129199583Y-153965135D01*
G75*
G02*
X127631555Y-153148871I-375882J1192146D01*
G01*
X127631555Y-153148871D01*
G75*
G02*
X128447819Y-151580843I1192146J375882D01*
G01*
G37*
D10*
X134019001Y-160488806D03*
X126235989Y-153958084D03*
D11*
X130127495Y-157223445D03*
%TD*%
%TO.C,SW47*%
X60564993Y-57098439D03*
D10*
X55658090Y-55783638D03*
X65471896Y-58413240D03*
G36*
G01*
X56658022Y-52694366D02*
X58316896Y-51174288D01*
G75*
G02*
X60082981Y-51251397I844488J-921597D01*
G01*
X60082981Y-51251397D01*
G75*
G02*
X60005872Y-53017482I-921597J-844488D01*
G01*
X58346998Y-54537560D01*
G75*
G02*
X56580913Y-54460451I-844488J921597D01*
G01*
X56580913Y-54460451D01*
G75*
G02*
X56658022Y-52694366I921597J844488D01*
G01*
G37*
G36*
G01*
X62962326Y-52993346D02*
X63150198Y-52444616D01*
G75*
G02*
X64737702Y-51666906I1182607J-404897D01*
G01*
X64737702Y-51666906D01*
G75*
G02*
X65515412Y-53254410I-404897J-1182607D01*
G01*
X65327540Y-53803140D01*
G75*
G02*
X63740036Y-54580850I-1182607J404897D01*
G01*
X63740036Y-54580850D01*
G75*
G02*
X62962326Y-52993346I404897J1182607D01*
G01*
G37*
%TD*%
D11*
%TO.C,SW48*%
X55689993Y-75567190D03*
D10*
X50783090Y-74252389D03*
X60596896Y-76881991D03*
G36*
G01*
X51783022Y-71163117D02*
X53441896Y-69643039D01*
G75*
G02*
X55207981Y-69720148I844488J-921597D01*
G01*
X55207981Y-69720148D01*
G75*
G02*
X55130872Y-71486233I-921597J-844488D01*
G01*
X53471998Y-73006311D01*
G75*
G02*
X51705913Y-72929202I-844488J921597D01*
G01*
X51705913Y-72929202D01*
G75*
G02*
X51783022Y-71163117I921597J844488D01*
G01*
G37*
G36*
G01*
X58087326Y-71462097D02*
X58275198Y-70913367D01*
G75*
G02*
X59862702Y-70135657I1182607J-404897D01*
G01*
X59862702Y-70135657D01*
G75*
G02*
X60640412Y-71723161I-404897J-1182607D01*
G01*
X60452540Y-72271891D01*
G75*
G02*
X58865036Y-73049601I-1182607J404897D01*
G01*
X58865036Y-73049601D01*
G75*
G02*
X58087326Y-71462097I404897J1182607D01*
G01*
G37*
%TD*%
%TO.C,SW49*%
G36*
G01*
X53118580Y-89837102D02*
X53306452Y-89288372D01*
G75*
G02*
X54893956Y-88510662I1182607J-404897D01*
G01*
X54893956Y-88510662D01*
G75*
G02*
X55671666Y-90098166I-404897J-1182607D01*
G01*
X55483794Y-90646896D01*
G75*
G02*
X53896290Y-91424606I-1182607J404897D01*
G01*
X53896290Y-91424606D01*
G75*
G02*
X53118580Y-89837102I404897J1182607D01*
G01*
G37*
G36*
G01*
X46814276Y-89538122D02*
X48473150Y-88018044D01*
G75*
G02*
X50239235Y-88095153I844488J-921597D01*
G01*
X50239235Y-88095153D01*
G75*
G02*
X50162126Y-89861238I-921597J-844488D01*
G01*
X48503252Y-91381316D01*
G75*
G02*
X46737167Y-91304207I-844488J921597D01*
G01*
X46737167Y-91304207D01*
G75*
G02*
X46814276Y-89538122I921597J844488D01*
G01*
G37*
X55628150Y-95256996D03*
X45814344Y-92627394D03*
D11*
X50721247Y-93942195D03*
%TD*%
%TO.C,SW50*%
X45846248Y-112317189D03*
D10*
X40939345Y-111002388D03*
X50753151Y-113631990D03*
G36*
G01*
X41939277Y-107913116D02*
X43598151Y-106393038D01*
G75*
G02*
X45364236Y-106470147I844488J-921597D01*
G01*
X45364236Y-106470147D01*
G75*
G02*
X45287127Y-108236232I-921597J-844488D01*
G01*
X43628253Y-109756310D01*
G75*
G02*
X41862168Y-109679201I-844488J921597D01*
G01*
X41862168Y-109679201D01*
G75*
G02*
X41939277Y-107913116I921597J844488D01*
G01*
G37*
G36*
G01*
X48243581Y-108212096D02*
X48431453Y-107663366D01*
G75*
G02*
X50018957Y-106885656I1182607J-404897D01*
G01*
X50018957Y-106885656D01*
G75*
G02*
X50796667Y-108473160I-404897J-1182607D01*
G01*
X50608795Y-109021890D01*
G75*
G02*
X49021291Y-109799600I-1182607J404897D01*
G01*
X49021291Y-109799600D01*
G75*
G02*
X48243581Y-108212096I404897J1182607D01*
G01*
G37*
%TD*%
%TO.C,SW51*%
G36*
G01*
X116387752Y-142297036D02*
X116689938Y-141801976D01*
G75*
G02*
X118408138Y-141386300I1066938J-651262D01*
G01*
X118408138Y-141386300D01*
G75*
G02*
X118823814Y-143104500I-651262J-1066938D01*
G01*
X118521628Y-143599560D01*
G75*
G02*
X116803428Y-144015236I-1066938J651262D01*
G01*
X116803428Y-144015236D01*
G75*
G02*
X116387752Y-142297036I651262J1066938D01*
G01*
G37*
G36*
G01*
X110297596Y-140640641D02*
X112246154Y-139515641D01*
G75*
G02*
X113953686Y-139973173I625000J-1082532D01*
G01*
X113953686Y-139973173D01*
G75*
G02*
X113496154Y-141680705I-1082532J-625000D01*
G01*
X111547596Y-142805705D01*
G75*
G02*
X109840064Y-142348173I-625000J1082532D01*
G01*
X109840064Y-142348173D01*
G75*
G02*
X110297596Y-140640641I1082532J625000D01*
G01*
G37*
X117664755Y-148131626D03*
X108652725Y-143440260D03*
D11*
X113158740Y-145785943D03*
%TD*%
%TO.C,SW52*%
G36*
G01*
X44587329Y-48118349D02*
X44775201Y-47569619D01*
G75*
G02*
X46362705Y-46791909I1182607J-404897D01*
G01*
X46362705Y-46791909D01*
G75*
G02*
X47140415Y-48379413I-404897J-1182607D01*
G01*
X46952543Y-48928143D01*
G75*
G02*
X45365039Y-49705853I-1182607J404897D01*
G01*
X45365039Y-49705853D01*
G75*
G02*
X44587329Y-48118349I404897J1182607D01*
G01*
G37*
G36*
G01*
X38283025Y-47819369D02*
X39941899Y-46299291D01*
G75*
G02*
X41707984Y-46376400I844488J-921597D01*
G01*
X41707984Y-46376400D01*
G75*
G02*
X41630875Y-48142485I-921597J-844488D01*
G01*
X39972001Y-49662563D01*
G75*
G02*
X38205916Y-49585454I-844488J921597D01*
G01*
X38205916Y-49585454D01*
G75*
G02*
X38283025Y-47819369I921597J844488D01*
G01*
G37*
D10*
X47096899Y-53538243D03*
X37283093Y-50908641D03*
D11*
X42189996Y-52223442D03*
%TD*%
%TO.C,SW53*%
X37314993Y-70598442D03*
D10*
X32408090Y-69283641D03*
X42221896Y-71913243D03*
G36*
G01*
X33408022Y-66194369D02*
X35066896Y-64674291D01*
G75*
G02*
X36832981Y-64751400I844488J-921597D01*
G01*
X36832981Y-64751400D01*
G75*
G02*
X36755872Y-66517485I-921597J-844488D01*
G01*
X35096998Y-68037563D01*
G75*
G02*
X33330913Y-67960454I-844488J921597D01*
G01*
X33330913Y-67960454D01*
G75*
G02*
X33408022Y-66194369I921597J844488D01*
G01*
G37*
G36*
G01*
X39712326Y-66493349D02*
X39900198Y-65944619D01*
G75*
G02*
X41487702Y-65166909I1182607J-404897D01*
G01*
X41487702Y-65166909D01*
G75*
G02*
X42265412Y-66754413I-404897J-1182607D01*
G01*
X42077540Y-67303143D01*
G75*
G02*
X40490036Y-68080853I-1182607J404897D01*
G01*
X40490036Y-68080853D01*
G75*
G02*
X39712326Y-66493349I404897J1182607D01*
G01*
G37*
%TD*%
%TO.C,SW54*%
G36*
G01*
X34743577Y-84868349D02*
X34931449Y-84319619D01*
G75*
G02*
X36518953Y-83541909I1182607J-404897D01*
G01*
X36518953Y-83541909D01*
G75*
G02*
X37296663Y-85129413I-404897J-1182607D01*
G01*
X37108791Y-85678143D01*
G75*
G02*
X35521287Y-86455853I-1182607J404897D01*
G01*
X35521287Y-86455853D01*
G75*
G02*
X34743577Y-84868349I404897J1182607D01*
G01*
G37*
G36*
G01*
X28439273Y-84569369D02*
X30098147Y-83049291D01*
G75*
G02*
X31864232Y-83126400I844488J-921597D01*
G01*
X31864232Y-83126400D01*
G75*
G02*
X31787123Y-84892485I-921597J-844488D01*
G01*
X30128249Y-86412563D01*
G75*
G02*
X28362164Y-86335454I-844488J921597D01*
G01*
X28362164Y-86335454D01*
G75*
G02*
X28439273Y-84569369I921597J844488D01*
G01*
G37*
X37253147Y-90288243D03*
X27439341Y-87658641D03*
D11*
X32346244Y-88973442D03*
%TD*%
%TO.C,SW55*%
X27377496Y-107442191D03*
D10*
X22470593Y-106127390D03*
X32284399Y-108756992D03*
G36*
G01*
X23470525Y-103038118D02*
X25129399Y-101518040D01*
G75*
G02*
X26895484Y-101595149I844488J-921597D01*
G01*
X26895484Y-101595149D01*
G75*
G02*
X26818375Y-103361234I-921597J-844488D01*
G01*
X25159501Y-104881312D01*
G75*
G02*
X23393416Y-104804203I-844488J921597D01*
G01*
X23393416Y-104804203D01*
G75*
G02*
X23470525Y-103038118I921597J844488D01*
G01*
G37*
G36*
G01*
X29774829Y-103337098D02*
X29962701Y-102788368D01*
G75*
G02*
X31550205Y-102010658I1182607J-404897D01*
G01*
X31550205Y-102010658D01*
G75*
G02*
X32327915Y-103598162I-404897J-1182607D01*
G01*
X32140043Y-104146892D01*
G75*
G02*
X30552539Y-104924602I-1182607J404897D01*
G01*
X30552539Y-104924602D01*
G75*
G02*
X29774829Y-103337098I404897J1182607D01*
G01*
G37*
%TD*%
D11*
%TO.C,SW56*%
X94127492Y-138379691D03*
D10*
X89220589Y-137064890D03*
X99034395Y-139694492D03*
G36*
G01*
X90220521Y-133975618D02*
X91879395Y-132455540D01*
G75*
G02*
X93645480Y-132532649I844488J-921597D01*
G01*
X93645480Y-132532649D01*
G75*
G02*
X93568371Y-134298734I-921597J-844488D01*
G01*
X91909497Y-135818812D01*
G75*
G02*
X90143412Y-135741703I-844488J921597D01*
G01*
X90143412Y-135741703D01*
G75*
G02*
X90220521Y-133975618I921597J844488D01*
G01*
G37*
G36*
G01*
X96524825Y-134274598D02*
X96712697Y-133725868D01*
G75*
G02*
X98300201Y-132948158I1182607J-404897D01*
G01*
X98300201Y-132948158D01*
G75*
G02*
X99077911Y-134535662I-404897J-1182607D01*
G01*
X98890039Y-135084392D01*
G75*
G02*
X97302535Y-135862102I-1182607J404897D01*
G01*
X97302535Y-135862102D01*
G75*
G02*
X96524825Y-134274598I404897J1182607D01*
G01*
G37*
%TD*%
M02*
