%TF.GenerationSoftware,KiCad,Pcbnew,(5.1.9)-1*%
%TF.CreationDate,2021-03-20T23:04:42-06:00*%
%TF.ProjectId,Pteron56v0,50746572-6f6e-4353-9676-302e6b696361,rev?*%
%TF.SameCoordinates,Original*%
%TF.FileFunction,Copper,L1,Top*%
%TF.FilePolarity,Positive*%
%FSLAX46Y46*%
G04 Gerber Fmt 4.6, Leading zero omitted, Abs format (unit mm)*
G04 Created by KiCad (PCBNEW (5.1.9)-1) date 2021-03-20 23:04:42*
%MOMM*%
%LPD*%
G01*
G04 APERTURE LIST*
%TA.AperFunction,ComponentPad*%
%ADD10R,1.752600X1.752600*%
%TD*%
%TA.AperFunction,ComponentPad*%
%ADD11C,1.752600*%
%TD*%
%TA.AperFunction,ComponentPad*%
%ADD12C,0.100000*%
%TD*%
%TA.AperFunction,ViaPad*%
%ADD13C,0.800000*%
%TD*%
%TA.AperFunction,Conductor*%
%ADD14C,0.250000*%
%TD*%
G04 APERTURE END LIST*
%TO.P,SW26,2*%
%TO.N,Net-(D26-Pad2)*%
%TA.AperFunction,ComponentPad*%
G36*
G01*
X185744850Y-84969660D02*
X185633188Y-84400510D01*
G75*
G02*
X186619152Y-82933242I1226616J240652D01*
G01*
X186619152Y-82933242D01*
G75*
G02*
X188086420Y-83919206I240652J-1226616D01*
G01*
X188198082Y-84488356D01*
G75*
G02*
X187212118Y-85955624I-1226616J-240652D01*
G01*
X187212118Y-85955624D01*
G75*
G02*
X185744850Y-84969660I-240652J1226616D01*
G01*
G37*
%TD.AperFunction*%
%TO.P,SW26,1*%
%TO.N,/Row1*%
%TA.AperFunction,ComponentPad*%
G36*
G01*
X180135673Y-87862889D02*
X180812261Y-85717025D01*
G75*
G02*
X182380289Y-84900761I1192146J-375882D01*
G01*
X182380289Y-84900761D01*
G75*
G02*
X183196553Y-86468789I-375882J-1192146D01*
G01*
X182519965Y-88614653D01*
G75*
G02*
X180951937Y-89430917I-1192146J375882D01*
G01*
X180951937Y-89430917D01*
G75*
G02*
X180135673Y-87862889I375882J1192146D01*
G01*
G37*
%TD.AperFunction*%
%TD*%
%TO.P,SW3,2*%
%TO.N,Net-(D3-Pad2)*%
%TA.AperFunction,ComponentPad*%
G36*
G01*
X284182355Y-84219660D02*
X284070693Y-83650510D01*
G75*
G02*
X285056657Y-82183242I1226616J240652D01*
G01*
X285056657Y-82183242D01*
G75*
G02*
X286523925Y-83169206I240652J-1226616D01*
G01*
X286635587Y-83738356D01*
G75*
G02*
X285649623Y-85205624I-1226616J-240652D01*
G01*
X285649623Y-85205624D01*
G75*
G02*
X284182355Y-84219660I-240652J1226616D01*
G01*
G37*
%TD.AperFunction*%
%TO.P,SW3,1*%
%TO.N,/Row2*%
%TA.AperFunction,ComponentPad*%
G36*
G01*
X278573178Y-87112889D02*
X279249766Y-84967025D01*
G75*
G02*
X280817794Y-84150761I1192146J-375882D01*
G01*
X280817794Y-84150761D01*
G75*
G02*
X281634058Y-85718789I-375882J-1192146D01*
G01*
X280957470Y-87864653D01*
G75*
G02*
X279389442Y-88680917I-1192146J375882D01*
G01*
X279389442Y-88680917D01*
G75*
G02*
X278573178Y-87112889I375882J1192146D01*
G01*
G37*
%TD.AperFunction*%
%TD*%
D10*
%TO.P,U1,1*%
%TO.N,/Row0*%
X150244110Y-114904169D03*
D11*
%TO.P,U1,2*%
%TO.N,/Row1*%
X150244110Y-117444169D03*
%TO.P,U1,3*%
%TO.N,Net-(U1-Pad3)*%
X150244110Y-119984169D03*
%TO.P,U1,4*%
%TO.N,Net-(U1-Pad4)*%
X150244110Y-122524169D03*
%TO.P,U1,5*%
%TO.N,/Col6*%
X150244110Y-125064169D03*
%TO.P,U1,6*%
%TO.N,/Col7*%
X150244110Y-127604169D03*
%TO.P,U1,7*%
%TO.N,/Row3*%
X150244110Y-130144169D03*
%TO.P,U1,8*%
%TO.N,/Col8*%
X150244110Y-132684169D03*
%TO.P,U1,9*%
%TO.N,/Col9*%
X150244110Y-135224169D03*
%TO.P,U1,10*%
%TO.N,/Col11*%
X150244110Y-137764169D03*
%TO.P,U1,11*%
%TO.N,/Col10*%
X150244110Y-140304169D03*
%TO.P,U1,12*%
%TO.N,/Row4*%
X150244110Y-142844169D03*
%TO.P,U1,13*%
%TO.N,/Col1*%
X165484110Y-142844169D03*
%TO.P,U1,14*%
%TO.N,/Col0*%
X165484110Y-140304169D03*
%TO.P,U1,15*%
%TO.N,/Col2*%
X165484110Y-137764169D03*
%TO.P,U1,16*%
%TO.N,/Col3*%
X165484110Y-135224169D03*
%TO.P,U1,17*%
%TO.N,/Col4*%
X165484110Y-132684169D03*
%TO.P,U1,18*%
%TO.N,/Col5*%
X165484110Y-130144169D03*
%TO.P,U1,19*%
%TO.N,Net-(U1-Pad19)*%
X165484110Y-127604169D03*
%TO.P,U1,20*%
%TO.N,/Row2*%
X165484110Y-125064169D03*
%TO.P,U1,21*%
%TO.N,Net-(U1-Pad21)*%
X165484110Y-122524169D03*
%TO.P,U1,22*%
%TO.N,Net-(U1-Pad22)*%
X165484110Y-119984169D03*
%TO.P,U1,23*%
%TO.N,Net-(U1-Pad23)*%
X165484110Y-117444169D03*
%TO.P,U1,24*%
%TO.N,Net-(U1-Pad24)*%
X165484110Y-114904169D03*
%TD*%
%TO.P,SW11,1*%
%TO.N,/Row0*%
%TA.AperFunction,ComponentPad*%
G36*
G01*
X229448172Y-51019142D02*
X230124760Y-48873278D01*
G75*
G02*
X231692788Y-48057014I1192146J-375882D01*
G01*
X231692788Y-48057014D01*
G75*
G02*
X232509052Y-49625042I-375882J-1192146D01*
G01*
X231832464Y-51770906D01*
G75*
G02*
X230264436Y-52587170I-1192146J375882D01*
G01*
X230264436Y-52587170D01*
G75*
G02*
X229448172Y-51019142I375882J1192146D01*
G01*
G37*
%TD.AperFunction*%
%TO.P,SW11,2*%
%TO.N,Net-(D11-Pad2)*%
%TA.AperFunction,ComponentPad*%
G36*
G01*
X235057349Y-48125913D02*
X234945687Y-47556763D01*
G75*
G02*
X235931651Y-46089495I1226616J240652D01*
G01*
X235931651Y-46089495D01*
G75*
G02*
X237398919Y-47075459I240652J-1226616D01*
G01*
X237510581Y-47644609D01*
G75*
G02*
X236524617Y-49111877I-1226616J-240652D01*
G01*
X236524617Y-49111877D01*
G75*
G02*
X235057349Y-48125913I-240652J1226616D01*
G01*
G37*
%TD.AperFunction*%
%TD*%
%TO.P,SW1,1*%
%TO.N,/Row0*%
%TA.AperFunction,ComponentPad*%
G36*
G01*
X268729419Y-50362888D02*
X269406007Y-48217024D01*
G75*
G02*
X270974035Y-47400760I1192146J-375882D01*
G01*
X270974035Y-47400760D01*
G75*
G02*
X271790299Y-48968788I-375882J-1192146D01*
G01*
X271113711Y-51114652D01*
G75*
G02*
X269545683Y-51930916I-1192146J375882D01*
G01*
X269545683Y-51930916D01*
G75*
G02*
X268729419Y-50362888I375882J1192146D01*
G01*
G37*
%TD.AperFunction*%
%TO.P,SW1,2*%
%TO.N,Net-(D1-Pad2)*%
%TA.AperFunction,ComponentPad*%
G36*
G01*
X274338596Y-47469659D02*
X274226934Y-46900509D01*
G75*
G02*
X275212898Y-45433241I1226616J240652D01*
G01*
X275212898Y-45433241D01*
G75*
G02*
X276680166Y-46419205I240652J-1226616D01*
G01*
X276791828Y-46988355D01*
G75*
G02*
X275805864Y-48455623I-1226616J-240652D01*
G01*
X275805864Y-48455623D01*
G75*
G02*
X274338596Y-47469659I-240652J1226616D01*
G01*
G37*
%TD.AperFunction*%
%TD*%
%TO.P,SW17,2*%
%TO.N,Net-(D17-Pad2)*%
%TA.AperFunction,ComponentPad*%
G36*
G01*
X220619849Y-67719662D02*
X220508187Y-67150512D01*
G75*
G02*
X221494151Y-65683244I1226616J240652D01*
G01*
X221494151Y-65683244D01*
G75*
G02*
X222961419Y-66669208I240652J-1226616D01*
G01*
X223073081Y-67238358D01*
G75*
G02*
X222087117Y-68705626I-1226616J-240652D01*
G01*
X222087117Y-68705626D01*
G75*
G02*
X220619849Y-67719662I-240652J1226616D01*
G01*
G37*
%TD.AperFunction*%
%TO.P,SW17,1*%
%TO.N,/Row1*%
%TA.AperFunction,ComponentPad*%
G36*
G01*
X215010672Y-70612891D02*
X215687260Y-68467027D01*
G75*
G02*
X217255288Y-67650763I1192146J-375882D01*
G01*
X217255288Y-67650763D01*
G75*
G02*
X218071552Y-69218791I-375882J-1192146D01*
G01*
X217394964Y-71364655D01*
G75*
G02*
X215826936Y-72180919I-1192146J375882D01*
G01*
X215826936Y-72180919D01*
G75*
G02*
X215010672Y-70612891I375882J1192146D01*
G01*
G37*
%TD.AperFunction*%
%TD*%
%TO.P,SW15,1*%
%TO.N,/Row4*%
%TA.AperFunction,ComponentPad*%
G36*
G01*
X180528945Y-157897766D02*
X180235261Y-155667016D01*
G75*
G02*
X181311409Y-154264552I1239306J163158D01*
G01*
X181311409Y-154264552D01*
G75*
G02*
X182713873Y-155340700I163158J-1239306D01*
G01*
X183007557Y-157571450D01*
G75*
G02*
X181931409Y-158973914I-1239306J-163158D01*
G01*
X181931409Y-158973914D01*
G75*
G02*
X180528945Y-157897766I-163158J1239306D01*
G01*
G37*
%TD.AperFunction*%
%TO.P,SW15,2*%
%TO.N,Net-(D15-Pad2)*%
%TA.AperFunction,ComponentPad*%
G36*
G01*
X184389855Y-152905070D02*
X184048121Y-152436436D01*
G75*
G02*
X184321613Y-150689954I1009987J736495D01*
G01*
X184321613Y-150689954D01*
G75*
G02*
X186068095Y-150963446I736495J-1009987D01*
G01*
X186409829Y-151432080D01*
G75*
G02*
X186136337Y-153178562I-1009987J-736495D01*
G01*
X186136337Y-153178562D01*
G75*
G02*
X184389855Y-152905070I-736495J1009987D01*
G01*
G37*
%TD.AperFunction*%
%TD*%
%TO.P,D1,2*%
%TO.N,Net-(D1-Pad2)*%
%TA.AperFunction,ComponentPad*%
G36*
G01*
X264768598Y-53042081D02*
X264768598Y-53042081D01*
G75*
G02*
X263788802Y-52476395I-207055J772741D01*
G01*
X263788802Y-52476395D01*
G75*
G02*
X264354488Y-51496599I772741J207055D01*
G01*
X264354488Y-51496599D01*
G75*
G02*
X265334284Y-52062285I207055J-772741D01*
G01*
X265334284Y-52062285D01*
G75*
G02*
X264768598Y-53042081I-772741J-207055D01*
G01*
G37*
%TD.AperFunction*%
%TA.AperFunction,ComponentPad*%
D12*
%TO.P,D1,1*%
%TO.N,/Col0*%
G36*
X267513540Y-60195380D02*
G01*
X265968059Y-60609491D01*
X265553948Y-59064010D01*
X267099429Y-58649899D01*
X267513540Y-60195380D01*
G37*
%TD.AperFunction*%
%TD*%
%TA.AperFunction,ComponentPad*%
%TO.P,D2,1*%
%TO.N,/Col0*%
G36*
X272107293Y-77539128D02*
G01*
X270561812Y-77953239D01*
X270147701Y-76407758D01*
X271693182Y-75993647D01*
X272107293Y-77539128D01*
G37*
%TD.AperFunction*%
%TO.P,D2,2*%
%TO.N,Net-(D2-Pad2)*%
%TA.AperFunction,ComponentPad*%
G36*
G01*
X269362351Y-70385829D02*
X269362351Y-70385829D01*
G75*
G02*
X268382555Y-69820143I-207055J772741D01*
G01*
X268382555Y-69820143D01*
G75*
G02*
X268948241Y-68840347I772741J207055D01*
G01*
X268948241Y-68840347D01*
G75*
G02*
X269928037Y-69406033I207055J-772741D01*
G01*
X269928037Y-69406033D01*
G75*
G02*
X269362351Y-70385829I-772741J-207055D01*
G01*
G37*
%TD.AperFunction*%
%TD*%
%TA.AperFunction,ComponentPad*%
%TO.P,D3,1*%
%TO.N,/Col0*%
G36*
X277263536Y-96570378D02*
G01*
X275718055Y-96984489D01*
X275303944Y-95439008D01*
X276849425Y-95024897D01*
X277263536Y-96570378D01*
G37*
%TD.AperFunction*%
%TO.P,D3,2*%
%TO.N,Net-(D3-Pad2)*%
%TA.AperFunction,ComponentPad*%
G36*
G01*
X274518594Y-89417079D02*
X274518594Y-89417079D01*
G75*
G02*
X273538798Y-88851393I-207055J772741D01*
G01*
X273538798Y-88851393D01*
G75*
G02*
X274104484Y-87871597I772741J207055D01*
G01*
X274104484Y-87871597D01*
G75*
G02*
X275084280Y-88437283I207055J-772741D01*
G01*
X275084280Y-88437283D01*
G75*
G02*
X274518594Y-89417079I-772741J-207055D01*
G01*
G37*
%TD.AperFunction*%
%TD*%
%TO.P,D4,2*%
%TO.N,Net-(D4-Pad2)*%
%TA.AperFunction,ComponentPad*%
G36*
G01*
X279393596Y-107510830D02*
X279393596Y-107510830D01*
G75*
G02*
X278413800Y-106945144I-207055J772741D01*
G01*
X278413800Y-106945144D01*
G75*
G02*
X278979486Y-105965348I772741J207055D01*
G01*
X278979486Y-105965348D01*
G75*
G02*
X279959282Y-106531034I207055J-772741D01*
G01*
X279959282Y-106531034D01*
G75*
G02*
X279393596Y-107510830I-772741J-207055D01*
G01*
G37*
%TD.AperFunction*%
%TA.AperFunction,ComponentPad*%
%TO.P,D4,1*%
%TO.N,/Col0*%
G36*
X282138538Y-114664129D02*
G01*
X280593057Y-115078240D01*
X280178946Y-113532759D01*
X281724427Y-113118648D01*
X282138538Y-114664129D01*
G37*
%TD.AperFunction*%
%TD*%
%TO.P,D5,2*%
%TO.N,Net-(D5-Pad2)*%
%TA.AperFunction,ComponentPad*%
G36*
G01*
X240817987Y-123588581D02*
X240817987Y-123588581D01*
G75*
G02*
X239838191Y-123022895I-207055J772741D01*
G01*
X239838191Y-123022895D01*
G75*
G02*
X240403877Y-122043099I772741J207055D01*
G01*
X240403877Y-122043099D01*
G75*
G02*
X241383673Y-122608785I207055J-772741D01*
G01*
X241383673Y-122608785D01*
G75*
G02*
X240817987Y-123588581I-772741J-207055D01*
G01*
G37*
%TD.AperFunction*%
%TA.AperFunction,ComponentPad*%
%TO.P,D5,1*%
%TO.N,/Col0*%
G36*
X243562929Y-130741880D02*
G01*
X242017448Y-131155991D01*
X241603337Y-129610510D01*
X243148818Y-129196399D01*
X243562929Y-130741880D01*
G37*
%TD.AperFunction*%
%TD*%
%TA.AperFunction,ComponentPad*%
%TO.P,D6,1*%
%TO.N,/Col1*%
G36*
X249044792Y-65164124D02*
G01*
X247499311Y-65578235D01*
X247085200Y-64032754D01*
X248630681Y-63618643D01*
X249044792Y-65164124D01*
G37*
%TD.AperFunction*%
%TO.P,D6,2*%
%TO.N,Net-(D6-Pad2)*%
%TA.AperFunction,ComponentPad*%
G36*
G01*
X246299850Y-58010825D02*
X246299850Y-58010825D01*
G75*
G02*
X245320054Y-57445139I-207055J772741D01*
G01*
X245320054Y-57445139D01*
G75*
G02*
X245885740Y-56465343I772741J207055D01*
G01*
X245885740Y-56465343D01*
G75*
G02*
X246865536Y-57031029I207055J-772741D01*
G01*
X246865536Y-57031029D01*
G75*
G02*
X246299850Y-58010825I-772741J-207055D01*
G01*
G37*
%TD.AperFunction*%
%TD*%
%TO.P,D7,2*%
%TO.N,Net-(D7-Pad2)*%
%TA.AperFunction,ComponentPad*%
G36*
G01*
X250706101Y-74042078D02*
X250706101Y-74042078D01*
G75*
G02*
X249726305Y-73476392I-207055J772741D01*
G01*
X249726305Y-73476392D01*
G75*
G02*
X250291991Y-72496596I772741J207055D01*
G01*
X250291991Y-72496596D01*
G75*
G02*
X251271787Y-73062282I207055J-772741D01*
G01*
X251271787Y-73062282D01*
G75*
G02*
X250706101Y-74042078I-772741J-207055D01*
G01*
G37*
%TD.AperFunction*%
%TA.AperFunction,ComponentPad*%
%TO.P,D7,1*%
%TO.N,/Col1*%
G36*
X253451043Y-81195377D02*
G01*
X251905562Y-81609488D01*
X251491451Y-80064007D01*
X253036932Y-79649896D01*
X253451043Y-81195377D01*
G37*
%TD.AperFunction*%
%TD*%
%TO.P,D8,2*%
%TO.N,Net-(D8-Pad2)*%
%TA.AperFunction,ComponentPad*%
G36*
G01*
X255956099Y-93729583D02*
X255956099Y-93729583D01*
G75*
G02*
X254976303Y-93163897I-207055J772741D01*
G01*
X254976303Y-93163897D01*
G75*
G02*
X255541989Y-92184101I772741J207055D01*
G01*
X255541989Y-92184101D01*
G75*
G02*
X256521785Y-92749787I207055J-772741D01*
G01*
X256521785Y-92749787D01*
G75*
G02*
X255956099Y-93729583I-772741J-207055D01*
G01*
G37*
%TD.AperFunction*%
%TA.AperFunction,ComponentPad*%
%TO.P,D8,1*%
%TO.N,/Col1*%
G36*
X258701041Y-100882882D02*
G01*
X257155560Y-101296993D01*
X256741449Y-99751512D01*
X258286930Y-99337401D01*
X258701041Y-100882882D01*
G37*
%TD.AperFunction*%
%TD*%
%TA.AperFunction,ComponentPad*%
%TO.P,D9,1*%
%TO.N,/Col1*%
G36*
X263388542Y-119632878D02*
G01*
X261843061Y-120046989D01*
X261428950Y-118501508D01*
X262974431Y-118087397D01*
X263388542Y-119632878D01*
G37*
%TD.AperFunction*%
%TO.P,D9,2*%
%TO.N,Net-(D9-Pad2)*%
%TA.AperFunction,ComponentPad*%
G36*
G01*
X260643600Y-112479579D02*
X260643600Y-112479579D01*
G75*
G02*
X259663804Y-111913893I-207055J772741D01*
G01*
X259663804Y-111913893D01*
G75*
G02*
X260229490Y-110934097I772741J207055D01*
G01*
X260229490Y-110934097D01*
G75*
G02*
X261209286Y-111499783I207055J-772741D01*
G01*
X261209286Y-111499783D01*
G75*
G02*
X260643600Y-112479579I-772741J-207055D01*
G01*
G37*
%TD.AperFunction*%
%TD*%
%TA.AperFunction,ComponentPad*%
%TO.P,D10,1*%
%TO.N,/Col1*%
G36*
X247275700Y-129747040D02*
G01*
X245730219Y-130161151D01*
X245316108Y-128615670D01*
X246861589Y-128201559D01*
X247275700Y-129747040D01*
G37*
%TD.AperFunction*%
%TO.P,D10,2*%
%TO.N,Net-(D10-Pad2)*%
%TA.AperFunction,ComponentPad*%
G36*
G01*
X244530758Y-122593741D02*
X244530758Y-122593741D01*
G75*
G02*
X243550962Y-122028055I-207055J772741D01*
G01*
X243550962Y-122028055D01*
G75*
G02*
X244116648Y-121048259I772741J207055D01*
G01*
X244116648Y-121048259D01*
G75*
G02*
X245096444Y-121613945I207055J-772741D01*
G01*
X245096444Y-121613945D01*
G75*
G02*
X244530758Y-122593741I-772741J-207055D01*
G01*
G37*
%TD.AperFunction*%
%TD*%
%TO.P,D11,2*%
%TO.N,Net-(D11-Pad2)*%
%TA.AperFunction,ComponentPad*%
G36*
G01*
X225299847Y-53323329D02*
X225299847Y-53323329D01*
G75*
G02*
X224320051Y-52757643I-207055J772741D01*
G01*
X224320051Y-52757643D01*
G75*
G02*
X224885737Y-51777847I772741J207055D01*
G01*
X224885737Y-51777847D01*
G75*
G02*
X225865533Y-52343533I207055J-772741D01*
G01*
X225865533Y-52343533D01*
G75*
G02*
X225299847Y-53323329I-772741J-207055D01*
G01*
G37*
%TD.AperFunction*%
%TA.AperFunction,ComponentPad*%
%TO.P,D11,1*%
%TO.N,/Col2*%
G36*
X228044789Y-60476628D02*
G01*
X226499308Y-60890739D01*
X226085197Y-59345258D01*
X227630678Y-58931147D01*
X228044789Y-60476628D01*
G37*
%TD.AperFunction*%
%TD*%
%TA.AperFunction,ComponentPad*%
%TO.P,D12,1*%
%TO.N,/Col2*%
G36*
X232919797Y-78195377D02*
G01*
X231374316Y-78609488D01*
X230960205Y-77064007D01*
X232505686Y-76649896D01*
X232919797Y-78195377D01*
G37*
%TD.AperFunction*%
%TO.P,D12,2*%
%TO.N,Net-(D12-Pad2)*%
%TA.AperFunction,ComponentPad*%
G36*
G01*
X230174855Y-71042078D02*
X230174855Y-71042078D01*
G75*
G02*
X229195059Y-70476392I-207055J772741D01*
G01*
X229195059Y-70476392D01*
G75*
G02*
X229760745Y-69496596I772741J207055D01*
G01*
X229760745Y-69496596D01*
G75*
G02*
X230740541Y-70062282I207055J-772741D01*
G01*
X230740541Y-70062282D01*
G75*
G02*
X230174855Y-71042078I-772741J-207055D01*
G01*
G37*
%TD.AperFunction*%
%TD*%
%TO.P,D13,2*%
%TO.N,Net-(D13-Pad2)*%
%TA.AperFunction,ComponentPad*%
G36*
G01*
X235049851Y-89323333D02*
X235049851Y-89323333D01*
G75*
G02*
X234070055Y-88757647I-207055J772741D01*
G01*
X234070055Y-88757647D01*
G75*
G02*
X234635741Y-87777851I772741J207055D01*
G01*
X234635741Y-87777851D01*
G75*
G02*
X235615537Y-88343537I207055J-772741D01*
G01*
X235615537Y-88343537D01*
G75*
G02*
X235049851Y-89323333I-772741J-207055D01*
G01*
G37*
%TD.AperFunction*%
%TA.AperFunction,ComponentPad*%
%TO.P,D13,1*%
%TO.N,/Col2*%
G36*
X237794793Y-96476632D02*
G01*
X236249312Y-96890743D01*
X235835201Y-95345262D01*
X237380682Y-94931151D01*
X237794793Y-96476632D01*
G37*
%TD.AperFunction*%
%TD*%
%TA.AperFunction,ComponentPad*%
%TO.P,D14,1*%
%TO.N,/Col2*%
G36*
X242763539Y-115132883D02*
G01*
X241218058Y-115546994D01*
X240803947Y-114001513D01*
X242349428Y-113587402D01*
X242763539Y-115132883D01*
G37*
%TD.AperFunction*%
%TO.P,D14,2*%
%TO.N,Net-(D14-Pad2)*%
%TA.AperFunction,ComponentPad*%
G36*
G01*
X240018597Y-107979584D02*
X240018597Y-107979584D01*
G75*
G02*
X239038801Y-107413898I-207055J772741D01*
G01*
X239038801Y-107413898D01*
G75*
G02*
X239604487Y-106434102I772741J207055D01*
G01*
X239604487Y-106434102D01*
G75*
G02*
X240584283Y-106999788I207055J-772741D01*
G01*
X240584283Y-106999788D01*
G75*
G02*
X240018597Y-107979584I-772741J-207055D01*
G01*
G37*
%TD.AperFunction*%
%TD*%
%TO.P,D15,2*%
%TO.N,Net-(D15-Pad2)*%
%TA.AperFunction,ComponentPad*%
G36*
G01*
X248334092Y-121574643D02*
X248334092Y-121574643D01*
G75*
G02*
X247354296Y-121008957I-207055J772741D01*
G01*
X247354296Y-121008957D01*
G75*
G02*
X247919982Y-120029161I772741J207055D01*
G01*
X247919982Y-120029161D01*
G75*
G02*
X248899778Y-120594847I207055J-772741D01*
G01*
X248899778Y-120594847D01*
G75*
G02*
X248334092Y-121574643I-772741J-207055D01*
G01*
G37*
%TD.AperFunction*%
%TA.AperFunction,ComponentPad*%
%TO.P,D15,1*%
%TO.N,/Col2*%
G36*
X251079034Y-128727942D02*
G01*
X249533553Y-129142053D01*
X249119442Y-127596572D01*
X250664923Y-127182461D01*
X251079034Y-128727942D01*
G37*
%TD.AperFunction*%
%TD*%
%TA.AperFunction,ComponentPad*%
%TO.P,D16,1*%
%TO.N,/Col3*%
G36*
X209072489Y-63599588D02*
G01*
X207527008Y-64013699D01*
X207112897Y-62468218D01*
X208658378Y-62054107D01*
X209072489Y-63599588D01*
G37*
%TD.AperFunction*%
%TO.P,D16,2*%
%TO.N,Net-(D16-Pad2)*%
%TA.AperFunction,ComponentPad*%
G36*
G01*
X206327547Y-56446289D02*
X206327547Y-56446289D01*
G75*
G02*
X205347751Y-55880603I-207055J772741D01*
G01*
X205347751Y-55880603D01*
G75*
G02*
X205913437Y-54900807I772741J207055D01*
G01*
X205913437Y-54900807D01*
G75*
G02*
X206893233Y-55466493I207055J-772741D01*
G01*
X206893233Y-55466493D01*
G75*
G02*
X206327547Y-56446289I-772741J-207055D01*
G01*
G37*
%TD.AperFunction*%
%TD*%
%TO.P,D17,2*%
%TO.N,Net-(D17-Pad2)*%
%TA.AperFunction,ComponentPad*%
G36*
G01*
X210737148Y-72540917D02*
X210737148Y-72540917D01*
G75*
G02*
X209757352Y-71975231I-207055J772741D01*
G01*
X209757352Y-71975231D01*
G75*
G02*
X210323038Y-70995435I772741J207055D01*
G01*
X210323038Y-70995435D01*
G75*
G02*
X211302834Y-71561121I207055J-772741D01*
G01*
X211302834Y-71561121D01*
G75*
G02*
X210737148Y-72540917I-772741J-207055D01*
G01*
G37*
%TD.AperFunction*%
%TA.AperFunction,ComponentPad*%
%TO.P,D17,1*%
%TO.N,/Col3*%
G36*
X213482090Y-79694216D02*
G01*
X211936609Y-80108327D01*
X211522498Y-78562846D01*
X213067979Y-78148735D01*
X213482090Y-79694216D01*
G37*
%TD.AperFunction*%
%TD*%
%TA.AperFunction,ComponentPad*%
%TO.P,D18,1*%
%TO.N,/Col3*%
G36*
X218800726Y-98456975D02*
G01*
X217255245Y-98871086D01*
X216841134Y-97325605D01*
X218386615Y-96911494D01*
X218800726Y-98456975D01*
G37*
%TD.AperFunction*%
%TO.P,D18,2*%
%TO.N,Net-(D18-Pad2)*%
%TA.AperFunction,ComponentPad*%
G36*
G01*
X216055784Y-91303676D02*
X216055784Y-91303676D01*
G75*
G02*
X215075988Y-90737990I-207055J772741D01*
G01*
X215075988Y-90737990D01*
G75*
G02*
X215641674Y-89758194I772741J207055D01*
G01*
X215641674Y-89758194D01*
G75*
G02*
X216621470Y-90323880I207055J-772741D01*
G01*
X216621470Y-90323880D01*
G75*
G02*
X216055784Y-91303676I-772741J-207055D01*
G01*
G37*
%TD.AperFunction*%
%TD*%
%TA.AperFunction,ComponentPad*%
%TO.P,D19,1*%
%TO.N,/Col3*%
G36*
X223587291Y-116682902D02*
G01*
X222041810Y-117097013D01*
X221627699Y-115551532D01*
X223173180Y-115137421D01*
X223587291Y-116682902D01*
G37*
%TD.AperFunction*%
%TO.P,D19,2*%
%TO.N,Net-(D19-Pad2)*%
%TA.AperFunction,ComponentPad*%
G36*
G01*
X220842349Y-109529603D02*
X220842349Y-109529603D01*
G75*
G02*
X219862553Y-108963917I-207055J772741D01*
G01*
X219862553Y-108963917D01*
G75*
G02*
X220428239Y-107984121I772741J207055D01*
G01*
X220428239Y-107984121D01*
G75*
G02*
X221408035Y-108549807I207055J-772741D01*
G01*
X221408035Y-108549807D01*
G75*
G02*
X220842349Y-109529603I-772741J-207055D01*
G01*
G37*
%TD.AperFunction*%
%TD*%
%TA.AperFunction,ComponentPad*%
%TO.P,D20,1*%
%TO.N,/Col3*%
G36*
X254972926Y-127684579D02*
G01*
X253427445Y-128098690D01*
X253013334Y-126553209D01*
X254558815Y-126139098D01*
X254972926Y-127684579D01*
G37*
%TD.AperFunction*%
%TO.P,D20,2*%
%TO.N,Net-(D20-Pad2)*%
%TA.AperFunction,ComponentPad*%
G36*
G01*
X252227984Y-120531280D02*
X252227984Y-120531280D01*
G75*
G02*
X251248188Y-119965594I-207055J772741D01*
G01*
X251248188Y-119965594D01*
G75*
G02*
X251813874Y-118985798I772741J207055D01*
G01*
X251813874Y-118985798D01*
G75*
G02*
X252793670Y-119551484I207055J-772741D01*
G01*
X252793670Y-119551484D01*
G75*
G02*
X252227984Y-120531280I-772741J-207055D01*
G01*
G37*
%TD.AperFunction*%
%TD*%
%TO.P,D21,2*%
%TO.N,Net-(D21-Pad2)*%
%TA.AperFunction,ComponentPad*%
G36*
G01*
X189112349Y-65042077D02*
X189112349Y-65042077D01*
G75*
G02*
X188132553Y-64476391I-207055J772741D01*
G01*
X188132553Y-64476391D01*
G75*
G02*
X188698239Y-63496595I772741J207055D01*
G01*
X188698239Y-63496595D01*
G75*
G02*
X189678035Y-64062281I207055J-772741D01*
G01*
X189678035Y-64062281D01*
G75*
G02*
X189112349Y-65042077I-772741J-207055D01*
G01*
G37*
%TD.AperFunction*%
%TA.AperFunction,ComponentPad*%
%TO.P,D21,1*%
%TO.N,/Col4*%
G36*
X191857291Y-72195376D02*
G01*
X190311810Y-72609487D01*
X189897699Y-71064006D01*
X191443180Y-70649895D01*
X191857291Y-72195376D01*
G37*
%TD.AperFunction*%
%TD*%
%TA.AperFunction,ComponentPad*%
%TO.P,D22,1*%
%TO.N,/Col4*%
G36*
X196638547Y-90195380D02*
G01*
X195093066Y-90609491D01*
X194678955Y-89064010D01*
X196224436Y-88649899D01*
X196638547Y-90195380D01*
G37*
%TD.AperFunction*%
%TO.P,D22,2*%
%TO.N,Net-(D22-Pad2)*%
%TA.AperFunction,ComponentPad*%
G36*
G01*
X193893605Y-83042081D02*
X193893605Y-83042081D01*
G75*
G02*
X192913809Y-82476395I-207055J772741D01*
G01*
X192913809Y-82476395D01*
G75*
G02*
X193479495Y-81496599I772741J207055D01*
G01*
X193479495Y-81496599D01*
G75*
G02*
X194459291Y-82062285I207055J-772741D01*
G01*
X194459291Y-82062285D01*
G75*
G02*
X193893605Y-83042081I-772741J-207055D01*
G01*
G37*
%TD.AperFunction*%
%TD*%
%TA.AperFunction,ComponentPad*%
%TO.P,D23,1*%
%TO.N,/Col4*%
G36*
X201794790Y-108851626D02*
G01*
X200249309Y-109265737D01*
X199835198Y-107720256D01*
X201380679Y-107306145D01*
X201794790Y-108851626D01*
G37*
%TD.AperFunction*%
%TO.P,D23,2*%
%TO.N,Net-(D23-Pad2)*%
%TA.AperFunction,ComponentPad*%
G36*
G01*
X199049848Y-101698327D02*
X199049848Y-101698327D01*
G75*
G02*
X198070052Y-101132641I-207055J772741D01*
G01*
X198070052Y-101132641D01*
G75*
G02*
X198635738Y-100152845I772741J207055D01*
G01*
X198635738Y-100152845D01*
G75*
G02*
X199615534Y-100718531I207055J-772741D01*
G01*
X199615534Y-100718531D01*
G75*
G02*
X199049848Y-101698327I-772741J-207055D01*
G01*
G37*
%TD.AperFunction*%
%TD*%
%TO.P,D24,2*%
%TO.N,Net-(D24-Pad2)*%
%TA.AperFunction,ComponentPad*%
G36*
G01*
X203831092Y-120167080D02*
X203831092Y-120167080D01*
G75*
G02*
X202851296Y-119601394I-207055J772741D01*
G01*
X202851296Y-119601394D01*
G75*
G02*
X203416982Y-118621598I772741J207055D01*
G01*
X203416982Y-118621598D01*
G75*
G02*
X204396778Y-119187284I207055J-772741D01*
G01*
X204396778Y-119187284D01*
G75*
G02*
X203831092Y-120167080I-772741J-207055D01*
G01*
G37*
%TD.AperFunction*%
%TA.AperFunction,ComponentPad*%
%TO.P,D24,1*%
%TO.N,/Col4*%
G36*
X206576034Y-127320379D02*
G01*
X205030553Y-127734490D01*
X204616442Y-126189009D01*
X206161923Y-125774898D01*
X206576034Y-127320379D01*
G37*
%TD.AperFunction*%
%TD*%
%TA.AperFunction,ComponentPad*%
%TO.P,D25,1*%
%TO.N,/Col5*%
G36*
X173951046Y-78664128D02*
G01*
X172405565Y-79078239D01*
X171991454Y-77532758D01*
X173536935Y-77118647D01*
X173951046Y-78664128D01*
G37*
%TD.AperFunction*%
%TO.P,D25,2*%
%TO.N,Net-(D25-Pad2)*%
%TA.AperFunction,ComponentPad*%
G36*
G01*
X171206104Y-71510829D02*
X171206104Y-71510829D01*
G75*
G02*
X170226308Y-70945143I-207055J772741D01*
G01*
X170226308Y-70945143D01*
G75*
G02*
X170791994Y-69965347I772741J207055D01*
G01*
X170791994Y-69965347D01*
G75*
G02*
X171771790Y-70531033I207055J-772741D01*
G01*
X171771790Y-70531033D01*
G75*
G02*
X171206104Y-71510829I-772741J-207055D01*
G01*
G37*
%TD.AperFunction*%
%TD*%
%TO.P,D26,2*%
%TO.N,Net-(D26-Pad2)*%
%TA.AperFunction,ComponentPad*%
G36*
G01*
X175893596Y-89885828D02*
X175893596Y-89885828D01*
G75*
G02*
X174913800Y-89320142I-207055J772741D01*
G01*
X174913800Y-89320142D01*
G75*
G02*
X175479486Y-88340346I772741J207055D01*
G01*
X175479486Y-88340346D01*
G75*
G02*
X176459282Y-88906032I207055J-772741D01*
G01*
X176459282Y-88906032D01*
G75*
G02*
X175893596Y-89885828I-772741J-207055D01*
G01*
G37*
%TD.AperFunction*%
%TA.AperFunction,ComponentPad*%
%TO.P,D26,1*%
%TO.N,/Col5*%
G36*
X178638538Y-97039127D02*
G01*
X177093057Y-97453238D01*
X176678946Y-95907757D01*
X178224427Y-95493646D01*
X178638538Y-97039127D01*
G37*
%TD.AperFunction*%
%TD*%
%TA.AperFunction,ComponentPad*%
%TO.P,D27,1*%
%TO.N,/Col5*%
G36*
X183607296Y-115414128D02*
G01*
X182061815Y-115828239D01*
X181647704Y-114282758D01*
X183193185Y-113868647D01*
X183607296Y-115414128D01*
G37*
%TD.AperFunction*%
%TO.P,D27,2*%
%TO.N,Net-(D27-Pad2)*%
%TA.AperFunction,ComponentPad*%
G36*
G01*
X180862354Y-108260829D02*
X180862354Y-108260829D01*
G75*
G02*
X179882558Y-107695143I-207055J772741D01*
G01*
X179882558Y-107695143D01*
G75*
G02*
X180448244Y-106715347I772741J207055D01*
G01*
X180448244Y-106715347D01*
G75*
G02*
X181428040Y-107281033I207055J-772741D01*
G01*
X181428040Y-107281033D01*
G75*
G02*
X180862354Y-108260829I-772741J-207055D01*
G01*
G37*
%TD.AperFunction*%
%TD*%
%TA.AperFunction,ComponentPad*%
%TO.P,D28,1*%
%TO.N,/Col5*%
G36*
X188576041Y-133601625D02*
G01*
X187030560Y-134015736D01*
X186616449Y-132470255D01*
X188161930Y-132056144D01*
X188576041Y-133601625D01*
G37*
%TD.AperFunction*%
%TO.P,D28,2*%
%TO.N,Net-(D28-Pad2)*%
%TA.AperFunction,ComponentPad*%
G36*
G01*
X185831099Y-126448326D02*
X185831099Y-126448326D01*
G75*
G02*
X184851303Y-125882640I-207055J772741D01*
G01*
X184851303Y-125882640D01*
G75*
G02*
X185416989Y-124902844I772741J207055D01*
G01*
X185416989Y-124902844D01*
G75*
G02*
X186396785Y-125468530I207055J-772741D01*
G01*
X186396785Y-125468530D01*
G75*
G02*
X185831099Y-126448326I-772741J-207055D01*
G01*
G37*
%TD.AperFunction*%
%TD*%
%TO.P,D29,2*%
%TO.N,Net-(D29-Pad2)*%
%TA.AperFunction,ComponentPad*%
G36*
G01*
X143924850Y-77186055D02*
X143924850Y-77186055D01*
G75*
G02*
X144490536Y-78165851I-207055J-772741D01*
G01*
X144490536Y-78165851D01*
G75*
G02*
X143510740Y-78731537I-772741J207055D01*
G01*
X143510740Y-78731537D01*
G75*
G02*
X142945054Y-77751741I207055J772741D01*
G01*
X142945054Y-77751741D01*
G75*
G02*
X143924850Y-77186055I772741J-207055D01*
G01*
G37*
%TD.AperFunction*%
%TA.AperFunction,ComponentPad*%
%TO.P,D29,1*%
%TO.N,/Col6*%
G36*
X145124311Y-69618645D02*
G01*
X146669792Y-70032756D01*
X146255681Y-71578237D01*
X144710200Y-71164126D01*
X145124311Y-69618645D01*
G37*
%TD.AperFunction*%
%TD*%
%TO.P,D30,2*%
%TO.N,Net-(D30-Pad2)*%
%TA.AperFunction,ComponentPad*%
G36*
G01*
X139237349Y-95373555D02*
X139237349Y-95373555D01*
G75*
G02*
X139803035Y-96353351I-207055J-772741D01*
G01*
X139803035Y-96353351D01*
G75*
G02*
X138823239Y-96919037I-772741J207055D01*
G01*
X138823239Y-96919037D01*
G75*
G02*
X138257553Y-95939241I207055J772741D01*
G01*
X138257553Y-95939241D01*
G75*
G02*
X139237349Y-95373555I772741J-207055D01*
G01*
G37*
%TD.AperFunction*%
%TA.AperFunction,ComponentPad*%
%TO.P,D30,1*%
%TO.N,/Col6*%
G36*
X140436810Y-87806145D02*
G01*
X141982291Y-88220256D01*
X141568180Y-89765737D01*
X140022699Y-89351626D01*
X140436810Y-87806145D01*
G37*
%TD.AperFunction*%
%TD*%
%TA.AperFunction,ComponentPad*%
%TO.P,D31,1*%
%TO.N,/Col6*%
G36*
X135374312Y-106743651D02*
G01*
X136919793Y-107157762D01*
X136505682Y-108703243D01*
X134960201Y-108289132D01*
X135374312Y-106743651D01*
G37*
%TD.AperFunction*%
%TO.P,D31,2*%
%TO.N,Net-(D31-Pad2)*%
%TA.AperFunction,ComponentPad*%
G36*
G01*
X134174851Y-114311061D02*
X134174851Y-114311061D01*
G75*
G02*
X134740537Y-115290857I-207055J-772741D01*
G01*
X134740537Y-115290857D01*
G75*
G02*
X133760741Y-115856543I-772741J207055D01*
G01*
X133760741Y-115856543D01*
G75*
G02*
X133195055Y-114876747I207055J772741D01*
G01*
X133195055Y-114876747D01*
G75*
G02*
X134174851Y-114311061I772741J-207055D01*
G01*
G37*
%TD.AperFunction*%
%TD*%
%TO.P,D32,2*%
%TO.N,Net-(D32-Pad2)*%
%TA.AperFunction,ComponentPad*%
G36*
G01*
X129206101Y-132217309D02*
X129206101Y-132217309D01*
G75*
G02*
X129771787Y-133197105I-207055J-772741D01*
G01*
X129771787Y-133197105D01*
G75*
G02*
X128791991Y-133762791I-772741J207055D01*
G01*
X128791991Y-133762791D01*
G75*
G02*
X128226305Y-132782995I207055J772741D01*
G01*
X128226305Y-132782995D01*
G75*
G02*
X129206101Y-132217309I772741J-207055D01*
G01*
G37*
%TD.AperFunction*%
%TA.AperFunction,ComponentPad*%
%TO.P,D32,1*%
%TO.N,/Col6*%
G36*
X130405562Y-124649899D02*
G01*
X131951043Y-125064010D01*
X131536932Y-126609491D01*
X129991451Y-126195380D01*
X130405562Y-124649899D01*
G37*
%TD.AperFunction*%
%TD*%
%TA.AperFunction,ComponentPad*%
%TO.P,D33,1*%
%TO.N,/Col7*%
G36*
X127165980Y-63584323D02*
G01*
X128711461Y-63998434D01*
X128297350Y-65543915D01*
X126751869Y-65129804D01*
X127165980Y-63584323D01*
G37*
%TD.AperFunction*%
%TO.P,D33,2*%
%TO.N,Net-(D33-Pad2)*%
%TA.AperFunction,ComponentPad*%
G36*
G01*
X125966519Y-71151733D02*
X125966519Y-71151733D01*
G75*
G02*
X126532205Y-72131529I-207055J-772741D01*
G01*
X126532205Y-72131529D01*
G75*
G02*
X125552409Y-72697215I-772741J207055D01*
G01*
X125552409Y-72697215D01*
G75*
G02*
X124986723Y-71717419I207055J772741D01*
G01*
X124986723Y-71717419D01*
G75*
G02*
X125966519Y-71151733I772741J-207055D01*
G01*
G37*
%TD.AperFunction*%
%TD*%
%TO.P,D34,2*%
%TO.N,Net-(D34-Pad2)*%
%TA.AperFunction,ComponentPad*%
G36*
G01*
X121113668Y-89262846D02*
X121113668Y-89262846D01*
G75*
G02*
X121679354Y-90242642I-207055J-772741D01*
G01*
X121679354Y-90242642D01*
G75*
G02*
X120699558Y-90808328I-772741J207055D01*
G01*
X120699558Y-90808328D01*
G75*
G02*
X120133872Y-89828532I207055J772741D01*
G01*
X120133872Y-89828532D01*
G75*
G02*
X121113668Y-89262846I772741J-207055D01*
G01*
G37*
%TD.AperFunction*%
%TA.AperFunction,ComponentPad*%
%TO.P,D34,1*%
%TO.N,/Col7*%
G36*
X122313129Y-81695436D02*
G01*
X123858610Y-82109547D01*
X123444499Y-83655028D01*
X121899018Y-83240917D01*
X122313129Y-81695436D01*
G37*
%TD.AperFunction*%
%TD*%
%TA.AperFunction,ComponentPad*%
%TO.P,D35,1*%
%TO.N,/Col7*%
G36*
X117508793Y-99625436D02*
G01*
X119054274Y-100039547D01*
X118640163Y-101585028D01*
X117094682Y-101170917D01*
X117508793Y-99625436D01*
G37*
%TD.AperFunction*%
%TO.P,D35,2*%
%TO.N,Net-(D35-Pad2)*%
%TA.AperFunction,ComponentPad*%
G36*
G01*
X116309332Y-107192846D02*
X116309332Y-107192846D01*
G75*
G02*
X116875018Y-108172642I-207055J-772741D01*
G01*
X116875018Y-108172642D01*
G75*
G02*
X115895222Y-108738328I-772741J207055D01*
G01*
X115895222Y-108738328D01*
G75*
G02*
X115329536Y-107758532I207055J772741D01*
G01*
X115329536Y-107758532D01*
G75*
G02*
X116309332Y-107192846I772741J-207055D01*
G01*
G37*
%TD.AperFunction*%
%TD*%
%TA.AperFunction,ComponentPad*%
%TO.P,D36,1*%
%TO.N,/Col7*%
G36*
X112613911Y-117531176D02*
G01*
X114159392Y-117945287D01*
X113745281Y-119490768D01*
X112199800Y-119076657D01*
X112613911Y-117531176D01*
G37*
%TD.AperFunction*%
%TO.P,D36,2*%
%TO.N,Net-(D36-Pad2)*%
%TA.AperFunction,ComponentPad*%
G36*
G01*
X111414450Y-125098586D02*
X111414450Y-125098586D01*
G75*
G02*
X111980136Y-126078382I-207055J-772741D01*
G01*
X111980136Y-126078382D01*
G75*
G02*
X111000340Y-126644068I-772741J207055D01*
G01*
X111000340Y-126644068D01*
G75*
G02*
X110434654Y-125664272I207055J772741D01*
G01*
X110434654Y-125664272D01*
G75*
G02*
X111414450Y-125098586I772741J-207055D01*
G01*
G37*
%TD.AperFunction*%
%TD*%
%TO.P,D37,2*%
%TO.N,Net-(D37-Pad2)*%
%TA.AperFunction,ComponentPad*%
G36*
G01*
X108907021Y-60563114D02*
X108907021Y-60563114D01*
G75*
G02*
X109472707Y-61542910I-207055J-772741D01*
G01*
X109472707Y-61542910D01*
G75*
G02*
X108492911Y-62108596I-772741J207055D01*
G01*
X108492911Y-62108596D01*
G75*
G02*
X107927225Y-61128800I207055J772741D01*
G01*
X107927225Y-61128800D01*
G75*
G02*
X108907021Y-60563114I772741J-207055D01*
G01*
G37*
%TD.AperFunction*%
%TA.AperFunction,ComponentPad*%
%TO.P,D37,1*%
%TO.N,/Col8*%
G36*
X110106482Y-52995704D02*
G01*
X111651963Y-53409815D01*
X111237852Y-54955296D01*
X109692371Y-54541185D01*
X110106482Y-52995704D01*
G37*
%TD.AperFunction*%
%TD*%
%TO.P,D38,2*%
%TO.N,Net-(D38-Pad2)*%
%TA.AperFunction,ComponentPad*%
G36*
G01*
X104268596Y-78311055D02*
X104268596Y-78311055D01*
G75*
G02*
X104834282Y-79290851I-207055J-772741D01*
G01*
X104834282Y-79290851D01*
G75*
G02*
X103854486Y-79856537I-772741J207055D01*
G01*
X103854486Y-79856537D01*
G75*
G02*
X103288800Y-78876741I207055J772741D01*
G01*
X103288800Y-78876741D01*
G75*
G02*
X104268596Y-78311055I772741J-207055D01*
G01*
G37*
%TD.AperFunction*%
%TA.AperFunction,ComponentPad*%
%TO.P,D38,1*%
%TO.N,/Col8*%
G36*
X105468057Y-70743645D02*
G01*
X107013538Y-71157756D01*
X106599427Y-72703237D01*
X105053946Y-72289126D01*
X105468057Y-70743645D01*
G37*
%TD.AperFunction*%
%TD*%
%TO.P,D39,2*%
%TO.N,Net-(D39-Pad2)*%
%TA.AperFunction,ComponentPad*%
G36*
G01*
X99299847Y-97248556D02*
X99299847Y-97248556D01*
G75*
G02*
X99865533Y-98228352I-207055J-772741D01*
G01*
X99865533Y-98228352D01*
G75*
G02*
X98885737Y-98794038I-772741J207055D01*
G01*
X98885737Y-98794038D01*
G75*
G02*
X98320051Y-97814242I207055J772741D01*
G01*
X98320051Y-97814242D01*
G75*
G02*
X99299847Y-97248556I772741J-207055D01*
G01*
G37*
%TD.AperFunction*%
%TA.AperFunction,ComponentPad*%
%TO.P,D39,1*%
%TO.N,/Col8*%
G36*
X100499308Y-89681146D02*
G01*
X102044789Y-90095257D01*
X101630678Y-91640738D01*
X100085197Y-91226627D01*
X100499308Y-89681146D01*
G37*
%TD.AperFunction*%
%TD*%
%TA.AperFunction,ComponentPad*%
%TO.P,D40,1*%
%TO.N,/Col8*%
G36*
X95624305Y-107868645D02*
G01*
X97169786Y-108282756D01*
X96755675Y-109828237D01*
X95210194Y-109414126D01*
X95624305Y-107868645D01*
G37*
%TD.AperFunction*%
%TO.P,D40,2*%
%TO.N,Net-(D40-Pad2)*%
%TA.AperFunction,ComponentPad*%
G36*
G01*
X94424844Y-115436055D02*
X94424844Y-115436055D01*
G75*
G02*
X94990530Y-116415851I-207055J-772741D01*
G01*
X94990530Y-116415851D01*
G75*
G02*
X94010734Y-116981537I-772741J207055D01*
G01*
X94010734Y-116981537D01*
G75*
G02*
X93445048Y-116001741I207055J772741D01*
G01*
X93445048Y-116001741D01*
G75*
G02*
X94424844Y-115436055I772741J-207055D01*
G01*
G37*
%TD.AperFunction*%
%TD*%
%TA.AperFunction,ComponentPad*%
%TO.P,D41,1*%
%TO.N,/Col8*%
G36*
X67432261Y-129695538D02*
G01*
X65886780Y-129281427D01*
X66300891Y-127735946D01*
X67846372Y-128150057D01*
X67432261Y-129695538D01*
G37*
%TD.AperFunction*%
%TO.P,D41,2*%
%TO.N,Net-(D41-Pad2)*%
%TA.AperFunction,ComponentPad*%
G36*
G01*
X68631722Y-122128128D02*
X68631722Y-122128128D01*
G75*
G02*
X68066036Y-121148332I207055J772741D01*
G01*
X68066036Y-121148332D01*
G75*
G02*
X69045832Y-120582646I772741J-207055D01*
G01*
X69045832Y-120582646D01*
G75*
G02*
X69611518Y-121562442I-207055J-772741D01*
G01*
X69611518Y-121562442D01*
G75*
G02*
X68631722Y-122128128I-772741J207055D01*
G01*
G37*
%TD.AperFunction*%
%TD*%
%TO.P,D42,2*%
%TO.N,Net-(D42-Pad2)*%
%TA.AperFunction,ComponentPad*%
G36*
G01*
X89831094Y-58811058D02*
X89831094Y-58811058D01*
G75*
G02*
X90396780Y-59790854I-207055J-772741D01*
G01*
X90396780Y-59790854D01*
G75*
G02*
X89416984Y-60356540I-772741J207055D01*
G01*
X89416984Y-60356540D01*
G75*
G02*
X88851298Y-59376744I207055J772741D01*
G01*
X88851298Y-59376744D01*
G75*
G02*
X89831094Y-58811058I772741J-207055D01*
G01*
G37*
%TD.AperFunction*%
%TA.AperFunction,ComponentPad*%
%TO.P,D42,1*%
%TO.N,/Col9*%
G36*
X91030555Y-51243648D02*
G01*
X92576036Y-51657759D01*
X92161925Y-53203240D01*
X90616444Y-52789129D01*
X91030555Y-51243648D01*
G37*
%TD.AperFunction*%
%TD*%
%TO.P,D43,2*%
%TO.N,Net-(D43-Pad2)*%
%TA.AperFunction,ComponentPad*%
G36*
G01*
X85032917Y-76019207D02*
X85032917Y-76019207D01*
G75*
G02*
X85598603Y-76999003I-207055J-772741D01*
G01*
X85598603Y-76999003D01*
G75*
G02*
X84618807Y-77564689I-772741J207055D01*
G01*
X84618807Y-77564689D01*
G75*
G02*
X84053121Y-76584893I207055J772741D01*
G01*
X84053121Y-76584893D01*
G75*
G02*
X85032917Y-76019207I772741J-207055D01*
G01*
G37*
%TD.AperFunction*%
%TA.AperFunction,ComponentPad*%
%TO.P,D43,1*%
%TO.N,/Col9*%
G36*
X86232378Y-68451797D02*
G01*
X87777859Y-68865908D01*
X87363748Y-70411389D01*
X85818267Y-69997278D01*
X86232378Y-68451797D01*
G37*
%TD.AperFunction*%
%TD*%
%TO.P,D44,2*%
%TO.N,Net-(D44-Pad2)*%
%TA.AperFunction,ComponentPad*%
G36*
G01*
X79799849Y-96498557D02*
X79799849Y-96498557D01*
G75*
G02*
X80365535Y-97478353I-207055J-772741D01*
G01*
X80365535Y-97478353D01*
G75*
G02*
X79385739Y-98044039I-772741J207055D01*
G01*
X79385739Y-98044039D01*
G75*
G02*
X78820053Y-97064243I207055J772741D01*
G01*
X78820053Y-97064243D01*
G75*
G02*
X79799849Y-96498557I772741J-207055D01*
G01*
G37*
%TD.AperFunction*%
%TA.AperFunction,ComponentPad*%
%TO.P,D44,1*%
%TO.N,/Col9*%
G36*
X80999310Y-88931147D02*
G01*
X82544791Y-89345258D01*
X82130680Y-90890739D01*
X80585199Y-90476628D01*
X80999310Y-88931147D01*
G37*
%TD.AperFunction*%
%TD*%
%TO.P,D45,2*%
%TO.N,Net-(D45-Pad2)*%
%TA.AperFunction,ComponentPad*%
G36*
G01*
X75112348Y-113561055D02*
X75112348Y-113561055D01*
G75*
G02*
X75678034Y-114540851I-207055J-772741D01*
G01*
X75678034Y-114540851D01*
G75*
G02*
X74698238Y-115106537I-772741J207055D01*
G01*
X74698238Y-115106537D01*
G75*
G02*
X74132552Y-114126741I207055J772741D01*
G01*
X74132552Y-114126741D01*
G75*
G02*
X75112348Y-113561055I772741J-207055D01*
G01*
G37*
%TD.AperFunction*%
%TA.AperFunction,ComponentPad*%
%TO.P,D45,1*%
%TO.N,/Col9*%
G36*
X76311809Y-105993645D02*
G01*
X77857290Y-106407756D01*
X77443179Y-107953237D01*
X75897698Y-107539126D01*
X76311809Y-105993645D01*
G37*
%TD.AperFunction*%
%TD*%
%TO.P,D46,2*%
%TO.N,Net-(D46-Pad2)*%
%TA.AperFunction,ComponentPad*%
G36*
G01*
X72344500Y-123122967D02*
X72344500Y-123122967D01*
G75*
G02*
X71778814Y-122143171I207055J772741D01*
G01*
X71778814Y-122143171D01*
G75*
G02*
X72758610Y-121577485I772741J-207055D01*
G01*
X72758610Y-121577485D01*
G75*
G02*
X73324296Y-122557281I-207055J-772741D01*
G01*
X73324296Y-122557281D01*
G75*
G02*
X72344500Y-123122967I-772741J207055D01*
G01*
G37*
%TD.AperFunction*%
%TA.AperFunction,ComponentPad*%
%TO.P,D46,1*%
%TO.N,/Col9*%
G36*
X71145039Y-130690377D02*
G01*
X69599558Y-130276266D01*
X70013669Y-128730785D01*
X71559150Y-129144896D01*
X71145039Y-130690377D01*
G37*
%TD.AperFunction*%
%TD*%
%TA.AperFunction,ComponentPad*%
%TO.P,D47,1*%
%TO.N,/Col10*%
G36*
X70124308Y-55368643D02*
G01*
X71669789Y-55782754D01*
X71255678Y-57328235D01*
X69710197Y-56914124D01*
X70124308Y-55368643D01*
G37*
%TD.AperFunction*%
%TO.P,D47,2*%
%TO.N,Net-(D47-Pad2)*%
%TA.AperFunction,ComponentPad*%
G36*
G01*
X68924847Y-62936053D02*
X68924847Y-62936053D01*
G75*
G02*
X69490533Y-63915849I-207055J-772741D01*
G01*
X69490533Y-63915849D01*
G75*
G02*
X68510737Y-64481535I-772741J207055D01*
G01*
X68510737Y-64481535D01*
G75*
G02*
X67945051Y-63501739I207055J772741D01*
G01*
X67945051Y-63501739D01*
G75*
G02*
X68924847Y-62936053I772741J-207055D01*
G01*
G37*
%TD.AperFunction*%
%TD*%
%TO.P,D48,2*%
%TO.N,Net-(D48-Pad2)*%
%TA.AperFunction,ComponentPad*%
G36*
G01*
X64143602Y-80936060D02*
X64143602Y-80936060D01*
G75*
G02*
X64709288Y-81915856I-207055J-772741D01*
G01*
X64709288Y-81915856D01*
G75*
G02*
X63729492Y-82481542I-772741J207055D01*
G01*
X63729492Y-82481542D01*
G75*
G02*
X63163806Y-81501746I207055J772741D01*
G01*
X63163806Y-81501746D01*
G75*
G02*
X64143602Y-80936060I772741J-207055D01*
G01*
G37*
%TD.AperFunction*%
%TA.AperFunction,ComponentPad*%
%TO.P,D48,1*%
%TO.N,/Col10*%
G36*
X65343063Y-73368650D02*
G01*
X66888544Y-73782761D01*
X66474433Y-75328242D01*
X64928952Y-74914131D01*
X65343063Y-73368650D01*
G37*
%TD.AperFunction*%
%TD*%
%TO.P,D49,2*%
%TO.N,Net-(D49-Pad2)*%
%TA.AperFunction,ComponentPad*%
G36*
G01*
X58987347Y-100154805D02*
X58987347Y-100154805D01*
G75*
G02*
X59553033Y-101134601I-207055J-772741D01*
G01*
X59553033Y-101134601D01*
G75*
G02*
X58573237Y-101700287I-772741J207055D01*
G01*
X58573237Y-101700287D01*
G75*
G02*
X58007551Y-100720491I207055J772741D01*
G01*
X58007551Y-100720491D01*
G75*
G02*
X58987347Y-100154805I772741J-207055D01*
G01*
G37*
%TD.AperFunction*%
%TA.AperFunction,ComponentPad*%
%TO.P,D49,1*%
%TO.N,/Col10*%
G36*
X60186808Y-92587395D02*
G01*
X61732289Y-93001506D01*
X61318178Y-94546987D01*
X59772697Y-94132876D01*
X60186808Y-92587395D01*
G37*
%TD.AperFunction*%
%TD*%
%TA.AperFunction,ComponentPad*%
%TO.P,D50,1*%
%TO.N,/Col10*%
G36*
X55405555Y-110681148D02*
G01*
X56951036Y-111095259D01*
X56536925Y-112640740D01*
X54991444Y-112226629D01*
X55405555Y-110681148D01*
G37*
%TD.AperFunction*%
%TO.P,D50,2*%
%TO.N,Net-(D50-Pad2)*%
%TA.AperFunction,ComponentPad*%
G36*
G01*
X54206094Y-118248558D02*
X54206094Y-118248558D01*
G75*
G02*
X54771780Y-119228354I-207055J-772741D01*
G01*
X54771780Y-119228354D01*
G75*
G02*
X53791984Y-119794040I-772741J207055D01*
G01*
X53791984Y-119794040D01*
G75*
G02*
X53226298Y-118814244I207055J772741D01*
G01*
X53226298Y-118814244D01*
G75*
G02*
X54206094Y-118248558I772741J-207055D01*
G01*
G37*
%TD.AperFunction*%
%TD*%
%TA.AperFunction,ComponentPad*%
%TO.P,D51,1*%
%TO.N,/Col10*%
G36*
X74857822Y-131685211D02*
G01*
X73312341Y-131271100D01*
X73726452Y-129725619D01*
X75271933Y-130139730D01*
X74857822Y-131685211D01*
G37*
%TD.AperFunction*%
%TO.P,D51,2*%
%TO.N,Net-(D51-Pad2)*%
%TA.AperFunction,ComponentPad*%
G36*
G01*
X76057283Y-124117801D02*
X76057283Y-124117801D01*
G75*
G02*
X75491597Y-123138005I207055J772741D01*
G01*
X75491597Y-123138005D01*
G75*
G02*
X76471393Y-122572319I772741J-207055D01*
G01*
X76471393Y-122572319D01*
G75*
G02*
X77037079Y-123552115I-207055J-772741D01*
G01*
X77037079Y-123552115D01*
G75*
G02*
X76057283Y-124117801I-772741J207055D01*
G01*
G37*
%TD.AperFunction*%
%TD*%
%TA.AperFunction,ComponentPad*%
%TO.P,D52,1*%
%TO.N,/Col11*%
G36*
X51561809Y-50774899D02*
G01*
X53107290Y-51189010D01*
X52693179Y-52734491D01*
X51147698Y-52320380D01*
X51561809Y-50774899D01*
G37*
%TD.AperFunction*%
%TO.P,D52,2*%
%TO.N,Net-(D52-Pad2)*%
%TA.AperFunction,ComponentPad*%
G36*
G01*
X50362348Y-58342309D02*
X50362348Y-58342309D01*
G75*
G02*
X50928034Y-59322105I-207055J-772741D01*
G01*
X50928034Y-59322105D01*
G75*
G02*
X49948238Y-59887791I-772741J207055D01*
G01*
X49948238Y-59887791D01*
G75*
G02*
X49382552Y-58907995I207055J772741D01*
G01*
X49382552Y-58907995D01*
G75*
G02*
X50362348Y-58342309I772741J-207055D01*
G01*
G37*
%TD.AperFunction*%
%TD*%
%TO.P,D53,2*%
%TO.N,Net-(D53-Pad2)*%
%TA.AperFunction,ComponentPad*%
G36*
G01*
X45674850Y-76717310D02*
X45674850Y-76717310D01*
G75*
G02*
X46240536Y-77697106I-207055J-772741D01*
G01*
X46240536Y-77697106D01*
G75*
G02*
X45260740Y-78262792I-772741J207055D01*
G01*
X45260740Y-78262792D01*
G75*
G02*
X44695054Y-77282996I207055J772741D01*
G01*
X44695054Y-77282996D01*
G75*
G02*
X45674850Y-76717310I772741J-207055D01*
G01*
G37*
%TD.AperFunction*%
%TA.AperFunction,ComponentPad*%
%TO.P,D53,1*%
%TO.N,/Col11*%
G36*
X46874311Y-69149900D02*
G01*
X48419792Y-69564011D01*
X48005681Y-71109492D01*
X46460200Y-70695381D01*
X46874311Y-69149900D01*
G37*
%TD.AperFunction*%
%TD*%
%TO.P,D54,2*%
%TO.N,Net-(D54-Pad2)*%
%TA.AperFunction,ComponentPad*%
G36*
G01*
X40518601Y-95936054D02*
X40518601Y-95936054D01*
G75*
G02*
X41084287Y-96915850I-207055J-772741D01*
G01*
X41084287Y-96915850D01*
G75*
G02*
X40104491Y-97481536I-772741J207055D01*
G01*
X40104491Y-97481536D01*
G75*
G02*
X39538805Y-96501740I207055J772741D01*
G01*
X39538805Y-96501740D01*
G75*
G02*
X40518601Y-95936054I772741J-207055D01*
G01*
G37*
%TD.AperFunction*%
%TA.AperFunction,ComponentPad*%
%TO.P,D54,1*%
%TO.N,/Col11*%
G36*
X41718062Y-88368644D02*
G01*
X43263543Y-88782755D01*
X42849432Y-90328236D01*
X41303951Y-89914125D01*
X41718062Y-88368644D01*
G37*
%TD.AperFunction*%
%TD*%
%TA.AperFunction,ComponentPad*%
%TO.P,D55,1*%
%TO.N,/Col11*%
G36*
X37030562Y-105618647D02*
G01*
X38576043Y-106032758D01*
X38161932Y-107578239D01*
X36616451Y-107164128D01*
X37030562Y-105618647D01*
G37*
%TD.AperFunction*%
%TO.P,D55,2*%
%TO.N,Net-(D55-Pad2)*%
%TA.AperFunction,ComponentPad*%
G36*
G01*
X35831101Y-113186057D02*
X35831101Y-113186057D01*
G75*
G02*
X36396787Y-114165853I-207055J-772741D01*
G01*
X36396787Y-114165853D01*
G75*
G02*
X35416991Y-114731539I-772741J207055D01*
G01*
X35416991Y-114731539D01*
G75*
G02*
X34851305Y-113751743I207055J772741D01*
G01*
X34851305Y-113751743D01*
G75*
G02*
X35831101Y-113186057I772741J-207055D01*
G01*
G37*
%TD.AperFunction*%
%TD*%
%TA.AperFunction,ComponentPad*%
%TO.P,D56,1*%
%TO.N,/Col11*%
G36*
X78570595Y-132680048D02*
G01*
X77025114Y-132265937D01*
X77439225Y-130720456D01*
X78984706Y-131134567D01*
X78570595Y-132680048D01*
G37*
%TD.AperFunction*%
%TO.P,D56,2*%
%TO.N,Net-(D56-Pad2)*%
%TA.AperFunction,ComponentPad*%
G36*
G01*
X79770056Y-125112638D02*
X79770056Y-125112638D01*
G75*
G02*
X79204370Y-124132842I207055J772741D01*
G01*
X79204370Y-124132842D01*
G75*
G02*
X80184166Y-123567156I772741J-207055D01*
G01*
X80184166Y-123567156D01*
G75*
G02*
X80749852Y-124546952I-207055J-772741D01*
G01*
X80749852Y-124546952D01*
G75*
G02*
X79770056Y-125112638I-772741J207055D01*
G01*
G37*
%TD.AperFunction*%
%TD*%
%TO.P,SW2,1*%
%TO.N,/Row1*%
%TA.AperFunction,ComponentPad*%
G36*
G01*
X273698176Y-68737889D02*
X274374764Y-66592025D01*
G75*
G02*
X275942792Y-65775761I1192146J-375882D01*
G01*
X275942792Y-65775761D01*
G75*
G02*
X276759056Y-67343789I-375882J-1192146D01*
G01*
X276082468Y-69489653D01*
G75*
G02*
X274514440Y-70305917I-1192146J375882D01*
G01*
X274514440Y-70305917D01*
G75*
G02*
X273698176Y-68737889I375882J1192146D01*
G01*
G37*
%TD.AperFunction*%
%TO.P,SW2,2*%
%TO.N,Net-(D2-Pad2)*%
%TA.AperFunction,ComponentPad*%
G36*
G01*
X279307353Y-65844660D02*
X279195691Y-65275510D01*
G75*
G02*
X280181655Y-63808242I1226616J240652D01*
G01*
X280181655Y-63808242D01*
G75*
G02*
X281648923Y-64794206I240652J-1226616D01*
G01*
X281760585Y-65363356D01*
G75*
G02*
X280774621Y-66830624I-1226616J-240652D01*
G01*
X280774621Y-66830624D01*
G75*
G02*
X279307353Y-65844660I-240652J1226616D01*
G01*
G37*
%TD.AperFunction*%
%TD*%
%TO.P,SW4,1*%
%TO.N,/Row3*%
%TA.AperFunction,ComponentPad*%
G36*
G01*
X283541922Y-105487892D02*
X284218510Y-103342028D01*
G75*
G02*
X285786538Y-102525764I1192146J-375882D01*
G01*
X285786538Y-102525764D01*
G75*
G02*
X286602802Y-104093792I-375882J-1192146D01*
G01*
X285926214Y-106239656D01*
G75*
G02*
X284358186Y-107055920I-1192146J375882D01*
G01*
X284358186Y-107055920D01*
G75*
G02*
X283541922Y-105487892I375882J1192146D01*
G01*
G37*
%TD.AperFunction*%
%TO.P,SW4,2*%
%TO.N,Net-(D4-Pad2)*%
%TA.AperFunction,ComponentPad*%
G36*
G01*
X289151099Y-102594663D02*
X289039437Y-102025513D01*
G75*
G02*
X290025401Y-100558245I1226616J240652D01*
G01*
X290025401Y-100558245D01*
G75*
G02*
X291492669Y-101544209I240652J-1226616D01*
G01*
X291604331Y-102113359D01*
G75*
G02*
X290618367Y-103580627I-1226616J-240652D01*
G01*
X290618367Y-103580627D01*
G75*
G02*
X289151099Y-102594663I-240652J1226616D01*
G01*
G37*
%TD.AperFunction*%
%TD*%
%TO.P,SW5,1*%
%TO.N,/Row4*%
%TA.AperFunction,ComponentPad*%
G36*
G01*
X216791925Y-136425389D02*
X217468513Y-134279525D01*
G75*
G02*
X219036541Y-133463261I1192146J-375882D01*
G01*
X219036541Y-133463261D01*
G75*
G02*
X219852805Y-135031289I-375882J-1192146D01*
G01*
X219176217Y-137177153D01*
G75*
G02*
X217608189Y-137993417I-1192146J375882D01*
G01*
X217608189Y-137993417D01*
G75*
G02*
X216791925Y-136425389I375882J1192146D01*
G01*
G37*
%TD.AperFunction*%
%TO.P,SW5,2*%
%TO.N,Net-(D5-Pad2)*%
%TA.AperFunction,ComponentPad*%
G36*
G01*
X222401102Y-133532160D02*
X222289440Y-132963010D01*
G75*
G02*
X223275404Y-131495742I1226616J240652D01*
G01*
X223275404Y-131495742D01*
G75*
G02*
X224742672Y-132481706I240652J-1226616D01*
G01*
X224854334Y-133050856D01*
G75*
G02*
X223868370Y-134518124I-1226616J-240652D01*
G01*
X223868370Y-134518124D01*
G75*
G02*
X222401102Y-133532160I-240652J1226616D01*
G01*
G37*
%TD.AperFunction*%
%TD*%
%TO.P,SW6,2*%
%TO.N,Net-(D6-Pad2)*%
%TA.AperFunction,ComponentPad*%
G36*
G01*
X255963597Y-52344661D02*
X255851935Y-51775511D01*
G75*
G02*
X256837899Y-50308243I1226616J240652D01*
G01*
X256837899Y-50308243D01*
G75*
G02*
X258305167Y-51294207I240652J-1226616D01*
G01*
X258416829Y-51863357D01*
G75*
G02*
X257430865Y-53330625I-1226616J-240652D01*
G01*
X257430865Y-53330625D01*
G75*
G02*
X255963597Y-52344661I-240652J1226616D01*
G01*
G37*
%TD.AperFunction*%
%TO.P,SW6,1*%
%TO.N,/Row0*%
%TA.AperFunction,ComponentPad*%
G36*
G01*
X250354420Y-55237890D02*
X251031008Y-53092026D01*
G75*
G02*
X252599036Y-52275762I1192146J-375882D01*
G01*
X252599036Y-52275762D01*
G75*
G02*
X253415300Y-53843790I-375882J-1192146D01*
G01*
X252738712Y-55989654D01*
G75*
G02*
X251170684Y-56805918I-1192146J375882D01*
G01*
X251170684Y-56805918D01*
G75*
G02*
X250354420Y-55237890I375882J1192146D01*
G01*
G37*
%TD.AperFunction*%
%TD*%
%TO.P,SW7,2*%
%TO.N,Net-(D7-Pad2)*%
%TA.AperFunction,ComponentPad*%
G36*
G01*
X260838598Y-70813404D02*
X260726936Y-70244254D01*
G75*
G02*
X261712900Y-68776986I1226616J240652D01*
G01*
X261712900Y-68776986D01*
G75*
G02*
X263180168Y-69762950I240652J-1226616D01*
G01*
X263291830Y-70332100D01*
G75*
G02*
X262305866Y-71799368I-1226616J-240652D01*
G01*
X262305866Y-71799368D01*
G75*
G02*
X260838598Y-70813404I-240652J1226616D01*
G01*
G37*
%TD.AperFunction*%
%TO.P,SW7,1*%
%TO.N,/Row1*%
%TA.AperFunction,ComponentPad*%
G36*
G01*
X255229421Y-73706633D02*
X255906009Y-71560769D01*
G75*
G02*
X257474037Y-70744505I1192146J-375882D01*
G01*
X257474037Y-70744505D01*
G75*
G02*
X258290301Y-72312533I-375882J-1192146D01*
G01*
X257613713Y-74458397D01*
G75*
G02*
X256045685Y-75274661I-1192146J375882D01*
G01*
X256045685Y-75274661D01*
G75*
G02*
X255229421Y-73706633I375882J1192146D01*
G01*
G37*
%TD.AperFunction*%
%TD*%
%TO.P,SW8,1*%
%TO.N,/Row2*%
%TA.AperFunction,ComponentPad*%
G36*
G01*
X260198177Y-92081637D02*
X260874765Y-89935773D01*
G75*
G02*
X262442793Y-89119509I1192146J-375882D01*
G01*
X262442793Y-89119509D01*
G75*
G02*
X263259057Y-90687537I-375882J-1192146D01*
G01*
X262582469Y-92833401D01*
G75*
G02*
X261014441Y-93649665I-1192146J375882D01*
G01*
X261014441Y-93649665D01*
G75*
G02*
X260198177Y-92081637I375882J1192146D01*
G01*
G37*
%TD.AperFunction*%
%TO.P,SW8,2*%
%TO.N,Net-(D8-Pad2)*%
%TA.AperFunction,ComponentPad*%
G36*
G01*
X265807354Y-89188408D02*
X265695692Y-88619258D01*
G75*
G02*
X266681656Y-87151990I1226616J240652D01*
G01*
X266681656Y-87151990D01*
G75*
G02*
X268148924Y-88137954I240652J-1226616D01*
G01*
X268260586Y-88707104D01*
G75*
G02*
X267274622Y-90174372I-1226616J-240652D01*
G01*
X267274622Y-90174372D01*
G75*
G02*
X265807354Y-89188408I-240652J1226616D01*
G01*
G37*
%TD.AperFunction*%
%TD*%
%TO.P,SW9,2*%
%TO.N,Net-(D9-Pad2)*%
%TA.AperFunction,ComponentPad*%
G36*
G01*
X270776104Y-107563414D02*
X270664442Y-106994264D01*
G75*
G02*
X271650406Y-105526996I1226616J240652D01*
G01*
X271650406Y-105526996D01*
G75*
G02*
X273117674Y-106512960I240652J-1226616D01*
G01*
X273229336Y-107082110D01*
G75*
G02*
X272243372Y-108549378I-1226616J-240652D01*
G01*
X272243372Y-108549378D01*
G75*
G02*
X270776104Y-107563414I-240652J1226616D01*
G01*
G37*
%TD.AperFunction*%
%TO.P,SW9,1*%
%TO.N,/Row3*%
%TA.AperFunction,ComponentPad*%
G36*
G01*
X265166927Y-110456643D02*
X265843515Y-108310779D01*
G75*
G02*
X267411543Y-107494515I1192146J-375882D01*
G01*
X267411543Y-107494515D01*
G75*
G02*
X268227807Y-109062543I-375882J-1192146D01*
G01*
X267551219Y-111208407D01*
G75*
G02*
X265983191Y-112024671I-1192146J375882D01*
G01*
X265983191Y-112024671D01*
G75*
G02*
X265166927Y-110456643I375882J1192146D01*
G01*
G37*
%TD.AperFunction*%
%TD*%
%TO.P,SW10,2*%
%TO.N,Net-(D10-Pad2)*%
%TA.AperFunction,ComponentPad*%
G36*
G01*
X202340382Y-141139733D02*
X202108180Y-140608243D01*
G75*
G02*
X202753197Y-138962354I1145453J500436D01*
G01*
X202753197Y-138962354D01*
G75*
G02*
X204399086Y-139607371I500436J-1145453D01*
G01*
X204631288Y-140138861D01*
G75*
G02*
X203986271Y-141784750I-1145453J-500436D01*
G01*
X203986271Y-141784750D01*
G75*
G02*
X202340382Y-141139733I-500436J1145453D01*
G01*
G37*
%TD.AperFunction*%
%TO.P,SW10,1*%
%TO.N,/Row4*%
%TA.AperFunction,ComponentPad*%
G36*
G01*
X197490375Y-145178428D02*
X197686475Y-142936990D01*
G75*
G02*
X199040663Y-141800692I1245243J-108945D01*
G01*
X199040663Y-141800692D01*
G75*
G02*
X200176961Y-143154880I-108945J-1245243D01*
G01*
X199980861Y-145396318D01*
G75*
G02*
X198626673Y-146532616I-1245243J108945D01*
G01*
X198626673Y-146532616D01*
G75*
G02*
X197490375Y-145178428I108945J1245243D01*
G01*
G37*
%TD.AperFunction*%
%TD*%
%TO.P,SW12,1*%
%TO.N,/Row1*%
%TA.AperFunction,ComponentPad*%
G36*
G01*
X234416924Y-69394140D02*
X235093512Y-67248276D01*
G75*
G02*
X236661540Y-66432012I1192146J-375882D01*
G01*
X236661540Y-66432012D01*
G75*
G02*
X237477804Y-68000040I-375882J-1192146D01*
G01*
X236801216Y-70145904D01*
G75*
G02*
X235233188Y-70962168I-1192146J375882D01*
G01*
X235233188Y-70962168D01*
G75*
G02*
X234416924Y-69394140I375882J1192146D01*
G01*
G37*
%TD.AperFunction*%
%TO.P,SW12,2*%
%TO.N,Net-(D12-Pad2)*%
%TA.AperFunction,ComponentPad*%
G36*
G01*
X240026101Y-66500911D02*
X239914439Y-65931761D01*
G75*
G02*
X240900403Y-64464493I1226616J240652D01*
G01*
X240900403Y-64464493D01*
G75*
G02*
X242367671Y-65450457I240652J-1226616D01*
G01*
X242479333Y-66019607D01*
G75*
G02*
X241493369Y-67486875I-1226616J-240652D01*
G01*
X241493369Y-67486875D01*
G75*
G02*
X240026101Y-66500911I-240652J1226616D01*
G01*
G37*
%TD.AperFunction*%
%TD*%
%TO.P,SW13,1*%
%TO.N,/Row2*%
%TA.AperFunction,ComponentPad*%
G36*
G01*
X239291924Y-87769140D02*
X239968512Y-85623276D01*
G75*
G02*
X241536540Y-84807012I1192146J-375882D01*
G01*
X241536540Y-84807012D01*
G75*
G02*
X242352804Y-86375040I-375882J-1192146D01*
G01*
X241676216Y-88520904D01*
G75*
G02*
X240108188Y-89337168I-1192146J375882D01*
G01*
X240108188Y-89337168D01*
G75*
G02*
X239291924Y-87769140I375882J1192146D01*
G01*
G37*
%TD.AperFunction*%
%TO.P,SW13,2*%
%TO.N,Net-(D13-Pad2)*%
%TA.AperFunction,ComponentPad*%
G36*
G01*
X244901101Y-84875911D02*
X244789439Y-84306761D01*
G75*
G02*
X245775403Y-82839493I1226616J240652D01*
G01*
X245775403Y-82839493D01*
G75*
G02*
X247242671Y-83825457I240652J-1226616D01*
G01*
X247354333Y-84394607D01*
G75*
G02*
X246368369Y-85861875I-1226616J-240652D01*
G01*
X246368369Y-85861875D01*
G75*
G02*
X244901101Y-84875911I-240652J1226616D01*
G01*
G37*
%TD.AperFunction*%
%TD*%
%TO.P,SW14,2*%
%TO.N,Net-(D14-Pad2)*%
%TA.AperFunction,ComponentPad*%
G36*
G01*
X249869847Y-103344660D02*
X249758185Y-102775510D01*
G75*
G02*
X250744149Y-101308242I1226616J240652D01*
G01*
X250744149Y-101308242D01*
G75*
G02*
X252211417Y-102294206I240652J-1226616D01*
G01*
X252323079Y-102863356D01*
G75*
G02*
X251337115Y-104330624I-1226616J-240652D01*
G01*
X251337115Y-104330624D01*
G75*
G02*
X249869847Y-103344660I-240652J1226616D01*
G01*
G37*
%TD.AperFunction*%
%TO.P,SW14,1*%
%TO.N,/Row3*%
%TA.AperFunction,ComponentPad*%
G36*
G01*
X244260670Y-106237889D02*
X244937258Y-104092025D01*
G75*
G02*
X246505286Y-103275761I1192146J-375882D01*
G01*
X246505286Y-103275761D01*
G75*
G02*
X247321550Y-104843789I-375882J-1192146D01*
G01*
X246644962Y-106989653D01*
G75*
G02*
X245076934Y-107805917I-1192146J375882D01*
G01*
X245076934Y-107805917D01*
G75*
G02*
X244260670Y-106237889I375882J1192146D01*
G01*
G37*
%TD.AperFunction*%
%TD*%
%TO.P,SW16,2*%
%TO.N,Net-(D16-Pad2)*%
%TA.AperFunction,ComponentPad*%
G36*
G01*
X215744847Y-49344659D02*
X215633185Y-48775509D01*
G75*
G02*
X216619149Y-47308241I1226616J240652D01*
G01*
X216619149Y-47308241D01*
G75*
G02*
X218086417Y-48294205I240652J-1226616D01*
G01*
X218198079Y-48863355D01*
G75*
G02*
X217212115Y-50330623I-1226616J-240652D01*
G01*
X217212115Y-50330623D01*
G75*
G02*
X215744847Y-49344659I-240652J1226616D01*
G01*
G37*
%TD.AperFunction*%
%TO.P,SW16,1*%
%TO.N,/Row0*%
%TA.AperFunction,ComponentPad*%
G36*
G01*
X210135670Y-52237888D02*
X210812258Y-50092024D01*
G75*
G02*
X212380286Y-49275760I1192146J-375882D01*
G01*
X212380286Y-49275760D01*
G75*
G02*
X213196550Y-50843788I-375882J-1192146D01*
G01*
X212519962Y-52989652D01*
G75*
G02*
X210951934Y-53805916I-1192146J375882D01*
G01*
X210951934Y-53805916D01*
G75*
G02*
X210135670Y-52237888I375882J1192146D01*
G01*
G37*
%TD.AperFunction*%
%TD*%
%TO.P,SW18,1*%
%TO.N,/Row2*%
%TA.AperFunction,ComponentPad*%
G36*
G01*
X219979427Y-89081641D02*
X220656015Y-86935777D01*
G75*
G02*
X222224043Y-86119513I1192146J-375882D01*
G01*
X222224043Y-86119513D01*
G75*
G02*
X223040307Y-87687541I-375882J-1192146D01*
G01*
X222363719Y-89833405D01*
G75*
G02*
X220795691Y-90649669I-1192146J375882D01*
G01*
X220795691Y-90649669D01*
G75*
G02*
X219979427Y-89081641I375882J1192146D01*
G01*
G37*
%TD.AperFunction*%
%TO.P,SW18,2*%
%TO.N,Net-(D18-Pad2)*%
%TA.AperFunction,ComponentPad*%
G36*
G01*
X225588604Y-86188412D02*
X225476942Y-85619262D01*
G75*
G02*
X226462906Y-84151994I1226616J240652D01*
G01*
X226462906Y-84151994D01*
G75*
G02*
X227930174Y-85137958I240652J-1226616D01*
G01*
X228041836Y-85707108D01*
G75*
G02*
X227055872Y-87174376I-1226616J-240652D01*
G01*
X227055872Y-87174376D01*
G75*
G02*
X225588604Y-86188412I-240652J1226616D01*
G01*
G37*
%TD.AperFunction*%
%TD*%
%TO.P,SW19,2*%
%TO.N,Net-(D19-Pad2)*%
%TA.AperFunction,ComponentPad*%
G36*
G01*
X230463597Y-104563409D02*
X230351935Y-103994259D01*
G75*
G02*
X231337899Y-102526991I1226616J240652D01*
G01*
X231337899Y-102526991D01*
G75*
G02*
X232805167Y-103512955I240652J-1226616D01*
G01*
X232916829Y-104082105D01*
G75*
G02*
X231930865Y-105549373I-1226616J-240652D01*
G01*
X231930865Y-105549373D01*
G75*
G02*
X230463597Y-104563409I-240652J1226616D01*
G01*
G37*
%TD.AperFunction*%
%TO.P,SW19,1*%
%TO.N,/Row3*%
%TA.AperFunction,ComponentPad*%
G36*
G01*
X224854420Y-107456638D02*
X225531008Y-105310774D01*
G75*
G02*
X227099036Y-104494510I1192146J-375882D01*
G01*
X227099036Y-104494510D01*
G75*
G02*
X227915300Y-106062538I-375882J-1192146D01*
G01*
X227238712Y-108208402D01*
G75*
G02*
X225670684Y-109024666I-1192146J375882D01*
G01*
X225670684Y-109024666D01*
G75*
G02*
X224854420Y-107456638I375882J1192146D01*
G01*
G37*
%TD.AperFunction*%
%TD*%
%TO.P,SW20,2*%
%TO.N,Net-(D20-Pad2)*%
%TA.AperFunction,ComponentPad*%
G36*
G01*
X169346051Y-168156393D02*
X168910987Y-167772833D01*
G75*
G02*
X168799988Y-166008554I826640J937639D01*
G01*
X168799988Y-166008554D01*
G75*
G02*
X170564267Y-165897555I937639J-826640D01*
G01*
X170999331Y-166281115D01*
G75*
G02*
X171110330Y-168045394I-826640J-937639D01*
G01*
X171110330Y-168045394D01*
G75*
G02*
X169346051Y-168156393I-937639J826640D01*
G01*
G37*
%TD.AperFunction*%
%TO.P,SW20,1*%
%TO.N,/Row4*%
%TA.AperFunction,ComponentPad*%
G36*
G01*
X166657278Y-173866396D02*
X165887732Y-171752088D01*
G75*
G02*
X166634823Y-170149947I1174616J427525D01*
G01*
X166634823Y-170149947D01*
G75*
G02*
X168236964Y-170897038I427525J-1174616D01*
G01*
X169006510Y-173011346D01*
G75*
G02*
X168259419Y-174613487I-1174616J-427525D01*
G01*
X168259419Y-174613487D01*
G75*
G02*
X166657278Y-173866396I-427525J1174616D01*
G01*
G37*
%TD.AperFunction*%
%TD*%
%TO.P,SW21,1*%
%TO.N,/Row0*%
%TA.AperFunction,ComponentPad*%
G36*
G01*
X193166923Y-62644137D02*
X193843511Y-60498273D01*
G75*
G02*
X195411539Y-59682009I1192146J-375882D01*
G01*
X195411539Y-59682009D01*
G75*
G02*
X196227803Y-61250037I-375882J-1192146D01*
G01*
X195551215Y-63395901D01*
G75*
G02*
X193983187Y-64212165I-1192146J375882D01*
G01*
X193983187Y-64212165D01*
G75*
G02*
X193166923Y-62644137I375882J1192146D01*
G01*
G37*
%TD.AperFunction*%
%TO.P,SW21,2*%
%TO.N,Net-(D21-Pad2)*%
%TA.AperFunction,ComponentPad*%
G36*
G01*
X198776100Y-59750908D02*
X198664438Y-59181758D01*
G75*
G02*
X199650402Y-57714490I1226616J240652D01*
G01*
X199650402Y-57714490D01*
G75*
G02*
X201117670Y-58700454I240652J-1226616D01*
G01*
X201229332Y-59269604D01*
G75*
G02*
X200243368Y-60736872I-1226616J-240652D01*
G01*
X200243368Y-60736872D01*
G75*
G02*
X198776100Y-59750908I-240652J1226616D01*
G01*
G37*
%TD.AperFunction*%
%TD*%
%TO.P,SW22,1*%
%TO.N,/Row1*%
%TA.AperFunction,ComponentPad*%
G36*
G01*
X198135673Y-81112893D02*
X198812261Y-78967029D01*
G75*
G02*
X200380289Y-78150765I1192146J-375882D01*
G01*
X200380289Y-78150765D01*
G75*
G02*
X201196553Y-79718793I-375882J-1192146D01*
G01*
X200519965Y-81864657D01*
G75*
G02*
X198951937Y-82680921I-1192146J375882D01*
G01*
X198951937Y-82680921D01*
G75*
G02*
X198135673Y-81112893I375882J1192146D01*
G01*
G37*
%TD.AperFunction*%
%TO.P,SW22,2*%
%TO.N,Net-(D22-Pad2)*%
%TA.AperFunction,ComponentPad*%
G36*
G01*
X203744850Y-78219664D02*
X203633188Y-77650514D01*
G75*
G02*
X204619152Y-76183246I1226616J240652D01*
G01*
X204619152Y-76183246D01*
G75*
G02*
X206086420Y-77169210I240652J-1226616D01*
G01*
X206198082Y-77738360D01*
G75*
G02*
X205212118Y-79205628I-1226616J-240652D01*
G01*
X205212118Y-79205628D01*
G75*
G02*
X203744850Y-78219664I-240652J1226616D01*
G01*
G37*
%TD.AperFunction*%
%TD*%
%TO.P,SW23,2*%
%TO.N,Net-(D23-Pad2)*%
%TA.AperFunction,ComponentPad*%
G36*
G01*
X208619850Y-96594657D02*
X208508188Y-96025507D01*
G75*
G02*
X209494152Y-94558239I1226616J240652D01*
G01*
X209494152Y-94558239D01*
G75*
G02*
X210961420Y-95544203I240652J-1226616D01*
G01*
X211073082Y-96113353D01*
G75*
G02*
X210087118Y-97580621I-1226616J-240652D01*
G01*
X210087118Y-97580621D01*
G75*
G02*
X208619850Y-96594657I-240652J1226616D01*
G01*
G37*
%TD.AperFunction*%
%TO.P,SW23,1*%
%TO.N,/Row2*%
%TA.AperFunction,ComponentPad*%
G36*
G01*
X203010673Y-99487886D02*
X203687261Y-97342022D01*
G75*
G02*
X205255289Y-96525758I1192146J-375882D01*
G01*
X205255289Y-96525758D01*
G75*
G02*
X206071553Y-98093786I-375882J-1192146D01*
G01*
X205394965Y-100239650D01*
G75*
G02*
X203826937Y-101055914I-1192146J375882D01*
G01*
X203826937Y-101055914D01*
G75*
G02*
X203010673Y-99487886I375882J1192146D01*
G01*
G37*
%TD.AperFunction*%
%TD*%
%TO.P,SW24,1*%
%TO.N,/Row3*%
%TA.AperFunction,ComponentPad*%
G36*
G01*
X207979424Y-117862889D02*
X208656012Y-115717025D01*
G75*
G02*
X210224040Y-114900761I1192146J-375882D01*
G01*
X210224040Y-114900761D01*
G75*
G02*
X211040304Y-116468789I-375882J-1192146D01*
G01*
X210363716Y-118614653D01*
G75*
G02*
X208795688Y-119430917I-1192146J375882D01*
G01*
X208795688Y-119430917D01*
G75*
G02*
X207979424Y-117862889I375882J1192146D01*
G01*
G37*
%TD.AperFunction*%
%TO.P,SW24,2*%
%TO.N,Net-(D24-Pad2)*%
%TA.AperFunction,ComponentPad*%
G36*
G01*
X213588601Y-114969660D02*
X213476939Y-114400510D01*
G75*
G02*
X214462903Y-112933242I1226616J240652D01*
G01*
X214462903Y-112933242D01*
G75*
G02*
X215930171Y-113919206I240652J-1226616D01*
G01*
X216041833Y-114488356D01*
G75*
G02*
X215055869Y-115955624I-1226616J-240652D01*
G01*
X215055869Y-115955624D01*
G75*
G02*
X213588601Y-114969660I-240652J1226616D01*
G01*
G37*
%TD.AperFunction*%
%TD*%
%TO.P,SW25,2*%
%TO.N,Net-(D25-Pad2)*%
%TA.AperFunction,ComponentPad*%
G36*
G01*
X180869849Y-66594660D02*
X180758187Y-66025510D01*
G75*
G02*
X181744151Y-64558242I1226616J240652D01*
G01*
X181744151Y-64558242D01*
G75*
G02*
X183211419Y-65544206I240652J-1226616D01*
G01*
X183323081Y-66113356D01*
G75*
G02*
X182337117Y-67580624I-1226616J-240652D01*
G01*
X182337117Y-67580624D01*
G75*
G02*
X180869849Y-66594660I-240652J1226616D01*
G01*
G37*
%TD.AperFunction*%
%TO.P,SW25,1*%
%TO.N,/Row0*%
%TA.AperFunction,ComponentPad*%
G36*
G01*
X175260672Y-69487889D02*
X175937260Y-67342025D01*
G75*
G02*
X177505288Y-66525761I1192146J-375882D01*
G01*
X177505288Y-66525761D01*
G75*
G02*
X178321552Y-68093789I-375882J-1192146D01*
G01*
X177644964Y-70239653D01*
G75*
G02*
X176076936Y-71055917I-1192146J375882D01*
G01*
X176076936Y-71055917D01*
G75*
G02*
X175260672Y-69487889I375882J1192146D01*
G01*
G37*
%TD.AperFunction*%
%TD*%
%TO.P,SW27,1*%
%TO.N,/Row2*%
%TA.AperFunction,ComponentPad*%
G36*
G01*
X185104421Y-106237889D02*
X185781009Y-104092025D01*
G75*
G02*
X187349037Y-103275761I1192146J-375882D01*
G01*
X187349037Y-103275761D01*
G75*
G02*
X188165301Y-104843789I-375882J-1192146D01*
G01*
X187488713Y-106989653D01*
G75*
G02*
X185920685Y-107805917I-1192146J375882D01*
G01*
X185920685Y-107805917D01*
G75*
G02*
X185104421Y-106237889I375882J1192146D01*
G01*
G37*
%TD.AperFunction*%
%TO.P,SW27,2*%
%TO.N,Net-(D27-Pad2)*%
%TA.AperFunction,ComponentPad*%
G36*
G01*
X190713598Y-103344660D02*
X190601936Y-102775510D01*
G75*
G02*
X191587900Y-101308242I1226616J240652D01*
G01*
X191587900Y-101308242D01*
G75*
G02*
X193055168Y-102294206I240652J-1226616D01*
G01*
X193166830Y-102863356D01*
G75*
G02*
X192180866Y-104330624I-1226616J-240652D01*
G01*
X192180866Y-104330624D01*
G75*
G02*
X190713598Y-103344660I-240652J1226616D01*
G01*
G37*
%TD.AperFunction*%
%TD*%
%TO.P,SW28,2*%
%TO.N,Net-(D28-Pad2)*%
%TA.AperFunction,ComponentPad*%
G36*
G01*
X195682347Y-121813409D02*
X195570685Y-121244259D01*
G75*
G02*
X196556649Y-119776991I1226616J240652D01*
G01*
X196556649Y-119776991D01*
G75*
G02*
X198023917Y-120762955I240652J-1226616D01*
G01*
X198135579Y-121332105D01*
G75*
G02*
X197149615Y-122799373I-1226616J-240652D01*
G01*
X197149615Y-122799373D01*
G75*
G02*
X195682347Y-121813409I-240652J1226616D01*
G01*
G37*
%TD.AperFunction*%
%TO.P,SW28,1*%
%TO.N,/Row3*%
%TA.AperFunction,ComponentPad*%
G36*
G01*
X190073170Y-124706638D02*
X190749758Y-122560774D01*
G75*
G02*
X192317786Y-121744510I1192146J-375882D01*
G01*
X192317786Y-121744510D01*
G75*
G02*
X193134050Y-123312538I-375882J-1192146D01*
G01*
X192457462Y-125458402D01*
G75*
G02*
X190889434Y-126274666I-1192146J375882D01*
G01*
X190889434Y-126274666D01*
G75*
G02*
X190073170Y-124706638I375882J1192146D01*
G01*
G37*
%TD.AperFunction*%
%TD*%
%TO.P,SW29,1*%
%TO.N,/Row0*%
%TA.AperFunction,ComponentPad*%
G36*
G01*
X131751770Y-66944371D02*
X133410644Y-65424293D01*
G75*
G02*
X135176729Y-65501402I844488J-921597D01*
G01*
X135176729Y-65501402D01*
G75*
G02*
X135099620Y-67267487I-921597J-844488D01*
G01*
X133440746Y-68787565D01*
G75*
G02*
X131674661Y-68710456I-844488J921597D01*
G01*
X131674661Y-68710456D01*
G75*
G02*
X131751770Y-66944371I921597J844488D01*
G01*
G37*
%TD.AperFunction*%
%TO.P,SW29,2*%
%TO.N,Net-(D29-Pad2)*%
%TA.AperFunction,ComponentPad*%
G36*
G01*
X138056074Y-67243351D02*
X138243946Y-66694621D01*
G75*
G02*
X139831450Y-65916911I1182607J-404897D01*
G01*
X139831450Y-65916911D01*
G75*
G02*
X140609160Y-67504415I-404897J-1182607D01*
G01*
X140421288Y-68053145D01*
G75*
G02*
X138833784Y-68830855I-1182607J404897D01*
G01*
X138833784Y-68830855D01*
G75*
G02*
X138056074Y-67243351I404897J1182607D01*
G01*
G37*
%TD.AperFunction*%
%TD*%
%TO.P,SW30,1*%
%TO.N,/Row1*%
%TA.AperFunction,ComponentPad*%
G36*
G01*
X126876776Y-85319372D02*
X128535650Y-83799294D01*
G75*
G02*
X130301735Y-83876403I844488J-921597D01*
G01*
X130301735Y-83876403D01*
G75*
G02*
X130224626Y-85642488I-921597J-844488D01*
G01*
X128565752Y-87162566D01*
G75*
G02*
X126799667Y-87085457I-844488J921597D01*
G01*
X126799667Y-87085457D01*
G75*
G02*
X126876776Y-85319372I921597J844488D01*
G01*
G37*
%TD.AperFunction*%
%TO.P,SW30,2*%
%TO.N,Net-(D30-Pad2)*%
%TA.AperFunction,ComponentPad*%
G36*
G01*
X133181080Y-85618352D02*
X133368952Y-85069622D01*
G75*
G02*
X134956456Y-84291912I1182607J-404897D01*
G01*
X134956456Y-84291912D01*
G75*
G02*
X135734166Y-85879416I-404897J-1182607D01*
G01*
X135546294Y-86428146D01*
G75*
G02*
X133958790Y-87205856I-1182607J404897D01*
G01*
X133958790Y-87205856D01*
G75*
G02*
X133181080Y-85618352I404897J1182607D01*
G01*
G37*
%TD.AperFunction*%
%TD*%
%TO.P,SW31,1*%
%TO.N,/Row2*%
%TA.AperFunction,ComponentPad*%
G36*
G01*
X121908025Y-103694371D02*
X123566899Y-102174293D01*
G75*
G02*
X125332984Y-102251402I844488J-921597D01*
G01*
X125332984Y-102251402D01*
G75*
G02*
X125255875Y-104017487I-921597J-844488D01*
G01*
X123597001Y-105537565D01*
G75*
G02*
X121830916Y-105460456I-844488J921597D01*
G01*
X121830916Y-105460456D01*
G75*
G02*
X121908025Y-103694371I921597J844488D01*
G01*
G37*
%TD.AperFunction*%
%TO.P,SW31,2*%
%TO.N,Net-(D31-Pad2)*%
%TA.AperFunction,ComponentPad*%
G36*
G01*
X128212329Y-103993351D02*
X128400201Y-103444621D01*
G75*
G02*
X129987705Y-102666911I1182607J-404897D01*
G01*
X129987705Y-102666911D01*
G75*
G02*
X130765415Y-104254415I-404897J-1182607D01*
G01*
X130577543Y-104803145D01*
G75*
G02*
X128990039Y-105580855I-1182607J404897D01*
G01*
X128990039Y-105580855D01*
G75*
G02*
X128212329Y-103993351I404897J1182607D01*
G01*
G37*
%TD.AperFunction*%
%TD*%
%TO.P,SW32,1*%
%TO.N,/Row3*%
%TA.AperFunction,ComponentPad*%
G36*
G01*
X116939275Y-122163119D02*
X118598149Y-120643041D01*
G75*
G02*
X120364234Y-120720150I844488J-921597D01*
G01*
X120364234Y-120720150D01*
G75*
G02*
X120287125Y-122486235I-921597J-844488D01*
G01*
X118628251Y-124006313D01*
G75*
G02*
X116862166Y-123929204I-844488J921597D01*
G01*
X116862166Y-123929204D01*
G75*
G02*
X116939275Y-122163119I921597J844488D01*
G01*
G37*
%TD.AperFunction*%
%TO.P,SW32,2*%
%TO.N,Net-(D32-Pad2)*%
%TA.AperFunction,ComponentPad*%
G36*
G01*
X123243579Y-122462099D02*
X123431451Y-121913369D01*
G75*
G02*
X125018955Y-121135659I1182607J-404897D01*
G01*
X125018955Y-121135659D01*
G75*
G02*
X125796665Y-122723163I-404897J-1182607D01*
G01*
X125608793Y-123271893D01*
G75*
G02*
X124021289Y-124049603I-1182607J404897D01*
G01*
X124021289Y-124049603D01*
G75*
G02*
X123243579Y-122462099I404897J1182607D01*
G01*
G37*
%TD.AperFunction*%
%TD*%
%TO.P,SW33,2*%
%TO.N,Net-(D33-Pad2)*%
%TA.AperFunction,ComponentPad*%
G36*
G01*
X120149823Y-60399602D02*
X120337695Y-59850872D01*
G75*
G02*
X121925199Y-59073162I1182607J-404897D01*
G01*
X121925199Y-59073162D01*
G75*
G02*
X122702909Y-60660666I-404897J-1182607D01*
G01*
X122515037Y-61209396D01*
G75*
G02*
X120927533Y-61987106I-1182607J404897D01*
G01*
X120927533Y-61987106D01*
G75*
G02*
X120149823Y-60399602I404897J1182607D01*
G01*
G37*
%TD.AperFunction*%
%TO.P,SW33,1*%
%TO.N,/Row0*%
%TA.AperFunction,ComponentPad*%
G36*
G01*
X113845519Y-60100622D02*
X115504393Y-58580544D01*
G75*
G02*
X117270478Y-58657653I844488J-921597D01*
G01*
X117270478Y-58657653D01*
G75*
G02*
X117193369Y-60423738I-921597J-844488D01*
G01*
X115534495Y-61943816D01*
G75*
G02*
X113768410Y-61866707I-844488J921597D01*
G01*
X113768410Y-61866707D01*
G75*
G02*
X113845519Y-60100622I921597J844488D01*
G01*
G37*
%TD.AperFunction*%
%TD*%
%TO.P,SW34,1*%
%TO.N,/Row1*%
%TA.AperFunction,ComponentPad*%
G36*
G01*
X108970527Y-78569369D02*
X110629401Y-77049291D01*
G75*
G02*
X112395486Y-77126400I844488J-921597D01*
G01*
X112395486Y-77126400D01*
G75*
G02*
X112318377Y-78892485I-921597J-844488D01*
G01*
X110659503Y-80412563D01*
G75*
G02*
X108893418Y-80335454I-844488J921597D01*
G01*
X108893418Y-80335454D01*
G75*
G02*
X108970527Y-78569369I921597J844488D01*
G01*
G37*
%TD.AperFunction*%
%TO.P,SW34,2*%
%TO.N,Net-(D34-Pad2)*%
%TA.AperFunction,ComponentPad*%
G36*
G01*
X115274831Y-78868349D02*
X115462703Y-78319619D01*
G75*
G02*
X117050207Y-77541909I1182607J-404897D01*
G01*
X117050207Y-77541909D01*
G75*
G02*
X117827917Y-79129413I-404897J-1182607D01*
G01*
X117640045Y-79678143D01*
G75*
G02*
X116052541Y-80455853I-1182607J404897D01*
G01*
X116052541Y-80455853D01*
G75*
G02*
X115274831Y-78868349I404897J1182607D01*
G01*
G37*
%TD.AperFunction*%
%TD*%
%TO.P,SW35,1*%
%TO.N,/Row2*%
%TA.AperFunction,ComponentPad*%
G36*
G01*
X104001777Y-97038120D02*
X105660651Y-95518042D01*
G75*
G02*
X107426736Y-95595151I844488J-921597D01*
G01*
X107426736Y-95595151D01*
G75*
G02*
X107349627Y-97361236I-921597J-844488D01*
G01*
X105690753Y-98881314D01*
G75*
G02*
X103924668Y-98804205I-844488J921597D01*
G01*
X103924668Y-98804205D01*
G75*
G02*
X104001777Y-97038120I921597J844488D01*
G01*
G37*
%TD.AperFunction*%
%TO.P,SW35,2*%
%TO.N,Net-(D35-Pad2)*%
%TA.AperFunction,ComponentPad*%
G36*
G01*
X110306081Y-97337100D02*
X110493953Y-96788370D01*
G75*
G02*
X112081457Y-96010660I1182607J-404897D01*
G01*
X112081457Y-96010660D01*
G75*
G02*
X112859167Y-97598164I-404897J-1182607D01*
G01*
X112671295Y-98146894D01*
G75*
G02*
X111083791Y-98924604I-1182607J404897D01*
G01*
X111083791Y-98924604D01*
G75*
G02*
X110306081Y-97337100I404897J1182607D01*
G01*
G37*
%TD.AperFunction*%
%TD*%
%TO.P,SW36,2*%
%TO.N,Net-(D36-Pad2)*%
%TA.AperFunction,ComponentPad*%
G36*
G01*
X105337330Y-115618349D02*
X105525202Y-115069619D01*
G75*
G02*
X107112706Y-114291909I1182607J-404897D01*
G01*
X107112706Y-114291909D01*
G75*
G02*
X107890416Y-115879413I-404897J-1182607D01*
G01*
X107702544Y-116428143D01*
G75*
G02*
X106115040Y-117205853I-1182607J404897D01*
G01*
X106115040Y-117205853D01*
G75*
G02*
X105337330Y-115618349I404897J1182607D01*
G01*
G37*
%TD.AperFunction*%
%TO.P,SW36,1*%
%TO.N,/Row3*%
%TA.AperFunction,ComponentPad*%
G36*
G01*
X99033026Y-115319369D02*
X100691900Y-113799291D01*
G75*
G02*
X102457985Y-113876400I844488J-921597D01*
G01*
X102457985Y-113876400D01*
G75*
G02*
X102380876Y-115642485I-921597J-844488D01*
G01*
X100722002Y-117162563D01*
G75*
G02*
X98955917Y-117085454I-844488J921597D01*
G01*
X98955917Y-117085454D01*
G75*
G02*
X99033026Y-115319369I921597J844488D01*
G01*
G37*
%TD.AperFunction*%
%TD*%
%TO.P,SW37,2*%
%TO.N,Net-(D37-Pad2)*%
%TA.AperFunction,ComponentPad*%
G36*
G01*
X103274827Y-49993347D02*
X103462699Y-49444617D01*
G75*
G02*
X105050203Y-48666907I1182607J-404897D01*
G01*
X105050203Y-48666907D01*
G75*
G02*
X105827913Y-50254411I-404897J-1182607D01*
G01*
X105640041Y-50803141D01*
G75*
G02*
X104052537Y-51580851I-1182607J404897D01*
G01*
X104052537Y-51580851D01*
G75*
G02*
X103274827Y-49993347I404897J1182607D01*
G01*
G37*
%TD.AperFunction*%
%TO.P,SW37,1*%
%TO.N,/Row0*%
%TA.AperFunction,ComponentPad*%
G36*
G01*
X96970523Y-49694367D02*
X98629397Y-48174289D01*
G75*
G02*
X100395482Y-48251398I844488J-921597D01*
G01*
X100395482Y-48251398D01*
G75*
G02*
X100318373Y-50017483I-921597J-844488D01*
G01*
X98659499Y-51537561D01*
G75*
G02*
X96893414Y-51460452I-844488J921597D01*
G01*
X96893414Y-51460452D01*
G75*
G02*
X96970523Y-49694367I921597J844488D01*
G01*
G37*
%TD.AperFunction*%
%TD*%
%TO.P,SW38,1*%
%TO.N,/Row1*%
%TA.AperFunction,ComponentPad*%
G36*
G01*
X92001773Y-68069368D02*
X93660647Y-66549290D01*
G75*
G02*
X95426732Y-66626399I844488J-921597D01*
G01*
X95426732Y-66626399D01*
G75*
G02*
X95349623Y-68392484I-921597J-844488D01*
G01*
X93690749Y-69912562D01*
G75*
G02*
X91924664Y-69835453I-844488J921597D01*
G01*
X91924664Y-69835453D01*
G75*
G02*
X92001773Y-68069368I921597J844488D01*
G01*
G37*
%TD.AperFunction*%
%TO.P,SW38,2*%
%TO.N,Net-(D38-Pad2)*%
%TA.AperFunction,ComponentPad*%
G36*
G01*
X98306077Y-68368348D02*
X98493949Y-67819618D01*
G75*
G02*
X100081453Y-67041908I1182607J-404897D01*
G01*
X100081453Y-67041908D01*
G75*
G02*
X100859163Y-68629412I-404897J-1182607D01*
G01*
X100671291Y-69178142D01*
G75*
G02*
X99083787Y-69955852I-1182607J404897D01*
G01*
X99083787Y-69955852D01*
G75*
G02*
X98306077Y-68368348I404897J1182607D01*
G01*
G37*
%TD.AperFunction*%
%TD*%
%TO.P,SW39,2*%
%TO.N,Net-(D39-Pad2)*%
%TA.AperFunction,ComponentPad*%
G36*
G01*
X93431081Y-86837100D02*
X93618953Y-86288370D01*
G75*
G02*
X95206457Y-85510660I1182607J-404897D01*
G01*
X95206457Y-85510660D01*
G75*
G02*
X95984167Y-87098164I-404897J-1182607D01*
G01*
X95796295Y-87646894D01*
G75*
G02*
X94208791Y-88424604I-1182607J404897D01*
G01*
X94208791Y-88424604D01*
G75*
G02*
X93431081Y-86837100I404897J1182607D01*
G01*
G37*
%TD.AperFunction*%
%TO.P,SW39,1*%
%TO.N,/Row2*%
%TA.AperFunction,ComponentPad*%
G36*
G01*
X87126777Y-86538120D02*
X88785651Y-85018042D01*
G75*
G02*
X90551736Y-85095151I844488J-921597D01*
G01*
X90551736Y-85095151D01*
G75*
G02*
X90474627Y-86861236I-921597J-844488D01*
G01*
X88815753Y-88381314D01*
G75*
G02*
X87049668Y-88304205I-844488J921597D01*
G01*
X87049668Y-88304205D01*
G75*
G02*
X87126777Y-86538120I921597J844488D01*
G01*
G37*
%TD.AperFunction*%
%TD*%
%TO.P,SW40,1*%
%TO.N,/Row3*%
%TA.AperFunction,ComponentPad*%
G36*
G01*
X82158021Y-104913121D02*
X83816895Y-103393043D01*
G75*
G02*
X85582980Y-103470152I844488J-921597D01*
G01*
X85582980Y-103470152D01*
G75*
G02*
X85505871Y-105236237I-921597J-844488D01*
G01*
X83846997Y-106756315D01*
G75*
G02*
X82080912Y-106679206I-844488J921597D01*
G01*
X82080912Y-106679206D01*
G75*
G02*
X82158021Y-104913121I921597J844488D01*
G01*
G37*
%TD.AperFunction*%
%TO.P,SW40,2*%
%TO.N,Net-(D40-Pad2)*%
%TA.AperFunction,ComponentPad*%
G36*
G01*
X88462325Y-105212101D02*
X88650197Y-104663371D01*
G75*
G02*
X90237701Y-103885661I1182607J-404897D01*
G01*
X90237701Y-103885661D01*
G75*
G02*
X91015411Y-105473165I-404897J-1182607D01*
G01*
X90827539Y-106021895D01*
G75*
G02*
X89240035Y-106799605I-1182607J404897D01*
G01*
X89240035Y-106799605D01*
G75*
G02*
X88462325Y-105212101I404897J1182607D01*
G01*
G37*
%TD.AperFunction*%
%TD*%
%TO.P,SW41,2*%
%TO.N,Net-(D41-Pad2)*%
%TA.AperFunction,ComponentPad*%
G36*
G01*
X148778452Y-170051060D02*
X149261546Y-169730092D01*
G75*
G02*
X150994437Y-170079505I691739J-1041152D01*
G01*
X150994437Y-170079505D01*
G75*
G02*
X150645024Y-171812396I-1041152J-691739D01*
G01*
X150161930Y-172133364D01*
G75*
G02*
X148429039Y-171783951I-691739J1041152D01*
G01*
X148429039Y-171783951D01*
G75*
G02*
X148778452Y-170051060I1041152J691739D01*
G01*
G37*
%TD.AperFunction*%
%TO.P,SW41,1*%
%TO.N,/Row4*%
%TA.AperFunction,ComponentPad*%
G36*
G01*
X143958918Y-165976047D02*
X146200356Y-165779947D01*
G75*
G02*
X147554544Y-166916245I108945J-1245243D01*
G01*
X147554544Y-166916245D01*
G75*
G02*
X146418246Y-168270433I-1245243J-108945D01*
G01*
X144176808Y-168466533D01*
G75*
G02*
X142822620Y-167330235I-108945J1245243D01*
G01*
X142822620Y-167330235D01*
G75*
G02*
X143958918Y-165976047I1245243J108945D01*
G01*
G37*
%TD.AperFunction*%
%TD*%
%TO.P,SW42,2*%
%TO.N,Net-(D42-Pad2)*%
%TA.AperFunction,ComponentPad*%
G36*
G01*
X83868578Y-48774601D02*
X84056450Y-48225871D01*
G75*
G02*
X85643954Y-47448161I1182607J-404897D01*
G01*
X85643954Y-47448161D01*
G75*
G02*
X86421664Y-49035665I-404897J-1182607D01*
G01*
X86233792Y-49584395D01*
G75*
G02*
X84646288Y-50362105I-1182607J404897D01*
G01*
X84646288Y-50362105D01*
G75*
G02*
X83868578Y-48774601I404897J1182607D01*
G01*
G37*
%TD.AperFunction*%
%TO.P,SW42,1*%
%TO.N,/Row0*%
%TA.AperFunction,ComponentPad*%
G36*
G01*
X77564274Y-48475621D02*
X79223148Y-46955543D01*
G75*
G02*
X80989233Y-47032652I844488J-921597D01*
G01*
X80989233Y-47032652D01*
G75*
G02*
X80912124Y-48798737I-921597J-844488D01*
G01*
X79253250Y-50318815D01*
G75*
G02*
X77487165Y-50241706I-844488J921597D01*
G01*
X77487165Y-50241706D01*
G75*
G02*
X77564274Y-48475621I921597J844488D01*
G01*
G37*
%TD.AperFunction*%
%TD*%
%TO.P,SW43,2*%
%TO.N,Net-(D43-Pad2)*%
%TA.AperFunction,ComponentPad*%
G36*
G01*
X78899827Y-67243349D02*
X79087699Y-66694619D01*
G75*
G02*
X80675203Y-65916909I1182607J-404897D01*
G01*
X80675203Y-65916909D01*
G75*
G02*
X81452913Y-67504413I-404897J-1182607D01*
G01*
X81265041Y-68053143D01*
G75*
G02*
X79677537Y-68830853I-1182607J404897D01*
G01*
X79677537Y-68830853D01*
G75*
G02*
X78899827Y-67243349I404897J1182607D01*
G01*
G37*
%TD.AperFunction*%
%TO.P,SW43,1*%
%TO.N,/Row1*%
%TA.AperFunction,ComponentPad*%
G36*
G01*
X72595523Y-66944369D02*
X74254397Y-65424291D01*
G75*
G02*
X76020482Y-65501400I844488J-921597D01*
G01*
X76020482Y-65501400D01*
G75*
G02*
X75943373Y-67267485I-921597J-844488D01*
G01*
X74284499Y-68787563D01*
G75*
G02*
X72518414Y-68710454I-844488J921597D01*
G01*
X72518414Y-68710454D01*
G75*
G02*
X72595523Y-66944369I921597J844488D01*
G01*
G37*
%TD.AperFunction*%
%TD*%
%TO.P,SW44,2*%
%TO.N,Net-(D44-Pad2)*%
%TA.AperFunction,ComponentPad*%
G36*
G01*
X74024829Y-85524597D02*
X74212701Y-84975867D01*
G75*
G02*
X75800205Y-84198157I1182607J-404897D01*
G01*
X75800205Y-84198157D01*
G75*
G02*
X76577915Y-85785661I-404897J-1182607D01*
G01*
X76390043Y-86334391D01*
G75*
G02*
X74802539Y-87112101I-1182607J404897D01*
G01*
X74802539Y-87112101D01*
G75*
G02*
X74024829Y-85524597I404897J1182607D01*
G01*
G37*
%TD.AperFunction*%
%TO.P,SW44,1*%
%TO.N,/Row2*%
%TA.AperFunction,ComponentPad*%
G36*
G01*
X67720525Y-85225617D02*
X69379399Y-83705539D01*
G75*
G02*
X71145484Y-83782648I844488J-921597D01*
G01*
X71145484Y-83782648D01*
G75*
G02*
X71068375Y-85548733I-921597J-844488D01*
G01*
X69409501Y-87068811D01*
G75*
G02*
X67643416Y-86991702I-844488J921597D01*
G01*
X67643416Y-86991702D01*
G75*
G02*
X67720525Y-85225617I921597J844488D01*
G01*
G37*
%TD.AperFunction*%
%TD*%
%TO.P,SW45,2*%
%TO.N,Net-(D45-Pad2)*%
%TA.AperFunction,ComponentPad*%
G36*
G01*
X69056079Y-103993348D02*
X69243951Y-103444618D01*
G75*
G02*
X70831455Y-102666908I1182607J-404897D01*
G01*
X70831455Y-102666908D01*
G75*
G02*
X71609165Y-104254412I-404897J-1182607D01*
G01*
X71421293Y-104803142D01*
G75*
G02*
X69833789Y-105580852I-1182607J404897D01*
G01*
X69833789Y-105580852D01*
G75*
G02*
X69056079Y-103993348I404897J1182607D01*
G01*
G37*
%TD.AperFunction*%
%TO.P,SW45,1*%
%TO.N,/Row3*%
%TA.AperFunction,ComponentPad*%
G36*
G01*
X62751775Y-103694368D02*
X64410649Y-102174290D01*
G75*
G02*
X66176734Y-102251399I844488J-921597D01*
G01*
X66176734Y-102251399D01*
G75*
G02*
X66099625Y-104017484I-921597J-844488D01*
G01*
X64440751Y-105537562D01*
G75*
G02*
X62674666Y-105460453I-844488J921597D01*
G01*
X62674666Y-105460453D01*
G75*
G02*
X62751775Y-103694368I921597J844488D01*
G01*
G37*
%TD.AperFunction*%
%TD*%
%TO.P,SW46,2*%
%TO.N,Net-(D46-Pad2)*%
%TA.AperFunction,ComponentPad*%
G36*
G01*
X134035104Y-154516125D02*
X134437278Y-154098205D01*
G75*
G02*
X136204719Y-154064268I900689J-866752D01*
G01*
X136204719Y-154064268D01*
G75*
G02*
X136238656Y-155831709I-866752J-900689D01*
G01*
X135836482Y-156249629D01*
G75*
G02*
X134069041Y-156283566I-900689J866752D01*
G01*
X134069041Y-156283566D01*
G75*
G02*
X134035104Y-154516125I866752J900689D01*
G01*
G37*
%TD.AperFunction*%
%TO.P,SW46,1*%
%TO.N,/Row4*%
%TA.AperFunction,ComponentPad*%
G36*
G01*
X128447819Y-151580843D02*
X130593683Y-150904255D01*
G75*
G02*
X132161711Y-151720519I375882J-1192146D01*
G01*
X132161711Y-151720519D01*
G75*
G02*
X131345447Y-153288547I-1192146J-375882D01*
G01*
X129199583Y-153965135D01*
G75*
G02*
X127631555Y-153148871I-375882J1192146D01*
G01*
X127631555Y-153148871D01*
G75*
G02*
X128447819Y-151580843I1192146J375882D01*
G01*
G37*
%TD.AperFunction*%
%TD*%
%TO.P,SW47,1*%
%TO.N,/Row0*%
%TA.AperFunction,ComponentPad*%
G36*
G01*
X56658022Y-52694366D02*
X58316896Y-51174288D01*
G75*
G02*
X60082981Y-51251397I844488J-921597D01*
G01*
X60082981Y-51251397D01*
G75*
G02*
X60005872Y-53017482I-921597J-844488D01*
G01*
X58346998Y-54537560D01*
G75*
G02*
X56580913Y-54460451I-844488J921597D01*
G01*
X56580913Y-54460451D01*
G75*
G02*
X56658022Y-52694366I921597J844488D01*
G01*
G37*
%TD.AperFunction*%
%TO.P,SW47,2*%
%TO.N,Net-(D47-Pad2)*%
%TA.AperFunction,ComponentPad*%
G36*
G01*
X62962326Y-52993346D02*
X63150198Y-52444616D01*
G75*
G02*
X64737702Y-51666906I1182607J-404897D01*
G01*
X64737702Y-51666906D01*
G75*
G02*
X65515412Y-53254410I-404897J-1182607D01*
G01*
X65327540Y-53803140D01*
G75*
G02*
X63740036Y-54580850I-1182607J404897D01*
G01*
X63740036Y-54580850D01*
G75*
G02*
X62962326Y-52993346I404897J1182607D01*
G01*
G37*
%TD.AperFunction*%
%TD*%
%TO.P,SW48,1*%
%TO.N,/Row1*%
%TA.AperFunction,ComponentPad*%
G36*
G01*
X51783022Y-71163117D02*
X53441896Y-69643039D01*
G75*
G02*
X55207981Y-69720148I844488J-921597D01*
G01*
X55207981Y-69720148D01*
G75*
G02*
X55130872Y-71486233I-921597J-844488D01*
G01*
X53471998Y-73006311D01*
G75*
G02*
X51705913Y-72929202I-844488J921597D01*
G01*
X51705913Y-72929202D01*
G75*
G02*
X51783022Y-71163117I921597J844488D01*
G01*
G37*
%TD.AperFunction*%
%TO.P,SW48,2*%
%TO.N,Net-(D48-Pad2)*%
%TA.AperFunction,ComponentPad*%
G36*
G01*
X58087326Y-71462097D02*
X58275198Y-70913367D01*
G75*
G02*
X59862702Y-70135657I1182607J-404897D01*
G01*
X59862702Y-70135657D01*
G75*
G02*
X60640412Y-71723161I-404897J-1182607D01*
G01*
X60452540Y-72271891D01*
G75*
G02*
X58865036Y-73049601I-1182607J404897D01*
G01*
X58865036Y-73049601D01*
G75*
G02*
X58087326Y-71462097I404897J1182607D01*
G01*
G37*
%TD.AperFunction*%
%TD*%
%TO.P,SW49,2*%
%TO.N,Net-(D49-Pad2)*%
%TA.AperFunction,ComponentPad*%
G36*
G01*
X53118580Y-89837102D02*
X53306452Y-89288372D01*
G75*
G02*
X54893956Y-88510662I1182607J-404897D01*
G01*
X54893956Y-88510662D01*
G75*
G02*
X55671666Y-90098166I-404897J-1182607D01*
G01*
X55483794Y-90646896D01*
G75*
G02*
X53896290Y-91424606I-1182607J404897D01*
G01*
X53896290Y-91424606D01*
G75*
G02*
X53118580Y-89837102I404897J1182607D01*
G01*
G37*
%TD.AperFunction*%
%TO.P,SW49,1*%
%TO.N,/Row2*%
%TA.AperFunction,ComponentPad*%
G36*
G01*
X46814276Y-89538122D02*
X48473150Y-88018044D01*
G75*
G02*
X50239235Y-88095153I844488J-921597D01*
G01*
X50239235Y-88095153D01*
G75*
G02*
X50162126Y-89861238I-921597J-844488D01*
G01*
X48503252Y-91381316D01*
G75*
G02*
X46737167Y-91304207I-844488J921597D01*
G01*
X46737167Y-91304207D01*
G75*
G02*
X46814276Y-89538122I921597J844488D01*
G01*
G37*
%TD.AperFunction*%
%TD*%
%TO.P,SW50,1*%
%TO.N,/Row3*%
%TA.AperFunction,ComponentPad*%
G36*
G01*
X41939277Y-107913116D02*
X43598151Y-106393038D01*
G75*
G02*
X45364236Y-106470147I844488J-921597D01*
G01*
X45364236Y-106470147D01*
G75*
G02*
X45287127Y-108236232I-921597J-844488D01*
G01*
X43628253Y-109756310D01*
G75*
G02*
X41862168Y-109679201I-844488J921597D01*
G01*
X41862168Y-109679201D01*
G75*
G02*
X41939277Y-107913116I921597J844488D01*
G01*
G37*
%TD.AperFunction*%
%TO.P,SW50,2*%
%TO.N,Net-(D50-Pad2)*%
%TA.AperFunction,ComponentPad*%
G36*
G01*
X48243581Y-108212096D02*
X48431453Y-107663366D01*
G75*
G02*
X50018957Y-106885656I1182607J-404897D01*
G01*
X50018957Y-106885656D01*
G75*
G02*
X50796667Y-108473160I-404897J-1182607D01*
G01*
X50608795Y-109021890D01*
G75*
G02*
X49021291Y-109799600I-1182607J404897D01*
G01*
X49021291Y-109799600D01*
G75*
G02*
X48243581Y-108212096I404897J1182607D01*
G01*
G37*
%TD.AperFunction*%
%TD*%
%TO.P,SW51,2*%
%TO.N,Net-(D51-Pad2)*%
%TA.AperFunction,ComponentPad*%
G36*
G01*
X116387752Y-142297036D02*
X116689938Y-141801976D01*
G75*
G02*
X118408138Y-141386300I1066938J-651262D01*
G01*
X118408138Y-141386300D01*
G75*
G02*
X118823814Y-143104500I-651262J-1066938D01*
G01*
X118521628Y-143599560D01*
G75*
G02*
X116803428Y-144015236I-1066938J651262D01*
G01*
X116803428Y-144015236D01*
G75*
G02*
X116387752Y-142297036I651262J1066938D01*
G01*
G37*
%TD.AperFunction*%
%TO.P,SW51,1*%
%TO.N,/Row4*%
%TA.AperFunction,ComponentPad*%
G36*
G01*
X110297596Y-140640641D02*
X112246154Y-139515641D01*
G75*
G02*
X113953686Y-139973173I625000J-1082532D01*
G01*
X113953686Y-139973173D01*
G75*
G02*
X113496154Y-141680705I-1082532J-625000D01*
G01*
X111547596Y-142805705D01*
G75*
G02*
X109840064Y-142348173I-625000J1082532D01*
G01*
X109840064Y-142348173D01*
G75*
G02*
X110297596Y-140640641I1082532J625000D01*
G01*
G37*
%TD.AperFunction*%
%TD*%
%TO.P,SW52,2*%
%TO.N,Net-(D52-Pad2)*%
%TA.AperFunction,ComponentPad*%
G36*
G01*
X44587329Y-48118349D02*
X44775201Y-47569619D01*
G75*
G02*
X46362705Y-46791909I1182607J-404897D01*
G01*
X46362705Y-46791909D01*
G75*
G02*
X47140415Y-48379413I-404897J-1182607D01*
G01*
X46952543Y-48928143D01*
G75*
G02*
X45365039Y-49705853I-1182607J404897D01*
G01*
X45365039Y-49705853D01*
G75*
G02*
X44587329Y-48118349I404897J1182607D01*
G01*
G37*
%TD.AperFunction*%
%TO.P,SW52,1*%
%TO.N,/Row0*%
%TA.AperFunction,ComponentPad*%
G36*
G01*
X38283025Y-47819369D02*
X39941899Y-46299291D01*
G75*
G02*
X41707984Y-46376400I844488J-921597D01*
G01*
X41707984Y-46376400D01*
G75*
G02*
X41630875Y-48142485I-921597J-844488D01*
G01*
X39972001Y-49662563D01*
G75*
G02*
X38205916Y-49585454I-844488J921597D01*
G01*
X38205916Y-49585454D01*
G75*
G02*
X38283025Y-47819369I921597J844488D01*
G01*
G37*
%TD.AperFunction*%
%TD*%
%TO.P,SW53,1*%
%TO.N,/Row1*%
%TA.AperFunction,ComponentPad*%
G36*
G01*
X33408022Y-66194369D02*
X35066896Y-64674291D01*
G75*
G02*
X36832981Y-64751400I844488J-921597D01*
G01*
X36832981Y-64751400D01*
G75*
G02*
X36755872Y-66517485I-921597J-844488D01*
G01*
X35096998Y-68037563D01*
G75*
G02*
X33330913Y-67960454I-844488J921597D01*
G01*
X33330913Y-67960454D01*
G75*
G02*
X33408022Y-66194369I921597J844488D01*
G01*
G37*
%TD.AperFunction*%
%TO.P,SW53,2*%
%TO.N,Net-(D53-Pad2)*%
%TA.AperFunction,ComponentPad*%
G36*
G01*
X39712326Y-66493349D02*
X39900198Y-65944619D01*
G75*
G02*
X41487702Y-65166909I1182607J-404897D01*
G01*
X41487702Y-65166909D01*
G75*
G02*
X42265412Y-66754413I-404897J-1182607D01*
G01*
X42077540Y-67303143D01*
G75*
G02*
X40490036Y-68080853I-1182607J404897D01*
G01*
X40490036Y-68080853D01*
G75*
G02*
X39712326Y-66493349I404897J1182607D01*
G01*
G37*
%TD.AperFunction*%
%TD*%
%TO.P,SW54,2*%
%TO.N,Net-(D54-Pad2)*%
%TA.AperFunction,ComponentPad*%
G36*
G01*
X34743577Y-84868349D02*
X34931449Y-84319619D01*
G75*
G02*
X36518953Y-83541909I1182607J-404897D01*
G01*
X36518953Y-83541909D01*
G75*
G02*
X37296663Y-85129413I-404897J-1182607D01*
G01*
X37108791Y-85678143D01*
G75*
G02*
X35521287Y-86455853I-1182607J404897D01*
G01*
X35521287Y-86455853D01*
G75*
G02*
X34743577Y-84868349I404897J1182607D01*
G01*
G37*
%TD.AperFunction*%
%TO.P,SW54,1*%
%TO.N,/Row2*%
%TA.AperFunction,ComponentPad*%
G36*
G01*
X28439273Y-84569369D02*
X30098147Y-83049291D01*
G75*
G02*
X31864232Y-83126400I844488J-921597D01*
G01*
X31864232Y-83126400D01*
G75*
G02*
X31787123Y-84892485I-921597J-844488D01*
G01*
X30128249Y-86412563D01*
G75*
G02*
X28362164Y-86335454I-844488J921597D01*
G01*
X28362164Y-86335454D01*
G75*
G02*
X28439273Y-84569369I921597J844488D01*
G01*
G37*
%TD.AperFunction*%
%TD*%
%TO.P,SW55,1*%
%TO.N,/Row3*%
%TA.AperFunction,ComponentPad*%
G36*
G01*
X23470525Y-103038118D02*
X25129399Y-101518040D01*
G75*
G02*
X26895484Y-101595149I844488J-921597D01*
G01*
X26895484Y-101595149D01*
G75*
G02*
X26818375Y-103361234I-921597J-844488D01*
G01*
X25159501Y-104881312D01*
G75*
G02*
X23393416Y-104804203I-844488J921597D01*
G01*
X23393416Y-104804203D01*
G75*
G02*
X23470525Y-103038118I921597J844488D01*
G01*
G37*
%TD.AperFunction*%
%TO.P,SW55,2*%
%TO.N,Net-(D55-Pad2)*%
%TA.AperFunction,ComponentPad*%
G36*
G01*
X29774829Y-103337098D02*
X29962701Y-102788368D01*
G75*
G02*
X31550205Y-102010658I1182607J-404897D01*
G01*
X31550205Y-102010658D01*
G75*
G02*
X32327915Y-103598162I-404897J-1182607D01*
G01*
X32140043Y-104146892D01*
G75*
G02*
X30552539Y-104924602I-1182607J404897D01*
G01*
X30552539Y-104924602D01*
G75*
G02*
X29774829Y-103337098I404897J1182607D01*
G01*
G37*
%TD.AperFunction*%
%TD*%
%TO.P,SW56,1*%
%TO.N,/Row4*%
%TA.AperFunction,ComponentPad*%
G36*
G01*
X90220521Y-133975618D02*
X91879395Y-132455540D01*
G75*
G02*
X93645480Y-132532649I844488J-921597D01*
G01*
X93645480Y-132532649D01*
G75*
G02*
X93568371Y-134298734I-921597J-844488D01*
G01*
X91909497Y-135818812D01*
G75*
G02*
X90143412Y-135741703I-844488J921597D01*
G01*
X90143412Y-135741703D01*
G75*
G02*
X90220521Y-133975618I921597J844488D01*
G01*
G37*
%TD.AperFunction*%
%TO.P,SW56,2*%
%TO.N,Net-(D56-Pad2)*%
%TA.AperFunction,ComponentPad*%
G36*
G01*
X96524825Y-134274598D02*
X96712697Y-133725868D01*
G75*
G02*
X98300201Y-132948158I1182607J-404897D01*
G01*
X98300201Y-132948158D01*
G75*
G02*
X99077911Y-134535662I-404897J-1182607D01*
G01*
X98890039Y-135084392D01*
G75*
G02*
X97302535Y-135862102I-1182607J404897D01*
G01*
X97302535Y-135862102D01*
G75*
G02*
X96524825Y-134274598I404897J1182607D01*
G01*
G37*
%TD.AperFunction*%
%TD*%
D13*
%TO.N,/Col2*%
X240539343Y-116753130D03*
%TO.N,/Col9*%
X76509390Y-115910497D03*
%TO.N,/Row0*%
X148953753Y-72342887D03*
%TO.N,/Row1*%
X144270749Y-89820109D03*
%TO.N,/Row3*%
X182523561Y-131164396D03*
X147980709Y-111265633D03*
%TD*%
D14*
%TO.N,Net-(D1-Pad2)*%
X275509382Y-46944432D02*
X275356445Y-46373664D01*
X275356445Y-46373664D02*
X273324630Y-45200596D01*
X273324630Y-45200596D02*
X265446299Y-47311589D01*
X265446299Y-47311589D02*
X263855307Y-50067265D01*
X263855307Y-50067265D02*
X264389123Y-52059487D01*
%TO.N,/Col0*%
X279557387Y-114527523D02*
X281158742Y-114098444D01*
X279547088Y-114545357D02*
X279557387Y-114527523D01*
X267256355Y-67951276D02*
X267123775Y-68180924D01*
X267985959Y-67755787D02*
X267256355Y-67951276D01*
X268481254Y-66897903D02*
X267985959Y-67755787D01*
X266533744Y-59629695D02*
X268481254Y-66897903D01*
X274696723Y-96429933D02*
X274694233Y-96434250D01*
X276283740Y-96004693D02*
X274696723Y-96429933D01*
X274694233Y-96434250D02*
X279547088Y-114545357D01*
X269622303Y-77376759D02*
X269598736Y-77417584D01*
X271127497Y-76973443D02*
X269622303Y-77376759D01*
X267123775Y-68180924D02*
X269598736Y-77417584D01*
X257368439Y-127182771D02*
X256332731Y-128976682D01*
X245522541Y-131873265D02*
X242583133Y-130176195D01*
X256332731Y-128976682D02*
X245522541Y-131873265D01*
X257106672Y-126205821D02*
X257368439Y-127182771D01*
X258344555Y-124885305D02*
X257782057Y-125036028D01*
X258357803Y-124862354D02*
X258344555Y-124885305D01*
X279008983Y-119057116D02*
X260607038Y-123987894D01*
X260607038Y-123987894D02*
X260421416Y-124309410D01*
X280135929Y-117105179D02*
X279008983Y-119057116D01*
X257782057Y-125036028D02*
X257106672Y-126205821D01*
X280226488Y-117080916D02*
X280135929Y-117105179D01*
X260421416Y-124309410D02*
X258357803Y-124862354D01*
X279547088Y-114545357D02*
X280226488Y-117080916D01*
X269622303Y-77376759D02*
X270250439Y-79721000D01*
X270250439Y-79721000D02*
X269314618Y-81341888D01*
X269314618Y-81341888D02*
X270333722Y-85145220D01*
X271913782Y-86057471D02*
X274694233Y-96434250D01*
X270333722Y-85145220D02*
X271913782Y-86057471D01*
%TO.N,Net-(D2-Pad2)*%
X280478135Y-65319435D02*
X280558982Y-65297771D01*
X280558982Y-65297771D02*
X281433295Y-65802554D01*
X280478137Y-65319433D02*
X280311291Y-64696751D01*
X280311291Y-64696751D02*
X278226016Y-63492817D01*
X278226016Y-63492817D02*
X269713794Y-65773659D01*
X269713794Y-65773659D02*
X268586843Y-67725597D01*
X268586843Y-67725597D02*
X269072129Y-69536708D01*
%TO.N,Net-(D3-Pad2)*%
X285353140Y-83694435D02*
X285203752Y-83136912D01*
X285203752Y-83136912D02*
X282601831Y-81634692D01*
X282601831Y-81634692D02*
X274904609Y-83697155D01*
X274904609Y-83697155D02*
X273512493Y-86108374D01*
X273512493Y-86108374D02*
X274216158Y-88734485D01*
%TO.N,Net-(D4-Pad2)*%
X290321884Y-102069433D02*
X290158582Y-101459988D01*
X290158582Y-101459988D02*
X288077316Y-100258369D01*
X288077316Y-100258369D02*
X279565094Y-102539211D01*
X279565094Y-102539211D02*
X278570726Y-104261508D01*
X278570726Y-104261508D02*
X279250126Y-106797064D01*
%TO.N,Net-(D5-Pad2)*%
X223571884Y-133006935D02*
X222553054Y-129204601D01*
X222553054Y-129204601D02*
X223659567Y-127288057D01*
X223659567Y-127288057D02*
X225289568Y-126851301D01*
X225289568Y-126851301D02*
X226416522Y-124899364D01*
X238576321Y-121641156D02*
X240610932Y-122815838D01*
X226416522Y-124899364D02*
X238576321Y-121641156D01*
%TO.N,Net-(D6-Pad2)*%
X257134383Y-51819432D02*
X256829074Y-50680007D01*
X256829074Y-50680007D02*
X255690563Y-50022688D01*
X255690563Y-50022688D02*
X246997231Y-52352059D01*
X246997231Y-52352059D02*
X245472531Y-54992913D01*
X245472531Y-54992913D02*
X246054874Y-57166248D01*
%TO.N,/Col1*%
X248064996Y-64598439D02*
X249546354Y-70126944D01*
X249546354Y-70126944D02*
X248387829Y-72133570D01*
X256076725Y-100757843D02*
X256054193Y-100744831D01*
X257721245Y-100317197D02*
X256076725Y-100757843D01*
X256054193Y-100744831D02*
X260699181Y-118080177D01*
X250798256Y-81077962D02*
X250788841Y-81094280D01*
X252471247Y-80629692D02*
X250798256Y-81077962D01*
X250788841Y-81094280D02*
X256054193Y-100744831D01*
X248387829Y-72133570D02*
X250788841Y-81094280D01*
X261586448Y-121391498D02*
X260124898Y-123922977D01*
X257498784Y-124626640D02*
X256703289Y-126004479D01*
X260124898Y-123922977D02*
X257498784Y-124626640D01*
X256599486Y-126051690D02*
X256885522Y-127119194D01*
X256612737Y-126028743D02*
X256599486Y-126051690D01*
X256703289Y-126004479D02*
X256612737Y-126028743D01*
X256036213Y-128590248D02*
X248231398Y-130681548D01*
X256885522Y-127119194D02*
X256036213Y-128590248D01*
X247669953Y-130831984D02*
X248231398Y-130681548D01*
X246567664Y-130195577D02*
X247669953Y-130831984D01*
X246295904Y-129181355D02*
X246567664Y-130195577D01*
X261092769Y-119419808D02*
X261069115Y-119460781D01*
X262408746Y-119067193D02*
X261092769Y-119419808D01*
X261069115Y-119460781D02*
X261586448Y-121391498D01*
X260699181Y-118080177D02*
X261069115Y-119460781D01*
%TO.N,Net-(D7-Pad2)*%
X262009384Y-70288179D02*
X262007253Y-70280233D01*
X262007253Y-70280233D02*
X258889157Y-68479997D01*
X258889157Y-68479997D02*
X251101380Y-70566726D01*
X251101380Y-70566726D02*
X250239594Y-72059385D01*
X250239594Y-72059385D02*
X250555028Y-73236607D01*
%TO.N,Net-(D8-Pad2)*%
X266978138Y-88663181D02*
X266865040Y-88241096D01*
X266865040Y-88241096D02*
X264497222Y-86874035D01*
X264497222Y-86874035D02*
X256075558Y-89130615D01*
X256075558Y-89130615D02*
X255147480Y-90738092D01*
X255147480Y-90738092D02*
X255729824Y-92911425D01*
%TO.N,Net-(D9-Pad2)*%
X271946887Y-107038183D02*
X271965058Y-107106008D01*
X271946889Y-107038188D02*
X271819878Y-106564176D01*
X271819878Y-106564176D02*
X269398607Y-105166257D01*
X269398607Y-105166257D02*
X261339166Y-107325777D01*
X261339166Y-107325777D02*
X259947049Y-109736994D01*
X259947049Y-109736994D02*
X260456600Y-111638660D01*
%TO.N,Net-(D10-Pad2)*%
X203369738Y-140373551D02*
X202189724Y-135969690D01*
X202189724Y-135969690D02*
X203129467Y-134341997D01*
X203129467Y-134341997D02*
X206208358Y-133517012D01*
X206208358Y-133517012D02*
X207666765Y-130990980D01*
X207666765Y-130990980D02*
X224962875Y-126356495D01*
X224962875Y-126356495D02*
X226089827Y-124404561D01*
X241600183Y-120248577D02*
X244323702Y-121821001D01*
X226089827Y-124404561D02*
X241600183Y-120248577D01*
%TO.N,Net-(D11-Pad2)*%
X236228133Y-47600686D02*
X236006020Y-46771745D01*
X236006020Y-46771745D02*
X234609692Y-45965576D01*
X234609692Y-45965576D02*
X225735248Y-48343476D01*
X225735248Y-48343476D02*
X224475714Y-50525053D01*
X224475714Y-50525053D02*
X225033793Y-52607830D01*
%TO.N,/Col2*%
X227064993Y-59910943D02*
X227227612Y-60517819D01*
X227227612Y-60517819D02*
X226027920Y-62595750D01*
X241783743Y-114567198D02*
X240078906Y-115024004D01*
X240076944Y-115027412D02*
X240539343Y-116753130D01*
X240078906Y-115024004D02*
X240076944Y-115027412D01*
X235257370Y-96328310D02*
X235127027Y-96554074D01*
X236814997Y-95910947D02*
X235257370Y-96328310D01*
X235127027Y-96554074D02*
X240076944Y-115027412D01*
X230202318Y-78095298D02*
X230177111Y-78080746D01*
X231940001Y-77629692D02*
X230202318Y-78095298D01*
X226027920Y-62595750D02*
X230177111Y-78080746D01*
X230177111Y-78080746D02*
X230344224Y-78704433D01*
X230344224Y-78704433D02*
X229630853Y-79940034D01*
X230528630Y-83290590D02*
X231764233Y-84003962D01*
X229630853Y-79940034D02*
X230528630Y-83290590D01*
X231764233Y-84003962D02*
X235127027Y-96554074D01*
X240901924Y-118106302D02*
X240539343Y-116753130D01*
X250099238Y-128162257D02*
X250370998Y-129176479D01*
X252880293Y-117536645D02*
X250894255Y-118068805D01*
X250370998Y-129176479D02*
X250922137Y-129494679D01*
X240924872Y-118119551D02*
X240901924Y-118106302D01*
X256402604Y-127055621D02*
X254029836Y-118200339D01*
X250922137Y-129494679D02*
X255739691Y-128203820D01*
X250343119Y-117750603D02*
X247419985Y-118533848D01*
X247419985Y-118533848D02*
X246731066Y-118136103D01*
X255739691Y-128203820D02*
X256402604Y-127055621D01*
X243580785Y-118980219D02*
X241720714Y-117906303D01*
X241720714Y-117906303D02*
X240924872Y-118119551D01*
X254029836Y-118200339D02*
X252880293Y-117536645D01*
X250894255Y-118068805D02*
X250343119Y-117750603D01*
X246731066Y-118136103D02*
X243580785Y-118980219D01*
%TO.N,Net-(D12-Pad2)*%
X241196886Y-65975684D02*
X241057920Y-65457052D01*
X241057920Y-65457052D02*
X238574756Y-64023397D01*
X238574756Y-64023397D02*
X230243645Y-66255711D01*
X230243645Y-66255711D02*
X229249277Y-67978009D01*
X229249277Y-67978009D02*
X229855884Y-70241897D01*
%TO.N,Net-(D13-Pad2)*%
X246071887Y-84350684D02*
X245901849Y-83716100D01*
X245901849Y-83716100D02*
X243590962Y-82381909D01*
X243590962Y-82381909D02*
X235169294Y-84638488D01*
X235169294Y-84638488D02*
X234174927Y-86360785D01*
X234174927Y-86360785D02*
X234757270Y-88534118D01*
%TO.N,Net-(D14-Pad2)*%
X251040633Y-102819435D02*
X250778437Y-101840911D01*
X250778437Y-101840911D02*
X249132737Y-100890766D01*
X249132737Y-100890766D02*
X240167739Y-103292932D01*
X240167739Y-103292932D02*
X239173371Y-105015227D01*
X239173371Y-105015227D02*
X239755713Y-107188561D01*
%TO.N,Net-(D15-Pad2)*%
X246322071Y-119759806D02*
X248127040Y-120801900D01*
X243398942Y-120543053D02*
X246322071Y-119759806D01*
X241676640Y-119548689D02*
X243398942Y-120543053D01*
X225648310Y-123843468D02*
X241676640Y-119548689D01*
X207262764Y-130497486D02*
X224468319Y-125887270D01*
X205857393Y-132931650D02*
X207262764Y-130497486D01*
X183399620Y-138949195D02*
X205857393Y-132931650D01*
X182272661Y-140901149D02*
X183399620Y-138949195D01*
X224468319Y-125887270D02*
X225648310Y-123843468D01*
X185228973Y-151934268D02*
X182272661Y-140901149D01*
%TO.N,/Col3*%
X208092693Y-63033903D02*
X208311072Y-63848904D01*
X208311072Y-63848904D02*
X207581868Y-65111924D01*
X222844104Y-122071361D02*
X224451581Y-122999441D01*
X241657134Y-118389225D02*
X243517205Y-119463138D01*
X224451581Y-122999441D02*
X241657134Y-118389225D01*
X247356402Y-119016769D02*
X250279536Y-118233520D01*
X246667487Y-118619022D02*
X247356402Y-119016769D01*
X243517205Y-119463138D02*
X246667487Y-118619022D01*
X250279536Y-118233520D02*
X250830690Y-118551721D01*
X250830690Y-118551721D02*
X252816716Y-118019569D01*
X252816716Y-118019569D02*
X253620456Y-118483607D01*
X221430272Y-116432652D02*
X221315455Y-116366367D01*
X222607495Y-116117217D02*
X221430272Y-116432652D01*
X221315455Y-116366367D02*
X222844104Y-122071361D01*
X216643711Y-98206726D02*
X216414064Y-98074141D01*
X217820930Y-97891290D02*
X216643711Y-98206726D01*
X216414064Y-98074141D02*
X221315455Y-116366367D01*
X212502294Y-79128531D02*
X211506184Y-79395440D01*
X211391362Y-79329144D02*
X216414064Y-98074141D01*
X211506184Y-79395440D02*
X211391362Y-79329144D01*
X207581868Y-65111924D02*
X211391362Y-79329144D01*
X206093229Y-129879098D02*
X204841809Y-132046614D01*
X223389338Y-125244613D02*
X206093229Y-129879098D01*
X224525759Y-123276273D02*
X223389338Y-125244613D01*
X224451581Y-122999441D02*
X224525759Y-123276273D01*
X174200911Y-140256814D02*
X165484112Y-135224169D01*
X204841809Y-132046614D02*
X174200911Y-140256814D01*
X254990731Y-126851588D02*
X255586260Y-125820104D01*
X253993130Y-127118894D02*
X254990731Y-126851588D01*
X253620456Y-118483607D02*
X255586260Y-125820104D01*
%TO.N,Net-(D16-Pad2)*%
X216915633Y-48819431D02*
X216606515Y-47665792D01*
X216606515Y-47665792D02*
X215479484Y-47015100D01*
X215479484Y-47015100D02*
X207420038Y-49174622D01*
X207420038Y-49174622D02*
X205298720Y-52848856D01*
X205298720Y-52848856D02*
X206050912Y-55656079D01*
%TO.N,Net-(D17-Pad2)*%
X221790634Y-67194435D02*
X221693092Y-66830398D01*
X221693092Y-66830398D02*
X219475314Y-65549963D01*
X219475314Y-65549963D02*
X211144202Y-67782278D01*
X211144202Y-67782278D02*
X210017251Y-69734215D01*
X210017251Y-69734215D02*
X210551065Y-71726436D01*
%TO.N,Net-(D18-Pad2)*%
X226759387Y-85663185D02*
X226521158Y-84774102D01*
X226521158Y-84774102D02*
X224968560Y-83877709D01*
X224968560Y-83877709D02*
X216275228Y-86207080D01*
X216275228Y-86207080D02*
X215148276Y-88159017D01*
X215148276Y-88159017D02*
X215779147Y-90513462D01*
%TO.N,Net-(D19-Pad2)*%
X231634382Y-104038183D02*
X231534934Y-103667036D01*
X231534934Y-103667036D02*
X229350877Y-102406071D01*
X229350877Y-102406071D02*
X220566988Y-104759707D01*
X220566988Y-104759707D02*
X219837785Y-106022723D01*
X219837785Y-106022723D02*
X220589978Y-108829946D01*
%TO.N,Net-(D20-Pad2)*%
X169678633Y-158744728D02*
X168351751Y-161042962D01*
X175655297Y-157143285D02*
X169678633Y-158744728D01*
X182284421Y-145661306D02*
X175655297Y-157143285D01*
X181244812Y-141781419D02*
X182284421Y-145661306D01*
X169955157Y-167026976D02*
X168351751Y-161042962D01*
X206856525Y-130140450D02*
X205596998Y-132322028D01*
X168351751Y-161042962D02*
X168326101Y-160947238D01*
X250215957Y-118716439D02*
X247292827Y-119499689D01*
X252020933Y-119758533D02*
X250215957Y-118716439D01*
X246603912Y-119101940D02*
X243434468Y-119951197D01*
X247292827Y-119499689D02*
X246603912Y-119101940D01*
X225321614Y-123348661D02*
X224062076Y-125530238D01*
X243434468Y-119951197D02*
X241712171Y-118956823D01*
X241712171Y-118956823D02*
X225321614Y-123348661D01*
X224062076Y-125530238D02*
X206856525Y-130140450D01*
X205596998Y-132322028D02*
X183248936Y-138310173D01*
X183248936Y-138310173D02*
X181244812Y-141781419D01*
%TO.N,/Col4*%
X190877495Y-71629691D02*
X190903332Y-71726127D01*
X190903332Y-71726127D02*
X189584307Y-74010756D01*
X204353305Y-127087737D02*
X205596238Y-126754694D01*
X203706116Y-126714084D02*
X204353305Y-127087737D01*
X199009501Y-108769729D02*
X198877527Y-108693532D01*
X200814994Y-108285941D02*
X199009501Y-108769729D01*
X198877527Y-108693532D02*
X203706116Y-126714084D01*
X193923563Y-90094631D02*
X193903344Y-90129645D01*
X195658751Y-89629695D02*
X193923563Y-90094631D01*
X189584307Y-74010756D02*
X193903344Y-90129645D01*
X203706116Y-126714084D02*
X204877325Y-131085084D01*
X204877325Y-131085084D02*
X204545289Y-131660180D01*
X176654613Y-139133466D02*
X165484110Y-132684167D01*
X204545289Y-131660180D02*
X176654613Y-139133466D01*
X194555747Y-92564441D02*
X193903344Y-90129645D01*
X193842372Y-93800040D02*
X194555747Y-92564441D01*
X194982793Y-98056152D02*
X193842372Y-93800040D01*
X196218398Y-98769529D02*
X194982793Y-98056152D01*
X198877527Y-108693532D02*
X196218398Y-98769529D01*
%TO.N,Net-(D21-Pad2)*%
X199946885Y-59225683D02*
X199784978Y-58621443D01*
X199784978Y-58621443D02*
X197689035Y-57411349D01*
X197689035Y-57411349D02*
X188905147Y-59764986D01*
X188905147Y-59764986D02*
X188043361Y-61257644D01*
X188043361Y-61257644D02*
X188819818Y-64155421D01*
%TO.N,Net-(D22-Pad2)*%
X204915635Y-77694436D02*
X204734361Y-77017923D01*
X204734361Y-77017923D02*
X202729505Y-75860417D01*
X202729505Y-75860417D02*
X194036173Y-78189789D01*
X194036173Y-78189789D02*
X192975513Y-80026906D01*
X192975513Y-80026906D02*
X193557855Y-82200238D01*
%TO.N,Net-(D23-Pad2)*%
X209790638Y-96069429D02*
X209626826Y-95458085D01*
X209626826Y-95458085D02*
X207909059Y-94466331D01*
X207909059Y-94466331D02*
X199668504Y-96674382D01*
X199668504Y-96674382D02*
X198342680Y-98970778D01*
X198342680Y-98970778D02*
X198852229Y-100872444D01*
%TO.N,Net-(D24-Pad2)*%
X214759386Y-114444434D02*
X214508869Y-113509498D01*
X214508869Y-113509498D02*
X212737651Y-112486885D01*
X212737651Y-112486885D02*
X204315986Y-114743463D01*
X204315986Y-114743463D02*
X202990161Y-117039860D01*
X202990161Y-117039860D02*
X203645298Y-119484860D01*
%TO.N,/Col5*%
X172971250Y-78098443D02*
X172083877Y-78336214D01*
X172083877Y-78336214D02*
X171437673Y-79455472D01*
X185753601Y-132883251D02*
X186507228Y-133318358D01*
X176155479Y-96876243D02*
X176096410Y-96842145D01*
X177658742Y-96473442D02*
X176155479Y-96876243D01*
X171437673Y-79455472D02*
X176096410Y-96842145D01*
X181176148Y-115237330D02*
X180997800Y-115134360D01*
X182627500Y-114848443D02*
X181176148Y-115237330D01*
X180997800Y-115134360D02*
X185753601Y-132883251D01*
X176096410Y-96842145D02*
X180997800Y-115134360D01*
X186070416Y-134065639D02*
X184650442Y-136525103D01*
X185753601Y-132883251D02*
X186070416Y-134065639D01*
X179108321Y-138010114D02*
X165484106Y-130144171D01*
X184650442Y-136525103D02*
X179108321Y-138010114D01*
X186507228Y-133318358D02*
X187362412Y-133318358D01*
X187362412Y-133318358D02*
X187618993Y-133061778D01*
%TO.N,Net-(D25-Pad2)*%
X182040635Y-66069433D02*
X181770418Y-65060974D01*
X181770418Y-65060974D02*
X179948391Y-64009027D01*
X179948391Y-64009027D02*
X171526726Y-66265605D01*
X171526726Y-66265605D02*
X170333484Y-68332361D01*
X170333484Y-68332361D02*
X170964355Y-70686807D01*
%TO.N,Net-(D26-Pad2)*%
X186915634Y-84444433D02*
X186856994Y-84225579D01*
X186856994Y-84225579D02*
X184288683Y-82742764D01*
X184288683Y-82742764D02*
X176591461Y-84805229D01*
X176591461Y-84805229D02*
X175199345Y-87216444D01*
X175199345Y-87216444D02*
X175684630Y-89027555D01*
%TO.N,Net-(D27-Pad2)*%
X191884383Y-102819434D02*
X191666241Y-102005326D01*
X191884383Y-102819434D02*
X191423600Y-101099770D01*
X191423600Y-101099770D02*
X190868597Y-100779338D01*
X190868597Y-100779338D02*
X180998041Y-103424146D01*
X180998041Y-103424146D02*
X180003672Y-105146443D01*
X180003672Y-105146443D02*
X180658808Y-107591442D01*
%TO.N,Net-(D28-Pad2)*%
X196853131Y-121288182D02*
X196591364Y-120311248D01*
X196591364Y-120311248D02*
X194634786Y-119181619D01*
X194634786Y-119181619D02*
X185941453Y-121510991D01*
X185941453Y-121510991D02*
X185013376Y-123118468D01*
X185013376Y-123118468D02*
X185765569Y-125925690D01*
%TO.N,/Col6*%
X145689996Y-70598441D02*
X147492681Y-71081476D01*
X147492681Y-71081476D02*
X148049893Y-72046581D01*
X135939997Y-107723447D02*
X138140025Y-108312938D01*
X138140025Y-108312938D02*
X138271386Y-108540461D01*
X133661171Y-125746011D02*
X132946112Y-126158857D01*
X132946112Y-126158857D02*
X130971247Y-125629695D01*
X138271386Y-108540461D02*
X133661171Y-125746011D01*
X143309180Y-89404020D02*
X143415416Y-89342680D01*
X141002495Y-88785941D02*
X143309180Y-89404020D01*
X143415416Y-89342680D02*
X138271386Y-108540461D01*
X148049893Y-72046581D02*
X143415416Y-89342680D01*
X141616081Y-130045558D02*
X150244105Y-125064172D01*
X134034306Y-128014029D02*
X141616081Y-130045558D01*
X133364374Y-126853671D02*
X134034306Y-128014029D01*
X133661171Y-125746011D02*
X133364374Y-126853671D01*
%TO.N,Net-(D29-Pad2)*%
X139332624Y-67373886D02*
X138838563Y-69217748D01*
X138838563Y-69217748D02*
X139350060Y-70103693D01*
X139350060Y-70103693D02*
X138015516Y-75084246D01*
X138935288Y-76677329D02*
X143717788Y-77958797D01*
X138015516Y-75084246D02*
X138935288Y-76677329D01*
%TO.N,Net-(D30-Pad2)*%
X134457621Y-85748883D02*
X134212985Y-86661870D01*
X134212985Y-86661870D02*
X134890187Y-87834817D01*
X134890187Y-87834817D02*
X133531390Y-92905928D01*
X134738236Y-94996247D02*
X139030294Y-96146296D01*
X133531390Y-92905928D02*
X134738236Y-94996247D01*
%TO.N,Net-(D31-Pad2)*%
X129488868Y-104123882D02*
X129159417Y-105353417D01*
X129159417Y-105353417D02*
X129734900Y-106350169D01*
X129734900Y-106350169D02*
X128254780Y-111874066D01*
X128254780Y-111874066D02*
X129580599Y-114170459D01*
X133657598Y-115262888D02*
X133967794Y-115083796D01*
X129580599Y-114170459D02*
X133657598Y-115262888D01*
%TO.N,Net-(D32-Pad2)*%
X124248834Y-131717233D02*
X128999045Y-132990043D01*
X123485972Y-130395924D02*
X124248834Y-131717233D01*
X124966094Y-124872031D02*
X123485972Y-130395924D01*
X124244331Y-123621904D02*
X124966094Y-124872031D01*
X124520120Y-122592631D02*
X124244331Y-123621904D01*
%TO.N,/Col7*%
X127731665Y-64564119D02*
X129089996Y-64928088D01*
X129089996Y-64928088D02*
X129487744Y-65617007D01*
X115081259Y-119020516D02*
X115147556Y-119135335D01*
X113179596Y-118510972D02*
X115081259Y-119020516D01*
X119885590Y-101090522D02*
X120000408Y-101024230D01*
X118074478Y-100605232D02*
X119885590Y-101090522D01*
X124689919Y-83160514D02*
X124756212Y-83275335D01*
X122878814Y-82675232D02*
X124689919Y-83160514D01*
X129487744Y-65617007D02*
X124756212Y-83275335D01*
X120000408Y-101024230D02*
X115185319Y-118994394D01*
X115185319Y-118994394D02*
X115147556Y-119135335D01*
X133361465Y-137351370D02*
X150244108Y-127604170D01*
X126136634Y-135415483D02*
X133361465Y-137351370D01*
X112820853Y-131841502D02*
X126132517Y-135408353D01*
X112084633Y-130566329D02*
X112820853Y-131841502D01*
X126132517Y-135408353D02*
X126136634Y-135415483D01*
X115185319Y-118994394D02*
X112084633Y-130566329D01*
X124689919Y-83160514D02*
X121817551Y-93880361D01*
X121817551Y-93880361D02*
X122470416Y-95011162D01*
X122470416Y-95011162D02*
X121693963Y-97908939D01*
X120677974Y-98495523D02*
X120000408Y-101024230D01*
X121693963Y-97908939D02*
X120677974Y-98495523D01*
%TO.N,Net-(D33-Pad2)*%
X121426375Y-60530132D02*
X121036826Y-61983930D01*
X121036826Y-61983930D02*
X121640180Y-63028973D01*
X121640180Y-63028973D02*
X120111528Y-68733973D01*
X121257040Y-70718058D02*
X125759466Y-71924478D01*
X120111528Y-68733973D02*
X121257040Y-70718058D01*
%TO.N,Net-(D34-Pad2)*%
X116551369Y-78998884D02*
X116234296Y-80182213D01*
X116234296Y-80182213D02*
X116787322Y-81140082D01*
X116787322Y-81140082D02*
X115258677Y-86845080D01*
X116404186Y-88829167D02*
X120906606Y-90035585D01*
X115258677Y-86845080D02*
X116404186Y-88829167D01*
%TO.N,Net-(D35-Pad2)*%
X111582621Y-97467631D02*
X111246414Y-98722366D01*
X111246414Y-98722366D02*
X111746853Y-99589147D01*
X111746853Y-99589147D02*
X110169674Y-105475257D01*
X110784859Y-106540788D02*
X116102278Y-107965588D01*
X110169674Y-105475257D02*
X110784859Y-106540788D01*
%TO.N,Net-(D36-Pad2)*%
X106613873Y-115748881D02*
X106466863Y-116297529D01*
X106466863Y-116297529D02*
X107147901Y-117477120D01*
X105570718Y-123363230D02*
X105546456Y-123453785D01*
X107147901Y-117477120D02*
X105570718Y-123363230D01*
X105980533Y-124470784D02*
X111207393Y-125871320D01*
X105497924Y-123634898D02*
X105980533Y-124470784D01*
X105570718Y-123363230D02*
X105497924Y-123634898D01*
%TO.N,Net-(D37-Pad2)*%
X104551373Y-50123877D02*
X104330833Y-50946944D01*
X104330833Y-50946944D02*
X104907375Y-51945547D01*
X104907375Y-51945547D02*
X103160348Y-58465544D01*
X104106987Y-60105172D02*
X108699967Y-61335856D01*
X103160348Y-58465544D02*
X104106987Y-60105172D01*
%TO.N,/Col8*%
X110672167Y-53975500D02*
X111577721Y-54218143D01*
X111710300Y-54447787D02*
X111800859Y-54472049D01*
X111577721Y-54218143D02*
X111710300Y-54447787D01*
X111800859Y-54472049D02*
X112397479Y-55505426D01*
X97853887Y-109294281D02*
X98008759Y-109204868D01*
X96189990Y-108848441D02*
X97853887Y-109294281D01*
X101064993Y-90660942D02*
X102713690Y-91102708D01*
X102813087Y-91274869D02*
X98008759Y-109204868D01*
X102713690Y-91102708D02*
X102813087Y-91274869D01*
X107765803Y-72187549D02*
X107957114Y-72077090D01*
X106033742Y-71723441D02*
X107765803Y-72187549D01*
X107957114Y-72077090D02*
X102813087Y-91274869D01*
X112397479Y-55505426D02*
X107957114Y-72077090D01*
X98008759Y-109204868D02*
X95072779Y-120162087D01*
X95072779Y-120162087D02*
X93235664Y-121222745D01*
X76373166Y-116704457D02*
X73066342Y-118613651D01*
X93235664Y-121222745D02*
X76373166Y-116704457D01*
X56378126Y-120625486D02*
X56683041Y-121153617D01*
X57766049Y-115445672D02*
X56378126Y-120625486D01*
X58868282Y-114809294D02*
X57766049Y-115445672D01*
X73066342Y-118613651D02*
X58868282Y-114809294D01*
X58584713Y-121663164D02*
X62694767Y-128782000D01*
X56683041Y-121153617D02*
X58584713Y-121663164D01*
X62694767Y-128782000D02*
X65465786Y-129524488D01*
X108979443Y-131284112D02*
X138820022Y-139279871D01*
X107322165Y-128413613D02*
X108979443Y-131284112D01*
X138820022Y-139279871D02*
X150244109Y-132684168D01*
X94642557Y-125016128D02*
X107322165Y-128413613D01*
X94048053Y-123986410D02*
X94642557Y-125016128D01*
X95072779Y-120162087D02*
X94048053Y-123986410D01*
X66480006Y-129796247D02*
X65465786Y-129524488D01*
X66594814Y-129729965D02*
X66480006Y-129796247D01*
X66866576Y-128715742D02*
X66594814Y-129729965D01*
%TO.N,Net-(D38-Pad2)*%
X99582620Y-68498876D02*
X99350054Y-69366823D01*
X99350054Y-69366823D02*
X100156337Y-70763333D01*
X100156337Y-70763333D02*
X98409305Y-77283337D01*
X98604609Y-77621623D02*
X104061547Y-79083795D01*
X98409305Y-77283337D02*
X98604609Y-77621623D01*
%TO.N,Net-(D39-Pad2)*%
X94707624Y-86967630D02*
X94353417Y-88289551D01*
X94353417Y-88289551D02*
X95043073Y-89484072D01*
X95043073Y-89484072D02*
X93441631Y-95460737D01*
X94156291Y-96698564D02*
X99092793Y-98021296D01*
X93441631Y-95460737D02*
X94156291Y-96698564D01*
%TO.N,Net-(D40-Pad2)*%
X89738871Y-105342628D02*
X89542491Y-106075542D01*
X89542491Y-106075542D02*
X90130424Y-107093870D01*
X90130424Y-107093870D02*
X88528979Y-113070539D01*
X89631327Y-114979853D02*
X94217795Y-116208796D01*
X88528979Y-113070539D02*
X89631327Y-114979853D01*
%TO.N,Net-(D41-Pad2)*%
X149711736Y-170931727D02*
X151413346Y-164581222D01*
X151413346Y-164581222D02*
X137948390Y-141259231D01*
X127246813Y-136644721D02*
X108682927Y-131670545D01*
X108682927Y-131670545D02*
X107025645Y-128800047D01*
X107025645Y-128800047D02*
X70531762Y-119021540D01*
X69268742Y-119750748D02*
X68838779Y-121355389D01*
X70531762Y-119021540D02*
X69268742Y-119750748D01*
X137948390Y-141259231D02*
X137959534Y-141217642D01*
X137526417Y-140467459D02*
X127976499Y-137908567D01*
X137959534Y-141217642D02*
X137526417Y-140467459D01*
X127976499Y-137908567D02*
X127246813Y-136644721D01*
%TO.N,Net-(D42-Pad2)*%
X85145119Y-48905135D02*
X84835528Y-50060548D01*
X84835528Y-50060548D02*
X85432709Y-51094892D01*
X85432709Y-51094892D02*
X83855528Y-56981004D01*
X84577555Y-58231595D02*
X89624042Y-59583802D01*
X83855528Y-56981004D02*
X84577555Y-58231595D01*
%TO.N,/Col9*%
X91596240Y-52223444D02*
X92682180Y-52514418D01*
X92682180Y-52514418D02*
X93238246Y-53477555D01*
X76877494Y-106973441D02*
X78736888Y-107471665D01*
X78736888Y-107471665D02*
X78776733Y-107448661D01*
X83292924Y-90373937D02*
X83362678Y-90333660D01*
X81564995Y-89910943D02*
X83292924Y-90373937D01*
X83362678Y-90333660D02*
X78776733Y-107448661D01*
X88446687Y-71323631D02*
X88458184Y-71317001D01*
X88458184Y-71317001D02*
X83362678Y-90333660D01*
X58087915Y-121995934D02*
X62197973Y-129114766D01*
X56367361Y-121534921D02*
X58087915Y-121995934D01*
X55890072Y-120708226D02*
X56367361Y-121534921D01*
X62197973Y-129114766D02*
X68627413Y-130837535D01*
X57433289Y-114948873D02*
X55890072Y-120708226D01*
X58604432Y-114272712D02*
X57433289Y-114948873D01*
X73002764Y-118130728D02*
X58604432Y-114272712D01*
X76447360Y-116141991D02*
X73002764Y-118130728D01*
X78776733Y-107448661D02*
X76509390Y-115910497D01*
X76509390Y-115910497D02*
X76447360Y-116141991D01*
X88954313Y-69431592D02*
X88961461Y-69438738D01*
X86798063Y-69431593D02*
X88954313Y-69431592D01*
X88961461Y-69438738D02*
X88458184Y-71317001D01*
X93238246Y-53477555D02*
X88961461Y-69438738D01*
X69659224Y-131114007D02*
X68627413Y-130837535D01*
X70302881Y-130742392D02*
X69659224Y-131114007D01*
X70579354Y-129710581D02*
X70302881Y-130742392D01*
%TO.N,Net-(D43-Pad2)*%
X80176374Y-67373879D02*
X79993230Y-68057371D01*
X79993230Y-68057371D02*
X80537824Y-69000629D01*
X80537824Y-69000629D02*
X78984910Y-74796185D01*
X78984910Y-74796185D02*
X80269639Y-77021405D01*
X84596404Y-77021405D02*
X84825858Y-76791947D01*
X80269639Y-77021405D02*
X84596404Y-77021405D01*
%TO.N,Net-(D44-Pad2)*%
X75301371Y-85655131D02*
X75180650Y-86105659D01*
X75180650Y-86105659D02*
X75775520Y-87136006D01*
X75775520Y-87136006D02*
X74004229Y-93746554D01*
X75388894Y-96144867D02*
X79592794Y-97271294D01*
X74004229Y-93746554D02*
X75388894Y-96144867D01*
%TO.N,Net-(D45-Pad2)*%
X70332622Y-104123886D02*
X70095717Y-105008035D01*
X70095717Y-105008035D02*
X70836865Y-106291751D01*
X70836865Y-106291751D02*
X69332482Y-111906190D01*
X69970666Y-113011573D02*
X74905297Y-114333800D01*
X69332482Y-111906190D02*
X69970666Y-113011573D01*
%TO.N,Net-(D46-Pad2)*%
X73030044Y-120564465D02*
X72551558Y-122350227D01*
X73512282Y-120286052D02*
X73030044Y-120564465D01*
X106647083Y-129164500D02*
X73512282Y-120286052D01*
X108450201Y-132287585D02*
X106647083Y-129164500D01*
X127096127Y-137283742D02*
X108450201Y-132287585D01*
X136584986Y-149769511D02*
X130841041Y-139820705D01*
X135136882Y-155173915D02*
X136584986Y-149769511D01*
X130841041Y-139820705D02*
X130792076Y-139807585D01*
X130401042Y-139130296D02*
X127752505Y-138420624D01*
X130792076Y-139807585D02*
X130401042Y-139130296D01*
X127752505Y-138420624D02*
X127096127Y-137283742D01*
%TO.N,/Col10*%
X65908748Y-74348446D02*
X67036090Y-74650514D01*
X67036090Y-74650514D02*
X67534162Y-75513193D01*
X57690056Y-112121495D02*
X57731386Y-112097634D01*
X55971240Y-111660944D02*
X57690056Y-112121495D01*
X62499677Y-94035348D02*
X62584243Y-93986522D01*
X60752493Y-93567191D02*
X62499677Y-94035348D01*
X62584243Y-93986522D02*
X57731386Y-112097634D01*
X67534162Y-75513193D02*
X62584243Y-93986522D01*
X70689993Y-56348439D02*
X71977940Y-56693546D01*
X71977940Y-56693546D02*
X72387018Y-57402084D01*
X72387018Y-57402084D02*
X67534162Y-75513193D01*
X55407155Y-120771807D02*
X57731386Y-112097634D01*
X56084095Y-121944302D02*
X55407155Y-120771807D01*
X57804647Y-122405321D02*
X56084095Y-121944302D01*
X61901457Y-129501196D02*
X57804647Y-122405321D01*
X72987579Y-132471715D02*
X61901457Y-129501196D01*
X73970993Y-131903940D02*
X72987579Y-132471715D01*
X74292137Y-130705415D02*
X73970993Y-131903940D01*
%TO.N,Net-(D47-Pad2)*%
X64238876Y-53123882D02*
X64073358Y-53741592D01*
X64073358Y-53741592D02*
X64786851Y-54977402D01*
X64786851Y-54977402D02*
X63161140Y-61044619D01*
X63963877Y-62434987D02*
X68717791Y-63708794D01*
X63161140Y-61044619D02*
X63963877Y-62434987D01*
%TO.N,Net-(D48-Pad2)*%
X59363870Y-71592639D02*
X59222298Y-72120982D01*
X59222298Y-72120982D02*
X59819174Y-73154796D01*
X59222298Y-72120982D02*
X60084337Y-73614072D01*
X60084337Y-73614072D02*
X58507160Y-79500189D01*
X59022022Y-80391958D02*
X63936546Y-81708798D01*
X58507160Y-79500189D02*
X59022022Y-80391958D01*
%TO.N,Net-(D49-Pad2)*%
X54395124Y-89967633D02*
X54192998Y-90721973D01*
X54192998Y-90721973D02*
X54820725Y-91809238D01*
X54820725Y-91809238D02*
X53025176Y-98510350D01*
X53622891Y-99545621D02*
X58780292Y-100927548D01*
X53025176Y-98510350D02*
X53622891Y-99545621D01*
%TO.N,Net-(D50-Pad2)*%
X49520120Y-108342634D02*
X49373312Y-108890534D01*
X49373312Y-108890534D02*
X49901586Y-109805525D01*
X49901586Y-109805525D02*
X48203078Y-116144417D01*
X49107291Y-117710559D02*
X53999043Y-119021294D01*
X48203078Y-116144417D02*
X49107291Y-117710559D01*
%TO.N,Net-(D51-Pad2)*%
X77217242Y-121744680D02*
X76597238Y-122102640D01*
X106350570Y-129550929D02*
X77217242Y-121744680D01*
X108153683Y-132674012D02*
X106350570Y-129550929D01*
X117343505Y-135136422D02*
X108153683Y-132674012D01*
X118907021Y-137844511D02*
X117343505Y-135136422D01*
X76597238Y-122102640D02*
X76264330Y-123345062D01*
X117605785Y-142700771D02*
X118907021Y-137844511D01*
%TO.N,/Col11*%
X53764197Y-52193247D02*
X52127494Y-51754695D01*
X53913688Y-52452173D02*
X53764197Y-52193247D01*
X48969427Y-70539500D02*
X49085093Y-70472724D01*
X47439996Y-70129696D02*
X48969427Y-70539500D01*
X49085093Y-70472724D02*
X53913688Y-52452173D01*
X43843294Y-89766326D02*
X43892535Y-89851609D01*
X42283747Y-89348440D02*
X43843294Y-89766326D01*
X43892535Y-89851609D02*
X49085093Y-70472724D01*
X37596247Y-106598443D02*
X39187021Y-107024686D01*
X43805547Y-89788115D02*
X43843294Y-89766326D01*
X39187021Y-107024686D02*
X43805547Y-89788115D01*
X36493689Y-117076355D02*
X39187021Y-107024686D01*
X55574879Y-122681373D02*
X36829881Y-117658665D01*
X56034161Y-122416204D02*
X55574879Y-122681373D01*
X57521379Y-122814704D02*
X56034161Y-122416204D01*
X61604938Y-129887630D02*
X57521379Y-122814704D01*
X76254159Y-133812876D02*
X61604938Y-129887630D01*
X36829881Y-117658665D02*
X36493689Y-117076355D01*
X77655647Y-133003727D02*
X76254159Y-133812876D01*
X78004910Y-131700252D02*
X77655647Y-133003727D01*
%TO.N,Net-(D52-Pad2)*%
X45863869Y-48248882D02*
X45996687Y-48248883D01*
X45863869Y-48248882D02*
X45729425Y-48750638D01*
X45729425Y-48750638D02*
X46428341Y-49961194D01*
X46428341Y-49961194D02*
X44681313Y-56481189D01*
X45478459Y-57861894D02*
X50155296Y-59115049D01*
X44681313Y-56481189D02*
X45478459Y-57861894D01*
%TO.N,Net-(D53-Pad2)*%
X40988873Y-66623880D02*
X40836947Y-67190870D01*
X40836947Y-67190870D02*
X41502687Y-68343967D01*
X41502687Y-68343967D02*
X39925511Y-74230080D01*
X41137801Y-76329829D02*
X45467796Y-77490047D01*
X39925511Y-74230080D02*
X41137801Y-76329829D01*
%TO.N,Net-(D54-Pad2)*%
X36020126Y-84998883D02*
X35856170Y-85610750D01*
X35856170Y-85610750D02*
X36619069Y-86932120D01*
X36619069Y-86932120D02*
X34969092Y-93089894D01*
X36463112Y-95677620D02*
X40311541Y-96708798D01*
X34969092Y-93089894D02*
X36463112Y-95677620D01*
%TO.N,Net-(D55-Pad2)*%
X31051371Y-103467628D02*
X30795497Y-104422563D01*
X30795497Y-104422563D02*
X31505808Y-105652850D01*
X31505808Y-105652850D02*
X29952889Y-111448404D01*
X30629624Y-112620549D02*
X35624044Y-113958799D01*
X29952889Y-111448404D02*
X30629624Y-112620549D01*
%TO.N,Net-(D56-Pad2)*%
X97801372Y-134405137D02*
X97893130Y-134062684D01*
X97801372Y-134405137D02*
X98999571Y-129933384D01*
X98999571Y-129933384D02*
X97711234Y-127701914D01*
X81621295Y-123390625D02*
X79977112Y-124339895D01*
X97711234Y-127701914D02*
X81621295Y-123390625D01*
%TO.N,/Row0*%
X270259865Y-49665844D02*
X269884586Y-48265289D01*
X142546064Y-119348639D02*
X150244109Y-114904168D01*
X139127524Y-118432644D02*
X142546064Y-119348639D01*
X138370466Y-117121378D02*
X139127524Y-118432644D01*
X145950074Y-88833891D02*
X138370466Y-117121378D01*
X144983561Y-87159840D02*
X145950074Y-88833891D01*
X148953753Y-72342887D02*
X144983561Y-87159840D01*
%TO.N,/Row1*%
X144270749Y-89820109D02*
X137015723Y-116896215D01*
X137015723Y-116896215D02*
X138673005Y-119766709D01*
X143828620Y-121148157D02*
X150244111Y-117444169D01*
X138673005Y-119766709D02*
X143828620Y-121148157D01*
%TO.N,/Row3*%
X182523561Y-131164396D02*
X179263561Y-132037913D01*
X179263561Y-132037913D02*
X176163426Y-130248046D01*
X173033335Y-118566382D02*
X170622117Y-117174266D01*
X176163426Y-130248046D02*
X173033335Y-118566382D01*
X170622117Y-117174266D02*
X169287580Y-112193709D01*
X169287580Y-112193709D02*
X167680107Y-111265632D01*
X167680107Y-111265632D02*
X147980709Y-111265633D01*
X147980709Y-111265633D02*
X147980709Y-111265633D01*
%TD*%
M02*
