%TF.GenerationSoftware,KiCad,Pcbnew,(5.1.9)-1*%
%TF.CreationDate,2021-03-20T23:04:42-06:00*%
%TF.ProjectId,Pteron56v0,50746572-6f6e-4353-9676-302e6b696361,rev?*%
%TF.SameCoordinates,Original*%
%TF.FileFunction,Profile,NP*%
%FSLAX46Y46*%
G04 Gerber Fmt 4.6, Leading zero omitted, Abs format (unit mm)*
G04 Created by KiCad (PCBNEW (5.1.9)-1) date 2021-03-20 23:04:42*
%MOMM*%
%LPD*%
G01*
G04 APERTURE LIST*
%TA.AperFunction,Profile*%
%ADD10C,0.200000*%
%TD*%
G04 APERTURE END LIST*
D10*
X279392128Y-36251323D02*
G75*
G02*
X285515578Y-39787337I1293718J-4829732D01*
G01*
X117017900Y-50063119D02*
X155552084Y-60152065D01*
X201752486Y-47160950D02*
G75*
G02*
X199512336Y-50063117I-2999991J2D01*
G01*
X69360213Y-43848494D02*
X70281918Y-40427629D01*
X78332832Y-135443324D02*
G75*
G02*
X79770775Y-137913526I-524971J-1959219D01*
G01*
X177217333Y-188677276D02*
G75*
G02*
X234702250Y-149445120I70522103J-41601548D01*
G01*
X111078212Y-42264010D02*
G75*
G02*
X114777745Y-47160941I-1299995J-4828047D01*
G01*
X238231259Y-143297036D02*
G75*
G02*
X234702250Y-149445120I-4823047J-1318434D01*
G01*
X31014672Y-39787342D02*
G75*
G02*
X37138107Y-36251323I4829727J-1293708D01*
G01*
X78298995Y-143297035D02*
X79770775Y-137913526D01*
X78332831Y-135443321D02*
X15099881Y-118500125D01*
X93350450Y-40420290D02*
G75*
G02*
X92124905Y-41126008I-965630J259911D01*
G01*
X177217331Y-188677268D02*
G75*
G02*
X174801631Y-190056931I-2415702J1425039D01*
G01*
X174801631Y-190056931D02*
X141728609Y-190056931D01*
X11564350Y-112376399D02*
X31014667Y-39787338D01*
X69360209Y-43848492D02*
G75*
G02*
X68135762Y-44554505I-965630J259910D01*
G01*
X37138107Y-36251323D02*
X68135762Y-44554505D01*
X76411125Y-36898407D02*
X92124905Y-41126008D01*
X205452027Y-42264013D02*
X219710401Y-38424803D01*
X236759465Y-137913523D02*
X238231249Y-143297035D01*
X141728604Y-190056931D02*
G75*
G02*
X139312909Y-188677270I3J2804697D01*
G01*
X304965891Y-112376399D02*
G75*
G02*
X301430359Y-118500123I-4829628J-1294096D01*
G01*
X70281907Y-40427624D02*
G75*
G02*
X76411125Y-36898407I4830011J-1301378D01*
G01*
X15099877Y-118500124D02*
G75*
G02*
X11564350Y-112376399I1294099J4829626D01*
G01*
X219710403Y-38424805D02*
G75*
G02*
X223179784Y-40420291I735940J-2734185D01*
G01*
X160741853Y-60155664D02*
G75*
G02*
X155552084Y-60152065I-2588188J9659260D01*
G01*
X248394482Y-44554510D02*
X279392130Y-36251317D01*
X285515578Y-39787337D02*
X304965892Y-112376402D01*
X248394475Y-44554505D02*
G75*
G02*
X247170030Y-43848495I-258818J965921D01*
G01*
X246248318Y-40427624D02*
X247170030Y-43848495D01*
X81827991Y-149445118D02*
G75*
G02*
X78298995Y-143297035I1294044J4829643D01*
G01*
X96819839Y-38424801D02*
X111078216Y-42264011D01*
X117017902Y-50063116D02*
G75*
G02*
X114777745Y-47160941I759843J2902178D01*
G01*
X301430359Y-118500123D02*
X238197409Y-135443321D01*
X93350450Y-40420291D02*
G75*
G02*
X96819839Y-38424801I2733447J-738701D01*
G01*
X160741846Y-60155665D02*
X199512336Y-50063117D01*
X81827988Y-149445116D02*
G75*
G02*
X139312909Y-188677270I-13037183J-80833707D01*
G01*
X236759469Y-137913525D02*
G75*
G02*
X238197409Y-135443321I1962913J510985D01*
G01*
X201752501Y-47160936D02*
G75*
G02*
X205452027Y-42264013I4999519J68884D01*
G01*
X240119120Y-36898416D02*
G75*
G02*
X246248318Y-40427624I1299202J-4830581D01*
G01*
X224405333Y-41126011D02*
X240119114Y-36898412D01*
X224405332Y-41126012D02*
G75*
G02*
X223179784Y-40420291I-259915J965632D01*
G01*
M02*
