M48
; DRILL file {KiCad (5.1.9)-1} date 03/20/21 23:03:00
; FORMAT={-:-/ absolute / inch / decimal}
; #@! TF.CreationDate,2021-03-20T23:03:00-06:00
; #@! TF.GenerationSoftware,Kicad,Pcbnew,(5.1.9)-1
FMAT,2
INCH
T1C0.0157
T2C0.0315
T3C0.0430
T4C0.0591
T5C0.0670
T6C0.0787
T7C0.1570
%
G90
G05
T1
X3.0122Y-4.5634
X5.68Y-3.5362
X5.826Y-4.3805
X5.8643Y-2.8481
X7.186Y-5.164
X9.4701Y-4.5966
T2
X1.4025Y-4.4866
X1.4802Y-4.1968
X1.5871Y-3.8074
X1.6647Y-3.5177
X1.7901Y-3.0508
X1.8677Y-2.761
X1.9746Y-2.3274
X2.0523Y-2.0376
X2.1259Y-4.6859
X2.2036Y-4.3961
X2.3142Y-3.9735
X2.3918Y-3.6837
X2.5172Y-3.2169
X2.5948Y-2.9271
X2.6325Y-5.0675
X2.7054Y-2.5082
X2.7102Y-4.7778
X2.7787Y-5.1067
X2.7831Y-2.2184
X2.8564Y-4.8169
X2.9249Y-5.1459
X2.949Y-4.5013
X3.0025Y-4.8561
X3.0267Y-4.2116
X3.0711Y-5.185
X3.1336Y-3.8296
X3.1487Y-4.8953
X3.2112Y-3.5398
X3.3396Y-3.0233
X3.4172Y-2.7335
X3.5285Y-2.3458
X3.6062Y-2.056
X3.7094Y-4.5751
X3.787Y-4.2854
X3.9013Y-3.8591
X3.9789Y-3.5693
X4.0969Y-3.1135
X4.1746Y-2.8238
X4.2795Y-2.4148
X4.3572Y-2.125
X4.3782Y-4.9556
X4.4559Y-4.6658
X4.571Y-4.2506
X4.6486Y-3.9608
X4.7601Y-3.5447
X4.8377Y-3.2549
X4.9512Y-2.8317
X5.0288Y-2.5419
X5.0787Y-5.2358
X5.1563Y-4.9461
X5.2743Y-4.5309
X5.352Y-4.2411
X5.4736Y-3.7853
X5.5513Y-3.4955
X5.6582Y-3.0692
X5.7358Y-2.7795
X6.7322Y-2.785
X6.8099Y-3.0747
X6.9168Y-3.5084
X6.9944Y-3.7982
X7.1124Y-4.2318
X7.1901Y-4.5216
X7.308Y-4.9479
X7.3857Y-5.2376
X7.4372Y-2.5303
X7.5149Y-2.8201
X7.6255Y-3.239
X7.7031Y-3.5287
X7.8285Y-3.9734
X7.9061Y-4.2632
X8.0167Y-4.7006
X8.0943Y-4.9903
X8.115Y-2.1919
X8.1926Y-2.4816
X8.2886Y-2.8255
X8.3662Y-3.1153
X8.498Y-3.5642
X8.5756Y-3.854
X8.6864Y-4.2818
X8.7641Y-4.5715
X8.8619Y-2.0689
X8.9396Y-2.3587
X9.0539Y-2.7665
X9.1315Y-3.0563
X9.2458Y-3.4862
X9.3234Y-3.776
X9.4414Y-4.2207
X9.4729Y-4.8353
X9.519Y-4.5105
X9.5505Y-5.125
X9.619Y-4.7961
X9.6887Y-2.2535
X9.6967Y-5.0859
X9.7663Y-2.5432
X9.7688Y-4.756
X9.8464Y-5.0458
X9.8622Y-2.8846
X9.9221Y-4.7149
X9.9398Y-3.1744
X9.9997Y-5.0047
X10.0689Y-3.6597
X10.1465Y-3.9495
X10.2534Y-4.3979
X10.3311Y-4.6877
X10.4158Y-2.0578
X10.4935Y-2.3476
X10.5967Y-2.7407
X10.6743Y-3.0305
X10.7997Y-3.4899
X10.8773Y-3.7797
X10.9916Y-4.2023
X11.0692Y-4.4921
T3
X5.9151Y-4.5238
X5.9151Y-4.6238
X5.9151Y-4.7238
X5.9151Y-4.8238
X5.9151Y-4.9238
X5.9151Y-5.0238
X5.9151Y-5.1238
X5.9151Y-5.2238
X5.9151Y-5.3238
X5.9151Y-5.4238
X5.9151Y-5.5238
X5.9151Y-5.6238
X6.5151Y-4.5238
X6.5151Y-4.6238
X6.5151Y-4.7238
X6.5151Y-4.8238
X6.5151Y-4.9238
X6.5151Y-5.0238
X6.5151Y-5.1238
X6.5151Y-5.2238
X6.5151Y-5.3238
X6.5151Y-5.4238
X6.5151Y-5.5238
X6.5151Y-5.6238
T5
X0.8847Y-4.1782
X1.0803Y-3.4511
X1.271Y-4.2818
X1.2759Y-2.7277
X1.4667Y-3.5547
X1.4678Y-2.0043
X1.6118Y-4.3702
X1.6623Y-2.8312
X1.8037Y-3.6467
X1.8542Y-2.1078
X1.9982Y-4.4737
X1.9993Y-2.9233
X2.1901Y-3.7503
X2.1913Y-2.1962
X2.3857Y-3.0269
X2.4312Y-4.2041
X2.5776Y-2.2997
X2.6268Y-3.477
X2.8175Y-4.3076
X2.8187Y-2.7572
X3.0132Y-3.5805
X3.0143Y-2.0301
X3.1952Y-4.2521
X3.2051Y-2.8608
X3.3908Y-3.5286
X3.4007Y-2.1336
X3.5126Y-5.3963
X3.5816Y-4.3556
X3.5827Y-2.8015
X3.7772Y-3.6322
X3.7784Y-2.0781
X3.8596Y-4.6618
X3.899Y-5.4998
X3.9691Y-2.905
X4.0552Y-3.942
X4.1647Y-2.1816
X4.2459Y-4.7653
X4.2508Y-3.2149
X4.2777Y-5.6473
X4.4416Y-4.0456
X4.4427Y-2.4878
X4.5645Y-4.9312
X4.6325Y-5.832
X4.6372Y-3.3184
X4.7602Y-4.2041
X4.8291Y-2.5913
X4.9509Y-5.0347
X4.9558Y-3.4807
X4.9699Y-6.0613
X5.1465Y-4.3076
X5.1477Y-2.7572
X5.2763Y-6.3185
X5.3422Y-3.5842
X5.5341Y-2.8608
X5.5624Y-6.607
X5.8059Y-6.9244
X6.6586Y-6.928
X6.9021Y-6.6107
X6.9267Y-2.8608
X7.1187Y-3.5842
X7.1845Y-6.3185
X7.3131Y-2.7572
X7.3143Y-4.3076
X7.4909Y-6.0613
X7.505Y-3.4807
X7.5099Y-5.0347
X7.6317Y-2.5913
X7.7007Y-4.2041
X7.8273Y-3.3184
X7.8284Y-5.832
X7.8963Y-4.9312
X8.0181Y-2.4878
X8.0193Y-4.0419
X8.1832Y-5.6473
X8.2137Y-3.2149
X8.2149Y-4.7653
X8.2998Y-2.1816
X8.4056Y-3.9383
X8.4917Y-2.905
X8.5618Y-5.4961
X8.6013Y-4.6618
X8.6861Y-2.0781
X8.6873Y-3.6322
X8.8781Y-2.8015
X8.8793Y-4.3556
X8.9482Y-5.3926
X9.0601Y-2.1336
X9.0737Y-3.5286
X9.2557Y-2.8571
X9.2656Y-4.2521
X9.4465Y-2.0301
X9.4477Y-3.5805
X9.6421Y-2.7535
X9.6433Y-4.3076
X9.834Y-3.477
X9.8832Y-2.2997
X10.0297Y-4.2041
X10.0751Y-3.0268
X10.2696Y-2.1962
X10.2707Y-3.7503
X10.4615Y-2.9233
X10.4664Y-4.4737
X10.6066Y-2.1078
X10.6571Y-3.6467
X10.8022Y-2.8312
X10.8527Y-4.3702
X10.993Y-2.0043
X10.9942Y-3.5547
X11.1886Y-2.7277
X11.1898Y-4.2781
X11.3805Y-3.4511
X11.5762Y-4.1746
T6
X0.5752Y-4.5163
X1.3725Y-1.5487
X1.7342Y-3.2355
X3.2032Y-5.7306
X3.2991Y-3.1875
X4.0816Y-1.7074
X4.698Y-3.7596
X5.023Y-5.5561
X5.5617Y-7.3546
X6.8978Y-7.3583
X7.4377Y-5.5573
X7.7634Y-3.757
X8.3779Y-1.7074
X9.1652Y-3.1887
X9.2563Y-5.7306
X10.7276Y-3.2329
X11.0907Y-1.5487
X11.8843Y-4.5126
T7
X1.0779Y-4.23
X1.2735Y-3.5029
X1.4691Y-2.7795
X1.661Y-2.056
X1.805Y-4.4219
X1.9969Y-3.6985
X2.1925Y-2.9751
X2.3844Y-2.248
X2.6244Y-4.2558
X2.82Y-3.5287
X3.0119Y-2.809
X3.2075Y-2.0819
X3.3884Y-4.3038
X3.584Y-3.5804
X3.7058Y-5.448
X3.7759Y-2.8533
X3.9716Y-2.1299
X4.0528Y-4.7135
X4.2484Y-3.9938
X4.444Y-3.2667
X4.4551Y-5.7396
X4.6359Y-2.5396
X4.7577Y-4.983
X4.9533Y-4.2558
X5.1231Y-6.1899
X5.149Y-3.5324
X5.3409Y-2.809
X5.6842Y-6.7657
X6.7804Y-6.7694
X7.1199Y-2.809
X7.3119Y-3.5324
X7.3377Y-6.1899
X7.5075Y-4.2558
X7.7031Y-4.983
X7.8249Y-2.5396
X8.0058Y-5.7396
X8.0205Y-3.2667
X8.2125Y-3.9901
X8.4081Y-4.7135
X8.493Y-2.1299
X8.6849Y-2.8533
X8.755Y-5.4443
X8.8805Y-3.5804
X9.0724Y-4.3038
X9.2533Y-2.0819
X9.4489Y-2.8053
X9.6408Y-3.5287
X9.8365Y-4.2558
X10.0764Y-2.248
X10.2683Y-2.9751
X10.4639Y-3.6985
X10.6595Y-4.4219
X10.7998Y-2.056
X10.9954Y-2.7795
X11.1874Y-3.5029
X11.383Y-4.2263
T4
G00X1.0226Y-4.0331
M15
G01X0.9573Y-4.0929
M16
G05
G00X1.2182Y-3.3059
M15
G01X1.1529Y-3.3658
M16
G05
G00X1.2262Y-4.0627
M15
G01X1.2188Y-4.0843
M16
G05
G00X1.4138Y-2.5825
M15
G01X1.3485Y-2.6424
M16
G05
G00X1.4218Y-3.3356
M15
G01X1.4144Y-3.3572
M16
G05
G00X1.6058Y-1.8591
M15
G01X1.5405Y-1.9189
M16
G05
G00X1.6174Y-2.6122
M15
G01X1.61Y-2.6338
M16
G05
G00X1.7497Y-4.225
M15
G01X1.6844Y-4.2848
M16
G05
G00X1.8094Y-1.8888
M15
G01X1.802Y-1.9104
M16
G05
G00X1.9416Y-3.5016
M15
G01X1.8763Y-3.5614
M16
G05
G00X1.9533Y-4.2547
M15
G01X1.9459Y-4.2763
M16
G05
G00X2.1373Y-2.7781
M15
G01X2.0719Y-2.838
M16
G05
G00X2.1452Y-3.5312
M15
G01X2.1378Y-3.5528
M16
G05
G00X2.3292Y-2.051
M15
G01X2.2639Y-2.1109
M16
G05
G00X2.3409Y-2.8078
M15
G01X2.3335Y-2.8294
M16
G05
G00X2.5328Y-2.0807
M15
G01X2.5254Y-2.1023
M16
G05
G00X2.5691Y-4.0589
M15
G01X2.5038Y-4.1187
M16
G05
G00X2.7647Y-3.3318
M15
G01X2.6994Y-3.3916
M16
G05
G00X2.7727Y-4.0886
M15
G01X2.7653Y-4.1102
M16
G05
G00X2.9566Y-2.612
M15
G01X2.8913Y-2.6719
M16
G05
G00X2.9683Y-3.3614
M15
G01X2.9609Y-3.3831
M16
G05
G00X3.1523Y-1.8849
M15
G01X3.087Y-1.9448
M16
G05
G00X3.1602Y-2.6417
M15
G01X3.1529Y-2.6633
M16
G05
G00X3.3331Y-4.1069
M15
G01X3.2678Y-4.1667
M16
G05
G00X3.3559Y-1.9146
M15
G01X3.3485Y-1.9362
M16
G05
G00X3.5287Y-3.3835
M15
G01X3.4634Y-3.4433
M16
G05
G00X3.5367Y-4.1365
M15
G01X3.5293Y-4.1581
M16
G05
G00X3.6505Y-5.2511
M15
G01X3.5852Y-5.3109
M16
G05
G00X3.7207Y-2.6563
M15
G01X3.6554Y-2.7162
M16
G05
G00X3.7323Y-3.4131
M15
G01X3.7249Y-3.4347
M16
G05
G00X3.8541Y-5.2807
M15
G01X3.8467Y-5.3023
M16
G05
G00X3.9163Y-1.9329
M15
G01X3.851Y-1.9928
M16
G05
G00X3.9243Y-2.686
M15
G01X3.9169Y-2.7076
M16
G05
G00X3.9975Y-4.5166
M15
G01X3.9322Y-4.5764
M16
G05
G00X4.1199Y-1.9626
M15
G01X4.1125Y-1.9842
M16
G05
G00X4.1931Y-3.7968
M15
G01X4.1278Y-3.8567
M16
G05
G00X4.2011Y-4.5462
M15
G01X4.1937Y-4.5678
M16
G05
G00X4.3887Y-3.0697
M15
G01X4.3234Y-3.1296
M16
G05
G00X4.3967Y-3.8265
M15
G01X4.3893Y-3.8481
M16
G05
G00X4.4437Y-5.5354
M15
G01X4.367Y-5.5797
M16
G05
G00X4.5807Y-2.3426
M15
G01X4.5154Y-2.4024
M16
G05
G00X4.5923Y-3.0994
M15
G01X4.5849Y-3.121
M16
G05
G00X4.6361Y-5.6084
M15
G01X4.6242Y-5.6279
M16
G05
G00X4.7025Y-4.786
M15
G01X4.6372Y-4.8459
M16
G05
G00X4.7843Y-2.3723
M15
G01X4.7769Y-2.3939
M16
G05
G00X4.8981Y-4.0589
M15
G01X4.8328Y-4.1187
M16
G05
G00X4.9061Y-4.8157
M15
G01X4.8987Y-4.8373
M16
G05
G00X5.0937Y-3.3355
M15
G01X5.0284Y-3.3953
M16
G05
G00X5.1017Y-4.0886
M15
G01X5.0943Y-4.1102
M16
G05
G00X5.1563Y-5.988
M15
G01X5.0718Y-6.0147
M16
G05
G00X5.2856Y-2.612
M15
G01X5.2203Y-2.6719
M16
G05
G00X5.2973Y-3.3651
M15
G01X5.2899Y-3.3867
M16
G05
G00X5.3283Y-6.101
M15
G01X5.3124Y-6.1174
M16
G05
G00X5.4892Y-2.6417
M15
G01X5.4818Y-2.6633
M16
G05
G00X5.7602Y-6.5758
M15
G01X5.672Y-6.5835
M16
G05
G00X5.9037Y-6.7233
M15
G01X5.8847Y-6.7359
M16
G05
G00X6.5773Y-6.7451
M15
G01X6.6076Y-6.8283
M16
G05
G00X6.6826Y-6.5683
M15
G01X6.6997Y-6.5834
M16
G05
G00X6.9736Y-2.6661
M15
G01X6.947Y-2.7505
M16
G05
G00X7.1447Y-6.1222
M15
G01X7.1562Y-6.21
M16
G05
G00X7.1655Y-3.3895
M15
G01X7.1389Y-3.474
M16
G05
G00X7.1648Y-2.59
M15
G01X7.1692Y-2.6124
M16
G05
G00X7.2858Y-5.9724
M15
G01X7.2992Y-5.9909
M16
G05
G00X7.3611Y-4.1129
M15
G01X7.3345Y-4.1974
M16
G05
G00X7.3567Y-3.3134
M15
G01X7.3611Y-3.3358
M16
G05
G00X7.5568Y-4.84
M15
G01X7.5301Y-4.9245
M16
G05
G00X7.5523Y-4.0368
M15
G01X7.5567Y-4.0592
M16
G05
G00X7.6786Y-2.3966
M15
G01X7.6519Y-2.4811
M16
G05
G00X7.7479Y-4.7639
M15
G01X7.7523Y-4.7863
M16
G05
G00X7.832Y-5.6317
M15
G01X7.8242Y-5.72
M16
G05
G00X7.8742Y-3.1237
M15
G01X7.8476Y-3.2082
M16
G05
G00X7.8697Y-2.3205
M15
G01X7.8741Y-2.3429
M16
G05
G00X8.0021Y-5.5161
M15
G01X8.0113Y-5.537
M16
G05
G00X8.0661Y-3.8472
M15
G01X8.0395Y-3.9316
M16
G05
G00X8.0653Y-3.0476
M15
G01X8.0697Y-3.07
M16
G05
G00X8.2617Y-4.5706
M15
G01X8.2351Y-4.6551
M16
G05
G00X8.2573Y-3.7711
M15
G01X8.2617Y-3.7935
M16
G05
G00X8.3466Y-1.9869
M15
G01X8.32Y-2.0714
M16
G05
G00X8.4529Y-4.4945
M15
G01X8.4573Y-4.5169
M16
G05
G00X8.5386Y-2.7104
M15
G01X8.5119Y-2.7948
M16
G05
G00X8.5378Y-1.9108
M15
G01X8.5422Y-1.9332
M16
G05
G00X8.6087Y-5.3014
M15
G01X8.5821Y-5.3859
M16
G05
G00X8.7342Y-3.4375
M15
G01X8.7075Y-3.5219
M16
G05
G00X8.7297Y-2.6342
M15
G01X8.7341Y-2.6567
M16
G05
G00X8.7998Y-5.2253
M15
G01X8.8042Y-5.2477
M16
G05
G00X8.9261Y-4.1609
M15
G01X8.8995Y-4.2454
M16
G05
G00X8.9253Y-3.3614
M15
G01X8.9297Y-3.3838
M16
G05
G00X9.107Y-1.9389
M15
G01X9.0803Y-2.0234
M16
G05
G00X9.1173Y-4.0848
M15
G01X9.1217Y-4.1072
M16
G05
G00X9.3026Y-2.6624
M15
G01X9.2759Y-2.7469
M16
G05
G00X9.2981Y-1.8628
M15
G01X9.3025Y-1.8852
M16
G05
G00X9.4945Y-3.3858
M15
G01X9.4679Y-3.4703
M16
G05
G00X9.4937Y-2.5863
M15
G01X9.4981Y-2.6087
M16
G05
G00X9.6901Y-4.1129
M15
G01X9.6635Y-4.1974
M16
G05
G00X9.6857Y-3.3097
M15
G01X9.6901Y-3.3321
M16
G05
G00X9.8813Y-4.0368
M15
G01X9.8857Y-4.0592
M16
G05
G00X9.93Y-2.105
M15
G01X9.9034Y-2.1895
M16
G05
G00X10.122Y-2.8322
M15
G01X10.0953Y-2.9166
M16
G05
G00X10.1212Y-2.0289
M15
G01X10.1256Y-2.0513
M16
G05
G00X10.3176Y-3.5556
M15
G01X10.291Y-3.6401
M16
G05
G00X10.3131Y-2.756
M15
G01X10.3175Y-2.7785
M16
G05
G00X10.5132Y-4.279
M15
G01X10.4866Y-4.3635
M16
G05
G00X10.5088Y-3.4795
M15
G01X10.5131Y-3.5019
M16
G05
G00X10.6535Y-1.9131
M15
G01X10.6268Y-1.9976
M16
G05
G00X10.7044Y-4.2029
M15
G01X10.7088Y-4.2253
M16
G05
G00X10.8491Y-2.6365
M15
G01X10.8225Y-2.721
M16
G05
G00X10.8446Y-1.837
M15
G01X10.849Y-1.8594
M16
G05
G00X11.041Y-3.36
M15
G01X11.0144Y-3.4444
M16
G05
G00X11.0402Y-2.5604
M15
G01X11.0446Y-2.5828
M16
G05
G00X11.2366Y-4.0834
M15
G01X11.21Y-4.1679
M16
G05
G00X11.2322Y-3.2839
M15
G01X11.2366Y-3.3063
M16
G05
G00X11.4278Y-4.0073
M15
G01X11.4322Y-4.0297
M16
G05
T0
M30
