%TF.GenerationSoftware,KiCad,Pcbnew,(5.1.9)-1*%
%TF.CreationDate,2021-03-20T23:04:42-06:00*%
%TF.ProjectId,Pteron56v0,50746572-6f6e-4353-9676-302e6b696361,rev?*%
%TF.SameCoordinates,Original*%
%TF.FileFunction,Legend,Bot*%
%TF.FilePolarity,Positive*%
%FSLAX46Y46*%
G04 Gerber Fmt 4.6, Leading zero omitted, Abs format (unit mm)*
G04 Created by KiCad (PCBNEW (5.1.9)-1) date 2021-03-20 23:04:42*
%MOMM*%
%LPD*%
G01*
G04 APERTURE LIST*
%ADD10C,0.010000*%
%ADD11C,0.120000*%
%ADD12C,0.100000*%
%ADD13C,0.200000*%
%ADD14C,0.150000*%
G04 APERTURE END LIST*
D10*
%TO.C,G\u002A\u002A\u002A*%
G36*
X155095317Y-101933567D02*
G01*
X154229591Y-102177165D01*
X153459129Y-102563769D01*
X153156259Y-102808099D01*
X152704858Y-103396335D01*
X152608052Y-104040915D01*
X152653837Y-104419899D01*
X152909180Y-105240311D01*
X153314502Y-105915519D01*
X153334613Y-105937625D01*
X153683526Y-106406276D01*
X153656067Y-106833714D01*
X153488360Y-107169286D01*
X153133982Y-108116070D01*
X153250850Y-108827146D01*
X153772603Y-109262733D01*
X154281102Y-109426388D01*
X154580004Y-109229808D01*
X154769523Y-108864622D01*
X155091113Y-108158810D01*
X155241082Y-108800364D01*
X155594791Y-109320071D01*
X156202789Y-109546098D01*
X156839162Y-109420028D01*
X157042835Y-109266250D01*
X157060375Y-109228748D01*
X156673492Y-109228748D01*
X156305694Y-109266017D01*
X155926130Y-109224000D01*
X155971483Y-109131160D01*
X156518879Y-109095847D01*
X156639905Y-109131160D01*
X156673492Y-109228748D01*
X157060375Y-109228748D01*
X157266685Y-108787659D01*
X157368736Y-108064387D01*
X157369393Y-107984760D01*
X157361676Y-107844577D01*
X156900738Y-107844577D01*
X156859153Y-108368724D01*
X156743529Y-108568876D01*
X156337283Y-108744385D01*
X156091841Y-108554566D01*
X155924453Y-107921231D01*
X155898953Y-107770865D01*
X155772697Y-107002702D01*
X155675927Y-106423367D01*
X155666323Y-106367181D01*
X155515198Y-106283693D01*
X155200716Y-106660680D01*
X155082548Y-106855094D01*
X154532341Y-107773919D01*
X154161735Y-108289595D01*
X153903301Y-108473230D01*
X153689612Y-108395932D01*
X153653292Y-108362359D01*
X153555954Y-107970720D01*
X153808645Y-107275470D01*
X153908582Y-107082281D01*
X154445956Y-106079658D01*
X153771614Y-105195551D01*
X153199871Y-104247928D01*
X153110770Y-103506679D01*
X153516523Y-102942294D01*
X154429340Y-102525259D01*
X154930301Y-102395084D01*
X155715624Y-102267248D01*
X156111842Y-102343830D01*
X156197578Y-102460556D01*
X156281832Y-102847685D01*
X156411682Y-103638582D01*
X156567297Y-104706296D01*
X156684489Y-105577706D01*
X156842986Y-106937977D01*
X156900738Y-107844577D01*
X157361676Y-107844577D01*
X157321215Y-107109660D01*
X157200674Y-106016848D01*
X157030599Y-104842325D01*
X156833823Y-103722096D01*
X156633176Y-102792163D01*
X156451489Y-102188528D01*
X156373080Y-102049725D01*
X155871437Y-101876559D01*
X155095317Y-101933567D01*
G37*
X155095317Y-101933567D02*
X154229591Y-102177165D01*
X153459129Y-102563769D01*
X153156259Y-102808099D01*
X152704858Y-103396335D01*
X152608052Y-104040915D01*
X152653837Y-104419899D01*
X152909180Y-105240311D01*
X153314502Y-105915519D01*
X153334613Y-105937625D01*
X153683526Y-106406276D01*
X153656067Y-106833714D01*
X153488360Y-107169286D01*
X153133982Y-108116070D01*
X153250850Y-108827146D01*
X153772603Y-109262733D01*
X154281102Y-109426388D01*
X154580004Y-109229808D01*
X154769523Y-108864622D01*
X155091113Y-108158810D01*
X155241082Y-108800364D01*
X155594791Y-109320071D01*
X156202789Y-109546098D01*
X156839162Y-109420028D01*
X157042835Y-109266250D01*
X157060375Y-109228748D01*
X156673492Y-109228748D01*
X156305694Y-109266017D01*
X155926130Y-109224000D01*
X155971483Y-109131160D01*
X156518879Y-109095847D01*
X156639905Y-109131160D01*
X156673492Y-109228748D01*
X157060375Y-109228748D01*
X157266685Y-108787659D01*
X157368736Y-108064387D01*
X157369393Y-107984760D01*
X157361676Y-107844577D01*
X156900738Y-107844577D01*
X156859153Y-108368724D01*
X156743529Y-108568876D01*
X156337283Y-108744385D01*
X156091841Y-108554566D01*
X155924453Y-107921231D01*
X155898953Y-107770865D01*
X155772697Y-107002702D01*
X155675927Y-106423367D01*
X155666323Y-106367181D01*
X155515198Y-106283693D01*
X155200716Y-106660680D01*
X155082548Y-106855094D01*
X154532341Y-107773919D01*
X154161735Y-108289595D01*
X153903301Y-108473230D01*
X153689612Y-108395932D01*
X153653292Y-108362359D01*
X153555954Y-107970720D01*
X153808645Y-107275470D01*
X153908582Y-107082281D01*
X154445956Y-106079658D01*
X153771614Y-105195551D01*
X153199871Y-104247928D01*
X153110770Y-103506679D01*
X153516523Y-102942294D01*
X154429340Y-102525259D01*
X154930301Y-102395084D01*
X155715624Y-102267248D01*
X156111842Y-102343830D01*
X156197578Y-102460556D01*
X156281832Y-102847685D01*
X156411682Y-103638582D01*
X156567297Y-104706296D01*
X156684489Y-105577706D01*
X156842986Y-106937977D01*
X156900738Y-107844577D01*
X157361676Y-107844577D01*
X157321215Y-107109660D01*
X157200674Y-106016848D01*
X157030599Y-104842325D01*
X156833823Y-103722096D01*
X156633176Y-102792163D01*
X156451489Y-102188528D01*
X156373080Y-102049725D01*
X155871437Y-101876559D01*
X155095317Y-101933567D01*
G36*
X171624370Y-102231558D02*
G01*
X171118792Y-102498220D01*
X170845378Y-102717322D01*
X170245531Y-103533049D01*
X170051285Y-104485635D01*
X170232070Y-105430705D01*
X170757317Y-106223882D01*
X171596460Y-106720791D01*
X171699056Y-106749281D01*
X172132062Y-106946210D01*
X172315943Y-107358409D01*
X172347799Y-107945302D01*
X172407913Y-108658346D01*
X172645421Y-109014818D01*
X172949378Y-109139715D01*
X173721095Y-109286740D01*
X174179091Y-109172034D01*
X174304967Y-109009682D01*
X173839900Y-109009682D01*
X173521087Y-108970428D01*
X173149905Y-108773496D01*
X172899351Y-108565853D01*
X173140167Y-108511128D01*
X173200967Y-108510222D01*
X173684400Y-108646464D01*
X173818326Y-108773496D01*
X173839900Y-109009682D01*
X174304967Y-109009682D01*
X174483752Y-108779091D01*
X174603566Y-108305575D01*
X174710012Y-107430377D01*
X174790185Y-106286554D01*
X174827370Y-105236460D01*
X174867161Y-103252104D01*
X174754115Y-103252104D01*
X174731300Y-103965200D01*
X174671301Y-104995188D01*
X174586789Y-106126552D01*
X174581198Y-106193157D01*
X174482425Y-107227110D01*
X174374018Y-107837900D01*
X174212644Y-108136037D01*
X173954971Y-108232031D01*
X173779093Y-108238760D01*
X173368324Y-108171092D01*
X173188858Y-107868081D01*
X173149905Y-107199042D01*
X173114715Y-106604883D01*
X172413771Y-106604883D01*
X172347799Y-106614609D01*
X171828221Y-106488540D01*
X171278326Y-106233496D01*
X170826775Y-105941408D01*
X170830259Y-105856551D01*
X171250570Y-105979626D01*
X171849208Y-106223031D01*
X172324742Y-106468602D01*
X172413771Y-106604883D01*
X173114715Y-106604883D01*
X173109422Y-106515521D01*
X172893370Y-106181278D01*
X172359845Y-106011917D01*
X172214781Y-105983893D01*
X171381070Y-105651011D01*
X170856181Y-104989551D01*
X170553889Y-104021553D01*
X170735111Y-103257364D01*
X171381757Y-102715491D01*
X172475739Y-102414439D01*
X173429853Y-102356654D01*
X174216235Y-102372347D01*
X174606603Y-102481959D01*
X174739679Y-102779293D01*
X174754115Y-103252104D01*
X174867161Y-103252104D01*
X174887799Y-102222970D01*
X173245617Y-102144119D01*
X172267974Y-102129128D01*
X171624370Y-102231558D01*
G37*
X171624370Y-102231558D02*
X171118792Y-102498220D01*
X170845378Y-102717322D01*
X170245531Y-103533049D01*
X170051285Y-104485635D01*
X170232070Y-105430705D01*
X170757317Y-106223882D01*
X171596460Y-106720791D01*
X171699056Y-106749281D01*
X172132062Y-106946210D01*
X172315943Y-107358409D01*
X172347799Y-107945302D01*
X172407913Y-108658346D01*
X172645421Y-109014818D01*
X172949378Y-109139715D01*
X173721095Y-109286740D01*
X174179091Y-109172034D01*
X174304967Y-109009682D01*
X173839900Y-109009682D01*
X173521087Y-108970428D01*
X173149905Y-108773496D01*
X172899351Y-108565853D01*
X173140167Y-108511128D01*
X173200967Y-108510222D01*
X173684400Y-108646464D01*
X173818326Y-108773496D01*
X173839900Y-109009682D01*
X174304967Y-109009682D01*
X174483752Y-108779091D01*
X174603566Y-108305575D01*
X174710012Y-107430377D01*
X174790185Y-106286554D01*
X174827370Y-105236460D01*
X174867161Y-103252104D01*
X174754115Y-103252104D01*
X174731300Y-103965200D01*
X174671301Y-104995188D01*
X174586789Y-106126552D01*
X174581198Y-106193157D01*
X174482425Y-107227110D01*
X174374018Y-107837900D01*
X174212644Y-108136037D01*
X173954971Y-108232031D01*
X173779093Y-108238760D01*
X173368324Y-108171092D01*
X173188858Y-107868081D01*
X173149905Y-107199042D01*
X173114715Y-106604883D01*
X172413771Y-106604883D01*
X172347799Y-106614609D01*
X171828221Y-106488540D01*
X171278326Y-106233496D01*
X170826775Y-105941408D01*
X170830259Y-105856551D01*
X171250570Y-105979626D01*
X171849208Y-106223031D01*
X172324742Y-106468602D01*
X172413771Y-106604883D01*
X173114715Y-106604883D01*
X173109422Y-106515521D01*
X172893370Y-106181278D01*
X172359845Y-106011917D01*
X172214781Y-105983893D01*
X171381070Y-105651011D01*
X170856181Y-104989551D01*
X170553889Y-104021553D01*
X170735111Y-103257364D01*
X171381757Y-102715491D01*
X172475739Y-102414439D01*
X173429853Y-102356654D01*
X174216235Y-102372347D01*
X174606603Y-102481959D01*
X174739679Y-102779293D01*
X174754115Y-103252104D01*
X174867161Y-103252104D01*
X174887799Y-102222970D01*
X173245617Y-102144119D01*
X172267974Y-102129128D01*
X171624370Y-102231558D01*
G36*
X167006816Y-102239476D02*
G01*
X165556039Y-102546297D01*
X165396220Y-102583734D01*
X164387672Y-102830543D01*
X163796809Y-103026180D01*
X163519994Y-103238492D01*
X163453592Y-103535328D01*
X163477900Y-103839598D01*
X163718420Y-104743171D01*
X164202803Y-105183147D01*
X164877742Y-105200876D01*
X165304932Y-105151748D01*
X165539529Y-105306637D01*
X165670860Y-105787001D01*
X165749723Y-106386507D01*
X166026158Y-107778696D01*
X166460076Y-108731764D01*
X167028080Y-109220541D01*
X167706770Y-109219855D01*
X168155971Y-108975062D01*
X168406474Y-108738157D01*
X168511211Y-108411117D01*
X168494529Y-108105075D01*
X168337273Y-108105075D01*
X168203589Y-108238760D01*
X168069905Y-108105075D01*
X168203589Y-107971391D01*
X168337273Y-108105075D01*
X168494529Y-108105075D01*
X168480752Y-107852329D01*
X168367111Y-107169286D01*
X168006637Y-107169286D01*
X167992421Y-107567998D01*
X167925691Y-107488926D01*
X167802536Y-107035602D01*
X167650239Y-106212465D01*
X167598435Y-105565075D01*
X167612651Y-105166364D01*
X167679381Y-105245435D01*
X167802536Y-105698760D01*
X167954833Y-106521896D01*
X168006637Y-107169286D01*
X168367111Y-107169286D01*
X168325666Y-106920180D01*
X168314055Y-106857027D01*
X168135117Y-105614884D01*
X168153988Y-104807653D01*
X168247691Y-104629286D01*
X167535168Y-104629286D01*
X167401483Y-104762970D01*
X167267799Y-104629286D01*
X167401483Y-104495602D01*
X167535168Y-104629286D01*
X168247691Y-104629286D01*
X168384964Y-104367986D01*
X168842339Y-104228533D01*
X168872010Y-104228233D01*
X169423656Y-104042076D01*
X169589809Y-103503477D01*
X169497152Y-103111836D01*
X168838822Y-103111836D01*
X168671474Y-103374163D01*
X168057736Y-103553989D01*
X167936220Y-103577453D01*
X167426067Y-103702041D01*
X167131395Y-103912690D01*
X167025528Y-104317483D01*
X167081787Y-105024504D01*
X167273497Y-106141836D01*
X167286244Y-106210869D01*
X167418368Y-107111961D01*
X167462101Y-107830030D01*
X167428320Y-108131553D01*
X167139207Y-108496041D01*
X166789130Y-108388217D01*
X166444463Y-107855122D01*
X166253779Y-107299133D01*
X166049430Y-106315233D01*
X165937924Y-105350727D01*
X165930957Y-105124982D01*
X165930957Y-104157825D01*
X164861483Y-104301271D01*
X164176792Y-104362557D01*
X163869540Y-104258228D01*
X163792740Y-103927172D01*
X163792010Y-103856610D01*
X163845808Y-103561527D01*
X164073853Y-103339000D01*
X164576120Y-103142783D01*
X165452583Y-102926632D01*
X166100896Y-102788617D01*
X167247098Y-102565492D01*
X167979343Y-102469713D01*
X168401772Y-102496282D01*
X168618529Y-102640199D01*
X168636801Y-102666904D01*
X168838822Y-103111836D01*
X169497152Y-103111836D01*
X169424277Y-102803814D01*
X169166832Y-102385194D01*
X168731749Y-102154528D01*
X168038565Y-102107421D01*
X167006816Y-102239476D01*
G37*
X167006816Y-102239476D02*
X165556039Y-102546297D01*
X165396220Y-102583734D01*
X164387672Y-102830543D01*
X163796809Y-103026180D01*
X163519994Y-103238492D01*
X163453592Y-103535328D01*
X163477900Y-103839598D01*
X163718420Y-104743171D01*
X164202803Y-105183147D01*
X164877742Y-105200876D01*
X165304932Y-105151748D01*
X165539529Y-105306637D01*
X165670860Y-105787001D01*
X165749723Y-106386507D01*
X166026158Y-107778696D01*
X166460076Y-108731764D01*
X167028080Y-109220541D01*
X167706770Y-109219855D01*
X168155971Y-108975062D01*
X168406474Y-108738157D01*
X168511211Y-108411117D01*
X168494529Y-108105075D01*
X168337273Y-108105075D01*
X168203589Y-108238760D01*
X168069905Y-108105075D01*
X168203589Y-107971391D01*
X168337273Y-108105075D01*
X168494529Y-108105075D01*
X168480752Y-107852329D01*
X168367111Y-107169286D01*
X168006637Y-107169286D01*
X167992421Y-107567998D01*
X167925691Y-107488926D01*
X167802536Y-107035602D01*
X167650239Y-106212465D01*
X167598435Y-105565075D01*
X167612651Y-105166364D01*
X167679381Y-105245435D01*
X167802536Y-105698760D01*
X167954833Y-106521896D01*
X168006637Y-107169286D01*
X168367111Y-107169286D01*
X168325666Y-106920180D01*
X168314055Y-106857027D01*
X168135117Y-105614884D01*
X168153988Y-104807653D01*
X168247691Y-104629286D01*
X167535168Y-104629286D01*
X167401483Y-104762970D01*
X167267799Y-104629286D01*
X167401483Y-104495602D01*
X167535168Y-104629286D01*
X168247691Y-104629286D01*
X168384964Y-104367986D01*
X168842339Y-104228533D01*
X168872010Y-104228233D01*
X169423656Y-104042076D01*
X169589809Y-103503477D01*
X169497152Y-103111836D01*
X168838822Y-103111836D01*
X168671474Y-103374163D01*
X168057736Y-103553989D01*
X167936220Y-103577453D01*
X167426067Y-103702041D01*
X167131395Y-103912690D01*
X167025528Y-104317483D01*
X167081787Y-105024504D01*
X167273497Y-106141836D01*
X167286244Y-106210869D01*
X167418368Y-107111961D01*
X167462101Y-107830030D01*
X167428320Y-108131553D01*
X167139207Y-108496041D01*
X166789130Y-108388217D01*
X166444463Y-107855122D01*
X166253779Y-107299133D01*
X166049430Y-106315233D01*
X165937924Y-105350727D01*
X165930957Y-105124982D01*
X165930957Y-104157825D01*
X164861483Y-104301271D01*
X164176792Y-104362557D01*
X163869540Y-104258228D01*
X163792740Y-103927172D01*
X163792010Y-103856610D01*
X163845808Y-103561527D01*
X164073853Y-103339000D01*
X164576120Y-103142783D01*
X165452583Y-102926632D01*
X166100896Y-102788617D01*
X167247098Y-102565492D01*
X167979343Y-102469713D01*
X168401772Y-102496282D01*
X168618529Y-102640199D01*
X168636801Y-102666904D01*
X168838822Y-103111836D01*
X169497152Y-103111836D01*
X169424277Y-102803814D01*
X169166832Y-102385194D01*
X168731749Y-102154528D01*
X168038565Y-102107421D01*
X167006816Y-102239476D01*
G36*
X159154481Y-102013344D02*
G01*
X158896495Y-102213910D01*
X158845708Y-102738563D01*
X158845694Y-102757707D01*
X158913708Y-103304269D01*
X159219228Y-103606462D01*
X159848326Y-103807493D01*
X160581930Y-104052024D01*
X160818379Y-104281800D01*
X160546583Y-104466244D01*
X160115694Y-104544685D01*
X159492307Y-104800598D01*
X159252682Y-105266773D01*
X159421409Y-105769450D01*
X159896628Y-106092764D01*
X160476553Y-106390995D01*
X160560939Y-106621988D01*
X160188123Y-106748838D01*
X159396444Y-106734638D01*
X159246747Y-106718394D01*
X157909905Y-106560065D01*
X157909905Y-107497864D01*
X157936878Y-108024214D01*
X158098833Y-108349991D01*
X158517320Y-108582609D01*
X159313889Y-108829484D01*
X159464813Y-108871948D01*
X160650502Y-109184534D01*
X161431318Y-109301031D01*
X161911983Y-109187393D01*
X162197219Y-108809573D01*
X162391747Y-108133527D01*
X162440421Y-107904549D01*
X162472208Y-107704023D01*
X162187799Y-107704023D01*
X162089973Y-107924097D01*
X162009554Y-107882268D01*
X161977555Y-107564965D01*
X162009554Y-107525777D01*
X162168504Y-107562479D01*
X162187799Y-107704023D01*
X162472208Y-107704023D01*
X162605674Y-106862077D01*
X162672996Y-106211216D01*
X162434060Y-106211216D01*
X162384902Y-106557997D01*
X162293633Y-106562137D01*
X162229807Y-106204293D01*
X162272525Y-106049681D01*
X162391245Y-105948407D01*
X162434060Y-106211216D01*
X162672996Y-106211216D01*
X162736471Y-105597566D01*
X162793587Y-104636401D01*
X162850684Y-102936716D01*
X162373851Y-102936716D01*
X162009255Y-105253527D01*
X161799888Y-106592126D01*
X161627981Y-107480217D01*
X161427840Y-107991987D01*
X161133774Y-108201620D01*
X160680089Y-108183303D01*
X160001091Y-108011221D01*
X159651636Y-107915938D01*
X158829637Y-107623103D01*
X158454403Y-107347162D01*
X158532455Y-107154910D01*
X159070311Y-107113143D01*
X159579928Y-107181321D01*
X160442263Y-107259777D01*
X160916005Y-107053958D01*
X161099853Y-106499788D01*
X161114231Y-106185250D01*
X160922288Y-105672169D01*
X160537689Y-105516829D01*
X160026904Y-105313429D01*
X159847783Y-105099568D01*
X159927199Y-104889869D01*
X160423808Y-104906612D01*
X160562104Y-104932463D01*
X161131955Y-105002352D01*
X161351003Y-104802805D01*
X161385694Y-104271960D01*
X161324994Y-103725091D01*
X161044614Y-103412515D01*
X160397136Y-103180785D01*
X160316220Y-103158760D01*
X159651182Y-102900907D01*
X159276866Y-102602943D01*
X159246747Y-102509888D01*
X159331178Y-102327785D01*
X159656910Y-102299214D01*
X160332594Y-102426467D01*
X160810299Y-102542856D01*
X162373851Y-102936716D01*
X162850684Y-102936716D01*
X162856220Y-102771938D01*
X161786747Y-102415228D01*
X160839668Y-102165438D01*
X159905456Y-102016162D01*
X159781483Y-102007060D01*
X159154481Y-102013344D01*
G37*
X159154481Y-102013344D02*
X158896495Y-102213910D01*
X158845708Y-102738563D01*
X158845694Y-102757707D01*
X158913708Y-103304269D01*
X159219228Y-103606462D01*
X159848326Y-103807493D01*
X160581930Y-104052024D01*
X160818379Y-104281800D01*
X160546583Y-104466244D01*
X160115694Y-104544685D01*
X159492307Y-104800598D01*
X159252682Y-105266773D01*
X159421409Y-105769450D01*
X159896628Y-106092764D01*
X160476553Y-106390995D01*
X160560939Y-106621988D01*
X160188123Y-106748838D01*
X159396444Y-106734638D01*
X159246747Y-106718394D01*
X157909905Y-106560065D01*
X157909905Y-107497864D01*
X157936878Y-108024214D01*
X158098833Y-108349991D01*
X158517320Y-108582609D01*
X159313889Y-108829484D01*
X159464813Y-108871948D01*
X160650502Y-109184534D01*
X161431318Y-109301031D01*
X161911983Y-109187393D01*
X162197219Y-108809573D01*
X162391747Y-108133527D01*
X162440421Y-107904549D01*
X162472208Y-107704023D01*
X162187799Y-107704023D01*
X162089973Y-107924097D01*
X162009554Y-107882268D01*
X161977555Y-107564965D01*
X162009554Y-107525777D01*
X162168504Y-107562479D01*
X162187799Y-107704023D01*
X162472208Y-107704023D01*
X162605674Y-106862077D01*
X162672996Y-106211216D01*
X162434060Y-106211216D01*
X162384902Y-106557997D01*
X162293633Y-106562137D01*
X162229807Y-106204293D01*
X162272525Y-106049681D01*
X162391245Y-105948407D01*
X162434060Y-106211216D01*
X162672996Y-106211216D01*
X162736471Y-105597566D01*
X162793587Y-104636401D01*
X162850684Y-102936716D01*
X162373851Y-102936716D01*
X162009255Y-105253527D01*
X161799888Y-106592126D01*
X161627981Y-107480217D01*
X161427840Y-107991987D01*
X161133774Y-108201620D01*
X160680089Y-108183303D01*
X160001091Y-108011221D01*
X159651636Y-107915938D01*
X158829637Y-107623103D01*
X158454403Y-107347162D01*
X158532455Y-107154910D01*
X159070311Y-107113143D01*
X159579928Y-107181321D01*
X160442263Y-107259777D01*
X160916005Y-107053958D01*
X161099853Y-106499788D01*
X161114231Y-106185250D01*
X160922288Y-105672169D01*
X160537689Y-105516829D01*
X160026904Y-105313429D01*
X159847783Y-105099568D01*
X159927199Y-104889869D01*
X160423808Y-104906612D01*
X160562104Y-104932463D01*
X161131955Y-105002352D01*
X161351003Y-104802805D01*
X161385694Y-104271960D01*
X161324994Y-103725091D01*
X161044614Y-103412515D01*
X160397136Y-103180785D01*
X160316220Y-103158760D01*
X159651182Y-102900907D01*
X159276866Y-102602943D01*
X159246747Y-102509888D01*
X159331178Y-102327785D01*
X159656910Y-102299214D01*
X160332594Y-102426467D01*
X160810299Y-102542856D01*
X162373851Y-102936716D01*
X162850684Y-102936716D01*
X162856220Y-102771938D01*
X161786747Y-102415228D01*
X160839668Y-102165438D01*
X159905456Y-102016162D01*
X159781483Y-102007060D01*
X159154481Y-102013344D01*
G36*
X141762872Y-102117755D02*
G01*
X141480824Y-102333876D01*
X141391928Y-102687222D01*
X141270103Y-103450658D01*
X141133227Y-104501958D01*
X141031162Y-105408502D01*
X140904352Y-106760327D01*
X140862123Y-107679309D01*
X140905491Y-108260772D01*
X141035471Y-108600040D01*
X141065602Y-108639701D01*
X141493309Y-108883493D01*
X142160828Y-109019218D01*
X142882424Y-109042239D01*
X143472362Y-108947919D01*
X143744909Y-108731622D01*
X143747509Y-108706654D01*
X143855620Y-108620301D01*
X144028163Y-108840339D01*
X144545296Y-109215431D01*
X145218096Y-109308233D01*
X145880555Y-109233076D01*
X146190854Y-108942547D01*
X146262641Y-108706654D01*
X146355379Y-108159710D01*
X146478947Y-107302970D01*
X146093571Y-107302970D01*
X146064671Y-107759588D01*
X145980973Y-107799790D01*
X145970317Y-107775953D01*
X145917426Y-107245177D01*
X145960410Y-106973848D01*
X146045518Y-106864815D01*
X146091808Y-107219941D01*
X146093571Y-107302970D01*
X146478947Y-107302970D01*
X146485363Y-107258492D01*
X146627345Y-106179801D01*
X146653996Y-105966128D01*
X146774312Y-104820079D01*
X146780006Y-104517598D01*
X146476737Y-104517598D01*
X146458887Y-104762970D01*
X146371654Y-105432361D01*
X146277666Y-105804984D01*
X146251295Y-105832444D01*
X146185132Y-105594959D01*
X146148366Y-105001778D01*
X146145694Y-104762970D01*
X146191762Y-104093094D01*
X146306837Y-103720667D01*
X146353286Y-103693496D01*
X146460403Y-103928929D01*
X146476737Y-104517598D01*
X146780006Y-104517598D01*
X146788605Y-104060840D01*
X146716631Y-103686355D01*
X145702060Y-103686355D01*
X145693069Y-104521789D01*
X145685095Y-104762970D01*
X145609344Y-106243330D01*
X145489049Y-107259944D01*
X145306235Y-107883139D01*
X145042927Y-108183247D01*
X144796737Y-108238760D01*
X144370125Y-108096443D01*
X144275606Y-107904549D01*
X144344380Y-107443855D01*
X144383074Y-107278941D01*
X143938156Y-107278941D01*
X143911406Y-107559615D01*
X143710098Y-108024064D01*
X143461074Y-108414364D01*
X143334651Y-108506128D01*
X143343637Y-108298493D01*
X143521173Y-107836577D01*
X143775945Y-107388054D01*
X143938156Y-107278941D01*
X144383074Y-107278941D01*
X144512642Y-106726732D01*
X144559943Y-106551769D01*
X144753040Y-105671398D01*
X144727564Y-105271209D01*
X144508623Y-105355394D01*
X144121320Y-105928148D01*
X143854988Y-106434023D01*
X143397214Y-107290678D01*
X143030838Y-107758884D01*
X142650334Y-107947350D01*
X142362618Y-107971391D01*
X141760598Y-107875128D01*
X141452784Y-107681431D01*
X141388855Y-107282295D01*
X141387600Y-106511857D01*
X141436745Y-105528276D01*
X141524013Y-104489707D01*
X141637127Y-103554309D01*
X141763812Y-102880238D01*
X141842119Y-102665574D01*
X142226552Y-102470894D01*
X142505702Y-102515624D01*
X142764401Y-102697941D01*
X142867963Y-103072859D01*
X142840329Y-103778627D01*
X142796636Y-104195733D01*
X142677068Y-105123141D01*
X142553252Y-105889817D01*
X142486262Y-106198287D01*
X142489799Y-106571311D01*
X142691031Y-106582946D01*
X142961399Y-106294043D01*
X143342991Y-105644919D01*
X143754593Y-104774260D01*
X143766383Y-104746576D01*
X144126300Y-103960865D01*
X143429794Y-103960865D01*
X143387777Y-104340429D01*
X143294937Y-104295075D01*
X143259623Y-103747680D01*
X143294937Y-103626654D01*
X143392524Y-103593067D01*
X143429794Y-103960865D01*
X144126300Y-103960865D01*
X144195248Y-103810351D01*
X144539009Y-103280801D01*
X144877831Y-103056043D01*
X145120883Y-103025075D01*
X145455060Y-103058413D01*
X145635754Y-103238701D01*
X145702060Y-103686355D01*
X146716631Y-103686355D01*
X146690392Y-103549832D01*
X146525792Y-103225602D01*
X145983394Y-102784194D01*
X145242957Y-102607948D01*
X144518822Y-102708336D01*
X144028163Y-103091918D01*
X143812094Y-103338503D01*
X143747509Y-103244699D01*
X143521827Y-102733382D01*
X142994212Y-102326250D01*
X142347085Y-102096606D01*
X141762872Y-102117755D01*
G37*
X141762872Y-102117755D02*
X141480824Y-102333876D01*
X141391928Y-102687222D01*
X141270103Y-103450658D01*
X141133227Y-104501958D01*
X141031162Y-105408502D01*
X140904352Y-106760327D01*
X140862123Y-107679309D01*
X140905491Y-108260772D01*
X141035471Y-108600040D01*
X141065602Y-108639701D01*
X141493309Y-108883493D01*
X142160828Y-109019218D01*
X142882424Y-109042239D01*
X143472362Y-108947919D01*
X143744909Y-108731622D01*
X143747509Y-108706654D01*
X143855620Y-108620301D01*
X144028163Y-108840339D01*
X144545296Y-109215431D01*
X145218096Y-109308233D01*
X145880555Y-109233076D01*
X146190854Y-108942547D01*
X146262641Y-108706654D01*
X146355379Y-108159710D01*
X146478947Y-107302970D01*
X146093571Y-107302970D01*
X146064671Y-107759588D01*
X145980973Y-107799790D01*
X145970317Y-107775953D01*
X145917426Y-107245177D01*
X145960410Y-106973848D01*
X146045518Y-106864815D01*
X146091808Y-107219941D01*
X146093571Y-107302970D01*
X146478947Y-107302970D01*
X146485363Y-107258492D01*
X146627345Y-106179801D01*
X146653996Y-105966128D01*
X146774312Y-104820079D01*
X146780006Y-104517598D01*
X146476737Y-104517598D01*
X146458887Y-104762970D01*
X146371654Y-105432361D01*
X146277666Y-105804984D01*
X146251295Y-105832444D01*
X146185132Y-105594959D01*
X146148366Y-105001778D01*
X146145694Y-104762970D01*
X146191762Y-104093094D01*
X146306837Y-103720667D01*
X146353286Y-103693496D01*
X146460403Y-103928929D01*
X146476737Y-104517598D01*
X146780006Y-104517598D01*
X146788605Y-104060840D01*
X146716631Y-103686355D01*
X145702060Y-103686355D01*
X145693069Y-104521789D01*
X145685095Y-104762970D01*
X145609344Y-106243330D01*
X145489049Y-107259944D01*
X145306235Y-107883139D01*
X145042927Y-108183247D01*
X144796737Y-108238760D01*
X144370125Y-108096443D01*
X144275606Y-107904549D01*
X144344380Y-107443855D01*
X144383074Y-107278941D01*
X143938156Y-107278941D01*
X143911406Y-107559615D01*
X143710098Y-108024064D01*
X143461074Y-108414364D01*
X143334651Y-108506128D01*
X143343637Y-108298493D01*
X143521173Y-107836577D01*
X143775945Y-107388054D01*
X143938156Y-107278941D01*
X144383074Y-107278941D01*
X144512642Y-106726732D01*
X144559943Y-106551769D01*
X144753040Y-105671398D01*
X144727564Y-105271209D01*
X144508623Y-105355394D01*
X144121320Y-105928148D01*
X143854988Y-106434023D01*
X143397214Y-107290678D01*
X143030838Y-107758884D01*
X142650334Y-107947350D01*
X142362618Y-107971391D01*
X141760598Y-107875128D01*
X141452784Y-107681431D01*
X141388855Y-107282295D01*
X141387600Y-106511857D01*
X141436745Y-105528276D01*
X141524013Y-104489707D01*
X141637127Y-103554309D01*
X141763812Y-102880238D01*
X141842119Y-102665574D01*
X142226552Y-102470894D01*
X142505702Y-102515624D01*
X142764401Y-102697941D01*
X142867963Y-103072859D01*
X142840329Y-103778627D01*
X142796636Y-104195733D01*
X142677068Y-105123141D01*
X142553252Y-105889817D01*
X142486262Y-106198287D01*
X142489799Y-106571311D01*
X142691031Y-106582946D01*
X142961399Y-106294043D01*
X143342991Y-105644919D01*
X143754593Y-104774260D01*
X143766383Y-104746576D01*
X144126300Y-103960865D01*
X143429794Y-103960865D01*
X143387777Y-104340429D01*
X143294937Y-104295075D01*
X143259623Y-103747680D01*
X143294937Y-103626654D01*
X143392524Y-103593067D01*
X143429794Y-103960865D01*
X144126300Y-103960865D01*
X144195248Y-103810351D01*
X144539009Y-103280801D01*
X144877831Y-103056043D01*
X145120883Y-103025075D01*
X145455060Y-103058413D01*
X145635754Y-103238701D01*
X145702060Y-103686355D01*
X146716631Y-103686355D01*
X146690392Y-103549832D01*
X146525792Y-103225602D01*
X145983394Y-102784194D01*
X145242957Y-102607948D01*
X144518822Y-102708336D01*
X144028163Y-103091918D01*
X143812094Y-103338503D01*
X143747509Y-103244699D01*
X143521827Y-102733382D01*
X142994212Y-102326250D01*
X142347085Y-102096606D01*
X141762872Y-102117755D01*
G36*
X149118505Y-102072290D02*
G01*
X148383687Y-102744027D01*
X147775078Y-103873475D01*
X147483267Y-104760255D01*
X147355604Y-105964595D01*
X147584896Y-107072096D01*
X148099176Y-108002503D01*
X148826478Y-108675561D01*
X149694835Y-109011014D01*
X150632283Y-108928606D01*
X151050219Y-108738061D01*
X151654860Y-108106293D01*
X152065353Y-107117010D01*
X152224425Y-106123960D01*
X151974943Y-106123960D01*
X151939198Y-106501871D01*
X151726927Y-107101225D01*
X151430645Y-107718963D01*
X151142863Y-108152025D01*
X151011444Y-108238760D01*
X150975622Y-108026664D01*
X151151862Y-107485561D01*
X151332011Y-107084634D01*
X151669834Y-106456732D01*
X151910813Y-106129710D01*
X151974943Y-106123960D01*
X152224425Y-106123960D01*
X152257123Y-105919835D01*
X152228361Y-105219089D01*
X151500358Y-105219089D01*
X151326469Y-106219794D01*
X150958961Y-107090394D01*
X150445410Y-107755313D01*
X149833396Y-108138977D01*
X149170497Y-108165812D01*
X148504289Y-107760241D01*
X148304047Y-107534282D01*
X147837549Y-106523369D01*
X147815024Y-105294244D01*
X148235509Y-103925296D01*
X148351483Y-103683307D01*
X148789797Y-102931973D01*
X149217128Y-102552738D01*
X149788791Y-102409481D01*
X149806964Y-102407679D01*
X150452960Y-102433386D01*
X150863261Y-102764582D01*
X151076964Y-103129664D01*
X151433049Y-104163854D01*
X151500358Y-105219089D01*
X152228361Y-105219089D01*
X152205593Y-104664389D01*
X151903737Y-103541602D01*
X151385418Y-102781847D01*
X150636692Y-102226222D01*
X149823129Y-101962071D01*
X149118505Y-102072290D01*
G37*
X149118505Y-102072290D02*
X148383687Y-102744027D01*
X147775078Y-103873475D01*
X147483267Y-104760255D01*
X147355604Y-105964595D01*
X147584896Y-107072096D01*
X148099176Y-108002503D01*
X148826478Y-108675561D01*
X149694835Y-109011014D01*
X150632283Y-108928606D01*
X151050219Y-108738061D01*
X151654860Y-108106293D01*
X152065353Y-107117010D01*
X152224425Y-106123960D01*
X151974943Y-106123960D01*
X151939198Y-106501871D01*
X151726927Y-107101225D01*
X151430645Y-107718963D01*
X151142863Y-108152025D01*
X151011444Y-108238760D01*
X150975622Y-108026664D01*
X151151862Y-107485561D01*
X151332011Y-107084634D01*
X151669834Y-106456732D01*
X151910813Y-106129710D01*
X151974943Y-106123960D01*
X152224425Y-106123960D01*
X152257123Y-105919835D01*
X152228361Y-105219089D01*
X151500358Y-105219089D01*
X151326469Y-106219794D01*
X150958961Y-107090394D01*
X150445410Y-107755313D01*
X149833396Y-108138977D01*
X149170497Y-108165812D01*
X148504289Y-107760241D01*
X148304047Y-107534282D01*
X147837549Y-106523369D01*
X147815024Y-105294244D01*
X148235509Y-103925296D01*
X148351483Y-103683307D01*
X148789797Y-102931973D01*
X149217128Y-102552738D01*
X149788791Y-102409481D01*
X149806964Y-102407679D01*
X150452960Y-102433386D01*
X150863261Y-102764582D01*
X151076964Y-103129664D01*
X151433049Y-104163854D01*
X151500358Y-105219089D01*
X152228361Y-105219089D01*
X152205593Y-104664389D01*
X151903737Y-103541602D01*
X151385418Y-102781847D01*
X150636692Y-102226222D01*
X149823129Y-101962071D01*
X149118505Y-102072290D01*
G36*
X154904199Y-102941293D02*
G01*
X154189858Y-103149133D01*
X153944974Y-103512863D01*
X154063339Y-104121254D01*
X154511366Y-104688966D01*
X155109633Y-105011697D01*
X155277659Y-105030339D01*
X155601684Y-104925726D01*
X155745382Y-104523680D01*
X155758415Y-104228233D01*
X155461373Y-104228233D01*
X155419355Y-104607798D01*
X155326516Y-104562444D01*
X155296331Y-104094549D01*
X154968852Y-104094549D01*
X154824481Y-104450355D01*
X154701483Y-104495602D01*
X154464280Y-104279045D01*
X154434115Y-104094549D01*
X154578486Y-103738743D01*
X154701483Y-103693496D01*
X154938687Y-103910053D01*
X154968852Y-104094549D01*
X155296331Y-104094549D01*
X155291202Y-104015048D01*
X155326516Y-103894023D01*
X155424103Y-103860435D01*
X155461373Y-104228233D01*
X155758415Y-104228233D01*
X155770957Y-103943925D01*
X155746104Y-103254910D01*
X155590357Y-102959685D01*
X155181936Y-102917378D01*
X154904199Y-102941293D01*
G37*
X154904199Y-102941293D02*
X154189858Y-103149133D01*
X153944974Y-103512863D01*
X154063339Y-104121254D01*
X154511366Y-104688966D01*
X155109633Y-105011697D01*
X155277659Y-105030339D01*
X155601684Y-104925726D01*
X155745382Y-104523680D01*
X155758415Y-104228233D01*
X155461373Y-104228233D01*
X155419355Y-104607798D01*
X155326516Y-104562444D01*
X155296331Y-104094549D01*
X154968852Y-104094549D01*
X154824481Y-104450355D01*
X154701483Y-104495602D01*
X154464280Y-104279045D01*
X154434115Y-104094549D01*
X154578486Y-103738743D01*
X154701483Y-103693496D01*
X154938687Y-103910053D01*
X154968852Y-104094549D01*
X155296331Y-104094549D01*
X155291202Y-104015048D01*
X155326516Y-103894023D01*
X155424103Y-103860435D01*
X155461373Y-104228233D01*
X155758415Y-104228233D01*
X155770957Y-103943925D01*
X155746104Y-103254910D01*
X155590357Y-102959685D01*
X155181936Y-102917378D01*
X154904199Y-102941293D01*
G36*
X172155817Y-103312526D02*
G01*
X171672293Y-103678476D01*
X171545694Y-103995241D01*
X171763182Y-104411349D01*
X172264186Y-104812530D01*
X172821518Y-105025354D01*
X172901634Y-105030339D01*
X173258826Y-104917775D01*
X173402143Y-104488495D01*
X173406398Y-104377697D01*
X172615168Y-104377697D01*
X172485550Y-104654438D01*
X172347799Y-104629286D01*
X172090630Y-104287467D01*
X172080431Y-104212454D01*
X172284364Y-103968066D01*
X172347799Y-103960865D01*
X172582445Y-104178493D01*
X172615168Y-104377697D01*
X173406398Y-104377697D01*
X173417273Y-104094549D01*
X173378503Y-103629574D01*
X172766573Y-103629574D01*
X172503764Y-103672388D01*
X172156983Y-103623231D01*
X172152843Y-103531961D01*
X172510686Y-103468136D01*
X172665299Y-103510853D01*
X172766573Y-103629574D01*
X173378503Y-103629574D01*
X173364232Y-103458427D01*
X173137922Y-103198747D01*
X172802326Y-103158760D01*
X172155817Y-103312526D01*
G37*
X172155817Y-103312526D02*
X171672293Y-103678476D01*
X171545694Y-103995241D01*
X171763182Y-104411349D01*
X172264186Y-104812530D01*
X172821518Y-105025354D01*
X172901634Y-105030339D01*
X173258826Y-104917775D01*
X173402143Y-104488495D01*
X173406398Y-104377697D01*
X172615168Y-104377697D01*
X172485550Y-104654438D01*
X172347799Y-104629286D01*
X172090630Y-104287467D01*
X172080431Y-104212454D01*
X172284364Y-103968066D01*
X172347799Y-103960865D01*
X172582445Y-104178493D01*
X172615168Y-104377697D01*
X173406398Y-104377697D01*
X173417273Y-104094549D01*
X173378503Y-103629574D01*
X172766573Y-103629574D01*
X172503764Y-103672388D01*
X172156983Y-103623231D01*
X172152843Y-103531961D01*
X172510686Y-103468136D01*
X172665299Y-103510853D01*
X172766573Y-103629574D01*
X173378503Y-103629574D01*
X173364232Y-103458427D01*
X173137922Y-103198747D01*
X172802326Y-103158760D01*
X172155817Y-103312526D01*
G36*
X149396183Y-103369878D02*
G01*
X148989309Y-103905966D01*
X148695542Y-104664138D01*
X148593571Y-105488983D01*
X148603182Y-105648943D01*
X148841599Y-106318481D01*
X149293287Y-106620151D01*
X149806558Y-106509239D01*
X150153004Y-106105822D01*
X150357513Y-105425996D01*
X150392168Y-104615256D01*
X150356340Y-104379442D01*
X150098351Y-104379442D01*
X150061189Y-105026155D01*
X149871934Y-105716284D01*
X149648151Y-106235744D01*
X149497215Y-106295239D01*
X149463537Y-106233496D01*
X149086747Y-106233496D01*
X148953062Y-106367181D01*
X148819378Y-106233496D01*
X148953062Y-106099812D01*
X149086747Y-106233496D01*
X149463537Y-106233496D01*
X149300144Y-105933949D01*
X149288302Y-105908463D01*
X149166670Y-105346519D01*
X149405784Y-104740621D01*
X149514718Y-104571621D01*
X149856451Y-104101150D01*
X150017443Y-104051064D01*
X150098351Y-104379442D01*
X150356340Y-104379442D01*
X150276949Y-103856913D01*
X150031840Y-103334279D01*
X149837474Y-103211282D01*
X149396183Y-103369878D01*
G37*
X149396183Y-103369878D02*
X148989309Y-103905966D01*
X148695542Y-104664138D01*
X148593571Y-105488983D01*
X148603182Y-105648943D01*
X148841599Y-106318481D01*
X149293287Y-106620151D01*
X149806558Y-106509239D01*
X150153004Y-106105822D01*
X150357513Y-105425996D01*
X150392168Y-104615256D01*
X150356340Y-104379442D01*
X150098351Y-104379442D01*
X150061189Y-105026155D01*
X149871934Y-105716284D01*
X149648151Y-106235744D01*
X149497215Y-106295239D01*
X149463537Y-106233496D01*
X149086747Y-106233496D01*
X148953062Y-106367181D01*
X148819378Y-106233496D01*
X148953062Y-106099812D01*
X149086747Y-106233496D01*
X149463537Y-106233496D01*
X149300144Y-105933949D01*
X149288302Y-105908463D01*
X149166670Y-105346519D01*
X149405784Y-104740621D01*
X149514718Y-104571621D01*
X149856451Y-104101150D01*
X150017443Y-104051064D01*
X150098351Y-104379442D01*
X150356340Y-104379442D01*
X150276949Y-103856913D01*
X150031840Y-103334279D01*
X149837474Y-103211282D01*
X149396183Y-103369878D01*
G36*
X156201371Y-153684637D02*
G01*
X156226560Y-153824847D01*
X156134329Y-154074131D01*
X155928313Y-154064500D01*
X155537667Y-154147075D01*
X155418731Y-154554085D01*
X155572634Y-155021037D01*
X155919399Y-155425195D01*
X156189698Y-155301071D01*
X156373250Y-154716278D01*
X156421513Y-154079409D01*
X156323879Y-153691480D01*
X156201371Y-153684637D01*
G37*
X156201371Y-153684637D02*
X156226560Y-153824847D01*
X156134329Y-154074131D01*
X155928313Y-154064500D01*
X155537667Y-154147075D01*
X155418731Y-154554085D01*
X155572634Y-155021037D01*
X155919399Y-155425195D01*
X156189698Y-155301071D01*
X156373250Y-154716278D01*
X156421513Y-154079409D01*
X156323879Y-153691480D01*
X156201371Y-153684637D01*
G36*
X154191339Y-155128522D02*
G01*
X154285468Y-155354302D01*
X154554839Y-155856815D01*
X154723570Y-155900155D01*
X154739953Y-155855974D01*
X154621230Y-155593107D01*
X154409101Y-155282922D01*
X154163044Y-154977602D01*
X154191339Y-155128522D01*
G37*
X154191339Y-155128522D02*
X154285468Y-155354302D01*
X154554839Y-155856815D01*
X154723570Y-155900155D01*
X154739953Y-155855974D01*
X154621230Y-155593107D01*
X154409101Y-155282922D01*
X154163044Y-154977602D01*
X154191339Y-155128522D01*
G36*
X160124599Y-156440491D02*
G01*
X160097696Y-156521253D01*
X160243744Y-156828013D01*
X160665066Y-157249354D01*
X161179307Y-157623232D01*
X161505511Y-157772272D01*
X161544278Y-157661126D01*
X161265755Y-157283642D01*
X161109001Y-157112427D01*
X160558598Y-156560181D01*
X160262629Y-156355005D01*
X160124599Y-156440491D01*
G37*
X160124599Y-156440491D02*
X160097696Y-156521253D01*
X160243744Y-156828013D01*
X160665066Y-157249354D01*
X161179307Y-157623232D01*
X161505511Y-157772272D01*
X161544278Y-157661126D01*
X161265755Y-157283642D01*
X161109001Y-157112427D01*
X160558598Y-156560181D01*
X160262629Y-156355005D01*
X160124599Y-156440491D01*
G36*
X159457606Y-159254440D02*
G01*
X159451918Y-159417474D01*
X159583645Y-159472746D01*
X159821540Y-159435213D01*
X159801951Y-159346707D01*
X159503741Y-159233675D01*
X159457606Y-159254440D01*
G37*
X159457606Y-159254440D02*
X159451918Y-159417474D01*
X159583645Y-159472746D01*
X159821540Y-159435213D01*
X159801951Y-159346707D01*
X159503741Y-159233675D01*
X159457606Y-159254440D01*
G36*
X160144848Y-159768562D02*
G01*
X160238977Y-159994342D01*
X160508349Y-160496855D01*
X160677079Y-160540195D01*
X160693462Y-160496014D01*
X160574739Y-160233146D01*
X160362610Y-159922962D01*
X160116553Y-159617641D01*
X160144848Y-159768562D01*
G37*
X160144848Y-159768562D02*
X160238977Y-159994342D01*
X160508349Y-160496855D01*
X160677079Y-160540195D01*
X160693462Y-160496014D01*
X160574739Y-160233146D01*
X160362610Y-159922962D01*
X160116553Y-159617641D01*
X160144848Y-159768562D01*
G36*
X157325339Y-159654980D02*
G01*
X157297947Y-159738831D01*
X157377952Y-160201158D01*
X157698719Y-160877093D01*
X158145347Y-161580936D01*
X158602931Y-162126987D01*
X158898196Y-162325078D01*
X158998595Y-162211140D01*
X158804055Y-161865702D01*
X158397013Y-161352151D01*
X158167192Y-161081058D01*
X157918436Y-160660931D01*
X157675242Y-160076202D01*
X157466064Y-159615156D01*
X157325339Y-159654980D01*
G37*
X157325339Y-159654980D02*
X157297947Y-159738831D01*
X157377952Y-160201158D01*
X157698719Y-160877093D01*
X158145347Y-161580936D01*
X158602931Y-162126987D01*
X158898196Y-162325078D01*
X158998595Y-162211140D01*
X158804055Y-161865702D01*
X158397013Y-161352151D01*
X158167192Y-161081058D01*
X157918436Y-160660931D01*
X157675242Y-160076202D01*
X157466064Y-159615156D01*
X157325339Y-159654980D01*
G36*
X180770079Y-139286737D02*
G01*
X179435250Y-138968206D01*
X178405316Y-138809787D01*
X177481365Y-138792377D01*
X176565324Y-138882931D01*
X173449084Y-139573049D01*
X170352300Y-140794199D01*
X169682527Y-141129696D01*
X168707318Y-141613915D01*
X168052129Y-141858272D01*
X167576454Y-141894676D01*
X167139787Y-141755040D01*
X167072300Y-141722534D01*
X166318519Y-141349829D01*
X166768564Y-141969236D01*
X167218608Y-142588644D01*
X166408598Y-143487339D01*
X165878003Y-144167489D01*
X165230243Y-145127387D01*
X164595585Y-146172736D01*
X164527379Y-146293115D01*
X163566733Y-147957485D01*
X162781887Y-149188915D01*
X162120584Y-150038134D01*
X161530570Y-150555870D01*
X160959589Y-150792852D01*
X160355384Y-150799806D01*
X159968873Y-150718363D01*
X158994528Y-150457288D01*
X159504952Y-149120101D01*
X159767015Y-148179192D01*
X159930364Y-147082997D01*
X159988149Y-145991710D01*
X159933518Y-145065523D01*
X159759621Y-144464635D01*
X159707035Y-144394478D01*
X159333857Y-144350717D01*
X158747929Y-144683052D01*
X158024755Y-145317183D01*
X157239832Y-146178813D01*
X156468661Y-147193641D01*
X155829955Y-148209862D01*
X155228422Y-149278803D01*
X154761932Y-148143307D01*
X154453607Y-147273405D01*
X154117458Y-146144343D01*
X153863494Y-145153861D01*
X153626114Y-144206932D01*
X153443889Y-143710493D01*
X153274836Y-143589193D01*
X153085100Y-143756869D01*
X152854801Y-144224547D01*
X152557204Y-145051327D01*
X152249037Y-146076155D01*
X152186568Y-146307982D01*
X151634481Y-148402135D01*
X151523043Y-148115023D01*
X150808002Y-147923429D01*
X150724359Y-147925640D01*
X150410136Y-147520562D01*
X149949903Y-146849836D01*
X149386868Y-146033401D01*
X149035508Y-145607641D01*
X148821509Y-145511400D01*
X148670555Y-145683516D01*
X148632155Y-145765375D01*
X148523682Y-146175288D01*
X148355750Y-147003320D01*
X148146897Y-148138573D01*
X147915662Y-149470147D01*
X147680581Y-150887145D01*
X147460192Y-152278667D01*
X147273033Y-153533814D01*
X147137641Y-154541687D01*
X147085718Y-155016735D01*
X147038314Y-155177020D01*
X146981530Y-154867905D01*
X146945577Y-154425585D01*
X146954486Y-153678505D01*
X147035798Y-152549827D01*
X147176241Y-151185780D01*
X147362545Y-149732594D01*
X147387020Y-149561466D01*
X147578387Y-148207002D01*
X147736990Y-147023017D01*
X147848600Y-146120430D01*
X147898985Y-145610161D01*
X147900413Y-145559729D01*
X147718340Y-145436673D01*
X147228118Y-145637232D01*
X146497493Y-146104697D01*
X145594209Y-146782356D01*
X144586010Y-147613498D01*
X143540643Y-148541412D01*
X142525848Y-149509388D01*
X141609372Y-150460714D01*
X140858959Y-151338679D01*
X140625099Y-151650130D01*
X140136832Y-152324701D01*
X139919112Y-152582337D01*
X139935133Y-152443685D01*
X140148088Y-151929391D01*
X140154720Y-151913980D01*
X140293292Y-151674310D01*
X133898723Y-149960890D01*
X133734994Y-150055419D01*
X133640465Y-149891690D01*
X133804194Y-149797161D01*
X133898723Y-149960890D01*
X140293292Y-151674310D01*
X140759075Y-150868711D01*
X141716824Y-149641037D01*
X142931370Y-148337432D01*
X144306117Y-147064369D01*
X145255635Y-146291562D01*
X146073487Y-145638430D01*
X146665574Y-145116354D01*
X146951427Y-144799050D01*
X146950521Y-144738904D01*
X146531443Y-144738002D01*
X145724211Y-144817683D01*
X144665752Y-144957350D01*
X143492989Y-145136407D01*
X142342848Y-145334255D01*
X141352252Y-145530299D01*
X140789186Y-145665732D01*
X138940071Y-146336571D01*
X137086492Y-147289653D01*
X135473895Y-148395126D01*
X135206134Y-148619387D01*
X134492906Y-149206765D01*
X134125901Y-149441768D01*
X134087511Y-149363905D01*
X134360131Y-149012684D01*
X134926154Y-148427614D01*
X135553248Y-147840447D01*
X137229414Y-146585046D01*
X139195211Y-145610026D01*
X141509070Y-144894756D01*
X144229422Y-144418602D01*
X145658993Y-144272045D01*
X146796098Y-144213550D01*
X147528105Y-144255268D01*
X147794411Y-144393728D01*
X147794458Y-144394466D01*
X148009965Y-144695901D01*
X148436265Y-144840694D01*
X148807683Y-144766752D01*
X148885145Y-144649385D01*
X149044429Y-144665829D01*
X149364686Y-145049540D01*
X149774553Y-145686157D01*
X150202670Y-146461319D01*
X150577677Y-147260666D01*
X150688716Y-147539752D01*
X150808002Y-147923429D01*
X151523043Y-148115023D01*
X151202815Y-147289987D01*
X150805706Y-146427582D01*
X150249814Y-145408018D01*
X149869720Y-144787083D01*
X149385219Y-143918556D01*
X149062786Y-143107951D01*
X148980092Y-142654006D01*
X148931630Y-142165746D01*
X148739717Y-142149127D01*
X148678669Y-142200057D01*
X148347144Y-142691403D01*
X148215061Y-143033858D01*
X148043100Y-143319901D01*
X147645015Y-143516513D01*
X146914824Y-143656653D01*
X145870231Y-143763069D01*
X142525899Y-144214311D01*
X139620017Y-144971284D01*
X137152154Y-146034228D01*
X135121875Y-147403381D01*
X133528750Y-149078981D01*
X132372345Y-151061267D01*
X132287797Y-151259245D01*
X131985316Y-152045891D01*
X131952355Y-152480545D01*
X132265605Y-152651385D01*
X133001762Y-152646586D01*
X133464980Y-152612671D01*
X135313118Y-152709505D01*
X136979512Y-153281291D01*
X138326328Y-154239490D01*
X139409033Y-155269026D01*
X140557035Y-154975606D01*
X142068203Y-154859030D01*
X143646061Y-155239568D01*
X145221650Y-156097089D01*
X145737393Y-156487866D01*
X147063827Y-157568494D01*
X148088286Y-157089065D01*
X148724700Y-156835418D01*
X149280313Y-156776935D01*
X149967385Y-156917757D01*
X150645541Y-157138977D01*
X151842351Y-157648057D01*
X152968471Y-158295752D01*
X153921146Y-159003806D01*
X154597622Y-159693967D01*
X154895147Y-160287979D01*
X154900502Y-160379439D01*
X155003140Y-160936604D01*
X155277202Y-161052744D01*
X155599505Y-160686572D01*
X155628887Y-160623554D01*
X155783293Y-160390087D01*
X155967971Y-160466085D01*
X156251279Y-160917358D01*
X156557826Y-161517881D01*
X157024447Y-162351111D01*
X157539251Y-162946928D01*
X158273671Y-163475205D01*
X158892387Y-163831151D01*
X159768595Y-164317164D01*
X160488528Y-164722176D01*
X160893222Y-164956667D01*
X161192424Y-164943479D01*
X161650512Y-164583089D01*
X162319014Y-163830466D01*
X162641857Y-163428553D01*
X163372352Y-162458654D01*
X163817948Y-161727122D01*
X164057981Y-161080824D01*
X164157527Y-160502994D01*
X164253824Y-159785541D01*
X164388346Y-159498692D01*
X164658388Y-159541588D01*
X164940248Y-159691604D01*
X165413871Y-159890636D01*
X165570150Y-159745768D01*
X165571255Y-159662986D01*
X165364468Y-159198046D01*
X165056515Y-158866758D01*
X164948076Y-158745671D01*
X163392692Y-158328907D01*
X163204329Y-158678880D01*
X163038069Y-158917748D01*
X162127669Y-159999004D01*
X161304685Y-160616542D01*
X160597665Y-160757716D01*
X160035157Y-160409883D01*
X159946646Y-160286961D01*
X159561051Y-159836157D01*
X159308521Y-159675827D01*
X159062645Y-159753014D01*
X159099883Y-160097310D01*
X159374533Y-160554134D01*
X159650096Y-160831125D01*
X160067616Y-161397656D01*
X159955100Y-161942610D01*
X159489185Y-162334066D01*
X159078542Y-162547334D01*
X158777949Y-162537829D01*
X158388326Y-162253093D01*
X158061385Y-161957821D01*
X157475771Y-161185787D01*
X157070273Y-160206976D01*
X156927431Y-159255230D01*
X156975293Y-158880786D01*
X157293060Y-158393572D01*
X157888980Y-157895700D01*
X158017652Y-157816745D01*
X158667524Y-157510118D01*
X159230573Y-157489970D01*
X159980632Y-157747002D01*
X159987446Y-157749865D01*
X160689895Y-157985499D01*
X160948618Y-157933941D01*
X160754485Y-157619565D01*
X160211372Y-157152203D01*
X159701734Y-156639767D01*
X159678426Y-156174704D01*
X160143159Y-155633757D01*
X160233505Y-155556463D01*
X160745212Y-155224188D01*
X161070041Y-155169650D01*
X161098149Y-155375534D01*
X160887850Y-155659600D01*
X160687704Y-155978428D01*
X160785755Y-156323230D01*
X161234079Y-156838417D01*
X161357448Y-156961829D01*
X161944899Y-157617684D01*
X162120073Y-158088028D01*
X161901637Y-158503950D01*
X161613818Y-158762376D01*
X161242014Y-158999576D01*
X160949687Y-158894634D01*
X160639224Y-158554140D01*
X160064876Y-158054383D01*
X159559948Y-157805596D01*
X158873935Y-157866402D01*
X158262599Y-158314591D01*
X157880874Y-159008864D01*
X157824695Y-159388143D01*
X157973479Y-160078505D01*
X158357112Y-160859363D01*
X158853909Y-161532180D01*
X159342184Y-161898423D01*
X159368047Y-161906178D01*
X159740284Y-161864562D01*
X159784384Y-161527809D01*
X159513273Y-161012631D01*
X159233902Y-160694937D01*
X158788159Y-160036629D01*
X158842212Y-159482893D01*
X159387009Y-159095262D01*
X159473459Y-159066347D01*
X159920221Y-159061296D01*
X160376019Y-159410982D01*
X160614206Y-159691862D01*
X161239262Y-160477008D01*
X162242153Y-159358210D01*
X162872997Y-158689937D01*
X163269379Y-158339715D01*
X163392692Y-158328907D01*
X164948076Y-158745671D01*
X164700894Y-158469659D01*
X164716095Y-158078239D01*
X164744103Y-158046010D01*
X163625540Y-157746292D01*
X163389015Y-157545059D01*
X163008587Y-157131434D01*
X162577539Y-156609418D01*
X162189156Y-156083012D01*
X162065380Y-155892461D01*
X162102955Y-155853398D01*
X162428473Y-156132318D01*
X162598404Y-156296814D01*
X163170909Y-156948361D01*
X163597614Y-157577886D01*
X163624876Y-157631131D01*
X163625540Y-157746292D01*
X164744103Y-158046010D01*
X165137991Y-157592764D01*
X165669442Y-157162630D01*
X166411009Y-156734930D01*
X161758478Y-155488288D01*
X161594749Y-155582817D01*
X161500220Y-155419088D01*
X161663949Y-155324559D01*
X161758478Y-155488288D01*
X166411009Y-156734930D01*
X167162105Y-156301736D01*
X168255874Y-155940975D01*
X160113751Y-153759299D01*
X159931579Y-154169086D01*
X159538607Y-154767958D01*
X159000896Y-155445304D01*
X158834445Y-155632808D01*
X158019705Y-156261866D01*
X157011761Y-156683414D01*
X156035137Y-156816624D01*
X155685433Y-156766387D01*
X155033684Y-156476075D01*
X154554081Y-156151571D01*
X154007179Y-155393078D01*
X153867764Y-154468494D01*
X154113231Y-153529485D01*
X154720980Y-152727718D01*
X155105240Y-152452916D01*
X155969841Y-152198809D01*
X156739192Y-152457889D01*
X157364167Y-153210602D01*
X157453131Y-153387549D01*
X157742424Y-153939932D01*
X157973666Y-154096456D01*
X158230894Y-153826360D01*
X158598149Y-153098881D01*
X158671004Y-152941733D01*
X158865389Y-152337530D01*
X158841127Y-151945356D01*
X158830276Y-151932033D01*
X158683253Y-151952559D01*
X158674143Y-152225465D01*
X158671477Y-152559633D01*
X158495941Y-152418590D01*
X158392199Y-152279090D01*
X158210587Y-151838730D01*
X158475427Y-151433587D01*
X158497289Y-151412993D01*
X159040268Y-151059455D01*
X159365004Y-150960164D01*
X159787512Y-151149610D01*
X160125960Y-151679820D01*
X160289023Y-152356865D01*
X160245539Y-152829961D01*
X160127412Y-153076560D01*
X160022742Y-152857670D01*
X159940600Y-152392408D01*
X159745113Y-151736385D01*
X159495234Y-151557225D01*
X159291689Y-151820047D01*
X159235203Y-152489970D01*
X159246557Y-152632759D01*
X159109589Y-153795722D01*
X158476820Y-154797135D01*
X158173997Y-155072453D01*
X157843602Y-155297290D01*
X157670553Y-155202542D01*
X157657868Y-155143676D01*
X157115744Y-154998415D01*
X156948826Y-155594383D01*
X156871367Y-155685459D01*
X156390761Y-155823736D01*
X155816861Y-155623758D01*
X155377382Y-155174941D01*
X155332833Y-155081342D01*
X155206658Y-154332622D01*
X155409149Y-153748377D01*
X155837408Y-153434000D01*
X156388528Y-153494885D01*
X156680363Y-153701192D01*
X157017819Y-154279707D01*
X157115744Y-154998415D01*
X157657868Y-155143676D01*
X157561538Y-154696716D01*
X157525401Y-154436542D01*
X157251263Y-153402081D01*
X156769307Y-152857242D01*
X156072109Y-152795875D01*
X155694411Y-152920809D01*
X154950906Y-153481751D01*
X154655668Y-154277812D01*
X154840464Y-155208747D01*
X154919004Y-155367818D01*
X155535545Y-156029691D01*
X156396852Y-156390179D01*
X157283388Y-156365778D01*
X157418206Y-156318419D01*
X158026075Y-155943962D01*
X158708940Y-155352717D01*
X159295366Y-154711989D01*
X159613917Y-154189079D01*
X159619406Y-154170261D01*
X159869912Y-153743149D01*
X160019066Y-153649209D01*
X160113751Y-153759299D01*
X168255874Y-155940975D01*
X168942856Y-155714386D01*
X170806934Y-155466654D01*
X170934276Y-155463752D01*
X172497811Y-155440189D01*
X172985692Y-154265762D01*
X173490346Y-153372629D01*
X172362660Y-153070467D01*
X172243712Y-153088109D01*
X172146911Y-152874257D01*
X172079762Y-152489478D01*
X163180443Y-150104912D01*
X162914920Y-150528252D01*
X162643815Y-150774391D01*
X162552940Y-150751459D01*
X162644634Y-150466457D01*
X162864804Y-150200285D01*
X163174455Y-149958071D01*
X163180443Y-150104912D01*
X172079762Y-152489478D01*
X172054530Y-152344892D01*
X172069562Y-152161531D01*
X172188510Y-152143889D01*
X172285311Y-152357741D01*
X172377693Y-152887107D01*
X172362660Y-153070467D01*
X173490346Y-153372629D01*
X173852627Y-152731468D01*
X175107614Y-151246519D01*
X176613203Y-149959210D01*
X177513946Y-149380269D01*
X178374718Y-148915041D01*
X179057173Y-148588143D01*
X179428867Y-148462340D01*
X179447425Y-148464020D01*
X179705386Y-148299251D01*
X180204494Y-147810123D01*
X180852063Y-147090013D01*
X181087512Y-146811643D01*
X182461965Y-145391382D01*
X184104115Y-144158049D01*
X184685687Y-143795188D01*
X186859156Y-142488821D01*
X185759052Y-141712811D01*
X183855113Y-141202652D01*
X183691384Y-141297181D01*
X183596855Y-141133452D01*
X183760584Y-141038923D01*
X183855113Y-141202652D01*
X185759052Y-141712811D01*
X185254561Y-141356944D01*
X182974261Y-140745939D01*
X182609349Y-140686745D01*
X182253593Y-140547921D01*
X182321430Y-140469983D01*
X182859314Y-140577550D01*
X182967075Y-140642983D01*
X182974261Y-140745939D01*
X185254561Y-141356944D01*
X185043583Y-141208121D01*
X184120503Y-140592239D01*
X181830301Y-139978581D01*
X179798699Y-139812881D01*
X177393509Y-139744087D01*
X175258848Y-139975515D01*
X173213624Y-140525854D01*
X172058559Y-140955140D01*
X170969815Y-141409212D01*
X170049935Y-141839327D01*
X169401461Y-142196738D01*
X169126932Y-142432701D01*
X169129067Y-142467526D01*
X169419069Y-142557747D01*
X170113857Y-142671625D01*
X171085234Y-142789539D01*
X171515905Y-142832814D01*
X172821032Y-143007766D01*
X174127440Y-143267206D01*
X175182734Y-143560021D01*
X175281744Y-143595432D01*
X176114275Y-143967244D01*
X176996106Y-144459345D01*
X177804714Y-144989322D01*
X178417574Y-145474757D01*
X178712164Y-145833239D01*
X178719214Y-145907639D01*
X178522155Y-145847011D01*
X178084581Y-145507813D01*
X177957353Y-145393587D01*
X177063086Y-144804561D01*
X175764026Y-144254149D01*
X174190093Y-143776051D01*
X172471209Y-143403960D01*
X170737294Y-143171576D01*
X169159135Y-143111623D01*
X168988365Y-143208493D01*
X169029762Y-143531805D01*
X169308638Y-144148253D01*
X169850304Y-145124528D01*
X170058761Y-145482101D01*
X170924368Y-147129764D01*
X171575456Y-148721962D01*
X171859345Y-149702708D01*
X172060105Y-150725554D01*
X172137943Y-151381101D01*
X172105704Y-151632576D01*
X171976232Y-151443206D01*
X171762372Y-150776220D01*
X171644100Y-150318915D01*
X170957552Y-148249662D01*
X169923823Y-146095827D01*
X168974976Y-144545538D01*
X168568150Y-143957863D01*
X168228223Y-143564399D01*
X167908206Y-143401051D01*
X167561107Y-143503723D01*
X167139935Y-143908318D01*
X166597698Y-144650741D01*
X165887408Y-145766896D01*
X164962072Y-147292688D01*
X164607135Y-147882859D01*
X163984403Y-148888402D01*
X163600363Y-149447629D01*
X163447459Y-149588890D01*
X163518139Y-149340533D01*
X163804849Y-148730907D01*
X164300034Y-147788362D01*
X164936966Y-146645007D01*
X165823617Y-145141667D01*
X166580059Y-144019567D01*
X167302993Y-143175740D01*
X168089120Y-142507223D01*
X169035139Y-141911048D01*
X169732612Y-141538622D01*
X172503926Y-140323093D01*
X175124005Y-139603382D01*
X177625701Y-139373258D01*
X179930795Y-139604060D01*
X181830301Y-139978581D01*
X184120503Y-140592239D01*
X184033919Y-140534470D01*
X183142513Y-140057205D01*
X182159220Y-139681843D01*
X180873890Y-139313901D01*
X180770079Y-139286737D01*
G37*
X180770079Y-139286737D02*
X179435250Y-138968206D01*
X178405316Y-138809787D01*
X177481365Y-138792377D01*
X176565324Y-138882931D01*
X173449084Y-139573049D01*
X170352300Y-140794199D01*
X169682527Y-141129696D01*
X168707318Y-141613915D01*
X168052129Y-141858272D01*
X167576454Y-141894676D01*
X167139787Y-141755040D01*
X167072300Y-141722534D01*
X166318519Y-141349829D01*
X166768564Y-141969236D01*
X167218608Y-142588644D01*
X166408598Y-143487339D01*
X165878003Y-144167489D01*
X165230243Y-145127387D01*
X164595585Y-146172736D01*
X164527379Y-146293115D01*
X163566733Y-147957485D01*
X162781887Y-149188915D01*
X162120584Y-150038134D01*
X161530570Y-150555870D01*
X160959589Y-150792852D01*
X160355384Y-150799806D01*
X159968873Y-150718363D01*
X158994528Y-150457288D01*
X159504952Y-149120101D01*
X159767015Y-148179192D01*
X159930364Y-147082997D01*
X159988149Y-145991710D01*
X159933518Y-145065523D01*
X159759621Y-144464635D01*
X159707035Y-144394478D01*
X159333857Y-144350717D01*
X158747929Y-144683052D01*
X158024755Y-145317183D01*
X157239832Y-146178813D01*
X156468661Y-147193641D01*
X155829955Y-148209862D01*
X155228422Y-149278803D01*
X154761932Y-148143307D01*
X154453607Y-147273405D01*
X154117458Y-146144343D01*
X153863494Y-145153861D01*
X153626114Y-144206932D01*
X153443889Y-143710493D01*
X153274836Y-143589193D01*
X153085100Y-143756869D01*
X152854801Y-144224547D01*
X152557204Y-145051327D01*
X152249037Y-146076155D01*
X152186568Y-146307982D01*
X151634481Y-148402135D01*
X151523043Y-148115023D01*
X150808002Y-147923429D01*
X150724359Y-147925640D01*
X150410136Y-147520562D01*
X149949903Y-146849836D01*
X149386868Y-146033401D01*
X149035508Y-145607641D01*
X148821509Y-145511400D01*
X148670555Y-145683516D01*
X148632155Y-145765375D01*
X148523682Y-146175288D01*
X148355750Y-147003320D01*
X148146897Y-148138573D01*
X147915662Y-149470147D01*
X147680581Y-150887145D01*
X147460192Y-152278667D01*
X147273033Y-153533814D01*
X147137641Y-154541687D01*
X147085718Y-155016735D01*
X147038314Y-155177020D01*
X146981530Y-154867905D01*
X146945577Y-154425585D01*
X146954486Y-153678505D01*
X147035798Y-152549827D01*
X147176241Y-151185780D01*
X147362545Y-149732594D01*
X147387020Y-149561466D01*
X147578387Y-148207002D01*
X147736990Y-147023017D01*
X147848600Y-146120430D01*
X147898985Y-145610161D01*
X147900413Y-145559729D01*
X147718340Y-145436673D01*
X147228118Y-145637232D01*
X146497493Y-146104697D01*
X145594209Y-146782356D01*
X144586010Y-147613498D01*
X143540643Y-148541412D01*
X142525848Y-149509388D01*
X141609372Y-150460714D01*
X140858959Y-151338679D01*
X140625099Y-151650130D01*
X140136832Y-152324701D01*
X139919112Y-152582337D01*
X139935133Y-152443685D01*
X140148088Y-151929391D01*
X140154720Y-151913980D01*
X140293292Y-151674310D01*
X133898723Y-149960890D01*
X133734994Y-150055419D01*
X133640465Y-149891690D01*
X133804194Y-149797161D01*
X133898723Y-149960890D01*
X140293292Y-151674310D01*
X140759075Y-150868711D01*
X141716824Y-149641037D01*
X142931370Y-148337432D01*
X144306117Y-147064369D01*
X145255635Y-146291562D01*
X146073487Y-145638430D01*
X146665574Y-145116354D01*
X146951427Y-144799050D01*
X146950521Y-144738904D01*
X146531443Y-144738002D01*
X145724211Y-144817683D01*
X144665752Y-144957350D01*
X143492989Y-145136407D01*
X142342848Y-145334255D01*
X141352252Y-145530299D01*
X140789186Y-145665732D01*
X138940071Y-146336571D01*
X137086492Y-147289653D01*
X135473895Y-148395126D01*
X135206134Y-148619387D01*
X134492906Y-149206765D01*
X134125901Y-149441768D01*
X134087511Y-149363905D01*
X134360131Y-149012684D01*
X134926154Y-148427614D01*
X135553248Y-147840447D01*
X137229414Y-146585046D01*
X139195211Y-145610026D01*
X141509070Y-144894756D01*
X144229422Y-144418602D01*
X145658993Y-144272045D01*
X146796098Y-144213550D01*
X147528105Y-144255268D01*
X147794411Y-144393728D01*
X147794458Y-144394466D01*
X148009965Y-144695901D01*
X148436265Y-144840694D01*
X148807683Y-144766752D01*
X148885145Y-144649385D01*
X149044429Y-144665829D01*
X149364686Y-145049540D01*
X149774553Y-145686157D01*
X150202670Y-146461319D01*
X150577677Y-147260666D01*
X150688716Y-147539752D01*
X150808002Y-147923429D01*
X151523043Y-148115023D01*
X151202815Y-147289987D01*
X150805706Y-146427582D01*
X150249814Y-145408018D01*
X149869720Y-144787083D01*
X149385219Y-143918556D01*
X149062786Y-143107951D01*
X148980092Y-142654006D01*
X148931630Y-142165746D01*
X148739717Y-142149127D01*
X148678669Y-142200057D01*
X148347144Y-142691403D01*
X148215061Y-143033858D01*
X148043100Y-143319901D01*
X147645015Y-143516513D01*
X146914824Y-143656653D01*
X145870231Y-143763069D01*
X142525899Y-144214311D01*
X139620017Y-144971284D01*
X137152154Y-146034228D01*
X135121875Y-147403381D01*
X133528750Y-149078981D01*
X132372345Y-151061267D01*
X132287797Y-151259245D01*
X131985316Y-152045891D01*
X131952355Y-152480545D01*
X132265605Y-152651385D01*
X133001762Y-152646586D01*
X133464980Y-152612671D01*
X135313118Y-152709505D01*
X136979512Y-153281291D01*
X138326328Y-154239490D01*
X139409033Y-155269026D01*
X140557035Y-154975606D01*
X142068203Y-154859030D01*
X143646061Y-155239568D01*
X145221650Y-156097089D01*
X145737393Y-156487866D01*
X147063827Y-157568494D01*
X148088286Y-157089065D01*
X148724700Y-156835418D01*
X149280313Y-156776935D01*
X149967385Y-156917757D01*
X150645541Y-157138977D01*
X151842351Y-157648057D01*
X152968471Y-158295752D01*
X153921146Y-159003806D01*
X154597622Y-159693967D01*
X154895147Y-160287979D01*
X154900502Y-160379439D01*
X155003140Y-160936604D01*
X155277202Y-161052744D01*
X155599505Y-160686572D01*
X155628887Y-160623554D01*
X155783293Y-160390087D01*
X155967971Y-160466085D01*
X156251279Y-160917358D01*
X156557826Y-161517881D01*
X157024447Y-162351111D01*
X157539251Y-162946928D01*
X158273671Y-163475205D01*
X158892387Y-163831151D01*
X159768595Y-164317164D01*
X160488528Y-164722176D01*
X160893222Y-164956667D01*
X161192424Y-164943479D01*
X161650512Y-164583089D01*
X162319014Y-163830466D01*
X162641857Y-163428553D01*
X163372352Y-162458654D01*
X163817948Y-161727122D01*
X164057981Y-161080824D01*
X164157527Y-160502994D01*
X164253824Y-159785541D01*
X164388346Y-159498692D01*
X164658388Y-159541588D01*
X164940248Y-159691604D01*
X165413871Y-159890636D01*
X165570150Y-159745768D01*
X165571255Y-159662986D01*
X165364468Y-159198046D01*
X165056515Y-158866758D01*
X164948076Y-158745671D01*
X163392692Y-158328907D01*
X163204329Y-158678880D01*
X163038069Y-158917748D01*
X162127669Y-159999004D01*
X161304685Y-160616542D01*
X160597665Y-160757716D01*
X160035157Y-160409883D01*
X159946646Y-160286961D01*
X159561051Y-159836157D01*
X159308521Y-159675827D01*
X159062645Y-159753014D01*
X159099883Y-160097310D01*
X159374533Y-160554134D01*
X159650096Y-160831125D01*
X160067616Y-161397656D01*
X159955100Y-161942610D01*
X159489185Y-162334066D01*
X159078542Y-162547334D01*
X158777949Y-162537829D01*
X158388326Y-162253093D01*
X158061385Y-161957821D01*
X157475771Y-161185787D01*
X157070273Y-160206976D01*
X156927431Y-159255230D01*
X156975293Y-158880786D01*
X157293060Y-158393572D01*
X157888980Y-157895700D01*
X158017652Y-157816745D01*
X158667524Y-157510118D01*
X159230573Y-157489970D01*
X159980632Y-157747002D01*
X159987446Y-157749865D01*
X160689895Y-157985499D01*
X160948618Y-157933941D01*
X160754485Y-157619565D01*
X160211372Y-157152203D01*
X159701734Y-156639767D01*
X159678426Y-156174704D01*
X160143159Y-155633757D01*
X160233505Y-155556463D01*
X160745212Y-155224188D01*
X161070041Y-155169650D01*
X161098149Y-155375534D01*
X160887850Y-155659600D01*
X160687704Y-155978428D01*
X160785755Y-156323230D01*
X161234079Y-156838417D01*
X161357448Y-156961829D01*
X161944899Y-157617684D01*
X162120073Y-158088028D01*
X161901637Y-158503950D01*
X161613818Y-158762376D01*
X161242014Y-158999576D01*
X160949687Y-158894634D01*
X160639224Y-158554140D01*
X160064876Y-158054383D01*
X159559948Y-157805596D01*
X158873935Y-157866402D01*
X158262599Y-158314591D01*
X157880874Y-159008864D01*
X157824695Y-159388143D01*
X157973479Y-160078505D01*
X158357112Y-160859363D01*
X158853909Y-161532180D01*
X159342184Y-161898423D01*
X159368047Y-161906178D01*
X159740284Y-161864562D01*
X159784384Y-161527809D01*
X159513273Y-161012631D01*
X159233902Y-160694937D01*
X158788159Y-160036629D01*
X158842212Y-159482893D01*
X159387009Y-159095262D01*
X159473459Y-159066347D01*
X159920221Y-159061296D01*
X160376019Y-159410982D01*
X160614206Y-159691862D01*
X161239262Y-160477008D01*
X162242153Y-159358210D01*
X162872997Y-158689937D01*
X163269379Y-158339715D01*
X163392692Y-158328907D01*
X164948076Y-158745671D01*
X164700894Y-158469659D01*
X164716095Y-158078239D01*
X164744103Y-158046010D01*
X163625540Y-157746292D01*
X163389015Y-157545059D01*
X163008587Y-157131434D01*
X162577539Y-156609418D01*
X162189156Y-156083012D01*
X162065380Y-155892461D01*
X162102955Y-155853398D01*
X162428473Y-156132318D01*
X162598404Y-156296814D01*
X163170909Y-156948361D01*
X163597614Y-157577886D01*
X163624876Y-157631131D01*
X163625540Y-157746292D01*
X164744103Y-158046010D01*
X165137991Y-157592764D01*
X165669442Y-157162630D01*
X166411009Y-156734930D01*
X161758478Y-155488288D01*
X161594749Y-155582817D01*
X161500220Y-155419088D01*
X161663949Y-155324559D01*
X161758478Y-155488288D01*
X166411009Y-156734930D01*
X167162105Y-156301736D01*
X168255874Y-155940975D01*
X160113751Y-153759299D01*
X159931579Y-154169086D01*
X159538607Y-154767958D01*
X159000896Y-155445304D01*
X158834445Y-155632808D01*
X158019705Y-156261866D01*
X157011761Y-156683414D01*
X156035137Y-156816624D01*
X155685433Y-156766387D01*
X155033684Y-156476075D01*
X154554081Y-156151571D01*
X154007179Y-155393078D01*
X153867764Y-154468494D01*
X154113231Y-153529485D01*
X154720980Y-152727718D01*
X155105240Y-152452916D01*
X155969841Y-152198809D01*
X156739192Y-152457889D01*
X157364167Y-153210602D01*
X157453131Y-153387549D01*
X157742424Y-153939932D01*
X157973666Y-154096456D01*
X158230894Y-153826360D01*
X158598149Y-153098881D01*
X158671004Y-152941733D01*
X158865389Y-152337530D01*
X158841127Y-151945356D01*
X158830276Y-151932033D01*
X158683253Y-151952559D01*
X158674143Y-152225465D01*
X158671477Y-152559633D01*
X158495941Y-152418590D01*
X158392199Y-152279090D01*
X158210587Y-151838730D01*
X158475427Y-151433587D01*
X158497289Y-151412993D01*
X159040268Y-151059455D01*
X159365004Y-150960164D01*
X159787512Y-151149610D01*
X160125960Y-151679820D01*
X160289023Y-152356865D01*
X160245539Y-152829961D01*
X160127412Y-153076560D01*
X160022742Y-152857670D01*
X159940600Y-152392408D01*
X159745113Y-151736385D01*
X159495234Y-151557225D01*
X159291689Y-151820047D01*
X159235203Y-152489970D01*
X159246557Y-152632759D01*
X159109589Y-153795722D01*
X158476820Y-154797135D01*
X158173997Y-155072453D01*
X157843602Y-155297290D01*
X157670553Y-155202542D01*
X157657868Y-155143676D01*
X157115744Y-154998415D01*
X156948826Y-155594383D01*
X156871367Y-155685459D01*
X156390761Y-155823736D01*
X155816861Y-155623758D01*
X155377382Y-155174941D01*
X155332833Y-155081342D01*
X155206658Y-154332622D01*
X155409149Y-153748377D01*
X155837408Y-153434000D01*
X156388528Y-153494885D01*
X156680363Y-153701192D01*
X157017819Y-154279707D01*
X157115744Y-154998415D01*
X157657868Y-155143676D01*
X157561538Y-154696716D01*
X157525401Y-154436542D01*
X157251263Y-153402081D01*
X156769307Y-152857242D01*
X156072109Y-152795875D01*
X155694411Y-152920809D01*
X154950906Y-153481751D01*
X154655668Y-154277812D01*
X154840464Y-155208747D01*
X154919004Y-155367818D01*
X155535545Y-156029691D01*
X156396852Y-156390179D01*
X157283388Y-156365778D01*
X157418206Y-156318419D01*
X158026075Y-155943962D01*
X158708940Y-155352717D01*
X159295366Y-154711989D01*
X159613917Y-154189079D01*
X159619406Y-154170261D01*
X159869912Y-153743149D01*
X160019066Y-153649209D01*
X160113751Y-153759299D01*
X168255874Y-155940975D01*
X168942856Y-155714386D01*
X170806934Y-155466654D01*
X170934276Y-155463752D01*
X172497811Y-155440189D01*
X172985692Y-154265762D01*
X173490346Y-153372629D01*
X172362660Y-153070467D01*
X172243712Y-153088109D01*
X172146911Y-152874257D01*
X172079762Y-152489478D01*
X163180443Y-150104912D01*
X162914920Y-150528252D01*
X162643815Y-150774391D01*
X162552940Y-150751459D01*
X162644634Y-150466457D01*
X162864804Y-150200285D01*
X163174455Y-149958071D01*
X163180443Y-150104912D01*
X172079762Y-152489478D01*
X172054530Y-152344892D01*
X172069562Y-152161531D01*
X172188510Y-152143889D01*
X172285311Y-152357741D01*
X172377693Y-152887107D01*
X172362660Y-153070467D01*
X173490346Y-153372629D01*
X173852627Y-152731468D01*
X175107614Y-151246519D01*
X176613203Y-149959210D01*
X177513946Y-149380269D01*
X178374718Y-148915041D01*
X179057173Y-148588143D01*
X179428867Y-148462340D01*
X179447425Y-148464020D01*
X179705386Y-148299251D01*
X180204494Y-147810123D01*
X180852063Y-147090013D01*
X181087512Y-146811643D01*
X182461965Y-145391382D01*
X184104115Y-144158049D01*
X184685687Y-143795188D01*
X186859156Y-142488821D01*
X185759052Y-141712811D01*
X183855113Y-141202652D01*
X183691384Y-141297181D01*
X183596855Y-141133452D01*
X183760584Y-141038923D01*
X183855113Y-141202652D01*
X185759052Y-141712811D01*
X185254561Y-141356944D01*
X182974261Y-140745939D01*
X182609349Y-140686745D01*
X182253593Y-140547921D01*
X182321430Y-140469983D01*
X182859314Y-140577550D01*
X182967075Y-140642983D01*
X182974261Y-140745939D01*
X185254561Y-141356944D01*
X185043583Y-141208121D01*
X184120503Y-140592239D01*
X181830301Y-139978581D01*
X179798699Y-139812881D01*
X177393509Y-139744087D01*
X175258848Y-139975515D01*
X173213624Y-140525854D01*
X172058559Y-140955140D01*
X170969815Y-141409212D01*
X170049935Y-141839327D01*
X169401461Y-142196738D01*
X169126932Y-142432701D01*
X169129067Y-142467526D01*
X169419069Y-142557747D01*
X170113857Y-142671625D01*
X171085234Y-142789539D01*
X171515905Y-142832814D01*
X172821032Y-143007766D01*
X174127440Y-143267206D01*
X175182734Y-143560021D01*
X175281744Y-143595432D01*
X176114275Y-143967244D01*
X176996106Y-144459345D01*
X177804714Y-144989322D01*
X178417574Y-145474757D01*
X178712164Y-145833239D01*
X178719214Y-145907639D01*
X178522155Y-145847011D01*
X178084581Y-145507813D01*
X177957353Y-145393587D01*
X177063086Y-144804561D01*
X175764026Y-144254149D01*
X174190093Y-143776051D01*
X172471209Y-143403960D01*
X170737294Y-143171576D01*
X169159135Y-143111623D01*
X168988365Y-143208493D01*
X169029762Y-143531805D01*
X169308638Y-144148253D01*
X169850304Y-145124528D01*
X170058761Y-145482101D01*
X170924368Y-147129764D01*
X171575456Y-148721962D01*
X171859345Y-149702708D01*
X172060105Y-150725554D01*
X172137943Y-151381101D01*
X172105704Y-151632576D01*
X171976232Y-151443206D01*
X171762372Y-150776220D01*
X171644100Y-150318915D01*
X170957552Y-148249662D01*
X169923823Y-146095827D01*
X168974976Y-144545538D01*
X168568150Y-143957863D01*
X168228223Y-143564399D01*
X167908206Y-143401051D01*
X167561107Y-143503723D01*
X167139935Y-143908318D01*
X166597698Y-144650741D01*
X165887408Y-145766896D01*
X164962072Y-147292688D01*
X164607135Y-147882859D01*
X163984403Y-148888402D01*
X163600363Y-149447629D01*
X163447459Y-149588890D01*
X163518139Y-149340533D01*
X163804849Y-148730907D01*
X164300034Y-147788362D01*
X164936966Y-146645007D01*
X165823617Y-145141667D01*
X166580059Y-144019567D01*
X167302993Y-143175740D01*
X168089120Y-142507223D01*
X169035139Y-141911048D01*
X169732612Y-141538622D01*
X172503926Y-140323093D01*
X175124005Y-139603382D01*
X177625701Y-139373258D01*
X179930795Y-139604060D01*
X181830301Y-139978581D01*
X184120503Y-140592239D01*
X184033919Y-140534470D01*
X183142513Y-140057205D01*
X182159220Y-139681843D01*
X180873890Y-139313901D01*
X180770079Y-139286737D01*
D11*
%TO.C,D5*%
X243227566Y-128253903D02*
X241063892Y-128833658D01*
X241063892Y-128833658D02*
X239966499Y-124738132D01*
X239966499Y-124738132D02*
X242130173Y-124158378D01*
X242130173Y-124158378D02*
X243227566Y-128253903D01*
X242313961Y-129171632D02*
X242145729Y-128543780D01*
X240880104Y-123820403D02*
X241048336Y-124448255D01*
X243041216Y-127558436D02*
X240877542Y-128138191D01*
X243010158Y-127442525D02*
X240846484Y-128022280D01*
X243072274Y-127674348D02*
X240908600Y-128254102D01*
%TO.C,D10*%
X246785045Y-126679508D02*
X244621371Y-127259262D01*
X246722929Y-126447685D02*
X244559255Y-127027440D01*
X246753987Y-126563596D02*
X244590313Y-127143351D01*
X244592875Y-122825563D02*
X244761107Y-123453415D01*
X246026732Y-128176792D02*
X245858500Y-127548940D01*
X245842944Y-123163538D02*
X246940337Y-127259063D01*
X243679270Y-123743292D02*
X245842944Y-123163538D01*
X244776663Y-127838818D02*
X243679270Y-123743292D01*
X246940337Y-127259063D02*
X244776663Y-127838818D01*
%TO.C,D15*%
X250743671Y-126239965D02*
X248579997Y-126819720D01*
X248579997Y-126819720D02*
X247482604Y-122724194D01*
X247482604Y-122724194D02*
X249646278Y-122144440D01*
X249646278Y-122144440D02*
X250743671Y-126239965D01*
X249830066Y-127157694D02*
X249661834Y-126529842D01*
X248396209Y-121806465D02*
X248564441Y-122434317D01*
X250557321Y-125544498D02*
X248393647Y-126124253D01*
X250526263Y-125428587D02*
X248362589Y-126008342D01*
X250588379Y-125660410D02*
X248424705Y-126240164D01*
%TO.C,D20*%
X254482271Y-124617047D02*
X252318597Y-125196801D01*
X254420155Y-124385224D02*
X252256481Y-124964979D01*
X254451213Y-124501135D02*
X252287539Y-125080890D01*
X252290101Y-120763102D02*
X252458333Y-121390954D01*
X253723958Y-126114331D02*
X253555726Y-125486479D01*
X253540170Y-121101077D02*
X254637563Y-125196602D01*
X251376496Y-121680831D02*
X253540170Y-121101077D01*
X252473889Y-125776357D02*
X251376496Y-121680831D01*
X254637563Y-125196602D02*
X252473889Y-125776357D01*
%TO.C,D41*%
X68541109Y-126793649D02*
X66377435Y-126213895D01*
X68603225Y-126561827D02*
X66439551Y-125982072D01*
X68572167Y-126677738D02*
X66408493Y-126097983D01*
X68569605Y-122359950D02*
X68401373Y-122987802D01*
X67135748Y-127711179D02*
X67303980Y-127083327D01*
X69483210Y-123277679D02*
X68385817Y-127373205D01*
X67319536Y-122697925D02*
X69483210Y-123277679D01*
X66222143Y-126793450D02*
X67319536Y-122697925D01*
X68385817Y-127373205D02*
X66222143Y-126793450D01*
%TO.C,D46*%
X72098595Y-128368044D02*
X69934921Y-127788289D01*
X69934921Y-127788289D02*
X71032314Y-123692764D01*
X71032314Y-123692764D02*
X73195988Y-124272518D01*
X73195988Y-124272518D02*
X72098595Y-128368044D01*
X70848526Y-128706018D02*
X71016758Y-128078166D01*
X72282383Y-123354789D02*
X72114151Y-123982641D01*
X72284945Y-127672577D02*
X70121271Y-127092822D01*
X72316003Y-127556666D02*
X70152329Y-126976911D01*
X72253887Y-127788488D02*
X70090213Y-127208734D01*
%TO.C,D51*%
X75966670Y-128783322D02*
X73802996Y-128203568D01*
X76028786Y-128551500D02*
X73865112Y-127971745D01*
X75997728Y-128667411D02*
X73834054Y-128087656D01*
X75995166Y-124349623D02*
X75826934Y-124977475D01*
X74561309Y-129700852D02*
X74729541Y-129073000D01*
X76908771Y-125267352D02*
X75811378Y-129362878D01*
X74745097Y-124687598D02*
X76908771Y-125267352D01*
X73647704Y-128783123D02*
X74745097Y-124687598D01*
X75811378Y-129362878D02*
X73647704Y-128783123D01*
%TO.C,D56*%
X79679443Y-129778159D02*
X77515769Y-129198405D01*
X79741559Y-129546337D02*
X77577885Y-128966582D01*
X79710501Y-129662248D02*
X77546827Y-129082493D01*
X79707939Y-125344460D02*
X79539707Y-125972312D01*
X78274082Y-130695689D02*
X78442314Y-130067837D01*
X80621544Y-126262189D02*
X79524151Y-130357715D01*
X78457870Y-125682435D02*
X80621544Y-126262189D01*
X77360477Y-129777960D02*
X78457870Y-125682435D01*
X79524151Y-130357715D02*
X77360477Y-129777960D01*
%TD*%
D12*
%TO.C,U1*%
X149417810Y-114077869D02*
X149417810Y-115730469D01*
X151070410Y-115730469D01*
X151070410Y-114077869D01*
X149417810Y-114077869D01*
X151070410Y-117444169D02*
G75*
G03*
X151070410Y-117444169I-826300J0D01*
G01*
X151070410Y-119984169D02*
G75*
G03*
X151070410Y-119984169I-826300J0D01*
G01*
X151070410Y-122524169D02*
G75*
G03*
X151070410Y-122524169I-826300J0D01*
G01*
X151070410Y-125064169D02*
G75*
G03*
X151070410Y-125064169I-826300J0D01*
G01*
X151070410Y-127604169D02*
G75*
G03*
X151070410Y-127604169I-826300J0D01*
G01*
X151070410Y-130144169D02*
G75*
G03*
X151070410Y-130144169I-826300J0D01*
G01*
X151070410Y-132684169D02*
G75*
G03*
X151070410Y-132684169I-826300J0D01*
G01*
X151070410Y-135224169D02*
G75*
G03*
X151070410Y-135224169I-826300J0D01*
G01*
X151070410Y-137764169D02*
G75*
G03*
X151070410Y-137764169I-826300J0D01*
G01*
X151070410Y-140304169D02*
G75*
G03*
X151070410Y-140304169I-826300J0D01*
G01*
X151070410Y-142844169D02*
G75*
G03*
X151070410Y-142844169I-826300J0D01*
G01*
X166310410Y-142844169D02*
G75*
G03*
X166310410Y-142844169I-826300J0D01*
G01*
X166310410Y-140304169D02*
G75*
G03*
X166310410Y-140304169I-826300J0D01*
G01*
X166310410Y-137764169D02*
G75*
G03*
X166310410Y-137764169I-826300J0D01*
G01*
X166310410Y-135224169D02*
G75*
G03*
X166310410Y-135224169I-826300J0D01*
G01*
X166310410Y-132684169D02*
G75*
G03*
X166310410Y-132684169I-826300J0D01*
G01*
X166310410Y-130144169D02*
G75*
G03*
X166310410Y-130144169I-826300J0D01*
G01*
X166310410Y-127604169D02*
G75*
G03*
X166310410Y-127604169I-826300J0D01*
G01*
X166310410Y-125064169D02*
G75*
G03*
X166310410Y-125064169I-826300J0D01*
G01*
X166310410Y-122524169D02*
G75*
G03*
X166310410Y-122524169I-826300J0D01*
G01*
X166310410Y-119984169D02*
G75*
G03*
X166310410Y-119984169I-826300J0D01*
G01*
X166310410Y-117444169D02*
G75*
G03*
X166310410Y-117444169I-826300J0D01*
G01*
X166310410Y-114904169D02*
G75*
G03*
X166310410Y-114904169I-826300J0D01*
G01*
%TD*%
%TO.C,SW26*%
D13*
X188691451Y-93816940D02*
X188565787Y-93899911D01*
X188335804Y-93961534D01*
X188231487Y-93940187D01*
X188173166Y-93906516D01*
X188102520Y-93826847D01*
X188077870Y-93734855D01*
X188099217Y-93630537D01*
X188132889Y-93572216D01*
X188212557Y-93501570D01*
X188384218Y-93406274D01*
X188463887Y-93335629D01*
X188497558Y-93277307D01*
X188518905Y-93172990D01*
X188494256Y-93080997D01*
X188423610Y-93001329D01*
X188365289Y-92967657D01*
X188260971Y-92946310D01*
X188030989Y-93007933D01*
X187905324Y-93090904D01*
X187571024Y-93131181D02*
X187599861Y-94158730D01*
X187231004Y-93518082D01*
X187231889Y-94257328D01*
X186743088Y-93353025D01*
X186445762Y-93531291D02*
X186387441Y-93497620D01*
X186283123Y-93476273D01*
X186053141Y-93537896D01*
X185973472Y-93608542D01*
X185939801Y-93666863D01*
X185918454Y-93771181D01*
X185943103Y-93863174D01*
X186026074Y-93988839D01*
X186725928Y-94392900D01*
X186127974Y-94553121D01*
X185041218Y-93809040D02*
X185225204Y-93759741D01*
X185329522Y-93781088D01*
X185387843Y-93814760D01*
X185516810Y-93928100D01*
X185612106Y-94099761D01*
X185710703Y-94467733D01*
X185689356Y-94572050D01*
X185655684Y-94630372D01*
X185576016Y-94701017D01*
X185392030Y-94750316D01*
X185287713Y-94728969D01*
X185229392Y-94695298D01*
X185158746Y-94615629D01*
X185097122Y-94385647D01*
X185118469Y-94281329D01*
X185152141Y-94223008D01*
X185231809Y-94152362D01*
X185415795Y-94103063D01*
X185520113Y-94124410D01*
X185578434Y-94158082D01*
X185649080Y-94237750D01*
%TO.C,SW3*%
X286668992Y-93190187D02*
X286543327Y-93273158D01*
X286313345Y-93334782D01*
X286209027Y-93313435D01*
X286150706Y-93279763D01*
X286080060Y-93200095D01*
X286055410Y-93108102D01*
X286076758Y-93003784D01*
X286110429Y-92945463D01*
X286190098Y-92874817D01*
X286361759Y-92779522D01*
X286441427Y-92708876D01*
X286475099Y-92650555D01*
X286496446Y-92546237D01*
X286471796Y-92454244D01*
X286401150Y-92374576D01*
X286342829Y-92340904D01*
X286238511Y-92319557D01*
X286008529Y-92381181D01*
X285882864Y-92464151D01*
X285548564Y-92504428D02*
X285577401Y-93531977D01*
X285208545Y-92891329D01*
X285209429Y-93630575D01*
X284720628Y-92726273D01*
X284444649Y-92800221D02*
X283846695Y-92960442D01*
X284267268Y-93242141D01*
X284129279Y-93279115D01*
X284049611Y-93349761D01*
X284015939Y-93408082D01*
X283994592Y-93512400D01*
X284056215Y-93742382D01*
X284126861Y-93822050D01*
X284185182Y-93855722D01*
X284289500Y-93877069D01*
X284565479Y-93803121D01*
X284645147Y-93732475D01*
X284678819Y-93674154D01*
%TO.C,SW11*%
X238003950Y-56973193D02*
X237878286Y-57056164D01*
X237648303Y-57117787D01*
X237543986Y-57096440D01*
X237485665Y-57062769D01*
X237415019Y-56983100D01*
X237390369Y-56891108D01*
X237411716Y-56786790D01*
X237445388Y-56728469D01*
X237525056Y-56657823D01*
X237696717Y-56562527D01*
X237776386Y-56491882D01*
X237810057Y-56433560D01*
X237831404Y-56329243D01*
X237806755Y-56237250D01*
X237736109Y-56157582D01*
X237677788Y-56123910D01*
X237573470Y-56102563D01*
X237343488Y-56164186D01*
X237217823Y-56247157D01*
X236883523Y-56287434D02*
X236912360Y-57314983D01*
X236543503Y-56674335D01*
X236544388Y-57413581D01*
X236055587Y-56509278D01*
X235440473Y-57709374D02*
X235992430Y-57561477D01*
X235716452Y-57635426D02*
X235457633Y-56669500D01*
X235586600Y-56782840D01*
X235703242Y-56850183D01*
X235807560Y-56871530D01*
X234520544Y-57955868D02*
X235072501Y-57807972D01*
X234796522Y-57881920D02*
X234537703Y-56915994D01*
X234666670Y-57029334D01*
X234783313Y-57096678D01*
X234887630Y-57118025D01*
%TO.C,SW1*%
X276825233Y-56440186D02*
X276699568Y-56523157D01*
X276469586Y-56584781D01*
X276365268Y-56563434D01*
X276306947Y-56529762D01*
X276236301Y-56450094D01*
X276211651Y-56358101D01*
X276232999Y-56253783D01*
X276266670Y-56195462D01*
X276346339Y-56124816D01*
X276518000Y-56029521D01*
X276597668Y-55958875D01*
X276631340Y-55900554D01*
X276652687Y-55796236D01*
X276628037Y-55704243D01*
X276557391Y-55624575D01*
X276499070Y-55590903D01*
X276394752Y-55569556D01*
X276164770Y-55631180D01*
X276039105Y-55714150D01*
X275704805Y-55754427D02*
X275733642Y-56781976D01*
X275364786Y-56141328D01*
X275365670Y-56880574D01*
X274876869Y-55976272D01*
X274261755Y-57176367D02*
X274813713Y-57028470D01*
X274537734Y-57102419D02*
X274278915Y-56136493D01*
X274407882Y-56249833D01*
X274524524Y-56317176D01*
X274628842Y-56338523D01*
%TO.C,SW17*%
X223566450Y-76566942D02*
X223440786Y-76649913D01*
X223210803Y-76711536D01*
X223106486Y-76690189D01*
X223048165Y-76656518D01*
X222977519Y-76576849D01*
X222952869Y-76484857D01*
X222974216Y-76380539D01*
X223007888Y-76322218D01*
X223087556Y-76251572D01*
X223259217Y-76156276D01*
X223338886Y-76085631D01*
X223372557Y-76027309D01*
X223393904Y-75922992D01*
X223369255Y-75830999D01*
X223298609Y-75751331D01*
X223240288Y-75717659D01*
X223135970Y-75696312D01*
X222905988Y-75757935D01*
X222780323Y-75840906D01*
X222446023Y-75881183D02*
X222474860Y-76908732D01*
X222106003Y-76268084D01*
X222106888Y-77007330D01*
X221618087Y-76103027D01*
X221002973Y-77303123D02*
X221554930Y-77155226D01*
X221278952Y-77229175D02*
X221020133Y-76263249D01*
X221149100Y-76376589D01*
X221265742Y-76443932D01*
X221370060Y-76465279D01*
X220422179Y-76423470D02*
X219778228Y-76596016D01*
X220451015Y-77451019D01*
%TO.C,SW15*%
X190799404Y-159678142D02*
X190720578Y-159806447D01*
X190538187Y-159959491D01*
X190434621Y-159984231D01*
X190367534Y-159978362D01*
X190269838Y-159936014D01*
X190208620Y-159863057D01*
X190183880Y-159759492D01*
X190189750Y-159692405D01*
X190232097Y-159594708D01*
X190347402Y-159435794D01*
X190389749Y-159338098D01*
X190395619Y-159271011D01*
X190370879Y-159167445D01*
X190309661Y-159094489D01*
X190211965Y-159052141D01*
X190144878Y-159046272D01*
X190041312Y-159071011D01*
X189858921Y-159224056D01*
X189780095Y-159352361D01*
X189494138Y-159530145D02*
X189954534Y-160449234D01*
X189349486Y-160024495D01*
X189662707Y-160694106D01*
X188837528Y-160081106D01*
X188787228Y-161428720D02*
X189224968Y-161061413D01*
X189006098Y-161245067D02*
X188363310Y-160479022D01*
X188528093Y-160527239D01*
X188662268Y-160538978D01*
X188765834Y-160514238D01*
X187451352Y-161244246D02*
X187816135Y-160938156D01*
X188158703Y-161272330D01*
X188091616Y-161266461D01*
X187988050Y-161291201D01*
X187805659Y-161444245D01*
X187763311Y-161541941D01*
X187757442Y-161609029D01*
X187782181Y-161712594D01*
X187935226Y-161894986D01*
X188032922Y-161937333D01*
X188100009Y-161943203D01*
X188203575Y-161918463D01*
X188385966Y-161765418D01*
X188428314Y-161667722D01*
X188434184Y-161600635D01*
%TO.C,D5*%
D14*
X243398861Y-126777351D02*
X244364787Y-126518532D01*
X244303163Y-126288549D01*
X244220193Y-126162884D01*
X244103550Y-126095541D01*
X243999233Y-126074194D01*
X243802922Y-126077496D01*
X243664933Y-126114470D01*
X243493272Y-126209766D01*
X243413603Y-126280412D01*
X243346260Y-126397054D01*
X243337238Y-126547368D01*
X243398861Y-126777351D01*
X243982721Y-125092641D02*
X244105968Y-125552606D01*
X243658328Y-125721849D01*
X243692000Y-125663528D01*
X243713347Y-125559210D01*
X243651723Y-125329228D01*
X243581077Y-125249560D01*
X243522756Y-125215888D01*
X243418438Y-125194541D01*
X243188456Y-125256165D01*
X243108788Y-125326811D01*
X243075116Y-125385132D01*
X243053769Y-125489449D01*
X243115393Y-125719432D01*
X243186039Y-125799100D01*
X243244360Y-125832772D01*
X243952618Y-130080386D02*
X244918544Y-129821567D01*
X243804721Y-129528428D02*
X244467601Y-129794500D01*
X244770647Y-129269609D02*
X244366586Y-129969463D01*
%TO.C,D10*%
X247234879Y-126242475D02*
X248200805Y-125983656D01*
X248139182Y-125753674D01*
X248056211Y-125628009D01*
X247939569Y-125560666D01*
X247835251Y-125539319D01*
X247638940Y-125542621D01*
X247500951Y-125579595D01*
X247329290Y-125674891D01*
X247249622Y-125745536D01*
X247182278Y-125862179D01*
X247173256Y-126012493D01*
X247234879Y-126242475D01*
X246840488Y-124770588D02*
X246988385Y-125322546D01*
X246914437Y-125046567D02*
X247880363Y-124787748D01*
X247767023Y-124916715D01*
X247699679Y-125033357D01*
X247678332Y-125137675D01*
X247646193Y-123913815D02*
X247621543Y-123821822D01*
X247550898Y-123742154D01*
X247492576Y-123708482D01*
X247388259Y-123687135D01*
X247191948Y-123690438D01*
X246961966Y-123752061D01*
X246790305Y-123847357D01*
X246710636Y-123918002D01*
X246676965Y-123976324D01*
X246655618Y-124080641D01*
X246680267Y-124172634D01*
X246750913Y-124252302D01*
X246809234Y-124285974D01*
X246913552Y-124307321D01*
X247109862Y-124304019D01*
X247339845Y-124242395D01*
X247511506Y-124147100D01*
X247591174Y-124076454D01*
X247624846Y-124018133D01*
X247646193Y-123913815D01*
X247665389Y-129085546D02*
X248631315Y-128826727D01*
X247517492Y-128533588D02*
X248180372Y-128799660D01*
X248483418Y-128274769D02*
X248079357Y-128974623D01*
%TO.C,D15*%
X251038213Y-125223377D02*
X252004139Y-124964558D01*
X251942516Y-124734576D01*
X251859545Y-124608911D01*
X251742903Y-124541568D01*
X251638585Y-124520221D01*
X251442274Y-124523523D01*
X251304285Y-124560497D01*
X251132624Y-124655793D01*
X251052956Y-124726438D01*
X250985612Y-124843081D01*
X250976590Y-124993395D01*
X251038213Y-125223377D01*
X250643822Y-123751490D02*
X250791719Y-124303448D01*
X250717771Y-124027469D02*
X251683697Y-123768650D01*
X251570357Y-123897617D01*
X251503013Y-124014259D01*
X251481666Y-124118577D01*
X251375579Y-122618738D02*
X251498826Y-123078703D01*
X251051186Y-123247947D01*
X251084858Y-123189625D01*
X251106205Y-123085308D01*
X251044581Y-122855325D01*
X250973935Y-122775657D01*
X250915614Y-122741985D01*
X250811296Y-122720638D01*
X250581314Y-122782262D01*
X250501646Y-122852908D01*
X250467974Y-122911229D01*
X250446627Y-123015547D01*
X250508251Y-123245529D01*
X250578896Y-123325197D01*
X250637218Y-123358869D01*
X251468723Y-128066448D02*
X252434649Y-127807629D01*
X251320826Y-127514490D02*
X251983706Y-127780562D01*
X252286752Y-127255671D02*
X251882691Y-127955525D01*
%TO.C,D20*%
X254932105Y-124180014D02*
X255898031Y-123921195D01*
X255836408Y-123691213D01*
X255753437Y-123565548D01*
X255636795Y-123498205D01*
X255532477Y-123476858D01*
X255336166Y-123480160D01*
X255198177Y-123517134D01*
X255026516Y-123612430D01*
X254946848Y-123683075D01*
X254879504Y-123799718D01*
X254870482Y-123950032D01*
X254932105Y-124180014D01*
X255559544Y-123025915D02*
X255593216Y-122967594D01*
X255614563Y-122863276D01*
X255552939Y-122633294D01*
X255482293Y-122553626D01*
X255423972Y-122519954D01*
X255319654Y-122498607D01*
X255227661Y-122523257D01*
X255101997Y-122606227D01*
X254697936Y-123306081D01*
X254537714Y-122708127D01*
X255343419Y-121851354D02*
X255318769Y-121759361D01*
X255248124Y-121679693D01*
X255189802Y-121646021D01*
X255085485Y-121624674D01*
X254889174Y-121627977D01*
X254659192Y-121689600D01*
X254487531Y-121784896D01*
X254407862Y-121855541D01*
X254374191Y-121913863D01*
X254352844Y-122018180D01*
X254377493Y-122110173D01*
X254448139Y-122189841D01*
X254506460Y-122223513D01*
X254610778Y-122244860D01*
X254807088Y-122241558D01*
X255037071Y-122179934D01*
X255208732Y-122084639D01*
X255288400Y-122013993D01*
X255322072Y-121955672D01*
X255343419Y-121851354D01*
X255362615Y-127023085D02*
X256328541Y-126764266D01*
X255214718Y-126471127D02*
X255877598Y-126737199D01*
X256180644Y-126212308D02*
X255776583Y-126912162D01*
%TO.C,D41*%
X70651685Y-124528435D02*
X69685759Y-124269616D01*
X69624136Y-124499599D01*
X69633158Y-124649913D01*
X69700502Y-124766555D01*
X69780170Y-124837201D01*
X69951831Y-124932496D01*
X70089820Y-124969471D01*
X70286131Y-124972773D01*
X70390449Y-124951426D01*
X70507091Y-124884082D01*
X70590062Y-124758418D01*
X70651685Y-124528435D01*
X69637993Y-125735783D02*
X70281944Y-125908329D01*
X69331645Y-125407203D02*
X70083216Y-125362092D01*
X69922994Y-125960046D01*
X70010800Y-126920252D02*
X70158697Y-126368294D01*
X70084748Y-126644273D02*
X69118822Y-126385454D01*
X69281461Y-126330435D01*
X69398104Y-126263092D01*
X69468750Y-126183423D01*
X69109994Y-129045720D02*
X68144068Y-128786901D01*
X68962097Y-129597677D02*
X68521062Y-129035813D01*
X67996171Y-129338858D02*
X68696026Y-128934797D01*
%TO.C,D46*%
X74364463Y-125523274D02*
X73398537Y-125264455D01*
X73336914Y-125494438D01*
X73345936Y-125644752D01*
X73413280Y-125761394D01*
X73492948Y-125832040D01*
X73664609Y-125927335D01*
X73802598Y-125964310D01*
X73998909Y-125967612D01*
X74103227Y-125946265D01*
X74219869Y-125878921D01*
X74302840Y-125753257D01*
X74364463Y-125523274D01*
X73350771Y-126730622D02*
X73994722Y-126903168D01*
X73044423Y-126402042D02*
X73795994Y-126356931D01*
X73635772Y-126954885D01*
X72782302Y-127564279D02*
X72831600Y-127380293D01*
X72902246Y-127300625D01*
X72960568Y-127266953D01*
X73123206Y-127211934D01*
X73319517Y-127215236D01*
X73687489Y-127313834D01*
X73767157Y-127384480D01*
X73800829Y-127442801D01*
X73822176Y-127547119D01*
X73772877Y-127731105D01*
X73702231Y-127810773D01*
X73643910Y-127844445D01*
X73539592Y-127865792D01*
X73309610Y-127804168D01*
X73229942Y-127733522D01*
X73196270Y-127675201D01*
X73174923Y-127570884D01*
X73224222Y-127386898D01*
X73294868Y-127307229D01*
X73353189Y-127273558D01*
X73457506Y-127252211D01*
X72822772Y-130040559D02*
X71856846Y-129781740D01*
X72674875Y-130592516D02*
X72233840Y-130030652D01*
X71708949Y-130333697D02*
X72408804Y-129929636D01*
%TO.C,D51*%
X78077246Y-126518108D02*
X77111320Y-126259289D01*
X77049697Y-126489272D01*
X77058719Y-126639586D01*
X77126063Y-126756228D01*
X77205731Y-126826874D01*
X77377392Y-126922169D01*
X77515381Y-126959144D01*
X77711692Y-126962446D01*
X77816010Y-126941099D01*
X77932652Y-126873755D01*
X78015623Y-126748091D01*
X78077246Y-126518108D01*
X76729254Y-127685180D02*
X76852501Y-127225215D01*
X77324791Y-127302466D01*
X77266470Y-127336138D01*
X77195824Y-127415806D01*
X77134200Y-127645788D01*
X77155547Y-127750106D01*
X77189219Y-127808427D01*
X77268887Y-127879073D01*
X77498869Y-127940696D01*
X77603187Y-127919349D01*
X77661508Y-127885678D01*
X77732154Y-127806009D01*
X77793778Y-127576027D01*
X77772431Y-127471709D01*
X77738759Y-127413388D01*
X77436361Y-128909925D02*
X77584258Y-128357967D01*
X77510309Y-128633946D02*
X76544383Y-128375127D01*
X76707022Y-128320108D01*
X76823665Y-128252765D01*
X76894311Y-128173096D01*
X76535555Y-131035393D02*
X75569629Y-130776574D01*
X76387658Y-131587350D02*
X75946623Y-131025486D01*
X75421732Y-131328531D02*
X76121587Y-130924470D01*
%TO.C,D56*%
X81790019Y-127512945D02*
X80824093Y-127254126D01*
X80762470Y-127484109D01*
X80771492Y-127634423D01*
X80838836Y-127751065D01*
X80918504Y-127821711D01*
X81090165Y-127917006D01*
X81228154Y-127953981D01*
X81424465Y-127957283D01*
X81528783Y-127935936D01*
X81645425Y-127868592D01*
X81728396Y-127742928D01*
X81790019Y-127512945D01*
X80442027Y-128680017D02*
X80565274Y-128220052D01*
X81037564Y-128297303D01*
X80979243Y-128330975D01*
X80908597Y-128410643D01*
X80846973Y-128640625D01*
X80868320Y-128744943D01*
X80901992Y-128803264D01*
X80981660Y-128873910D01*
X81211642Y-128935533D01*
X81315960Y-128914186D01*
X81374281Y-128880515D01*
X81444927Y-128800846D01*
X81506551Y-128570864D01*
X81485204Y-128466546D01*
X81451532Y-128408225D01*
X80207858Y-129553950D02*
X80257156Y-129369964D01*
X80327802Y-129290296D01*
X80386124Y-129256624D01*
X80548762Y-129201605D01*
X80745073Y-129204907D01*
X81113045Y-129303505D01*
X81192713Y-129374151D01*
X81226385Y-129432472D01*
X81247732Y-129536790D01*
X81198433Y-129720776D01*
X81127787Y-129800444D01*
X81069466Y-129834116D01*
X80965148Y-129855463D01*
X80735166Y-129793839D01*
X80655498Y-129723193D01*
X80621826Y-129664872D01*
X80600479Y-129560555D01*
X80649778Y-129376569D01*
X80720424Y-129296900D01*
X80778745Y-129263229D01*
X80883062Y-129241882D01*
X80248328Y-132030230D02*
X79282402Y-131771411D01*
X80100431Y-132582187D02*
X79659396Y-132020323D01*
X79134505Y-132323368D02*
X79834360Y-131919307D01*
%TO.C,SW2*%
D13*
X281793990Y-74815187D02*
X281668325Y-74898158D01*
X281438343Y-74959782D01*
X281334025Y-74938435D01*
X281275704Y-74904763D01*
X281205058Y-74825095D01*
X281180408Y-74733102D01*
X281201756Y-74628784D01*
X281235427Y-74570463D01*
X281315096Y-74499817D01*
X281486757Y-74404522D01*
X281566425Y-74333876D01*
X281600097Y-74275555D01*
X281621444Y-74171237D01*
X281596794Y-74079244D01*
X281526148Y-73999576D01*
X281467827Y-73965904D01*
X281363509Y-73944557D01*
X281133527Y-74006181D01*
X281007862Y-74089151D01*
X280673562Y-74129428D02*
X280702399Y-75156977D01*
X280333543Y-74516329D01*
X280334427Y-75255575D01*
X279845626Y-74351273D01*
X279548300Y-74529539D02*
X279489979Y-74495867D01*
X279385661Y-74474520D01*
X279155679Y-74536143D01*
X279076011Y-74606789D01*
X279042339Y-74665110D01*
X279020992Y-74769428D01*
X279045641Y-74861421D01*
X279128612Y-74987086D01*
X279828466Y-75391147D01*
X279230512Y-75551368D01*
%TO.C,SW4*%
X291637736Y-111565190D02*
X291512071Y-111648161D01*
X291282089Y-111709785D01*
X291177771Y-111688438D01*
X291119450Y-111654766D01*
X291048804Y-111575098D01*
X291024154Y-111483105D01*
X291045502Y-111378787D01*
X291079173Y-111320466D01*
X291158842Y-111249820D01*
X291330503Y-111154525D01*
X291410171Y-111083879D01*
X291443843Y-111025558D01*
X291465190Y-110921240D01*
X291440540Y-110829247D01*
X291369894Y-110749579D01*
X291311573Y-110715907D01*
X291207255Y-110694560D01*
X290977273Y-110756184D01*
X290851608Y-110839154D01*
X290517308Y-110879431D02*
X290546145Y-111906980D01*
X290177289Y-111266332D01*
X290178173Y-112005578D01*
X289689372Y-111101276D01*
X288993705Y-111632771D02*
X289166251Y-112276722D01*
X289125090Y-111203176D02*
X289539943Y-111831499D01*
X288941989Y-111991720D01*
%TO.C,SW5*%
X224887739Y-142502687D02*
X224762074Y-142585658D01*
X224532092Y-142647282D01*
X224427774Y-142625935D01*
X224369453Y-142592263D01*
X224298807Y-142512595D01*
X224274157Y-142420602D01*
X224295505Y-142316284D01*
X224329176Y-142257963D01*
X224408845Y-142187317D01*
X224580506Y-142092022D01*
X224660174Y-142021376D01*
X224693846Y-141963055D01*
X224715193Y-141858737D01*
X224690543Y-141766744D01*
X224619897Y-141687076D01*
X224561576Y-141653404D01*
X224457258Y-141632057D01*
X224227276Y-141693681D01*
X224101611Y-141776651D01*
X223767311Y-141816928D02*
X223796148Y-142844477D01*
X223427292Y-142203829D01*
X223428176Y-142943075D01*
X222939375Y-142038773D01*
X222111439Y-142260617D02*
X222571403Y-142137370D01*
X222740647Y-142585010D01*
X222682326Y-142551339D01*
X222578008Y-142529991D01*
X222348026Y-142591615D01*
X222268358Y-142662261D01*
X222234686Y-142720582D01*
X222213339Y-142824900D01*
X222274962Y-143054882D01*
X222345608Y-143134550D01*
X222403929Y-143168222D01*
X222508247Y-143189569D01*
X222738229Y-143127946D01*
X222817898Y-143057300D01*
X222851569Y-142998978D01*
%TO.C,SW6*%
X258450234Y-61315188D02*
X258324569Y-61398159D01*
X258094587Y-61459783D01*
X257990269Y-61438436D01*
X257931948Y-61404764D01*
X257861302Y-61325096D01*
X257836652Y-61233103D01*
X257858000Y-61128785D01*
X257891671Y-61070464D01*
X257971340Y-60999818D01*
X258143001Y-60904523D01*
X258222669Y-60833877D01*
X258256341Y-60775556D01*
X258277688Y-60671238D01*
X258253038Y-60579245D01*
X258182392Y-60499577D01*
X258124071Y-60465905D01*
X258019753Y-60444558D01*
X257789771Y-60506182D01*
X257664106Y-60589152D01*
X257329806Y-60629429D02*
X257358643Y-61656978D01*
X256989787Y-61016330D01*
X256990671Y-61755576D01*
X256501870Y-60851274D01*
X255719930Y-61060794D02*
X255903916Y-61011495D01*
X256008234Y-61032842D01*
X256066555Y-61066514D01*
X256195522Y-61179854D01*
X256290817Y-61351515D01*
X256389415Y-61719487D01*
X256368068Y-61823804D01*
X256334396Y-61882125D01*
X256254728Y-61952771D01*
X256070742Y-62002070D01*
X255966424Y-61980723D01*
X255908103Y-61947051D01*
X255837457Y-61867383D01*
X255775834Y-61637401D01*
X255797181Y-61533083D01*
X255830853Y-61474762D01*
X255910521Y-61404116D01*
X256094507Y-61354817D01*
X256198824Y-61376164D01*
X256257145Y-61409836D01*
X256327791Y-61489504D01*
%TO.C,SW7*%
X263325235Y-79783931D02*
X263199570Y-79866902D01*
X262969588Y-79928526D01*
X262865270Y-79907179D01*
X262806949Y-79873507D01*
X262736303Y-79793839D01*
X262711653Y-79701846D01*
X262733001Y-79597528D01*
X262766672Y-79539207D01*
X262846341Y-79468561D01*
X263018002Y-79373266D01*
X263097670Y-79302620D01*
X263131342Y-79244299D01*
X263152689Y-79139981D01*
X263128039Y-79047988D01*
X263057393Y-78968320D01*
X262999072Y-78934648D01*
X262894754Y-78913301D01*
X262664772Y-78974925D01*
X262539107Y-79057895D01*
X262204807Y-79098172D02*
X262233644Y-80125721D01*
X261864788Y-79485073D01*
X261865672Y-80224319D01*
X261376871Y-79320017D01*
X261100892Y-79393965D02*
X260456942Y-79566511D01*
X261129729Y-80421514D01*
%TO.C,SW8*%
X268293991Y-98158935D02*
X268168326Y-98241906D01*
X267938344Y-98303530D01*
X267834026Y-98282183D01*
X267775705Y-98248511D01*
X267705059Y-98168843D01*
X267680409Y-98076850D01*
X267701757Y-97972532D01*
X267735428Y-97914211D01*
X267815097Y-97843565D01*
X267986758Y-97748270D01*
X268066426Y-97677624D01*
X268100098Y-97619303D01*
X268121445Y-97514985D01*
X268096795Y-97422992D01*
X268026149Y-97343324D01*
X267967828Y-97309652D01*
X267863510Y-97288305D01*
X267633528Y-97349929D01*
X267507863Y-97432899D01*
X267173563Y-97473176D02*
X267202400Y-98500725D01*
X266833544Y-97860077D01*
X266834428Y-98599323D01*
X266345627Y-97695021D01*
X265950588Y-98244561D02*
X266030257Y-98173915D01*
X266063928Y-98115594D01*
X266085275Y-98011276D01*
X266072951Y-97965279D01*
X266002305Y-97885611D01*
X265943984Y-97851939D01*
X265839666Y-97830592D01*
X265655680Y-97879891D01*
X265576012Y-97950537D01*
X265542340Y-98008858D01*
X265520993Y-98113176D01*
X265533318Y-98159173D01*
X265603964Y-98238841D01*
X265662285Y-98272512D01*
X265766602Y-98293860D01*
X265950588Y-98244561D01*
X266054906Y-98265908D01*
X266113227Y-98299579D01*
X266183873Y-98379248D01*
X266233172Y-98563234D01*
X266211825Y-98667551D01*
X266178153Y-98725872D01*
X266098485Y-98796518D01*
X265914499Y-98845817D01*
X265810181Y-98824470D01*
X265751860Y-98790798D01*
X265681214Y-98711130D01*
X265631915Y-98527144D01*
X265653263Y-98422827D01*
X265686934Y-98364505D01*
X265766602Y-98293860D01*
%TO.C,SW9*%
X273262741Y-116533941D02*
X273137076Y-116616912D01*
X272907094Y-116678536D01*
X272802776Y-116657189D01*
X272744455Y-116623517D01*
X272673809Y-116543849D01*
X272649159Y-116451856D01*
X272670507Y-116347538D01*
X272704178Y-116289217D01*
X272783847Y-116218571D01*
X272955508Y-116123276D01*
X273035176Y-116052630D01*
X273068848Y-115994309D01*
X273090195Y-115889991D01*
X273065545Y-115797998D01*
X272994899Y-115718330D01*
X272936578Y-115684658D01*
X272832260Y-115663311D01*
X272602278Y-115724935D01*
X272476613Y-115807905D01*
X272142313Y-115848182D02*
X272171150Y-116875731D01*
X271802294Y-116235083D01*
X271803178Y-116974329D01*
X271314377Y-116070027D01*
X271159228Y-117146875D02*
X270975242Y-117196174D01*
X270870924Y-117174827D01*
X270812603Y-117141155D01*
X270683636Y-117027815D01*
X270588341Y-116856154D01*
X270489743Y-116488182D01*
X270511090Y-116383864D01*
X270544762Y-116325543D01*
X270624430Y-116254897D01*
X270808416Y-116205598D01*
X270912734Y-116226945D01*
X270971055Y-116260617D01*
X271041701Y-116340285D01*
X271103324Y-116570268D01*
X271081977Y-116674585D01*
X271048305Y-116732907D01*
X270968637Y-116803553D01*
X270784651Y-116852851D01*
X270680334Y-116831504D01*
X270622013Y-116797833D01*
X270551367Y-116718164D01*
%TO.C,SW10*%
X207132039Y-149139536D02*
X207027311Y-149247738D01*
X206816118Y-149357678D01*
X206709653Y-149359416D01*
X206645426Y-149339165D01*
X206559212Y-149276676D01*
X206515235Y-149192199D01*
X206513498Y-149085734D01*
X206533749Y-149021507D01*
X206596238Y-148935292D01*
X206743204Y-148805102D01*
X206805693Y-148718887D01*
X206825944Y-148654660D01*
X206824207Y-148548195D01*
X206780231Y-148463718D01*
X206694016Y-148401229D01*
X206629789Y-148380978D01*
X206523324Y-148382715D01*
X206312131Y-148492656D01*
X206207403Y-148600858D01*
X205889745Y-148712536D02*
X206140300Y-149709487D01*
X205641525Y-149163860D01*
X205802391Y-149885391D01*
X205129450Y-149108320D01*
X204788665Y-150413104D02*
X205295528Y-150149247D01*
X205042096Y-150281176D02*
X204580348Y-149394165D01*
X204730789Y-149476905D01*
X204859242Y-149517406D01*
X204965708Y-149515668D01*
X203777814Y-149811937D02*
X203693337Y-149855913D01*
X203630848Y-149942128D01*
X203610597Y-150006355D01*
X203612335Y-150112820D01*
X203658048Y-150303762D01*
X203767988Y-150514956D01*
X203898179Y-150661922D01*
X203984394Y-150724411D01*
X204048620Y-150744662D01*
X204155086Y-150742924D01*
X204239563Y-150698948D01*
X204302052Y-150612734D01*
X204322303Y-150548507D01*
X204320565Y-150442042D01*
X204274852Y-150251099D01*
X204164912Y-150039906D01*
X204034721Y-149892940D01*
X203948506Y-149830451D01*
X203884279Y-149810200D01*
X203777814Y-149811937D01*
%TO.C,SW12*%
X242972702Y-75348191D02*
X242847038Y-75431162D01*
X242617055Y-75492785D01*
X242512738Y-75471438D01*
X242454417Y-75437767D01*
X242383771Y-75358098D01*
X242359121Y-75266106D01*
X242380468Y-75161788D01*
X242414140Y-75103467D01*
X242493808Y-75032821D01*
X242665469Y-74937525D01*
X242745138Y-74866880D01*
X242778809Y-74808558D01*
X242800156Y-74704241D01*
X242775507Y-74612248D01*
X242704861Y-74532580D01*
X242646540Y-74498908D01*
X242542222Y-74477561D01*
X242312240Y-74539184D01*
X242186575Y-74622155D01*
X241852275Y-74662432D02*
X241881112Y-75689981D01*
X241512255Y-75049333D01*
X241513140Y-75788579D01*
X241024339Y-74884276D01*
X240409225Y-76084372D02*
X240961182Y-75936475D01*
X240685204Y-76010424D02*
X240426385Y-75044498D01*
X240555352Y-75157838D01*
X240671994Y-75225181D01*
X240776312Y-75246528D01*
X239807084Y-75309037D02*
X239748762Y-75275365D01*
X239644445Y-75254018D01*
X239414462Y-75315641D01*
X239334794Y-75386287D01*
X239301122Y-75444609D01*
X239279775Y-75548926D01*
X239304425Y-75640919D01*
X239387395Y-75766584D01*
X240087250Y-76170645D01*
X239489296Y-76330866D01*
%TO.C,SW13*%
X247847702Y-93723191D02*
X247722038Y-93806162D01*
X247492055Y-93867785D01*
X247387738Y-93846438D01*
X247329417Y-93812767D01*
X247258771Y-93733098D01*
X247234121Y-93641106D01*
X247255468Y-93536788D01*
X247289140Y-93478467D01*
X247368808Y-93407821D01*
X247540469Y-93312525D01*
X247620138Y-93241880D01*
X247653809Y-93183558D01*
X247675156Y-93079241D01*
X247650507Y-92987248D01*
X247579861Y-92907580D01*
X247521540Y-92873908D01*
X247417222Y-92852561D01*
X247187240Y-92914184D01*
X247061575Y-92997155D01*
X246727275Y-93037432D02*
X246756112Y-94064981D01*
X246387255Y-93424333D01*
X246388140Y-94163579D01*
X245899339Y-93259276D01*
X245284225Y-94459372D02*
X245836182Y-94311475D01*
X245560204Y-94385424D02*
X245301385Y-93419498D01*
X245430352Y-93532838D01*
X245546994Y-93600181D01*
X245651312Y-93621528D01*
X244703431Y-93579719D02*
X244105476Y-93739940D01*
X244526049Y-94021639D01*
X244388060Y-94058613D01*
X244308392Y-94129259D01*
X244274720Y-94187580D01*
X244253373Y-94291898D01*
X244314997Y-94521880D01*
X244385643Y-94601549D01*
X244443964Y-94635220D01*
X244548281Y-94656567D01*
X244824260Y-94582619D01*
X244903928Y-94511973D01*
X244937600Y-94453652D01*
%TO.C,SW14*%
X252816448Y-112191940D02*
X252690784Y-112274911D01*
X252460801Y-112336534D01*
X252356484Y-112315187D01*
X252298163Y-112281516D01*
X252227517Y-112201847D01*
X252202867Y-112109855D01*
X252224214Y-112005537D01*
X252257886Y-111947216D01*
X252337554Y-111876570D01*
X252509215Y-111781274D01*
X252588884Y-111710629D01*
X252622555Y-111652307D01*
X252643902Y-111547990D01*
X252619253Y-111455997D01*
X252548607Y-111376329D01*
X252490286Y-111342657D01*
X252385968Y-111321310D01*
X252155986Y-111382933D01*
X252030321Y-111465904D01*
X251696021Y-111506181D02*
X251724858Y-112533730D01*
X251356001Y-111893082D01*
X251356886Y-112632328D01*
X250868085Y-111728025D01*
X250252971Y-112928121D02*
X250804928Y-112780224D01*
X250528950Y-112854173D02*
X250270131Y-111888247D01*
X250399098Y-112001587D01*
X250515740Y-112068930D01*
X250620058Y-112090277D01*
X249252488Y-112506015D02*
X249425034Y-113149966D01*
X249383873Y-112076420D02*
X249798726Y-112704743D01*
X249200772Y-112864965D01*
%TO.C,SW16*%
X218691448Y-58191939D02*
X218565784Y-58274910D01*
X218335801Y-58336533D01*
X218231484Y-58315186D01*
X218173163Y-58281515D01*
X218102517Y-58201846D01*
X218077867Y-58109854D01*
X218099214Y-58005536D01*
X218132886Y-57947215D01*
X218212554Y-57876569D01*
X218384215Y-57781273D01*
X218463884Y-57710628D01*
X218497555Y-57652306D01*
X218518902Y-57547989D01*
X218494253Y-57455996D01*
X218423607Y-57376328D01*
X218365286Y-57342656D01*
X218260968Y-57321309D01*
X218030986Y-57382932D01*
X217905321Y-57465903D01*
X217571021Y-57506180D02*
X217599858Y-58533729D01*
X217231001Y-57893081D01*
X217231886Y-58632327D01*
X216743085Y-57728024D01*
X216127971Y-58928120D02*
X216679928Y-58780223D01*
X216403950Y-58854172D02*
X216145131Y-57888246D01*
X216274098Y-58001586D01*
X216390740Y-58068929D01*
X216495058Y-58090276D01*
X215041215Y-58184039D02*
X215225201Y-58134740D01*
X215329519Y-58156087D01*
X215387840Y-58189759D01*
X215516807Y-58303099D01*
X215612103Y-58474760D01*
X215710700Y-58842732D01*
X215689353Y-58947049D01*
X215655681Y-59005371D01*
X215576013Y-59076016D01*
X215392027Y-59125315D01*
X215287710Y-59103968D01*
X215229389Y-59070297D01*
X215158743Y-58990628D01*
X215097119Y-58760646D01*
X215118466Y-58656328D01*
X215152138Y-58598007D01*
X215231806Y-58527361D01*
X215415792Y-58478062D01*
X215520110Y-58499409D01*
X215578431Y-58533081D01*
X215649077Y-58612749D01*
%TO.C,SW18*%
X228535205Y-95035692D02*
X228409541Y-95118663D01*
X228179558Y-95180286D01*
X228075241Y-95158939D01*
X228016920Y-95125268D01*
X227946274Y-95045599D01*
X227921624Y-94953607D01*
X227942971Y-94849289D01*
X227976643Y-94790968D01*
X228056311Y-94720322D01*
X228227972Y-94625026D01*
X228307641Y-94554381D01*
X228341312Y-94496059D01*
X228362659Y-94391742D01*
X228338010Y-94299749D01*
X228267364Y-94220081D01*
X228209043Y-94186409D01*
X228104725Y-94165062D01*
X227874743Y-94226685D01*
X227749078Y-94309656D01*
X227414778Y-94349933D02*
X227443615Y-95377482D01*
X227074758Y-94736834D01*
X227075643Y-95476080D01*
X226586842Y-94571777D01*
X225971728Y-95771873D02*
X226523685Y-95623976D01*
X226247707Y-95697925D02*
X225988888Y-94731999D01*
X226117855Y-94845339D01*
X226234497Y-94912682D01*
X226338815Y-94934029D01*
X225271874Y-95367812D02*
X225351542Y-95297166D01*
X225385214Y-95238845D01*
X225406561Y-95134527D01*
X225394236Y-95088531D01*
X225323590Y-95008862D01*
X225265269Y-94975191D01*
X225160951Y-94953844D01*
X224976965Y-95003142D01*
X224897297Y-95073788D01*
X224863625Y-95132110D01*
X224842278Y-95236427D01*
X224854603Y-95282424D01*
X224925249Y-95362092D01*
X224983570Y-95395764D01*
X225087888Y-95417111D01*
X225271874Y-95367812D01*
X225376191Y-95389159D01*
X225434513Y-95422831D01*
X225505158Y-95502499D01*
X225554457Y-95686485D01*
X225533110Y-95790802D01*
X225499438Y-95849124D01*
X225419770Y-95919769D01*
X225235784Y-95969068D01*
X225131467Y-95947721D01*
X225073146Y-95914050D01*
X225002500Y-95834381D01*
X224953201Y-95650395D01*
X224974548Y-95546078D01*
X225008220Y-95487757D01*
X225087888Y-95417111D01*
%TO.C,SW19*%
X233410198Y-113410689D02*
X233284534Y-113493660D01*
X233054551Y-113555283D01*
X232950234Y-113533936D01*
X232891913Y-113500265D01*
X232821267Y-113420596D01*
X232796617Y-113328604D01*
X232817964Y-113224286D01*
X232851636Y-113165965D01*
X232931304Y-113095319D01*
X233102965Y-113000023D01*
X233182634Y-112929378D01*
X233216305Y-112871056D01*
X233237652Y-112766739D01*
X233213003Y-112674746D01*
X233142357Y-112595078D01*
X233084036Y-112561406D01*
X232979718Y-112540059D01*
X232749736Y-112601682D01*
X232624071Y-112684653D01*
X232289771Y-112724930D02*
X232318608Y-113752479D01*
X231949751Y-113111831D01*
X231950636Y-113851077D01*
X231461835Y-112946774D01*
X230846721Y-114146870D02*
X231398678Y-113998973D01*
X231122700Y-114072922D02*
X230863881Y-113106996D01*
X230992848Y-113220336D01*
X231109490Y-113287679D01*
X231213808Y-113309026D01*
X230386756Y-114270117D02*
X230202770Y-114319416D01*
X230098453Y-114298069D01*
X230040131Y-114264397D01*
X229911164Y-114151057D01*
X229815869Y-113979396D01*
X229717271Y-113611424D01*
X229738618Y-113507107D01*
X229772290Y-113448785D01*
X229851958Y-113378139D01*
X230035944Y-113328841D01*
X230140262Y-113350188D01*
X230198583Y-113383859D01*
X230269229Y-113463528D01*
X230330853Y-113693510D01*
X230309506Y-113797828D01*
X230275834Y-113856149D01*
X230196166Y-113926795D01*
X230012180Y-113976094D01*
X229907862Y-113954747D01*
X229849541Y-113921075D01*
X229778895Y-113841407D01*
%TO.C,SW20*%
X177069630Y-173381635D02*
X177020443Y-173523960D01*
X176875500Y-173712854D01*
X176779744Y-173759422D01*
X176712976Y-173768213D01*
X176608430Y-173748014D01*
X176532873Y-173690037D01*
X176486304Y-173594281D01*
X176477514Y-173527513D01*
X176497712Y-173422967D01*
X176575888Y-173242864D01*
X176596087Y-173138318D01*
X176587297Y-173071550D01*
X176540728Y-172975794D01*
X176465170Y-172917817D01*
X176360624Y-172897618D01*
X176293857Y-172906408D01*
X176198101Y-172952977D01*
X176053158Y-173141871D01*
X176003970Y-173284196D01*
X175763271Y-173519658D02*
X176411681Y-174317313D01*
X175729046Y-174033599D01*
X176179772Y-174619543D01*
X175241476Y-174199675D01*
X175114113Y-174522104D02*
X175047345Y-174530894D01*
X174951589Y-174577463D01*
X174806646Y-174766356D01*
X174786448Y-174870902D01*
X174795238Y-174937670D01*
X174841807Y-175033426D01*
X174917364Y-175091403D01*
X175059689Y-175140590D01*
X175860897Y-175035109D01*
X175484045Y-175526233D01*
X174313839Y-175408595D02*
X174255862Y-175484152D01*
X174235663Y-175588698D01*
X174244454Y-175655466D01*
X174291022Y-175751222D01*
X174413149Y-175904955D01*
X174602042Y-176049898D01*
X174782146Y-176128074D01*
X174886692Y-176148273D01*
X174953459Y-176139483D01*
X175049215Y-176092914D01*
X175107193Y-176017356D01*
X175127391Y-175912810D01*
X175118601Y-175846043D01*
X175072032Y-175750287D01*
X174949906Y-175596553D01*
X174761012Y-175451610D01*
X174580909Y-175373434D01*
X174476363Y-175353236D01*
X174409595Y-175362026D01*
X174313839Y-175408595D01*
%TO.C,SW21*%
X201722701Y-68598188D02*
X201597037Y-68681159D01*
X201367054Y-68742782D01*
X201262737Y-68721435D01*
X201204416Y-68687764D01*
X201133770Y-68608095D01*
X201109120Y-68516103D01*
X201130467Y-68411785D01*
X201164139Y-68353464D01*
X201243807Y-68282818D01*
X201415468Y-68187522D01*
X201495137Y-68116877D01*
X201528808Y-68058555D01*
X201550155Y-67954238D01*
X201525506Y-67862245D01*
X201454860Y-67782577D01*
X201396539Y-67748905D01*
X201292221Y-67727558D01*
X201062239Y-67789181D01*
X200936574Y-67872152D01*
X200602274Y-67912429D02*
X200631111Y-68939978D01*
X200262254Y-68299330D01*
X200263139Y-69038576D01*
X199774338Y-68134273D01*
X199477012Y-68312539D02*
X199418691Y-68278868D01*
X199314373Y-68257521D01*
X199084391Y-68319144D01*
X199004722Y-68389790D01*
X198971051Y-68448111D01*
X198949704Y-68552429D01*
X198974353Y-68644422D01*
X199057324Y-68770087D01*
X199757178Y-69174148D01*
X199159224Y-69334369D01*
X198239295Y-69580863D02*
X198791252Y-69432967D01*
X198515273Y-69506915D02*
X198256454Y-68540989D01*
X198385421Y-68654329D01*
X198502064Y-68721673D01*
X198606381Y-68743020D01*
%TO.C,SW22*%
X206691451Y-87066944D02*
X206565787Y-87149915D01*
X206335804Y-87211538D01*
X206231487Y-87190191D01*
X206173166Y-87156520D01*
X206102520Y-87076851D01*
X206077870Y-86984859D01*
X206099217Y-86880541D01*
X206132889Y-86822220D01*
X206212557Y-86751574D01*
X206384218Y-86656278D01*
X206463887Y-86585633D01*
X206497558Y-86527311D01*
X206518905Y-86422994D01*
X206494256Y-86331001D01*
X206423610Y-86251333D01*
X206365289Y-86217661D01*
X206260971Y-86196314D01*
X206030989Y-86257937D01*
X205905324Y-86340908D01*
X205571024Y-86381185D02*
X205599861Y-87408734D01*
X205231004Y-86768086D01*
X205231889Y-87507332D01*
X204743088Y-86603029D01*
X204445762Y-86781295D02*
X204387441Y-86747624D01*
X204283123Y-86726277D01*
X204053141Y-86787900D01*
X203973472Y-86858546D01*
X203939801Y-86916867D01*
X203918454Y-87021185D01*
X203943103Y-87113178D01*
X204026074Y-87238843D01*
X204725928Y-87642904D01*
X204127974Y-87803125D01*
X203525833Y-87027790D02*
X203467511Y-86994118D01*
X203363194Y-86972771D01*
X203133211Y-87034394D01*
X203053543Y-87105040D01*
X203019871Y-87163362D01*
X202998524Y-87267679D01*
X203023174Y-87359672D01*
X203106144Y-87485337D01*
X203805999Y-87889398D01*
X203208045Y-88049619D01*
%TO.C,SW23*%
X211566451Y-105441937D02*
X211440787Y-105524908D01*
X211210804Y-105586531D01*
X211106487Y-105565184D01*
X211048166Y-105531513D01*
X210977520Y-105451844D01*
X210952870Y-105359852D01*
X210974217Y-105255534D01*
X211007889Y-105197213D01*
X211087557Y-105126567D01*
X211259218Y-105031271D01*
X211338887Y-104960626D01*
X211372558Y-104902304D01*
X211393905Y-104797987D01*
X211369256Y-104705994D01*
X211298610Y-104626326D01*
X211240289Y-104592654D01*
X211135971Y-104571307D01*
X210905989Y-104632930D01*
X210780324Y-104715901D01*
X210446024Y-104756178D02*
X210474861Y-105783727D01*
X210106004Y-105143079D01*
X210106889Y-105882325D01*
X209618088Y-104978022D01*
X209320762Y-105156288D02*
X209262441Y-105122617D01*
X209158123Y-105101270D01*
X208928141Y-105162893D01*
X208848472Y-105233539D01*
X208814801Y-105291860D01*
X208793454Y-105396178D01*
X208818103Y-105488171D01*
X208901074Y-105613836D01*
X209600928Y-106017897D01*
X209002974Y-106178118D01*
X208422180Y-105298465D02*
X207824225Y-105458686D01*
X208244798Y-105740385D01*
X208106809Y-105777359D01*
X208027141Y-105848005D01*
X207993469Y-105906326D01*
X207972122Y-106010644D01*
X208033746Y-106240626D01*
X208104392Y-106320295D01*
X208162713Y-106353966D01*
X208267030Y-106375313D01*
X208543009Y-106301365D01*
X208622677Y-106230719D01*
X208656349Y-106172398D01*
%TO.C,SW24*%
X216535202Y-123816940D02*
X216409538Y-123899911D01*
X216179555Y-123961534D01*
X216075238Y-123940187D01*
X216016917Y-123906516D01*
X215946271Y-123826847D01*
X215921621Y-123734855D01*
X215942968Y-123630537D01*
X215976640Y-123572216D01*
X216056308Y-123501570D01*
X216227969Y-123406274D01*
X216307638Y-123335629D01*
X216341309Y-123277307D01*
X216362656Y-123172990D01*
X216338007Y-123080997D01*
X216267361Y-123001329D01*
X216209040Y-122967657D01*
X216104722Y-122946310D01*
X215874740Y-123007933D01*
X215749075Y-123090904D01*
X215414775Y-123131181D02*
X215443612Y-124158730D01*
X215074755Y-123518082D01*
X215075640Y-124257328D01*
X214586839Y-123353025D01*
X214289513Y-123531291D02*
X214231192Y-123497620D01*
X214126874Y-123476273D01*
X213896892Y-123537896D01*
X213817223Y-123608542D01*
X213783552Y-123666863D01*
X213762205Y-123771181D01*
X213786854Y-123863174D01*
X213869825Y-123988839D01*
X214569679Y-124392900D01*
X213971725Y-124553121D01*
X212971242Y-124131015D02*
X213143788Y-124774966D01*
X213102627Y-123701420D02*
X213517480Y-124329743D01*
X212919526Y-124489965D01*
%TO.C,SW25*%
X183816450Y-75441940D02*
X183690786Y-75524911D01*
X183460803Y-75586534D01*
X183356486Y-75565187D01*
X183298165Y-75531516D01*
X183227519Y-75451847D01*
X183202869Y-75359855D01*
X183224216Y-75255537D01*
X183257888Y-75197216D01*
X183337556Y-75126570D01*
X183509217Y-75031274D01*
X183588886Y-74960629D01*
X183622557Y-74902307D01*
X183643904Y-74797990D01*
X183619255Y-74705997D01*
X183548609Y-74626329D01*
X183490288Y-74592657D01*
X183385970Y-74571310D01*
X183155988Y-74632933D01*
X183030323Y-74715904D01*
X182696023Y-74756181D02*
X182724860Y-75783730D01*
X182356003Y-75143082D01*
X182356888Y-75882328D01*
X181868087Y-74978025D01*
X181570761Y-75156291D02*
X181512440Y-75122620D01*
X181408122Y-75101273D01*
X181178140Y-75162896D01*
X181098471Y-75233542D01*
X181064800Y-75291863D01*
X181043453Y-75396181D01*
X181068102Y-75488174D01*
X181151073Y-75613839D01*
X181850927Y-76017900D01*
X181252973Y-76178121D01*
X180120221Y-75446365D02*
X180580186Y-75323117D01*
X180749429Y-75770757D01*
X180691108Y-75737086D01*
X180586790Y-75715739D01*
X180356808Y-75777362D01*
X180277140Y-75848008D01*
X180243468Y-75906329D01*
X180222121Y-76010647D01*
X180283745Y-76240629D01*
X180354391Y-76320298D01*
X180412712Y-76353969D01*
X180517029Y-76375316D01*
X180747012Y-76313693D01*
X180826680Y-76243047D01*
X180860352Y-76184726D01*
%TO.C,SW27*%
X193660199Y-112191940D02*
X193534535Y-112274911D01*
X193304552Y-112336534D01*
X193200235Y-112315187D01*
X193141914Y-112281516D01*
X193071268Y-112201847D01*
X193046618Y-112109855D01*
X193067965Y-112005537D01*
X193101637Y-111947216D01*
X193181305Y-111876570D01*
X193352966Y-111781274D01*
X193432635Y-111710629D01*
X193466306Y-111652307D01*
X193487653Y-111547990D01*
X193463004Y-111455997D01*
X193392358Y-111376329D01*
X193334037Y-111342657D01*
X193229719Y-111321310D01*
X192999737Y-111382933D01*
X192874072Y-111465904D01*
X192539772Y-111506181D02*
X192568609Y-112533730D01*
X192199752Y-111893082D01*
X192200637Y-112632328D01*
X191711836Y-111728025D01*
X191414510Y-111906291D02*
X191356189Y-111872620D01*
X191251871Y-111851273D01*
X191021889Y-111912896D01*
X190942220Y-111983542D01*
X190908549Y-112041863D01*
X190887202Y-112146181D01*
X190911851Y-112238174D01*
X190994822Y-112363839D01*
X191694676Y-112767900D01*
X191096722Y-112928121D01*
X190515928Y-112048468D02*
X189871977Y-112221014D01*
X190544764Y-113076017D01*
%TO.C,SW28*%
X198628948Y-130660689D02*
X198503284Y-130743660D01*
X198273301Y-130805283D01*
X198168984Y-130783936D01*
X198110663Y-130750265D01*
X198040017Y-130670596D01*
X198015367Y-130578604D01*
X198036714Y-130474286D01*
X198070386Y-130415965D01*
X198150054Y-130345319D01*
X198321715Y-130250023D01*
X198401384Y-130179378D01*
X198435055Y-130121056D01*
X198456402Y-130016739D01*
X198431753Y-129924746D01*
X198361107Y-129845078D01*
X198302786Y-129811406D01*
X198198468Y-129790059D01*
X197968486Y-129851682D01*
X197842821Y-129934653D01*
X197508521Y-129974930D02*
X197537358Y-131002479D01*
X197168501Y-130361831D01*
X197169386Y-131101077D01*
X196680585Y-130196774D01*
X196383259Y-130375040D02*
X196324938Y-130341369D01*
X196220620Y-130320022D01*
X195990638Y-130381645D01*
X195910969Y-130452291D01*
X195877298Y-130510612D01*
X195855951Y-130614930D01*
X195880600Y-130706923D01*
X195963571Y-130832588D01*
X196663425Y-131236649D01*
X196065471Y-131396870D01*
X195365617Y-130992809D02*
X195445285Y-130922163D01*
X195478957Y-130863842D01*
X195500304Y-130759524D01*
X195487979Y-130713528D01*
X195417333Y-130633859D01*
X195359012Y-130600188D01*
X195254694Y-130578841D01*
X195070708Y-130628139D01*
X194991040Y-130698785D01*
X194957368Y-130757107D01*
X194936021Y-130861424D01*
X194948346Y-130907421D01*
X195018992Y-130987089D01*
X195077313Y-131020761D01*
X195181631Y-131042108D01*
X195365617Y-130992809D01*
X195469934Y-131014156D01*
X195528256Y-131047828D01*
X195598901Y-131127496D01*
X195648200Y-131311482D01*
X195626853Y-131415799D01*
X195593181Y-131474121D01*
X195513513Y-131544766D01*
X195329527Y-131594065D01*
X195225210Y-131572718D01*
X195166889Y-131539047D01*
X195096243Y-131459378D01*
X195046944Y-131275392D01*
X195068291Y-131171075D01*
X195101963Y-131112754D01*
X195181631Y-131042108D01*
%TO.C,SW29*%
X136184265Y-76378621D02*
X136033951Y-76387643D01*
X135803969Y-76326019D01*
X135724301Y-76255374D01*
X135690629Y-76197052D01*
X135669282Y-76092735D01*
X135693931Y-76000742D01*
X135764577Y-75921074D01*
X135822898Y-75887402D01*
X135927216Y-75866055D01*
X136123526Y-75869357D01*
X136227844Y-75848010D01*
X136286165Y-75814338D01*
X136356811Y-75734670D01*
X136381461Y-75642677D01*
X136360114Y-75538360D01*
X136326442Y-75480038D01*
X136246774Y-75409392D01*
X136016791Y-75347769D01*
X135866477Y-75356791D01*
X135556827Y-75224522D02*
X135068025Y-76128824D01*
X135068910Y-75389578D01*
X134700054Y-76030226D01*
X134728890Y-75002677D01*
X134382265Y-75008397D02*
X134348594Y-74950076D01*
X134268926Y-74879430D01*
X134038943Y-74817806D01*
X133934626Y-74839153D01*
X133876304Y-74872825D01*
X133805658Y-74952493D01*
X133781009Y-75044486D01*
X133790031Y-75194800D01*
X134194092Y-75894654D01*
X133596138Y-75734433D01*
X133136174Y-75611186D02*
X132952188Y-75561887D01*
X132872520Y-75491241D01*
X132838848Y-75432920D01*
X132783829Y-75270281D01*
X132787131Y-75073971D01*
X132885729Y-74705999D01*
X132956375Y-74626331D01*
X133014696Y-74592659D01*
X133119014Y-74571312D01*
X133303000Y-74620611D01*
X133382668Y-74691257D01*
X133416340Y-74749578D01*
X133437687Y-74853895D01*
X133376063Y-75083878D01*
X133305417Y-75163546D01*
X133247096Y-75197218D01*
X133142778Y-75218565D01*
X132958793Y-75169266D01*
X132879124Y-75098620D01*
X132845453Y-75040299D01*
X132824106Y-74935981D01*
%TO.C,SW30*%
X131309271Y-94753622D02*
X131158957Y-94762644D01*
X130928975Y-94701020D01*
X130849307Y-94630375D01*
X130815635Y-94572053D01*
X130794288Y-94467736D01*
X130818937Y-94375743D01*
X130889583Y-94296075D01*
X130947904Y-94262403D01*
X131052222Y-94241056D01*
X131248532Y-94244358D01*
X131352850Y-94223011D01*
X131411171Y-94189339D01*
X131481817Y-94109671D01*
X131506467Y-94017678D01*
X131485120Y-93913361D01*
X131451448Y-93855039D01*
X131371780Y-93784393D01*
X131141797Y-93722770D01*
X130991483Y-93731792D01*
X130681833Y-93599523D02*
X130193031Y-94503825D01*
X130193916Y-93764579D01*
X129825060Y-94405227D01*
X129853896Y-93377678D01*
X129577917Y-93303730D02*
X128979963Y-93143508D01*
X129203341Y-93597753D01*
X129065351Y-93560779D01*
X128961034Y-93582126D01*
X128902713Y-93615798D01*
X128832067Y-93695466D01*
X128770443Y-93925448D01*
X128791790Y-94029766D01*
X128825462Y-94088087D01*
X128905130Y-94158733D01*
X129181109Y-94232681D01*
X129285427Y-94211334D01*
X129343748Y-94177662D01*
X128382009Y-92983287D02*
X128290016Y-92958637D01*
X128185699Y-92979985D01*
X128127377Y-93013656D01*
X128056732Y-93093324D01*
X127961436Y-93264986D01*
X127899813Y-93494968D01*
X127896510Y-93691279D01*
X127917857Y-93795596D01*
X127951529Y-93853917D01*
X128031197Y-93924563D01*
X128123190Y-93949213D01*
X128227508Y-93927866D01*
X128285829Y-93894194D01*
X128356475Y-93814526D01*
X128451770Y-93642865D01*
X128513394Y-93412882D01*
X128516696Y-93216572D01*
X128495349Y-93112254D01*
X128461677Y-93053933D01*
X128382009Y-92983287D01*
%TO.C,SW31*%
X126340520Y-113128621D02*
X126190206Y-113137643D01*
X125960224Y-113076019D01*
X125880556Y-113005374D01*
X125846884Y-112947052D01*
X125825537Y-112842735D01*
X125850186Y-112750742D01*
X125920832Y-112671074D01*
X125979153Y-112637402D01*
X126083471Y-112616055D01*
X126279781Y-112619357D01*
X126384099Y-112598010D01*
X126442420Y-112564338D01*
X126513066Y-112484670D01*
X126537716Y-112392677D01*
X126516369Y-112288360D01*
X126482697Y-112230038D01*
X126403029Y-112159392D01*
X126173046Y-112097769D01*
X126022732Y-112106791D01*
X125713082Y-111974522D02*
X125224280Y-112878824D01*
X125225165Y-112139578D01*
X124856309Y-112780226D01*
X124885145Y-111752677D01*
X124609166Y-111678729D02*
X124011212Y-111518507D01*
X124234590Y-111972752D01*
X124096600Y-111935778D01*
X123992283Y-111957125D01*
X123933962Y-111990797D01*
X123863316Y-112070465D01*
X123801692Y-112300447D01*
X123823039Y-112404765D01*
X123856711Y-112463086D01*
X123936379Y-112533732D01*
X124212358Y-112607680D01*
X124316676Y-112586333D01*
X124374997Y-112552661D01*
X122832464Y-112237939D02*
X123384422Y-112385835D01*
X123108443Y-112311887D02*
X123367262Y-111345961D01*
X123422281Y-111508600D01*
X123489624Y-111625242D01*
X123569292Y-111695888D01*
%TO.C,SW32*%
X121371770Y-131597369D02*
X121221456Y-131606391D01*
X120991474Y-131544767D01*
X120911806Y-131474122D01*
X120878134Y-131415800D01*
X120856787Y-131311483D01*
X120881436Y-131219490D01*
X120952082Y-131139822D01*
X121010403Y-131106150D01*
X121114721Y-131084803D01*
X121311031Y-131088105D01*
X121415349Y-131066758D01*
X121473670Y-131033086D01*
X121544316Y-130953418D01*
X121568966Y-130861425D01*
X121547619Y-130757108D01*
X121513947Y-130698786D01*
X121434279Y-130628140D01*
X121204296Y-130566517D01*
X121053982Y-130575539D01*
X120744332Y-130443270D02*
X120255530Y-131347572D01*
X120256415Y-130608326D01*
X119887559Y-131248974D01*
X119916395Y-130221425D01*
X119640416Y-130147477D02*
X119042462Y-129987255D01*
X119265840Y-130441500D01*
X119127850Y-130404526D01*
X119023533Y-130425873D01*
X118965212Y-130459545D01*
X118894566Y-130539213D01*
X118832942Y-130769195D01*
X118854289Y-130873513D01*
X118887961Y-130931834D01*
X118967629Y-131002480D01*
X119243608Y-131076428D01*
X119347926Y-131055081D01*
X119406247Y-131021409D01*
X118649841Y-129980650D02*
X118616169Y-129922329D01*
X118536501Y-129851683D01*
X118306519Y-129790060D01*
X118202201Y-129811407D01*
X118143880Y-129845079D01*
X118073234Y-129924747D01*
X118048585Y-130016740D01*
X118057607Y-130167054D01*
X118461668Y-130866908D01*
X117863714Y-130706687D01*
%TO.C,SW33*%
X118278014Y-69534872D02*
X118127700Y-69543894D01*
X117897718Y-69482270D01*
X117818050Y-69411625D01*
X117784378Y-69353303D01*
X117763031Y-69248986D01*
X117787680Y-69156993D01*
X117858326Y-69077325D01*
X117916647Y-69043653D01*
X118020965Y-69022306D01*
X118217275Y-69025608D01*
X118321593Y-69004261D01*
X118379914Y-68970589D01*
X118450560Y-68890921D01*
X118475210Y-68798928D01*
X118453863Y-68694611D01*
X118420191Y-68636289D01*
X118340523Y-68565643D01*
X118110540Y-68504020D01*
X117960226Y-68513042D01*
X117650576Y-68380773D02*
X117161774Y-69285075D01*
X117162659Y-68545829D01*
X116793803Y-69186477D01*
X116822639Y-68158928D01*
X116546660Y-68084980D02*
X115948706Y-67924758D01*
X116172084Y-68379003D01*
X116034094Y-68342029D01*
X115929777Y-68363376D01*
X115871456Y-68397048D01*
X115800810Y-68476716D01*
X115739186Y-68706698D01*
X115760533Y-68811016D01*
X115794205Y-68869337D01*
X115873873Y-68939983D01*
X116149852Y-69013931D01*
X116254170Y-68992584D01*
X116312491Y-68958912D01*
X115626731Y-67838485D02*
X115028777Y-67678264D01*
X115252155Y-68132509D01*
X115114165Y-68095535D01*
X115009847Y-68116882D01*
X114951526Y-68150553D01*
X114880880Y-68230222D01*
X114819257Y-68460204D01*
X114840604Y-68564522D01*
X114874276Y-68622843D01*
X114953944Y-68693489D01*
X115229923Y-68767437D01*
X115334240Y-68746090D01*
X115392561Y-68712418D01*
%TO.C,SW34*%
X113403022Y-88003619D02*
X113252708Y-88012641D01*
X113022726Y-87951017D01*
X112943058Y-87880372D01*
X112909386Y-87822050D01*
X112888039Y-87717733D01*
X112912688Y-87625740D01*
X112983334Y-87546072D01*
X113041655Y-87512400D01*
X113145973Y-87491053D01*
X113342283Y-87494355D01*
X113446601Y-87473008D01*
X113504922Y-87439336D01*
X113575568Y-87359668D01*
X113600218Y-87267675D01*
X113578871Y-87163358D01*
X113545199Y-87105036D01*
X113465531Y-87034390D01*
X113235548Y-86972767D01*
X113085234Y-86981789D01*
X112775584Y-86849520D02*
X112286782Y-87753822D01*
X112287667Y-87014576D01*
X111918811Y-87655224D01*
X111947647Y-86627675D01*
X111671668Y-86553727D02*
X111073714Y-86393505D01*
X111297092Y-86847750D01*
X111159102Y-86810776D01*
X111054785Y-86832123D01*
X110996464Y-86865795D01*
X110925818Y-86945463D01*
X110864194Y-87175445D01*
X110885541Y-87279763D01*
X110919213Y-87338084D01*
X110998881Y-87408730D01*
X111274860Y-87482678D01*
X111379178Y-87461331D01*
X111437499Y-87427659D01*
X110159505Y-86493636D02*
X109986959Y-87137586D01*
X110488085Y-86187287D02*
X110533197Y-86938858D01*
X109935242Y-86778637D01*
%TO.C,SW35*%
X108434272Y-106472370D02*
X108283958Y-106481392D01*
X108053976Y-106419768D01*
X107974308Y-106349123D01*
X107940636Y-106290801D01*
X107919289Y-106186484D01*
X107943938Y-106094491D01*
X108014584Y-106014823D01*
X108072905Y-105981151D01*
X108177223Y-105959804D01*
X108373533Y-105963106D01*
X108477851Y-105941759D01*
X108536172Y-105908087D01*
X108606818Y-105828419D01*
X108631468Y-105736426D01*
X108610121Y-105632109D01*
X108576449Y-105573787D01*
X108496781Y-105503141D01*
X108266798Y-105441518D01*
X108116484Y-105450540D01*
X107806834Y-105318271D02*
X107318032Y-106222573D01*
X107318917Y-105483327D01*
X106950061Y-106123975D01*
X106978897Y-105096426D01*
X106702918Y-105022478D02*
X106104964Y-104862256D01*
X106328342Y-105316501D01*
X106190352Y-105279527D01*
X106086035Y-105300874D01*
X106027714Y-105334546D01*
X105957068Y-105414214D01*
X105895444Y-105644196D01*
X105916791Y-105748514D01*
X105950463Y-105806835D01*
X106030131Y-105877481D01*
X106306110Y-105951429D01*
X106410428Y-105930082D01*
X106468749Y-105896410D01*
X105231031Y-104628087D02*
X105690996Y-104751334D01*
X105613745Y-105223623D01*
X105580074Y-105165302D01*
X105500405Y-105094656D01*
X105270423Y-105033033D01*
X105166105Y-105054380D01*
X105107784Y-105088051D01*
X105037138Y-105167720D01*
X104975515Y-105397702D01*
X104996862Y-105502020D01*
X105030534Y-105560341D01*
X105110202Y-105630987D01*
X105340184Y-105692610D01*
X105444502Y-105671263D01*
X105502823Y-105637591D01*
%TO.C,SW36*%
X103465521Y-124753619D02*
X103315207Y-124762641D01*
X103085225Y-124701017D01*
X103005557Y-124630372D01*
X102971885Y-124572050D01*
X102950538Y-124467733D01*
X102975187Y-124375740D01*
X103045833Y-124296072D01*
X103104154Y-124262400D01*
X103208472Y-124241053D01*
X103404782Y-124244355D01*
X103509100Y-124223008D01*
X103567421Y-124189336D01*
X103638067Y-124109668D01*
X103662717Y-124017675D01*
X103641370Y-123913358D01*
X103607698Y-123855036D01*
X103528030Y-123784390D01*
X103298047Y-123722767D01*
X103147733Y-123731789D01*
X102838083Y-123599520D02*
X102349281Y-124503822D01*
X102350166Y-123764576D01*
X101981310Y-124405224D01*
X102010146Y-123377675D01*
X101734167Y-123303727D02*
X101136213Y-123143505D01*
X101359591Y-123597750D01*
X101221601Y-123560776D01*
X101117284Y-123582123D01*
X101058963Y-123615795D01*
X100988317Y-123695463D01*
X100926693Y-123925445D01*
X100948040Y-124029763D01*
X100981712Y-124088084D01*
X101061380Y-124158730D01*
X101337359Y-124232678D01*
X101441677Y-124211331D01*
X101499998Y-124177659D01*
X100308277Y-122921660D02*
X100492263Y-122970959D01*
X100571931Y-123041605D01*
X100605603Y-123099926D01*
X100660622Y-123262565D01*
X100657319Y-123458876D01*
X100558721Y-123826847D01*
X100488075Y-123906516D01*
X100429754Y-123940187D01*
X100325437Y-123961534D01*
X100141451Y-123912236D01*
X100061783Y-123841590D01*
X100028111Y-123783269D01*
X100006764Y-123678951D01*
X100068387Y-123448969D01*
X100139033Y-123369300D01*
X100197354Y-123335629D01*
X100301672Y-123314282D01*
X100485658Y-123363580D01*
X100565326Y-123434226D01*
X100598998Y-123492547D01*
X100620345Y-123596865D01*
%TO.C,SW37*%
X101403018Y-59128617D02*
X101252704Y-59137639D01*
X101022722Y-59076015D01*
X100943054Y-59005370D01*
X100909382Y-58947048D01*
X100888035Y-58842731D01*
X100912684Y-58750738D01*
X100983330Y-58671070D01*
X101041651Y-58637398D01*
X101145969Y-58616051D01*
X101342279Y-58619353D01*
X101446597Y-58598006D01*
X101504918Y-58564334D01*
X101575564Y-58484666D01*
X101600214Y-58392673D01*
X101578867Y-58288356D01*
X101545195Y-58230034D01*
X101465527Y-58159388D01*
X101235544Y-58097765D01*
X101085230Y-58106787D01*
X100775580Y-57974518D02*
X100286778Y-58878820D01*
X100287663Y-58139574D01*
X99918807Y-58780222D01*
X99947643Y-57752673D01*
X99671664Y-57678725D02*
X99073710Y-57518503D01*
X99297088Y-57972748D01*
X99159098Y-57935774D01*
X99054781Y-57957121D01*
X98996460Y-57990793D01*
X98925814Y-58070461D01*
X98864190Y-58300443D01*
X98885537Y-58404761D01*
X98919209Y-58463082D01*
X98998877Y-58533728D01*
X99274856Y-58607676D01*
X99379174Y-58586329D01*
X99437495Y-58552657D01*
X98751735Y-57432230D02*
X98107784Y-57259684D01*
X98262934Y-58336532D01*
%TO.C,SW38*%
X96434268Y-77503618D02*
X96283954Y-77512640D01*
X96053972Y-77451016D01*
X95974304Y-77380371D01*
X95940632Y-77322049D01*
X95919285Y-77217732D01*
X95943934Y-77125739D01*
X96014580Y-77046071D01*
X96072901Y-77012399D01*
X96177219Y-76991052D01*
X96373529Y-76994354D01*
X96477847Y-76973007D01*
X96536168Y-76939335D01*
X96606814Y-76859667D01*
X96631464Y-76767674D01*
X96610117Y-76663357D01*
X96576445Y-76605035D01*
X96496777Y-76534389D01*
X96266794Y-76472766D01*
X96116480Y-76481788D01*
X95806830Y-76349519D02*
X95318028Y-77253821D01*
X95318913Y-76514575D01*
X94950057Y-77155223D01*
X94978893Y-76127674D01*
X94702914Y-76053726D02*
X94104960Y-75893504D01*
X94328338Y-76347749D01*
X94190348Y-76310775D01*
X94086031Y-76332122D01*
X94027710Y-76365794D01*
X93957064Y-76445462D01*
X93895440Y-76675444D01*
X93916787Y-76779762D01*
X93950459Y-76838083D01*
X94030127Y-76908729D01*
X94306106Y-76982677D01*
X94410424Y-76961330D01*
X94468745Y-76927658D01*
X93442080Y-76159576D02*
X93546398Y-76138229D01*
X93604719Y-76104557D01*
X93675365Y-76024889D01*
X93687690Y-75978892D01*
X93666343Y-75874575D01*
X93632671Y-75816254D01*
X93553003Y-75745608D01*
X93369017Y-75696309D01*
X93264699Y-75717656D01*
X93206378Y-75751328D01*
X93135732Y-75830996D01*
X93123407Y-75876992D01*
X93144754Y-75981310D01*
X93178426Y-76039631D01*
X93258094Y-76110277D01*
X93442080Y-76159576D01*
X93521748Y-76230222D01*
X93555420Y-76288543D01*
X93576767Y-76392861D01*
X93527468Y-76576846D01*
X93456822Y-76656515D01*
X93398501Y-76690186D01*
X93294184Y-76711533D01*
X93110198Y-76662235D01*
X93030530Y-76591589D01*
X92996858Y-76533268D01*
X92975511Y-76428950D01*
X93024810Y-76244964D01*
X93095456Y-76165296D01*
X93153777Y-76131624D01*
X93258094Y-76110277D01*
%TO.C,SW39*%
X91559272Y-95972370D02*
X91408958Y-95981392D01*
X91178976Y-95919768D01*
X91099308Y-95849123D01*
X91065636Y-95790801D01*
X91044289Y-95686484D01*
X91068938Y-95594491D01*
X91139584Y-95514823D01*
X91197905Y-95481151D01*
X91302223Y-95459804D01*
X91498533Y-95463106D01*
X91602851Y-95441759D01*
X91661172Y-95408087D01*
X91731818Y-95328419D01*
X91756468Y-95236426D01*
X91735121Y-95132109D01*
X91701449Y-95073787D01*
X91621781Y-95003141D01*
X91391798Y-94941518D01*
X91241484Y-94950540D01*
X90931834Y-94818271D02*
X90443032Y-95722573D01*
X90443917Y-94983327D01*
X90075061Y-95623975D01*
X90103897Y-94596426D01*
X89827918Y-94522478D02*
X89229964Y-94362256D01*
X89453342Y-94816501D01*
X89315352Y-94779527D01*
X89211035Y-94800874D01*
X89152714Y-94834546D01*
X89082068Y-94914214D01*
X89020444Y-95144196D01*
X89041791Y-95248514D01*
X89075463Y-95306835D01*
X89155131Y-95377481D01*
X89431110Y-95451429D01*
X89535428Y-95430082D01*
X89593749Y-95396410D01*
X88511181Y-95204935D02*
X88327195Y-95155636D01*
X88247527Y-95084990D01*
X88213855Y-95026669D01*
X88158836Y-94864030D01*
X88162138Y-94667720D01*
X88260736Y-94299748D01*
X88331382Y-94220080D01*
X88389703Y-94186408D01*
X88494021Y-94165061D01*
X88678007Y-94214360D01*
X88757675Y-94285006D01*
X88791347Y-94343327D01*
X88812694Y-94447644D01*
X88751070Y-94677627D01*
X88680424Y-94757295D01*
X88622103Y-94790967D01*
X88517785Y-94812314D01*
X88333800Y-94763015D01*
X88254131Y-94692369D01*
X88220460Y-94634048D01*
X88199113Y-94529730D01*
%TO.C,SW40*%
X86590516Y-114347371D02*
X86440202Y-114356393D01*
X86210220Y-114294769D01*
X86130552Y-114224124D01*
X86096880Y-114165802D01*
X86075533Y-114061485D01*
X86100182Y-113969492D01*
X86170828Y-113889824D01*
X86229149Y-113856152D01*
X86333467Y-113834805D01*
X86529777Y-113838107D01*
X86634095Y-113816760D01*
X86692416Y-113783088D01*
X86763062Y-113703420D01*
X86787712Y-113611427D01*
X86766365Y-113507110D01*
X86732693Y-113448788D01*
X86653025Y-113378142D01*
X86423042Y-113316519D01*
X86272728Y-113325541D01*
X85963078Y-113193272D02*
X85474276Y-114097574D01*
X85475161Y-113358328D01*
X85106305Y-113998976D01*
X85135141Y-112971427D01*
X84266928Y-113083882D02*
X84094382Y-113727832D01*
X84595508Y-112777534D02*
X84640620Y-113529104D01*
X84042666Y-113368883D01*
X83663254Y-112577036D02*
X83571261Y-112552386D01*
X83466944Y-112573734D01*
X83408622Y-112607405D01*
X83337977Y-112687073D01*
X83242681Y-112858735D01*
X83181058Y-113088717D01*
X83177755Y-113285028D01*
X83199102Y-113389345D01*
X83232774Y-113447666D01*
X83312442Y-113518312D01*
X83404435Y-113542962D01*
X83508753Y-113521615D01*
X83567074Y-113487943D01*
X83637720Y-113408275D01*
X83733015Y-113236614D01*
X83794639Y-113006631D01*
X83797941Y-112810321D01*
X83776594Y-112706003D01*
X83742922Y-112647682D01*
X83663254Y-112577036D01*
%TO.C,SW41*%
X141732246Y-176159072D02*
X141607501Y-176074724D01*
X141462558Y-175885830D01*
X141442359Y-175781284D01*
X141451149Y-175714517D01*
X141497718Y-175618761D01*
X141573276Y-175560784D01*
X141677822Y-175540585D01*
X141744589Y-175549375D01*
X141840345Y-175595944D01*
X141994078Y-175718070D01*
X142089834Y-175764639D01*
X142156602Y-175773429D01*
X142261148Y-175753231D01*
X142336705Y-175695253D01*
X142383274Y-175599497D01*
X142392064Y-175532730D01*
X142371866Y-175428184D01*
X142226922Y-175239290D01*
X142102178Y-175154943D01*
X141937036Y-174861503D02*
X140998740Y-175281371D01*
X141449466Y-174695426D01*
X140766830Y-174979141D01*
X141415241Y-174181486D01*
X140657983Y-173742168D02*
X140129080Y-174148009D01*
X141105156Y-173699152D02*
X140683418Y-174322876D01*
X140306566Y-173831752D01*
X139491330Y-173316877D02*
X139839194Y-173770222D01*
X139665262Y-173543549D02*
X140458615Y-172934788D01*
X140403257Y-173097311D01*
X140385676Y-173230846D01*
X140405875Y-173335392D01*
%TO.C,SW42*%
X81996769Y-57909871D02*
X81846455Y-57918893D01*
X81616473Y-57857269D01*
X81536805Y-57786624D01*
X81503133Y-57728302D01*
X81481786Y-57623985D01*
X81506435Y-57531992D01*
X81577081Y-57452324D01*
X81635402Y-57418652D01*
X81739720Y-57397305D01*
X81936030Y-57400607D01*
X82040348Y-57379260D01*
X82098669Y-57345588D01*
X82169315Y-57265920D01*
X82193965Y-57173927D01*
X82172618Y-57069610D01*
X82138946Y-57011288D01*
X82059278Y-56940642D01*
X81829295Y-56879019D01*
X81678981Y-56888041D01*
X81369331Y-56755772D02*
X80880529Y-57660074D01*
X80881414Y-56920828D01*
X80512558Y-57561476D01*
X80541394Y-56533927D01*
X79673181Y-56646382D02*
X79500635Y-57290332D01*
X80001761Y-56340034D02*
X80046873Y-57091604D01*
X79448919Y-56931383D01*
X79274840Y-56293152D02*
X79241168Y-56234831D01*
X79161500Y-56164185D01*
X78931518Y-56102562D01*
X78827200Y-56123909D01*
X78768879Y-56157581D01*
X78698233Y-56237249D01*
X78673584Y-56329242D01*
X78682606Y-56479556D01*
X79086667Y-57179410D01*
X78488713Y-57019189D01*
%TO.C,SW43*%
X77028018Y-76378619D02*
X76877704Y-76387641D01*
X76647722Y-76326017D01*
X76568054Y-76255372D01*
X76534382Y-76197050D01*
X76513035Y-76092733D01*
X76537684Y-76000740D01*
X76608330Y-75921072D01*
X76666651Y-75887400D01*
X76770969Y-75866053D01*
X76967279Y-75869355D01*
X77071597Y-75848008D01*
X77129918Y-75814336D01*
X77200564Y-75734668D01*
X77225214Y-75642675D01*
X77203867Y-75538358D01*
X77170195Y-75480036D01*
X77090527Y-75409390D01*
X76860544Y-75347767D01*
X76710230Y-75356789D01*
X76400580Y-75224520D02*
X75911778Y-76128822D01*
X75912663Y-75389576D01*
X75543807Y-76030224D01*
X75572643Y-75002675D01*
X74704430Y-75115130D02*
X74531884Y-75759080D01*
X75033010Y-74808782D02*
X75078122Y-75560352D01*
X74480168Y-75400131D01*
X74376735Y-74682232D02*
X73778781Y-74522011D01*
X74002159Y-74976256D01*
X73864169Y-74939282D01*
X73759851Y-74960629D01*
X73701530Y-74994300D01*
X73630884Y-75073969D01*
X73569261Y-75303951D01*
X73590608Y-75408269D01*
X73624280Y-75466590D01*
X73703948Y-75537236D01*
X73979927Y-75611184D01*
X74084244Y-75589837D01*
X74142565Y-75556165D01*
%TO.C,SW44*%
X72153020Y-94659867D02*
X72002706Y-94668889D01*
X71772724Y-94607265D01*
X71693056Y-94536620D01*
X71659384Y-94478298D01*
X71638037Y-94373981D01*
X71662686Y-94281988D01*
X71733332Y-94202320D01*
X71791653Y-94168648D01*
X71895971Y-94147301D01*
X72092281Y-94150603D01*
X72196599Y-94129256D01*
X72254920Y-94095584D01*
X72325566Y-94015916D01*
X72350216Y-93923923D01*
X72328869Y-93819606D01*
X72295197Y-93761284D01*
X72215529Y-93690638D01*
X71985546Y-93629015D01*
X71835232Y-93638037D01*
X71525582Y-93505768D02*
X71036780Y-94410070D01*
X71037665Y-93670824D01*
X70668809Y-94311472D01*
X70697645Y-93283923D01*
X69829432Y-93396378D02*
X69656886Y-94040328D01*
X70158012Y-93090030D02*
X70203124Y-93841600D01*
X69605170Y-93681379D01*
X68909503Y-93149884D02*
X68736957Y-93793834D01*
X69238083Y-92843535D02*
X69283195Y-93595106D01*
X68685240Y-93434885D01*
%TO.C,SW45*%
X67184270Y-113128618D02*
X67033956Y-113137640D01*
X66803974Y-113076016D01*
X66724306Y-113005371D01*
X66690634Y-112947049D01*
X66669287Y-112842732D01*
X66693936Y-112750739D01*
X66764582Y-112671071D01*
X66822903Y-112637399D01*
X66927221Y-112616052D01*
X67123531Y-112619354D01*
X67227849Y-112598007D01*
X67286170Y-112564335D01*
X67356816Y-112484667D01*
X67381466Y-112392674D01*
X67360119Y-112288357D01*
X67326447Y-112230035D01*
X67246779Y-112159389D01*
X67016796Y-112097766D01*
X66866482Y-112106788D01*
X66556832Y-111974519D02*
X66068030Y-112878821D01*
X66068915Y-112139575D01*
X65700059Y-112780223D01*
X65728895Y-111752674D01*
X64860682Y-111865129D02*
X64688136Y-112509079D01*
X65189262Y-111558781D02*
X65234374Y-112310351D01*
X64636420Y-112150130D01*
X63981029Y-111284335D02*
X64440994Y-111407582D01*
X64363743Y-111879871D01*
X64330072Y-111821550D01*
X64250403Y-111750904D01*
X64020421Y-111689281D01*
X63916103Y-111710628D01*
X63857782Y-111744299D01*
X63787136Y-111823968D01*
X63725513Y-112053950D01*
X63746860Y-112158268D01*
X63780532Y-112216589D01*
X63860200Y-112287235D01*
X64090182Y-112348858D01*
X64194500Y-112327511D01*
X64252821Y-112293839D01*
%TO.C,SW46*%
X128477937Y-162004430D02*
X128337893Y-161949081D01*
X128155502Y-161796036D01*
X128113154Y-161698340D01*
X128107285Y-161631253D01*
X128132024Y-161527687D01*
X128193242Y-161454731D01*
X128290938Y-161412383D01*
X128358026Y-161406514D01*
X128461591Y-161431253D01*
X128638113Y-161517211D01*
X128741679Y-161541950D01*
X128808766Y-161536081D01*
X128906462Y-161493733D01*
X128967680Y-161420777D01*
X128992420Y-161317211D01*
X128986550Y-161250124D01*
X128944203Y-161152428D01*
X128761811Y-160999383D01*
X128621767Y-160944035D01*
X128397028Y-160693294D02*
X127571849Y-161306293D01*
X127885070Y-160636683D01*
X127280022Y-161061422D01*
X127740419Y-160142333D01*
X126906025Y-159877329D02*
X126477500Y-160388025D01*
X127333288Y-159738547D02*
X127056545Y-160438767D01*
X126582327Y-160040851D01*
X126390721Y-159009802D02*
X126536634Y-159132238D01*
X126578982Y-159229934D01*
X126584851Y-159297022D01*
X126565981Y-159467674D01*
X126480024Y-159644196D01*
X126235152Y-159936023D01*
X126137456Y-159978371D01*
X126070369Y-159984240D01*
X125966803Y-159959500D01*
X125820890Y-159837065D01*
X125778543Y-159739368D01*
X125772673Y-159672281D01*
X125797413Y-159568716D01*
X125950457Y-159386324D01*
X126048154Y-159343976D01*
X126115241Y-159338107D01*
X126218806Y-159362847D01*
X126364720Y-159485282D01*
X126407067Y-159582979D01*
X126412937Y-159650066D01*
X126388197Y-159753631D01*
%TO.C,SW47*%
X61090517Y-62128616D02*
X60940203Y-62137638D01*
X60710221Y-62076014D01*
X60630553Y-62005369D01*
X60596881Y-61947047D01*
X60575534Y-61842730D01*
X60600183Y-61750737D01*
X60670829Y-61671069D01*
X60729150Y-61637397D01*
X60833468Y-61616050D01*
X61029778Y-61619352D01*
X61134096Y-61598005D01*
X61192417Y-61564333D01*
X61263063Y-61484665D01*
X61287713Y-61392672D01*
X61266366Y-61288355D01*
X61232694Y-61230033D01*
X61153026Y-61159387D01*
X60923043Y-61097764D01*
X60772729Y-61106786D01*
X60463079Y-60974517D02*
X59974277Y-61878819D01*
X59975162Y-61139573D01*
X59606306Y-61780221D01*
X59635142Y-60752672D01*
X58766929Y-60865127D02*
X58594383Y-61509077D01*
X59095509Y-60558779D02*
X59140621Y-61310349D01*
X58542667Y-61150128D01*
X58439234Y-60432229D02*
X57795283Y-60259683D01*
X57950433Y-61336531D01*
%TO.C,SW48*%
X56215517Y-80597367D02*
X56065203Y-80606389D01*
X55835221Y-80544765D01*
X55755553Y-80474120D01*
X55721881Y-80415798D01*
X55700534Y-80311481D01*
X55725183Y-80219488D01*
X55795829Y-80139820D01*
X55854150Y-80106148D01*
X55958468Y-80084801D01*
X56154778Y-80088103D01*
X56259096Y-80066756D01*
X56317417Y-80033084D01*
X56388063Y-79953416D01*
X56412713Y-79861423D01*
X56391366Y-79757106D01*
X56357694Y-79698784D01*
X56278026Y-79628138D01*
X56048043Y-79566515D01*
X55897729Y-79575537D01*
X55588079Y-79443268D02*
X55099277Y-80347570D01*
X55100162Y-79608324D01*
X54731306Y-80248972D01*
X54760142Y-79221423D01*
X53891929Y-79333878D02*
X53719383Y-79977828D01*
X54220509Y-79027530D02*
X54265621Y-79779100D01*
X53667667Y-79618879D01*
X53223329Y-79253325D02*
X53327647Y-79231978D01*
X53385968Y-79198306D01*
X53456614Y-79118638D01*
X53468939Y-79072641D01*
X53447592Y-78968324D01*
X53413920Y-78910003D01*
X53334252Y-78839357D01*
X53150266Y-78790058D01*
X53045948Y-78811405D01*
X52987627Y-78845077D01*
X52916981Y-78924745D01*
X52904656Y-78970741D01*
X52926003Y-79075059D01*
X52959675Y-79133380D01*
X53039343Y-79204026D01*
X53223329Y-79253325D01*
X53302997Y-79323971D01*
X53336669Y-79382292D01*
X53358016Y-79486610D01*
X53308717Y-79670595D01*
X53238071Y-79750264D01*
X53179750Y-79783935D01*
X53075433Y-79805282D01*
X52891447Y-79755984D01*
X52811779Y-79685338D01*
X52778107Y-79627017D01*
X52756760Y-79522699D01*
X52806059Y-79338713D01*
X52876705Y-79259045D01*
X52935026Y-79225373D01*
X53039343Y-79204026D01*
%TO.C,SW49*%
X51246771Y-98972372D02*
X51096457Y-98981394D01*
X50866475Y-98919770D01*
X50786807Y-98849125D01*
X50753135Y-98790803D01*
X50731788Y-98686486D01*
X50756437Y-98594493D01*
X50827083Y-98514825D01*
X50885404Y-98481153D01*
X50989722Y-98459806D01*
X51186032Y-98463108D01*
X51290350Y-98441761D01*
X51348671Y-98408089D01*
X51419317Y-98328421D01*
X51443967Y-98236428D01*
X51422620Y-98132111D01*
X51388948Y-98073789D01*
X51309280Y-98003143D01*
X51079297Y-97941520D01*
X50928983Y-97950542D01*
X50619333Y-97818273D02*
X50130531Y-98722575D01*
X50131416Y-97983329D01*
X49762560Y-98623977D01*
X49791396Y-97596428D01*
X48923183Y-97708883D02*
X48750637Y-98352833D01*
X49251763Y-97402535D02*
X49296875Y-98154105D01*
X48698921Y-97993884D01*
X48198680Y-98204937D02*
X48014694Y-98155638D01*
X47935026Y-98084992D01*
X47901354Y-98026671D01*
X47846335Y-97864032D01*
X47849637Y-97667722D01*
X47948235Y-97299750D01*
X48018881Y-97220082D01*
X48077202Y-97186410D01*
X48181520Y-97165063D01*
X48365506Y-97214362D01*
X48445174Y-97285008D01*
X48478846Y-97343329D01*
X48500193Y-97447646D01*
X48438569Y-97677629D01*
X48367923Y-97757297D01*
X48309602Y-97790969D01*
X48205284Y-97812316D01*
X48021299Y-97763017D01*
X47941630Y-97692371D01*
X47907959Y-97634050D01*
X47886612Y-97529732D01*
%TO.C,SW50*%
X46371772Y-117347366D02*
X46221458Y-117356388D01*
X45991476Y-117294764D01*
X45911808Y-117224119D01*
X45878136Y-117165797D01*
X45856789Y-117061480D01*
X45881438Y-116969487D01*
X45952084Y-116889819D01*
X46010405Y-116856147D01*
X46114723Y-116834800D01*
X46311033Y-116838102D01*
X46415351Y-116816755D01*
X46473672Y-116783083D01*
X46544318Y-116703415D01*
X46568968Y-116611422D01*
X46547621Y-116507105D01*
X46513949Y-116448783D01*
X46434281Y-116378137D01*
X46204298Y-116316514D01*
X46053984Y-116325536D01*
X45744334Y-116193267D02*
X45255532Y-117097569D01*
X45256417Y-116358323D01*
X44887561Y-116998971D01*
X44916397Y-115971422D01*
X44088461Y-115749577D02*
X44548425Y-115872824D01*
X44471175Y-116345113D01*
X44437503Y-116286792D01*
X44357835Y-116216146D01*
X44127852Y-116154523D01*
X44023535Y-116175870D01*
X43965214Y-116209542D01*
X43894568Y-116289210D01*
X43832944Y-116519192D01*
X43854291Y-116623510D01*
X43887963Y-116681831D01*
X43967631Y-116752477D01*
X44197613Y-116814100D01*
X44301931Y-116792753D01*
X44360252Y-116759082D01*
X43444510Y-115577031D02*
X43352517Y-115552381D01*
X43248200Y-115573729D01*
X43189878Y-115607400D01*
X43119233Y-115687068D01*
X43023937Y-115858730D01*
X42962314Y-116088712D01*
X42959011Y-116285023D01*
X42980358Y-116389340D01*
X43014030Y-116447661D01*
X43093698Y-116518307D01*
X43185691Y-116542957D01*
X43290009Y-116521610D01*
X43348330Y-116487938D01*
X43418976Y-116408270D01*
X43514271Y-116236609D01*
X43575895Y-116006626D01*
X43579197Y-115810316D01*
X43557850Y-115705998D01*
X43524178Y-115647677D01*
X43444510Y-115577031D01*
%TO.C,SW51*%
X112583077Y-150810629D02*
X112434374Y-150786903D01*
X112223181Y-150676963D01*
X112160691Y-150590749D01*
X112140441Y-150526522D01*
X112142178Y-150420057D01*
X112186154Y-150335579D01*
X112272369Y-150273090D01*
X112336596Y-150252840D01*
X112443061Y-150254577D01*
X112634003Y-150300291D01*
X112740469Y-150302028D01*
X112804695Y-150281777D01*
X112890910Y-150219288D01*
X112934886Y-150134811D01*
X112936623Y-150028346D01*
X112916373Y-149964119D01*
X112853884Y-149877904D01*
X112642691Y-149767964D01*
X112493987Y-149744239D01*
X112220304Y-149548084D02*
X111547363Y-150325155D01*
X111708229Y-149603623D01*
X111209454Y-150149250D01*
X111460009Y-149152300D01*
X110699714Y-148756515D02*
X111122101Y-148976395D01*
X110944459Y-149420769D01*
X110924208Y-149356543D01*
X110861719Y-149270328D01*
X110650526Y-149160388D01*
X110544061Y-149158651D01*
X110479834Y-149178901D01*
X110393619Y-149241390D01*
X110283679Y-149452583D01*
X110281942Y-149559049D01*
X110302192Y-149623275D01*
X110364682Y-149709490D01*
X110575875Y-149819430D01*
X110682340Y-149821167D01*
X110746567Y-149800917D01*
X109350955Y-149181777D02*
X109857818Y-149445634D01*
X109604387Y-149313705D02*
X110066135Y-148426695D01*
X110084648Y-148597386D01*
X110125150Y-148725840D01*
X110187639Y-148812054D01*
%TO.C,SW52*%
X42715520Y-57253619D02*
X42565206Y-57262641D01*
X42335224Y-57201017D01*
X42255556Y-57130372D01*
X42221884Y-57072050D01*
X42200537Y-56967733D01*
X42225186Y-56875740D01*
X42295832Y-56796072D01*
X42354153Y-56762400D01*
X42458471Y-56741053D01*
X42654781Y-56744355D01*
X42759099Y-56723008D01*
X42817420Y-56689336D01*
X42888066Y-56609668D01*
X42912716Y-56517675D01*
X42891369Y-56413358D01*
X42857697Y-56355036D01*
X42778029Y-56284390D01*
X42548046Y-56222767D01*
X42397732Y-56231789D01*
X42088082Y-56099520D02*
X41599280Y-57003822D01*
X41600165Y-56264576D01*
X41231309Y-56905224D01*
X41260145Y-55877675D01*
X40432209Y-55655830D02*
X40892173Y-55779077D01*
X40814923Y-56251366D01*
X40781251Y-56193045D01*
X40701583Y-56122399D01*
X40471600Y-56060776D01*
X40367283Y-56082123D01*
X40308962Y-56115795D01*
X40238316Y-56195463D01*
X40176692Y-56425445D01*
X40198039Y-56529763D01*
X40231711Y-56588084D01*
X40311379Y-56658730D01*
X40541361Y-56720353D01*
X40645679Y-56699006D01*
X40704000Y-56665335D01*
X39993591Y-55636900D02*
X39959919Y-55578579D01*
X39880251Y-55507933D01*
X39650269Y-55446310D01*
X39545951Y-55467657D01*
X39487630Y-55501329D01*
X39416984Y-55580997D01*
X39392335Y-55672990D01*
X39401357Y-55823304D01*
X39805418Y-56523158D01*
X39207464Y-56362937D01*
%TO.C,SW53*%
X37840517Y-75628619D02*
X37690203Y-75637641D01*
X37460221Y-75576017D01*
X37380553Y-75505372D01*
X37346881Y-75447050D01*
X37325534Y-75342733D01*
X37350183Y-75250740D01*
X37420829Y-75171072D01*
X37479150Y-75137400D01*
X37583468Y-75116053D01*
X37779778Y-75119355D01*
X37884096Y-75098008D01*
X37942417Y-75064336D01*
X38013063Y-74984668D01*
X38037713Y-74892675D01*
X38016366Y-74788358D01*
X37982694Y-74730036D01*
X37903026Y-74659390D01*
X37673043Y-74597767D01*
X37522729Y-74606789D01*
X37213079Y-74474520D02*
X36724277Y-75378822D01*
X36725162Y-74639576D01*
X36356306Y-75280224D01*
X36385142Y-74252675D01*
X35557206Y-74030830D02*
X36017170Y-74154077D01*
X35939920Y-74626366D01*
X35906248Y-74568045D01*
X35826580Y-74497399D01*
X35596597Y-74435776D01*
X35492280Y-74457123D01*
X35433959Y-74490795D01*
X35363313Y-74570463D01*
X35301689Y-74800445D01*
X35323036Y-74904763D01*
X35356708Y-74963084D01*
X35436376Y-75033730D01*
X35666358Y-75095353D01*
X35770676Y-75074006D01*
X35828997Y-75040335D01*
X35189234Y-73932232D02*
X34591280Y-73772011D01*
X34814658Y-74226256D01*
X34676668Y-74189282D01*
X34572350Y-74210629D01*
X34514029Y-74244300D01*
X34443383Y-74323969D01*
X34381760Y-74553951D01*
X34403107Y-74658269D01*
X34436779Y-74716590D01*
X34516447Y-74787236D01*
X34792426Y-74861184D01*
X34896743Y-74839837D01*
X34955064Y-74806165D01*
%TO.C,SW54*%
X32871768Y-94003619D02*
X32721454Y-94012641D01*
X32491472Y-93951017D01*
X32411804Y-93880372D01*
X32378132Y-93822050D01*
X32356785Y-93717733D01*
X32381434Y-93625740D01*
X32452080Y-93546072D01*
X32510401Y-93512400D01*
X32614719Y-93491053D01*
X32811029Y-93494355D01*
X32915347Y-93473008D01*
X32973668Y-93439336D01*
X33044314Y-93359668D01*
X33068964Y-93267675D01*
X33047617Y-93163358D01*
X33013945Y-93105036D01*
X32934277Y-93034390D01*
X32704294Y-92972767D01*
X32553980Y-92981789D01*
X32244330Y-92849520D02*
X31755528Y-93753822D01*
X31756413Y-93014576D01*
X31387557Y-93655224D01*
X31416393Y-92627675D01*
X30588457Y-92405830D02*
X31048421Y-92529077D01*
X30971171Y-93001366D01*
X30937499Y-92943045D01*
X30857831Y-92872399D01*
X30627848Y-92810776D01*
X30523531Y-92832123D01*
X30465210Y-92865795D01*
X30394564Y-92945463D01*
X30332940Y-93175445D01*
X30354287Y-93279763D01*
X30387959Y-93338084D01*
X30467627Y-93408730D01*
X30697609Y-93470353D01*
X30801927Y-93449006D01*
X30860248Y-93415335D01*
X29628251Y-92493636D02*
X29455705Y-93137586D01*
X29956831Y-92187287D02*
X30001943Y-92938858D01*
X29403988Y-92778637D01*
%TO.C,SW55*%
X27903020Y-112472368D02*
X27752706Y-112481390D01*
X27522724Y-112419766D01*
X27443056Y-112349121D01*
X27409384Y-112290799D01*
X27388037Y-112186482D01*
X27412686Y-112094489D01*
X27483332Y-112014821D01*
X27541653Y-111981149D01*
X27645971Y-111959802D01*
X27842281Y-111963104D01*
X27946599Y-111941757D01*
X28004920Y-111908085D01*
X28075566Y-111828417D01*
X28100216Y-111736424D01*
X28078869Y-111632107D01*
X28045197Y-111573785D01*
X27965529Y-111503139D01*
X27735546Y-111441516D01*
X27585232Y-111450538D01*
X27275582Y-111318269D02*
X26786780Y-112222571D01*
X26787665Y-111483325D01*
X26418809Y-112123973D01*
X26447645Y-111096424D01*
X25619709Y-110874579D02*
X26079673Y-110997826D01*
X26002423Y-111470115D01*
X25968751Y-111411794D01*
X25889083Y-111341148D01*
X25659100Y-111279525D01*
X25554783Y-111300872D01*
X25496462Y-111334544D01*
X25425816Y-111414212D01*
X25364192Y-111644194D01*
X25385539Y-111748512D01*
X25419211Y-111806833D01*
X25498879Y-111877479D01*
X25728861Y-111939102D01*
X25833179Y-111917755D01*
X25891500Y-111884084D01*
X24699779Y-110628085D02*
X25159744Y-110751332D01*
X25082493Y-111223621D01*
X25048822Y-111165300D01*
X24969153Y-111094654D01*
X24739171Y-111033031D01*
X24634853Y-111054378D01*
X24576532Y-111088049D01*
X24505886Y-111167718D01*
X24444263Y-111397700D01*
X24465610Y-111502018D01*
X24499282Y-111560339D01*
X24578950Y-111630985D01*
X24808932Y-111692608D01*
X24913250Y-111671261D01*
X24971571Y-111637589D01*
%TO.C,SW56*%
X94653016Y-143409868D02*
X94502702Y-143418890D01*
X94272720Y-143357266D01*
X94193052Y-143286621D01*
X94159380Y-143228299D01*
X94138033Y-143123982D01*
X94162682Y-143031989D01*
X94233328Y-142952321D01*
X94291649Y-142918649D01*
X94395967Y-142897302D01*
X94592277Y-142900604D01*
X94696595Y-142879257D01*
X94754916Y-142845585D01*
X94825562Y-142765917D01*
X94850212Y-142673924D01*
X94828865Y-142569607D01*
X94795193Y-142511285D01*
X94715525Y-142440639D01*
X94485542Y-142379016D01*
X94335228Y-142388038D01*
X94025578Y-142255769D02*
X93536776Y-143160071D01*
X93537661Y-142420825D01*
X93168805Y-143061473D01*
X93197641Y-142033924D01*
X92369705Y-141812079D02*
X92829669Y-141935326D01*
X92752419Y-142407615D01*
X92718747Y-142349294D01*
X92639079Y-142278648D01*
X92409096Y-142217025D01*
X92304779Y-142238372D01*
X92246458Y-142272044D01*
X92175812Y-142351712D01*
X92114188Y-142581694D01*
X92135535Y-142686012D01*
X92169207Y-142744333D01*
X92248875Y-142814979D01*
X92478857Y-142876602D01*
X92583175Y-142855255D01*
X92641496Y-142821584D01*
X91495772Y-141577909D02*
X91679758Y-141627208D01*
X91759426Y-141697854D01*
X91793098Y-141756175D01*
X91848117Y-141918814D01*
X91844814Y-142115125D01*
X91746216Y-142483096D01*
X91675570Y-142562765D01*
X91617249Y-142596436D01*
X91512932Y-142617783D01*
X91328946Y-142568485D01*
X91249278Y-142497839D01*
X91215606Y-142439518D01*
X91194259Y-142335200D01*
X91255882Y-142105218D01*
X91326528Y-142025549D01*
X91384849Y-141991878D01*
X91489167Y-141970531D01*
X91673153Y-142019829D01*
X91752821Y-142090475D01*
X91786493Y-142148796D01*
X91807840Y-142253114D01*
%TD*%
M02*
